solid JSCAD
facet normal -1 0 0
outer loop
vertex -13.000026666666669 0 0.9564800000000001
vertex -13.000026666666669 7.750026666666668 -1.999946666666667
vertex -13.000026666666669 7.000000000000001 -1.999946666666667
endloop
endfacet
facet normal -1 0 0
outer loop
vertex -13.000026666666669 0 0.9564800000000001
vertex -13.000026666666669 7.000000000000001 -1.999946666666667
vertex -13.000026666666669 -7.000000000000001 -1.999946666666667
endloop
endfacet
facet normal -1 0 0
outer loop
vertex -13.000026666666669 0 0.9564800000000001
vertex -13.000026666666669 -7.000000000000001 -1.999946666666667
vertex -13.000026666666669 -7.750026666666668 -1.999946666666667
endloop
endfacet
facet normal -1 0 0
outer loop
vertex -13.000026666666669 0 0.9564800000000001
vertex -13.000026666666669 -7.750026666666668 -1.999946666666667
vertex -13.000026666666669 -13.000026666666669 -1.999946666666667
endloop
endfacet
facet normal -1 0 0
outer loop
vertex -13.000026666666669 0 0.9564800000000001
vertex -13.000026666666669 -13.000026666666669 -1.999946666666667
vertex -13.000026666666669 -13.000026666666669 1.999946666666667
endloop
endfacet
facet normal -1 0 0
outer loop
vertex -13.000026666666669 0 0.9564800000000001
vertex -13.000026666666669 -13.000026666666669 1.999946666666667
vertex -13.000026666666669 -12.750266666666668 1.999946666666667
endloop
endfacet
facet normal -1 0 0
outer loop
vertex -13.000026666666669 0 0.9564800000000001
vertex -13.000026666666669 -12.750266666666668 1.999946666666667
vertex -13.000026666666669 -12.010506666666668 1.999946666666667
endloop
endfacet
facet normal -1 0 0
outer loop
vertex -13.000026666666669 0 0.9564800000000001
vertex -13.000026666666669 -12.010506666666668 1.999946666666667
vertex -13.000026666666669 -10.809120000000002 1.999946666666667
endloop
endfacet
facet normal -1 0 0
outer loop
vertex -13.000026666666669 0 0.9564800000000001
vertex -13.000026666666669 -10.809120000000002 1.999946666666667
vertex -13.000026666666669 -9.192400000000001 1.999946666666667
endloop
endfacet
facet normal -1 0 0
outer loop
vertex -13.000026666666669 0 0.9564800000000001
vertex -13.000026666666669 -9.192400000000001 1.999946666666667
vertex -13.000026666666669 -7.222320000000001 1.999946666666667
endloop
endfacet
facet normal -1 0 0
outer loop
vertex -13.000026666666669 0 0.9564800000000001
vertex -13.000026666666669 -7.222320000000001 1.999946666666667
vertex -13.000026666666669 -4.974853333333334 1.999946666666667
endloop
endfacet
facet normal -1 0 0
outer loop
vertex -13.000026666666669 0 0.9564800000000001
vertex -13.000026666666669 -4.974853333333334 1.999946666666667
vertex -13.000026666666669 -2.5362400000000003 1.999946666666667
endloop
endfacet
facet normal -1 0 0
outer loop
vertex -13.000026666666669 0 0.9564800000000001
vertex -13.000026666666669 -2.5362400000000003 1.999946666666667
vertex -13.000026666666669 0 1.999946666666667
endloop
endfacet
facet normal -1 0 0
outer loop
vertex -13.000026666666669 0 0.9564800000000001
vertex -13.000026666666669 0 1.999946666666667
vertex -13.000026666666669 2.5362400000000003 1.999946666666667
endloop
endfacet
facet normal -1 0 0
outer loop
vertex -13.000026666666669 0 0.9564800000000001
vertex -13.000026666666669 2.5362400000000003 1.999946666666667
vertex -13.000026666666669 4.974853333333334 1.999946666666667
endloop
endfacet
facet normal -1 0 0
outer loop
vertex -13.000026666666669 0 0.9564800000000001
vertex -13.000026666666669 4.974853333333334 1.999946666666667
vertex -13.000026666666669 7.222320000000001 1.999946666666667
endloop
endfacet
facet normal -1 0 0
outer loop
vertex -13.000026666666669 0 0.9564800000000001
vertex -13.000026666666669 7.222320000000001 1.999946666666667
vertex -13.000026666666669 9.192400000000001 1.999946666666667
endloop
endfacet
facet normal -1 0 0
outer loop
vertex -13.000026666666669 0 0.9564800000000001
vertex -13.000026666666669 9.192400000000001 1.999946666666667
vertex -13.000026666666669 10.809120000000002 1.999946666666667
endloop
endfacet
facet normal -1 0 0
outer loop
vertex -13.000026666666669 0 0.9564800000000001
vertex -13.000026666666669 10.809120000000002 1.999946666666667
vertex -13.000026666666669 12.010506666666668 1.999946666666667
endloop
endfacet
facet normal -1 0 0
outer loop
vertex -13.000026666666669 0 0.9564800000000001
vertex -13.000026666666669 12.010506666666668 1.999946666666667
vertex -13.000026666666669 12.750266666666668 1.999946666666667
endloop
endfacet
facet normal -1 0 0
outer loop
vertex -13.000026666666669 0 0.9564800000000001
vertex -13.000026666666669 12.750266666666668 1.999946666666667
vertex -13.000026666666669 13.000026666666669 1.999946666666667
endloop
endfacet
facet normal -1 0 0
outer loop
vertex -13.000026666666669 0 0.9564800000000001
vertex -13.000026666666669 13.000026666666669 1.999946666666667
vertex -13.000026666666669 13.000026666666669 -1.999946666666667
endloop
endfacet
facet normal -1 0 0
outer loop
vertex -13.000026666666669 0 0.9564800000000001
vertex -13.000026666666669 13.000026666666669 -1.999946666666667
vertex -13.000026666666669 7.750026666666668 -1.999946666666667
endloop
endfacet
facet normal 1 0 0
outer loop
vertex 13.000026666666669 0 0.9564800000000001
vertex 13.000026666666669 -13.000026666666669 -1.999946666666667
vertex 13.000026666666669 -7.750026666666668 -1.999946666666667
endloop
endfacet
facet normal 1 0 0
outer loop
vertex 13.000026666666669 0 0.9564800000000001
vertex 13.000026666666669 -7.750026666666668 -1.999946666666667
vertex 13.000026666666669 -7.000000000000001 -1.999946666666667
endloop
endfacet
facet normal 1 0 0
outer loop
vertex 13.000026666666669 0 0.9564800000000001
vertex 13.000026666666669 -7.000000000000001 -1.999946666666667
vertex 13.000026666666669 7.000000000000001 -1.999946666666667
endloop
endfacet
facet normal 1 0 0
outer loop
vertex 13.000026666666669 0 0.9564800000000001
vertex 13.000026666666669 7.000000000000001 -1.999946666666667
vertex 13.000026666666669 7.750026666666668 -1.999946666666667
endloop
endfacet
facet normal 1 0 0
outer loop
vertex 13.000026666666669 0 0.9564800000000001
vertex 13.000026666666669 7.750026666666668 -1.999946666666667
vertex 13.000026666666669 13.000026666666669 -1.999946666666667
endloop
endfacet
facet normal 1 0 0
outer loop
vertex 13.000026666666669 0 0.9564800000000001
vertex 13.000026666666669 13.000026666666669 -1.999946666666667
vertex 13.000026666666669 13.000026666666669 1.999946666666667
endloop
endfacet
facet normal 1 0 0
outer loop
vertex 13.000026666666669 0 0.9564800000000001
vertex 13.000026666666669 13.000026666666669 1.999946666666667
vertex 13.000026666666669 12.750266666666668 1.999946666666667
endloop
endfacet
facet normal 1 0 0
outer loop
vertex 13.000026666666669 0 0.9564800000000001
vertex 13.000026666666669 12.750266666666668 1.999946666666667
vertex 13.000026666666669 12.010506666666668 1.999946666666667
endloop
endfacet
facet normal 1 0 0
outer loop
vertex 13.000026666666669 0 0.9564800000000001
vertex 13.000026666666669 12.010506666666668 1.999946666666667
vertex 13.000026666666669 10.809120000000002 1.999946666666667
endloop
endfacet
facet normal 1 0 0
outer loop
vertex 13.000026666666669 0 0.9564800000000001
vertex 13.000026666666669 10.809120000000002 1.999946666666667
vertex 13.000026666666669 9.192400000000001 1.999946666666667
endloop
endfacet
facet normal 1 0 0
outer loop
vertex 13.000026666666669 0 0.9564800000000001
vertex 13.000026666666669 9.192400000000001 1.999946666666667
vertex 13.000026666666669 7.222320000000001 1.999946666666667
endloop
endfacet
facet normal 1 0 0
outer loop
vertex 13.000026666666669 0 0.9564800000000001
vertex 13.000026666666669 7.222320000000001 1.999946666666667
vertex 13.000026666666669 4.974853333333334 1.999946666666667
endloop
endfacet
facet normal 1 0 0
outer loop
vertex 13.000026666666669 0 0.9564800000000001
vertex 13.000026666666669 4.974853333333334 1.999946666666667
vertex 13.000026666666669 2.5362400000000003 1.999946666666667
endloop
endfacet
facet normal 1 0 0
outer loop
vertex 13.000026666666669 0 0.9564800000000001
vertex 13.000026666666669 2.5362400000000003 1.999946666666667
vertex 13.000026666666669 0 1.999946666666667
endloop
endfacet
facet normal 1 0 0
outer loop
vertex 13.000026666666669 0 0.9564800000000001
vertex 13.000026666666669 0 1.999946666666667
vertex 13.000026666666669 -2.5362400000000003 1.999946666666667
endloop
endfacet
facet normal 1 0 0
outer loop
vertex 13.000026666666669 0 0.9564800000000001
vertex 13.000026666666669 -2.5362400000000003 1.999946666666667
vertex 13.000026666666669 -4.974853333333334 1.999946666666667
endloop
endfacet
facet normal 1 0 0
outer loop
vertex 13.000026666666669 0 0.9564800000000001
vertex 13.000026666666669 -4.974853333333334 1.999946666666667
vertex 13.000026666666669 -7.222320000000001 1.999946666666667
endloop
endfacet
facet normal 1 0 0
outer loop
vertex 13.000026666666669 0 0.9564800000000001
vertex 13.000026666666669 -7.222320000000001 1.999946666666667
vertex 13.000026666666669 -9.192400000000001 1.999946666666667
endloop
endfacet
facet normal 1 0 0
outer loop
vertex 13.000026666666669 0 0.9564800000000001
vertex 13.000026666666669 -9.192400000000001 1.999946666666667
vertex 13.000026666666669 -10.809120000000002 1.999946666666667
endloop
endfacet
facet normal 1 0 0
outer loop
vertex 13.000026666666669 0 0.9564800000000001
vertex 13.000026666666669 -10.809120000000002 1.999946666666667
vertex 13.000026666666669 -12.010506666666668 1.999946666666667
endloop
endfacet
facet normal 1 0 0
outer loop
vertex 13.000026666666669 0 0.9564800000000001
vertex 13.000026666666669 -12.010506666666668 1.999946666666667
vertex 13.000026666666669 -12.750266666666668 1.999946666666667
endloop
endfacet
facet normal 1 0 0
outer loop
vertex 13.000026666666669 0 0.9564800000000001
vertex 13.000026666666669 -12.750266666666668 1.999946666666667
vertex 13.000026666666669 -13.000026666666669 1.999946666666667
endloop
endfacet
facet normal 1 0 0
outer loop
vertex 13.000026666666669 0 0.9564800000000001
vertex 13.000026666666669 -13.000026666666669 1.999946666666667
vertex 13.000026666666669 -13.000026666666669 -1.999946666666667
endloop
endfacet
facet normal 0 -1 0
outer loop
vertex 0 -13.000026666666669 0.4000266666666667
vertex -13.000026666666669 -13.000026666666669 -1.999946666666667
vertex 13.000026666666669 -13.000026666666669 -1.999946666666667
endloop
endfacet
facet normal 0 -1 0
outer loop
vertex 0 -13.000026666666669 0.4000266666666667
vertex 13.000026666666669 -13.000026666666669 -1.999946666666667
vertex 13.000026666666669 -13.000026666666669 1.999946666666667
endloop
endfacet
facet normal 0 -1 0
outer loop
vertex 0 -13.000026666666669 0.4000266666666667
vertex 13.000026666666669 -13.000026666666669 1.999946666666667
vertex 0 -13.000026666666669 1.999946666666667
endloop
endfacet
facet normal 0 -1 0
outer loop
vertex 0 -13.000026666666669 0.4000266666666667
vertex 0 -13.000026666666669 1.999946666666667
vertex -13.000026666666669 -13.000026666666669 1.999946666666667
endloop
endfacet
facet normal 0 -1 0
outer loop
vertex 0 -13.000026666666669 0.4000266666666667
vertex -13.000026666666669 -13.000026666666669 1.999946666666667
vertex -13.000026666666669 -13.000026666666669 -1.999946666666667
endloop
endfacet
facet normal 0 1 0
outer loop
vertex 0 13.000026666666669 0.4000266666666667
vertex -13.000026666666669 13.000026666666669 -1.999946666666667
vertex -13.000026666666669 13.000026666666669 1.999946666666667
endloop
endfacet
facet normal 0 1 0
outer loop
vertex 0 13.000026666666669 0.4000266666666667
vertex -13.000026666666669 13.000026666666669 1.999946666666667
vertex 0 13.000026666666669 1.999946666666667
endloop
endfacet
facet normal 0 1 0
outer loop
vertex 0 13.000026666666669 0.4000266666666667
vertex 0 13.000026666666669 1.999946666666667
vertex 13.000026666666669 13.000026666666669 1.999946666666667
endloop
endfacet
facet normal 0 1 0
outer loop
vertex 0 13.000026666666669 0.4000266666666667
vertex 13.000026666666669 13.000026666666669 1.999946666666667
vertex 13.000026666666669 13.000026666666669 -1.999946666666667
endloop
endfacet
facet normal 0 1 0
outer loop
vertex 0 13.000026666666669 0.4000266666666667
vertex 13.000026666666669 13.000026666666669 -1.999946666666667
vertex -13.000026666666669 13.000026666666669 -1.999946666666667
endloop
endfacet
facet normal -0.9951861747840878 -0.0980024362891816 0
outer loop
vertex 13.000026666666669 0 0
vertex 13.000026666666669 0 1.999946666666667
vertex 12.750266666666668 2.5362400000000003 1.999946666666667
endloop
endfacet
facet normal -0.9951861747840878 -0.0980024362891816 0
outer loop
vertex 13.000026666666669 0 0
vertex 12.750266666666668 2.5362400000000003 1.999946666666667
vertex 12.750266666666668 2.5362400000000003 0
endloop
endfacet
facet normal -0.9569387297622021 -0.2902899713753528 0
outer loop
vertex 12.750266666666668 2.5362400000000003 0
vertex 12.750266666666668 2.5362400000000003 1.999946666666667
vertex 12.010506666666668 4.974853333333334 1.999946666666667
endloop
endfacet
facet normal -0.9569387297622021 -0.2902899713753528 0
outer loop
vertex 12.750266666666668 2.5362400000000003 0
vertex 12.010506666666668 4.974853333333334 1.999946666666667
vertex 12.010506666666668 4.974853333333334 0
endloop
endfacet
facet normal -0.8819064666976894 -0.4714244202380669 0
outer loop
vertex 12.010506666666668 4.974853333333334 0
vertex 12.010506666666668 4.974853333333334 1.999946666666667
vertex 10.809120000000002 7.222320000000001 1.999946666666667
endloop
endfacet
facet normal -0.8819064666976894 -0.4714244202380669 0
outer loop
vertex 12.010506666666668 4.974853333333334 0
vertex 10.809120000000002 7.222320000000001 1.999946666666667
vertex 10.809120000000002 7.222320000000001 0
endloop
endfacet
facet normal -0.7730263995482278 -0.6343738531824146 0
outer loop
vertex 10.809120000000002 7.222320000000001 0
vertex 10.809120000000002 7.222320000000001 1.999946666666667
vertex 9.192400000000001 9.192400000000001 1.999946666666667
endloop
endfacet
facet normal -0.7730263995482278 -0.6343738531824146 0
outer loop
vertex 10.809120000000002 7.222320000000001 0
vertex 9.192400000000001 9.192400000000001 1.999946666666667
vertex 9.192400000000001 9.192400000000001 0
endloop
endfacet
facet normal -0.6343738531824146 -0.7730263995482278 0
outer loop
vertex 9.192400000000001 9.192400000000001 0
vertex 9.192400000000001 9.192400000000001 1.999946666666667
vertex 7.222320000000001 10.809120000000002 1.999946666666667
endloop
endfacet
facet normal -0.6343738531824146 -0.7730263995482278 0
outer loop
vertex 9.192400000000001 9.192400000000001 0
vertex 7.222320000000001 10.809120000000002 1.999946666666667
vertex 7.222320000000001 10.809120000000002 0
endloop
endfacet
facet normal -0.4714244202380669 -0.8819064666976894 0
outer loop
vertex 7.222320000000001 10.809120000000002 0
vertex 7.222320000000001 10.809120000000002 1.999946666666667
vertex 4.974853333333334 12.010506666666668 1.999946666666667
endloop
endfacet
facet normal -0.4714244202380669 -0.8819064666976894 0
outer loop
vertex 7.222320000000001 10.809120000000002 0
vertex 4.974853333333334 12.010506666666668 1.999946666666667
vertex 4.974853333333334 12.010506666666668 0
endloop
endfacet
facet normal -0.2902899713753528 -0.9569387297622021 0
outer loop
vertex 4.974853333333334 12.010506666666668 0
vertex 4.974853333333334 12.010506666666668 1.999946666666667
vertex 2.5362400000000003 12.750266666666668 1.999946666666667
endloop
endfacet
facet normal -0.2902899713753528 -0.9569387297622021 0
outer loop
vertex 4.974853333333334 12.010506666666668 0
vertex 2.5362400000000003 12.750266666666668 1.999946666666667
vertex 2.5362400000000003 12.750266666666668 0
endloop
endfacet
facet normal -0.0980024362891816 -0.9951861747840878 0
outer loop
vertex 2.5362400000000003 12.750266666666668 0
vertex 2.5362400000000003 12.750266666666668 1.999946666666667
vertex 0 13.000026666666669 1.999946666666667
endloop
endfacet
facet normal -0.0980024362891816 -0.9951861747840878 0
outer loop
vertex 2.5362400000000003 12.750266666666668 0
vertex 0 13.000026666666669 1.999946666666667
vertex 0 13.000026666666669 0
endloop
endfacet
facet normal 0.0980024362891816 -0.9951861747840878 0
outer loop
vertex 0 13.000026666666669 0
vertex 0 13.000026666666669 1.999946666666667
vertex -2.5362400000000003 12.750266666666668 1.999946666666667
endloop
endfacet
facet normal 0.0980024362891816 -0.9951861747840878 0
outer loop
vertex 0 13.000026666666669 0
vertex -2.5362400000000003 12.750266666666668 1.999946666666667
vertex -2.5362400000000003 12.750266666666668 0
endloop
endfacet
facet normal 0.2902899713753528 -0.9569387297622021 0
outer loop
vertex -2.5362400000000003 12.750266666666668 0
vertex -2.5362400000000003 12.750266666666668 1.999946666666667
vertex -4.974853333333334 12.010506666666668 1.999946666666667
endloop
endfacet
facet normal 0.2902899713753528 -0.9569387297622021 0
outer loop
vertex -2.5362400000000003 12.750266666666668 0
vertex -4.974853333333334 12.010506666666668 1.999946666666667
vertex -4.974853333333334 12.010506666666668 0
endloop
endfacet
facet normal 0.4714244202380669 -0.8819064666976894 0
outer loop
vertex -4.974853333333334 12.010506666666668 0
vertex -4.974853333333334 12.010506666666668 1.999946666666667
vertex -7.222320000000001 10.809120000000002 1.999946666666667
endloop
endfacet
facet normal 0.4714244202380669 -0.8819064666976894 0
outer loop
vertex -4.974853333333334 12.010506666666668 0
vertex -7.222320000000001 10.809120000000002 1.999946666666667
vertex -7.222320000000001 10.809120000000002 0
endloop
endfacet
facet normal 0.6343738531824146 -0.7730263995482278 0
outer loop
vertex -7.222320000000001 10.809120000000002 0
vertex -7.222320000000001 10.809120000000002 1.999946666666667
vertex -9.192400000000001 9.192400000000001 1.999946666666667
endloop
endfacet
facet normal 0.6343738531824146 -0.7730263995482278 0
outer loop
vertex -7.222320000000001 10.809120000000002 0
vertex -9.192400000000001 9.192400000000001 1.999946666666667
vertex -9.192400000000001 9.192400000000001 0
endloop
endfacet
facet normal 0.7730263995482278 -0.6343738531824146 0
outer loop
vertex -9.192400000000001 9.192400000000001 0
vertex -9.192400000000001 9.192400000000001 1.999946666666667
vertex -10.809120000000002 7.222320000000001 1.999946666666667
endloop
endfacet
facet normal 0.7730263995482278 -0.6343738531824146 0
outer loop
vertex -9.192400000000001 9.192400000000001 0
vertex -10.809120000000002 7.222320000000001 1.999946666666667
vertex -10.809120000000002 7.222320000000001 0
endloop
endfacet
facet normal 0.8819064666976894 -0.4714244202380669 0
outer loop
vertex -10.809120000000002 7.222320000000001 0
vertex -10.809120000000002 7.222320000000001 1.999946666666667
vertex -12.010506666666668 4.974853333333334 1.999946666666667
endloop
endfacet
facet normal 0.8819064666976894 -0.4714244202380669 0
outer loop
vertex -10.809120000000002 7.222320000000001 0
vertex -12.010506666666668 4.974853333333334 1.999946666666667
vertex -12.010506666666668 4.974853333333334 0
endloop
endfacet
facet normal 0.9569387297622021 -0.2902899713753528 0
outer loop
vertex -12.010506666666668 4.974853333333334 0
vertex -12.010506666666668 4.974853333333334 1.999946666666667
vertex -12.750266666666668 2.5362400000000003 1.999946666666667
endloop
endfacet
facet normal 0.9569387297622021 -0.2902899713753528 0
outer loop
vertex -12.010506666666668 4.974853333333334 0
vertex -12.750266666666668 2.5362400000000003 1.999946666666667
vertex -12.750266666666668 2.5362400000000003 0
endloop
endfacet
facet normal 0.9951861747840878 -0.0980024362891816 0
outer loop
vertex -12.750266666666668 2.5362400000000003 0
vertex -12.750266666666668 2.5362400000000003 1.999946666666667
vertex -13.000026666666669 0 1.999946666666667
endloop
endfacet
facet normal 0.9951861747840878 -0.0980024362891816 0
outer loop
vertex -12.750266666666668 2.5362400000000003 0
vertex -13.000026666666669 0 1.999946666666667
vertex -13.000026666666669 0 0
endloop
endfacet
facet normal 0.9951861747840878 0.0980024362891816 0
outer loop
vertex -13.000026666666669 0 0
vertex -13.000026666666669 0 1.999946666666667
vertex -12.750266666666668 -2.5362400000000003 1.999946666666667
endloop
endfacet
facet normal 0.9951861747840878 0.0980024362891816 0
outer loop
vertex -13.000026666666669 0 0
vertex -12.750266666666668 -2.5362400000000003 1.999946666666667
vertex -12.750266666666668 -2.5362400000000003 0
endloop
endfacet
facet normal 0.9569387297622021 0.2902899713753528 0
outer loop
vertex -12.750266666666668 -2.5362400000000003 0
vertex -12.750266666666668 -2.5362400000000003 1.999946666666667
vertex -12.010506666666668 -4.974853333333334 1.999946666666667
endloop
endfacet
facet normal 0.9569387297622021 0.2902899713753528 0
outer loop
vertex -12.750266666666668 -2.5362400000000003 0
vertex -12.010506666666668 -4.974853333333334 1.999946666666667
vertex -12.010506666666668 -4.974853333333334 0
endloop
endfacet
facet normal 0.8819064666976894 0.4714244202380669 0
outer loop
vertex -12.010506666666668 -4.974853333333334 0
vertex -12.010506666666668 -4.974853333333334 1.999946666666667
vertex -10.809120000000002 -7.222320000000001 1.999946666666667
endloop
endfacet
facet normal 0.8819064666976894 0.4714244202380669 0
outer loop
vertex -12.010506666666668 -4.974853333333334 0
vertex -10.809120000000002 -7.222320000000001 1.999946666666667
vertex -10.809120000000002 -7.222320000000001 0
endloop
endfacet
facet normal 0.7730263995482278 0.6343738531824146 0
outer loop
vertex -10.809120000000002 -7.222320000000001 0
vertex -10.809120000000002 -7.222320000000001 1.999946666666667
vertex -9.192400000000001 -9.192400000000001 1.999946666666667
endloop
endfacet
facet normal 0.7730263995482278 0.6343738531824146 0
outer loop
vertex -10.809120000000002 -7.222320000000001 0
vertex -9.192400000000001 -9.192400000000001 1.999946666666667
vertex -9.192400000000001 -9.192400000000001 0
endloop
endfacet
facet normal 0.6343738531824146 0.7730263995482278 0
outer loop
vertex -9.192400000000001 -9.192400000000001 0
vertex -9.192400000000001 -9.192400000000001 1.999946666666667
vertex -7.222320000000001 -10.809120000000002 1.999946666666667
endloop
endfacet
facet normal 0.6343738531824146 0.7730263995482278 0
outer loop
vertex -9.192400000000001 -9.192400000000001 0
vertex -7.222320000000001 -10.809120000000002 1.999946666666667
vertex -7.222320000000001 -10.809120000000002 0
endloop
endfacet
facet normal 0.4714244202380669 0.8819064666976894 0
outer loop
vertex -7.222320000000001 -10.809120000000002 0
vertex -7.222320000000001 -10.809120000000002 1.999946666666667
vertex -4.974853333333334 -12.010506666666668 1.999946666666667
endloop
endfacet
facet normal 0.4714244202380669 0.8819064666976894 0
outer loop
vertex -7.222320000000001 -10.809120000000002 0
vertex -4.974853333333334 -12.010506666666668 1.999946666666667
vertex -4.974853333333334 -12.010506666666668 0
endloop
endfacet
facet normal 0.2902899713753528 0.9569387297622021 0
outer loop
vertex -4.974853333333334 -12.010506666666668 0
vertex -4.974853333333334 -12.010506666666668 1.999946666666667
vertex -2.5362400000000003 -12.750266666666668 1.999946666666667
endloop
endfacet
facet normal 0.2902899713753528 0.9569387297622021 0
outer loop
vertex -4.974853333333334 -12.010506666666668 0
vertex -2.5362400000000003 -12.750266666666668 1.999946666666667
vertex -2.5362400000000003 -12.750266666666668 0
endloop
endfacet
facet normal 0.0980024362891816 0.9951861747840878 0
outer loop
vertex -2.5362400000000003 -12.750266666666668 0
vertex -2.5362400000000003 -12.750266666666668 1.999946666666667
vertex 0 -13.000026666666669 1.999946666666667
endloop
endfacet
facet normal 0.0980024362891816 0.9951861747840878 0
outer loop
vertex -2.5362400000000003 -12.750266666666668 0
vertex 0 -13.000026666666669 1.999946666666667
vertex 0 -13.000026666666669 0
endloop
endfacet
facet normal -0.0980024362891816 0.9951861747840878 0
outer loop
vertex 0 -13.000026666666669 0
vertex 0 -13.000026666666669 1.999946666666667
vertex 2.5362400000000003 -12.750266666666668 1.999946666666667
endloop
endfacet
facet normal -0.0980024362891816 0.9951861747840878 0
outer loop
vertex 0 -13.000026666666669 0
vertex 2.5362400000000003 -12.750266666666668 1.999946666666667
vertex 2.5362400000000003 -12.750266666666668 0
endloop
endfacet
facet normal -0.2902899713753528 0.9569387297622021 0
outer loop
vertex 2.5362400000000003 -12.750266666666668 0
vertex 2.5362400000000003 -12.750266666666668 1.999946666666667
vertex 4.974853333333334 -12.010506666666668 1.999946666666667
endloop
endfacet
facet normal -0.2902899713753528 0.9569387297622021 0
outer loop
vertex 2.5362400000000003 -12.750266666666668 0
vertex 4.974853333333334 -12.010506666666668 1.999946666666667
vertex 4.974853333333334 -12.010506666666668 0
endloop
endfacet
facet normal -0.4714244202380669 0.8819064666976894 0
outer loop
vertex 4.974853333333334 -12.010506666666668 0
vertex 4.974853333333334 -12.010506666666668 1.999946666666667
vertex 7.222320000000001 -10.809120000000002 1.999946666666667
endloop
endfacet
facet normal -0.4714244202380669 0.8819064666976894 0
outer loop
vertex 4.974853333333334 -12.010506666666668 0
vertex 7.222320000000001 -10.809120000000002 1.999946666666667
vertex 7.222320000000001 -10.809120000000002 0
endloop
endfacet
facet normal -0.6343738531824146 0.7730263995482278 0
outer loop
vertex 7.222320000000001 -10.809120000000002 0
vertex 7.222320000000001 -10.809120000000002 1.999946666666667
vertex 9.192400000000001 -9.192400000000001 1.999946666666667
endloop
endfacet
facet normal -0.6343738531824146 0.7730263995482278 0
outer loop
vertex 7.222320000000001 -10.809120000000002 0
vertex 9.192400000000001 -9.192400000000001 1.999946666666667
vertex 9.192400000000001 -9.192400000000001 0
endloop
endfacet
facet normal -0.7730263995482278 0.6343738531824146 0
outer loop
vertex 9.192400000000001 -9.192400000000001 0
vertex 9.192400000000001 -9.192400000000001 1.999946666666667
vertex 10.809120000000002 -7.222320000000001 1.999946666666667
endloop
endfacet
facet normal -0.7730263995482278 0.6343738531824146 0
outer loop
vertex 9.192400000000001 -9.192400000000001 0
vertex 10.809120000000002 -7.222320000000001 1.999946666666667
vertex 10.809120000000002 -7.222320000000001 0
endloop
endfacet
facet normal -0.8819064666976894 0.4714244202380669 0
outer loop
vertex 10.809120000000002 -7.222320000000001 0
vertex 10.809120000000002 -7.222320000000001 1.999946666666667
vertex 12.010506666666668 -4.974853333333334 1.999946666666667
endloop
endfacet
facet normal -0.8819064666976894 0.4714244202380669 0
outer loop
vertex 10.809120000000002 -7.222320000000001 0
vertex 12.010506666666668 -4.974853333333334 1.999946666666667
vertex 12.010506666666668 -4.974853333333334 0
endloop
endfacet
facet normal -0.9569387297622021 0.2902899713753528 0
outer loop
vertex 12.010506666666668 -4.974853333333334 0
vertex 12.010506666666668 -4.974853333333334 1.999946666666667
vertex 12.750266666666668 -2.5362400000000003 1.999946666666667
endloop
endfacet
facet normal -0.9569387297622021 0.2902899713753528 0
outer loop
vertex 12.010506666666668 -4.974853333333334 0
vertex 12.750266666666668 -2.5362400000000003 1.999946666666667
vertex 12.750266666666668 -2.5362400000000003 0
endloop
endfacet
facet normal -0.9951861747840878 0.0980024362891816 0
outer loop
vertex 12.750266666666668 -2.5362400000000003 0
vertex 12.750266666666668 -2.5362400000000003 1.999946666666667
vertex 13.000026666666669 0 1.999946666666667
endloop
endfacet
facet normal -0.9951861747840878 0.0980024362891816 0
outer loop
vertex 12.750266666666668 -2.5362400000000003 0
vertex 13.000026666666669 0 1.999946666666667
vertex 13.000026666666669 0 0
endloop
endfacet
facet normal 0 0 1
outer loop
vertex 0 9.664666666666667 0
vertex -2.5362400000000003 12.750266666666668 0
vertex -4.974853333333334 12.010506666666668 0
endloop
endfacet
facet normal 0 0 1
outer loop
vertex 0 9.664666666666667 0
vertex -4.974853333333334 12.010506666666668 0
vertex -7.222320000000001 10.809120000000002 0
endloop
endfacet
facet normal 0 0 1
outer loop
vertex 0 9.664666666666667 0
vertex -7.222320000000001 10.809120000000002 0
vertex -9.192400000000001 9.192400000000001 0
endloop
endfacet
facet normal 0 0 1
outer loop
vertex 0 9.664666666666667 0
vertex -9.192400000000001 9.192400000000001 0
vertex -10.809120000000002 7.222320000000001 0
endloop
endfacet
facet normal 0 0 1
outer loop
vertex 0 9.664666666666667 0
vertex -10.809120000000002 7.222320000000001 0
vertex -10.928026666666668 7.000000000000001 0
endloop
endfacet
facet normal 0 0 1
outer loop
vertex 0 9.664666666666667 0
vertex -10.928026666666668 7.000000000000001 0
vertex -7.000000000000001 7.000000000000001 0
endloop
endfacet
facet normal 0 0 1
outer loop
vertex 0 9.664666666666667 0
vertex -7.000000000000001 7.000000000000001 0
vertex 7.000000000000001 7.000000000000001 0
endloop
endfacet
facet normal 0 0 1
outer loop
vertex 0 9.664666666666667 0
vertex 7.000000000000001 7.000000000000001 0
vertex 10.928026666666668 7.000000000000001 0
endloop
endfacet
facet normal 0 0 1
outer loop
vertex 0 9.664666666666667 0
vertex 10.928026666666668 7.000000000000001 0
vertex 10.809120000000002 7.222320000000001 0
endloop
endfacet
facet normal 0 0 1
outer loop
vertex 0 9.664666666666667 0
vertex 10.809120000000002 7.222320000000001 0
vertex 9.192400000000001 9.192400000000001 0
endloop
endfacet
facet normal 0 0 1
outer loop
vertex 0 9.664666666666667 0
vertex 9.192400000000001 9.192400000000001 0
vertex 7.222320000000001 10.809120000000002 0
endloop
endfacet
facet normal 0 0 1
outer loop
vertex 0 9.664666666666667 0
vertex 7.222320000000001 10.809120000000002 0
vertex 4.974853333333334 12.010506666666668 0
endloop
endfacet
facet normal 0 0 1
outer loop
vertex 0 9.664666666666667 0
vertex 4.974853333333334 12.010506666666668 0
vertex 2.5362400000000003 12.750266666666668 0
endloop
endfacet
facet normal 0 0 1
outer loop
vertex 0 9.664666666666667 0
vertex 2.5362400000000003 12.750266666666668 0
vertex 0 13.000026666666669 0
endloop
endfacet
facet normal 0 0 1
outer loop
vertex 0 9.664666666666667 0
vertex 0 13.000026666666669 0
vertex -2.5362400000000003 12.750266666666668 0
endloop
endfacet
facet normal 0 0 1
outer loop
vertex 10.930826666666668 0 0
vertex 7.000000000000001 7.000000000000001 0
vertex 7.000000000000001 -7.000000000000001 0
endloop
endfacet
facet normal 0 0 1
outer loop
vertex 10.930826666666668 0 0
vertex 7.000000000000001 -7.000000000000001 0
vertex 10.928026666666668 -7.000000000000001 0
endloop
endfacet
facet normal 0 0 1
outer loop
vertex 10.930826666666668 0 0
vertex 10.928026666666668 -7.000000000000001 0
vertex 12.010506666666668 -4.974853333333334 0
endloop
endfacet
facet normal 0 0 1
outer loop
vertex 10.930826666666668 0 0
vertex 12.010506666666668 -4.974853333333334 0
vertex 12.750266666666668 -2.5362400000000003 0
endloop
endfacet
facet normal 0 0 1
outer loop
vertex 10.930826666666668 0 0
vertex 12.750266666666668 -2.5362400000000003 0
vertex 13.000026666666669 0 0
endloop
endfacet
facet normal 0 0 1
outer loop
vertex 10.930826666666668 0 0
vertex 13.000026666666669 0 0
vertex 12.750266666666668 2.5362400000000003 0
endloop
endfacet
facet normal 0 0 1
outer loop
vertex 10.930826666666668 0 0
vertex 12.750266666666668 2.5362400000000003 0
vertex 12.010506666666668 4.974853333333334 0
endloop
endfacet
facet normal 0 0 1
outer loop
vertex 10.930826666666668 0 0
vertex 12.010506666666668 4.974853333333334 0
vertex 10.928026666666668 7.000000000000001 0
endloop
endfacet
facet normal 0 0 1
outer loop
vertex 10.930826666666668 0 0
vertex 10.928026666666668 7.000000000000001 0
vertex 7.000000000000001 7.000000000000001 0
endloop
endfacet
facet normal 0 0 1
outer loop
vertex -10.930826666666668 0 0
vertex -10.928026666666668 7.000000000000001 0
vertex -12.010506666666668 4.974853333333334 0
endloop
endfacet
facet normal 0 0 1
outer loop
vertex -10.930826666666668 0 0
vertex -12.010506666666668 4.974853333333334 0
vertex -12.750266666666668 2.5362400000000003 0
endloop
endfacet
facet normal 0 0 1
outer loop
vertex -10.930826666666668 0 0
vertex -12.750266666666668 2.5362400000000003 0
vertex -13.000026666666669 0 0
endloop
endfacet
facet normal 0 0 1
outer loop
vertex -10.930826666666668 0 0
vertex -13.000026666666669 0 0
vertex -12.750266666666668 -2.5362400000000003 0
endloop
endfacet
facet normal 0 0 1
outer loop
vertex -10.930826666666668 0 0
vertex -12.750266666666668 -2.5362400000000003 0
vertex -12.010506666666668 -4.974853333333334 0
endloop
endfacet
facet normal 0 0 1
outer loop
vertex -10.930826666666668 0 0
vertex -12.010506666666668 -4.974853333333334 0
vertex -10.928026666666668 -7.000000000000001 0
endloop
endfacet
facet normal 0 0 1
outer loop
vertex -10.930826666666668 0 0
vertex -10.928026666666668 -7.000000000000001 0
vertex -7.000000000000001 -7.000000000000001 0
endloop
endfacet
facet normal 0 0 1
outer loop
vertex -10.930826666666668 0 0
vertex -7.000000000000001 -7.000000000000001 0
vertex -7.000000000000001 7.000000000000001 0
endloop
endfacet
facet normal 0 0 1
outer loop
vertex -10.930826666666668 0 0
vertex -7.000000000000001 7.000000000000001 0
vertex -10.928026666666668 7.000000000000001 0
endloop
endfacet
facet normal 0 0 1
outer loop
vertex 0 -9.664666666666667 0
vertex 7.000000000000001 -7.000000000000001 0
vertex -7.000000000000001 -7.000000000000001 0
endloop
endfacet
facet normal 0 0 1
outer loop
vertex 0 -9.664666666666667 0
vertex -7.000000000000001 -7.000000000000001 0
vertex -10.928026666666668 -7.000000000000001 0
endloop
endfacet
facet normal 0 0 1
outer loop
vertex 0 -9.664666666666667 0
vertex -10.928026666666668 -7.000000000000001 0
vertex -10.809120000000002 -7.222320000000001 0
endloop
endfacet
facet normal 0 0 1
outer loop
vertex 0 -9.664666666666667 0
vertex -10.809120000000002 -7.222320000000001 0
vertex -9.192400000000001 -9.192400000000001 0
endloop
endfacet
facet normal 0 0 1
outer loop
vertex 0 -9.664666666666667 0
vertex -9.192400000000001 -9.192400000000001 0
vertex -7.222320000000001 -10.809120000000002 0
endloop
endfacet
facet normal 0 0 1
outer loop
vertex 0 -9.664666666666667 0
vertex -7.222320000000001 -10.809120000000002 0
vertex -4.974853333333334 -12.010506666666668 0
endloop
endfacet
facet normal 0 0 1
outer loop
vertex 0 -9.664666666666667 0
vertex -4.974853333333334 -12.010506666666668 0
vertex -2.5362400000000003 -12.750266666666668 0
endloop
endfacet
facet normal 0 0 1
outer loop
vertex 0 -9.664666666666667 0
vertex -2.5362400000000003 -12.750266666666668 0
vertex 0 -13.000026666666669 0
endloop
endfacet
facet normal 0 0 1
outer loop
vertex 0 -9.664666666666667 0
vertex 0 -13.000026666666669 0
vertex 2.5362400000000003 -12.750266666666668 0
endloop
endfacet
facet normal 0 0 1
outer loop
vertex 0 -9.664666666666667 0
vertex 2.5362400000000003 -12.750266666666668 0
vertex 4.974853333333334 -12.010506666666668 0
endloop
endfacet
facet normal 0 0 1
outer loop
vertex 0 -9.664666666666667 0
vertex 4.974853333333334 -12.010506666666668 0
vertex 7.222320000000001 -10.809120000000002 0
endloop
endfacet
facet normal 0 0 1
outer loop
vertex 0 -9.664666666666667 0
vertex 7.222320000000001 -10.809120000000002 0
vertex 9.192400000000001 -9.192400000000001 0
endloop
endfacet
facet normal 0 0 1
outer loop
vertex 0 -9.664666666666667 0
vertex 9.192400000000001 -9.192400000000001 0
vertex 10.809120000000002 -7.222320000000001 0
endloop
endfacet
facet normal 0 0 1
outer loop
vertex 0 -9.664666666666667 0
vertex 10.809120000000002 -7.222320000000001 0
vertex 10.928026666666668 -7.000000000000001 0
endloop
endfacet
facet normal 0 0 1
outer loop
vertex 0 -9.664666666666667 0
vertex 10.928026666666668 -7.000000000000001 0
vertex 7.000000000000001 -7.000000000000001 0
endloop
endfacet
facet normal 1 0 0
outer loop
vertex -7.000000000000001 0 -0.9999733333333335
vertex -7.000000000000001 7.000000000000001 -1.999946666666667
vertex -7.000000000000001 7.000000000000001 -0.9999733333333335
endloop
endfacet
facet normal 1 0 0
outer loop
vertex -7.000000000000001 0 -0.9999733333333335
vertex -7.000000000000001 7.000000000000001 -0.9999733333333335
vertex -7.000000000000001 7.000000000000001 0
endloop
endfacet
facet normal 1 0 0
outer loop
vertex -7.000000000000001 0 -0.9999733333333335
vertex -7.000000000000001 7.000000000000001 0
vertex -7.000000000000001 -7.000000000000001 0
endloop
endfacet
facet normal 1 0 0
outer loop
vertex -7.000000000000001 0 -0.9999733333333335
vertex -7.000000000000001 -7.000000000000001 0
vertex -7.000000000000001 -7.000000000000001 -0.9999733333333335
endloop
endfacet
facet normal 1 0 0
outer loop
vertex -7.000000000000001 0 -0.9999733333333335
vertex -7.000000000000001 -7.000000000000001 -0.9999733333333335
vertex -7.000000000000001 -7.000000000000001 -1.999946666666667
endloop
endfacet
facet normal 1 0 0
outer loop
vertex -7.000000000000001 0 -0.9999733333333335
vertex -7.000000000000001 -7.000000000000001 -1.999946666666667
vertex -7.000000000000001 7.000000000000001 -1.999946666666667
endloop
endfacet
facet normal -1 0 0
outer loop
vertex 7.000000000000001 0 -0.9999733333333335
vertex 7.000000000000001 -7.000000000000001 -0.9999733333333335
vertex 7.000000000000001 -7.000000000000001 0
endloop
endfacet
facet normal -1 0 0
outer loop
vertex 7.000000000000001 0 -0.9999733333333335
vertex 7.000000000000001 -7.000000000000001 0
vertex 7.000000000000001 7.000000000000001 0
endloop
endfacet
facet normal -1 0 0
outer loop
vertex 7.000000000000001 0 -0.9999733333333335
vertex 7.000000000000001 7.000000000000001 0
vertex 7.000000000000001 7.000000000000001 -0.9999733333333335
endloop
endfacet
facet normal -1 0 0
outer loop
vertex 7.000000000000001 0 -0.9999733333333335
vertex 7.000000000000001 7.000000000000001 -0.9999733333333335
vertex 7.000000000000001 7.000000000000001 -1.999946666666667
endloop
endfacet
facet normal -1 0 0
outer loop
vertex 7.000000000000001 0 -0.9999733333333335
vertex 7.000000000000001 7.000000000000001 -1.999946666666667
vertex 7.000000000000001 -7.000000000000001 -1.999946666666667
endloop
endfacet
facet normal -1 0 0
outer loop
vertex 7.000000000000001 0 -0.9999733333333335
vertex 7.000000000000001 -7.000000000000001 -1.999946666666667
vertex 7.000000000000001 -7.000000000000001 -0.9999733333333335
endloop
endfacet
facet normal 0 1 0
outer loop
vertex 0 -7.000000000000001 -0.6665866666666668
vertex 7.000000000000001 -7.000000000000001 0
vertex 7.000000000000001 -7.000000000000001 -0.9999733333333335
endloop
endfacet
facet normal 0 1 0
outer loop
vertex 0 -7.000000000000001 -0.6665866666666668
vertex 7.000000000000001 -7.000000000000001 -0.9999733333333335
vertex 2.500026666666667 -7.000000000000001 -0.9999733333333335
endloop
endfacet
facet normal 0 1 0
outer loop
vertex 0 -7.000000000000001 -0.6665866666666668
vertex 2.500026666666667 -7.000000000000001 -0.9999733333333335
vertex -2.500026666666667 -7.000000000000001 -0.9999733333333335
endloop
endfacet
facet normal 0 1 0
outer loop
vertex 0 -7.000000000000001 -0.6665866666666668
vertex -2.500026666666667 -7.000000000000001 -0.9999733333333335
vertex -7.000000000000001 -7.000000000000001 -0.9999733333333335
endloop
endfacet
facet normal 0 1 0
outer loop
vertex 0 -7.000000000000001 -0.6665866666666668
vertex -7.000000000000001 -7.000000000000001 -0.9999733333333335
vertex -7.000000000000001 -7.000000000000001 0
endloop
endfacet
facet normal 0 1 0
outer loop
vertex 0 -7.000000000000001 -0.6665866666666668
vertex -7.000000000000001 -7.000000000000001 0
vertex 7.000000000000001 -7.000000000000001 0
endloop
endfacet
facet normal 0 1 0
outer loop
vertex -2.500026666666667 -7.000000000000001 -0.9999733333333335
vertex -2.500026666666667 -7.000000000000001 -1.999946666666667
vertex -7.000000000000001 -7.000000000000001 -1.999946666666667
endloop
endfacet
facet normal 0 1 0
outer loop
vertex -2.500026666666667 -7.000000000000001 -0.9999733333333335
vertex -7.000000000000001 -7.000000000000001 -1.999946666666667
vertex -7.000000000000001 -7.000000000000001 -0.9999733333333335
endloop
endfacet
facet normal 0 1 0
outer loop
vertex 7.000000000000001 -7.000000000000001 -0.9999733333333335
vertex 7.000000000000001 -7.000000000000001 -1.999946666666667
vertex 2.500026666666667 -7.000000000000001 -1.999946666666667
endloop
endfacet
facet normal 0 1 0
outer loop
vertex 7.000000000000001 -7.000000000000001 -0.9999733333333335
vertex 2.500026666666667 -7.000000000000001 -1.999946666666667
vertex 2.500026666666667 -7.000000000000001 -0.9999733333333335
endloop
endfacet
facet normal 0 -1 0
outer loop
vertex 0 7.000000000000001 -0.6665866666666668
vertex -7.000000000000001 7.000000000000001 0
vertex -7.000000000000001 7.000000000000001 -0.9999733333333335
endloop
endfacet
facet normal 0 -1 0
outer loop
vertex 0 7.000000000000001 -0.6665866666666668
vertex -7.000000000000001 7.000000000000001 -0.9999733333333335
vertex -2.500026666666667 7.000000000000001 -0.9999733333333335
endloop
endfacet
facet normal 0 -1 0
outer loop
vertex 0 7.000000000000001 -0.6665866666666668
vertex -2.500026666666667 7.000000000000001 -0.9999733333333335
vertex 2.500026666666667 7.000000000000001 -0.9999733333333335
endloop
endfacet
facet normal 0 -1 0
outer loop
vertex 0 7.000000000000001 -0.6665866666666668
vertex 2.500026666666667 7.000000000000001 -0.9999733333333335
vertex 7.000000000000001 7.000000000000001 -0.9999733333333335
endloop
endfacet
facet normal 0 -1 0
outer loop
vertex 0 7.000000000000001 -0.6665866666666668
vertex 7.000000000000001 7.000000000000001 -0.9999733333333335
vertex 7.000000000000001 7.000000000000001 0
endloop
endfacet
facet normal 0 -1 0
outer loop
vertex 0 7.000000000000001 -0.6665866666666668
vertex 7.000000000000001 7.000000000000001 0
vertex -7.000000000000001 7.000000000000001 0
endloop
endfacet
facet normal 0 -1 0
outer loop
vertex 2.500026666666667 7.000000000000001 -0.9999733333333335
vertex 2.500026666666667 7.000000000000001 -1.999946666666667
vertex 7.000000000000001 7.000000000000001 -1.999946666666667
endloop
endfacet
facet normal 0 -1 0
outer loop
vertex 2.500026666666667 7.000000000000001 -0.9999733333333335
vertex 7.000000000000001 7.000000000000001 -1.999946666666667
vertex 7.000000000000001 7.000000000000001 -0.9999733333333335
endloop
endfacet
facet normal 0 -1 0
outer loop
vertex -7.000000000000001 7.000000000000001 -0.9999733333333335
vertex -7.000000000000001 7.000000000000001 -1.999946666666667
vertex -2.500026666666667 7.000000000000001 -1.999946666666667
endloop
endfacet
facet normal 0 -1 0
outer loop
vertex -7.000000000000001 7.000000000000001 -0.9999733333333335
vertex -2.500026666666667 7.000000000000001 -1.999946666666667
vertex -2.500026666666667 7.000000000000001 -0.9999733333333335
endloop
endfacet
facet normal 0 -1 0
outer loop
vertex 2.500026666666667 7.750026666666668 -1.999946666666667
vertex 2.500026666666667 7.750026666666668 -0.9999733333333335
vertex -2.500026666666667 7.750026666666668 -0.9999733333333335
endloop
endfacet
facet normal 0 -1 0
outer loop
vertex 2.500026666666667 7.750026666666668 -1.999946666666667
vertex -2.500026666666667 7.750026666666668 -0.9999733333333335
vertex -2.500026666666667 7.750026666666668 -1.999946666666667
endloop
endfacet
facet normal 0 1 0
outer loop
vertex -2.500026666666667 -7.750026666666668 -0.9999733333333335
vertex 2.500026666666667 -7.750026666666668 -0.9999733333333335
vertex 2.500026666666667 -7.750026666666668 -1.999946666666667
endloop
endfacet
facet normal 0 1 0
outer loop
vertex -2.500026666666667 -7.750026666666668 -0.9999733333333335
vertex 2.500026666666667 -7.750026666666668 -1.999946666666667
vertex -2.500026666666667 -7.750026666666668 -1.999946666666667
endloop
endfacet
facet normal 1 0 0
outer loop
vertex -2.500026666666667 7.000000000000001 -0.9999733333333335
vertex -2.500026666666667 7.000000000000001 -1.999946666666667
vertex -2.500026666666667 7.750026666666668 -1.999946666666667
endloop
endfacet
facet normal 1 0 0
outer loop
vertex -2.500026666666667 7.000000000000001 -0.9999733333333335
vertex -2.500026666666667 7.750026666666668 -1.999946666666667
vertex -2.500026666666667 7.750026666666668 -0.9999733333333335
endloop
endfacet
facet normal 1 0 0
outer loop
vertex -2.500026666666667 -7.750026666666668 -0.9999733333333335
vertex -2.500026666666667 -7.750026666666668 -1.999946666666667
vertex -2.500026666666667 -7.000000000000001 -1.999946666666667
endloop
endfacet
facet normal 1 0 0
outer loop
vertex -2.500026666666667 -7.750026666666668 -0.9999733333333335
vertex -2.500026666666667 -7.000000000000001 -1.999946666666667
vertex -2.500026666666667 -7.000000000000001 -0.9999733333333335
endloop
endfacet
facet normal -1 0 0
outer loop
vertex 2.500026666666667 -7.000000000000001 -0.9999733333333335
vertex 2.500026666666667 -7.000000000000001 -1.999946666666667
vertex 2.500026666666667 -7.750026666666668 -1.999946666666667
endloop
endfacet
facet normal -1 0 0
outer loop
vertex 2.500026666666667 -7.000000000000001 -0.9999733333333335
vertex 2.500026666666667 -7.750026666666668 -1.999946666666667
vertex 2.500026666666667 -7.750026666666668 -0.9999733333333335
endloop
endfacet
facet normal -1 0 0
outer loop
vertex 2.500026666666667 7.750026666666668 -0.9999733333333335
vertex 2.500026666666667 7.750026666666668 -1.999946666666667
vertex 2.500026666666667 7.000000000000001 -1.999946666666667
endloop
endfacet
facet normal -1 0 0
outer loop
vertex 2.500026666666667 7.750026666666668 -0.9999733333333335
vertex 2.500026666666667 7.000000000000001 -1.999946666666667
vertex 2.500026666666667 7.000000000000001 -0.9999733333333335
endloop
endfacet
facet normal 0 0 -1
outer loop
vertex 2.500026666666667 7.750026666666668 -0.9999733333333335
vertex 2.500026666666667 7.000000000000001 -0.9999733333333335
vertex -2.500026666666667 7.000000000000001 -0.9999733333333335
endloop
endfacet
facet normal 0 0 -1
outer loop
vertex 2.500026666666667 7.750026666666668 -0.9999733333333335
vertex -2.500026666666667 7.000000000000001 -0.9999733333333335
vertex -2.500026666666667 7.750026666666668 -0.9999733333333335
endloop
endfacet
facet normal 0 0 -1
outer loop
vertex 2.500026666666667 -7.000000000000001 -0.9999733333333335
vertex 2.500026666666667 -7.750026666666668 -0.9999733333333335
vertex -2.500026666666667 -7.750026666666668 -0.9999733333333335
endloop
endfacet
facet normal 0 0 -1
outer loop
vertex 2.500026666666667 -7.000000000000001 -0.9999733333333335
vertex -2.500026666666667 -7.750026666666668 -0.9999733333333335
vertex -2.500026666666667 -7.000000000000001 -0.9999733333333335
endloop
endfacet
facet normal 0 0 -1
outer loop
vertex 0 9.500026666666667 -1.999946666666667
vertex 13.000026666666669 13.000026666666669 -1.999946666666667
vertex 13.000026666666669 7.750026666666668 -1.999946666666667
endloop
endfacet
facet normal 0 0 -1
outer loop
vertex 0 9.500026666666667 -1.999946666666667
vertex 13.000026666666669 7.750026666666668 -1.999946666666667
vertex 2.500026666666667 7.750026666666668 -1.999946666666667
endloop
endfacet
facet normal 0 0 -1
outer loop
vertex 0 9.500026666666667 -1.999946666666667
vertex 2.500026666666667 7.750026666666668 -1.999946666666667
vertex -2.500026666666667 7.750026666666668 -1.999946666666667
endloop
endfacet
facet normal 0 0 -1
outer loop
vertex 0 9.500026666666667 -1.999946666666667
vertex -2.500026666666667 7.750026666666668 -1.999946666666667
vertex -13.000026666666669 7.750026666666668 -1.999946666666667
endloop
endfacet
facet normal 0 0 -1
outer loop
vertex 0 9.500026666666667 -1.999946666666667
vertex -13.000026666666669 7.750026666666668 -1.999946666666667
vertex -13.000026666666669 13.000026666666669 -1.999946666666667
endloop
endfacet
facet normal 0 0 -1
outer loop
vertex 0 9.500026666666667 -1.999946666666667
vertex -13.000026666666669 13.000026666666669 -1.999946666666667
vertex 13.000026666666669 13.000026666666669 -1.999946666666667
endloop
endfacet
facet normal 0 0 -0.9999999999999999
outer loop
vertex -7.599946666666668 7.299973333333334 -1.999946666666667
vertex -2.500026666666667 7.750026666666668 -1.999946666666667
vertex -2.500026666666667 7.000000000000001 -1.999946666666667
endloop
endfacet
facet normal 0 0 -1
outer loop
vertex -7.599946666666668 7.299973333333334 -1.999946666666667
vertex -2.500026666666667 7.000000000000001 -1.999946666666667
vertex -7.000000000000001 7.000000000000001 -1.999946666666667
endloop
endfacet
facet normal 0 0 -1
outer loop
vertex -7.599946666666668 7.299973333333334 -1.999946666666667
vertex -7.000000000000001 7.000000000000001 -1.999946666666667
vertex -13.000026666666669 7.000000000000001 -1.999946666666667
endloop
endfacet
facet normal 0 0 -1
outer loop
vertex -7.599946666666668 7.299973333333334 -1.999946666666667
vertex -13.000026666666669 7.000000000000001 -1.999946666666667
vertex -13.000026666666669 7.750026666666668 -1.999946666666667
endloop
endfacet
facet normal 0 0 -1
outer loop
vertex -7.599946666666668 7.299973333333334 -1.999946666666667
vertex -13.000026666666669 7.750026666666668 -1.999946666666667
vertex -2.500026666666667 7.750026666666668 -1.999946666666667
endloop
endfacet
facet normal 0 0 -1
outer loop
vertex 7.599946666666668 7.299973333333334 -1.999946666666667
vertex 13.000026666666669 7.750026666666668 -1.999946666666667
vertex 13.000026666666669 7.000000000000001 -1.999946666666667
endloop
endfacet
facet normal 0 0 -1
outer loop
vertex 7.599946666666668 7.299973333333334 -1.999946666666667
vertex 13.000026666666669 7.000000000000001 -1.999946666666667
vertex 7.000000000000001 7.000000000000001 -1.999946666666667
endloop
endfacet
facet normal 0 0 -1
outer loop
vertex 7.599946666666668 7.299973333333334 -1.999946666666667
vertex 7.000000000000001 7.000000000000001 -1.999946666666667
vertex 2.500026666666667 7.000000000000001 -1.999946666666667
endloop
endfacet
facet normal 0 0 -0.9999999999999999
outer loop
vertex 7.599946666666668 7.299973333333334 -1.999946666666667
vertex 2.500026666666667 7.000000000000001 -1.999946666666667
vertex 2.500026666666667 7.750026666666668 -1.999946666666667
endloop
endfacet
facet normal 0 0 -1
outer loop
vertex 7.599946666666668 7.299973333333334 -1.999946666666667
vertex 2.500026666666667 7.750026666666668 -1.999946666666667
vertex 13.000026666666669 7.750026666666668 -1.999946666666667
endloop
endfacet
facet normal 0 0 -1
outer loop
vertex -7.000000000000001 7.000000000000001 -1.999946666666667
vertex -7.000000000000001 -7.000000000000001 -1.999946666666667
vertex -13.000026666666669 -7.000000000000001 -1.999946666666667
endloop
endfacet
facet normal 0 0 -1
outer loop
vertex -7.000000000000001 7.000000000000001 -1.999946666666667
vertex -13.000026666666669 -7.000000000000001 -1.999946666666667
vertex -13.000026666666669 7.000000000000001 -1.999946666666667
endloop
endfacet
facet normal 0 0 -1
outer loop
vertex 13.000026666666669 7.000000000000001 -1.999946666666667
vertex 13.000026666666669 -7.000000000000001 -1.999946666666667
vertex 7.000000000000001 -7.000000000000001 -1.999946666666667
endloop
endfacet
facet normal 0 0 -1
outer loop
vertex 13.000026666666669 7.000000000000001 -1.999946666666667
vertex 7.000000000000001 -7.000000000000001 -1.999946666666667
vertex 7.000000000000001 7.000000000000001 -1.999946666666667
endloop
endfacet
facet normal 0 0 -1
outer loop
vertex -7.599946666666668 -7.299973333333334 -1.999946666666667
vertex -7.000000000000001 -7.000000000000001 -1.999946666666667
vertex -2.500026666666667 -7.000000000000001 -1.999946666666667
endloop
endfacet
facet normal 0 0 -0.9999999999999999
outer loop
vertex -7.599946666666668 -7.299973333333334 -1.999946666666667
vertex -2.500026666666667 -7.000000000000001 -1.999946666666667
vertex -2.500026666666667 -7.750026666666668 -1.999946666666667
endloop
endfacet
facet normal 0 0 -1
outer loop
vertex -7.599946666666668 -7.299973333333334 -1.999946666666667
vertex -2.500026666666667 -7.750026666666668 -1.999946666666667
vertex -13.000026666666669 -7.750026666666668 -1.999946666666667
endloop
endfacet
facet normal 0 0 -1
outer loop
vertex -7.599946666666668 -7.299973333333334 -1.999946666666667
vertex -13.000026666666669 -7.750026666666668 -1.999946666666667
vertex -13.000026666666669 -7.000000000000001 -1.999946666666667
endloop
endfacet
facet normal 0 0 -1
outer loop
vertex -7.599946666666668 -7.299973333333334 -1.999946666666667
vertex -13.000026666666669 -7.000000000000001 -1.999946666666667
vertex -7.000000000000001 -7.000000000000001 -1.999946666666667
endloop
endfacet
facet normal 0 0 -1
outer loop
vertex 7.599946666666668 -7.299973333333334 -1.999946666666667
vertex 7.000000000000001 -7.000000000000001 -1.999946666666667
vertex 13.000026666666669 -7.000000000000001 -1.999946666666667
endloop
endfacet
facet normal 0 0 -1
outer loop
vertex 7.599946666666668 -7.299973333333334 -1.999946666666667
vertex 13.000026666666669 -7.000000000000001 -1.999946666666667
vertex 13.000026666666669 -7.750026666666668 -1.999946666666667
endloop
endfacet
facet normal 0 0 -1
outer loop
vertex 7.599946666666668 -7.299973333333334 -1.999946666666667
vertex 13.000026666666669 -7.750026666666668 -1.999946666666667
vertex 2.500026666666667 -7.750026666666668 -1.999946666666667
endloop
endfacet
facet normal 0 0 -0.9999999999999999
outer loop
vertex 7.599946666666668 -7.299973333333334 -1.999946666666667
vertex 2.500026666666667 -7.750026666666668 -1.999946666666667
vertex 2.500026666666667 -7.000000000000001 -1.999946666666667
endloop
endfacet
facet normal 0 0 -1
outer loop
vertex 7.599946666666668 -7.299973333333334 -1.999946666666667
vertex 2.500026666666667 -7.000000000000001 -1.999946666666667
vertex 7.000000000000001 -7.000000000000001 -1.999946666666667
endloop
endfacet
facet normal 0 0 -1
outer loop
vertex 0 -9.500026666666667 -1.999946666666667
vertex -2.500026666666667 -7.750026666666668 -1.999946666666667
vertex 2.500026666666667 -7.750026666666668 -1.999946666666667
endloop
endfacet
facet normal 0 0 -1
outer loop
vertex 0 -9.500026666666667 -1.999946666666667
vertex 2.500026666666667 -7.750026666666668 -1.999946666666667
vertex 13.000026666666669 -7.750026666666668 -1.999946666666667
endloop
endfacet
facet normal 0 0 -1
outer loop
vertex 0 -9.500026666666667 -1.999946666666667
vertex 13.000026666666669 -7.750026666666668 -1.999946666666667
vertex 13.000026666666669 -13.000026666666669 -1.999946666666667
endloop
endfacet
facet normal 0 0 -1
outer loop
vertex 0 -9.500026666666667 -1.999946666666667
vertex 13.000026666666669 -13.000026666666669 -1.999946666666667
vertex -13.000026666666669 -13.000026666666669 -1.999946666666667
endloop
endfacet
facet normal 0 0 -1
outer loop
vertex 0 -9.500026666666667 -1.999946666666667
vertex -13.000026666666669 -13.000026666666669 -1.999946666666667
vertex -13.000026666666669 -7.750026666666668 -1.999946666666667
endloop
endfacet
facet normal 0 0 -1
outer loop
vertex 0 -9.500026666666667 -1.999946666666667
vertex -13.000026666666669 -7.750026666666668 -1.999946666666667
vertex -2.500026666666667 -7.750026666666668 -1.999946666666667
endloop
endfacet
facet normal 0 0 1
outer loop
vertex 0 13.000026666666669 1.999946666666667
vertex 2.5362400000000003 12.750266666666668 1.999946666666667
vertex 13.000026666666669 12.750266666666668 1.999946666666667
endloop
endfacet
facet normal 0 0 1
outer loop
vertex 0 13.000026666666669 1.999946666666667
vertex 13.000026666666669 12.750266666666668 1.999946666666667
vertex 13.000026666666669 13.000026666666669 1.999946666666667
endloop
endfacet
facet normal 0 0 1
outer loop
vertex -13.000026666666669 13.000026666666669 1.999946666666667
vertex -13.000026666666669 12.750266666666668 1.999946666666667
vertex -2.5362400000000003 12.750266666666668 1.999946666666667
endloop
endfacet
facet normal 0 0 1
outer loop
vertex -13.000026666666669 13.000026666666669 1.999946666666667
vertex -2.5362400000000003 12.750266666666668 1.999946666666667
vertex 0 13.000026666666669 1.999946666666667
endloop
endfacet
facet normal 0 0 1
outer loop
vertex 2.5362400000000003 12.750266666666668 1.999946666666667
vertex 4.974853333333334 12.010506666666668 1.999946666666667
vertex 13.000026666666669 12.010506666666668 1.999946666666667
endloop
endfacet
facet normal 0 0 1
outer loop
vertex 2.5362400000000003 12.750266666666668 1.999946666666667
vertex 13.000026666666669 12.010506666666668 1.999946666666667
vertex 13.000026666666669 12.750266666666668 1.999946666666667
endloop
endfacet
facet normal 0 0 1
outer loop
vertex -13.000026666666669 12.750266666666668 1.999946666666667
vertex -13.000026666666669 12.010506666666668 1.999946666666667
vertex -4.974853333333334 12.010506666666668 1.999946666666667
endloop
endfacet
facet normal 0 0 1
outer loop
vertex -13.000026666666669 12.750266666666668 1.999946666666667
vertex -4.974853333333334 12.010506666666668 1.999946666666667
vertex -2.5362400000000003 12.750266666666668 1.999946666666667
endloop
endfacet
facet normal 0 0 1
outer loop
vertex 4.974853333333334 12.010506666666668 1.999946666666667
vertex 7.222320000000001 10.809120000000002 1.999946666666667
vertex 13.000026666666669 10.809120000000002 1.999946666666667
endloop
endfacet
facet normal 0 0 1
outer loop
vertex 4.974853333333334 12.010506666666668 1.999946666666667
vertex 13.000026666666669 10.809120000000002 1.999946666666667
vertex 13.000026666666669 12.010506666666668 1.999946666666667
endloop
endfacet
facet normal 0 0 1
outer loop
vertex -13.000026666666669 12.010506666666668 1.999946666666667
vertex -13.000026666666669 10.809120000000002 1.999946666666667
vertex -7.222320000000001 10.809120000000002 1.999946666666667
endloop
endfacet
facet normal 0 0 1
outer loop
vertex -13.000026666666669 12.010506666666668 1.999946666666667
vertex -7.222320000000001 10.809120000000002 1.999946666666667
vertex -4.974853333333334 12.010506666666668 1.999946666666667
endloop
endfacet
facet normal 0 0 1
outer loop
vertex 7.222320000000001 10.809120000000002 1.999946666666667
vertex 9.192400000000001 9.192400000000001 1.999946666666667
vertex 13.000026666666669 9.192400000000001 1.999946666666667
endloop
endfacet
facet normal 0 0 1
outer loop
vertex 7.222320000000001 10.809120000000002 1.999946666666667
vertex 13.000026666666669 9.192400000000001 1.999946666666667
vertex 13.000026666666669 10.809120000000002 1.999946666666667
endloop
endfacet
facet normal 0 0 1
outer loop
vertex -13.000026666666669 10.809120000000002 1.999946666666667
vertex -13.000026666666669 9.192400000000001 1.999946666666667
vertex -9.192400000000001 9.192400000000001 1.999946666666667
endloop
endfacet
facet normal 0 0 1
outer loop
vertex -13.000026666666669 10.809120000000002 1.999946666666667
vertex -9.192400000000001 9.192400000000001 1.999946666666667
vertex -7.222320000000001 10.809120000000002 1.999946666666667
endloop
endfacet
facet normal 0 0 1
outer loop
vertex 9.192400000000001 9.192400000000001 1.999946666666667
vertex 10.809120000000002 7.222320000000001 1.999946666666667
vertex 13.000026666666669 7.222320000000001 1.999946666666667
endloop
endfacet
facet normal 0 0 1
outer loop
vertex 9.192400000000001 9.192400000000001 1.999946666666667
vertex 13.000026666666669 7.222320000000001 1.999946666666667
vertex 13.000026666666669 9.192400000000001 1.999946666666667
endloop
endfacet
facet normal 0 0 1
outer loop
vertex -13.000026666666669 9.192400000000001 1.999946666666667
vertex -13.000026666666669 7.222320000000001 1.999946666666667
vertex -10.809120000000002 7.222320000000001 1.999946666666667
endloop
endfacet
facet normal 0 0 1
outer loop
vertex -13.000026666666669 9.192400000000001 1.999946666666667
vertex -10.809120000000002 7.222320000000001 1.999946666666667
vertex -9.192400000000001 9.192400000000001 1.999946666666667
endloop
endfacet
facet normal 0 0 1
outer loop
vertex 10.809120000000002 7.222320000000001 1.999946666666667
vertex 12.010506666666668 4.974853333333334 1.999946666666667
vertex 13.000026666666669 4.974853333333334 1.999946666666667
endloop
endfacet
facet normal 0 0 1
outer loop
vertex 10.809120000000002 7.222320000000001 1.999946666666667
vertex 13.000026666666669 4.974853333333334 1.999946666666667
vertex 13.000026666666669 7.222320000000001 1.999946666666667
endloop
endfacet
facet normal 0 0 1
outer loop
vertex -13.000026666666669 7.222320000000001 1.999946666666667
vertex -13.000026666666669 4.974853333333334 1.999946666666667
vertex -12.010506666666668 4.974853333333334 1.999946666666667
endloop
endfacet
facet normal 0 0 1
outer loop
vertex -13.000026666666669 7.222320000000001 1.999946666666667
vertex -12.010506666666668 4.974853333333334 1.999946666666667
vertex -10.809120000000002 7.222320000000001 1.999946666666667
endloop
endfacet
facet normal 0 0 1
outer loop
vertex 12.010506666666668 4.974853333333334 1.999946666666667
vertex 12.750266666666668 2.5362400000000003 1.999946666666667
vertex 13.000026666666669 2.5362400000000003 1.999946666666667
endloop
endfacet
facet normal 0 0 1
outer loop
vertex 12.010506666666668 4.974853333333334 1.999946666666667
vertex 13.000026666666669 2.5362400000000003 1.999946666666667
vertex 13.000026666666669 4.974853333333334 1.999946666666667
endloop
endfacet
facet normal 0 0 1
outer loop
vertex -13.000026666666669 4.974853333333334 1.999946666666667
vertex -13.000026666666669 2.5362400000000003 1.999946666666667
vertex -12.750266666666668 2.5362400000000003 1.999946666666667
endloop
endfacet
facet normal 0 0 1
outer loop
vertex -13.000026666666669 4.974853333333334 1.999946666666667
vertex -12.750266666666668 2.5362400000000003 1.999946666666667
vertex -12.010506666666668 4.974853333333334 1.999946666666667
endloop
endfacet
facet normal 0 0 1
outer loop
vertex 12.750266666666668 2.5362400000000003 1.999946666666667
vertex 13.000026666666669 0 1.999946666666667
vertex 13.000026666666669 2.5362400000000003 1.999946666666667
endloop
endfacet
facet normal 0 0 1
outer loop
vertex -13.000026666666669 2.5362400000000003 1.999946666666667
vertex -13.000026666666669 0 1.999946666666667
vertex -12.750266666666668 2.5362400000000003 1.999946666666667
endloop
endfacet
facet normal 0 0 1
outer loop
vertex 12.750266666666668 -2.5362400000000003 1.999946666666667
vertex 13.000026666666669 -2.5362400000000003 1.999946666666667
vertex 13.000026666666669 0 1.999946666666667
endloop
endfacet
facet normal 0 0 1
outer loop
vertex -13.000026666666669 -2.5362400000000003 1.999946666666667
vertex -12.750266666666668 -2.5362400000000003 1.999946666666667
vertex -13.000026666666669 0 1.999946666666667
endloop
endfacet
facet normal 0 0 1
outer loop
vertex 12.750266666666668 -2.5362400000000003 1.999946666666667
vertex 12.010506666666668 -4.974853333333334 1.999946666666667
vertex 13.000026666666669 -4.974853333333334 1.999946666666667
endloop
endfacet
facet normal 0 0 1
outer loop
vertex 12.750266666666668 -2.5362400000000003 1.999946666666667
vertex 13.000026666666669 -4.974853333333334 1.999946666666667
vertex 13.000026666666669 -2.5362400000000003 1.999946666666667
endloop
endfacet
facet normal 0 0 1
outer loop
vertex -13.000026666666669 -2.5362400000000003 1.999946666666667
vertex -13.000026666666669 -4.974853333333334 1.999946666666667
vertex -12.010506666666668 -4.974853333333334 1.999946666666667
endloop
endfacet
facet normal 0 0 1
outer loop
vertex -13.000026666666669 -2.5362400000000003 1.999946666666667
vertex -12.010506666666668 -4.974853333333334 1.999946666666667
vertex -12.750266666666668 -2.5362400000000003 1.999946666666667
endloop
endfacet
facet normal 0 0 1
outer loop
vertex 12.010506666666668 -4.974853333333334 1.999946666666667
vertex 10.809120000000002 -7.222320000000001 1.999946666666667
vertex 13.000026666666669 -7.222320000000001 1.999946666666667
endloop
endfacet
facet normal 0 0 1
outer loop
vertex 12.010506666666668 -4.974853333333334 1.999946666666667
vertex 13.000026666666669 -7.222320000000001 1.999946666666667
vertex 13.000026666666669 -4.974853333333334 1.999946666666667
endloop
endfacet
facet normal 0 0 1
outer loop
vertex -13.000026666666669 -4.974853333333334 1.999946666666667
vertex -13.000026666666669 -7.222320000000001 1.999946666666667
vertex -10.809120000000002 -7.222320000000001 1.999946666666667
endloop
endfacet
facet normal 0 0 1
outer loop
vertex -13.000026666666669 -4.974853333333334 1.999946666666667
vertex -10.809120000000002 -7.222320000000001 1.999946666666667
vertex -12.010506666666668 -4.974853333333334 1.999946666666667
endloop
endfacet
facet normal 0 0 1
outer loop
vertex 10.809120000000002 -7.222320000000001 1.999946666666667
vertex 9.192400000000001 -9.192400000000001 1.999946666666667
vertex 13.000026666666669 -9.192400000000001 1.999946666666667
endloop
endfacet
facet normal 0 0 1
outer loop
vertex 10.809120000000002 -7.222320000000001 1.999946666666667
vertex 13.000026666666669 -9.192400000000001 1.999946666666667
vertex 13.000026666666669 -7.222320000000001 1.999946666666667
endloop
endfacet
facet normal 0 0 1
outer loop
vertex -13.000026666666669 -7.222320000000001 1.999946666666667
vertex -13.000026666666669 -9.192400000000001 1.999946666666667
vertex -9.192400000000001 -9.192400000000001 1.999946666666667
endloop
endfacet
facet normal 0 0 1
outer loop
vertex -13.000026666666669 -7.222320000000001 1.999946666666667
vertex -9.192400000000001 -9.192400000000001 1.999946666666667
vertex -10.809120000000002 -7.222320000000001 1.999946666666667
endloop
endfacet
facet normal 0 0 1
outer loop
vertex 9.192400000000001 -9.192400000000001 1.999946666666667
vertex 7.222320000000001 -10.809120000000002 1.999946666666667
vertex 13.000026666666669 -10.809120000000002 1.999946666666667
endloop
endfacet
facet normal 0 0 1
outer loop
vertex 9.192400000000001 -9.192400000000001 1.999946666666667
vertex 13.000026666666669 -10.809120000000002 1.999946666666667
vertex 13.000026666666669 -9.192400000000001 1.999946666666667
endloop
endfacet
facet normal 0 0 1
outer loop
vertex -13.000026666666669 -9.192400000000001 1.999946666666667
vertex -13.000026666666669 -10.809120000000002 1.999946666666667
vertex -7.222320000000001 -10.809120000000002 1.999946666666667
endloop
endfacet
facet normal 0 0 1
outer loop
vertex -13.000026666666669 -9.192400000000001 1.999946666666667
vertex -7.222320000000001 -10.809120000000002 1.999946666666667
vertex -9.192400000000001 -9.192400000000001 1.999946666666667
endloop
endfacet
facet normal 0 0 1
outer loop
vertex 7.222320000000001 -10.809120000000002 1.999946666666667
vertex 4.974853333333334 -12.010506666666668 1.999946666666667
vertex 13.000026666666669 -12.010506666666668 1.999946666666667
endloop
endfacet
facet normal 0 0 1
outer loop
vertex 7.222320000000001 -10.809120000000002 1.999946666666667
vertex 13.000026666666669 -12.010506666666668 1.999946666666667
vertex 13.000026666666669 -10.809120000000002 1.999946666666667
endloop
endfacet
facet normal 0 0 1
outer loop
vertex -13.000026666666669 -10.809120000000002 1.999946666666667
vertex -13.000026666666669 -12.010506666666668 1.999946666666667
vertex -4.974853333333334 -12.010506666666668 1.999946666666667
endloop
endfacet
facet normal 0 0 1
outer loop
vertex -13.000026666666669 -10.809120000000002 1.999946666666667
vertex -4.974853333333334 -12.010506666666668 1.999946666666667
vertex -7.222320000000001 -10.809120000000002 1.999946666666667
endloop
endfacet
facet normal 0 0 1
outer loop
vertex 4.974853333333334 -12.010506666666668 1.999946666666667
vertex 2.5362400000000003 -12.750266666666668 1.999946666666667
vertex 13.000026666666669 -12.750266666666668 1.999946666666667
endloop
endfacet
facet normal 0 0 1
outer loop
vertex 4.974853333333334 -12.010506666666668 1.999946666666667
vertex 13.000026666666669 -12.750266666666668 1.999946666666667
vertex 13.000026666666669 -12.010506666666668 1.999946666666667
endloop
endfacet
facet normal 0 0 1
outer loop
vertex -13.000026666666669 -12.010506666666668 1.999946666666667
vertex -13.000026666666669 -12.750266666666668 1.999946666666667
vertex -2.5362400000000003 -12.750266666666668 1.999946666666667
endloop
endfacet
facet normal 0 0 1
outer loop
vertex -13.000026666666669 -12.010506666666668 1.999946666666667
vertex -2.5362400000000003 -12.750266666666668 1.999946666666667
vertex -4.974853333333334 -12.010506666666668 1.999946666666667
endloop
endfacet
facet normal 0 0 1
outer loop
vertex 2.5362400000000003 -12.750266666666668 1.999946666666667
vertex 0 -13.000026666666669 1.999946666666667
vertex 13.000026666666669 -13.000026666666669 1.999946666666667
endloop
endfacet
facet normal 0 0 1
outer loop
vertex 2.5362400000000003 -12.750266666666668 1.999946666666667
vertex 13.000026666666669 -13.000026666666669 1.999946666666667
vertex 13.000026666666669 -12.750266666666668 1.999946666666667
endloop
endfacet
facet normal 0 0 1
outer loop
vertex -13.000026666666669 -12.750266666666668 1.999946666666667
vertex -13.000026666666669 -13.000026666666669 1.999946666666667
vertex 0 -13.000026666666669 1.999946666666667
endloop
endfacet
facet normal 0 0 1
outer loop
vertex -13.000026666666669 -12.750266666666668 1.999946666666667
vertex 0 -13.000026666666669 1.999946666666667
vertex -2.5362400000000003 -12.750266666666668 1.999946666666667
endloop
endfacet
endsolid JSCAD
