solid JSCAD
facet normal 0 0 -1
outer loop
vertex 10 10 -10
vertex 10 -10 -10
vertex -10 -10 -10
endloop
endfacet
facet normal 0 0 -1
outer loop
vertex 10 10 -10
vertex -10 -10 -10
vertex -10 10 -10
endloop
endfacet
facet normal 0.995200735309721 0.09785446560576877 0
outer loop
vertex 4.9510000000000005 0.4974 3.2
vertex 4.904 0.9754 -7
vertex 4.904 0.9754 10
endloop
endfacet
facet normal 0.9951930654361134 0.09793243832993316 -0.000005534036207372868
outer loop
vertex 4.9510000000000005 0.4974 3.2
vertex 4.904 0.9754 10
vertex 4.9472000000000005 0.5364 10
endloop
endfacet
facet normal 0.9951902971018224 0.0979605661576729 -0.0000056969045826897825
outer loop
vertex 4.9510000000000005 0.4974 3.2
vertex 4.9472000000000005 0.5364 10
vertex 5 0 10
endloop
endfacet
facet normal 0.9951827014297173 0.09803770078418905 0
outer loop
vertex 4.9510000000000005 0.4974 3.2
vertex 5 0 10
vertex 5 0 -7
endloop
endfacet
facet normal 0.9951915431534147 0.09794790664622502 0.000004421259674949189
outer loop
vertex 4.9510000000000005 0.4974 3.2
vertex 5 0 -7
vertex 4.904 0.9754 -7
endloop
endfacet
facet normal 0.9569603350992665 0.2902187399991587 0
outer loop
vertex 4.756600000000001 1.461 3.2
vertex 4.619400000000001 1.9134 -7
vertex 4.619400000000001 1.9134 10
endloop
endfacet
facet normal 0.9569199841856939 0.29035175868704927 -0.000009663794079980814
outer loop
vertex 4.756600000000001 1.461 3.2
vertex 4.619400000000001 1.9134 10
vertex 4.736400000000001 1.5278 10
endloop
endfacet
facet normal 0.9569252764359042 0.29033431631183354 -0.000009476727297825682
outer loop
vertex 4.756600000000001 1.461 3.2
vertex 4.736400000000001 1.5278 10
vertex 4.904 0.9754 10
endloop
endfacet
facet normal 0.9568884008739954 0.2904558284366274 0
outer loop
vertex 4.756600000000001 1.461 3.2
vertex 4.904 0.9754 10
vertex 4.904 0.9754 -7
endloop
endfacet
facet normal 0.9569231009165818 0.29034148669601123 0.000005945013286317404
outer loop
vertex 4.756600000000001 1.461 3.2
vertex 4.904 0.9754 -7
vertex 4.619400000000001 1.9134 -7
endloop
endfacet
facet normal 0.8819345938668455 0.47137179820278013 0
outer loop
vertex 4.1574 2.7778 -7
vertex 4.1574 2.7778 10
vertex 4.619400000000001 1.9134 10
endloop
endfacet
facet normal 0.8819345938668455 0.47137179820278013 0
outer loop
vertex 4.1574 2.7778 -7
vertex 4.619400000000001 1.9134 10
vertex 4.619400000000001 1.9134 -7
endloop
endfacet
facet normal 0.7730656742454283 0.6343259913510256 0
outer loop
vertex 3.5356 3.5356 -7
vertex 3.5356 3.5356 10
vertex 4.1574 2.7778 10
endloop
endfacet
facet normal 0.7730656742454283 0.6343259913510256 0
outer loop
vertex 3.5356 3.5356 -7
vertex 4.1574 2.7778 10
vertex 4.1574 2.7778 -7
endloop
endfacet
facet normal 0.6343259913510256 0.7730656742454283 0
outer loop
vertex 2.7778 4.1574 -7
vertex 2.7778 4.1574 10
vertex 3.5356 3.5356 10
endloop
endfacet
facet normal 0.6343259913510256 0.7730656742454283 0
outer loop
vertex 2.7778 4.1574 -7
vertex 3.5356 3.5356 10
vertex 3.5356 3.5356 -7
endloop
endfacet
facet normal 0.47137179820278013 0.8819345938668455 0
outer loop
vertex 1.9134 4.619400000000001 -7
vertex 1.9134 4.619400000000001 10
vertex 2.7778 4.1574 10
endloop
endfacet
facet normal 0.47137179820278013 0.8819345938668455 0
outer loop
vertex 1.9134 4.619400000000001 -7
vertex 2.7778 4.1574 10
vertex 2.7778 4.1574 -7
endloop
endfacet
facet normal 0.29034148670114196 0.9569231009334921 0
outer loop
vertex 0.9754 4.904 -7
vertex 0.9754 4.904 10
vertex 1.9134 4.619400000000001 10
endloop
endfacet
facet normal 0.29034148670114196 0.9569231009334921 0
outer loop
vertex 0.9754 4.904 -7
vertex 1.9134 4.619400000000001 10
vertex 1.9134 4.619400000000001 -7
endloop
endfacet
facet normal 0.09794790664718234 0.9951915431631414 0
outer loop
vertex 0 5 -7
vertex 0 5 10
vertex 0.9754 4.904 10
endloop
endfacet
facet normal 0.09794790664718234 0.9951915431631414 0
outer loop
vertex 0 5 -7
vertex 0.9754 4.904 10
vertex 0.9754 4.904 -7
endloop
endfacet
facet normal -0.09794790664718234 0.9951915431631414 0
outer loop
vertex -0.9754 4.904 -7
vertex -0.9754 4.904 10
vertex 0 5 10
endloop
endfacet
facet normal -0.09794790664718234 0.9951915431631414 0
outer loop
vertex -0.9754 4.904 -7
vertex 0 5 10
vertex 0 5 -7
endloop
endfacet
facet normal -0.29034148670114196 0.9569231009334921 0
outer loop
vertex -1.9134 4.619400000000001 -7
vertex -1.9134 4.619400000000001 10
vertex -0.9754 4.904 10
endloop
endfacet
facet normal -0.29034148670114196 0.9569231009334921 0
outer loop
vertex -1.9134 4.619400000000001 -7
vertex -0.9754 4.904 10
vertex -0.9754 4.904 -7
endloop
endfacet
facet normal -0.47137179820278013 0.8819345938668455 0
outer loop
vertex -2.7778 4.1574 -7
vertex -2.7778 4.1574 10
vertex -1.9134 4.619400000000001 10
endloop
endfacet
facet normal -0.47137179820278013 0.8819345938668455 0
outer loop
vertex -2.7778 4.1574 -7
vertex -1.9134 4.619400000000001 10
vertex -1.9134 4.619400000000001 -7
endloop
endfacet
facet normal -0.6343259913510256 0.7730656742454283 0
outer loop
vertex -3.5356 3.5356 -7
vertex -3.5356 3.5356 10
vertex -2.7778 4.1574 10
endloop
endfacet
facet normal -0.6343259913510256 0.7730656742454283 0
outer loop
vertex -3.5356 3.5356 -7
vertex -2.7778 4.1574 10
vertex -2.7778 4.1574 -7
endloop
endfacet
facet normal -0.7730656742454283 0.6343259913510256 0
outer loop
vertex -4.1574 2.7778 -7
vertex -4.1574 2.7778 10
vertex -3.5356 3.5356 10
endloop
endfacet
facet normal -0.7730656742454283 0.6343259913510256 0
outer loop
vertex -4.1574 2.7778 -7
vertex -3.5356 3.5356 10
vertex -3.5356 3.5356 -7
endloop
endfacet
facet normal -0.8819345938668455 0.47137179820278013 0
outer loop
vertex -4.619400000000001 1.9134 -7
vertex -4.619400000000001 1.9134 10
vertex -4.1574 2.7778 10
endloop
endfacet
facet normal -0.8819345938668455 0.47137179820278013 0
outer loop
vertex -4.619400000000001 1.9134 -7
vertex -4.1574 2.7778 10
vertex -4.1574 2.7778 -7
endloop
endfacet
facet normal -0.9568884008739954 0.2904558284366274 0
outer loop
vertex -4.756600000000001 1.461 3.2
vertex -4.904 0.9754 -7
vertex -4.904 0.9754 10
endloop
endfacet
facet normal -0.9569252764359042 0.29033431631183354 -0.000009476727297825682
outer loop
vertex -4.756600000000001 1.461 3.2
vertex -4.904 0.9754 10
vertex -4.736400000000001 1.5278 10
endloop
endfacet
facet normal -0.9569199841856939 0.29035175868704927 -0.000009663794079980814
outer loop
vertex -4.756600000000001 1.461 3.2
vertex -4.736400000000001 1.5278 10
vertex -4.619400000000001 1.9134 10
endloop
endfacet
facet normal -0.9569603350992665 0.2902187399991587 0
outer loop
vertex -4.756600000000001 1.461 3.2
vertex -4.619400000000001 1.9134 10
vertex -4.619400000000001 1.9134 -7
endloop
endfacet
facet normal -0.9569231009165818 0.29034148669601123 0.000005945013286317404
outer loop
vertex -4.756600000000001 1.461 3.2
vertex -4.619400000000001 1.9134 -7
vertex -4.904 0.9754 -7
endloop
endfacet
facet normal -0.9951827014297173 0.09803770078418905 0
outer loop
vertex -4.9510000000000005 0.4974 3.2
vertex -5 0 -7
vertex -5 0 10
endloop
endfacet
facet normal -0.9951902971018224 0.0979605661576729 -0.0000056969045826897825
outer loop
vertex -4.9510000000000005 0.4974 3.2
vertex -5 0 10
vertex -4.9472000000000005 0.5364 10
endloop
endfacet
facet normal -0.9951930654361134 0.09793243832993316 -0.000005534036207372868
outer loop
vertex -4.9510000000000005 0.4974 3.2
vertex -4.9472000000000005 0.5364 10
vertex -4.904 0.9754 10
endloop
endfacet
facet normal -0.995200735309721 0.09785446560576877 0
outer loop
vertex -4.9510000000000005 0.4974 3.2
vertex -4.904 0.9754 10
vertex -4.904 0.9754 -7
endloop
endfacet
facet normal -0.9951915431534147 0.09794790664622502 0.000004421259674949189
outer loop
vertex -4.9510000000000005 0.4974 3.2
vertex -4.904 0.9754 -7
vertex -5 0 -7
endloop
endfacet
facet normal -0.995200735309721 -0.09785446560576877 0
outer loop
vertex -4.9510000000000005 -0.4974 3.2
vertex -4.904 -0.9754 -7
vertex -4.904 -0.9754 10
endloop
endfacet
facet normal -0.9951930654361134 -0.09793243832993316 -0.000005534036207372868
outer loop
vertex -4.9510000000000005 -0.4974 3.2
vertex -4.904 -0.9754 10
vertex -4.9472000000000005 -0.5364 10
endloop
endfacet
facet normal -0.9951902971018224 -0.0979605661576729 -0.0000056969045826897825
outer loop
vertex -4.9510000000000005 -0.4974 3.2
vertex -4.9472000000000005 -0.5364 10
vertex -5 0 10
endloop
endfacet
facet normal -0.9951827014297173 -0.09803770078418905 0
outer loop
vertex -4.9510000000000005 -0.4974 3.2
vertex -5 0 10
vertex -5 0 -7
endloop
endfacet
facet normal -0.9951915431534147 -0.09794790664622502 0.000004421259674949189
outer loop
vertex -4.9510000000000005 -0.4974 3.2
vertex -5 0 -7
vertex -4.904 -0.9754 -7
endloop
endfacet
facet normal -0.9569603350992665 -0.2902187399991587 0
outer loop
vertex -4.756600000000001 -1.461 3.2
vertex -4.619400000000001 -1.9134 -7
vertex -4.619400000000001 -1.9134 10
endloop
endfacet
facet normal -0.9569199841856939 -0.29035175868704927 -0.000009663794079980814
outer loop
vertex -4.756600000000001 -1.461 3.2
vertex -4.619400000000001 -1.9134 10
vertex -4.736400000000001 -1.5278 10
endloop
endfacet
facet normal -0.9569252764359042 -0.29033431631183354 -0.000009476727297825682
outer loop
vertex -4.756600000000001 -1.461 3.2
vertex -4.736400000000001 -1.5278 10
vertex -4.904 -0.9754 10
endloop
endfacet
facet normal -0.9568884008739954 -0.2904558284366274 0
outer loop
vertex -4.756600000000001 -1.461 3.2
vertex -4.904 -0.9754 10
vertex -4.904 -0.9754 -7
endloop
endfacet
facet normal -0.9569231009165818 -0.29034148669601123 0.000005945013286317404
outer loop
vertex -4.756600000000001 -1.461 3.2
vertex -4.904 -0.9754 -7
vertex -4.619400000000001 -1.9134 -7
endloop
endfacet
facet normal -0.8819345938668455 -0.47137179820278013 0
outer loop
vertex -4.1574 -2.7778 -7
vertex -4.1574 -2.7778 10
vertex -4.619400000000001 -1.9134 10
endloop
endfacet
facet normal -0.8819345938668455 -0.47137179820278013 0
outer loop
vertex -4.1574 -2.7778 -7
vertex -4.619400000000001 -1.9134 10
vertex -4.619400000000001 -1.9134 -7
endloop
endfacet
facet normal -0.7730656742454283 -0.6343259913510256 0
outer loop
vertex -3.5356 -3.5356 -7
vertex -3.5356 -3.5356 10
vertex -4.1574 -2.7778 10
endloop
endfacet
facet normal -0.7730656742454283 -0.6343259913510256 0
outer loop
vertex -3.5356 -3.5356 -7
vertex -4.1574 -2.7778 10
vertex -4.1574 -2.7778 -7
endloop
endfacet
facet normal -0.6343259913510256 -0.7730656742454283 0
outer loop
vertex -2.7778 -4.1574 -7
vertex -2.7778 -4.1574 10
vertex -3.5356 -3.5356 10
endloop
endfacet
facet normal -0.6343259913510256 -0.7730656742454283 0
outer loop
vertex -2.7778 -4.1574 -7
vertex -3.5356 -3.5356 10
vertex -3.5356 -3.5356 -7
endloop
endfacet
facet normal -0.47137179820278013 -0.8819345938668455 0
outer loop
vertex -1.9134 -4.619400000000001 -7
vertex -1.9134 -4.619400000000001 10
vertex -2.7778 -4.1574 10
endloop
endfacet
facet normal -0.47137179820278013 -0.8819345938668455 0
outer loop
vertex -1.9134 -4.619400000000001 -7
vertex -2.7778 -4.1574 10
vertex -2.7778 -4.1574 -7
endloop
endfacet
facet normal -0.29034148670114196 -0.9569231009334921 0
outer loop
vertex -0.9754 -4.904 -7
vertex -0.9754 -4.904 10
vertex -1.9134 -4.619400000000001 10
endloop
endfacet
facet normal -0.29034148670114196 -0.9569231009334921 0
outer loop
vertex -0.9754 -4.904 -7
vertex -1.9134 -4.619400000000001 10
vertex -1.9134 -4.619400000000001 -7
endloop
endfacet
facet normal -0.09794790664718234 -0.9951915431631414 0
outer loop
vertex 0 -5 -7
vertex 0 -5 10
vertex -0.9754 -4.904 10
endloop
endfacet
facet normal -0.09794790664718234 -0.9951915431631414 0
outer loop
vertex 0 -5 -7
vertex -0.9754 -4.904 10
vertex -0.9754 -4.904 -7
endloop
endfacet
facet normal 0.09794790664718234 -0.9951915431631414 0
outer loop
vertex 0.9754 -4.904 -7
vertex 0.9754 -4.904 10
vertex 0 -5 10
endloop
endfacet
facet normal 0.09794790664718234 -0.9951915431631414 0
outer loop
vertex 0.9754 -4.904 -7
vertex 0 -5 10
vertex 0 -5 -7
endloop
endfacet
facet normal 0.29034148670114196 -0.9569231009334921 0
outer loop
vertex 1.9134 -4.619400000000001 -7
vertex 1.9134 -4.619400000000001 10
vertex 0.9754 -4.904 10
endloop
endfacet
facet normal 0.29034148670114196 -0.9569231009334921 0
outer loop
vertex 1.9134 -4.619400000000001 -7
vertex 0.9754 -4.904 10
vertex 0.9754 -4.904 -7
endloop
endfacet
facet normal 0.47137179820278013 -0.8819345938668455 0
outer loop
vertex 2.7778 -4.1574 -7
vertex 2.7778 -4.1574 10
vertex 1.9134 -4.619400000000001 10
endloop
endfacet
facet normal 0.47137179820278013 -0.8819345938668455 0
outer loop
vertex 2.7778 -4.1574 -7
vertex 1.9134 -4.619400000000001 10
vertex 1.9134 -4.619400000000001 -7
endloop
endfacet
facet normal 0.6343259913510256 -0.7730656742454283 0
outer loop
vertex 3.5356 -3.5356 -7
vertex 3.5356 -3.5356 10
vertex 2.7778 -4.1574 10
endloop
endfacet
facet normal 0.6343259913510256 -0.7730656742454283 0
outer loop
vertex 3.5356 -3.5356 -7
vertex 2.7778 -4.1574 10
vertex 2.7778 -4.1574 -7
endloop
endfacet
facet normal 0.7730656742454283 -0.6343259913510256 0
outer loop
vertex 4.1574 -2.7778 -7
vertex 4.1574 -2.7778 10
vertex 3.5356 -3.5356 10
endloop
endfacet
facet normal 0.7730656742454283 -0.6343259913510256 0
outer loop
vertex 4.1574 -2.7778 -7
vertex 3.5356 -3.5356 10
vertex 3.5356 -3.5356 -7
endloop
endfacet
facet normal 0.8819345938668455 -0.47137179820278013 0
outer loop
vertex 4.619400000000001 -1.9134 -7
vertex 4.619400000000001 -1.9134 10
vertex 4.1574 -2.7778 10
endloop
endfacet
facet normal 0.8819345938668455 -0.47137179820278013 0
outer loop
vertex 4.619400000000001 -1.9134 -7
vertex 4.1574 -2.7778 10
vertex 4.1574 -2.7778 -7
endloop
endfacet
facet normal 0.9568884008739954 -0.2904558284366274 0
outer loop
vertex 4.756600000000001 -1.461 3.2
vertex 4.904 -0.9754 -7
vertex 4.904 -0.9754 10
endloop
endfacet
facet normal 0.9569252764359042 -0.29033431631183354 -0.000009476727297825682
outer loop
vertex 4.756600000000001 -1.461 3.2
vertex 4.904 -0.9754 10
vertex 4.736400000000001 -1.5278 10
endloop
endfacet
facet normal 0.9569199841856939 -0.29035175868704927 -0.000009663794079980814
outer loop
vertex 4.756600000000001 -1.461 3.2
vertex 4.736400000000001 -1.5278 10
vertex 4.619400000000001 -1.9134 10
endloop
endfacet
facet normal 0.9569603350992665 -0.2902187399991587 0
outer loop
vertex 4.756600000000001 -1.461 3.2
vertex 4.619400000000001 -1.9134 10
vertex 4.619400000000001 -1.9134 -7
endloop
endfacet
facet normal 0.9569231009165818 -0.29034148669601123 0.000005945013286317404
outer loop
vertex 4.756600000000001 -1.461 3.2
vertex 4.619400000000001 -1.9134 -7
vertex 4.904 -0.9754 -7
endloop
endfacet
facet normal 0.9951827014297173 -0.09803770078418905 0
outer loop
vertex 4.9510000000000005 -0.4974 3.2
vertex 5 0 -7
vertex 5 0 10
endloop
endfacet
facet normal 0.9951902971018224 -0.0979605661576729 -0.0000056969045826897825
outer loop
vertex 4.9510000000000005 -0.4974 3.2
vertex 5 0 10
vertex 4.9472000000000005 -0.5364 10
endloop
endfacet
facet normal 0.9951930654361134 -0.09793243832993316 -0.000005534036207372868
outer loop
vertex 4.9510000000000005 -0.4974 3.2
vertex 4.9472000000000005 -0.5364 10
vertex 4.904 -0.9754 10
endloop
endfacet
facet normal 0.995200735309721 -0.09785446560576877 0
outer loop
vertex 4.9510000000000005 -0.4974 3.2
vertex 4.904 -0.9754 10
vertex 4.904 -0.9754 -7
endloop
endfacet
facet normal 0.9951915431534147 -0.09794790664622502 0.000004421259674949189
outer loop
vertex 4.9510000000000005 -0.4974 3.2
vertex 4.904 -0.9754 -7
vertex 5 0 -7
endloop
endfacet
facet normal -1 0 0
outer loop
vertex -10 0 -7.2858
vertex -10 -10 -10
vertex -10 -10 -7
endloop
endfacet
facet normal -1 0 0
outer loop
vertex -10 0 -7.2858
vertex -10 -10 -7
vertex -10 -5 -7
endloop
endfacet
facet normal -1 0 0
outer loop
vertex -10 0 -7.2858
vertex -10 -5 -7
vertex -10 -4.904 -7
endloop
endfacet
facet normal -1 0 0
outer loop
vertex -10 0 -7.2858
vertex -10 -4.904 -7
vertex -10 -4.619400000000001 -7
endloop
endfacet
facet normal -1 0 0
outer loop
vertex -10 0 -7.2858
vertex -10 -4.619400000000001 -7
vertex -10 -4.1574 -7
endloop
endfacet
facet normal -1 0 0
outer loop
vertex -10 0 -7.2858
vertex -10 -4.1574 -7
vertex -10 -3.5356 -7
endloop
endfacet
facet normal -1 0 0
outer loop
vertex -10 0 -7.2858
vertex -10 -3.5356 -7
vertex -10 -2.7778 -7
endloop
endfacet
facet normal -1 0 0
outer loop
vertex -10 0 -7.2858
vertex -10 -2.7778 -7
vertex -10 -1.9134 -7
endloop
endfacet
facet normal -1 0 0
outer loop
vertex -10 0 -7.2858
vertex -10 -1.9134 -7
vertex -10 -0.9754 -7
endloop
endfacet
facet normal -1 0 0
outer loop
vertex -10 0 -7.2858
vertex -10 -0.9754 -7
vertex -10 0 -7
endloop
endfacet
facet normal -1 0 0
outer loop
vertex -10 0 -7.2858
vertex -10 0 -7
vertex -10 0.9754 -7
endloop
endfacet
facet normal -1 0 0
outer loop
vertex -10 0 -7.2858
vertex -10 0.9754 -7
vertex -10 1.9134 -7
endloop
endfacet
facet normal -1 0 0
outer loop
vertex -10 0 -7.2858
vertex -10 1.9134 -7
vertex -10 2.7778 -7
endloop
endfacet
facet normal -1 0 0
outer loop
vertex -10 0 -7.2858
vertex -10 2.7778 -7
vertex -10 3.5356 -7
endloop
endfacet
facet normal -1 0 0
outer loop
vertex -10 0 -7.2858
vertex -10 3.5356 -7
vertex -10 4.1574 -7
endloop
endfacet
facet normal -1 0 0
outer loop
vertex -10 0 -7.2858
vertex -10 4.1574 -7
vertex -10 4.619400000000001 -7
endloop
endfacet
facet normal -1 0 0
outer loop
vertex -10 0 -7.2858
vertex -10 4.619400000000001 -7
vertex -10 4.904 -7
endloop
endfacet
facet normal -1 0 0
outer loop
vertex -10 0 -7.2858
vertex -10 4.904 -7
vertex -10 5 -7
endloop
endfacet
facet normal -1 0 0
outer loop
vertex -10 0 -7.2858
vertex -10 5 -7
vertex -10 10 -7
endloop
endfacet
facet normal -1 0 0
outer loop
vertex -10 0 -7.2858
vertex -10 10 -7
vertex -10 10 -10
endloop
endfacet
facet normal -1 0 0
outer loop
vertex -10 0 -7.2858
vertex -10 10 -10
vertex -10 -10 -10
endloop
endfacet
facet normal 1 0 0
outer loop
vertex 10 0 -7.2858
vertex 10 -10 -10
vertex 10 10 -10
endloop
endfacet
facet normal 1 0 0
outer loop
vertex 10 0 -7.2858
vertex 10 10 -10
vertex 10 10 -7
endloop
endfacet
facet normal 1 0 0
outer loop
vertex 10 0 -7.2858
vertex 10 10 -7
vertex 10 5 -7
endloop
endfacet
facet normal 1 0 0
outer loop
vertex 10 0 -7.2858
vertex 10 5 -7
vertex 10 4.904 -7
endloop
endfacet
facet normal 1 0 0
outer loop
vertex 10 0 -7.2858
vertex 10 4.904 -7
vertex 10 4.619400000000001 -7
endloop
endfacet
facet normal 1 0 0
outer loop
vertex 10 0 -7.2858
vertex 10 4.619400000000001 -7
vertex 10 4.1574 -7
endloop
endfacet
facet normal 1 0 0
outer loop
vertex 10 0 -7.2858
vertex 10 4.1574 -7
vertex 10 3.5356 -7
endloop
endfacet
facet normal 1 0 0
outer loop
vertex 10 0 -7.2858
vertex 10 3.5356 -7
vertex 10 2.7778 -7
endloop
endfacet
facet normal 1 0 0
outer loop
vertex 10 0 -7.2858
vertex 10 2.7778 -7
vertex 10 1.9134 -7
endloop
endfacet
facet normal 1 0 0
outer loop
vertex 10 0 -7.2858
vertex 10 1.9134 -7
vertex 10 0.9754 -7
endloop
endfacet
facet normal 1 0 0
outer loop
vertex 10 0 -7.2858
vertex 10 0.9754 -7
vertex 10 0 -7
endloop
endfacet
facet normal 1 0 0
outer loop
vertex 10 0 -7.2858
vertex 10 0 -7
vertex 10 -0.9754 -7
endloop
endfacet
facet normal 1 0 0
outer loop
vertex 10 0 -7.2858
vertex 10 -0.9754 -7
vertex 10 -1.9134 -7
endloop
endfacet
facet normal 1 0 0
outer loop
vertex 10 0 -7.2858
vertex 10 -1.9134 -7
vertex 10 -2.7778 -7
endloop
endfacet
facet normal 1 0 0
outer loop
vertex 10 0 -7.2858
vertex 10 -2.7778 -7
vertex 10 -3.5356 -7
endloop
endfacet
facet normal 1 0 0
outer loop
vertex 10 0 -7.2858
vertex 10 -3.5356 -7
vertex 10 -4.1574 -7
endloop
endfacet
facet normal 1 0 0
outer loop
vertex 10 0 -7.2858
vertex 10 -4.1574 -7
vertex 10 -4.619400000000001 -7
endloop
endfacet
facet normal 1 0 0
outer loop
vertex 10 0 -7.2858
vertex 10 -4.619400000000001 -7
vertex 10 -4.904 -7
endloop
endfacet
facet normal 1 0 0
outer loop
vertex 10 0 -7.2858
vertex 10 -4.904 -7
vertex 10 -5 -7
endloop
endfacet
facet normal 1 0 0
outer loop
vertex 10 0 -7.2858
vertex 10 -5 -7
vertex 10 -10 -7
endloop
endfacet
facet normal 1 0 0
outer loop
vertex 10 0 -7.2858
vertex 10 -10 -7
vertex 10 -10 -10
endloop
endfacet
facet normal 0 -1 0
outer loop
vertex -10 -10 -10
vertex 10 -10 -10
vertex 10 -10 -7
endloop
endfacet
facet normal 0 -1 0
outer loop
vertex -10 -10 -10
vertex 10 -10 -7
vertex -10 -10 -7
endloop
endfacet
facet normal 0 1 0
outer loop
vertex -10 10 -10
vertex -10 10 -7
vertex 10 10 -7
endloop
endfacet
facet normal 0 1 0
outer loop
vertex -10 10 -10
vertex 10 10 -7
vertex 10 10 -10
endloop
endfacet
facet normal 0 0 1
outer loop
vertex 0 7 -7
vertex -10 10 -7
vertex -10 5 -7
endloop
endfacet
facet normal 0 0 1
outer loop
vertex 0 7 -7
vertex -10 5 -7
vertex 0 5 -7
endloop
endfacet
facet normal 0 0 1
outer loop
vertex 0 7 -7
vertex 0 5 -7
vertex 10 5 -7
endloop
endfacet
facet normal 0 0 1
outer loop
vertex 0 7 -7
vertex 10 5 -7
vertex 10 10 -7
endloop
endfacet
facet normal 0 0 1
outer loop
vertex 0 7 -7
vertex 10 10 -7
vertex -10 10 -7
endloop
endfacet
facet normal 0 0 1
outer loop
vertex 0 5 -7
vertex 0.9754 4.904 -7
vertex 10 4.904 -7
endloop
endfacet
facet normal 0 0 1
outer loop
vertex 0 5 -7
vertex 10 4.904 -7
vertex 10 5 -7
endloop
endfacet
facet normal 0 0 1
outer loop
vertex -10 5 -7
vertex -10 4.904 -7
vertex -0.9754 4.904 -7
endloop
endfacet
facet normal 0 0 1
outer loop
vertex -10 5 -7
vertex -0.9754 4.904 -7
vertex 0 5 -7
endloop
endfacet
facet normal 0 0 1
outer loop
vertex 0.9754 4.904 -7
vertex 1.9134 4.619400000000001 -7
vertex 10 4.619400000000001 -7
endloop
endfacet
facet normal 0 0 1
outer loop
vertex 0.9754 4.904 -7
vertex 10 4.619400000000001 -7
vertex 10 4.904 -7
endloop
endfacet
facet normal 0 0 1
outer loop
vertex -10 4.904 -7
vertex -10 4.619400000000001 -7
vertex -1.9134 4.619400000000001 -7
endloop
endfacet
facet normal 0 0 1
outer loop
vertex -10 4.904 -7
vertex -1.9134 4.619400000000001 -7
vertex -0.9754 4.904 -7
endloop
endfacet
facet normal 0 0 0.9999999999999999
outer loop
vertex 1.9134 4.619400000000001 -7
vertex 2.7778 4.1574 -7
vertex 10 4.1574 -7
endloop
endfacet
facet normal 0 0 1
outer loop
vertex 1.9134 4.619400000000001 -7
vertex 10 4.1574 -7
vertex 10 4.619400000000001 -7
endloop
endfacet
facet normal 0 0 1
outer loop
vertex -10 4.619400000000001 -7
vertex -10 4.1574 -7
vertex -2.7778 4.1574 -7
endloop
endfacet
facet normal 0 0 1
outer loop
vertex -10 4.619400000000001 -7
vertex -2.7778 4.1574 -7
vertex -1.9134 4.619400000000001 -7
endloop
endfacet
facet normal 0 0 1
outer loop
vertex 2.7778 4.1574 -7
vertex 3.5356 3.5356 -7
vertex 10 3.5356 -7
endloop
endfacet
facet normal 0 0 1
outer loop
vertex 2.7778 4.1574 -7
vertex 10 3.5356 -7
vertex 10 4.1574 -7
endloop
endfacet
facet normal 0 0 1
outer loop
vertex -10 4.1574 -7
vertex -10 3.5356 -7
vertex -3.5356 3.5356 -7
endloop
endfacet
facet normal 0 0 1
outer loop
vertex -10 4.1574 -7
vertex -3.5356 3.5356 -7
vertex -2.7778 4.1574 -7
endloop
endfacet
facet normal 0 0 1
outer loop
vertex 3.5356 3.5356 -7
vertex 4.1574 2.7778 -7
vertex 10 2.7778 -7
endloop
endfacet
facet normal 0 0 1
outer loop
vertex 3.5356 3.5356 -7
vertex 10 2.7778 -7
vertex 10 3.5356 -7
endloop
endfacet
facet normal 0 0 1
outer loop
vertex -10 3.5356 -7
vertex -10 2.7778 -7
vertex -4.1574 2.7778 -7
endloop
endfacet
facet normal 0 0 1
outer loop
vertex -10 3.5356 -7
vertex -4.1574 2.7778 -7
vertex -3.5356 3.5356 -7
endloop
endfacet
facet normal 0 0 1
outer loop
vertex 4.1574 2.7778 -7
vertex 4.619400000000001 1.9134 -7
vertex 10 1.9134 -7
endloop
endfacet
facet normal 0 0 1
outer loop
vertex 4.1574 2.7778 -7
vertex 10 1.9134 -7
vertex 10 2.7778 -7
endloop
endfacet
facet normal 0 0 1
outer loop
vertex -10 2.7778 -7
vertex -10 1.9134 -7
vertex -4.619400000000001 1.9134 -7
endloop
endfacet
facet normal 0 0 1
outer loop
vertex -10 2.7778 -7
vertex -4.619400000000001 1.9134 -7
vertex -4.1574 2.7778 -7
endloop
endfacet
facet normal 0 0 1
outer loop
vertex 4.619400000000001 1.9134 -7
vertex 4.904 0.9754 -7
vertex 10 0.9754 -7
endloop
endfacet
facet normal 0 0 1
outer loop
vertex 4.619400000000001 1.9134 -7
vertex 10 0.9754 -7
vertex 10 1.9134 -7
endloop
endfacet
facet normal 0 0 1
outer loop
vertex -10 1.9134 -7
vertex -10 0.9754 -7
vertex -4.904 0.9754 -7
endloop
endfacet
facet normal 0 0 1
outer loop
vertex -10 1.9134 -7
vertex -4.904 0.9754 -7
vertex -4.619400000000001 1.9134 -7
endloop
endfacet
facet normal 0 0 1
outer loop
vertex 4.904 0.9754 -7
vertex 5 0 -7
vertex 10 0 -7
endloop
endfacet
facet normal 0 0 1
outer loop
vertex 4.904 0.9754 -7
vertex 10 0 -7
vertex 10 0.9754 -7
endloop
endfacet
facet normal 0 0 1
outer loop
vertex -10 0.9754 -7
vertex -10 0 -7
vertex -5 0 -7
endloop
endfacet
facet normal 0 0 1
outer loop
vertex -10 0.9754 -7
vertex -5 0 -7
vertex -4.904 0.9754 -7
endloop
endfacet
facet normal 0 0 1
outer loop
vertex 5 0 -7
vertex 4.904 -0.9754 -7
vertex 10 -0.9754 -7
endloop
endfacet
facet normal 0 0 1
outer loop
vertex 5 0 -7
vertex 10 -0.9754 -7
vertex 10 0 -7
endloop
endfacet
facet normal 0 0 1
outer loop
vertex -10 0 -7
vertex -10 -0.9754 -7
vertex -4.904 -0.9754 -7
endloop
endfacet
facet normal 0 0 1
outer loop
vertex -10 0 -7
vertex -4.904 -0.9754 -7
vertex -5 0 -7
endloop
endfacet
facet normal 0 0 1
outer loop
vertex 4.904 -0.9754 -7
vertex 4.619400000000001 -1.9134 -7
vertex 10 -1.9134 -7
endloop
endfacet
facet normal 0 0 1
outer loop
vertex 4.904 -0.9754 -7
vertex 10 -1.9134 -7
vertex 10 -0.9754 -7
endloop
endfacet
facet normal 0 0 1
outer loop
vertex -10 -0.9754 -7
vertex -10 -1.9134 -7
vertex -4.619400000000001 -1.9134 -7
endloop
endfacet
facet normal 0 0 1
outer loop
vertex -10 -0.9754 -7
vertex -4.619400000000001 -1.9134 -7
vertex -4.904 -0.9754 -7
endloop
endfacet
facet normal 0 0 1
outer loop
vertex 4.619400000000001 -1.9134 -7
vertex 4.1574 -2.7778 -7
vertex 10 -2.7778 -7
endloop
endfacet
facet normal 0 0 1
outer loop
vertex 4.619400000000001 -1.9134 -7
vertex 10 -2.7778 -7
vertex 10 -1.9134 -7
endloop
endfacet
facet normal 0 0 1
outer loop
vertex -10 -1.9134 -7
vertex -10 -2.7778 -7
vertex -4.1574 -2.7778 -7
endloop
endfacet
facet normal 0 0 1
outer loop
vertex -10 -1.9134 -7
vertex -4.1574 -2.7778 -7
vertex -4.619400000000001 -1.9134 -7
endloop
endfacet
facet normal 0 0 1
outer loop
vertex 4.1574 -2.7778 -7
vertex 3.5356 -3.5356 -7
vertex 10 -3.5356 -7
endloop
endfacet
facet normal 0 0 1
outer loop
vertex 4.1574 -2.7778 -7
vertex 10 -3.5356 -7
vertex 10 -2.7778 -7
endloop
endfacet
facet normal 0 0 1
outer loop
vertex -10 -2.7778 -7
vertex -10 -3.5356 -7
vertex -3.5356 -3.5356 -7
endloop
endfacet
facet normal 0 0 1
outer loop
vertex -10 -2.7778 -7
vertex -3.5356 -3.5356 -7
vertex -4.1574 -2.7778 -7
endloop
endfacet
facet normal 0 0 1
outer loop
vertex 3.5356 -3.5356 -7
vertex 2.7778 -4.1574 -7
vertex 10 -4.1574 -7
endloop
endfacet
facet normal 0 0 1
outer loop
vertex 3.5356 -3.5356 -7
vertex 10 -4.1574 -7
vertex 10 -3.5356 -7
endloop
endfacet
facet normal 0 0 1
outer loop
vertex -10 -3.5356 -7
vertex -10 -4.1574 -7
vertex -2.7778 -4.1574 -7
endloop
endfacet
facet normal 0 0 1
outer loop
vertex -10 -3.5356 -7
vertex -2.7778 -4.1574 -7
vertex -3.5356 -3.5356 -7
endloop
endfacet
facet normal 0 0 0.9999999999999999
outer loop
vertex 2.7778 -4.1574 -7
vertex 1.9134 -4.619400000000001 -7
vertex 10 -4.619400000000001 -7
endloop
endfacet
facet normal 0 0 1
outer loop
vertex 2.7778 -4.1574 -7
vertex 10 -4.619400000000001 -7
vertex 10 -4.1574 -7
endloop
endfacet
facet normal 0 0 1
outer loop
vertex -10 -4.1574 -7
vertex -10 -4.619400000000001 -7
vertex -1.9134 -4.619400000000001 -7
endloop
endfacet
facet normal 0 0 1
outer loop
vertex -10 -4.1574 -7
vertex -1.9134 -4.619400000000001 -7
vertex -2.7778 -4.1574 -7
endloop
endfacet
facet normal 0 0 1
outer loop
vertex 1.9134 -4.619400000000001 -7
vertex 0.9754 -4.904 -7
vertex 10 -4.904 -7
endloop
endfacet
facet normal 0 0 1
outer loop
vertex 1.9134 -4.619400000000001 -7
vertex 10 -4.904 -7
vertex 10 -4.619400000000001 -7
endloop
endfacet
facet normal 0 0 1
outer loop
vertex -10 -4.619400000000001 -7
vertex -10 -4.904 -7
vertex -0.9754 -4.904 -7
endloop
endfacet
facet normal 0 0 1
outer loop
vertex -10 -4.619400000000001 -7
vertex -0.9754 -4.904 -7
vertex -1.9134 -4.619400000000001 -7
endloop
endfacet
facet normal 0 0 1
outer loop
vertex 0.9754 -4.904 -7
vertex 0 -5 -7
vertex 10 -5 -7
endloop
endfacet
facet normal 0 0 1
outer loop
vertex 0.9754 -4.904 -7
vertex 10 -5 -7
vertex 10 -4.904 -7
endloop
endfacet
facet normal 0 0 1
outer loop
vertex -10 -4.904 -7
vertex -10 -5 -7
vertex 0 -5 -7
endloop
endfacet
facet normal 0 0 1
outer loop
vertex -10 -4.904 -7
vertex 0 -5 -7
vertex -0.9754 -4.904 -7
endloop
endfacet
facet normal 0 0 1
outer loop
vertex 0 -7 -7
vertex 0 -5 -7
vertex -10 -5 -7
endloop
endfacet
facet normal 0 0 1
outer loop
vertex 0 -7 -7
vertex -10 -5 -7
vertex -10 -10 -7
endloop
endfacet
facet normal 0 0 1
outer loop
vertex 0 -7 -7
vertex -10 -10 -7
vertex 10 -10 -7
endloop
endfacet
facet normal 0 0 1
outer loop
vertex 0 -7 -7
vertex 10 -10 -7
vertex 10 -5 -7
endloop
endfacet
facet normal 0 0 1
outer loop
vertex 0 -7 -7
vertex 10 -5 -7
vertex 0 -5 -7
endloop
endfacet
facet normal 0 0 1
outer loop
vertex 0 0 5.5
vertex 0 2.25 5.5
vertex -0.439 2.2068000000000003 5.5
endloop
endfacet
facet normal 0 0 1
outer loop
vertex 0 0 5.5
vertex -0.439 2.2068000000000003 5.5
vertex -0.861 2.0788 5.5
endloop
endfacet
facet normal 0 0 1
outer loop
vertex 0 0 5.5
vertex -0.861 2.0788 5.5
vertex -1.25 1.8708 5.5
endloop
endfacet
facet normal 0 0 1
outer loop
vertex 0 0 5.5
vertex -1.25 1.8708 5.5
vertex -1.591 1.591 5.5
endloop
endfacet
facet normal 0 0 1
outer loop
vertex 0 0 5.5
vertex -1.591 1.591 5.5
vertex -1.8708 1.25 5.5
endloop
endfacet
facet normal 0 0 1
outer loop
vertex 0 0 5.5
vertex -1.8708 1.25 5.5
vertex -2.0788 0.861 5.5
endloop
endfacet
facet normal 0 0 1
outer loop
vertex 0 0 5.5
vertex -2.0788 0.861 5.5
vertex -2.2068000000000003 0.439 5.5
endloop
endfacet
facet normal 0 0 1
outer loop
vertex 0 0 5.5
vertex -2.2068000000000003 0.439 5.5
vertex -2.25 0 5.5
endloop
endfacet
facet normal 0 0 1
outer loop
vertex 0 0 5.5
vertex -2.25 0 5.5
vertex -2.2068000000000003 -0.439 5.5
endloop
endfacet
facet normal 0 0 1
outer loop
vertex 0 0 5.5
vertex -2.2068000000000003 -0.439 5.5
vertex -2.0788 -0.861 5.5
endloop
endfacet
facet normal 0 0 1
outer loop
vertex 0 0 5.5
vertex -2.0788 -0.861 5.5
vertex -1.8708 -1.25 5.5
endloop
endfacet
facet normal 0 0 1
outer loop
vertex 0 0 5.5
vertex -1.8708 -1.25 5.5
vertex -1.591 -1.591 5.5
endloop
endfacet
facet normal 0 0 1
outer loop
vertex 0 0 5.5
vertex -1.591 -1.591 5.5
vertex -1.25 -1.8708 5.5
endloop
endfacet
facet normal 0 0 1
outer loop
vertex 0 0 5.5
vertex -1.25 -1.8708 5.5
vertex -0.861 -2.0788 5.5
endloop
endfacet
facet normal 0 0 1
outer loop
vertex 0 0 5.5
vertex -0.861 -2.0788 5.5
vertex -0.439 -2.2068000000000003 5.5
endloop
endfacet
facet normal 0 0 1
outer loop
vertex 0 0 5.5
vertex -0.439 -2.2068000000000003 5.5
vertex 0 -2.25 5.5
endloop
endfacet
facet normal 0 0 1
outer loop
vertex 0 0 5.5
vertex 0 -2.25 5.5
vertex 0.439 -2.2068000000000003 5.5
endloop
endfacet
facet normal 0 0 1
outer loop
vertex 0 0 5.5
vertex 0.439 -2.2068000000000003 5.5
vertex 0.861 -2.0788 5.5
endloop
endfacet
facet normal 0 0 1
outer loop
vertex 0 0 5.5
vertex 0.861 -2.0788 5.5
vertex 1.25 -1.8708 5.5
endloop
endfacet
facet normal 0 0 1
outer loop
vertex 0 0 5.5
vertex 1.25 -1.8708 5.5
vertex 1.591 -1.591 5.5
endloop
endfacet
facet normal 0 0 1
outer loop
vertex 0 0 5.5
vertex 1.591 -1.591 5.5
vertex 1.8708 -1.25 5.5
endloop
endfacet
facet normal 0 0 1
outer loop
vertex 0 0 5.5
vertex 1.8708 -1.25 5.5
vertex 2.0788 -0.861 5.5
endloop
endfacet
facet normal 0 0 1
outer loop
vertex 0 0 5.5
vertex 2.0788 -0.861 5.5
vertex 2.2068000000000003 -0.439 5.5
endloop
endfacet
facet normal 0 0 1
outer loop
vertex 0 0 5.5
vertex 2.2068000000000003 -0.439 5.5
vertex 2.25 0 5.5
endloop
endfacet
facet normal 0 0 1
outer loop
vertex 0 0 5.5
vertex 2.25 0 5.5
vertex 2.2068000000000003 0.439 5.5
endloop
endfacet
facet normal 0 0 1
outer loop
vertex 0 0 5.5
vertex 2.2068000000000003 0.439 5.5
vertex 2.0788 0.861 5.5
endloop
endfacet
facet normal 0 0 1
outer loop
vertex 0 0 5.5
vertex 2.0788 0.861 5.5
vertex 1.8708 1.25 5.5
endloop
endfacet
facet normal 0 0 1
outer loop
vertex 0 0 5.5
vertex 1.8708 1.25 5.5
vertex 1.591 1.591 5.5
endloop
endfacet
facet normal 0 0 1
outer loop
vertex 0 0 5.5
vertex 1.591 1.591 5.5
vertex 1.25 1.8708 5.5
endloop
endfacet
facet normal 0 0 1
outer loop
vertex 0 0 5.5
vertex 1.25 1.8708 5.5
vertex 0.861 2.0788 5.5
endloop
endfacet
facet normal 0 0 1
outer loop
vertex 0 0 5.5
vertex 0.861 2.0788 5.5
vertex 0.439 2.2068000000000003 5.5
endloop
endfacet
facet normal 0 0 1
outer loop
vertex 0 0 5.5
vertex 0.439 2.2068000000000003 5.5
vertex 0 2.25 5.5
endloop
endfacet
facet normal -0.9951930654513528 -0.09793243833143081 0
outer loop
vertex 2.25 0 5.5
vertex 2.25 0 9.5
vertex 2.2068000000000003 0.439 9.5
endloop
endfacet
facet normal -0.9951930654513528 -0.09793243833143081 0
outer loop
vertex 2.25 0 5.5
vertex 2.2068000000000003 0.439 9.5
vertex 2.2068000000000003 0.439 5.5
endloop
endfacet
facet normal -0.956948083702231 -0.290259134393094 0
outer loop
vertex 2.2068000000000003 0.439 5.5
vertex 2.2068000000000003 0.439 9.5
vertex 2.0788 0.861 9.5
endloop
endfacet
facet normal -0.956948083702231 -0.290259134393094 0
outer loop
vertex 2.2068000000000003 0.439 5.5
vertex 2.0788 0.861 9.5
vertex 2.0788 0.861 5.5
endloop
endfacet
facet normal -0.8818504116465625 -0.471529268952404 0
outer loop
vertex 2.0788 0.861 5.5
vertex 2.0788 0.861 9.5
vertex 1.8708 1.25 9.5
endloop
endfacet
facet normal -0.8818504116465625 -0.471529268952404 0
outer loop
vertex 2.0788 0.861 5.5
vertex 1.8708 1.25 9.5
vertex 1.8708 1.25 5.5
endloop
endfacet
facet normal -0.7730676693952051 -0.6343235598145995 0
outer loop
vertex 1.8708 1.25 5.5
vertex 1.8708 1.25 9.5
vertex 1.591 1.591 9.5
endloop
endfacet
facet normal -0.7730676693952051 -0.6343235598145995 0
outer loop
vertex 1.8708 1.25 5.5
vertex 1.591 1.591 9.5
vertex 1.591 1.591 5.5
endloop
endfacet
facet normal -0.6343235598145995 -0.7730676693952051 0
outer loop
vertex 1.591 1.591 5.5
vertex 1.591 1.591 9.5
vertex 1.25 1.8708 9.5
endloop
endfacet
facet normal -0.6343235598145995 -0.7730676693952051 0
outer loop
vertex 1.591 1.591 5.5
vertex 1.25 1.8708 9.5
vertex 1.25 1.8708 5.5
endloop
endfacet
facet normal -0.471529268952404 -0.8818504116465625 0
outer loop
vertex 1.25 1.8708 5.5
vertex 1.25 1.8708 9.5
vertex 0.861 2.0788 9.5
endloop
endfacet
facet normal -0.471529268952404 -0.8818504116465625 0
outer loop
vertex 1.25 1.8708 5.5
vertex 0.861 2.0788 9.5
vertex 0.861 2.0788 5.5
endloop
endfacet
facet normal -0.290259134393094 -0.956948083702231 0
outer loop
vertex 0.861 2.0788 5.5
vertex 0.861 2.0788 9.5
vertex 0.439 2.2068000000000003 9.5
endloop
endfacet
facet normal -0.290259134393094 -0.956948083702231 0
outer loop
vertex 0.861 2.0788 5.5
vertex 0.439 2.2068000000000003 9.5
vertex 0.439 2.2068000000000003 5.5
endloop
endfacet
facet normal -0.09793243833143081 -0.9951930654513528 0
outer loop
vertex 0.439 2.2068000000000003 5.5
vertex 0.439 2.2068000000000003 9.5
vertex 0 2.25 9.5
endloop
endfacet
facet normal -0.09793243833143081 -0.9951930654513528 0
outer loop
vertex 0.439 2.2068000000000003 5.5
vertex 0 2.25 9.5
vertex 0 2.25 5.5
endloop
endfacet
facet normal 0.09793243833143081 -0.9951930654513528 0
outer loop
vertex 0 2.25 5.5
vertex 0 2.25 9.5
vertex -0.439 2.2068000000000003 9.5
endloop
endfacet
facet normal 0.09793243833143081 -0.9951930654513528 0
outer loop
vertex 0 2.25 5.5
vertex -0.439 2.2068000000000003 9.5
vertex -0.439 2.2068000000000003 5.5
endloop
endfacet
facet normal 0.290259134393094 -0.956948083702231 0
outer loop
vertex -0.439 2.2068000000000003 5.5
vertex -0.439 2.2068000000000003 9.5
vertex -0.861 2.0788 9.5
endloop
endfacet
facet normal 0.290259134393094 -0.956948083702231 0
outer loop
vertex -0.439 2.2068000000000003 5.5
vertex -0.861 2.0788 9.5
vertex -0.861 2.0788 5.5
endloop
endfacet
facet normal 0.471529268952404 -0.8818504116465625 0
outer loop
vertex -0.861 2.0788 5.5
vertex -0.861 2.0788 9.5
vertex -1.25 1.8708 9.5
endloop
endfacet
facet normal 0.471529268952404 -0.8818504116465625 0
outer loop
vertex -0.861 2.0788 5.5
vertex -1.25 1.8708 9.5
vertex -1.25 1.8708 5.5
endloop
endfacet
facet normal 0.6343235598145995 -0.7730676693952051 0
outer loop
vertex -1.25 1.8708 5.5
vertex -1.25 1.8708 9.5
vertex -1.591 1.591 9.5
endloop
endfacet
facet normal 0.6343235598145995 -0.7730676693952051 0
outer loop
vertex -1.25 1.8708 5.5
vertex -1.591 1.591 9.5
vertex -1.591 1.591 5.5
endloop
endfacet
facet normal 0.7730676693952051 -0.6343235598145995 0
outer loop
vertex -1.591 1.591 5.5
vertex -1.591 1.591 9.5
vertex -1.8708 1.25 9.5
endloop
endfacet
facet normal 0.7730676693952051 -0.6343235598145995 0
outer loop
vertex -1.591 1.591 5.5
vertex -1.8708 1.25 9.5
vertex -1.8708 1.25 5.5
endloop
endfacet
facet normal 0.8818504116465625 -0.471529268952404 0
outer loop
vertex -1.8708 1.25 5.5
vertex -1.8708 1.25 9.5
vertex -2.0788 0.861 9.5
endloop
endfacet
facet normal 0.8818504116465625 -0.471529268952404 0
outer loop
vertex -1.8708 1.25 5.5
vertex -2.0788 0.861 9.5
vertex -2.0788 0.861 5.5
endloop
endfacet
facet normal 0.956948083702231 -0.290259134393094 0
outer loop
vertex -2.0788 0.861 5.5
vertex -2.0788 0.861 9.5
vertex -2.2068000000000003 0.439 9.5
endloop
endfacet
facet normal 0.956948083702231 -0.290259134393094 0
outer loop
vertex -2.0788 0.861 5.5
vertex -2.2068000000000003 0.439 9.5
vertex -2.2068000000000003 0.439 5.5
endloop
endfacet
facet normal 0.9951930654513528 -0.09793243833143081 0
outer loop
vertex -2.2068000000000003 0.439 5.5
vertex -2.2068000000000003 0.439 9.5
vertex -2.25 0 9.5
endloop
endfacet
facet normal 0.9951930654513528 -0.09793243833143081 0
outer loop
vertex -2.2068000000000003 0.439 5.5
vertex -2.25 0 9.5
vertex -2.25 0 5.5
endloop
endfacet
facet normal 0.9951930654513528 0.09793243833143081 0
outer loop
vertex -2.25 0 5.5
vertex -2.25 0 9.5
vertex -2.2068000000000003 -0.439 9.5
endloop
endfacet
facet normal 0.9951930654513528 0.09793243833143081 0
outer loop
vertex -2.25 0 5.5
vertex -2.2068000000000003 -0.439 9.5
vertex -2.2068000000000003 -0.439 5.5
endloop
endfacet
facet normal 0.956948083702231 0.290259134393094 0
outer loop
vertex -2.2068000000000003 -0.439 5.5
vertex -2.2068000000000003 -0.439 9.5
vertex -2.0788 -0.861 9.5
endloop
endfacet
facet normal 0.956948083702231 0.290259134393094 0
outer loop
vertex -2.2068000000000003 -0.439 5.5
vertex -2.0788 -0.861 9.5
vertex -2.0788 -0.861 5.5
endloop
endfacet
facet normal 0.8818504116465625 0.471529268952404 0
outer loop
vertex -2.0788 -0.861 5.5
vertex -2.0788 -0.861 9.5
vertex -1.8708 -1.25 9.5
endloop
endfacet
facet normal 0.8818504116465625 0.471529268952404 0
outer loop
vertex -2.0788 -0.861 5.5
vertex -1.8708 -1.25 9.5
vertex -1.8708 -1.25 5.5
endloop
endfacet
facet normal 0.7730676693952051 0.6343235598145995 0
outer loop
vertex -1.8708 -1.25 5.5
vertex -1.8708 -1.25 9.5
vertex -1.591 -1.591 9.5
endloop
endfacet
facet normal 0.7730676693952051 0.6343235598145995 0
outer loop
vertex -1.8708 -1.25 5.5
vertex -1.591 -1.591 9.5
vertex -1.591 -1.591 5.5
endloop
endfacet
facet normal 0.6343235598145995 0.7730676693952051 0
outer loop
vertex -1.591 -1.591 5.5
vertex -1.591 -1.591 9.5
vertex -1.25 -1.8708 9.5
endloop
endfacet
facet normal 0.6343235598145995 0.7730676693952051 0
outer loop
vertex -1.591 -1.591 5.5
vertex -1.25 -1.8708 9.5
vertex -1.25 -1.8708 5.5
endloop
endfacet
facet normal 0.471529268952404 0.8818504116465625 0
outer loop
vertex -1.25 -1.8708 5.5
vertex -1.25 -1.8708 9.5
vertex -0.861 -2.0788 9.5
endloop
endfacet
facet normal 0.471529268952404 0.8818504116465625 0
outer loop
vertex -1.25 -1.8708 5.5
vertex -0.861 -2.0788 9.5
vertex -0.861 -2.0788 5.5
endloop
endfacet
facet normal 0.290259134393094 0.956948083702231 0
outer loop
vertex -0.861 -2.0788 5.5
vertex -0.861 -2.0788 9.5
vertex -0.439 -2.2068000000000003 9.5
endloop
endfacet
facet normal 0.290259134393094 0.956948083702231 0
outer loop
vertex -0.861 -2.0788 5.5
vertex -0.439 -2.2068000000000003 9.5
vertex -0.439 -2.2068000000000003 5.5
endloop
endfacet
facet normal 0.09793243833143081 0.9951930654513528 0
outer loop
vertex -0.439 -2.2068000000000003 5.5
vertex -0.439 -2.2068000000000003 9.5
vertex 0 -2.25 9.5
endloop
endfacet
facet normal 0.09793243833143081 0.9951930654513528 0
outer loop
vertex -0.439 -2.2068000000000003 5.5
vertex 0 -2.25 9.5
vertex 0 -2.25 5.5
endloop
endfacet
facet normal -0.09793243833143081 0.9951930654513528 0
outer loop
vertex 0 -2.25 5.5
vertex 0 -2.25 9.5
vertex 0.439 -2.2068000000000003 9.5
endloop
endfacet
facet normal -0.09793243833143081 0.9951930654513528 0
outer loop
vertex 0 -2.25 5.5
vertex 0.439 -2.2068000000000003 9.5
vertex 0.439 -2.2068000000000003 5.5
endloop
endfacet
facet normal -0.290259134393094 0.956948083702231 0
outer loop
vertex 0.439 -2.2068000000000003 5.5
vertex 0.439 -2.2068000000000003 9.5
vertex 0.861 -2.0788 9.5
endloop
endfacet
facet normal -0.290259134393094 0.956948083702231 0
outer loop
vertex 0.439 -2.2068000000000003 5.5
vertex 0.861 -2.0788 9.5
vertex 0.861 -2.0788 5.5
endloop
endfacet
facet normal -0.471529268952404 0.8818504116465625 0
outer loop
vertex 0.861 -2.0788 5.5
vertex 0.861 -2.0788 9.5
vertex 1.25 -1.8708 9.5
endloop
endfacet
facet normal -0.471529268952404 0.8818504116465625 0
outer loop
vertex 0.861 -2.0788 5.5
vertex 1.25 -1.8708 9.5
vertex 1.25 -1.8708 5.5
endloop
endfacet
facet normal -0.6343235598145995 0.7730676693952051 0
outer loop
vertex 1.25 -1.8708 5.5
vertex 1.25 -1.8708 9.5
vertex 1.591 -1.591 9.5
endloop
endfacet
facet normal -0.6343235598145995 0.7730676693952051 0
outer loop
vertex 1.25 -1.8708 5.5
vertex 1.591 -1.591 9.5
vertex 1.591 -1.591 5.5
endloop
endfacet
facet normal -0.7730676693952051 0.6343235598145995 0
outer loop
vertex 1.591 -1.591 5.5
vertex 1.591 -1.591 9.5
vertex 1.8708 -1.25 9.5
endloop
endfacet
facet normal -0.7730676693952051 0.6343235598145995 0
outer loop
vertex 1.591 -1.591 5.5
vertex 1.8708 -1.25 9.5
vertex 1.8708 -1.25 5.5
endloop
endfacet
facet normal -0.8818504116465625 0.471529268952404 0
outer loop
vertex 1.8708 -1.25 5.5
vertex 1.8708 -1.25 9.5
vertex 2.0788 -0.861 9.5
endloop
endfacet
facet normal -0.8818504116465625 0.471529268952404 0
outer loop
vertex 1.8708 -1.25 5.5
vertex 2.0788 -0.861 9.5
vertex 2.0788 -0.861 5.5
endloop
endfacet
facet normal -0.956948083702231 0.290259134393094 0
outer loop
vertex 2.0788 -0.861 5.5
vertex 2.0788 -0.861 9.5
vertex 2.2068000000000003 -0.439 9.5
endloop
endfacet
facet normal -0.956948083702231 0.290259134393094 0
outer loop
vertex 2.0788 -0.861 5.5
vertex 2.2068000000000003 -0.439 9.5
vertex 2.2068000000000003 -0.439 5.5
endloop
endfacet
facet normal -0.9951930654513528 0.09793243833143081 0
outer loop
vertex 2.2068000000000003 -0.439 5.5
vertex 2.2068000000000003 -0.439 9.5
vertex 2.25 0 9.5
endloop
endfacet
facet normal -0.9951930654513528 0.09793243833143081 0
outer loop
vertex 2.2068000000000003 -0.439 5.5
vertex 2.25 0 9.5
vertex 2.25 0 5.5
endloop
endfacet
facet normal -0.7054118773609892 -0.06941638519816518 0.7053902811522603
outer loop
vertex 2.6972 0.5364 10
vertex 2.2068000000000003 0.439 9.5
vertex 2.25 0 9.5
endloop
endfacet
facet normal -0.7054001455314199 -0.0694353610813925 0.7054001455314199
outer loop
vertex 2.6972 0.5364 10
vertex 2.25 0 9.5
vertex 2.75 0 10
endloop
endfacet
facet normal -0.6783757354629488 -0.2057632562541648 0.7053140037676736
outer loop
vertex 2.5406 1.0524 10
vertex 2.0788 0.861 9.5
vertex 2.2068000000000003 0.439 9.5
endloop
endfacet
facet normal -0.6782915366272344 -0.20585359425547473 0.7053686192849576
outer loop
vertex 2.5406 1.0524 10
vertex 2.2068000000000003 0.439 9.5
vertex 2.6972 0.5364 10
endloop
endfacet
facet normal -0.62502060014925 -0.3342012463522985 0.7054493435574533
outer loop
vertex 2.2866 1.5278 10
vertex 1.8708 1.25 9.5
vertex 2.0788 0.861 9.5
endloop
endfacet
facet normal -0.6252285682279006 -0.3340514436892864 0.7053359982595476
outer loop
vertex 2.2866 1.5278 10
vertex 2.0788 0.861 9.5
vertex 2.5406 1.0524 10
endloop
endfacet
facet normal -0.5479255655563617 -0.4495881913274781 0.7054417288682518
outer loop
vertex 1.9446 1.9446 10
vertex 1.591 1.591 9.5
vertex 1.8708 1.25 9.5
endloop
endfacet
facet normal -0.5479214587120007 -0.4495900644901731 0.70544372489564
outer loop
vertex 1.9446 1.9446 10
vertex 1.8708 1.25 9.5
vertex 2.2866 1.5278 10
endloop
endfacet
facet normal -0.4495900644901731 -0.5479214587120007 0.70544372489564
outer loop
vertex 1.9446 1.9446 10
vertex 1.5278 2.2866 10
vertex 1.25 1.8708 9.5
endloop
endfacet
facet normal -0.4495881913274781 -0.5479255655563617 0.7054417288682518
outer loop
vertex 1.9446 1.9446 10
vertex 1.25 1.8708 9.5
vertex 1.591 1.591 9.5
endloop
endfacet
facet normal -0.3340514436892864 -0.6252285682279006 0.7053359982595476
outer loop
vertex 1.5278 2.2866 10
vertex 1.0524 2.5406 10
vertex 0.861 2.0788 9.5
endloop
endfacet
facet normal -0.3342012463522985 -0.62502060014925 0.7054493435574533
outer loop
vertex 1.5278 2.2866 10
vertex 0.861 2.0788 9.5
vertex 1.25 1.8708 9.5
endloop
endfacet
facet normal -0.20585359425547473 -0.6782915366272344 0.7053686192849576
outer loop
vertex 1.0524 2.5406 10
vertex 0.5364 2.6972 10
vertex 0.439 2.2068000000000003 9.5
endloop
endfacet
facet normal -0.2057632562541648 -0.6783757354629488 0.7053140037676736
outer loop
vertex 1.0524 2.5406 10
vertex 0.439 2.2068000000000003 9.5
vertex 0.861 2.0788 9.5
endloop
endfacet
facet normal -0.0694353610813925 -0.7054001455314199 0.7054001455314199
outer loop
vertex 0.5364 2.6972 10
vertex 0 2.75 10
vertex 0 2.25 9.5
endloop
endfacet
facet normal -0.06941638519816518 -0.7054118773609892 0.7053902811522603
outer loop
vertex 0.5364 2.6972 10
vertex 0 2.25 9.5
vertex 0.439 2.2068000000000003 9.5
endloop
endfacet
facet normal 0.06943622677651122 -0.7054089402068304 0.7053912655309232
outer loop
vertex 0 2.75 10
vertex -0.5364 2.6972 10
vertex -0.439 2.2068000000000003 9.5
endloop
endfacet
facet normal 0.06941532773388448 -0.7054011313698035 0.7054011313698035
outer loop
vertex 0 2.75 10
vertex -0.439 2.2068000000000003 9.5
vertex 0 2.25 9.5
endloop
endfacet
facet normal 0.20585359425547473 -0.6782915366272344 0.7053686192849575
outer loop
vertex -0.439 2.2068000000000003 9.5
vertex -0.5364 2.6972 10
vertex -1.0524 2.5406 10
endloop
endfacet
facet normal 0.2057632562541648 -0.6783757354629489 0.7053140037676736
outer loop
vertex -0.439 2.2068000000000003 9.5
vertex -1.0524 2.5406 10
vertex -0.861 2.0788 9.5
endloop
endfacet
facet normal 0.3340514436892864 -0.6252285682279006 0.7053359982595476
outer loop
vertex -0.861 2.0788 9.5
vertex -1.0524 2.5406 10
vertex -1.5278 2.2866 10
endloop
endfacet
facet normal 0.3342012463522985 -0.62502060014925 0.7054493435574533
outer loop
vertex -0.861 2.0788 9.5
vertex -1.5278 2.2866 10
vertex -1.25 1.8708 9.5
endloop
endfacet
facet normal 0.4495900644901731 -0.5479214587120007 0.7054437248956398
outer loop
vertex -1.25 1.8708 9.5
vertex -1.5278 2.2866 10
vertex -1.9446 1.9446 10
endloop
endfacet
facet normal 0.4495881913274781 -0.5479255655563617 0.7054417288682517
outer loop
vertex -1.25 1.8708 9.5
vertex -1.9446 1.9446 10
vertex -1.591 1.591 9.5
endloop
endfacet
facet normal 0.5479214587120007 -0.4495900644901731 0.70544372489564
outer loop
vertex -1.9446 1.9446 10
vertex -2.2866 1.5278 10
vertex -1.8708 1.25 9.5
endloop
endfacet
facet normal 0.5479255655563617 -0.4495881913274781 0.7054417288682518
outer loop
vertex -1.9446 1.9446 10
vertex -1.8708 1.25 9.5
vertex -1.591 1.591 9.5
endloop
endfacet
facet normal 0.6252285682279006 -0.3340514436892864 0.7053359982595476
outer loop
vertex -2.2866 1.5278 10
vertex -2.5406 1.0524 10
vertex -2.0788 0.861 9.5
endloop
endfacet
facet normal 0.62502060014925 -0.3342012463522985 0.7054493435574533
outer loop
vertex -2.2866 1.5278 10
vertex -2.0788 0.861 9.5
vertex -1.8708 1.25 9.5
endloop
endfacet
facet normal 0.6782915366272344 -0.20585359425547473 0.7053686192849576
outer loop
vertex -2.5406 1.0524 10
vertex -2.6972 0.5364 10
vertex -2.2068000000000003 0.439 9.5
endloop
endfacet
facet normal 0.6783757354629488 -0.2057632562541648 0.7053140037676736
outer loop
vertex -2.5406 1.0524 10
vertex -2.2068000000000003 0.439 9.5
vertex -2.0788 0.861 9.5
endloop
endfacet
facet normal 0.7054001455314199 -0.0694353610813925 0.7054001455314199
outer loop
vertex -2.6972 0.5364 10
vertex -2.75 0 10
vertex -2.25 0 9.5
endloop
endfacet
facet normal 0.7054118773609892 -0.06941638519816518 0.7053902811522603
outer loop
vertex -2.6972 0.5364 10
vertex -2.25 0 9.5
vertex -2.2068000000000003 0.439 9.5
endloop
endfacet
facet normal 0.7054089402068304 0.06943622677651122 0.7053912655309232
outer loop
vertex -2.75 0 10
vertex -2.6972 -0.5364 10
vertex -2.2068000000000003 -0.439 9.5
endloop
endfacet
facet normal 0.7054011313698035 0.06941532773388448 0.7054011313698035
outer loop
vertex -2.75 0 10
vertex -2.2068000000000003 -0.439 9.5
vertex -2.25 0 9.5
endloop
endfacet
facet normal 0.6782915366272344 0.20585359425547473 0.7053686192849575
outer loop
vertex -2.2068000000000003 -0.439 9.5
vertex -2.6972 -0.5364 10
vertex -2.5406 -1.0524 10
endloop
endfacet
facet normal 0.6783757354629489 0.2057632562541648 0.7053140037676736
outer loop
vertex -2.2068000000000003 -0.439 9.5
vertex -2.5406 -1.0524 10
vertex -2.0788 -0.861 9.5
endloop
endfacet
facet normal 0.6252285682279006 0.3340514436892864 0.7053359982595476
outer loop
vertex -2.0788 -0.861 9.5
vertex -2.5406 -1.0524 10
vertex -2.2866 -1.5278 10
endloop
endfacet
facet normal 0.62502060014925 0.3342012463522985 0.7054493435574533
outer loop
vertex -2.0788 -0.861 9.5
vertex -2.2866 -1.5278 10
vertex -1.8708 -1.25 9.5
endloop
endfacet
facet normal 0.5479214587120007 0.4495900644901731 0.7054437248956398
outer loop
vertex -1.8708 -1.25 9.5
vertex -2.2866 -1.5278 10
vertex -1.9446 -1.9446 10
endloop
endfacet
facet normal 0.5479255655563617 0.4495881913274781 0.7054417288682517
outer loop
vertex -1.8708 -1.25 9.5
vertex -1.9446 -1.9446 10
vertex -1.591 -1.591 9.5
endloop
endfacet
facet normal 0.4495881913274781 0.5479255655563617 0.7054417288682517
outer loop
vertex -1.25 -1.8708 9.5
vertex -1.591 -1.591 9.5
vertex -1.9446 -1.9446 10
endloop
endfacet
facet normal 0.4495900644901731 0.5479214587120007 0.7054437248956398
outer loop
vertex -1.25 -1.8708 9.5
vertex -1.9446 -1.9446 10
vertex -1.5278 -2.2866 10
endloop
endfacet
facet normal 0.3342012463522985 0.62502060014925 0.7054493435574533
outer loop
vertex -0.861 -2.0788 9.5
vertex -1.25 -1.8708 9.5
vertex -1.5278 -2.2866 10
endloop
endfacet
facet normal 0.3340514436892864 0.6252285682279006 0.7053359982595476
outer loop
vertex -0.861 -2.0788 9.5
vertex -1.5278 -2.2866 10
vertex -1.0524 -2.5406 10
endloop
endfacet
facet normal 0.2057632562541648 0.6783757354629489 0.7053140037676736
outer loop
vertex -0.439 -2.2068000000000003 9.5
vertex -0.861 -2.0788 9.5
vertex -1.0524 -2.5406 10
endloop
endfacet
facet normal 0.20585359425547473 0.6782915366272344 0.7053686192849575
outer loop
vertex -0.439 -2.2068000000000003 9.5
vertex -1.0524 -2.5406 10
vertex -0.5364 -2.6972 10
endloop
endfacet
facet normal 0.06941638519816516 0.7054118773609891 0.7053902811522603
outer loop
vertex 0 -2.25 9.5
vertex -0.439 -2.2068000000000003 9.5
vertex -0.5364 -2.6972 10
endloop
endfacet
facet normal 0.0694353610813925 0.7054001455314199 0.7054001455314199
outer loop
vertex 0 -2.25 9.5
vertex -0.5364 -2.6972 10
vertex 0 -2.75 10
endloop
endfacet
facet normal -0.06941638519816518 0.7054118773609892 0.7053902811522603
outer loop
vertex 0.5364 -2.6972 10
vertex 0.439 -2.2068000000000003 9.5
vertex 0 -2.25 9.5
endloop
endfacet
facet normal -0.0694353610813925 0.7054001455314199 0.7054001455314199
outer loop
vertex 0.5364 -2.6972 10
vertex 0 -2.25 9.5
vertex 0 -2.75 10
endloop
endfacet
facet normal -0.2057632562541648 0.6783757354629488 0.7053140037676736
outer loop
vertex 1.0524 -2.5406 10
vertex 0.861 -2.0788 9.5
vertex 0.439 -2.2068000000000003 9.5
endloop
endfacet
facet normal -0.20585359425547473 0.6782915366272344 0.7053686192849576
outer loop
vertex 1.0524 -2.5406 10
vertex 0.439 -2.2068000000000003 9.5
vertex 0.5364 -2.6972 10
endloop
endfacet
facet normal -0.3342012463522985 0.62502060014925 0.7054493435574533
outer loop
vertex 1.5278 -2.2866 10
vertex 1.25 -1.8708 9.5
vertex 0.861 -2.0788 9.5
endloop
endfacet
facet normal -0.3340514436892864 0.6252285682279006 0.7053359982595476
outer loop
vertex 1.5278 -2.2866 10
vertex 0.861 -2.0788 9.5
vertex 1.0524 -2.5406 10
endloop
endfacet
facet normal -0.4495881913274781 0.5479255655563617 0.7054417288682518
outer loop
vertex 1.9446 -1.9446 10
vertex 1.591 -1.591 9.5
vertex 1.25 -1.8708 9.5
endloop
endfacet
facet normal -0.4495900644901731 0.5479214587120007 0.70544372489564
outer loop
vertex 1.9446 -1.9446 10
vertex 1.25 -1.8708 9.5
vertex 1.5278 -2.2866 10
endloop
endfacet
facet normal -0.5479255655563617 0.4495881913274781 0.7054417288682517
outer loop
vertex 1.8708 -1.25 9.5
vertex 1.591 -1.591 9.5
vertex 1.9446 -1.9446 10
endloop
endfacet
facet normal -0.5479214587120007 0.4495900644901731 0.7054437248956398
outer loop
vertex 1.8708 -1.25 9.5
vertex 1.9446 -1.9446 10
vertex 2.2866 -1.5278 10
endloop
endfacet
facet normal -0.62502060014925 0.3342012463522985 0.7054493435574533
outer loop
vertex 2.0788 -0.861 9.5
vertex 1.8708 -1.25 9.5
vertex 2.2866 -1.5278 10
endloop
endfacet
facet normal -0.6252285682279006 0.3340514436892864 0.7053359982595476
outer loop
vertex 2.0788 -0.861 9.5
vertex 2.2866 -1.5278 10
vertex 2.5406 -1.0524 10
endloop
endfacet
facet normal -0.6783757354629489 0.2057632562541648 0.7053140037676736
outer loop
vertex 2.2068000000000003 -0.439 9.5
vertex 2.0788 -0.861 9.5
vertex 2.5406 -1.0524 10
endloop
endfacet
facet normal -0.6782915366272344 0.20585359425547473 0.7053686192849575
outer loop
vertex 2.2068000000000003 -0.439 9.5
vertex 2.5406 -1.0524 10
vertex 2.6972 -0.5364 10
endloop
endfacet
facet normal -0.7054118773609891 0.06941638519816516 0.7053902811522603
outer loop
vertex 2.25 0 9.5
vertex 2.2068000000000003 -0.439 9.5
vertex 2.6972 -0.5364 10
endloop
endfacet
facet normal -0.7054001455314199 0.0694353610813925 0.7054001455314199
outer loop
vertex 2.25 0 9.5
vertex 2.6972 -0.5364 10
vertex 2.75 0 10
endloop
endfacet
facet normal 0 0 1
outer loop
vertex 0 3.8028000000000004 10
vertex -0.9754 4.904 10
vertex -1.9134 4.619400000000001 10
endloop
endfacet
facet normal 0 0 1
outer loop
vertex 0 3.8028000000000004 10
vertex -1.9134 4.619400000000001 10
vertex -2.7778 4.1574 10
endloop
endfacet
facet normal 0 0 1
outer loop
vertex 0 3.8028000000000004 10
vertex -2.7778 4.1574 10
vertex -3.5356 3.5356 10
endloop
endfacet
facet normal 0 0 1
outer loop
vertex 0 3.8028000000000004 10
vertex -3.5356 3.5356 10
vertex -4.1574 2.7778 10
endloop
endfacet
facet normal 0 0 0.9999999999999999
outer loop
vertex 0 3.8028000000000004 10
vertex -4.1574 2.7778 10
vertex -4.1722 2.75 10
endloop
endfacet
facet normal 0 0 1
outer loop
vertex 0 3.8028000000000004 10
vertex -4.1722 2.75 10
vertex 0 2.75 10
endloop
endfacet
facet normal 0 0 1
outer loop
vertex 0 3.8028000000000004 10
vertex 0 2.75 10
vertex 4.1722 2.75 10
endloop
endfacet
facet normal 0 0 0.9999999999999999
outer loop
vertex 0 3.8028000000000004 10
vertex 4.1722 2.75 10
vertex 4.1574 2.7778 10
endloop
endfacet
facet normal 0 0 1
outer loop
vertex 0 3.8028000000000004 10
vertex 4.1574 2.7778 10
vertex 3.5356 3.5356 10
endloop
endfacet
facet normal 0 0 1
outer loop
vertex 0 3.8028000000000004 10
vertex 3.5356 3.5356 10
vertex 2.7778 4.1574 10
endloop
endfacet
facet normal 0 0 1
outer loop
vertex 0 3.8028000000000004 10
vertex 2.7778 4.1574 10
vertex 1.9134 4.619400000000001 10
endloop
endfacet
facet normal 0 0 1
outer loop
vertex 0 3.8028000000000004 10
vertex 1.9134 4.619400000000001 10
vertex 0.9754 4.904 10
endloop
endfacet
facet normal 0 0 1
outer loop
vertex 0 3.8028000000000004 10
vertex 0.9754 4.904 10
vertex 0 5 10
endloop
endfacet
facet normal 0 0 1
outer loop
vertex 0 3.8028000000000004 10
vertex 0 5 10
vertex -0.9754 4.904 10
endloop
endfacet
facet normal 0 0 1
outer loop
vertex 0 2.75 10
vertex 0.5364 2.6972 10
vertex 4.2004 2.6972 10
endloop
endfacet
facet normal 0 0 1
outer loop
vertex 0 2.75 10
vertex 4.2004 2.6972 10
vertex 4.1722 2.75 10
endloop
endfacet
facet normal 0 0 1
outer loop
vertex -4.1722 2.75 10
vertex -4.2004 2.6972 10
vertex -0.5364 2.6972 10
endloop
endfacet
facet normal 0 0 1
outer loop
vertex -4.1722 2.75 10
vertex -0.5364 2.6972 10
vertex 0 2.75 10
endloop
endfacet
facet normal 0 0 1
outer loop
vertex 0.5364 2.6972 10
vertex 1.0524 2.5406 10
vertex 4.2842 2.5406 10
endloop
endfacet
facet normal 0 0 1
outer loop
vertex 0.5364 2.6972 10
vertex 4.2842 2.5406 10
vertex 4.2004 2.6972 10
endloop
endfacet
facet normal 0 0 1
outer loop
vertex -4.2004 2.6972 10
vertex -4.2842 2.5406 10
vertex -1.0524 2.5406 10
endloop
endfacet
facet normal 0 0 1
outer loop
vertex -4.2004 2.6972 10
vertex -1.0524 2.5406 10
vertex -0.5364 2.6972 10
endloop
endfacet
facet normal 0 0 1
outer loop
vertex 1.0524 2.5406 10
vertex 1.5278 2.2866 10
vertex 4.42 2.2866 10
endloop
endfacet
facet normal 0 0 1
outer loop
vertex 1.0524 2.5406 10
vertex 4.42 2.2866 10
vertex 4.2842 2.5406 10
endloop
endfacet
facet normal 0 0 1
outer loop
vertex -4.2842 2.5406 10
vertex -4.42 2.2866 10
vertex -1.5278 2.2866 10
endloop
endfacet
facet normal 0 0 1
outer loop
vertex -4.2842 2.5406 10
vertex -1.5278 2.2866 10
vertex -1.0524 2.5406 10
endloop
endfacet
facet normal 0 0 1
outer loop
vertex 1.5278 2.2866 10
vertex 1.9446 1.9446 10
vertex 4.6028 1.9446 10
endloop
endfacet
facet normal 0 0 0.9999999999999999
outer loop
vertex 1.5278 2.2866 10
vertex 4.6028 1.9446 10
vertex 4.42 2.2866 10
endloop
endfacet
facet normal 0 0 1
outer loop
vertex -4.42 2.2866 10
vertex -4.6028 1.9446 10
vertex -1.9446 1.9446 10
endloop
endfacet
facet normal 0 0 0.9999999999999999
outer loop
vertex -4.42 2.2866 10
vertex -1.9446 1.9446 10
vertex -1.5278 2.2866 10
endloop
endfacet
facet normal 0 0 0.9999999999999999
outer loop
vertex 3.6380000000000003 1.7716 10
vertex 1.9446 1.9446 10
vertex 2.2866 1.5278 10
endloop
endfacet
facet normal 0 0 1
outer loop
vertex 3.6380000000000003 1.7716 10
vertex 2.2866 1.5278 10
vertex 4.736400000000001 1.5278 10
endloop
endfacet
facet normal 0 0 1
outer loop
vertex 3.6380000000000003 1.7716 10
vertex 4.736400000000001 1.5278 10
vertex 4.619400000000001 1.9134 10
endloop
endfacet
facet normal 0 0 1
outer loop
vertex 3.6380000000000003 1.7716 10
vertex 4.619400000000001 1.9134 10
vertex 4.6028 1.9446 10
endloop
endfacet
facet normal 0 0 0.9999999999999999
outer loop
vertex 3.6380000000000003 1.7716 10
vertex 4.6028 1.9446 10
vertex 1.9446 1.9446 10
endloop
endfacet
facet normal 0 0 1
outer loop
vertex -3.6380000000000003 1.7716 10
vertex -4.6028 1.9446 10
vertex -4.619400000000001 1.9134 10
endloop
endfacet
facet normal 0 0 1
outer loop
vertex -3.6380000000000003 1.7716 10
vertex -4.619400000000001 1.9134 10
vertex -4.736400000000001 1.5278 10
endloop
endfacet
facet normal 0 0 1
outer loop
vertex -3.6380000000000003 1.7716 10
vertex -4.736400000000001 1.5278 10
vertex -2.2866 1.5278 10
endloop
endfacet
facet normal 0 0 0.9999999999999999
outer loop
vertex -3.6380000000000003 1.7716 10
vertex -2.2866 1.5278 10
vertex -1.9446 1.9446 10
endloop
endfacet
facet normal 0 0 0.9999999999999999
outer loop
vertex -3.6380000000000003 1.7716 10
vertex -1.9446 1.9446 10
vertex -4.6028 1.9446 10
endloop
endfacet
facet normal 0 0 1
outer loop
vertex 2.2866 1.5278 10
vertex 2.5406 1.0524 10
vertex 4.8806 1.0524 10
endloop
endfacet
facet normal 0 0 1
outer loop
vertex 2.2866 1.5278 10
vertex 4.8806 1.0524 10
vertex 4.736400000000001 1.5278 10
endloop
endfacet
facet normal 0 0 1
outer loop
vertex -4.736400000000001 1.5278 10
vertex -4.8806 1.0524 10
vertex -2.5406 1.0524 10
endloop
endfacet
facet normal 0 0 1
outer loop
vertex -4.736400000000001 1.5278 10
vertex -2.5406 1.0524 10
vertex -2.2866 1.5278 10
endloop
endfacet
facet normal 0 0 1
outer loop
vertex 3.994 0.8306 10
vertex 2.5406 1.0524 10
vertex 2.6972 0.5364 10
endloop
endfacet
facet normal 0 0 1
outer loop
vertex 3.994 0.8306 10
vertex 2.6972 0.5364 10
vertex 4.9472000000000005 0.5364 10
endloop
endfacet
facet normal 0 0 0.9999999999999999
outer loop
vertex 3.994 0.8306 10
vertex 4.9472000000000005 0.5364 10
vertex 4.904 0.9754 10
endloop
endfacet
facet normal 0 0 1
outer loop
vertex 3.994 0.8306 10
vertex 4.904 0.9754 10
vertex 4.8806 1.0524 10
endloop
endfacet
facet normal 0 0 1
outer loop
vertex 3.994 0.8306 10
vertex 4.8806 1.0524 10
vertex 2.5406 1.0524 10
endloop
endfacet
facet normal 0 0 1
outer loop
vertex -3.994 0.8306 10
vertex -4.8806 1.0524 10
vertex -4.904 0.9754 10
endloop
endfacet
facet normal 0 0 0.9999999999999999
outer loop
vertex -3.994 0.8306 10
vertex -4.904 0.9754 10
vertex -4.9472000000000005 0.5364 10
endloop
endfacet
facet normal 0 0 1
outer loop
vertex -3.994 0.8306 10
vertex -4.9472000000000005 0.5364 10
vertex -2.6972 0.5364 10
endloop
endfacet
facet normal 0 0 1
outer loop
vertex -3.994 0.8306 10
vertex -2.6972 0.5364 10
vertex -2.5406 1.0524 10
endloop
endfacet
facet normal 0 0 1
outer loop
vertex -3.994 0.8306 10
vertex -2.5406 1.0524 10
vertex -4.8806 1.0524 10
endloop
endfacet
facet normal 0 0 1
outer loop
vertex 2.6972 0.5364 10
vertex 2.75 0 10
vertex 5 0 10
endloop
endfacet
facet normal 0 0 1
outer loop
vertex 2.6972 0.5364 10
vertex 5 0 10
vertex 4.9472000000000005 0.5364 10
endloop
endfacet
facet normal 0 0 0.9999999999999999
outer loop
vertex -4.9472000000000005 0.5364 10
vertex -5 0 10
vertex -2.75 0 10
endloop
endfacet
facet normal 0 0 1
outer loop
vertex -4.9472000000000005 0.5364 10
vertex -2.75 0 10
vertex -2.6972 0.5364 10
endloop
endfacet
facet normal 0 0 1
outer loop
vertex 2.75 0 10
vertex 2.6972 -0.5364 10
vertex 4.9472000000000005 -0.5364 10
endloop
endfacet
facet normal 0 0 0.9999999999999999
outer loop
vertex 2.75 0 10
vertex 4.9472000000000005 -0.5364 10
vertex 5 0 10
endloop
endfacet
facet normal 0 0 0.9999999999999999
outer loop
vertex -5 0 10
vertex -4.9472000000000005 -0.5364 10
vertex -2.6972 -0.5364 10
endloop
endfacet
facet normal 0 0 0.9999999999999999
outer loop
vertex -5 0 10
vertex -2.6972 -0.5364 10
vertex -2.75 0 10
endloop
endfacet
facet normal 0 0 1
outer loop
vertex 3.994 -0.8306 10
vertex 2.6972 -0.5364 10
vertex 2.5406 -1.0524 10
endloop
endfacet
facet normal 0 0 1
outer loop
vertex 3.994 -0.8306 10
vertex 2.5406 -1.0524 10
vertex 4.8806 -1.0524 10
endloop
endfacet
facet normal 0 0 1
outer loop
vertex 3.994 -0.8306 10
vertex 4.8806 -1.0524 10
vertex 4.904 -0.9754 10
endloop
endfacet
facet normal 0 0 0.9999999999999999
outer loop
vertex 3.994 -0.8306 10
vertex 4.904 -0.9754 10
vertex 4.9472000000000005 -0.5364 10
endloop
endfacet
facet normal 0 0 1
outer loop
vertex 3.994 -0.8306 10
vertex 4.9472000000000005 -0.5364 10
vertex 2.6972 -0.5364 10
endloop
endfacet
facet normal 0 0 0.9999999999999999
outer loop
vertex -3.994 -0.8306 10
vertex -4.9472000000000005 -0.5364 10
vertex -4.904 -0.9754 10
endloop
endfacet
facet normal 0 0 1
outer loop
vertex -3.994 -0.8306 10
vertex -4.904 -0.9754 10
vertex -4.8806 -1.0524 10
endloop
endfacet
facet normal 0 0 1
outer loop
vertex -3.994 -0.8306 10
vertex -4.8806 -1.0524 10
vertex -2.5406 -1.0524 10
endloop
endfacet
facet normal 0 0 1
outer loop
vertex -3.994 -0.8306 10
vertex -2.5406 -1.0524 10
vertex -2.6972 -0.5364 10
endloop
endfacet
facet normal 0 0 1
outer loop
vertex -3.994 -0.8306 10
vertex -2.6972 -0.5364 10
vertex -4.9472000000000005 -0.5364 10
endloop
endfacet
facet normal 0 0 1
outer loop
vertex 2.5406 -1.0524 10
vertex 2.2866 -1.5278 10
vertex 4.736400000000001 -1.5278 10
endloop
endfacet
facet normal 0 0 1
outer loop
vertex 2.5406 -1.0524 10
vertex 4.736400000000001 -1.5278 10
vertex 4.8806 -1.0524 10
endloop
endfacet
facet normal 0 0 1
outer loop
vertex -4.8806 -1.0524 10
vertex -4.736400000000001 -1.5278 10
vertex -2.2866 -1.5278 10
endloop
endfacet
facet normal 0 0 1
outer loop
vertex -4.8806 -1.0524 10
vertex -2.2866 -1.5278 10
vertex -2.5406 -1.0524 10
endloop
endfacet
facet normal 0 0 0.9999999999999999
outer loop
vertex 3.6380000000000003 -1.7716 10
vertex 2.2866 -1.5278 10
vertex 1.9446 -1.9446 10
endloop
endfacet
facet normal 0 0 0.9999999999999999
outer loop
vertex 3.6380000000000003 -1.7716 10
vertex 1.9446 -1.9446 10
vertex 4.6028 -1.9446 10
endloop
endfacet
facet normal 0 0 1
outer loop
vertex 3.6380000000000003 -1.7716 10
vertex 4.6028 -1.9446 10
vertex 4.619400000000001 -1.9134 10
endloop
endfacet
facet normal 0 0 1
outer loop
vertex 3.6380000000000003 -1.7716 10
vertex 4.619400000000001 -1.9134 10
vertex 4.736400000000001 -1.5278 10
endloop
endfacet
facet normal 0 0 1
outer loop
vertex 3.6380000000000003 -1.7716 10
vertex 4.736400000000001 -1.5278 10
vertex 2.2866 -1.5278 10
endloop
endfacet
facet normal 0 0 1
outer loop
vertex -3.6380000000000003 -1.7716 10
vertex -4.736400000000001 -1.5278 10
vertex -4.619400000000001 -1.9134 10
endloop
endfacet
facet normal 0 0 1
outer loop
vertex -3.6380000000000003 -1.7716 10
vertex -4.619400000000001 -1.9134 10
vertex -4.6028 -1.9446 10
endloop
endfacet
facet normal 0 0 0.9999999999999999
outer loop
vertex -3.6380000000000003 -1.7716 10
vertex -4.6028 -1.9446 10
vertex -1.9446 -1.9446 10
endloop
endfacet
facet normal 0 0 0.9999999999999999
outer loop
vertex -3.6380000000000003 -1.7716 10
vertex -1.9446 -1.9446 10
vertex -2.2866 -1.5278 10
endloop
endfacet
facet normal 0 0 1
outer loop
vertex -3.6380000000000003 -1.7716 10
vertex -2.2866 -1.5278 10
vertex -4.736400000000001 -1.5278 10
endloop
endfacet
facet normal 0 0 1
outer loop
vertex 1.9446 -1.9446 10
vertex 1.5278 -2.2866 10
vertex 4.42 -2.2866 10
endloop
endfacet
facet normal 0 0 1
outer loop
vertex 1.9446 -1.9446 10
vertex 4.42 -2.2866 10
vertex 4.6028 -1.9446 10
endloop
endfacet
facet normal 0 0 1
outer loop
vertex -4.6028 -1.9446 10
vertex -4.42 -2.2866 10
vertex -1.5278 -2.2866 10
endloop
endfacet
facet normal 0 0 1
outer loop
vertex -4.6028 -1.9446 10
vertex -1.5278 -2.2866 10
vertex -1.9446 -1.9446 10
endloop
endfacet
facet normal 0 0 1
outer loop
vertex 1.5278 -2.2866 10
vertex 1.0524 -2.5406 10
vertex 4.2842 -2.5406 10
endloop
endfacet
facet normal 0 0 1
outer loop
vertex 1.5278 -2.2866 10
vertex 4.2842 -2.5406 10
vertex 4.42 -2.2866 10
endloop
endfacet
facet normal 0 0 1
outer loop
vertex -4.42 -2.2866 10
vertex -4.2842 -2.5406 10
vertex -1.0524 -2.5406 10
endloop
endfacet
facet normal 0 0 1
outer loop
vertex -4.42 -2.2866 10
vertex -1.0524 -2.5406 10
vertex -1.5278 -2.2866 10
endloop
endfacet
facet normal 0 0 1
outer loop
vertex 1.0524 -2.5406 10
vertex 0.5364 -2.6972 10
vertex 4.2004 -2.6972 10
endloop
endfacet
facet normal 0 0 1
outer loop
vertex 1.0524 -2.5406 10
vertex 4.2004 -2.6972 10
vertex 4.2842 -2.5406 10
endloop
endfacet
facet normal 0 0 1
outer loop
vertex -4.2842 -2.5406 10
vertex -4.2004 -2.6972 10
vertex -0.5364 -2.6972 10
endloop
endfacet
facet normal 0 0 1
outer loop
vertex -4.2842 -2.5406 10
vertex -0.5364 -2.6972 10
vertex -1.0524 -2.5406 10
endloop
endfacet
facet normal 0 0 1
outer loop
vertex 0.5364 -2.6972 10
vertex 0 -2.75 10
vertex 4.1722 -2.75 10
endloop
endfacet
facet normal 0 0 1
outer loop
vertex 0.5364 -2.6972 10
vertex 4.1722 -2.75 10
vertex 4.2004 -2.6972 10
endloop
endfacet
facet normal 0 0 1
outer loop
vertex -4.2004 -2.6972 10
vertex -4.1722 -2.75 10
vertex 0 -2.75 10
endloop
endfacet
facet normal 0 0 1
outer loop
vertex -4.2004 -2.6972 10
vertex 0 -2.75 10
vertex -0.5364 -2.6972 10
endloop
endfacet
facet normal 0 0 1
outer loop
vertex 0 -3.8028000000000004 10
vertex 0 -2.75 10
vertex -4.1722 -2.75 10
endloop
endfacet
facet normal 0 0 0.9999999999999999
outer loop
vertex 0 -3.8028000000000004 10
vertex -4.1722 -2.75 10
vertex -4.1574 -2.7778 10
endloop
endfacet
facet normal 0 0 1
outer loop
vertex 0 -3.8028000000000004 10
vertex -4.1574 -2.7778 10
vertex -3.5356 -3.5356 10
endloop
endfacet
facet normal 0 0 1
outer loop
vertex 0 -3.8028000000000004 10
vertex -3.5356 -3.5356 10
vertex -2.7778 -4.1574 10
endloop
endfacet
facet normal 0 0 1
outer loop
vertex 0 -3.8028000000000004 10
vertex -2.7778 -4.1574 10
vertex -1.9134 -4.619400000000001 10
endloop
endfacet
facet normal 0 0 1
outer loop
vertex 0 -3.8028000000000004 10
vertex -1.9134 -4.619400000000001 10
vertex -0.9754 -4.904 10
endloop
endfacet
facet normal 0 0 1
outer loop
vertex 0 -3.8028000000000004 10
vertex -0.9754 -4.904 10
vertex 0 -5 10
endloop
endfacet
facet normal 0 0 1
outer loop
vertex 0 -3.8028000000000004 10
vertex 0 -5 10
vertex 0.9754 -4.904 10
endloop
endfacet
facet normal 0 0 1
outer loop
vertex 0 -3.8028000000000004 10
vertex 0.9754 -4.904 10
vertex 1.9134 -4.619400000000001 10
endloop
endfacet
facet normal 0 0 1
outer loop
vertex 0 -3.8028000000000004 10
vertex 1.9134 -4.619400000000001 10
vertex 2.7778 -4.1574 10
endloop
endfacet
facet normal 0 0 1
outer loop
vertex 0 -3.8028000000000004 10
vertex 2.7778 -4.1574 10
vertex 3.5356 -3.5356 10
endloop
endfacet
facet normal 0 0 1
outer loop
vertex 0 -3.8028000000000004 10
vertex 3.5356 -3.5356 10
vertex 4.1574 -2.7778 10
endloop
endfacet
facet normal 0 0 0.9999999999999999
outer loop
vertex 0 -3.8028000000000004 10
vertex 4.1574 -2.7778 10
vertex 4.1722 -2.75 10
endloop
endfacet
facet normal 0 0 1
outer loop
vertex 0 -3.8028000000000004 10
vertex 4.1722 -2.75 10
vertex 0 -2.75 10
endloop
endfacet
endsolid JSCAD
