solid JSCAD
facet normal 0 0 -1
outer loop
vertex 9.9999 39.999900000000004 -9.9999
vertex 9.9999 -9.9999 -9.9999
vertex -9.9999 -9.9999 -9.9999
endloop
endfacet
facet normal 0 0 -1
outer loop
vertex 9.9999 39.999900000000004 -9.9999
vertex -9.9999 -9.9999 -9.9999
vertex -9.9999 39.999900000000004 -9.9999
endloop
endfacet
facet normal 0.9951636306175753 0.09823109638014839 0
outer loop
vertex 4.9038 0.9756000000000001 -6.9999
vertex 4.9038 0.9756000000000001 9.9999
vertex 5.000100000000001 0 9.9999
endloop
endfacet
facet normal 0.9951636306175753 0.09823109638014839 0
outer loop
vertex 4.9038 0.9756000000000001 -6.9999
vertex 5.000100000000001 0 9.9999
vertex 5.000100000000001 0 -6.9999
endloop
endfacet
facet normal 0.9569625902649909 0.29021130376558235 0
outer loop
vertex 4.619400000000001 1.9134000000000002 -6.9999
vertex 4.619400000000001 1.9134000000000002 9.9999
vertex 4.9038 0.9756000000000001 9.9999
endloop
endfacet
facet normal 0.9569625902649909 0.29021130376558235 0
outer loop
vertex 4.619400000000001 1.9134000000000002 -6.9999
vertex 4.9038 0.9756000000000001 9.9999
vertex 4.9038 0.9756000000000001 -6.9999
endloop
endfacet
facet normal 0.8819799213473868 0.47128698087265 0
outer loop
vertex 4.1574 2.7780000000000005 -6.9999
vertex 4.1574 2.7780000000000005 9.9999
vertex 4.619400000000001 1.9134000000000002 9.9999
endloop
endfacet
facet normal 0.8819799213473868 0.47128698087265 0
outer loop
vertex 4.1574 2.7780000000000005 -6.9999
vertex 4.619400000000001 1.9134000000000002 9.9999
vertex 4.619400000000001 1.9134000000000002 -6.9999
endloop
endfacet
facet normal 0.7728924477263606 0.6345370471828693 0
outer loop
vertex 3.5355000000000003 3.5355000000000003 -6.9999
vertex 3.5355000000000003 3.5355000000000003 9.9999
vertex 4.1574 2.7780000000000005 9.9999
endloop
endfacet
facet normal 0.7728924477263606 0.6345370471828693 0
outer loop
vertex 3.5355000000000003 3.5355000000000003 -6.9999
vertex 4.1574 2.7780000000000005 9.9999
vertex 4.1574 2.7780000000000005 -6.9999
endloop
endfacet
facet normal 0.6345370471828693 0.7728924477263606 0
outer loop
vertex 2.7780000000000005 4.1574 -6.9999
vertex 2.7780000000000005 4.1574 9.9999
vertex 3.5355000000000003 3.5355000000000003 9.9999
endloop
endfacet
facet normal 0.6345370471828693 0.7728924477263606 0
outer loop
vertex 2.7780000000000005 4.1574 -6.9999
vertex 3.5355000000000003 3.5355000000000003 9.9999
vertex 3.5355000000000003 3.5355000000000003 -6.9999
endloop
endfacet
facet normal 0.47128698087265 0.8819799213473868 0
outer loop
vertex 1.9134000000000002 4.619400000000001 -6.9999
vertex 1.9134000000000002 4.619400000000001 9.9999
vertex 2.7780000000000005 4.1574 9.9999
endloop
endfacet
facet normal 0.47128698087265 0.8819799213473868 0
outer loop
vertex 1.9134000000000002 4.619400000000001 -6.9999
vertex 2.7780000000000005 4.1574 9.9999
vertex 2.7780000000000005 4.1574 -6.9999
endloop
endfacet
facet normal 0.29021130376558235 0.9569625902649909 0
outer loop
vertex 0.9756000000000001 4.9038 -6.9999
vertex 0.9756000000000001 4.9038 9.9999
vertex 1.9134000000000002 4.619400000000001 9.9999
endloop
endfacet
facet normal 0.29021130376558235 0.9569625902649909 0
outer loop
vertex 0.9756000000000001 4.9038 -6.9999
vertex 1.9134000000000002 4.619400000000001 9.9999
vertex 1.9134000000000002 4.619400000000001 -6.9999
endloop
endfacet
facet normal 0.09823109638014839 0.9951636306175753 0
outer loop
vertex 0 5.000100000000001 -6.9999
vertex 0 5.000100000000001 9.9999
vertex 0.9756000000000001 4.9038 9.9999
endloop
endfacet
facet normal 0.09823109638014839 0.9951636306175753 0
outer loop
vertex 0 5.000100000000001 -6.9999
vertex 0.9756000000000001 4.9038 9.9999
vertex 0.9756000000000001 4.9038 -6.9999
endloop
endfacet
facet normal -0.09823109638014839 0.9951636306175753 0
outer loop
vertex -0.9756000000000001 4.9038 -6.9999
vertex -0.9756000000000001 4.9038 9.9999
vertex 0 5.000100000000001 9.9999
endloop
endfacet
facet normal -0.09823109638014839 0.9951636306175753 0
outer loop
vertex -0.9756000000000001 4.9038 -6.9999
vertex 0 5.000100000000001 9.9999
vertex 0 5.000100000000001 -6.9999
endloop
endfacet
facet normal -0.29021130376558235 0.9569625902649909 0
outer loop
vertex -1.9134000000000002 4.619400000000001 -6.9999
vertex -1.9134000000000002 4.619400000000001 9.9999
vertex -0.9756000000000001 4.9038 9.9999
endloop
endfacet
facet normal -0.29021130376558235 0.9569625902649909 0
outer loop
vertex -1.9134000000000002 4.619400000000001 -6.9999
vertex -0.9756000000000001 4.9038 9.9999
vertex -0.9756000000000001 4.9038 -6.9999
endloop
endfacet
facet normal -0.47128698087265 0.8819799213473868 0
outer loop
vertex -2.7780000000000005 4.1574 -6.9999
vertex -2.7780000000000005 4.1574 9.9999
vertex -1.9134000000000002 4.619400000000001 9.9999
endloop
endfacet
facet normal -0.47128698087265 0.8819799213473868 0
outer loop
vertex -2.7780000000000005 4.1574 -6.9999
vertex -1.9134000000000002 4.619400000000001 9.9999
vertex -1.9134000000000002 4.619400000000001 -6.9999
endloop
endfacet
facet normal -0.6345370471828693 0.7728924477263606 0
outer loop
vertex -3.5355000000000003 3.5355000000000003 -6.9999
vertex -3.5355000000000003 3.5355000000000003 9.9999
vertex -2.7780000000000005 4.1574 9.9999
endloop
endfacet
facet normal -0.6345370471828693 0.7728924477263606 0
outer loop
vertex -3.5355000000000003 3.5355000000000003 -6.9999
vertex -2.7780000000000005 4.1574 9.9999
vertex -2.7780000000000005 4.1574 -6.9999
endloop
endfacet
facet normal -0.7728924477263606 0.6345370471828693 0
outer loop
vertex -4.1574 2.7780000000000005 -6.9999
vertex -4.1574 2.7780000000000005 9.9999
vertex -3.5355000000000003 3.5355000000000003 9.9999
endloop
endfacet
facet normal -0.7728924477263606 0.6345370471828693 0
outer loop
vertex -4.1574 2.7780000000000005 -6.9999
vertex -3.5355000000000003 3.5355000000000003 9.9999
vertex -3.5355000000000003 3.5355000000000003 -6.9999
endloop
endfacet
facet normal -0.8819799213473868 0.47128698087265 0
outer loop
vertex -4.619400000000001 1.9134000000000002 -6.9999
vertex -4.619400000000001 1.9134000000000002 9.9999
vertex -4.1574 2.7780000000000005 9.9999
endloop
endfacet
facet normal -0.8819799213473868 0.47128698087265 0
outer loop
vertex -4.619400000000001 1.9134000000000002 -6.9999
vertex -4.1574 2.7780000000000005 9.9999
vertex -4.1574 2.7780000000000005 -6.9999
endloop
endfacet
facet normal -0.9569625902649909 0.29021130376558235 0
outer loop
vertex -4.9038 0.9756000000000001 -6.9999
vertex -4.9038 0.9756000000000001 9.9999
vertex -4.619400000000001 1.9134000000000002 9.9999
endloop
endfacet
facet normal -0.9569625902649909 0.29021130376558235 0
outer loop
vertex -4.9038 0.9756000000000001 -6.9999
vertex -4.619400000000001 1.9134000000000002 9.9999
vertex -4.619400000000001 1.9134000000000002 -6.9999
endloop
endfacet
facet normal -0.9951636306175753 0.09823109638014839 0
outer loop
vertex -5.000100000000001 0 -6.9999
vertex -5.000100000000001 0 9.9999
vertex -4.9038 0.9756000000000001 9.9999
endloop
endfacet
facet normal -0.9951636306175753 0.09823109638014839 0
outer loop
vertex -5.000100000000001 0 -6.9999
vertex -4.9038 0.9756000000000001 9.9999
vertex -4.9038 0.9756000000000001 -6.9999
endloop
endfacet
facet normal -0.9951636306175753 -0.09823109638014839 0
outer loop
vertex -4.9038 -0.9756000000000001 -6.9999
vertex -4.9038 -0.9756000000000001 9.9999
vertex -5.000100000000001 0 9.9999
endloop
endfacet
facet normal -0.9951636306175753 -0.09823109638014839 0
outer loop
vertex -4.9038 -0.9756000000000001 -6.9999
vertex -5.000100000000001 0 9.9999
vertex -5.000100000000001 0 -6.9999
endloop
endfacet
facet normal -0.9569625902649909 -0.29021130376558235 0
outer loop
vertex -4.619400000000001 -1.9134000000000002 -6.9999
vertex -4.619400000000001 -1.9134000000000002 9.9999
vertex -4.9038 -0.9756000000000001 9.9999
endloop
endfacet
facet normal -0.9569625902649909 -0.29021130376558235 0
outer loop
vertex -4.619400000000001 -1.9134000000000002 -6.9999
vertex -4.9038 -0.9756000000000001 9.9999
vertex -4.9038 -0.9756000000000001 -6.9999
endloop
endfacet
facet normal -0.8819799213473868 -0.47128698087265 0
outer loop
vertex -4.1574 -2.7780000000000005 -6.9999
vertex -4.1574 -2.7780000000000005 9.9999
vertex -4.619400000000001 -1.9134000000000002 9.9999
endloop
endfacet
facet normal -0.8819799213473868 -0.47128698087265 0
outer loop
vertex -4.1574 -2.7780000000000005 -6.9999
vertex -4.619400000000001 -1.9134000000000002 9.9999
vertex -4.619400000000001 -1.9134000000000002 -6.9999
endloop
endfacet
facet normal -0.7728924477263606 -0.6345370471828693 0
outer loop
vertex -3.5355000000000003 -3.5355000000000003 -6.9999
vertex -3.5355000000000003 -3.5355000000000003 9.9999
vertex -4.1574 -2.7780000000000005 9.9999
endloop
endfacet
facet normal -0.7728924477263606 -0.6345370471828693 0
outer loop
vertex -3.5355000000000003 -3.5355000000000003 -6.9999
vertex -4.1574 -2.7780000000000005 9.9999
vertex -4.1574 -2.7780000000000005 -6.9999
endloop
endfacet
facet normal -0.6345370471828693 -0.7728924477263606 0
outer loop
vertex -2.7780000000000005 -4.1574 -6.9999
vertex -2.7780000000000005 -4.1574 9.9999
vertex -3.5355000000000003 -3.5355000000000003 9.9999
endloop
endfacet
facet normal -0.6345370471828693 -0.7728924477263606 0
outer loop
vertex -2.7780000000000005 -4.1574 -6.9999
vertex -3.5355000000000003 -3.5355000000000003 9.9999
vertex -3.5355000000000003 -3.5355000000000003 -6.9999
endloop
endfacet
facet normal -0.47128698087265 -0.8819799213473868 0
outer loop
vertex -1.9134000000000002 -4.619400000000001 -6.9999
vertex -1.9134000000000002 -4.619400000000001 9.9999
vertex -2.7780000000000005 -4.1574 9.9999
endloop
endfacet
facet normal -0.47128698087265 -0.8819799213473868 0
outer loop
vertex -1.9134000000000002 -4.619400000000001 -6.9999
vertex -2.7780000000000005 -4.1574 9.9999
vertex -2.7780000000000005 -4.1574 -6.9999
endloop
endfacet
facet normal -0.29021130376558235 -0.9569625902649909 0
outer loop
vertex -0.9756000000000001 -4.9038 -6.9999
vertex -0.9756000000000001 -4.9038 9.9999
vertex -1.9134000000000002 -4.619400000000001 9.9999
endloop
endfacet
facet normal -0.29021130376558235 -0.9569625902649909 0
outer loop
vertex -0.9756000000000001 -4.9038 -6.9999
vertex -1.9134000000000002 -4.619400000000001 9.9999
vertex -1.9134000000000002 -4.619400000000001 -6.9999
endloop
endfacet
facet normal -0.09823109638014839 -0.9951636306175753 0
outer loop
vertex 0 -5.000100000000001 -6.9999
vertex 0 -5.000100000000001 9.9999
vertex -0.9756000000000001 -4.9038 9.9999
endloop
endfacet
facet normal -0.09823109638014839 -0.9951636306175753 0
outer loop
vertex 0 -5.000100000000001 -6.9999
vertex -0.9756000000000001 -4.9038 9.9999
vertex -0.9756000000000001 -4.9038 -6.9999
endloop
endfacet
facet normal 0.09823109638014839 -0.9951636306175753 0
outer loop
vertex 0.9756000000000001 -4.9038 -6.9999
vertex 0.9756000000000001 -4.9038 9.9999
vertex 0 -5.000100000000001 9.9999
endloop
endfacet
facet normal 0.09823109638014839 -0.9951636306175753 0
outer loop
vertex 0.9756000000000001 -4.9038 -6.9999
vertex 0 -5.000100000000001 9.9999
vertex 0 -5.000100000000001 -6.9999
endloop
endfacet
facet normal 0.29021130376558235 -0.9569625902649909 0
outer loop
vertex 1.9134000000000002 -4.619400000000001 -6.9999
vertex 1.9134000000000002 -4.619400000000001 9.9999
vertex 0.9756000000000001 -4.9038 9.9999
endloop
endfacet
facet normal 0.29021130376558235 -0.9569625902649909 0
outer loop
vertex 1.9134000000000002 -4.619400000000001 -6.9999
vertex 0.9756000000000001 -4.9038 9.9999
vertex 0.9756000000000001 -4.9038 -6.9999
endloop
endfacet
facet normal 0.47128698087265 -0.8819799213473868 0
outer loop
vertex 2.7780000000000005 -4.1574 -6.9999
vertex 2.7780000000000005 -4.1574 9.9999
vertex 1.9134000000000002 -4.619400000000001 9.9999
endloop
endfacet
facet normal 0.47128698087265 -0.8819799213473868 0
outer loop
vertex 2.7780000000000005 -4.1574 -6.9999
vertex 1.9134000000000002 -4.619400000000001 9.9999
vertex 1.9134000000000002 -4.619400000000001 -6.9999
endloop
endfacet
facet normal 0.6345370471828693 -0.7728924477263606 0
outer loop
vertex 3.5355000000000003 -3.5355000000000003 -6.9999
vertex 3.5355000000000003 -3.5355000000000003 9.9999
vertex 2.7780000000000005 -4.1574 9.9999
endloop
endfacet
facet normal 0.6345370471828693 -0.7728924477263606 0
outer loop
vertex 3.5355000000000003 -3.5355000000000003 -6.9999
vertex 2.7780000000000005 -4.1574 9.9999
vertex 2.7780000000000005 -4.1574 -6.9999
endloop
endfacet
facet normal 0.7728924477263606 -0.6345370471828693 0
outer loop
vertex 4.1574 -2.7780000000000005 -6.9999
vertex 4.1574 -2.7780000000000005 9.9999
vertex 3.5355000000000003 -3.5355000000000003 9.9999
endloop
endfacet
facet normal 0.7728924477263606 -0.6345370471828693 0
outer loop
vertex 4.1574 -2.7780000000000005 -6.9999
vertex 3.5355000000000003 -3.5355000000000003 9.9999
vertex 3.5355000000000003 -3.5355000000000003 -6.9999
endloop
endfacet
facet normal 0.8819799213473868 -0.47128698087265 0
outer loop
vertex 4.619400000000001 -1.9134000000000002 -6.9999
vertex 4.619400000000001 -1.9134000000000002 9.9999
vertex 4.1574 -2.7780000000000005 9.9999
endloop
endfacet
facet normal 0.8819799213473868 -0.47128698087265 0
outer loop
vertex 4.619400000000001 -1.9134000000000002 -6.9999
vertex 4.1574 -2.7780000000000005 9.9999
vertex 4.1574 -2.7780000000000005 -6.9999
endloop
endfacet
facet normal 0.9569625902649909 -0.29021130376558235 0
outer loop
vertex 4.9038 -0.9756000000000001 -6.9999
vertex 4.9038 -0.9756000000000001 9.9999
vertex 4.619400000000001 -1.9134000000000002 9.9999
endloop
endfacet
facet normal 0.9569625902649909 -0.29021130376558235 0
outer loop
vertex 4.9038 -0.9756000000000001 -6.9999
vertex 4.619400000000001 -1.9134000000000002 9.9999
vertex 4.619400000000001 -1.9134000000000002 -6.9999
endloop
endfacet
facet normal 0.9951636306175753 -0.09823109638014839 0
outer loop
vertex 5.000100000000001 0 -6.9999
vertex 5.000100000000001 0 9.9999
vertex 4.9038 -0.9756000000000001 9.9999
endloop
endfacet
facet normal 0.9951636306175753 -0.09823109638014839 0
outer loop
vertex 5.000100000000001 0 -6.9999
vertex 4.9038 -0.9756000000000001 9.9999
vertex 4.9038 -0.9756000000000001 -6.9999
endloop
endfacet
facet normal -1 0 0
outer loop
vertex -9.9999 2.8572 -7.285500000000001
vertex -9.9999 -9.9999 -9.9999
vertex -9.9999 -9.9999 -6.9999
endloop
endfacet
facet normal -1 0 0
outer loop
vertex -9.9999 2.8572 -7.285500000000001
vertex -9.9999 -9.9999 -6.9999
vertex -9.9999 -5.000100000000001 -6.9999
endloop
endfacet
facet normal -1 0 0
outer loop
vertex -9.9999 2.8572 -7.285500000000001
vertex -9.9999 -5.000100000000001 -6.9999
vertex -9.9999 -4.9038 -6.9999
endloop
endfacet
facet normal -0.9999999999999999 0 0
outer loop
vertex -9.9999 2.8572 -7.285500000000001
vertex -9.9999 -4.9038 -6.9999
vertex -9.9999 -4.619400000000001 -6.9999
endloop
endfacet
facet normal -1 0 0
outer loop
vertex -9.9999 2.8572 -7.285500000000001
vertex -9.9999 -4.619400000000001 -6.9999
vertex -9.9999 -4.1574 -6.9999
endloop
endfacet
facet normal -1 0 0
outer loop
vertex -9.9999 2.8572 -7.285500000000001
vertex -9.9999 -4.1574 -6.9999
vertex -9.9999 -3.5355000000000003 -6.9999
endloop
endfacet
facet normal -1 0 0
outer loop
vertex -9.9999 2.8572 -7.285500000000001
vertex -9.9999 -3.5355000000000003 -6.9999
vertex -9.9999 -2.7780000000000005 -6.9999
endloop
endfacet
facet normal -1 0 0
outer loop
vertex -9.9999 2.8572 -7.285500000000001
vertex -9.9999 -2.7780000000000005 -6.9999
vertex -9.9999 -1.9134000000000002 -6.9999
endloop
endfacet
facet normal -1 0 0
outer loop
vertex -9.9999 2.8572 -7.285500000000001
vertex -9.9999 -1.9134000000000002 -6.9999
vertex -9.9999 -0.9756000000000001 -6.9999
endloop
endfacet
facet normal -1 0 0
outer loop
vertex -9.9999 2.8572 -7.285500000000001
vertex -9.9999 -0.9756000000000001 -6.9999
vertex -9.9999 0 -6.9999
endloop
endfacet
facet normal -1 0 0
outer loop
vertex -9.9999 2.8572 -7.285500000000001
vertex -9.9999 0 -6.9999
vertex -9.9999 0.9756000000000001 -6.9999
endloop
endfacet
facet normal -1 0 0
outer loop
vertex -9.9999 2.8572 -7.285500000000001
vertex -9.9999 0.9756000000000001 -6.9999
vertex -9.9999 1.9134000000000002 -6.9999
endloop
endfacet
facet normal -1 0 0
outer loop
vertex -9.9999 2.8572 -7.285500000000001
vertex -9.9999 1.9134000000000002 -6.9999
vertex -9.9999 2.7780000000000005 -6.9999
endloop
endfacet
facet normal -1 0 0
outer loop
vertex -9.9999 2.8572 -7.285500000000001
vertex -9.9999 2.7780000000000005 -6.9999
vertex -9.9999 3.5355000000000003 -6.9999
endloop
endfacet
facet normal -1 0 0
outer loop
vertex -9.9999 2.8572 -7.285500000000001
vertex -9.9999 3.5355000000000003 -6.9999
vertex -9.9999 4.1574 -6.9999
endloop
endfacet
facet normal -1 0 0
outer loop
vertex -9.9999 2.8572 -7.285500000000001
vertex -9.9999 4.1574 -6.9999
vertex -9.9999 4.619400000000001 -6.9999
endloop
endfacet
facet normal -1 0 0
outer loop
vertex -9.9999 2.8572 -7.285500000000001
vertex -9.9999 4.619400000000001 -6.9999
vertex -9.9999 4.9038 -6.9999
endloop
endfacet
facet normal -0.9999999999999999 0 0
outer loop
vertex -9.9999 2.8572 -7.285500000000001
vertex -9.9999 4.9038 -6.9999
vertex -9.9999 5.000100000000001 -6.9999
endloop
endfacet
facet normal -1 0 0
outer loop
vertex -9.9999 2.8572 -7.285500000000001
vertex -9.9999 5.000100000000001 -6.9999
vertex -9.9999 39.999900000000004 -6.9999
endloop
endfacet
facet normal -1 0 0
outer loop
vertex -9.9999 2.8572 -7.285500000000001
vertex -9.9999 39.999900000000004 -6.9999
vertex -9.9999 39.999900000000004 -9.9999
endloop
endfacet
facet normal -1 0 0
outer loop
vertex -9.9999 2.8572 -7.285500000000001
vertex -9.9999 39.999900000000004 -9.9999
vertex -9.9999 -9.9999 -9.9999
endloop
endfacet
facet normal 1 0 0
outer loop
vertex 9.9999 2.8572 -7.285500000000001
vertex 9.9999 -9.9999 -9.9999
vertex 9.9999 39.999900000000004 -9.9999
endloop
endfacet
facet normal 1 0 0
outer loop
vertex 9.9999 2.8572 -7.285500000000001
vertex 9.9999 39.999900000000004 -9.9999
vertex 9.9999 39.999900000000004 -6.9999
endloop
endfacet
facet normal 1 0 0
outer loop
vertex 9.9999 2.8572 -7.285500000000001
vertex 9.9999 39.999900000000004 -6.9999
vertex 9.9999 5.000100000000001 -6.9999
endloop
endfacet
facet normal 0.9999999999999999 0 0
outer loop
vertex 9.9999 2.8572 -7.285500000000001
vertex 9.9999 5.000100000000001 -6.9999
vertex 9.9999 4.9038 -6.9999
endloop
endfacet
facet normal 1 0 0
outer loop
vertex 9.9999 2.8572 -7.285500000000001
vertex 9.9999 4.9038 -6.9999
vertex 9.9999 4.619400000000001 -6.9999
endloop
endfacet
facet normal 1 0 0
outer loop
vertex 9.9999 2.8572 -7.285500000000001
vertex 9.9999 4.619400000000001 -6.9999
vertex 9.9999 4.1574 -6.9999
endloop
endfacet
facet normal 1 0 0
outer loop
vertex 9.9999 2.8572 -7.285500000000001
vertex 9.9999 4.1574 -6.9999
vertex 9.9999 3.5355000000000003 -6.9999
endloop
endfacet
facet normal 1 0 0
outer loop
vertex 9.9999 2.8572 -7.285500000000001
vertex 9.9999 3.5355000000000003 -6.9999
vertex 9.9999 2.7780000000000005 -6.9999
endloop
endfacet
facet normal 1 0 0
outer loop
vertex 9.9999 2.8572 -7.285500000000001
vertex 9.9999 2.7780000000000005 -6.9999
vertex 9.9999 1.9134000000000002 -6.9999
endloop
endfacet
facet normal 1 0 0
outer loop
vertex 9.9999 2.8572 -7.285500000000001
vertex 9.9999 1.9134000000000002 -6.9999
vertex 9.9999 0.9756000000000001 -6.9999
endloop
endfacet
facet normal 1 0 0
outer loop
vertex 9.9999 2.8572 -7.285500000000001
vertex 9.9999 0.9756000000000001 -6.9999
vertex 9.9999 0 -6.9999
endloop
endfacet
facet normal 1 0 0
outer loop
vertex 9.9999 2.8572 -7.285500000000001
vertex 9.9999 0 -6.9999
vertex 9.9999 -0.9756000000000001 -6.9999
endloop
endfacet
facet normal 1 0 0
outer loop
vertex 9.9999 2.8572 -7.285500000000001
vertex 9.9999 -0.9756000000000001 -6.9999
vertex 9.9999 -1.9134000000000002 -6.9999
endloop
endfacet
facet normal 1 0 0
outer loop
vertex 9.9999 2.8572 -7.285500000000001
vertex 9.9999 -1.9134000000000002 -6.9999
vertex 9.9999 -2.7780000000000005 -6.9999
endloop
endfacet
facet normal 1 0 0
outer loop
vertex 9.9999 2.8572 -7.285500000000001
vertex 9.9999 -2.7780000000000005 -6.9999
vertex 9.9999 -3.5355000000000003 -6.9999
endloop
endfacet
facet normal 1 0 0
outer loop
vertex 9.9999 2.8572 -7.285500000000001
vertex 9.9999 -3.5355000000000003 -6.9999
vertex 9.9999 -4.1574 -6.9999
endloop
endfacet
facet normal 1 0 0
outer loop
vertex 9.9999 2.8572 -7.285500000000001
vertex 9.9999 -4.1574 -6.9999
vertex 9.9999 -4.619400000000001 -6.9999
endloop
endfacet
facet normal 0.9999999999999999 0 0
outer loop
vertex 9.9999 2.8572 -7.285500000000001
vertex 9.9999 -4.619400000000001 -6.9999
vertex 9.9999 -4.9038 -6.9999
endloop
endfacet
facet normal 1 0 0
outer loop
vertex 9.9999 2.8572 -7.285500000000001
vertex 9.9999 -4.9038 -6.9999
vertex 9.9999 -5.000100000000001 -6.9999
endloop
endfacet
facet normal 1 0 0
outer loop
vertex 9.9999 2.8572 -7.285500000000001
vertex 9.9999 -5.000100000000001 -6.9999
vertex 9.9999 -9.9999 -6.9999
endloop
endfacet
facet normal 1 0 0
outer loop
vertex 9.9999 2.8572 -7.285500000000001
vertex 9.9999 -9.9999 -6.9999
vertex 9.9999 -9.9999 -9.9999
endloop
endfacet
facet normal 0 -1 0
outer loop
vertex -9.9999 -9.9999 -9.9999
vertex 9.9999 -9.9999 -9.9999
vertex 9.9999 -9.9999 -6.9999
endloop
endfacet
facet normal 0 -1 0
outer loop
vertex -9.9999 -9.9999 -9.9999
vertex 9.9999 -9.9999 -6.9999
vertex -9.9999 -9.9999 -6.9999
endloop
endfacet
facet normal 0 1 0
outer loop
vertex -9.9999 39.999900000000004 -9.9999
vertex -9.9999 39.999900000000004 -6.9999
vertex 9.9999 39.999900000000004 -6.9999
endloop
endfacet
facet normal 0 1 0
outer loop
vertex -9.9999 39.999900000000004 -9.9999
vertex 9.9999 39.999900000000004 -6.9999
vertex 9.9999 39.999900000000004 -9.9999
endloop
endfacet
facet normal 0 0 1
outer loop
vertex 0 18.9999 -6.9999
vertex -9.9999 39.999900000000004 -6.9999
vertex -9.9999 5.000100000000001 -6.9999
endloop
endfacet
facet normal 0 0 1
outer loop
vertex 0 18.9999 -6.9999
vertex -9.9999 5.000100000000001 -6.9999
vertex 0 5.000100000000001 -6.9999
endloop
endfacet
facet normal 0 0 1
outer loop
vertex 0 18.9999 -6.9999
vertex 0 5.000100000000001 -6.9999
vertex 9.9999 5.000100000000001 -6.9999
endloop
endfacet
facet normal 0 0 1
outer loop
vertex 0 18.9999 -6.9999
vertex 9.9999 5.000100000000001 -6.9999
vertex 9.9999 39.999900000000004 -6.9999
endloop
endfacet
facet normal 0 0 1
outer loop
vertex 0 18.9999 -6.9999
vertex 9.9999 39.999900000000004 -6.9999
vertex -9.9999 39.999900000000004 -6.9999
endloop
endfacet
facet normal 0 0 1
outer loop
vertex 0 5.000100000000001 -6.9999
vertex 0.9756000000000001 4.9038 -6.9999
vertex 9.9999 4.9038 -6.9999
endloop
endfacet
facet normal 0 0 1
outer loop
vertex 0 5.000100000000001 -6.9999
vertex 9.9999 4.9038 -6.9999
vertex 9.9999 5.000100000000001 -6.9999
endloop
endfacet
facet normal 0 0 1
outer loop
vertex -9.9999 5.000100000000001 -6.9999
vertex -9.9999 4.9038 -6.9999
vertex -0.9756000000000001 4.9038 -6.9999
endloop
endfacet
facet normal 0 0 1
outer loop
vertex -9.9999 5.000100000000001 -6.9999
vertex -0.9756000000000001 4.9038 -6.9999
vertex 0 5.000100000000001 -6.9999
endloop
endfacet
facet normal 0 0 0.9999999999999999
outer loop
vertex 0.9756000000000001 4.9038 -6.9999
vertex 1.9134000000000002 4.619400000000001 -6.9999
vertex 9.9999 4.619400000000001 -6.9999
endloop
endfacet
facet normal 0 0 1
outer loop
vertex 0.9756000000000001 4.9038 -6.9999
vertex 9.9999 4.619400000000001 -6.9999
vertex 9.9999 4.9038 -6.9999
endloop
endfacet
facet normal 0 0 0.9999999999999999
outer loop
vertex -9.9999 4.9038 -6.9999
vertex -9.9999 4.619400000000001 -6.9999
vertex -1.9134000000000002 4.619400000000001 -6.9999
endloop
endfacet
facet normal 0 0 1
outer loop
vertex -9.9999 4.9038 -6.9999
vertex -1.9134000000000002 4.619400000000001 -6.9999
vertex -0.9756000000000001 4.9038 -6.9999
endloop
endfacet
facet normal 0 0 0.9999999999999999
outer loop
vertex 1.9134000000000002 4.619400000000001 -6.9999
vertex 2.7780000000000005 4.1574 -6.9999
vertex 9.9999 4.1574 -6.9999
endloop
endfacet
facet normal 0 0 1
outer loop
vertex 1.9134000000000002 4.619400000000001 -6.9999
vertex 9.9999 4.1574 -6.9999
vertex 9.9999 4.619400000000001 -6.9999
endloop
endfacet
facet normal 0 0 1
outer loop
vertex -9.9999 4.619400000000001 -6.9999
vertex -9.9999 4.1574 -6.9999
vertex -2.7780000000000005 4.1574 -6.9999
endloop
endfacet
facet normal 0 0 1
outer loop
vertex -9.9999 4.619400000000001 -6.9999
vertex -2.7780000000000005 4.1574 -6.9999
vertex -1.9134000000000002 4.619400000000001 -6.9999
endloop
endfacet
facet normal 0 0 1
outer loop
vertex 2.7780000000000005 4.1574 -6.9999
vertex 3.5355000000000003 3.5355000000000003 -6.9999
vertex 9.9999 3.5355000000000003 -6.9999
endloop
endfacet
facet normal 0 0 1
outer loop
vertex 2.7780000000000005 4.1574 -6.9999
vertex 9.9999 3.5355000000000003 -6.9999
vertex 9.9999 4.1574 -6.9999
endloop
endfacet
facet normal 0 0 1
outer loop
vertex -9.9999 4.1574 -6.9999
vertex -9.9999 3.5355000000000003 -6.9999
vertex -3.5355000000000003 3.5355000000000003 -6.9999
endloop
endfacet
facet normal 0 0 1
outer loop
vertex -9.9999 4.1574 -6.9999
vertex -3.5355000000000003 3.5355000000000003 -6.9999
vertex -2.7780000000000005 4.1574 -6.9999
endloop
endfacet
facet normal 0 0 1
outer loop
vertex 3.5355000000000003 3.5355000000000003 -6.9999
vertex 4.1574 2.7780000000000005 -6.9999
vertex 9.9999 2.7780000000000005 -6.9999
endloop
endfacet
facet normal 0 0 1
outer loop
vertex 3.5355000000000003 3.5355000000000003 -6.9999
vertex 9.9999 2.7780000000000005 -6.9999
vertex 9.9999 3.5355000000000003 -6.9999
endloop
endfacet
facet normal 0 0 1
outer loop
vertex -9.9999 3.5355000000000003 -6.9999
vertex -9.9999 2.7780000000000005 -6.9999
vertex -4.1574 2.7780000000000005 -6.9999
endloop
endfacet
facet normal 0 0 1
outer loop
vertex -9.9999 3.5355000000000003 -6.9999
vertex -4.1574 2.7780000000000005 -6.9999
vertex -3.5355000000000003 3.5355000000000003 -6.9999
endloop
endfacet
facet normal 0 0 1
outer loop
vertex 4.1574 2.7780000000000005 -6.9999
vertex 4.619400000000001 1.9134000000000002 -6.9999
vertex 9.9999 1.9134000000000002 -6.9999
endloop
endfacet
facet normal 0 0 1
outer loop
vertex 4.1574 2.7780000000000005 -6.9999
vertex 9.9999 1.9134000000000002 -6.9999
vertex 9.9999 2.7780000000000005 -6.9999
endloop
endfacet
facet normal 0 0 1
outer loop
vertex -9.9999 2.7780000000000005 -6.9999
vertex -9.9999 1.9134000000000002 -6.9999
vertex -4.619400000000001 1.9134000000000002 -6.9999
endloop
endfacet
facet normal 0 0 1
outer loop
vertex -9.9999 2.7780000000000005 -6.9999
vertex -4.619400000000001 1.9134000000000002 -6.9999
vertex -4.1574 2.7780000000000005 -6.9999
endloop
endfacet
facet normal 0 0 1
outer loop
vertex 4.619400000000001 1.9134000000000002 -6.9999
vertex 4.9038 0.9756000000000001 -6.9999
vertex 9.9999 0.9756000000000001 -6.9999
endloop
endfacet
facet normal 0 0 1
outer loop
vertex 4.619400000000001 1.9134000000000002 -6.9999
vertex 9.9999 0.9756000000000001 -6.9999
vertex 9.9999 1.9134000000000002 -6.9999
endloop
endfacet
facet normal 0 0 1
outer loop
vertex -9.9999 1.9134000000000002 -6.9999
vertex -9.9999 0.9756000000000001 -6.9999
vertex -4.9038 0.9756000000000001 -6.9999
endloop
endfacet
facet normal 0 0 1
outer loop
vertex -9.9999 1.9134000000000002 -6.9999
vertex -4.9038 0.9756000000000001 -6.9999
vertex -4.619400000000001 1.9134000000000002 -6.9999
endloop
endfacet
facet normal 0 0 0.9999999999999999
outer loop
vertex 4.9038 0.9756000000000001 -6.9999
vertex 5.000100000000001 0 -6.9999
vertex 9.9999 0 -6.9999
endloop
endfacet
facet normal 0 0 1
outer loop
vertex 4.9038 0.9756000000000001 -6.9999
vertex 9.9999 0 -6.9999
vertex 9.9999 0.9756000000000001 -6.9999
endloop
endfacet
facet normal 0 0 0.9999999999999999
outer loop
vertex -9.9999 0.9756000000000001 -6.9999
vertex -9.9999 0 -6.9999
vertex -5.000100000000001 0 -6.9999
endloop
endfacet
facet normal 0 0 1
outer loop
vertex -9.9999 0.9756000000000001 -6.9999
vertex -5.000100000000001 0 -6.9999
vertex -4.9038 0.9756000000000001 -6.9999
endloop
endfacet
facet normal 0 0 1
outer loop
vertex 5.000100000000001 0 -6.9999
vertex 4.9038 -0.9756000000000001 -6.9999
vertex 9.9999 -0.9756000000000001 -6.9999
endloop
endfacet
facet normal 0 0 0.9999999999999999
outer loop
vertex 5.000100000000001 0 -6.9999
vertex 9.9999 -0.9756000000000001 -6.9999
vertex 9.9999 0 -6.9999
endloop
endfacet
facet normal 0 0 1
outer loop
vertex -9.9999 0 -6.9999
vertex -9.9999 -0.9756000000000001 -6.9999
vertex -4.9038 -0.9756000000000001 -6.9999
endloop
endfacet
facet normal 0 0 0.9999999999999999
outer loop
vertex -9.9999 0 -6.9999
vertex -4.9038 -0.9756000000000001 -6.9999
vertex -5.000100000000001 0 -6.9999
endloop
endfacet
facet normal 0 0 1
outer loop
vertex 4.9038 -0.9756000000000001 -6.9999
vertex 4.619400000000001 -1.9134000000000002 -6.9999
vertex 9.9999 -1.9134000000000002 -6.9999
endloop
endfacet
facet normal 0 0 1
outer loop
vertex 4.9038 -0.9756000000000001 -6.9999
vertex 9.9999 -1.9134000000000002 -6.9999
vertex 9.9999 -0.9756000000000001 -6.9999
endloop
endfacet
facet normal 0 0 1
outer loop
vertex -9.9999 -0.9756000000000001 -6.9999
vertex -9.9999 -1.9134000000000002 -6.9999
vertex -4.619400000000001 -1.9134000000000002 -6.9999
endloop
endfacet
facet normal 0 0 1
outer loop
vertex -9.9999 -0.9756000000000001 -6.9999
vertex -4.619400000000001 -1.9134000000000002 -6.9999
vertex -4.9038 -0.9756000000000001 -6.9999
endloop
endfacet
facet normal 0 0 1
outer loop
vertex 4.619400000000001 -1.9134000000000002 -6.9999
vertex 4.1574 -2.7780000000000005 -6.9999
vertex 9.9999 -2.7780000000000005 -6.9999
endloop
endfacet
facet normal 0 0 1
outer loop
vertex 4.619400000000001 -1.9134000000000002 -6.9999
vertex 9.9999 -2.7780000000000005 -6.9999
vertex 9.9999 -1.9134000000000002 -6.9999
endloop
endfacet
facet normal 0 0 1
outer loop
vertex -9.9999 -1.9134000000000002 -6.9999
vertex -9.9999 -2.7780000000000005 -6.9999
vertex -4.1574 -2.7780000000000005 -6.9999
endloop
endfacet
facet normal 0 0 1
outer loop
vertex -9.9999 -1.9134000000000002 -6.9999
vertex -4.1574 -2.7780000000000005 -6.9999
vertex -4.619400000000001 -1.9134000000000002 -6.9999
endloop
endfacet
facet normal 0 0 1
outer loop
vertex 4.1574 -2.7780000000000005 -6.9999
vertex 3.5355000000000003 -3.5355000000000003 -6.9999
vertex 9.9999 -3.5355000000000003 -6.9999
endloop
endfacet
facet normal 0 0 1
outer loop
vertex 4.1574 -2.7780000000000005 -6.9999
vertex 9.9999 -3.5355000000000003 -6.9999
vertex 9.9999 -2.7780000000000005 -6.9999
endloop
endfacet
facet normal 0 0 1
outer loop
vertex -9.9999 -2.7780000000000005 -6.9999
vertex -9.9999 -3.5355000000000003 -6.9999
vertex -3.5355000000000003 -3.5355000000000003 -6.9999
endloop
endfacet
facet normal 0 0 1
outer loop
vertex -9.9999 -2.7780000000000005 -6.9999
vertex -3.5355000000000003 -3.5355000000000003 -6.9999
vertex -4.1574 -2.7780000000000005 -6.9999
endloop
endfacet
facet normal 0 0 1
outer loop
vertex 3.5355000000000003 -3.5355000000000003 -6.9999
vertex 2.7780000000000005 -4.1574 -6.9999
vertex 9.9999 -4.1574 -6.9999
endloop
endfacet
facet normal 0 0 1
outer loop
vertex 3.5355000000000003 -3.5355000000000003 -6.9999
vertex 9.9999 -4.1574 -6.9999
vertex 9.9999 -3.5355000000000003 -6.9999
endloop
endfacet
facet normal 0 0 1
outer loop
vertex -9.9999 -3.5355000000000003 -6.9999
vertex -9.9999 -4.1574 -6.9999
vertex -2.7780000000000005 -4.1574 -6.9999
endloop
endfacet
facet normal 0 0 1
outer loop
vertex -9.9999 -3.5355000000000003 -6.9999
vertex -2.7780000000000005 -4.1574 -6.9999
vertex -3.5355000000000003 -3.5355000000000003 -6.9999
endloop
endfacet
facet normal 0 0 1
outer loop
vertex 2.7780000000000005 -4.1574 -6.9999
vertex 1.9134000000000002 -4.619400000000001 -6.9999
vertex 9.9999 -4.619400000000001 -6.9999
endloop
endfacet
facet normal 0 0 1
outer loop
vertex 2.7780000000000005 -4.1574 -6.9999
vertex 9.9999 -4.619400000000001 -6.9999
vertex 9.9999 -4.1574 -6.9999
endloop
endfacet
facet normal 0 0 1
outer loop
vertex -9.9999 -4.1574 -6.9999
vertex -9.9999 -4.619400000000001 -6.9999
vertex -1.9134000000000002 -4.619400000000001 -6.9999
endloop
endfacet
facet normal 0 0 1
outer loop
vertex -9.9999 -4.1574 -6.9999
vertex -1.9134000000000002 -4.619400000000001 -6.9999
vertex -2.7780000000000005 -4.1574 -6.9999
endloop
endfacet
facet normal 0 0 1
outer loop
vertex 1.9134000000000002 -4.619400000000001 -6.9999
vertex 0.9756000000000001 -4.9038 -6.9999
vertex 9.9999 -4.9038 -6.9999
endloop
endfacet
facet normal 0 0 0.9999999999999999
outer loop
vertex 1.9134000000000002 -4.619400000000001 -6.9999
vertex 9.9999 -4.9038 -6.9999
vertex 9.9999 -4.619400000000001 -6.9999
endloop
endfacet
facet normal 0 0 1
outer loop
vertex -9.9999 -4.619400000000001 -6.9999
vertex -9.9999 -4.9038 -6.9999
vertex -0.9756000000000001 -4.9038 -6.9999
endloop
endfacet
facet normal 0 0 0.9999999999999999
outer loop
vertex -9.9999 -4.619400000000001 -6.9999
vertex -0.9756000000000001 -4.9038 -6.9999
vertex -1.9134000000000002 -4.619400000000001 -6.9999
endloop
endfacet
facet normal 0 0 1
outer loop
vertex 0.9756000000000001 -4.9038 -6.9999
vertex 0 -5.000100000000001 -6.9999
vertex 9.9999 -5.000100000000001 -6.9999
endloop
endfacet
facet normal 0 0 1
outer loop
vertex 0.9756000000000001 -4.9038 -6.9999
vertex 9.9999 -5.000100000000001 -6.9999
vertex 9.9999 -4.9038 -6.9999
endloop
endfacet
facet normal 0 0 1
outer loop
vertex -9.9999 -4.9038 -6.9999
vertex -9.9999 -5.000100000000001 -6.9999
vertex 0 -5.000100000000001 -6.9999
endloop
endfacet
facet normal 0 0 1
outer loop
vertex -9.9999 -4.9038 -6.9999
vertex 0 -5.000100000000001 -6.9999
vertex -0.9756000000000001 -4.9038 -6.9999
endloop
endfacet
facet normal 0 0 1
outer loop
vertex 0 -6.9999 -6.9999
vertex 0 -5.000100000000001 -6.9999
vertex -9.9999 -5.000100000000001 -6.9999
endloop
endfacet
facet normal 0 0 1
outer loop
vertex 0 -6.9999 -6.9999
vertex -9.9999 -5.000100000000001 -6.9999
vertex -9.9999 -9.9999 -6.9999
endloop
endfacet
facet normal 0 0 1
outer loop
vertex 0 -6.9999 -6.9999
vertex -9.9999 -9.9999 -6.9999
vertex 9.9999 -9.9999 -6.9999
endloop
endfacet
facet normal 0 0 1
outer loop
vertex 0 -6.9999 -6.9999
vertex 9.9999 -9.9999 -6.9999
vertex 9.9999 -5.000100000000001 -6.9999
endloop
endfacet
facet normal 0 0 1
outer loop
vertex 0 -6.9999 -6.9999
vertex 9.9999 -5.000100000000001 -6.9999
vertex 0 -5.000100000000001 -6.9999
endloop
endfacet
facet normal 0 0 1
outer loop
vertex 0 0 5.4999
vertex 0 2.25 5.4999
vertex -0.43890000000000007 2.2068000000000003 5.4999
endloop
endfacet
facet normal 0 0 0.9999999999999999
outer loop
vertex 0 0 5.4999
vertex -0.43890000000000007 2.2068000000000003 5.4999
vertex -0.8610000000000001 2.0787 5.4999
endloop
endfacet
facet normal 0 0 1
outer loop
vertex 0 0 5.4999
vertex -0.8610000000000001 2.0787 5.4999
vertex -1.2501000000000002 1.8708000000000002 5.4999
endloop
endfacet
facet normal 0 0 1
outer loop
vertex 0 0 5.4999
vertex -1.2501000000000002 1.8708000000000002 5.4999
vertex -1.5909000000000002 1.5909000000000002 5.4999
endloop
endfacet
facet normal 0 0 1
outer loop
vertex 0 0 5.4999
vertex -1.5909000000000002 1.5909000000000002 5.4999
vertex -1.8708000000000002 1.2501000000000002 5.4999
endloop
endfacet
facet normal 0 0 1
outer loop
vertex 0 0 5.4999
vertex -1.8708000000000002 1.2501000000000002 5.4999
vertex -2.0787 0.8610000000000001 5.4999
endloop
endfacet
facet normal 0 0 0.9999999999999999
outer loop
vertex 0 0 5.4999
vertex -2.0787 0.8610000000000001 5.4999
vertex -2.2068000000000003 0.43890000000000007 5.4999
endloop
endfacet
facet normal 0 0 1
outer loop
vertex 0 0 5.4999
vertex -2.2068000000000003 0.43890000000000007 5.4999
vertex -2.25 0 5.4999
endloop
endfacet
facet normal 0 0 1
outer loop
vertex 0 0 5.4999
vertex -2.25 0 5.4999
vertex -2.2068000000000003 -0.43890000000000007 5.4999
endloop
endfacet
facet normal 0 0 0.9999999999999999
outer loop
vertex 0 0 5.4999
vertex -2.2068000000000003 -0.43890000000000007 5.4999
vertex -2.0787 -0.8610000000000001 5.4999
endloop
endfacet
facet normal 0 0 1
outer loop
vertex 0 0 5.4999
vertex -2.0787 -0.8610000000000001 5.4999
vertex -1.8708000000000002 -1.2501000000000002 5.4999
endloop
endfacet
facet normal 0 0 1
outer loop
vertex 0 0 5.4999
vertex -1.8708000000000002 -1.2501000000000002 5.4999
vertex -1.5909000000000002 -1.5909000000000002 5.4999
endloop
endfacet
facet normal 0 0 1
outer loop
vertex 0 0 5.4999
vertex -1.5909000000000002 -1.5909000000000002 5.4999
vertex -1.2501000000000002 -1.8708000000000002 5.4999
endloop
endfacet
facet normal 0 0 1
outer loop
vertex 0 0 5.4999
vertex -1.2501000000000002 -1.8708000000000002 5.4999
vertex -0.8610000000000001 -2.0787 5.4999
endloop
endfacet
facet normal 0 0 0.9999999999999999
outer loop
vertex 0 0 5.4999
vertex -0.8610000000000001 -2.0787 5.4999
vertex -0.43890000000000007 -2.2068000000000003 5.4999
endloop
endfacet
facet normal 0 0 1
outer loop
vertex 0 0 5.4999
vertex -0.43890000000000007 -2.2068000000000003 5.4999
vertex 0 -2.25 5.4999
endloop
endfacet
facet normal 0 0 1
outer loop
vertex 0 0 5.4999
vertex 0 -2.25 5.4999
vertex 0.43890000000000007 -2.2068000000000003 5.4999
endloop
endfacet
facet normal 0 0 0.9999999999999999
outer loop
vertex 0 0 5.4999
vertex 0.43890000000000007 -2.2068000000000003 5.4999
vertex 0.8610000000000001 -2.0787 5.4999
endloop
endfacet
facet normal 0 0 1
outer loop
vertex 0 0 5.4999
vertex 0.8610000000000001 -2.0787 5.4999
vertex 1.2501000000000002 -1.8708000000000002 5.4999
endloop
endfacet
facet normal 0 0 1
outer loop
vertex 0 0 5.4999
vertex 1.2501000000000002 -1.8708000000000002 5.4999
vertex 1.5909000000000002 -1.5909000000000002 5.4999
endloop
endfacet
facet normal 0 0 1
outer loop
vertex 0 0 5.4999
vertex 1.5909000000000002 -1.5909000000000002 5.4999
vertex 1.8708000000000002 -1.2501000000000002 5.4999
endloop
endfacet
facet normal 0 0 1
outer loop
vertex 0 0 5.4999
vertex 1.8708000000000002 -1.2501000000000002 5.4999
vertex 2.0787 -0.8610000000000001 5.4999
endloop
endfacet
facet normal 0 0 0.9999999999999999
outer loop
vertex 0 0 5.4999
vertex 2.0787 -0.8610000000000001 5.4999
vertex 2.2068000000000003 -0.43890000000000007 5.4999
endloop
endfacet
facet normal 0 0 1
outer loop
vertex 0 0 5.4999
vertex 2.2068000000000003 -0.43890000000000007 5.4999
vertex 2.25 0 5.4999
endloop
endfacet
facet normal 0 0 1
outer loop
vertex 0 0 5.4999
vertex 2.25 0 5.4999
vertex 2.2068000000000003 0.43890000000000007 5.4999
endloop
endfacet
facet normal 0 0 0.9999999999999999
outer loop
vertex 0 0 5.4999
vertex 2.2068000000000003 0.43890000000000007 5.4999
vertex 2.0787 0.8610000000000001 5.4999
endloop
endfacet
facet normal 0 0 1
outer loop
vertex 0 0 5.4999
vertex 2.0787 0.8610000000000001 5.4999
vertex 1.8708000000000002 1.2501000000000002 5.4999
endloop
endfacet
facet normal 0 0 1
outer loop
vertex 0 0 5.4999
vertex 1.8708000000000002 1.2501000000000002 5.4999
vertex 1.5909000000000002 1.5909000000000002 5.4999
endloop
endfacet
facet normal 0 0 1
outer loop
vertex 0 0 5.4999
vertex 1.5909000000000002 1.5909000000000002 5.4999
vertex 1.2501000000000002 1.8708000000000002 5.4999
endloop
endfacet
facet normal 0 0 1
outer loop
vertex 0 0 5.4999
vertex 1.2501000000000002 1.8708000000000002 5.4999
vertex 0.8610000000000001 2.0787 5.4999
endloop
endfacet
facet normal 0 0 0.9999999999999999
outer loop
vertex 0 0 5.4999
vertex 0.8610000000000001 2.0787 5.4999
vertex 0.43890000000000007 2.2068000000000003 5.4999
endloop
endfacet
facet normal 0 0 1
outer loop
vertex 0 0 5.4999
vertex 0.43890000000000007 2.2068000000000003 5.4999
vertex 0 2.25 5.4999
endloop
endfacet
facet normal -0.995190890533067 -0.0979545374140537 0
outer loop
vertex 2.25 0 5.4999
vertex 2.25 0 9.500100000000002
vertex 2.2068000000000003 0.43890000000000007 9.500100000000002
endloop
endfacet
facet normal -0.995190890533067 -0.0979545374140537 0
outer loop
vertex 2.25 0 5.4999
vertex 2.2068000000000003 0.43890000000000007 9.500100000000002
vertex 2.2068000000000003 0.43890000000000007 5.4999
endloop
endfacet
facet normal -0.9569042033151002 -0.2904037631951306 0
outer loop
vertex 2.2068000000000003 0.43890000000000007 5.4999
vertex 2.2068000000000003 0.43890000000000007 9.500100000000002
vertex 2.0787 0.8610000000000001 9.500100000000002
endloop
endfacet
facet normal -0.9569042033151002 -0.2904037631951306 0
outer loop
vertex 2.2068000000000003 0.43890000000000007 5.4999
vertex 2.0787 0.8610000000000001 9.500100000000002
vertex 2.0787 0.8610000000000001 5.4999
endloop
endfacet
facet normal -0.8819950250706874 -0.471258714243628 0
outer loop
vertex 2.0787 0.8610000000000001 5.4999
vertex 2.0787 0.8610000000000001 9.500100000000002
vertex 1.8708000000000002 1.2501000000000002 9.500100000000002
endloop
endfacet
facet normal -0.8819950250706874 -0.471258714243628 0
outer loop
vertex 2.0787 0.8610000000000001 5.4999
vertex 1.8708000000000002 1.2501000000000002 9.500100000000002
vertex 1.8708000000000002 1.2501000000000002 5.4999
endloop
endfacet
facet normal -0.772773917086163 -0.6346813949308013 0
outer loop
vertex 1.8708000000000002 1.2501000000000002 5.4999
vertex 1.8708000000000002 1.2501000000000002 9.500100000000002
vertex 1.5909000000000002 1.5909000000000002 9.500100000000002
endloop
endfacet
facet normal -0.772773917086163 -0.6346813949308013 0
outer loop
vertex 1.8708000000000002 1.2501000000000002 5.4999
vertex 1.5909000000000002 1.5909000000000002 9.500100000000002
vertex 1.5909000000000002 1.5909000000000002 5.4999
endloop
endfacet
facet normal -0.6346813949308013 -0.772773917086163 0
outer loop
vertex 1.5909000000000002 1.5909000000000002 5.4999
vertex 1.5909000000000002 1.5909000000000002 9.500100000000002
vertex 1.2501000000000002 1.8708000000000002 9.500100000000002
endloop
endfacet
facet normal -0.6346813949308013 -0.772773917086163 0
outer loop
vertex 1.5909000000000002 1.5909000000000002 5.4999
vertex 1.2501000000000002 1.8708000000000002 9.500100000000002
vertex 1.2501000000000002 1.8708000000000002 5.4999
endloop
endfacet
facet normal -0.471258714243628 -0.8819950250706874 0
outer loop
vertex 1.2501000000000002 1.8708000000000002 5.4999
vertex 1.2501000000000002 1.8708000000000002 9.500100000000002
vertex 0.8610000000000001 2.0787 9.500100000000002
endloop
endfacet
facet normal -0.471258714243628 -0.8819950250706874 0
outer loop
vertex 1.2501000000000002 1.8708000000000002 5.4999
vertex 0.8610000000000001 2.0787 9.500100000000002
vertex 0.8610000000000001 2.0787 5.4999
endloop
endfacet
facet normal -0.2904037631951306 -0.9569042033151002 0
outer loop
vertex 0.8610000000000001 2.0787 5.4999
vertex 0.8610000000000001 2.0787 9.500100000000002
vertex 0.43890000000000007 2.2068000000000003 9.500100000000002
endloop
endfacet
facet normal -0.2904037631951306 -0.9569042033151002 0
outer loop
vertex 0.8610000000000001 2.0787 5.4999
vertex 0.43890000000000007 2.2068000000000003 9.500100000000002
vertex 0.43890000000000007 2.2068000000000003 5.4999
endloop
endfacet
facet normal -0.0979545374140537 -0.995190890533067 0
outer loop
vertex 0.43890000000000007 2.2068000000000003 5.4999
vertex 0.43890000000000007 2.2068000000000003 9.500100000000002
vertex 0 2.25 9.500100000000002
endloop
endfacet
facet normal -0.0979545374140537 -0.995190890533067 0
outer loop
vertex 0.43890000000000007 2.2068000000000003 5.4999
vertex 0 2.25 9.500100000000002
vertex 0 2.25 5.4999
endloop
endfacet
facet normal 0.0979545374140537 -0.995190890533067 0
outer loop
vertex 0 2.25 5.4999
vertex 0 2.25 9.500100000000002
vertex -0.43890000000000007 2.2068000000000003 9.500100000000002
endloop
endfacet
facet normal 0.0979545374140537 -0.995190890533067 0
outer loop
vertex 0 2.25 5.4999
vertex -0.43890000000000007 2.2068000000000003 9.500100000000002
vertex -0.43890000000000007 2.2068000000000003 5.4999
endloop
endfacet
facet normal 0.2904037631951306 -0.9569042033151002 0
outer loop
vertex -0.43890000000000007 2.2068000000000003 5.4999
vertex -0.43890000000000007 2.2068000000000003 9.500100000000002
vertex -0.8610000000000001 2.0787 9.500100000000002
endloop
endfacet
facet normal 0.2904037631951306 -0.9569042033151002 0
outer loop
vertex -0.43890000000000007 2.2068000000000003 5.4999
vertex -0.8610000000000001 2.0787 9.500100000000002
vertex -0.8610000000000001 2.0787 5.4999
endloop
endfacet
facet normal 0.471258714243628 -0.8819950250706874 0
outer loop
vertex -0.8610000000000001 2.0787 5.4999
vertex -0.8610000000000001 2.0787 9.500100000000002
vertex -1.2501000000000002 1.8708000000000002 9.500100000000002
endloop
endfacet
facet normal 0.471258714243628 -0.8819950250706874 0
outer loop
vertex -0.8610000000000001 2.0787 5.4999
vertex -1.2501000000000002 1.8708000000000002 9.500100000000002
vertex -1.2501000000000002 1.8708000000000002 5.4999
endloop
endfacet
facet normal 0.6346813949308013 -0.772773917086163 0
outer loop
vertex -1.2501000000000002 1.8708000000000002 5.4999
vertex -1.2501000000000002 1.8708000000000002 9.500100000000002
vertex -1.5909000000000002 1.5909000000000002 9.500100000000002
endloop
endfacet
facet normal 0.6346813949308013 -0.772773917086163 0
outer loop
vertex -1.2501000000000002 1.8708000000000002 5.4999
vertex -1.5909000000000002 1.5909000000000002 9.500100000000002
vertex -1.5909000000000002 1.5909000000000002 5.4999
endloop
endfacet
facet normal 0.772773917086163 -0.6346813949308013 0
outer loop
vertex -1.5909000000000002 1.5909000000000002 5.4999
vertex -1.5909000000000002 1.5909000000000002 9.500100000000002
vertex -1.8708000000000002 1.2501000000000002 9.500100000000002
endloop
endfacet
facet normal 0.772773917086163 -0.6346813949308013 0
outer loop
vertex -1.5909000000000002 1.5909000000000002 5.4999
vertex -1.8708000000000002 1.2501000000000002 9.500100000000002
vertex -1.8708000000000002 1.2501000000000002 5.4999
endloop
endfacet
facet normal 0.8819950250706874 -0.471258714243628 0
outer loop
vertex -1.8708000000000002 1.2501000000000002 5.4999
vertex -1.8708000000000002 1.2501000000000002 9.500100000000002
vertex -2.0787 0.8610000000000001 9.500100000000002
endloop
endfacet
facet normal 0.8819950250706874 -0.471258714243628 0
outer loop
vertex -1.8708000000000002 1.2501000000000002 5.4999
vertex -2.0787 0.8610000000000001 9.500100000000002
vertex -2.0787 0.8610000000000001 5.4999
endloop
endfacet
facet normal 0.9569042033151002 -0.2904037631951306 0
outer loop
vertex -2.0787 0.8610000000000001 5.4999
vertex -2.0787 0.8610000000000001 9.500100000000002
vertex -2.2068000000000003 0.43890000000000007 9.500100000000002
endloop
endfacet
facet normal 0.9569042033151002 -0.2904037631951306 0
outer loop
vertex -2.0787 0.8610000000000001 5.4999
vertex -2.2068000000000003 0.43890000000000007 9.500100000000002
vertex -2.2068000000000003 0.43890000000000007 5.4999
endloop
endfacet
facet normal 0.995190890533067 -0.0979545374140537 0
outer loop
vertex -2.2068000000000003 0.43890000000000007 5.4999
vertex -2.2068000000000003 0.43890000000000007 9.500100000000002
vertex -2.25 0 9.500100000000002
endloop
endfacet
facet normal 0.995190890533067 -0.0979545374140537 0
outer loop
vertex -2.2068000000000003 0.43890000000000007 5.4999
vertex -2.25 0 9.500100000000002
vertex -2.25 0 5.4999
endloop
endfacet
facet normal 0.995190890533067 0.0979545374140537 0
outer loop
vertex -2.25 0 5.4999
vertex -2.25 0 9.500100000000002
vertex -2.2068000000000003 -0.43890000000000007 9.500100000000002
endloop
endfacet
facet normal 0.995190890533067 0.0979545374140537 0
outer loop
vertex -2.25 0 5.4999
vertex -2.2068000000000003 -0.43890000000000007 9.500100000000002
vertex -2.2068000000000003 -0.43890000000000007 5.4999
endloop
endfacet
facet normal 0.9569042033151002 0.2904037631951306 0
outer loop
vertex -2.2068000000000003 -0.43890000000000007 5.4999
vertex -2.2068000000000003 -0.43890000000000007 9.500100000000002
vertex -2.0787 -0.8610000000000001 9.500100000000002
endloop
endfacet
facet normal 0.9569042033151002 0.2904037631951306 0
outer loop
vertex -2.2068000000000003 -0.43890000000000007 5.4999
vertex -2.0787 -0.8610000000000001 9.500100000000002
vertex -2.0787 -0.8610000000000001 5.4999
endloop
endfacet
facet normal 0.8819950250706874 0.471258714243628 0
outer loop
vertex -2.0787 -0.8610000000000001 5.4999
vertex -2.0787 -0.8610000000000001 9.500100000000002
vertex -1.8708000000000002 -1.2501000000000002 9.500100000000002
endloop
endfacet
facet normal 0.8819950250706874 0.471258714243628 0
outer loop
vertex -2.0787 -0.8610000000000001 5.4999
vertex -1.8708000000000002 -1.2501000000000002 9.500100000000002
vertex -1.8708000000000002 -1.2501000000000002 5.4999
endloop
endfacet
facet normal 0.772773917086163 0.6346813949308013 0
outer loop
vertex -1.8708000000000002 -1.2501000000000002 5.4999
vertex -1.8708000000000002 -1.2501000000000002 9.500100000000002
vertex -1.5909000000000002 -1.5909000000000002 9.500100000000002
endloop
endfacet
facet normal 0.772773917086163 0.6346813949308013 0
outer loop
vertex -1.8708000000000002 -1.2501000000000002 5.4999
vertex -1.5909000000000002 -1.5909000000000002 9.500100000000002
vertex -1.5909000000000002 -1.5909000000000002 5.4999
endloop
endfacet
facet normal 0.6346813949308013 0.772773917086163 0
outer loop
vertex -1.5909000000000002 -1.5909000000000002 5.4999
vertex -1.5909000000000002 -1.5909000000000002 9.500100000000002
vertex -1.2501000000000002 -1.8708000000000002 9.500100000000002
endloop
endfacet
facet normal 0.6346813949308013 0.772773917086163 0
outer loop
vertex -1.5909000000000002 -1.5909000000000002 5.4999
vertex -1.2501000000000002 -1.8708000000000002 9.500100000000002
vertex -1.2501000000000002 -1.8708000000000002 5.4999
endloop
endfacet
facet normal 0.471258714243628 0.8819950250706874 0
outer loop
vertex -1.2501000000000002 -1.8708000000000002 5.4999
vertex -1.2501000000000002 -1.8708000000000002 9.500100000000002
vertex -0.8610000000000001 -2.0787 9.500100000000002
endloop
endfacet
facet normal 0.471258714243628 0.8819950250706874 0
outer loop
vertex -1.2501000000000002 -1.8708000000000002 5.4999
vertex -0.8610000000000001 -2.0787 9.500100000000002
vertex -0.8610000000000001 -2.0787 5.4999
endloop
endfacet
facet normal 0.2904037631951306 0.9569042033151002 0
outer loop
vertex -0.8610000000000001 -2.0787 5.4999
vertex -0.8610000000000001 -2.0787 9.500100000000002
vertex -0.43890000000000007 -2.2068000000000003 9.500100000000002
endloop
endfacet
facet normal 0.2904037631951306 0.9569042033151002 0
outer loop
vertex -0.8610000000000001 -2.0787 5.4999
vertex -0.43890000000000007 -2.2068000000000003 9.500100000000002
vertex -0.43890000000000007 -2.2068000000000003 5.4999
endloop
endfacet
facet normal 0.0979545374140537 0.995190890533067 0
outer loop
vertex -0.43890000000000007 -2.2068000000000003 5.4999
vertex -0.43890000000000007 -2.2068000000000003 9.500100000000002
vertex 0 -2.25 9.500100000000002
endloop
endfacet
facet normal 0.0979545374140537 0.995190890533067 0
outer loop
vertex -0.43890000000000007 -2.2068000000000003 5.4999
vertex 0 -2.25 9.500100000000002
vertex 0 -2.25 5.4999
endloop
endfacet
facet normal -0.0979545374140537 0.995190890533067 0
outer loop
vertex 0 -2.25 5.4999
vertex 0 -2.25 9.500100000000002
vertex 0.43890000000000007 -2.2068000000000003 9.500100000000002
endloop
endfacet
facet normal -0.0979545374140537 0.995190890533067 0
outer loop
vertex 0 -2.25 5.4999
vertex 0.43890000000000007 -2.2068000000000003 9.500100000000002
vertex 0.43890000000000007 -2.2068000000000003 5.4999
endloop
endfacet
facet normal -0.2904037631951306 0.9569042033151002 0
outer loop
vertex 0.43890000000000007 -2.2068000000000003 5.4999
vertex 0.43890000000000007 -2.2068000000000003 9.500100000000002
vertex 0.8610000000000001 -2.0787 9.500100000000002
endloop
endfacet
facet normal -0.2904037631951306 0.9569042033151002 0
outer loop
vertex 0.43890000000000007 -2.2068000000000003 5.4999
vertex 0.8610000000000001 -2.0787 9.500100000000002
vertex 0.8610000000000001 -2.0787 5.4999
endloop
endfacet
facet normal -0.471258714243628 0.8819950250706874 0
outer loop
vertex 0.8610000000000001 -2.0787 5.4999
vertex 0.8610000000000001 -2.0787 9.500100000000002
vertex 1.2501000000000002 -1.8708000000000002 9.500100000000002
endloop
endfacet
facet normal -0.471258714243628 0.8819950250706874 0
outer loop
vertex 0.8610000000000001 -2.0787 5.4999
vertex 1.2501000000000002 -1.8708000000000002 9.500100000000002
vertex 1.2501000000000002 -1.8708000000000002 5.4999
endloop
endfacet
facet normal -0.6346813949308013 0.772773917086163 0
outer loop
vertex 1.2501000000000002 -1.8708000000000002 5.4999
vertex 1.2501000000000002 -1.8708000000000002 9.500100000000002
vertex 1.5909000000000002 -1.5909000000000002 9.500100000000002
endloop
endfacet
facet normal -0.6346813949308013 0.772773917086163 0
outer loop
vertex 1.2501000000000002 -1.8708000000000002 5.4999
vertex 1.5909000000000002 -1.5909000000000002 9.500100000000002
vertex 1.5909000000000002 -1.5909000000000002 5.4999
endloop
endfacet
facet normal -0.772773917086163 0.6346813949308013 0
outer loop
vertex 1.5909000000000002 -1.5909000000000002 5.4999
vertex 1.5909000000000002 -1.5909000000000002 9.500100000000002
vertex 1.8708000000000002 -1.2501000000000002 9.500100000000002
endloop
endfacet
facet normal -0.772773917086163 0.6346813949308013 0
outer loop
vertex 1.5909000000000002 -1.5909000000000002 5.4999
vertex 1.8708000000000002 -1.2501000000000002 9.500100000000002
vertex 1.8708000000000002 -1.2501000000000002 5.4999
endloop
endfacet
facet normal -0.8819950250706874 0.471258714243628 0
outer loop
vertex 1.8708000000000002 -1.2501000000000002 5.4999
vertex 1.8708000000000002 -1.2501000000000002 9.500100000000002
vertex 2.0787 -0.8610000000000001 9.500100000000002
endloop
endfacet
facet normal -0.8819950250706874 0.471258714243628 0
outer loop
vertex 1.8708000000000002 -1.2501000000000002 5.4999
vertex 2.0787 -0.8610000000000001 9.500100000000002
vertex 2.0787 -0.8610000000000001 5.4999
endloop
endfacet
facet normal -0.9569042033151002 0.2904037631951306 0
outer loop
vertex 2.0787 -0.8610000000000001 5.4999
vertex 2.0787 -0.8610000000000001 9.500100000000002
vertex 2.2068000000000003 -0.43890000000000007 9.500100000000002
endloop
endfacet
facet normal -0.9569042033151002 0.2904037631951306 0
outer loop
vertex 2.0787 -0.8610000000000001 5.4999
vertex 2.2068000000000003 -0.43890000000000007 9.500100000000002
vertex 2.2068000000000003 -0.43890000000000007 5.4999
endloop
endfacet
facet normal -0.995190890533067 0.0979545374140537 0
outer loop
vertex 2.2068000000000003 -0.43890000000000007 5.4999
vertex 2.2068000000000003 -0.43890000000000007 9.500100000000002
vertex 2.25 0 9.500100000000002
endloop
endfacet
facet normal -0.995190890533067 0.0979545374140537 0
outer loop
vertex 2.2068000000000003 -0.43890000000000007 5.4999
vertex 2.25 0 9.500100000000002
vertex 2.25 0 5.4999
endloop
endfacet
facet normal -0.7051920072483264 -0.06941055983852237 0.7056106625441395
outer loop
vertex 2.6973000000000003 0.5364000000000001 9.9999
vertex 2.2068000000000003 0.43890000000000007 9.500100000000002
vertex 2.25 0 9.500100000000002
endloop
endfacet
facet normal -0.7051894926590138 -0.06941462567560755 0.7056127756678149
outer loop
vertex 2.6973000000000003 0.5364000000000001 9.9999
vertex 2.25 0 9.500100000000002
vertex 2.7501 0 9.9999
endloop
endfacet
facet normal -0.6780747398382934 -0.2057838762693333 0.7055973663930433
outer loop
vertex 2.5407 1.0524 9.9999
vertex 2.0787 0.8610000000000001 9.500100000000002
vertex 2.2068000000000003 0.43890000000000007 9.500100000000002
endloop
endfacet
facet normal -0.6780718887316994 -0.2057869336732252 0.7055992145979171
outer loop
vertex 2.5407 1.0524 9.9999
vertex 2.2068000000000003 0.43890000000000007 9.500100000000002
vertex 2.6973000000000003 0.5364000000000001 9.9999
endloop
endfacet
facet normal -0.6250080170669077 -0.3339479998668977 0.7055804078820433
outer loop
vertex 2.2866000000000004 1.5279 9.9999
vertex 1.8708000000000002 1.2501000000000002 9.500100000000002
vertex 2.0787 0.8610000000000001 9.500100000000002
endloop
endfacet
facet normal -0.6249706953362059 -0.3339748763090005 0.7056007454399176
outer loop
vertex 2.2866000000000004 1.5279 9.9999
vertex 2.0787 0.8610000000000001 9.500100000000002
vertex 2.5407 1.0524 9.9999
endloop
endfacet
facet normal -0.5475187925123346 -0.44967872659683833 0.7056998049398064
outer loop
vertex 1.9446 1.9446 9.9999
vertex 1.5909000000000002 1.5909000000000002 9.500100000000002
vertex 1.8708000000000002 1.2501000000000002 9.500100000000002
endloop
endfacet
facet normal -0.5477626212759549 -0.4495675941357732 0.7055813837084048
outer loop
vertex 1.9446 1.9446 9.9999
vertex 1.8708000000000002 1.2501000000000002 9.500100000000002
vertex 2.2866000000000004 1.5279 9.9999
endloop
endfacet
facet normal -0.4495675941357732 -0.5477626212759549 0.7055813837084048
outer loop
vertex 1.9446 1.9446 9.9999
vertex 1.5279 2.2866000000000004 9.9999
vertex 1.2501000000000002 1.8708000000000002 9.500100000000002
endloop
endfacet
facet normal -0.44967872659683833 -0.5475187925123346 0.7056998049398064
outer loop
vertex 1.9446 1.9446 9.9999
vertex 1.2501000000000002 1.8708000000000002 9.500100000000002
vertex 1.5909000000000002 1.5909000000000002 9.500100000000002
endloop
endfacet
facet normal -0.3339748763090005 -0.6249706953362059 0.7056007454399176
outer loop
vertex 1.5279 2.2866000000000004 9.9999
vertex 1.0524 2.5407 9.9999
vertex 0.8610000000000001 2.0787 9.500100000000002
endloop
endfacet
facet normal -0.3339479998668977 -0.6250080170669077 0.7055804078820433
outer loop
vertex 1.5279 2.2866000000000004 9.9999
vertex 0.8610000000000001 2.0787 9.500100000000002
vertex 1.2501000000000002 1.8708000000000002 9.500100000000002
endloop
endfacet
facet normal -0.2057869336732252 -0.6780718887316994 0.7055992145979171
outer loop
vertex 1.0524 2.5407 9.9999
vertex 0.5364000000000001 2.6973000000000003 9.9999
vertex 0.43890000000000007 2.2068000000000003 9.500100000000002
endloop
endfacet
facet normal -0.2057838762693333 -0.6780747398382934 0.7055973663930433
outer loop
vertex 1.0524 2.5407 9.9999
vertex 0.43890000000000007 2.2068000000000003 9.500100000000002
vertex 0.8610000000000001 2.0787 9.500100000000002
endloop
endfacet
facet normal -0.06941462567560755 -0.7051894926590138 0.7056127756678149
outer loop
vertex 0.5364000000000001 2.6973000000000003 9.9999
vertex 0 2.7501 9.9999
vertex 0 2.25 9.500100000000002
endloop
endfacet
facet normal -0.06941055983852237 -0.7051920072483264 0.7056106625441395
outer loop
vertex 0.5364000000000001 2.6973000000000003 9.9999
vertex 0 2.25 9.500100000000002
vertex 0.43890000000000007 2.2068000000000003 9.500100000000002
endloop
endfacet
facet normal 0.06941481120012076 -0.7051913774194093 0.7056108737819788
outer loop
vertex 0 2.7501 9.9999
vertex -0.5364000000000001 2.6973000000000003 9.9999
vertex -0.43890000000000007 2.2068000000000003 9.500100000000002
endloop
endfacet
facet normal 0.06941033311424849 -0.7051897037926829 0.7056129869282148
outer loop
vertex 0 2.7501 9.9999
vertex -0.43890000000000007 2.2068000000000003 9.500100000000002
vertex 0 2.25 9.500100000000002
endloop
endfacet
facet normal 0.20578693367322518 -0.6780718887316994 0.7055992145979171
outer loop
vertex -0.43890000000000007 2.2068000000000003 9.500100000000002
vertex -0.5364000000000001 2.6973000000000003 9.9999
vertex -1.0524 2.5407 9.9999
endloop
endfacet
facet normal 0.2057838762693333 -0.6780747398382934 0.7055973663930433
outer loop
vertex -0.43890000000000007 2.2068000000000003 9.500100000000002
vertex -1.0524 2.5407 9.9999
vertex -0.8610000000000001 2.0787 9.500100000000002
endloop
endfacet
facet normal 0.3339748763090005 -0.6249706953362059 0.7056007454399176
outer loop
vertex -0.8610000000000001 2.0787 9.500100000000002
vertex -1.0524 2.5407 9.9999
vertex -1.5279 2.2866000000000004 9.9999
endloop
endfacet
facet normal 0.3339479998668977 -0.6250080170669077 0.7055804078820435
outer loop
vertex -0.8610000000000001 2.0787 9.500100000000002
vertex -1.5279 2.2866000000000004 9.9999
vertex -1.2501000000000002 1.8708000000000002 9.500100000000002
endloop
endfacet
facet normal 0.44956759413577313 -0.5477626212759549 0.7055813837084048
outer loop
vertex -1.2501000000000002 1.8708000000000002 9.500100000000002
vertex -1.5279 2.2866000000000004 9.9999
vertex -1.9446 1.9446 9.9999
endloop
endfacet
facet normal 0.44967872659683833 -0.5475187925123347 0.7056998049398067
outer loop
vertex -1.2501000000000002 1.8708000000000002 9.500100000000002
vertex -1.9446 1.9446 9.9999
vertex -1.5909000000000002 1.5909000000000002 9.500100000000002
endloop
endfacet
facet normal 0.5477626212759549 -0.4495675941357732 0.7055813837084048
outer loop
vertex -1.9446 1.9446 9.9999
vertex -2.2866000000000004 1.5279 9.9999
vertex -1.8708000000000002 1.2501000000000002 9.500100000000002
endloop
endfacet
facet normal 0.5475187925123346 -0.44967872659683833 0.7056998049398064
outer loop
vertex -1.9446 1.9446 9.9999
vertex -1.8708000000000002 1.2501000000000002 9.500100000000002
vertex -1.5909000000000002 1.5909000000000002 9.500100000000002
endloop
endfacet
facet normal 0.6249706953362059 -0.3339748763090005 0.7056007454399176
outer loop
vertex -2.2866000000000004 1.5279 9.9999
vertex -2.5407 1.0524 9.9999
vertex -2.0787 0.8610000000000001 9.500100000000002
endloop
endfacet
facet normal 0.6250080170669077 -0.3339479998668977 0.7055804078820433
outer loop
vertex -2.2866000000000004 1.5279 9.9999
vertex -2.0787 0.8610000000000001 9.500100000000002
vertex -1.8708000000000002 1.2501000000000002 9.500100000000002
endloop
endfacet
facet normal 0.6780718887316994 -0.2057869336732252 0.7055992145979171
outer loop
vertex -2.5407 1.0524 9.9999
vertex -2.6973000000000003 0.5364000000000001 9.9999
vertex -2.2068000000000003 0.43890000000000007 9.500100000000002
endloop
endfacet
facet normal 0.6780747398382934 -0.2057838762693333 0.7055973663930433
outer loop
vertex -2.5407 1.0524 9.9999
vertex -2.2068000000000003 0.43890000000000007 9.500100000000002
vertex -2.0787 0.8610000000000001 9.500100000000002
endloop
endfacet
facet normal 0.7051894926590138 -0.06941462567560755 0.7056127756678149
outer loop
vertex -2.6973000000000003 0.5364000000000001 9.9999
vertex -2.7501 0 9.9999
vertex -2.25 0 9.500100000000002
endloop
endfacet
facet normal 0.7051920072483264 -0.06941055983852237 0.7056106625441395
outer loop
vertex -2.6973000000000003 0.5364000000000001 9.9999
vertex -2.25 0 9.500100000000002
vertex -2.2068000000000003 0.43890000000000007 9.500100000000002
endloop
endfacet
facet normal 0.7051913774194093 0.06941481120012076 0.7056108737819788
outer loop
vertex -2.7501 0 9.9999
vertex -2.6973000000000003 -0.5364000000000001 9.9999
vertex -2.2068000000000003 -0.43890000000000007 9.500100000000002
endloop
endfacet
facet normal 0.7051897037926829 0.06941033311424849 0.7056129869282148
outer loop
vertex -2.7501 0 9.9999
vertex -2.2068000000000003 -0.43890000000000007 9.500100000000002
vertex -2.25 0 9.500100000000002
endloop
endfacet
facet normal 0.6780718887316994 0.20578693367322518 0.7055992145979171
outer loop
vertex -2.2068000000000003 -0.43890000000000007 9.500100000000002
vertex -2.6973000000000003 -0.5364000000000001 9.9999
vertex -2.5407 -1.0524 9.9999
endloop
endfacet
facet normal 0.6780747398382934 0.2057838762693333 0.7055973663930433
outer loop
vertex -2.2068000000000003 -0.43890000000000007 9.500100000000002
vertex -2.5407 -1.0524 9.9999
vertex -2.0787 -0.8610000000000001 9.500100000000002
endloop
endfacet
facet normal 0.6249706953362059 0.3339748763090005 0.7056007454399176
outer loop
vertex -2.0787 -0.8610000000000001 9.500100000000002
vertex -2.5407 -1.0524 9.9999
vertex -2.2866000000000004 -1.5279 9.9999
endloop
endfacet
facet normal 0.6250080170669077 0.3339479998668977 0.7055804078820435
outer loop
vertex -2.0787 -0.8610000000000001 9.500100000000002
vertex -2.2866000000000004 -1.5279 9.9999
vertex -1.8708000000000002 -1.2501000000000002 9.500100000000002
endloop
endfacet
facet normal 0.5477626212759549 0.44956759413577313 0.7055813837084048
outer loop
vertex -1.8708000000000002 -1.2501000000000002 9.500100000000002
vertex -2.2866000000000004 -1.5279 9.9999
vertex -1.9446 -1.9446 9.9999
endloop
endfacet
facet normal 0.5475187925123347 0.44967872659683833 0.7056998049398067
outer loop
vertex -1.8708000000000002 -1.2501000000000002 9.500100000000002
vertex -1.9446 -1.9446 9.9999
vertex -1.5909000000000002 -1.5909000000000002 9.500100000000002
endloop
endfacet
facet normal 0.44967872659683833 0.5475187925123347 0.7056998049398067
outer loop
vertex -1.2501000000000002 -1.8708000000000002 9.500100000000002
vertex -1.5909000000000002 -1.5909000000000002 9.500100000000002
vertex -1.9446 -1.9446 9.9999
endloop
endfacet
facet normal 0.44956759413577313 0.5477626212759549 0.7055813837084048
outer loop
vertex -1.2501000000000002 -1.8708000000000002 9.500100000000002
vertex -1.9446 -1.9446 9.9999
vertex -1.5279 -2.2866000000000004 9.9999
endloop
endfacet
facet normal 0.3339479998668977 0.6250080170669077 0.7055804078820435
outer loop
vertex -0.8610000000000001 -2.0787 9.500100000000002
vertex -1.2501000000000002 -1.8708000000000002 9.500100000000002
vertex -1.5279 -2.2866000000000004 9.9999
endloop
endfacet
facet normal 0.3339748763090005 0.6249706953362059 0.7056007454399176
outer loop
vertex -0.8610000000000001 -2.0787 9.500100000000002
vertex -1.5279 -2.2866000000000004 9.9999
vertex -1.0524 -2.5407 9.9999
endloop
endfacet
facet normal 0.2057838762693333 0.6780747398382934 0.7055973663930433
outer loop
vertex -0.43890000000000007 -2.2068000000000003 9.500100000000002
vertex -0.8610000000000001 -2.0787 9.500100000000002
vertex -1.0524 -2.5407 9.9999
endloop
endfacet
facet normal 0.20578693367322518 0.6780718887316994 0.7055992145979171
outer loop
vertex -0.43890000000000007 -2.2068000000000003 9.500100000000002
vertex -1.0524 -2.5407 9.9999
vertex -0.5364000000000001 -2.6973000000000003 9.9999
endloop
endfacet
facet normal 0.06941055983852236 0.7051920072483263 0.7056106625441393
outer loop
vertex 0 -2.25 9.500100000000002
vertex -0.43890000000000007 -2.2068000000000003 9.500100000000002
vertex -0.5364000000000001 -2.6973000000000003 9.9999
endloop
endfacet
facet normal 0.0694146256756076 0.7051894926590138 0.7056127756678149
outer loop
vertex 0 -2.25 9.500100000000002
vertex -0.5364000000000001 -2.6973000000000003 9.9999
vertex 0 -2.7501 9.9999
endloop
endfacet
facet normal -0.06941055983852237 0.7051920072483264 0.7056106625441395
outer loop
vertex 0.5364000000000001 -2.6973000000000003 9.9999
vertex 0.43890000000000007 -2.2068000000000003 9.500100000000002
vertex 0 -2.25 9.500100000000002
endloop
endfacet
facet normal -0.06941462567560755 0.7051894926590138 0.7056127756678149
outer loop
vertex 0.5364000000000001 -2.6973000000000003 9.9999
vertex 0 -2.25 9.500100000000002
vertex 0 -2.7501 9.9999
endloop
endfacet
facet normal -0.2057838762693333 0.6780747398382934 0.7055973663930433
outer loop
vertex 1.0524 -2.5407 9.9999
vertex 0.8610000000000001 -2.0787 9.500100000000002
vertex 0.43890000000000007 -2.2068000000000003 9.500100000000002
endloop
endfacet
facet normal -0.2057869336732252 0.6780718887316994 0.7055992145979171
outer loop
vertex 1.0524 -2.5407 9.9999
vertex 0.43890000000000007 -2.2068000000000003 9.500100000000002
vertex 0.5364000000000001 -2.6973000000000003 9.9999
endloop
endfacet
facet normal -0.3339479998668977 0.6250080170669077 0.7055804078820433
outer loop
vertex 1.5279 -2.2866000000000004 9.9999
vertex 1.2501000000000002 -1.8708000000000002 9.500100000000002
vertex 0.8610000000000001 -2.0787 9.500100000000002
endloop
endfacet
facet normal -0.3339748763090005 0.6249706953362059 0.7056007454399176
outer loop
vertex 1.5279 -2.2866000000000004 9.9999
vertex 0.8610000000000001 -2.0787 9.500100000000002
vertex 1.0524 -2.5407 9.9999
endloop
endfacet
facet normal -0.44967872659683833 0.5475187925123346 0.7056998049398064
outer loop
vertex 1.9446 -1.9446 9.9999
vertex 1.5909000000000002 -1.5909000000000002 9.500100000000002
vertex 1.2501000000000002 -1.8708000000000002 9.500100000000002
endloop
endfacet
facet normal -0.4495675941357732 0.5477626212759549 0.7055813837084048
outer loop
vertex 1.9446 -1.9446 9.9999
vertex 1.2501000000000002 -1.8708000000000002 9.500100000000002
vertex 1.5279 -2.2866000000000004 9.9999
endloop
endfacet
facet normal -0.5475187925123347 0.44967872659683833 0.7056998049398067
outer loop
vertex 1.8708000000000002 -1.2501000000000002 9.500100000000002
vertex 1.5909000000000002 -1.5909000000000002 9.500100000000002
vertex 1.9446 -1.9446 9.9999
endloop
endfacet
facet normal -0.5477626212759549 0.44956759413577313 0.7055813837084048
outer loop
vertex 1.8708000000000002 -1.2501000000000002 9.500100000000002
vertex 1.9446 -1.9446 9.9999
vertex 2.2866000000000004 -1.5279 9.9999
endloop
endfacet
facet normal -0.6250080170669077 0.3339479998668977 0.7055804078820435
outer loop
vertex 2.0787 -0.8610000000000001 9.500100000000002
vertex 1.8708000000000002 -1.2501000000000002 9.500100000000002
vertex 2.2866000000000004 -1.5279 9.9999
endloop
endfacet
facet normal -0.6249706953362059 0.3339748763090005 0.7056007454399176
outer loop
vertex 2.0787 -0.8610000000000001 9.500100000000002
vertex 2.2866000000000004 -1.5279 9.9999
vertex 2.5407 -1.0524 9.9999
endloop
endfacet
facet normal -0.6780747398382934 0.2057838762693333 0.7055973663930433
outer loop
vertex 2.2068000000000003 -0.43890000000000007 9.500100000000002
vertex 2.0787 -0.8610000000000001 9.500100000000002
vertex 2.5407 -1.0524 9.9999
endloop
endfacet
facet normal -0.6780718887316994 0.20578693367322518 0.7055992145979171
outer loop
vertex 2.2068000000000003 -0.43890000000000007 9.500100000000002
vertex 2.5407 -1.0524 9.9999
vertex 2.6973000000000003 -0.5364000000000001 9.9999
endloop
endfacet
facet normal -0.7051920072483263 0.06941055983852236 0.7056106625441393
outer loop
vertex 2.25 0 9.500100000000002
vertex 2.2068000000000003 -0.43890000000000007 9.500100000000002
vertex 2.6973000000000003 -0.5364000000000001 9.9999
endloop
endfacet
facet normal -0.7051894926590138 0.0694146256756076 0.7056127756678149
outer loop
vertex 2.25 0 9.500100000000002
vertex 2.6973000000000003 -0.5364000000000001 9.9999
vertex 2.7501 0 9.9999
endloop
endfacet
facet normal 0 0 0.9999999999999999
outer loop
vertex 0 3.8028000000000004 9.9999
vertex -0.9756000000000001 4.9038 9.9999
vertex -1.9134000000000002 4.619400000000001 9.9999
endloop
endfacet
facet normal 0 0 1
outer loop
vertex 0 3.8028000000000004 9.9999
vertex -1.9134000000000002 4.619400000000001 9.9999
vertex -2.7780000000000005 4.1574 9.9999
endloop
endfacet
facet normal 0 0 0.9999999999999999
outer loop
vertex 0 3.8028000000000004 9.9999
vertex -2.7780000000000005 4.1574 9.9999
vertex -3.5355000000000003 3.5355000000000003 9.9999
endloop
endfacet
facet normal 0 0 1
outer loop
vertex 0 3.8028000000000004 9.9999
vertex -3.5355000000000003 3.5355000000000003 9.9999
vertex -4.1574 2.7780000000000005 9.9999
endloop
endfacet
facet normal 0 0 1
outer loop
vertex 0 3.8028000000000004 9.9999
vertex -4.1574 2.7780000000000005 9.9999
vertex -4.1721 2.7501 9.9999
endloop
endfacet
facet normal 0 0 1
outer loop
vertex 0 3.8028000000000004 9.9999
vertex -4.1721 2.7501 9.9999
vertex 0 2.7501 9.9999
endloop
endfacet
facet normal 0 0 1
outer loop
vertex 0 3.8028000000000004 9.9999
vertex 0 2.7501 9.9999
vertex 4.1721 2.7501 9.9999
endloop
endfacet
facet normal 0 0 1
outer loop
vertex 0 3.8028000000000004 9.9999
vertex 4.1721 2.7501 9.9999
vertex 4.1574 2.7780000000000005 9.9999
endloop
endfacet
facet normal 0 0 1
outer loop
vertex 0 3.8028000000000004 9.9999
vertex 4.1574 2.7780000000000005 9.9999
vertex 3.5355000000000003 3.5355000000000003 9.9999
endloop
endfacet
facet normal 0 0 0.9999999999999999
outer loop
vertex 0 3.8028000000000004 9.9999
vertex 3.5355000000000003 3.5355000000000003 9.9999
vertex 2.7780000000000005 4.1574 9.9999
endloop
endfacet
facet normal 0 0 1
outer loop
vertex 0 3.8028000000000004 9.9999
vertex 2.7780000000000005 4.1574 9.9999
vertex 1.9134000000000002 4.619400000000001 9.9999
endloop
endfacet
facet normal 0 0 0.9999999999999999
outer loop
vertex 0 3.8028000000000004 9.9999
vertex 1.9134000000000002 4.619400000000001 9.9999
vertex 0.9756000000000001 4.9038 9.9999
endloop
endfacet
facet normal 0 0 1
outer loop
vertex 0 3.8028000000000004 9.9999
vertex 0.9756000000000001 4.9038 9.9999
vertex 0 5.000100000000001 9.9999
endloop
endfacet
facet normal 0 0 1
outer loop
vertex 0 3.8028000000000004 9.9999
vertex 0 5.000100000000001 9.9999
vertex -0.9756000000000001 4.9038 9.9999
endloop
endfacet
facet normal 0 0 1
outer loop
vertex 0 2.7501 9.9999
vertex 0.5364000000000001 2.6973000000000003 9.9999
vertex 4.2006000000000006 2.6973000000000003 9.9999
endloop
endfacet
facet normal 0 0 1
outer loop
vertex 0 2.7501 9.9999
vertex 4.2006000000000006 2.6973000000000003 9.9999
vertex 4.1721 2.7501 9.9999
endloop
endfacet
facet normal 0 0 1
outer loop
vertex -4.1721 2.7501 9.9999
vertex -4.2006000000000006 2.6973000000000003 9.9999
vertex -0.5364000000000001 2.6973000000000003 9.9999
endloop
endfacet
facet normal 0 0 1
outer loop
vertex -4.1721 2.7501 9.9999
vertex -0.5364000000000001 2.6973000000000003 9.9999
vertex 0 2.7501 9.9999
endloop
endfacet
facet normal 0 0 1
outer loop
vertex 0.5364000000000001 2.6973000000000003 9.9999
vertex 1.0524 2.5407 9.9999
vertex 4.284000000000001 2.5407 9.9999
endloop
endfacet
facet normal 0 0 0.9999999999999999
outer loop
vertex 0.5364000000000001 2.6973000000000003 9.9999
vertex 4.284000000000001 2.5407 9.9999
vertex 4.2006000000000006 2.6973000000000003 9.9999
endloop
endfacet
facet normal 0 0 1
outer loop
vertex -4.2006000000000006 2.6973000000000003 9.9999
vertex -4.284000000000001 2.5407 9.9999
vertex -1.0524 2.5407 9.9999
endloop
endfacet
facet normal 0 0 0.9999999999999999
outer loop
vertex -4.2006000000000006 2.6973000000000003 9.9999
vertex -1.0524 2.5407 9.9999
vertex -0.5364000000000001 2.6973000000000003 9.9999
endloop
endfacet
facet normal 0 0 1
outer loop
vertex 1.0524 2.5407 9.9999
vertex 1.5279 2.2866000000000004 9.9999
vertex 4.4199 2.2866000000000004 9.9999
endloop
endfacet
facet normal 0 0 0.9999999999999999
outer loop
vertex 1.0524 2.5407 9.9999
vertex 4.4199 2.2866000000000004 9.9999
vertex 4.284000000000001 2.5407 9.9999
endloop
endfacet
facet normal 0 0 1
outer loop
vertex -4.284000000000001 2.5407 9.9999
vertex -4.4199 2.2866000000000004 9.9999
vertex -1.5279 2.2866000000000004 9.9999
endloop
endfacet
facet normal 0 0 0.9999999999999999
outer loop
vertex -4.284000000000001 2.5407 9.9999
vertex -1.5279 2.2866000000000004 9.9999
vertex -1.0524 2.5407 9.9999
endloop
endfacet
facet normal 0 0 1
outer loop
vertex 1.5279 2.2866000000000004 9.9999
vertex 1.9446 1.9446 9.9999
vertex 4.6029 1.9446 9.9999
endloop
endfacet
facet normal 0 0 1
outer loop
vertex 1.5279 2.2866000000000004 9.9999
vertex 4.6029 1.9446 9.9999
vertex 4.4199 2.2866000000000004 9.9999
endloop
endfacet
facet normal 0 0 1
outer loop
vertex -4.4199 2.2866000000000004 9.9999
vertex -4.6029 1.9446 9.9999
vertex -1.9446 1.9446 9.9999
endloop
endfacet
facet normal 0 0 1
outer loop
vertex -4.4199 2.2866000000000004 9.9999
vertex -1.9446 1.9446 9.9999
vertex -1.5279 2.2866000000000004 9.9999
endloop
endfacet
facet normal 0 0 1
outer loop
vertex 3.6381000000000006 1.7718000000000003 9.9999
vertex 1.9446 1.9446 9.9999
vertex 2.2866000000000004 1.5279 9.9999
endloop
endfacet
facet normal 0 0 1
outer loop
vertex 3.6381000000000006 1.7718000000000003 9.9999
vertex 2.2866000000000004 1.5279 9.9999
vertex 4.736400000000001 1.5279 9.9999
endloop
endfacet
facet normal 0 0 1
outer loop
vertex 3.6381000000000006 1.7718000000000003 9.9999
vertex 4.736400000000001 1.5279 9.9999
vertex 4.619400000000001 1.9134000000000002 9.9999
endloop
endfacet
facet normal 0 0 1
outer loop
vertex 3.6381000000000006 1.7718000000000003 9.9999
vertex 4.619400000000001 1.9134000000000002 9.9999
vertex 4.6029 1.9446 9.9999
endloop
endfacet
facet normal 0 0 1
outer loop
vertex 3.6381000000000006 1.7718000000000003 9.9999
vertex 4.6029 1.9446 9.9999
vertex 1.9446 1.9446 9.9999
endloop
endfacet
facet normal 0 0 1
outer loop
vertex -3.6381000000000006 1.7718000000000003 9.9999
vertex -4.6029 1.9446 9.9999
vertex -4.619400000000001 1.9134000000000002 9.9999
endloop
endfacet
facet normal 0 0 1
outer loop
vertex -3.6381000000000006 1.7718000000000003 9.9999
vertex -4.619400000000001 1.9134000000000002 9.9999
vertex -4.736400000000001 1.5279 9.9999
endloop
endfacet
facet normal 0 0 1
outer loop
vertex -3.6381000000000006 1.7718000000000003 9.9999
vertex -4.736400000000001 1.5279 9.9999
vertex -2.2866000000000004 1.5279 9.9999
endloop
endfacet
facet normal 0 0 1
outer loop
vertex -3.6381000000000006 1.7718000000000003 9.9999
vertex -2.2866000000000004 1.5279 9.9999
vertex -1.9446 1.9446 9.9999
endloop
endfacet
facet normal 0 0 1
outer loop
vertex -3.6381000000000006 1.7718000000000003 9.9999
vertex -1.9446 1.9446 9.9999
vertex -4.6029 1.9446 9.9999
endloop
endfacet
facet normal 0 0 0.9999999999999999
outer loop
vertex 2.2866000000000004 1.5279 9.9999
vertex 2.5407 1.0524 9.9999
vertex 4.8807 1.0524 9.9999
endloop
endfacet
facet normal 0 0 1
outer loop
vertex 2.2866000000000004 1.5279 9.9999
vertex 4.8807 1.0524 9.9999
vertex 4.736400000000001 1.5279 9.9999
endloop
endfacet
facet normal 0 0 0.9999999999999999
outer loop
vertex -4.736400000000001 1.5279 9.9999
vertex -4.8807 1.0524 9.9999
vertex -2.5407 1.0524 9.9999
endloop
endfacet
facet normal 0 0 1
outer loop
vertex -4.736400000000001 1.5279 9.9999
vertex -2.5407 1.0524 9.9999
vertex -2.2866000000000004 1.5279 9.9999
endloop
endfacet
facet normal 0 0 1
outer loop
vertex 3.9939000000000004 0.8307000000000001 9.9999
vertex 2.5407 1.0524 9.9999
vertex 2.6973000000000003 0.5364000000000001 9.9999
endloop
endfacet
facet normal 0 0 1
outer loop
vertex 3.9939000000000004 0.8307000000000001 9.9999
vertex 2.6973000000000003 0.5364000000000001 9.9999
vertex 4.9473 0.5364000000000001 9.9999
endloop
endfacet
facet normal 0 0 1
outer loop
vertex 3.9939000000000004 0.8307000000000001 9.9999
vertex 4.9473 0.5364000000000001 9.9999
vertex 4.9038 0.9756000000000001 9.9999
endloop
endfacet
facet normal 0 0 1
outer loop
vertex 3.9939000000000004 0.8307000000000001 9.9999
vertex 4.9038 0.9756000000000001 9.9999
vertex 4.8807 1.0524 9.9999
endloop
endfacet
facet normal 0 0 1
outer loop
vertex 3.9939000000000004 0.8307000000000001 9.9999
vertex 4.8807 1.0524 9.9999
vertex 2.5407 1.0524 9.9999
endloop
endfacet
facet normal 0 0 1
outer loop
vertex -3.9939000000000004 0.8307000000000001 9.9999
vertex -4.8807 1.0524 9.9999
vertex -4.9038 0.9756000000000001 9.9999
endloop
endfacet
facet normal 0 0 1
outer loop
vertex -3.9939000000000004 0.8307000000000001 9.9999
vertex -4.9038 0.9756000000000001 9.9999
vertex -4.9473 0.5364000000000001 9.9999
endloop
endfacet
facet normal 0 0 1
outer loop
vertex -3.9939000000000004 0.8307000000000001 9.9999
vertex -4.9473 0.5364000000000001 9.9999
vertex -2.6973000000000003 0.5364000000000001 9.9999
endloop
endfacet
facet normal 0 0 1
outer loop
vertex -3.9939000000000004 0.8307000000000001 9.9999
vertex -2.6973000000000003 0.5364000000000001 9.9999
vertex -2.5407 1.0524 9.9999
endloop
endfacet
facet normal 0 0 1
outer loop
vertex -3.9939000000000004 0.8307000000000001 9.9999
vertex -2.5407 1.0524 9.9999
vertex -4.8807 1.0524 9.9999
endloop
endfacet
facet normal 0 0 1
outer loop
vertex 2.6973000000000003 0.5364000000000001 9.9999
vertex 2.7501 0 9.9999
vertex 5.000100000000001 0 9.9999
endloop
endfacet
facet normal 0 0 1
outer loop
vertex 2.6973000000000003 0.5364000000000001 9.9999
vertex 5.000100000000001 0 9.9999
vertex 4.9473 0.5364000000000001 9.9999
endloop
endfacet
facet normal 0 0 1
outer loop
vertex -4.9473 0.5364000000000001 9.9999
vertex -5.000100000000001 0 9.9999
vertex -2.7501 0 9.9999
endloop
endfacet
facet normal 0 0 1
outer loop
vertex -4.9473 0.5364000000000001 9.9999
vertex -2.7501 0 9.9999
vertex -2.6973000000000003 0.5364000000000001 9.9999
endloop
endfacet
facet normal 0 0 1
outer loop
vertex 2.7501 0 9.9999
vertex 2.6973000000000003 -0.5364000000000001 9.9999
vertex 4.9473 -0.5364000000000001 9.9999
endloop
endfacet
facet normal 0 0 1
outer loop
vertex 2.7501 0 9.9999
vertex 4.9473 -0.5364000000000001 9.9999
vertex 5.000100000000001 0 9.9999
endloop
endfacet
facet normal 0 0 1
outer loop
vertex -5.000100000000001 0 9.9999
vertex -4.9473 -0.5364000000000001 9.9999
vertex -2.6973000000000003 -0.5364000000000001 9.9999
endloop
endfacet
facet normal 0 0 1
outer loop
vertex -5.000100000000001 0 9.9999
vertex -2.6973000000000003 -0.5364000000000001 9.9999
vertex -2.7501 0 9.9999
endloop
endfacet
facet normal 0 0 1
outer loop
vertex 3.9939000000000004 -0.8307000000000001 9.9999
vertex 2.6973000000000003 -0.5364000000000001 9.9999
vertex 2.5407 -1.0524 9.9999
endloop
endfacet
facet normal 0 0 1
outer loop
vertex 3.9939000000000004 -0.8307000000000001 9.9999
vertex 2.5407 -1.0524 9.9999
vertex 4.8807 -1.0524 9.9999
endloop
endfacet
facet normal 0 0 1
outer loop
vertex 3.9939000000000004 -0.8307000000000001 9.9999
vertex 4.8807 -1.0524 9.9999
vertex 4.9038 -0.9756000000000001 9.9999
endloop
endfacet
facet normal 0 0 1
outer loop
vertex 3.9939000000000004 -0.8307000000000001 9.9999
vertex 4.9038 -0.9756000000000001 9.9999
vertex 4.9473 -0.5364000000000001 9.9999
endloop
endfacet
facet normal 0 0 1
outer loop
vertex 3.9939000000000004 -0.8307000000000001 9.9999
vertex 4.9473 -0.5364000000000001 9.9999
vertex 2.6973000000000003 -0.5364000000000001 9.9999
endloop
endfacet
facet normal 0 0 1
outer loop
vertex -3.9939000000000004 -0.8307000000000001 9.9999
vertex -4.9473 -0.5364000000000001 9.9999
vertex -4.9038 -0.9756000000000001 9.9999
endloop
endfacet
facet normal 0 0 1
outer loop
vertex -3.9939000000000004 -0.8307000000000001 9.9999
vertex -4.9038 -0.9756000000000001 9.9999
vertex -4.8807 -1.0524 9.9999
endloop
endfacet
facet normal 0 0 1
outer loop
vertex -3.9939000000000004 -0.8307000000000001 9.9999
vertex -4.8807 -1.0524 9.9999
vertex -2.5407 -1.0524 9.9999
endloop
endfacet
facet normal 0 0 1
outer loop
vertex -3.9939000000000004 -0.8307000000000001 9.9999
vertex -2.5407 -1.0524 9.9999
vertex -2.6973000000000003 -0.5364000000000001 9.9999
endloop
endfacet
facet normal 0 0 1
outer loop
vertex -3.9939000000000004 -0.8307000000000001 9.9999
vertex -2.6973000000000003 -0.5364000000000001 9.9999
vertex -4.9473 -0.5364000000000001 9.9999
endloop
endfacet
facet normal 0 0 1
outer loop
vertex 2.5407 -1.0524 9.9999
vertex 2.2866000000000004 -1.5279 9.9999
vertex 4.736400000000001 -1.5279 9.9999
endloop
endfacet
facet normal 0 0 0.9999999999999999
outer loop
vertex 2.5407 -1.0524 9.9999
vertex 4.736400000000001 -1.5279 9.9999
vertex 4.8807 -1.0524 9.9999
endloop
endfacet
facet normal 0 0 1
outer loop
vertex -4.8807 -1.0524 9.9999
vertex -4.736400000000001 -1.5279 9.9999
vertex -2.2866000000000004 -1.5279 9.9999
endloop
endfacet
facet normal 0 0 0.9999999999999999
outer loop
vertex -4.8807 -1.0524 9.9999
vertex -2.2866000000000004 -1.5279 9.9999
vertex -2.5407 -1.0524 9.9999
endloop
endfacet
facet normal 0 0 1
outer loop
vertex 3.6381000000000006 -1.7718000000000003 9.9999
vertex 2.2866000000000004 -1.5279 9.9999
vertex 1.9446 -1.9446 9.9999
endloop
endfacet
facet normal 0 0 1
outer loop
vertex 3.6381000000000006 -1.7718000000000003 9.9999
vertex 1.9446 -1.9446 9.9999
vertex 4.6029 -1.9446 9.9999
endloop
endfacet
facet normal 0 0 1
outer loop
vertex 3.6381000000000006 -1.7718000000000003 9.9999
vertex 4.6029 -1.9446 9.9999
vertex 4.619400000000001 -1.9134000000000002 9.9999
endloop
endfacet
facet normal 0 0 1
outer loop
vertex 3.6381000000000006 -1.7718000000000003 9.9999
vertex 4.619400000000001 -1.9134000000000002 9.9999
vertex 4.736400000000001 -1.5279 9.9999
endloop
endfacet
facet normal 0 0 1
outer loop
vertex 3.6381000000000006 -1.7718000000000003 9.9999
vertex 4.736400000000001 -1.5279 9.9999
vertex 2.2866000000000004 -1.5279 9.9999
endloop
endfacet
facet normal 0 0 1
outer loop
vertex -3.6381000000000006 -1.7718000000000003 9.9999
vertex -4.736400000000001 -1.5279 9.9999
vertex -4.619400000000001 -1.9134000000000002 9.9999
endloop
endfacet
facet normal 0 0 1
outer loop
vertex -3.6381000000000006 -1.7718000000000003 9.9999
vertex -4.619400000000001 -1.9134000000000002 9.9999
vertex -4.6029 -1.9446 9.9999
endloop
endfacet
facet normal 0 0 1
outer loop
vertex -3.6381000000000006 -1.7718000000000003 9.9999
vertex -4.6029 -1.9446 9.9999
vertex -1.9446 -1.9446 9.9999
endloop
endfacet
facet normal 0 0 1
outer loop
vertex -3.6381000000000006 -1.7718000000000003 9.9999
vertex -1.9446 -1.9446 9.9999
vertex -2.2866000000000004 -1.5279 9.9999
endloop
endfacet
facet normal 0 0 1
outer loop
vertex -3.6381000000000006 -1.7718000000000003 9.9999
vertex -2.2866000000000004 -1.5279 9.9999
vertex -4.736400000000001 -1.5279 9.9999
endloop
endfacet
facet normal 0 0 1
outer loop
vertex 1.9446 -1.9446 9.9999
vertex 1.5279 -2.2866000000000004 9.9999
vertex 4.4199 -2.2866000000000004 9.9999
endloop
endfacet
facet normal 0 0 1
outer loop
vertex 1.9446 -1.9446 9.9999
vertex 4.4199 -2.2866000000000004 9.9999
vertex 4.6029 -1.9446 9.9999
endloop
endfacet
facet normal 0 0 1
outer loop
vertex -4.6029 -1.9446 9.9999
vertex -4.4199 -2.2866000000000004 9.9999
vertex -1.5279 -2.2866000000000004 9.9999
endloop
endfacet
facet normal 0 0 1
outer loop
vertex -4.6029 -1.9446 9.9999
vertex -1.5279 -2.2866000000000004 9.9999
vertex -1.9446 -1.9446 9.9999
endloop
endfacet
facet normal 0 0 1
outer loop
vertex 1.5279 -2.2866000000000004 9.9999
vertex 1.0524 -2.5407 9.9999
vertex 4.284000000000001 -2.5407 9.9999
endloop
endfacet
facet normal 0 0 1
outer loop
vertex 1.5279 -2.2866000000000004 9.9999
vertex 4.284000000000001 -2.5407 9.9999
vertex 4.4199 -2.2866000000000004 9.9999
endloop
endfacet
facet normal 0 0 0.9999999999999999
outer loop
vertex -4.4199 -2.2866000000000004 9.9999
vertex -4.284000000000001 -2.5407 9.9999
vertex -1.0524 -2.5407 9.9999
endloop
endfacet
facet normal 0 0 1
outer loop
vertex -4.4199 -2.2866000000000004 9.9999
vertex -1.0524 -2.5407 9.9999
vertex -1.5279 -2.2866000000000004 9.9999
endloop
endfacet
facet normal 0 0 0.9999999999999999
outer loop
vertex 1.0524 -2.5407 9.9999
vertex 0.5364000000000001 -2.6973000000000003 9.9999
vertex 4.2006000000000006 -2.6973000000000003 9.9999
endloop
endfacet
facet normal 0 0 1
outer loop
vertex 1.0524 -2.5407 9.9999
vertex 4.2006000000000006 -2.6973000000000003 9.9999
vertex 4.284000000000001 -2.5407 9.9999
endloop
endfacet
facet normal 0 0 0.9999999999999999
outer loop
vertex -4.284000000000001 -2.5407 9.9999
vertex -4.2006000000000006 -2.6973000000000003 9.9999
vertex -0.5364000000000001 -2.6973000000000003 9.9999
endloop
endfacet
facet normal 0 0 1
outer loop
vertex -4.284000000000001 -2.5407 9.9999
vertex -0.5364000000000001 -2.6973000000000003 9.9999
vertex -1.0524 -2.5407 9.9999
endloop
endfacet
facet normal 0 0 1
outer loop
vertex 0.5364000000000001 -2.6973000000000003 9.9999
vertex 0 -2.7501 9.9999
vertex 4.1721 -2.7501 9.9999
endloop
endfacet
facet normal 0 0 1
outer loop
vertex 0.5364000000000001 -2.6973000000000003 9.9999
vertex 4.1721 -2.7501 9.9999
vertex 4.2006000000000006 -2.6973000000000003 9.9999
endloop
endfacet
facet normal 0 0 1
outer loop
vertex -4.2006000000000006 -2.6973000000000003 9.9999
vertex -4.1721 -2.7501 9.9999
vertex 0 -2.7501 9.9999
endloop
endfacet
facet normal 0 0 1
outer loop
vertex -4.2006000000000006 -2.6973000000000003 9.9999
vertex 0 -2.7501 9.9999
vertex -0.5364000000000001 -2.6973000000000003 9.9999
endloop
endfacet
facet normal 0 0 1
outer loop
vertex 0 -3.8028000000000004 9.9999
vertex 0 -2.7501 9.9999
vertex -4.1721 -2.7501 9.9999
endloop
endfacet
facet normal 0 0 1
outer loop
vertex 0 -3.8028000000000004 9.9999
vertex -4.1721 -2.7501 9.9999
vertex -4.1574 -2.7780000000000005 9.9999
endloop
endfacet
facet normal 0 0 1
outer loop
vertex 0 -3.8028000000000004 9.9999
vertex -4.1574 -2.7780000000000005 9.9999
vertex -3.5355000000000003 -3.5355000000000003 9.9999
endloop
endfacet
facet normal 0 0 0.9999999999999999
outer loop
vertex 0 -3.8028000000000004 9.9999
vertex -3.5355000000000003 -3.5355000000000003 9.9999
vertex -2.7780000000000005 -4.1574 9.9999
endloop
endfacet
facet normal 0 0 1
outer loop
vertex 0 -3.8028000000000004 9.9999
vertex -2.7780000000000005 -4.1574 9.9999
vertex -1.9134000000000002 -4.619400000000001 9.9999
endloop
endfacet
facet normal 0 0 0.9999999999999999
outer loop
vertex 0 -3.8028000000000004 9.9999
vertex -1.9134000000000002 -4.619400000000001 9.9999
vertex -0.9756000000000001 -4.9038 9.9999
endloop
endfacet
facet normal 0 0 1
outer loop
vertex 0 -3.8028000000000004 9.9999
vertex -0.9756000000000001 -4.9038 9.9999
vertex 0 -5.000100000000001 9.9999
endloop
endfacet
facet normal 0 0 1
outer loop
vertex 0 -3.8028000000000004 9.9999
vertex 0 -5.000100000000001 9.9999
vertex 0.9756000000000001 -4.9038 9.9999
endloop
endfacet
facet normal 0 0 0.9999999999999999
outer loop
vertex 0 -3.8028000000000004 9.9999
vertex 0.9756000000000001 -4.9038 9.9999
vertex 1.9134000000000002 -4.619400000000001 9.9999
endloop
endfacet
facet normal 0 0 1
outer loop
vertex 0 -3.8028000000000004 9.9999
vertex 1.9134000000000002 -4.619400000000001 9.9999
vertex 2.7780000000000005 -4.1574 9.9999
endloop
endfacet
facet normal 0 0 0.9999999999999999
outer loop
vertex 0 -3.8028000000000004 9.9999
vertex 2.7780000000000005 -4.1574 9.9999
vertex 3.5355000000000003 -3.5355000000000003 9.9999
endloop
endfacet
facet normal 0 0 1
outer loop
vertex 0 -3.8028000000000004 9.9999
vertex 3.5355000000000003 -3.5355000000000003 9.9999
vertex 4.1574 -2.7780000000000005 9.9999
endloop
endfacet
facet normal 0 0 1
outer loop
vertex 0 -3.8028000000000004 9.9999
vertex 4.1574 -2.7780000000000005 9.9999
vertex 4.1721 -2.7501 9.9999
endloop
endfacet
facet normal 0 0 1
outer loop
vertex 0 -3.8028000000000004 9.9999
vertex 4.1721 -2.7501 9.9999
vertex 0 -2.7501 9.9999
endloop
endfacet
endsolid JSCAD
