solid JSCAD
facet normal -1 0 0
outer loop
vertex -9.699933333333334 -26.00002666666667 -2.0714033333333335
vertex -9.699933333333334 -24.000003333333336 -0.9998733333333335
vertex -9.699933333333334 -24.000003333333336 -2.49996
endloop
endfacet
facet normal -1 0 0
outer loop
vertex -9.699933333333334 -26.00002666666667 -2.0714033333333335
vertex -9.699933333333334 -24.000003333333336 -2.49996
vertex -9.699933333333334 -24.70107666666667 -2.49996
endloop
endfacet
facet normal -0.9999999999999999 0 0
outer loop
vertex -9.699933333333334 -26.00002666666667 -2.0714033333333335
vertex -9.699933333333334 -24.70107666666667 -2.49996
vertex -9.699933333333334 -26.00002666666667 -2.49996
endloop
endfacet
facet normal -0.9999999999999999 0 0
outer loop
vertex -9.699933333333334 -26.00002666666667 -2.0714033333333335
vertex -9.699933333333334 -26.00002666666667 -2.49996
vertex -9.699933333333334 -27.29897666666667 -2.49996
endloop
endfacet
facet normal -1 0 0
outer loop
vertex -9.699933333333334 -26.00002666666667 -2.0714033333333335
vertex -9.699933333333334 -27.29897666666667 -2.49996
vertex -9.699933333333334 -28.000050000000005 -2.49996
endloop
endfacet
facet normal -1 0 0
outer loop
vertex -9.699933333333334 -26.00002666666667 -2.0714033333333335
vertex -9.699933333333334 -28.000050000000005 -2.49996
vertex -9.699933333333334 -28.000050000000005 -0.9998733333333335
endloop
endfacet
facet normal -1 0 0
outer loop
vertex -9.699933333333334 -26.00002666666667 -2.0714033333333335
vertex -9.699933333333334 -28.000050000000005 -0.9998733333333335
vertex -9.699933333333334 -24.000003333333336 -0.9998733333333335
endloop
endfacet
facet normal -1 0 0
outer loop
vertex -9.699933333333334 -9.600056666666669 -2.0714033333333335
vertex -9.699933333333334 -7.600033333333334 -0.9998733333333335
vertex -9.699933333333334 -7.600033333333334 -2.49996
endloop
endfacet
facet normal -1 0 0
outer loop
vertex -9.699933333333334 -9.600056666666669 -2.0714033333333335
vertex -9.699933333333334 -7.600033333333334 -2.49996
vertex -9.699933333333334 -8.300830000000001 -2.49996
endloop
endfacet
facet normal -1 0 0
outer loop
vertex -9.699933333333334 -9.600056666666669 -2.0714033333333335
vertex -9.699933333333334 -8.300830000000001 -2.49996
vertex -9.699933333333334 -9.600056666666669 -2.49996
endloop
endfacet
facet normal -1 0 0
outer loop
vertex -9.699933333333334 -9.600056666666669 -2.0714033333333335
vertex -9.699933333333334 -9.600056666666669 -2.49996
vertex -9.699933333333334 -10.899006666666669 -2.49996
endloop
endfacet
facet normal -1 0 0
outer loop
vertex -9.699933333333334 -9.600056666666669 -2.0714033333333335
vertex -9.699933333333334 -10.899006666666669 -2.49996
vertex -9.699933333333334 -11.600080000000002 -2.49996
endloop
endfacet
facet normal -1 0 0
outer loop
vertex -9.699933333333334 -9.600056666666669 -2.0714033333333335
vertex -9.699933333333334 -11.600080000000002 -2.49996
vertex -9.699933333333334 -11.600080000000002 -0.9998733333333335
endloop
endfacet
facet normal -1 0 0
outer loop
vertex -9.699933333333334 -9.600056666666669 -2.0714033333333335
vertex -9.699933333333334 -11.600080000000002 -0.9998733333333335
vertex -9.699933333333334 -7.600033333333334 -0.9998733333333335
endloop
endfacet
facet normal 1 0 0
outer loop
vertex -5.699886666666668 -9.600056666666669 -2.0714033333333335
vertex -5.699886666666668 -11.600080000000002 -0.9998733333333335
vertex -5.699886666666668 -11.600080000000002 -2.49996
endloop
endfacet
facet normal 1 0 0
outer loop
vertex -5.699886666666668 -9.600056666666669 -2.0714033333333335
vertex -5.699886666666668 -11.600080000000002 -2.49996
vertex -5.699886666666668 -10.899006666666669 -2.49996
endloop
endfacet
facet normal 1 0 0
outer loop
vertex -5.699886666666668 -9.600056666666669 -2.0714033333333335
vertex -5.699886666666668 -10.899006666666669 -2.49996
vertex -5.699886666666668 -9.600056666666669 -2.49996
endloop
endfacet
facet normal 1 0 0
outer loop
vertex -5.699886666666668 -9.600056666666669 -2.0714033333333335
vertex -5.699886666666668 -9.600056666666669 -2.49996
vertex -5.699886666666668 -8.300830000000001 -2.49996
endloop
endfacet
facet normal 1 0 0
outer loop
vertex -5.699886666666668 -9.600056666666669 -2.0714033333333335
vertex -5.699886666666668 -8.300830000000001 -2.49996
vertex -5.699886666666668 -7.600033333333334 -2.49996
endloop
endfacet
facet normal 1 0 0
outer loop
vertex -5.699886666666668 -9.600056666666669 -2.0714033333333335
vertex -5.699886666666668 -7.600033333333334 -2.49996
vertex -5.699886666666668 -7.600033333333334 -0.9998733333333335
endloop
endfacet
facet normal 1 0 0
outer loop
vertex -5.699886666666668 -9.600056666666669 -2.0714033333333335
vertex -5.699886666666668 -7.600033333333334 -0.9998733333333335
vertex -5.699886666666668 -11.600080000000002 -0.9998733333333335
endloop
endfacet
facet normal 1 0 0
outer loop
vertex -5.699886666666668 -26.00002666666667 -2.0714033333333335
vertex -5.699886666666668 -28.000050000000005 -0.9998733333333335
vertex -5.699886666666668 -28.000050000000005 -2.49996
endloop
endfacet
facet normal 1 0 0
outer loop
vertex -5.699886666666668 -26.00002666666667 -2.0714033333333335
vertex -5.699886666666668 -28.000050000000005 -2.49996
vertex -5.699886666666668 -27.29897666666667 -2.49996
endloop
endfacet
facet normal 0.9999999999999999 0 0
outer loop
vertex -5.699886666666668 -26.00002666666667 -2.0714033333333335
vertex -5.699886666666668 -27.29897666666667 -2.49996
vertex -5.699886666666668 -26.00002666666667 -2.49996
endloop
endfacet
facet normal 0.9999999999999999 0 0
outer loop
vertex -5.699886666666668 -26.00002666666667 -2.0714033333333335
vertex -5.699886666666668 -26.00002666666667 -2.49996
vertex -5.699886666666668 -24.70107666666667 -2.49996
endloop
endfacet
facet normal 1 0 0
outer loop
vertex -5.699886666666668 -26.00002666666667 -2.0714033333333335
vertex -5.699886666666668 -24.70107666666667 -2.49996
vertex -5.699886666666668 -24.000003333333336 -2.49996
endloop
endfacet
facet normal 1 0 0
outer loop
vertex -5.699886666666668 -26.00002666666667 -2.0714033333333335
vertex -5.699886666666668 -24.000003333333336 -2.49996
vertex -5.699886666666668 -24.000003333333336 -0.9998733333333335
endloop
endfacet
facet normal 1 0 0
outer loop
vertex -5.699886666666668 -26.00002666666667 -2.0714033333333335
vertex -5.699886666666668 -24.000003333333336 -0.9998733333333335
vertex -5.699886666666668 -28.000050000000005 -0.9998733333333335
endloop
endfacet
facet normal 0 -1 0
outer loop
vertex 5.699886666666668 -11.600080000000002 -0.9998733333333335
vertex 5.699886666666668 -11.600080000000002 -2.49996
vertex 9.699933333333334 -11.600080000000002 -2.49996
endloop
endfacet
facet normal 0 -1 0
outer loop
vertex 5.699886666666668 -11.600080000000002 -0.9998733333333335
vertex 9.699933333333334 -11.600080000000002 -2.49996
vertex 9.699933333333334 -11.600080000000002 -0.9998733333333335
endloop
endfacet
facet normal 0 -1 0
outer loop
vertex -9.699933333333334 -11.600080000000002 -0.9998733333333335
vertex -9.699933333333334 -11.600080000000002 -2.49996
vertex -5.699886666666668 -11.600080000000002 -2.49996
endloop
endfacet
facet normal 0 -1 0
outer loop
vertex -9.699933333333334 -11.600080000000002 -0.9998733333333335
vertex -5.699886666666668 -11.600080000000002 -2.49996
vertex -5.699886666666668 -11.600080000000002 -0.9998733333333335
endloop
endfacet
facet normal 0 1 0
outer loop
vertex -5.699886666666668 -7.600033333333334 -0.9998733333333335
vertex -5.699886666666668 -7.600033333333334 -2.49996
vertex -9.699933333333334 -7.600033333333334 -2.49996
endloop
endfacet
facet normal 0 1 0
outer loop
vertex -5.699886666666668 -7.600033333333334 -0.9998733333333335
vertex -9.699933333333334 -7.600033333333334 -2.49996
vertex -9.699933333333334 -7.600033333333334 -0.9998733333333335
endloop
endfacet
facet normal 0 1 0
outer loop
vertex 9.699933333333334 -7.600033333333334 -0.9998733333333335
vertex 9.699933333333334 -7.600033333333334 -2.49996
vertex 5.699886666666668 -7.600033333333334 -2.49996
endloop
endfacet
facet normal 0 1 0
outer loop
vertex 9.699933333333334 -7.600033333333334 -0.9998733333333335
vertex 5.699886666666668 -7.600033333333334 -2.49996
vertex 5.699886666666668 -7.600033333333334 -0.9998733333333335
endloop
endfacet
facet normal -1 0 0
outer loop
vertex 5.699886666666668 -26.00002666666667 -2.0714033333333335
vertex 5.699886666666668 -24.000003333333336 -0.9998733333333335
vertex 5.699886666666668 -24.000003333333336 -2.49996
endloop
endfacet
facet normal -1 0 0
outer loop
vertex 5.699886666666668 -26.00002666666667 -2.0714033333333335
vertex 5.699886666666668 -24.000003333333336 -2.49996
vertex 5.699886666666668 -24.70107666666667 -2.49996
endloop
endfacet
facet normal -0.9999999999999999 0 0
outer loop
vertex 5.699886666666668 -26.00002666666667 -2.0714033333333335
vertex 5.699886666666668 -24.70107666666667 -2.49996
vertex 5.699886666666668 -26.00002666666667 -2.49996
endloop
endfacet
facet normal -0.9999999999999999 0 0
outer loop
vertex 5.699886666666668 -26.00002666666667 -2.0714033333333335
vertex 5.699886666666668 -26.00002666666667 -2.49996
vertex 5.699886666666668 -27.29897666666667 -2.49996
endloop
endfacet
facet normal -1 0 0
outer loop
vertex 5.699886666666668 -26.00002666666667 -2.0714033333333335
vertex 5.699886666666668 -27.29897666666667 -2.49996
vertex 5.699886666666668 -28.000050000000005 -2.49996
endloop
endfacet
facet normal -1 0 0
outer loop
vertex 5.699886666666668 -26.00002666666667 -2.0714033333333335
vertex 5.699886666666668 -28.000050000000005 -2.49996
vertex 5.699886666666668 -28.000050000000005 -0.9998733333333335
endloop
endfacet
facet normal -1 0 0
outer loop
vertex 5.699886666666668 -26.00002666666667 -2.0714033333333335
vertex 5.699886666666668 -28.000050000000005 -0.9998733333333335
vertex 5.699886666666668 -24.000003333333336 -0.9998733333333335
endloop
endfacet
facet normal -1 0 0
outer loop
vertex 5.699886666666668 -9.600056666666669 -2.0714033333333335
vertex 5.699886666666668 -7.600033333333334 -0.9998733333333335
vertex 5.699886666666668 -7.600033333333334 -2.49996
endloop
endfacet
facet normal -1 0 0
outer loop
vertex 5.699886666666668 -9.600056666666669 -2.0714033333333335
vertex 5.699886666666668 -7.600033333333334 -2.49996
vertex 5.699886666666668 -8.300830000000001 -2.49996
endloop
endfacet
facet normal -1 0 0
outer loop
vertex 5.699886666666668 -9.600056666666669 -2.0714033333333335
vertex 5.699886666666668 -8.300830000000001 -2.49996
vertex 5.699886666666668 -9.600056666666669 -2.49996
endloop
endfacet
facet normal -1 0 0
outer loop
vertex 5.699886666666668 -9.600056666666669 -2.0714033333333335
vertex 5.699886666666668 -9.600056666666669 -2.49996
vertex 5.699886666666668 -10.899006666666669 -2.49996
endloop
endfacet
facet normal -1 0 0
outer loop
vertex 5.699886666666668 -9.600056666666669 -2.0714033333333335
vertex 5.699886666666668 -10.899006666666669 -2.49996
vertex 5.699886666666668 -11.600080000000002 -2.49996
endloop
endfacet
facet normal -1 0 0
outer loop
vertex 5.699886666666668 -9.600056666666669 -2.0714033333333335
vertex 5.699886666666668 -11.600080000000002 -2.49996
vertex 5.699886666666668 -11.600080000000002 -0.9998733333333335
endloop
endfacet
facet normal -1 0 0
outer loop
vertex 5.699886666666668 -9.600056666666669 -2.0714033333333335
vertex 5.699886666666668 -11.600080000000002 -0.9998733333333335
vertex 5.699886666666668 -7.600033333333334 -0.9998733333333335
endloop
endfacet
facet normal 1 0 0
outer loop
vertex 9.699933333333334 -9.600056666666669 -2.0714033333333335
vertex 9.699933333333334 -11.600080000000002 -0.9998733333333335
vertex 9.699933333333334 -11.600080000000002 -2.49996
endloop
endfacet
facet normal 1 0 0
outer loop
vertex 9.699933333333334 -9.600056666666669 -2.0714033333333335
vertex 9.699933333333334 -11.600080000000002 -2.49996
vertex 9.699933333333334 -10.899006666666669 -2.49996
endloop
endfacet
facet normal 1 0 0
outer loop
vertex 9.699933333333334 -9.600056666666669 -2.0714033333333335
vertex 9.699933333333334 -10.899006666666669 -2.49996
vertex 9.699933333333334 -9.600056666666669 -2.49996
endloop
endfacet
facet normal 1 0 0
outer loop
vertex 9.699933333333334 -9.600056666666669 -2.0714033333333335
vertex 9.699933333333334 -9.600056666666669 -2.49996
vertex 9.699933333333334 -8.300830000000001 -2.49996
endloop
endfacet
facet normal 1 0 0
outer loop
vertex 9.699933333333334 -9.600056666666669 -2.0714033333333335
vertex 9.699933333333334 -8.300830000000001 -2.49996
vertex 9.699933333333334 -7.600033333333334 -2.49996
endloop
endfacet
facet normal 1 0 0
outer loop
vertex 9.699933333333334 -9.600056666666669 -2.0714033333333335
vertex 9.699933333333334 -7.600033333333334 -2.49996
vertex 9.699933333333334 -7.600033333333334 -0.9998733333333335
endloop
endfacet
facet normal 1 0 0
outer loop
vertex 9.699933333333334 -9.600056666666669 -2.0714033333333335
vertex 9.699933333333334 -7.600033333333334 -0.9998733333333335
vertex 9.699933333333334 -11.600080000000002 -0.9998733333333335
endloop
endfacet
facet normal 1 0 0
outer loop
vertex 9.699933333333334 -26.00002666666667 -2.0714033333333335
vertex 9.699933333333334 -28.000050000000005 -0.9998733333333335
vertex 9.699933333333334 -28.000050000000005 -2.49996
endloop
endfacet
facet normal 1 0 0
outer loop
vertex 9.699933333333334 -26.00002666666667 -2.0714033333333335
vertex 9.699933333333334 -28.000050000000005 -2.49996
vertex 9.699933333333334 -27.29897666666667 -2.49996
endloop
endfacet
facet normal 0.9999999999999999 0 0
outer loop
vertex 9.699933333333334 -26.00002666666667 -2.0714033333333335
vertex 9.699933333333334 -27.29897666666667 -2.49996
vertex 9.699933333333334 -26.00002666666667 -2.49996
endloop
endfacet
facet normal 0.9999999999999999 0 0
outer loop
vertex 9.699933333333334 -26.00002666666667 -2.0714033333333335
vertex 9.699933333333334 -26.00002666666667 -2.49996
vertex 9.699933333333334 -24.70107666666667 -2.49996
endloop
endfacet
facet normal 1 0 0
outer loop
vertex 9.699933333333334 -26.00002666666667 -2.0714033333333335
vertex 9.699933333333334 -24.70107666666667 -2.49996
vertex 9.699933333333334 -24.000003333333336 -2.49996
endloop
endfacet
facet normal 1 0 0
outer loop
vertex 9.699933333333334 -26.00002666666667 -2.0714033333333335
vertex 9.699933333333334 -24.000003333333336 -2.49996
vertex 9.699933333333334 -24.000003333333336 -0.9998733333333335
endloop
endfacet
facet normal 1 0 0
outer loop
vertex 9.699933333333334 -26.00002666666667 -2.0714033333333335
vertex 9.699933333333334 -24.000003333333336 -0.9998733333333335
vertex 9.699933333333334 -28.000050000000005 -0.9998733333333335
endloop
endfacet
facet normal 0 -1 0
outer loop
vertex 5.699886666666668 -28.000050000000005 -0.9998733333333335
vertex 5.699886666666668 -28.000050000000005 -2.49996
vertex 9.699933333333334 -28.000050000000005 -2.49996
endloop
endfacet
facet normal 0 -1 0
outer loop
vertex 5.699886666666668 -28.000050000000005 -0.9998733333333335
vertex 9.699933333333334 -28.000050000000005 -2.49996
vertex 9.699933333333334 -28.000050000000005 -0.9998733333333335
endloop
endfacet
facet normal 0 -1 0
outer loop
vertex -9.699933333333334 -28.000050000000005 -0.9998733333333335
vertex -9.699933333333334 -28.000050000000005 -2.49996
vertex -5.699886666666668 -28.000050000000005 -2.49996
endloop
endfacet
facet normal 0 -1 0
outer loop
vertex -9.699933333333334 -28.000050000000005 -0.9998733333333335
vertex -5.699886666666668 -28.000050000000005 -2.49996
vertex -5.699886666666668 -28.000050000000005 -0.9998733333333335
endloop
endfacet
facet normal 0 1 0
outer loop
vertex -5.699886666666668 -24.000003333333336 -0.9998733333333335
vertex -5.699886666666668 -24.000003333333336 -2.49996
vertex -9.699933333333334 -24.000003333333336 -2.49996
endloop
endfacet
facet normal 0 1 0
outer loop
vertex -5.699886666666668 -24.000003333333336 -0.9998733333333335
vertex -9.699933333333334 -24.000003333333336 -2.49996
vertex -9.699933333333334 -24.000003333333336 -0.9998733333333335
endloop
endfacet
facet normal 0 1 0
outer loop
vertex 9.699933333333334 -24.000003333333336 -0.9998733333333335
vertex 9.699933333333334 -24.000003333333336 -2.49996
vertex 5.699886666666668 -24.000003333333336 -2.49996
endloop
endfacet
facet normal 0 1 0
outer loop
vertex 9.699933333333334 -24.000003333333336 -0.9998733333333335
vertex 5.699886666666668 -24.000003333333336 -2.49996
vertex 5.699886666666668 -24.000003333333336 -0.9998733333333335
endloop
endfacet
facet normal -1 0 0
outer loop
vertex -10.000116666666669 -4.9667200000000005 -0.5555466666666667
vertex -10.000116666666669 28.499986666666672 0.9998733333333335
vertex -10.000116666666669 28.499986666666672 -0.9998733333333335
endloop
endfacet
facet normal -1 0 0
outer loop
vertex -10.000116666666669 -4.9667200000000005 -0.5555466666666667
vertex -10.000116666666669 28.499986666666672 -0.9998733333333335
vertex -10.000116666666669 26.499963333333337 -0.9998733333333335
endloop
endfacet
facet normal -1 0 0
outer loop
vertex -10.000116666666669 -4.9667200000000005 -0.5555466666666667
vertex -10.000116666666669 26.499963333333337 -0.9998733333333335
vertex -10.000116666666669 -7.600033333333334 -0.9998733333333335
endloop
endfacet
facet normal -0.9999999999999999 0 0
outer loop
vertex -10.000116666666669 -4.9667200000000005 -0.5555466666666667
vertex -10.000116666666669 -7.600033333333334 -0.9998733333333335
vertex -10.000116666666669 -11.600080000000002 -0.9998733333333335
endloop
endfacet
facet normal -1 0 0
outer loop
vertex -10.000116666666669 -4.9667200000000005 -0.5555466666666667
vertex -10.000116666666669 -11.600080000000002 -0.9998733333333335
vertex -10.000116666666669 -24.000003333333336 -0.9998733333333335
endloop
endfacet
facet normal -1 0 0
outer loop
vertex -10.000116666666669 -4.9667200000000005 -0.5555466666666667
vertex -10.000116666666669 -24.000003333333336 -0.9998733333333335
vertex -10.000116666666669 -28.000050000000005 -0.9998733333333335
endloop
endfacet
facet normal -1 0 0
outer loop
vertex -10.000116666666669 -4.9667200000000005 -0.5555466666666667
vertex -10.000116666666669 -28.000050000000005 -0.9998733333333335
vertex -10.000116666666669 -28.499986666666672 -0.9998733333333335
endloop
endfacet
facet normal -1 0 0
outer loop
vertex -10.000116666666669 -4.9667200000000005 -0.5555466666666667
vertex -10.000116666666669 -28.499986666666672 -0.9998733333333335
vertex -10.000116666666669 -28.499986666666672 0.9998733333333335
endloop
endfacet
facet normal -1 0 0
outer loop
vertex -10.000116666666669 -4.9667200000000005 -0.5555466666666667
vertex -10.000116666666669 -28.499986666666672 0.9998733333333335
vertex -10.000116666666669 28.499986666666672 0.9998733333333335
endloop
endfacet
facet normal -1 0 0
outer loop
vertex -10.000116666666669 27.35707666666667 -2.857136666666667
vertex -10.000116666666669 28.499986666666672 -0.9998733333333335
vertex -10.000116666666669 28.499986666666672 -2.0000233333333335
endloop
endfacet
facet normal -1 0 0
outer loop
vertex -10.000116666666669 27.35707666666667 -2.857136666666667
vertex -10.000116666666669 28.499986666666672 -2.0000233333333335
vertex -10.000116666666669 28.499986666666672 -4.99992
endloop
endfacet
facet normal -1 0 0
outer loop
vertex -10.000116666666669 27.35707666666667 -2.857136666666667
vertex -10.000116666666669 28.499986666666672 -4.99992
vertex -10.000116666666669 26.499963333333337 -4.99992
endloop
endfacet
facet normal -1 0 0
outer loop
vertex -10.000116666666669 27.35707666666667 -2.857136666666667
vertex -10.000116666666669 26.499963333333337 -4.99992
vertex -10.000116666666669 26.499963333333337 -4.000046666666667
endloop
endfacet
facet normal -1 0 0
outer loop
vertex -10.000116666666669 27.35707666666667 -2.857136666666667
vertex -10.000116666666669 26.499963333333337 -4.000046666666667
vertex -10.000116666666669 26.499963333333337 -2.0000233333333335
endloop
endfacet
facet normal -1 0 0
outer loop
vertex -10.000116666666669 27.35707666666667 -2.857136666666667
vertex -10.000116666666669 26.499963333333337 -2.0000233333333335
vertex -10.000116666666669 26.499963333333337 -0.9998733333333335
endloop
endfacet
facet normal -0.9999999999999999 0 0
outer loop
vertex -10.000116666666669 27.35707666666667 -2.857136666666667
vertex -10.000116666666669 26.499963333333337 -0.9998733333333335
vertex -10.000116666666669 28.499986666666672 -0.9998733333333335
endloop
endfacet
facet normal 1 0 0
outer loop
vertex 10.000116666666669 -4.9667200000000005 -0.5555466666666667
vertex 10.000116666666669 -28.499986666666672 0.9998733333333335
vertex 10.000116666666669 -28.499986666666672 -0.9998733333333335
endloop
endfacet
facet normal 1 0 0
outer loop
vertex 10.000116666666669 -4.9667200000000005 -0.5555466666666667
vertex 10.000116666666669 -28.499986666666672 -0.9998733333333335
vertex 10.000116666666669 -28.000050000000005 -0.9998733333333335
endloop
endfacet
facet normal 1 0 0
outer loop
vertex 10.000116666666669 -4.9667200000000005 -0.5555466666666667
vertex 10.000116666666669 -28.000050000000005 -0.9998733333333335
vertex 10.000116666666669 -24.000003333333336 -0.9998733333333335
endloop
endfacet
facet normal 1 0 0
outer loop
vertex 10.000116666666669 -4.9667200000000005 -0.5555466666666667
vertex 10.000116666666669 -24.000003333333336 -0.9998733333333335
vertex 10.000116666666669 -11.600080000000002 -0.9998733333333335
endloop
endfacet
facet normal 0.9999999999999999 0 0
outer loop
vertex 10.000116666666669 -4.9667200000000005 -0.5555466666666667
vertex 10.000116666666669 -11.600080000000002 -0.9998733333333335
vertex 10.000116666666669 -7.600033333333334 -0.9998733333333335
endloop
endfacet
facet normal 1 0 0
outer loop
vertex 10.000116666666669 -4.9667200000000005 -0.5555466666666667
vertex 10.000116666666669 -7.600033333333334 -0.9998733333333335
vertex 10.000116666666669 26.499963333333337 -0.9998733333333335
endloop
endfacet
facet normal 1 0 0
outer loop
vertex 10.000116666666669 -4.9667200000000005 -0.5555466666666667
vertex 10.000116666666669 26.499963333333337 -0.9998733333333335
vertex 10.000116666666669 28.499986666666672 -0.9998733333333335
endloop
endfacet
facet normal 1 0 0
outer loop
vertex 10.000116666666669 -4.9667200000000005 -0.5555466666666667
vertex 10.000116666666669 28.499986666666672 -0.9998733333333335
vertex 10.000116666666669 28.499986666666672 0.9998733333333335
endloop
endfacet
facet normal 1 0 0
outer loop
vertex 10.000116666666669 -4.9667200000000005 -0.5555466666666667
vertex 10.000116666666669 28.499986666666672 0.9998733333333335
vertex 10.000116666666669 -28.499986666666672 0.9998733333333335
endloop
endfacet
facet normal 1 0 0
outer loop
vertex 10.000116666666669 27.35707666666667 -2.857136666666667
vertex 10.000116666666669 26.499963333333337 -0.9998733333333335
vertex 10.000116666666669 26.499963333333337 -2.0000233333333335
endloop
endfacet
facet normal 1 0 0
outer loop
vertex 10.000116666666669 27.35707666666667 -2.857136666666667
vertex 10.000116666666669 26.499963333333337 -2.0000233333333335
vertex 10.000116666666669 26.499963333333337 -4.000046666666667
endloop
endfacet
facet normal 1 0 0
outer loop
vertex 10.000116666666669 27.35707666666667 -2.857136666666667
vertex 10.000116666666669 26.499963333333337 -4.000046666666667
vertex 10.000116666666669 26.499963333333337 -4.99992
endloop
endfacet
facet normal 1 0 0
outer loop
vertex 10.000116666666669 27.35707666666667 -2.857136666666667
vertex 10.000116666666669 26.499963333333337 -4.99992
vertex 10.000116666666669 28.499986666666672 -4.99992
endloop
endfacet
facet normal 1 0 0
outer loop
vertex 10.000116666666669 27.35707666666667 -2.857136666666667
vertex 10.000116666666669 28.499986666666672 -4.99992
vertex 10.000116666666669 28.499986666666672 -2.0000233333333335
endloop
endfacet
facet normal 1 0 0
outer loop
vertex 10.000116666666669 27.35707666666667 -2.857136666666667
vertex 10.000116666666669 28.499986666666672 -2.0000233333333335
vertex 10.000116666666669 28.499986666666672 -0.9998733333333335
endloop
endfacet
facet normal 0.9999999999999999 0 0
outer loop
vertex 10.000116666666669 27.35707666666667 -2.857136666666667
vertex 10.000116666666669 28.499986666666672 -0.9998733333333335
vertex 10.000116666666669 26.499963333333337 -0.9998733333333335
endloop
endfacet
facet normal 0 -1 0
outer loop
vertex -10.000116666666669 -28.499986666666672 -0.9998733333333335
vertex 10.000116666666669 -28.499986666666672 -0.9998733333333335
vertex 10.000116666666669 -28.499986666666672 0.9998733333333335
endloop
endfacet
facet normal 0 -1 0
outer loop
vertex -10.000116666666669 -28.499986666666672 -0.9998733333333335
vertex 10.000116666666669 -28.499986666666672 0.9998733333333335
vertex -10.000116666666669 -28.499986666666672 0.9998733333333335
endloop
endfacet
facet normal 0 1 0
outer loop
vertex 0 28.499986666666672 -0.9998733333333335
vertex 10.000116666666669 28.499986666666672 0.9998733333333335
vertex 10.000116666666669 28.499986666666672 -0.9998733333333335
endloop
endfacet
facet normal 0 1 0
outer loop
vertex 0 28.499986666666672 -0.9998733333333335
vertex 10.000116666666669 28.499986666666672 -0.9998733333333335
vertex 10.000116666666669 28.499986666666672 -2.0000233333333335
endloop
endfacet
facet normal 0 1 0
outer loop
vertex 0 28.499986666666672 -0.9998733333333335
vertex 10.000116666666669 28.499986666666672 -2.0000233333333335
vertex 4.000046666666667 28.499986666666672 -2.0000233333333335
endloop
endfacet
facet normal 0 1 0
outer loop
vertex 0 28.499986666666672 -0.9998733333333335
vertex 4.000046666666667 28.499986666666672 -2.0000233333333335
vertex -4.000046666666667 28.499986666666672 -2.0000233333333335
endloop
endfacet
facet normal 0 1 0
outer loop
vertex 0 28.499986666666672 -0.9998733333333335
vertex -4.000046666666667 28.499986666666672 -2.0000233333333335
vertex -10.000116666666669 28.499986666666672 -2.0000233333333335
endloop
endfacet
facet normal 0 1 0
outer loop
vertex 0 28.499986666666672 -0.9998733333333335
vertex -10.000116666666669 28.499986666666672 -2.0000233333333335
vertex -10.000116666666669 28.499986666666672 -0.9998733333333335
endloop
endfacet
facet normal 0 1 0
outer loop
vertex 0 28.499986666666672 -0.9998733333333335
vertex -10.000116666666669 28.499986666666672 -0.9998733333333335
vertex -10.000116666666669 28.499986666666672 0.9998733333333335
endloop
endfacet
facet normal 0 1 0
outer loop
vertex 0 28.499986666666672 -0.9998733333333335
vertex -10.000116666666669 28.499986666666672 0.9998733333333335
vertex 10.000116666666669 28.499986666666672 0.9998733333333335
endloop
endfacet
facet normal 0 1 0
outer loop
vertex -4.000046666666667 28.499986666666672 -2.0000233333333335
vertex -4.000046666666667 28.499986666666672 -4.99992
vertex -10.000116666666669 28.499986666666672 -4.99992
endloop
endfacet
facet normal 0 1 0
outer loop
vertex -4.000046666666667 28.499986666666672 -2.0000233333333335
vertex -10.000116666666669 28.499986666666672 -4.99992
vertex -10.000116666666669 28.499986666666672 -2.0000233333333335
endloop
endfacet
facet normal 0 1 0
outer loop
vertex 10.000116666666669 28.499986666666672 -2.0000233333333335
vertex 10.000116666666669 28.499986666666672 -4.99992
vertex 4.000046666666667 28.499986666666672 -4.99992
endloop
endfacet
facet normal 0 1 0
outer loop
vertex 10.000116666666669 28.499986666666672 -2.0000233333333335
vertex 4.000046666666667 28.499986666666672 -4.99992
vertex 4.000046666666667 28.499986666666672 -2.0000233333333335
endloop
endfacet
facet normal 0 0 1
outer loop
vertex -10.000116666666669 -28.499986666666672 0.9998733333333335
vertex 10.000116666666669 -28.499986666666672 0.9998733333333335
vertex 10.000116666666669 28.499986666666672 0.9998733333333335
endloop
endfacet
facet normal 0 0 1
outer loop
vertex -10.000116666666669 -28.499986666666672 0.9998733333333335
vertex 10.000116666666669 28.499986666666672 0.9998733333333335
vertex -10.000116666666669 28.499986666666672 0.9998733333333335
endloop
endfacet
facet normal 0 0 -1
outer loop
vertex 0 0.9248966666666668 -0.9998733333333335
vertex 10.000116666666669 26.499963333333337 -0.9998733333333335
vertex 10.000116666666669 -7.600033333333334 -0.9998733333333335
endloop
endfacet
facet normal 0 0 -1
outer loop
vertex 0 0.9248966666666668 -0.9998733333333335
vertex 10.000116666666669 -7.600033333333334 -0.9998733333333335
vertex 9.699933333333334 -7.600033333333334 -0.9998733333333335
endloop
endfacet
facet normal 0 0 -1
outer loop
vertex 0 0.9248966666666668 -0.9998733333333335
vertex 9.699933333333334 -7.600033333333334 -0.9998733333333335
vertex 5.699886666666668 -7.600033333333334 -0.9998733333333335
endloop
endfacet
facet normal 0 0 -1
outer loop
vertex 0 0.9248966666666668 -0.9998733333333335
vertex 5.699886666666668 -7.600033333333334 -0.9998733333333335
vertex -5.699886666666668 -7.600033333333334 -0.9998733333333335
endloop
endfacet
facet normal 0 0 -1
outer loop
vertex 0 0.9248966666666668 -0.9998733333333335
vertex -5.699886666666668 -7.600033333333334 -0.9998733333333335
vertex -9.699933333333334 -7.600033333333334 -0.9998733333333335
endloop
endfacet
facet normal 0 0 -1
outer loop
vertex 0 0.9248966666666668 -0.9998733333333335
vertex -9.699933333333334 -7.600033333333334 -0.9998733333333335
vertex -10.000116666666669 -7.600033333333334 -0.9998733333333335
endloop
endfacet
facet normal 0 0 -1
outer loop
vertex 0 0.9248966666666668 -0.9998733333333335
vertex -10.000116666666669 -7.600033333333334 -0.9998733333333335
vertex -10.000116666666669 26.499963333333337 -0.9998733333333335
endloop
endfacet
facet normal 0 0 -0.9999999999999999
outer loop
vertex 0 0.9248966666666668 -0.9998733333333335
vertex -10.000116666666669 26.499963333333337 -0.9998733333333335
vertex 10.000116666666669 26.499963333333337 -0.9998733333333335
endloop
endfacet
facet normal 0 0 -1
outer loop
vertex -9.699933333333334 -7.600033333333334 -0.9998733333333335
vertex -9.699933333333334 -11.600080000000002 -0.9998733333333335
vertex -10.000116666666669 -11.600080000000002 -0.9998733333333335
endloop
endfacet
facet normal 0 0 -1
outer loop
vertex -9.699933333333334 -7.600033333333334 -0.9998733333333335
vertex -10.000116666666669 -11.600080000000002 -0.9998733333333335
vertex -10.000116666666669 -7.600033333333334 -0.9998733333333335
endloop
endfacet
facet normal 0 0 -0.9999999999999999
outer loop
vertex 5.699886666666668 -7.600033333333334 -0.9998733333333335
vertex 5.699886666666668 -11.600080000000002 -0.9998733333333335
vertex -5.699886666666668 -11.600080000000002 -0.9998733333333335
endloop
endfacet
facet normal 0 0 -0.9999999999999999
outer loop
vertex 5.699886666666668 -7.600033333333334 -0.9998733333333335
vertex -5.699886666666668 -11.600080000000002 -0.9998733333333335
vertex -5.699886666666668 -7.600033333333334 -0.9998733333333335
endloop
endfacet
facet normal 0 0 -1
outer loop
vertex 10.000116666666669 -7.600033333333334 -0.9998733333333335
vertex 10.000116666666669 -11.600080000000002 -0.9998733333333335
vertex 9.699933333333334 -11.600080000000002 -0.9998733333333335
endloop
endfacet
facet normal 0 0 -1
outer loop
vertex 10.000116666666669 -7.600033333333334 -0.9998733333333335
vertex 9.699933333333334 -11.600080000000002 -0.9998733333333335
vertex 9.699933333333334 -7.600033333333334 -0.9998733333333335
endloop
endfacet
facet normal 0 0 -1
outer loop
vertex 0 -17.799903333333337 -0.9998733333333335
vertex -9.699933333333334 -11.600080000000002 -0.9998733333333335
vertex -5.699886666666668 -11.600080000000002 -0.9998733333333335
endloop
endfacet
facet normal 0 0 -1
outer loop
vertex 0 -17.799903333333337 -0.9998733333333335
vertex -5.699886666666668 -11.600080000000002 -0.9998733333333335
vertex 5.699886666666668 -11.600080000000002 -0.9998733333333335
endloop
endfacet
facet normal 0 0 -1
outer loop
vertex 0 -17.799903333333337 -0.9998733333333335
vertex 5.699886666666668 -11.600080000000002 -0.9998733333333335
vertex 9.699933333333334 -11.600080000000002 -0.9998733333333335
endloop
endfacet
facet normal 0 0 -1
outer loop
vertex 0 -17.799903333333337 -0.9998733333333335
vertex 9.699933333333334 -11.600080000000002 -0.9998733333333335
vertex 10.000116666666669 -11.600080000000002 -0.9998733333333335
endloop
endfacet
facet normal 0 0 -1
outer loop
vertex 0 -17.799903333333337 -0.9998733333333335
vertex 10.000116666666669 -11.600080000000002 -0.9998733333333335
vertex 10.000116666666669 -24.000003333333336 -0.9998733333333335
endloop
endfacet
facet normal 0 0 -1
outer loop
vertex 0 -17.799903333333337 -0.9998733333333335
vertex 10.000116666666669 -24.000003333333336 -0.9998733333333335
vertex 9.699933333333334 -24.000003333333336 -0.9998733333333335
endloop
endfacet
facet normal 0 0 -1
outer loop
vertex 0 -17.799903333333337 -0.9998733333333335
vertex 9.699933333333334 -24.000003333333336 -0.9998733333333335
vertex 5.699886666666668 -24.000003333333336 -0.9998733333333335
endloop
endfacet
facet normal 0 0 -1
outer loop
vertex 0 -17.799903333333337 -0.9998733333333335
vertex 5.699886666666668 -24.000003333333336 -0.9998733333333335
vertex -5.699886666666668 -24.000003333333336 -0.9998733333333335
endloop
endfacet
facet normal 0 0 -1
outer loop
vertex 0 -17.799903333333337 -0.9998733333333335
vertex -5.699886666666668 -24.000003333333336 -0.9998733333333335
vertex -9.699933333333334 -24.000003333333336 -0.9998733333333335
endloop
endfacet
facet normal 0 0 -1
outer loop
vertex 0 -17.799903333333337 -0.9998733333333335
vertex -9.699933333333334 -24.000003333333336 -0.9998733333333335
vertex -10.000116666666669 -24.000003333333336 -0.9998733333333335
endloop
endfacet
facet normal 0 0 -1
outer loop
vertex 0 -17.799903333333337 -0.9998733333333335
vertex -10.000116666666669 -24.000003333333336 -0.9998733333333335
vertex -10.000116666666669 -11.600080000000002 -0.9998733333333335
endloop
endfacet
facet normal 0 0 -1
outer loop
vertex 0 -17.799903333333337 -0.9998733333333335
vertex -10.000116666666669 -11.600080000000002 -0.9998733333333335
vertex -9.699933333333334 -11.600080000000002 -0.9998733333333335
endloop
endfacet
facet normal 0 0 -1
outer loop
vertex -9.699933333333334 -24.000003333333336 -0.9998733333333335
vertex -9.699933333333334 -28.000050000000005 -0.9998733333333335
vertex -10.000116666666669 -28.000050000000005 -0.9998733333333335
endloop
endfacet
facet normal 0 0 -1
outer loop
vertex -9.699933333333334 -24.000003333333336 -0.9998733333333335
vertex -10.000116666666669 -28.000050000000005 -0.9998733333333335
vertex -10.000116666666669 -24.000003333333336 -0.9998733333333335
endloop
endfacet
facet normal 0 0 -0.9999999999999999
outer loop
vertex 5.699886666666668 -24.000003333333336 -0.9998733333333335
vertex 5.699886666666668 -28.000050000000005 -0.9998733333333335
vertex -5.699886666666668 -28.000050000000005 -0.9998733333333335
endloop
endfacet
facet normal 0 0 -0.9999999999999999
outer loop
vertex 5.699886666666668 -24.000003333333336 -0.9998733333333335
vertex -5.699886666666668 -28.000050000000005 -0.9998733333333335
vertex -5.699886666666668 -24.000003333333336 -0.9998733333333335
endloop
endfacet
facet normal 0 0 -1
outer loop
vertex 10.000116666666669 -24.000003333333336 -0.9998733333333335
vertex 10.000116666666669 -28.000050000000005 -0.9998733333333335
vertex 9.699933333333334 -28.000050000000005 -0.9998733333333335
endloop
endfacet
facet normal 0 0 -1
outer loop
vertex 10.000116666666669 -24.000003333333336 -0.9998733333333335
vertex 9.699933333333334 -28.000050000000005 -0.9998733333333335
vertex 9.699933333333334 -24.000003333333336 -0.9998733333333335
endloop
endfacet
facet normal 0 0 -1
outer loop
vertex 0 -28.12510333333334 -0.9998733333333335
vertex -9.699933333333334 -28.000050000000005 -0.9998733333333335
vertex -5.699886666666668 -28.000050000000005 -0.9998733333333335
endloop
endfacet
facet normal 0 0 -0.9999999999999999
outer loop
vertex 0 -28.12510333333334 -0.9998733333333335
vertex -5.699886666666668 -28.000050000000005 -0.9998733333333335
vertex 5.699886666666668 -28.000050000000005 -0.9998733333333335
endloop
endfacet
facet normal 0 0 -1
outer loop
vertex 0 -28.12510333333334 -0.9998733333333335
vertex 5.699886666666668 -28.000050000000005 -0.9998733333333335
vertex 9.699933333333334 -28.000050000000005 -0.9998733333333335
endloop
endfacet
facet normal 0 0 -0.9999999999999999
outer loop
vertex 0 -28.12510333333334 -0.9998733333333335
vertex 9.699933333333334 -28.000050000000005 -0.9998733333333335
vertex 10.000116666666669 -28.000050000000005 -0.9998733333333335
endloop
endfacet
facet normal 0 0 -1
outer loop
vertex 0 -28.12510333333334 -0.9998733333333335
vertex 10.000116666666669 -28.000050000000005 -0.9998733333333335
vertex 10.000116666666669 -28.499986666666672 -0.9998733333333335
endloop
endfacet
facet normal 0 0 -0.9999999999999999
outer loop
vertex 0 -28.12510333333334 -0.9998733333333335
vertex 10.000116666666669 -28.499986666666672 -0.9998733333333335
vertex -10.000116666666669 -28.499986666666672 -0.9998733333333335
endloop
endfacet
facet normal 0 0 -1
outer loop
vertex 0 -28.12510333333334 -0.9998733333333335
vertex -10.000116666666669 -28.499986666666672 -0.9998733333333335
vertex -10.000116666666669 -28.000050000000005 -0.9998733333333335
endloop
endfacet
facet normal 0 0 -0.9999999999999999
outer loop
vertex 0 -28.12510333333334 -0.9998733333333335
vertex -10.000116666666669 -28.000050000000005 -0.9998733333333335
vertex -9.699933333333334 -28.000050000000005 -0.9998733333333335
endloop
endfacet
facet normal -0.8660443184081149 -0.49996723747964106 0
outer loop
vertex 9.199996666666667 -9.600056666666669 -2.49996
vertex 9.199996666666667 -9.600056666666669 -0.49993666666666675
vertex 8.449953333333335 -8.300830000000001 -0.49993666666666675
endloop
endfacet
facet normal -0.8660443184081149 -0.49996723747964106 0
outer loop
vertex 9.199996666666667 -9.600056666666669 -2.49996
vertex 8.449953333333335 -8.300830000000001 -0.49993666666666675
vertex 8.449953333333335 -8.300830000000001 -2.49996
endloop
endfacet
facet normal 0 0 -1
outer loop
vertex -7.699910000000001 -9.600056666666669 -0.49993666666666675
vertex -6.949866666666668 -8.300830000000001 -0.49993666666666675
vertex -6.200100000000001 -9.600056666666669 -0.49993666666666675
endloop
endfacet
facet normal 0 0 -0.9999999999999999
outer loop
vertex -7.699910000000001 -9.600056666666669 -0.49993666666666675
vertex -6.200100000000001 -9.600056666666669 -0.49993666666666675
vertex -6.949866666666668 -10.899006666666669 -0.49993666666666675
endloop
endfacet
facet normal 0 0 -0.9999999999999999
outer loop
vertex -7.699910000000001 -9.600056666666669 -0.49993666666666675
vertex -6.949866666666668 -10.899006666666669 -0.49993666666666675
vertex -8.449953333333335 -10.899006666666669 -0.49993666666666675
endloop
endfacet
facet normal 0 0 -1
outer loop
vertex -7.699910000000001 -9.600056666666669 -0.49993666666666675
vertex -8.449953333333335 -10.899006666666669 -0.49993666666666675
vertex -9.199996666666667 -9.600056666666669 -0.49993666666666675
endloop
endfacet
facet normal 0 0 -0.9999999999999999
outer loop
vertex -7.699910000000001 -9.600056666666669 -0.49993666666666675
vertex -9.199996666666667 -9.600056666666669 -0.49993666666666675
vertex -8.449953333333335 -8.300830000000001 -0.49993666666666675
endloop
endfacet
facet normal 0 0 -1
outer loop
vertex -7.699910000000001 -9.600056666666669 -0.49993666666666675
vertex -8.449953333333335 -8.300830000000001 -0.49993666666666675
vertex -6.949866666666668 -8.300830000000001 -0.49993666666666675
endloop
endfacet
facet normal 0 0 -0.9999999999999999
outer loop
vertex 7.699910000000001 -9.600056666666669 -0.49993666666666675
vertex 8.449953333333335 -8.300830000000001 -0.49993666666666675
vertex 9.199996666666667 -9.600056666666669 -0.49993666666666675
endloop
endfacet
facet normal 0 0 -1
outer loop
vertex 7.699910000000001 -9.600056666666669 -0.49993666666666675
vertex 9.199996666666667 -9.600056666666669 -0.49993666666666675
vertex 8.449953333333335 -10.899006666666669 -0.49993666666666675
endloop
endfacet
facet normal 0 0 -0.9999999999999999
outer loop
vertex 7.699910000000001 -9.600056666666669 -0.49993666666666675
vertex 8.449953333333335 -10.899006666666669 -0.49993666666666675
vertex 6.949866666666668 -10.899006666666669 -0.49993666666666675
endloop
endfacet
facet normal 0 0 -0.9999999999999999
outer loop
vertex 7.699910000000001 -9.600056666666669 -0.49993666666666675
vertex 6.949866666666668 -10.899006666666669 -0.49993666666666675
vertex 6.200100000000001 -9.600056666666669 -0.49993666666666675
endloop
endfacet
facet normal 0 0 -1
outer loop
vertex 7.699910000000001 -9.600056666666669 -0.49993666666666675
vertex 6.200100000000001 -9.600056666666669 -0.49993666666666675
vertex 6.949866666666668 -8.300830000000001 -0.49993666666666675
endloop
endfacet
facet normal 0 0 -1
outer loop
vertex 7.699910000000001 -9.600056666666669 -0.49993666666666675
vertex 6.949866666666668 -8.300830000000001 -0.49993666666666675
vertex 8.449953333333335 -8.300830000000001 -0.49993666666666675
endloop
endfacet
facet normal 0 0 -1
outer loop
vertex -7.699910000000001 -26.00002666666667 -0.49993666666666675
vertex -6.949866666666668 -24.70107666666667 -0.49993666666666675
vertex -6.200100000000001 -26.00002666666667 -0.49993666666666675
endloop
endfacet
facet normal 0 0 -1
outer loop
vertex -7.699910000000001 -26.00002666666667 -0.49993666666666675
vertex -6.200100000000001 -26.00002666666667 -0.49993666666666675
vertex -6.949866666666668 -27.29897666666667 -0.49993666666666675
endloop
endfacet
facet normal 0 0 -1
outer loop
vertex -7.699910000000001 -26.00002666666667 -0.49993666666666675
vertex -6.949866666666668 -27.29897666666667 -0.49993666666666675
vertex -8.449953333333335 -27.29897666666667 -0.49993666666666675
endloop
endfacet
facet normal 0 0 -1
outer loop
vertex -7.699910000000001 -26.00002666666667 -0.49993666666666675
vertex -8.449953333333335 -27.29897666666667 -0.49993666666666675
vertex -9.199996666666667 -26.00002666666667 -0.49993666666666675
endloop
endfacet
facet normal 0 0 -1
outer loop
vertex -7.699910000000001 -26.00002666666667 -0.49993666666666675
vertex -9.199996666666667 -26.00002666666667 -0.49993666666666675
vertex -8.449953333333335 -24.70107666666667 -0.49993666666666675
endloop
endfacet
facet normal 0 0 -1
outer loop
vertex -7.699910000000001 -26.00002666666667 -0.49993666666666675
vertex -8.449953333333335 -24.70107666666667 -0.49993666666666675
vertex -6.949866666666668 -24.70107666666667 -0.49993666666666675
endloop
endfacet
facet normal 0 0 -1
outer loop
vertex 7.699910000000001 -26.00002666666667 -0.49993666666666675
vertex 8.449953333333335 -24.70107666666667 -0.49993666666666675
vertex 9.199996666666667 -26.00002666666667 -0.49993666666666675
endloop
endfacet
facet normal 0 0 -1
outer loop
vertex 7.699910000000001 -26.00002666666667 -0.49993666666666675
vertex 9.199996666666667 -26.00002666666667 -0.49993666666666675
vertex 8.449953333333335 -27.29897666666667 -0.49993666666666675
endloop
endfacet
facet normal 0 0 -1
outer loop
vertex 7.699910000000001 -26.00002666666667 -0.49993666666666675
vertex 8.449953333333335 -27.29897666666667 -0.49993666666666675
vertex 6.949866666666668 -27.29897666666667 -0.49993666666666675
endloop
endfacet
facet normal 0 0 -1
outer loop
vertex 7.699910000000001 -26.00002666666667 -0.49993666666666675
vertex 6.949866666666668 -27.29897666666667 -0.49993666666666675
vertex 6.200100000000001 -26.00002666666667 -0.49993666666666675
endloop
endfacet
facet normal 0 0 -1
outer loop
vertex 7.699910000000001 -26.00002666666667 -0.49993666666666675
vertex 6.200100000000001 -26.00002666666667 -0.49993666666666675
vertex 6.949866666666668 -24.70107666666667 -0.49993666666666675
endloop
endfacet
facet normal 0 0 -1
outer loop
vertex 7.699910000000001 -26.00002666666667 -0.49993666666666675
vertex 6.949866666666668 -24.70107666666667 -0.49993666666666675
vertex 8.449953333333335 -24.70107666666667 -0.49993666666666675
endloop
endfacet
facet normal 0 -1 0
outer loop
vertex 6.949866666666668 -8.300830000000001 -0.49993666666666675
vertex 6.949866666666668 -8.300830000000001 -2.49996
vertex 8.449953333333335 -8.300830000000001 -2.49996
endloop
endfacet
facet normal 0 -1 0
outer loop
vertex 6.949866666666668 -8.300830000000001 -0.49993666666666675
vertex 8.449953333333335 -8.300830000000001 -2.49996
vertex 8.449953333333335 -8.300830000000001 -0.49993666666666675
endloop
endfacet
facet normal 0 -1 0
outer loop
vertex -8.449953333333335 -8.300830000000001 -0.49993666666666675
vertex -8.449953333333335 -8.300830000000001 -2.49996
vertex -6.949866666666668 -8.300830000000001 -2.49996
endloop
endfacet
facet normal 0 -1 0
outer loop
vertex -8.449953333333335 -8.300830000000001 -0.49993666666666675
vertex -6.949866666666668 -8.300830000000001 -2.49996
vertex -6.949866666666668 -8.300830000000001 -0.49993666666666675
endloop
endfacet
facet normal 0.8661241681737682 -0.499828896028729 0
outer loop
vertex 6.949866666666668 -8.300830000000001 -2.49996
vertex 6.949866666666668 -8.300830000000001 -0.49993666666666675
vertex 6.200100000000001 -9.600056666666669 -0.49993666666666675
endloop
endfacet
facet normal 0.8661241681737682 -0.499828896028729 0
outer loop
vertex 6.949866666666668 -8.300830000000001 -2.49996
vertex 6.200100000000001 -9.600056666666669 -0.49993666666666675
vertex 6.200100000000001 -9.600056666666669 -2.49996
endloop
endfacet
facet normal 0.8660780790064011 0.4999087527385194 0
outer loop
vertex 6.200100000000001 -9.600056666666669 -2.49996
vertex 6.200100000000001 -9.600056666666669 -0.49993666666666675
vertex 6.949866666666668 -10.899006666666669 -0.49993666666666675
endloop
endfacet
facet normal 0.8660780790064011 0.4999087527385194 0
outer loop
vertex 6.200100000000001 -9.600056666666669 -2.49996
vertex 6.949866666666668 -10.899006666666669 -0.49993666666666675
vertex 6.949866666666668 -10.899006666666669 -2.49996
endloop
endfacet
facet normal 0 1 0
outer loop
vertex -6.949866666666668 -10.899006666666669 -0.49993666666666675
vertex -6.949866666666668 -10.899006666666669 -2.49996
vertex -8.449953333333335 -10.899006666666669 -2.49996
endloop
endfacet
facet normal 0 1 0
outer loop
vertex -6.949866666666668 -10.899006666666669 -0.49993666666666675
vertex -8.449953333333335 -10.899006666666669 -2.49996
vertex -8.449953333333335 -10.899006666666669 -0.49993666666666675
endloop
endfacet
facet normal 0 1 0
outer loop
vertex 8.449953333333335 -10.899006666666669 -0.49993666666666675
vertex 8.449953333333335 -10.899006666666669 -2.49996
vertex 6.949866666666668 -10.899006666666669 -2.49996
endloop
endfacet
facet normal 0 1 0
outer loop
vertex 8.449953333333335 -10.899006666666669 -0.49993666666666675
vertex 6.949866666666668 -10.899006666666669 -2.49996
vertex 6.949866666666668 -10.899006666666669 -0.49993666666666675
endloop
endfacet
facet normal -0.8659982079777621 0.5000471015607477 0
outer loop
vertex 8.449953333333335 -10.899006666666669 -2.49996
vertex 8.449953333333335 -10.899006666666669 -0.49993666666666675
vertex 9.199996666666667 -9.600056666666669 -0.49993666666666675
endloop
endfacet
facet normal -0.8659982079777621 0.5000471015607477 0
outer loop
vertex 8.449953333333335 -10.899006666666669 -2.49996
vertex 9.199996666666667 -9.600056666666669 -0.49993666666666675
vertex 9.199996666666667 -9.600056666666669 -2.49996
endloop
endfacet
facet normal 0 0 -1
outer loop
vertex -7.699910000000001 -8.067323333333334 -2.49996
vertex -5.699886666666668 -7.600033333333334 -2.49996
vertex -5.699886666666668 -8.300830000000001 -2.49996
endloop
endfacet
facet normal 0 0 -0.9999999999999999
outer loop
vertex -7.699910000000001 -8.067323333333334 -2.49996
vertex -5.699886666666668 -8.300830000000001 -2.49996
vertex -6.949866666666668 -8.300830000000001 -2.49996
endloop
endfacet
facet normal 0 0 -1
outer loop
vertex -7.699910000000001 -8.067323333333334 -2.49996
vertex -6.949866666666668 -8.300830000000001 -2.49996
vertex -8.449953333333335 -8.300830000000001 -2.49996
endloop
endfacet
facet normal 0 0 -1
outer loop
vertex -7.699910000000001 -8.067323333333334 -2.49996
vertex -8.449953333333335 -8.300830000000001 -2.49996
vertex -9.699933333333334 -8.300830000000001 -2.49996
endloop
endfacet
facet normal 0 0 -1
outer loop
vertex -7.699910000000001 -8.067323333333334 -2.49996
vertex -9.699933333333334 -8.300830000000001 -2.49996
vertex -9.699933333333334 -7.600033333333334 -2.49996
endloop
endfacet
facet normal 0 0 -1
outer loop
vertex -7.699910000000001 -8.067323333333334 -2.49996
vertex -9.699933333333334 -7.600033333333334 -2.49996
vertex -5.699886666666668 -7.600033333333334 -2.49996
endloop
endfacet
facet normal 0 0 -1
outer loop
vertex 7.699910000000001 -8.067323333333334 -2.49996
vertex 9.699933333333334 -7.600033333333334 -2.49996
vertex 9.699933333333334 -8.300830000000001 -2.49996
endloop
endfacet
facet normal 0 0 -1
outer loop
vertex 7.699910000000001 -8.067323333333334 -2.49996
vertex 9.699933333333334 -8.300830000000001 -2.49996
vertex 8.449953333333335 -8.300830000000001 -2.49996
endloop
endfacet
facet normal 0 0 -1
outer loop
vertex 7.699910000000001 -8.067323333333334 -2.49996
vertex 8.449953333333335 -8.300830000000001 -2.49996
vertex 6.949866666666668 -8.300830000000001 -2.49996
endloop
endfacet
facet normal 0 0 -0.9999999999999999
outer loop
vertex 7.699910000000001 -8.067323333333334 -2.49996
vertex 6.949866666666668 -8.300830000000001 -2.49996
vertex 5.699886666666668 -8.300830000000001 -2.49996
endloop
endfacet
facet normal 0 0 -1
outer loop
vertex 7.699910000000001 -8.067323333333334 -2.49996
vertex 5.699886666666668 -8.300830000000001 -2.49996
vertex 5.699886666666668 -7.600033333333334 -2.49996
endloop
endfacet
facet normal 0 0 -1
outer loop
vertex 7.699910000000001 -8.067323333333334 -2.49996
vertex 5.699886666666668 -7.600033333333334 -2.49996
vertex 9.699933333333334 -7.600033333333334 -2.49996
endloop
endfacet
facet normal 0 0 -1
outer loop
vertex -8.449953333333335 -8.300830000000001 -2.49996
vertex -9.199996666666667 -9.600056666666669 -2.49996
vertex -9.699933333333334 -9.600056666666669 -2.49996
endloop
endfacet
facet normal 0 0 -1
outer loop
vertex -8.449953333333335 -8.300830000000001 -2.49996
vertex -9.699933333333334 -9.600056666666669 -2.49996
vertex -9.699933333333334 -8.300830000000001 -2.49996
endloop
endfacet
facet normal 0 0 -1
outer loop
vertex -5.699886666666668 -8.300830000000001 -2.49996
vertex -5.699886666666668 -9.600056666666669 -2.49996
vertex -6.200100000000001 -9.600056666666669 -2.49996
endloop
endfacet
facet normal 0 0 -1
outer loop
vertex -5.699886666666668 -8.300830000000001 -2.49996
vertex -6.200100000000001 -9.600056666666669 -2.49996
vertex -6.949866666666668 -8.300830000000001 -2.49996
endloop
endfacet
facet normal 0 0 -0.9999999999999999
outer loop
vertex 6.949866666666668 -8.300830000000001 -2.49996
vertex 6.200100000000001 -9.600056666666669 -2.49996
vertex 5.699886666666668 -9.600056666666669 -2.49996
endloop
endfacet
facet normal 0 0 -1
outer loop
vertex 6.949866666666668 -8.300830000000001 -2.49996
vertex 5.699886666666668 -9.600056666666669 -2.49996
vertex 5.699886666666668 -8.300830000000001 -2.49996
endloop
endfacet
facet normal 0 0 -1
outer loop
vertex 9.699933333333334 -8.300830000000001 -2.49996
vertex 9.699933333333334 -9.600056666666669 -2.49996
vertex 9.199996666666667 -9.600056666666669 -2.49996
endloop
endfacet
facet normal 0 0 -1
outer loop
vertex 9.699933333333334 -8.300830000000001 -2.49996
vertex 9.199996666666667 -9.600056666666669 -2.49996
vertex 8.449953333333335 -8.300830000000001 -2.49996
endloop
endfacet
facet normal 0 0 -0.9999999999999999
outer loop
vertex -9.199996666666667 -9.600056666666669 -2.49996
vertex -8.449953333333335 -10.899006666666669 -2.49996
vertex -9.699933333333334 -10.899006666666669 -2.49996
endloop
endfacet
facet normal 0 0 -1
outer loop
vertex -9.199996666666667 -9.600056666666669 -2.49996
vertex -9.699933333333334 -10.899006666666669 -2.49996
vertex -9.699933333333334 -9.600056666666669 -2.49996
endloop
endfacet
facet normal 0 0 -1
outer loop
vertex -5.699886666666668 -9.600056666666669 -2.49996
vertex -5.699886666666668 -10.899006666666669 -2.49996
vertex -6.949866666666668 -10.899006666666669 -2.49996
endloop
endfacet
facet normal 0 0 -1
outer loop
vertex -5.699886666666668 -9.600056666666669 -2.49996
vertex -6.949866666666668 -10.899006666666669 -2.49996
vertex -6.200100000000001 -9.600056666666669 -2.49996
endloop
endfacet
facet normal 0 0 -1
outer loop
vertex 6.200100000000001 -9.600056666666669 -2.49996
vertex 6.949866666666668 -10.899006666666669 -2.49996
vertex 5.699886666666668 -10.899006666666669 -2.49996
endloop
endfacet
facet normal 0 0 -1
outer loop
vertex 6.200100000000001 -9.600056666666669 -2.49996
vertex 5.699886666666668 -10.899006666666669 -2.49996
vertex 5.699886666666668 -9.600056666666669 -2.49996
endloop
endfacet
facet normal 0 0 -1
outer loop
vertex 9.699933333333334 -9.600056666666669 -2.49996
vertex 9.699933333333334 -10.899006666666669 -2.49996
vertex 8.449953333333335 -10.899006666666669 -2.49996
endloop
endfacet
facet normal 0 0 -1
outer loop
vertex 9.699933333333334 -9.600056666666669 -2.49996
vertex 8.449953333333335 -10.899006666666669 -2.49996
vertex 9.199996666666667 -9.600056666666669 -2.49996
endloop
endfacet
facet normal 0 0 -1
outer loop
vertex -7.699910000000001 -11.132790000000002 -2.49996
vertex -8.449953333333335 -10.899006666666669 -2.49996
vertex -6.949866666666668 -10.899006666666669 -2.49996
endloop
endfacet
facet normal 0 0 -1
outer loop
vertex -7.699910000000001 -11.132790000000002 -2.49996
vertex -6.949866666666668 -10.899006666666669 -2.49996
vertex -5.699886666666668 -10.899006666666669 -2.49996
endloop
endfacet
facet normal 0 0 -1
outer loop
vertex -7.699910000000001 -11.132790000000002 -2.49996
vertex -5.699886666666668 -10.899006666666669 -2.49996
vertex -5.699886666666668 -11.600080000000002 -2.49996
endloop
endfacet
facet normal 0 0 -1
outer loop
vertex -7.699910000000001 -11.132790000000002 -2.49996
vertex -5.699886666666668 -11.600080000000002 -2.49996
vertex -9.699933333333334 -11.600080000000002 -2.49996
endloop
endfacet
facet normal 0 0 -1
outer loop
vertex -7.699910000000001 -11.132790000000002 -2.49996
vertex -9.699933333333334 -11.600080000000002 -2.49996
vertex -9.699933333333334 -10.899006666666669 -2.49996
endloop
endfacet
facet normal 0 0 -1
outer loop
vertex -7.699910000000001 -11.132790000000002 -2.49996
vertex -9.699933333333334 -10.899006666666669 -2.49996
vertex -8.449953333333335 -10.899006666666669 -2.49996
endloop
endfacet
facet normal 0 0 -1
outer loop
vertex 7.699910000000001 -11.132790000000002 -2.49996
vertex 6.949866666666668 -10.899006666666669 -2.49996
vertex 8.449953333333335 -10.899006666666669 -2.49996
endloop
endfacet
facet normal 0 0 -1
outer loop
vertex 7.699910000000001 -11.132790000000002 -2.49996
vertex 8.449953333333335 -10.899006666666669 -2.49996
vertex 9.699933333333334 -10.899006666666669 -2.49996
endloop
endfacet
facet normal 0 0 -1
outer loop
vertex 7.699910000000001 -11.132790000000002 -2.49996
vertex 9.699933333333334 -10.899006666666669 -2.49996
vertex 9.699933333333334 -11.600080000000002 -2.49996
endloop
endfacet
facet normal 0 0 -1
outer loop
vertex 7.699910000000001 -11.132790000000002 -2.49996
vertex 9.699933333333334 -11.600080000000002 -2.49996
vertex 5.699886666666668 -11.600080000000002 -2.49996
endloop
endfacet
facet normal 0 0 -1
outer loop
vertex 7.699910000000001 -11.132790000000002 -2.49996
vertex 5.699886666666668 -11.600080000000002 -2.49996
vertex 5.699886666666668 -10.899006666666669 -2.49996
endloop
endfacet
facet normal 0 0 -1
outer loop
vertex 7.699910000000001 -11.132790000000002 -2.49996
vertex 5.699886666666668 -10.899006666666669 -2.49996
vertex 6.949866666666668 -10.899006666666669 -2.49996
endloop
endfacet
facet normal 0 0 -1
outer loop
vertex -7.699910000000001 -24.467293333333338 -2.49996
vertex -5.699886666666668 -24.000003333333336 -2.49996
vertex -5.699886666666668 -24.70107666666667 -2.49996
endloop
endfacet
facet normal 0 0 -1
outer loop
vertex -7.699910000000001 -24.467293333333338 -2.49996
vertex -5.699886666666668 -24.70107666666667 -2.49996
vertex -6.949866666666668 -24.70107666666667 -2.49996
endloop
endfacet
facet normal 0 0 -1
outer loop
vertex -7.699910000000001 -24.467293333333338 -2.49996
vertex -6.949866666666668 -24.70107666666667 -2.49996
vertex -8.449953333333335 -24.70107666666667 -2.49996
endloop
endfacet
facet normal 0 0 -1
outer loop
vertex -7.699910000000001 -24.467293333333338 -2.49996
vertex -8.449953333333335 -24.70107666666667 -2.49996
vertex -9.699933333333334 -24.70107666666667 -2.49996
endloop
endfacet
facet normal 0 0 -1
outer loop
vertex -7.699910000000001 -24.467293333333338 -2.49996
vertex -9.699933333333334 -24.70107666666667 -2.49996
vertex -9.699933333333334 -24.000003333333336 -2.49996
endloop
endfacet
facet normal 0 0 -1
outer loop
vertex -7.699910000000001 -24.467293333333338 -2.49996
vertex -9.699933333333334 -24.000003333333336 -2.49996
vertex -5.699886666666668 -24.000003333333336 -2.49996
endloop
endfacet
facet normal 0 0 -1
outer loop
vertex 7.699910000000001 -24.467293333333338 -2.49996
vertex 9.699933333333334 -24.000003333333336 -2.49996
vertex 9.699933333333334 -24.70107666666667 -2.49996
endloop
endfacet
facet normal 0 0 -1
outer loop
vertex 7.699910000000001 -24.467293333333338 -2.49996
vertex 9.699933333333334 -24.70107666666667 -2.49996
vertex 8.449953333333335 -24.70107666666667 -2.49996
endloop
endfacet
facet normal 0 0 -1
outer loop
vertex 7.699910000000001 -24.467293333333338 -2.49996
vertex 8.449953333333335 -24.70107666666667 -2.49996
vertex 6.949866666666668 -24.70107666666667 -2.49996
endloop
endfacet
facet normal 0 0 -1
outer loop
vertex 7.699910000000001 -24.467293333333338 -2.49996
vertex 6.949866666666668 -24.70107666666667 -2.49996
vertex 5.699886666666668 -24.70107666666667 -2.49996
endloop
endfacet
facet normal 0 0 -1
outer loop
vertex 7.699910000000001 -24.467293333333338 -2.49996
vertex 5.699886666666668 -24.70107666666667 -2.49996
vertex 5.699886666666668 -24.000003333333336 -2.49996
endloop
endfacet
facet normal 0 0 -1
outer loop
vertex 7.699910000000001 -24.467293333333338 -2.49996
vertex 5.699886666666668 -24.000003333333336 -2.49996
vertex 9.699933333333334 -24.000003333333336 -2.49996
endloop
endfacet
facet normal 0 0 -1
outer loop
vertex -8.449953333333335 -24.70107666666667 -2.49996
vertex -9.199996666666667 -26.00002666666667 -2.49996
vertex -9.699933333333334 -26.00002666666667 -2.49996
endloop
endfacet
facet normal 0 0 -1
outer loop
vertex -8.449953333333335 -24.70107666666667 -2.49996
vertex -9.699933333333334 -26.00002666666667 -2.49996
vertex -9.699933333333334 -24.70107666666667 -2.49996
endloop
endfacet
facet normal 0 0 -1
outer loop
vertex -5.699886666666668 -24.70107666666667 -2.49996
vertex -5.699886666666668 -26.00002666666667 -2.49996
vertex -6.200100000000001 -26.00002666666667 -2.49996
endloop
endfacet
facet normal 0 0 -1
outer loop
vertex -5.699886666666668 -24.70107666666667 -2.49996
vertex -6.200100000000001 -26.00002666666667 -2.49996
vertex -6.949866666666668 -24.70107666666667 -2.49996
endloop
endfacet
facet normal 0 0 -1
outer loop
vertex 6.949866666666668 -24.70107666666667 -2.49996
vertex 6.200100000000001 -26.00002666666667 -2.49996
vertex 5.699886666666668 -26.00002666666667 -2.49996
endloop
endfacet
facet normal 0 0 -1
outer loop
vertex 6.949866666666668 -24.70107666666667 -2.49996
vertex 5.699886666666668 -26.00002666666667 -2.49996
vertex 5.699886666666668 -24.70107666666667 -2.49996
endloop
endfacet
facet normal 0 0 -1
outer loop
vertex 9.699933333333334 -24.70107666666667 -2.49996
vertex 9.699933333333334 -26.00002666666667 -2.49996
vertex 9.199996666666667 -26.00002666666667 -2.49996
endloop
endfacet
facet normal 0 0 -1
outer loop
vertex 9.699933333333334 -24.70107666666667 -2.49996
vertex 9.199996666666667 -26.00002666666667 -2.49996
vertex 8.449953333333335 -24.70107666666667 -2.49996
endloop
endfacet
facet normal 0 0 -1
outer loop
vertex -9.199996666666667 -26.00002666666667 -2.49996
vertex -8.449953333333335 -27.29897666666667 -2.49996
vertex -9.699933333333334 -27.29897666666667 -2.49996
endloop
endfacet
facet normal 0 0 -1
outer loop
vertex -9.199996666666667 -26.00002666666667 -2.49996
vertex -9.699933333333334 -27.29897666666667 -2.49996
vertex -9.699933333333334 -26.00002666666667 -2.49996
endloop
endfacet
facet normal 0 0 -1
outer loop
vertex -5.699886666666668 -26.00002666666667 -2.49996
vertex -5.699886666666668 -27.29897666666667 -2.49996
vertex -6.949866666666668 -27.29897666666667 -2.49996
endloop
endfacet
facet normal 0 0 -1
outer loop
vertex -5.699886666666668 -26.00002666666667 -2.49996
vertex -6.949866666666668 -27.29897666666667 -2.49996
vertex -6.200100000000001 -26.00002666666667 -2.49996
endloop
endfacet
facet normal 0 0 -1
outer loop
vertex 6.200100000000001 -26.00002666666667 -2.49996
vertex 6.949866666666668 -27.29897666666667 -2.49996
vertex 5.699886666666668 -27.29897666666667 -2.49996
endloop
endfacet
facet normal 0 0 -1
outer loop
vertex 6.200100000000001 -26.00002666666667 -2.49996
vertex 5.699886666666668 -27.29897666666667 -2.49996
vertex 5.699886666666668 -26.00002666666667 -2.49996
endloop
endfacet
facet normal 0 0 -1
outer loop
vertex 9.699933333333334 -26.00002666666667 -2.49996
vertex 9.699933333333334 -27.29897666666667 -2.49996
vertex 8.449953333333335 -27.29897666666667 -2.49996
endloop
endfacet
facet normal 0 0 -1
outer loop
vertex 9.699933333333334 -26.00002666666667 -2.49996
vertex 8.449953333333335 -27.29897666666667 -2.49996
vertex 9.199996666666667 -26.00002666666667 -2.49996
endloop
endfacet
facet normal 0 0 -1
outer loop
vertex -7.699910000000001 -27.532760000000003 -2.49996
vertex -8.449953333333335 -27.29897666666667 -2.49996
vertex -6.949866666666668 -27.29897666666667 -2.49996
endloop
endfacet
facet normal 0 0 -1
outer loop
vertex -7.699910000000001 -27.532760000000003 -2.49996
vertex -6.949866666666668 -27.29897666666667 -2.49996
vertex -5.699886666666668 -27.29897666666667 -2.49996
endloop
endfacet
facet normal 0 0 -1
outer loop
vertex -7.699910000000001 -27.532760000000003 -2.49996
vertex -5.699886666666668 -27.29897666666667 -2.49996
vertex -5.699886666666668 -28.000050000000005 -2.49996
endloop
endfacet
facet normal 0 0 -1
outer loop
vertex -7.699910000000001 -27.532760000000003 -2.49996
vertex -5.699886666666668 -28.000050000000005 -2.49996
vertex -9.699933333333334 -28.000050000000005 -2.49996
endloop
endfacet
facet normal 0 0 -1
outer loop
vertex -7.699910000000001 -27.532760000000003 -2.49996
vertex -9.699933333333334 -28.000050000000005 -2.49996
vertex -9.699933333333334 -27.29897666666667 -2.49996
endloop
endfacet
facet normal 0 0 -1
outer loop
vertex -7.699910000000001 -27.532760000000003 -2.49996
vertex -9.699933333333334 -27.29897666666667 -2.49996
vertex -8.449953333333335 -27.29897666666667 -2.49996
endloop
endfacet
facet normal 0 0 -1
outer loop
vertex 7.699910000000001 -27.532760000000003 -2.49996
vertex 6.949866666666668 -27.29897666666667 -2.49996
vertex 8.449953333333335 -27.29897666666667 -2.49996
endloop
endfacet
facet normal 0 0 -1
outer loop
vertex 7.699910000000001 -27.532760000000003 -2.49996
vertex 8.449953333333335 -27.29897666666667 -2.49996
vertex 9.699933333333334 -27.29897666666667 -2.49996
endloop
endfacet
facet normal 0 0 -1
outer loop
vertex 7.699910000000001 -27.532760000000003 -2.49996
vertex 9.699933333333334 -27.29897666666667 -2.49996
vertex 9.699933333333334 -28.000050000000005 -2.49996
endloop
endfacet
facet normal 0 0 -1
outer loop
vertex 7.699910000000001 -27.532760000000003 -2.49996
vertex 9.699933333333334 -28.000050000000005 -2.49996
vertex 5.699886666666668 -28.000050000000005 -2.49996
endloop
endfacet
facet normal 0 0 -1
outer loop
vertex 7.699910000000001 -27.532760000000003 -2.49996
vertex 5.699886666666668 -28.000050000000005 -2.49996
vertex 5.699886666666668 -27.29897666666667 -2.49996
endloop
endfacet
facet normal 0 0 -1
outer loop
vertex 7.699910000000001 -27.532760000000003 -2.49996
vertex 5.699886666666668 -27.29897666666667 -2.49996
vertex 6.949866666666668 -27.29897666666667 -2.49996
endloop
endfacet
facet normal -0.8661241681737682 -0.499828896028729 0
outer loop
vertex -6.200100000000001 -9.600056666666669 -2.49996
vertex -6.200100000000001 -9.600056666666669 -0.49993666666666675
vertex -6.949866666666668 -8.300830000000001 -0.49993666666666675
endloop
endfacet
facet normal -0.8661241681737682 -0.499828896028729 0
outer loop
vertex -6.200100000000001 -9.600056666666669 -2.49996
vertex -6.949866666666668 -8.300830000000001 -0.49993666666666675
vertex -6.949866666666668 -8.300830000000001 -2.49996
endloop
endfacet
facet normal 0.8660443184081149 -0.49996723747964106 0
outer loop
vertex -8.449953333333335 -8.300830000000001 -2.49996
vertex -8.449953333333335 -8.300830000000001 -0.49993666666666675
vertex -9.199996666666667 -9.600056666666669 -0.49993666666666675
endloop
endfacet
facet normal 0.8660443184081149 -0.49996723747964106 0
outer loop
vertex -8.449953333333335 -8.300830000000001 -2.49996
vertex -9.199996666666667 -9.600056666666669 -0.49993666666666675
vertex -9.199996666666667 -9.600056666666669 -2.49996
endloop
endfacet
facet normal 0.8659982079777621 0.5000471015607477 0
outer loop
vertex -9.199996666666667 -9.600056666666669 -2.49996
vertex -9.199996666666667 -9.600056666666669 -0.49993666666666675
vertex -8.449953333333335 -10.899006666666669 -0.49993666666666675
endloop
endfacet
facet normal 0.8659982079777621 0.5000471015607477 0
outer loop
vertex -9.199996666666667 -9.600056666666669 -2.49996
vertex -8.449953333333335 -10.899006666666669 -0.49993666666666675
vertex -8.449953333333335 -10.899006666666669 -2.49996
endloop
endfacet
facet normal -0.8660780790064011 0.4999087527385194 0
outer loop
vertex -6.949866666666668 -10.899006666666669 -2.49996
vertex -6.949866666666668 -10.899006666666669 -0.49993666666666675
vertex -6.200100000000001 -9.600056666666669 -0.49993666666666675
endloop
endfacet
facet normal -0.8660780790064011 0.4999087527385194 0
outer loop
vertex -6.949866666666668 -10.899006666666669 -2.49996
vertex -6.200100000000001 -9.600056666666669 -0.49993666666666675
vertex -6.200100000000001 -9.600056666666669 -2.49996
endloop
endfacet
facet normal -0.8659982079777623 -0.5000471015607472 0
outer loop
vertex 9.199996666666667 -26.00002666666667 -2.49996
vertex 9.199996666666667 -26.00002666666667 -0.49993666666666675
vertex 8.449953333333335 -24.70107666666667 -0.49993666666666675
endloop
endfacet
facet normal -0.8659982079777623 -0.5000471015607472 0
outer loop
vertex 9.199996666666667 -26.00002666666667 -2.49996
vertex 8.449953333333335 -24.70107666666667 -0.49993666666666675
vertex 8.449953333333335 -24.70107666666667 -2.49996
endloop
endfacet
facet normal 0 -1 0
outer loop
vertex 6.949866666666668 -24.70107666666667 -0.49993666666666675
vertex 6.949866666666668 -24.70107666666667 -2.49996
vertex 8.449953333333335 -24.70107666666667 -2.49996
endloop
endfacet
facet normal 0 -1 0
outer loop
vertex 6.949866666666668 -24.70107666666667 -0.49993666666666675
vertex 8.449953333333335 -24.70107666666667 -2.49996
vertex 8.449953333333335 -24.70107666666667 -0.49993666666666675
endloop
endfacet
facet normal 0 -1 0
outer loop
vertex -8.449953333333335 -24.70107666666667 -0.49993666666666675
vertex -8.449953333333335 -24.70107666666667 -2.49996
vertex -6.949866666666668 -24.70107666666667 -2.49996
endloop
endfacet
facet normal 0 -1 0
outer loop
vertex -8.449953333333335 -24.70107666666667 -0.49993666666666675
vertex -6.949866666666668 -24.70107666666667 -2.49996
vertex -6.949866666666668 -24.70107666666667 -0.49993666666666675
endloop
endfacet
facet normal 0.8660780790064012 -0.49990875273851887 0
outer loop
vertex 6.949866666666668 -24.70107666666667 -2.49996
vertex 6.949866666666668 -24.70107666666667 -0.49993666666666675
vertex 6.200100000000001 -26.00002666666667 -0.49993666666666675
endloop
endfacet
facet normal 0.8660780790064012 -0.49990875273851887 0
outer loop
vertex 6.949866666666668 -24.70107666666667 -2.49996
vertex 6.200100000000001 -26.00002666666667 -0.49993666666666675
vertex 6.200100000000001 -26.00002666666667 -2.49996
endloop
endfacet
facet normal 0.8660780790064012 0.49990875273851887 0
outer loop
vertex 6.200100000000001 -26.00002666666667 -2.49996
vertex 6.200100000000001 -26.00002666666667 -0.49993666666666675
vertex 6.949866666666668 -27.29897666666667 -0.49993666666666675
endloop
endfacet
facet normal 0.8660780790064012 0.49990875273851887 0
outer loop
vertex 6.200100000000001 -26.00002666666667 -2.49996
vertex 6.949866666666668 -27.29897666666667 -0.49993666666666675
vertex 6.949866666666668 -27.29897666666667 -2.49996
endloop
endfacet
facet normal 0 1 0
outer loop
vertex -6.949866666666668 -27.29897666666667 -0.49993666666666675
vertex -6.949866666666668 -27.29897666666667 -2.49996
vertex -8.449953333333335 -27.29897666666667 -2.49996
endloop
endfacet
facet normal 0 1 0
outer loop
vertex -6.949866666666668 -27.29897666666667 -0.49993666666666675
vertex -8.449953333333335 -27.29897666666667 -2.49996
vertex -8.449953333333335 -27.29897666666667 -0.49993666666666675
endloop
endfacet
facet normal 0 1 0
outer loop
vertex 8.449953333333335 -27.29897666666667 -0.49993666666666675
vertex 8.449953333333335 -27.29897666666667 -2.49996
vertex 6.949866666666668 -27.29897666666667 -2.49996
endloop
endfacet
facet normal 0 1 0
outer loop
vertex 8.449953333333335 -27.29897666666667 -0.49993666666666675
vertex 6.949866666666668 -27.29897666666667 -2.49996
vertex 6.949866666666668 -27.29897666666667 -0.49993666666666675
endloop
endfacet
facet normal -0.8659982079777623 0.5000471015607472 0
outer loop
vertex 8.449953333333335 -27.29897666666667 -2.49996
vertex 8.449953333333335 -27.29897666666667 -0.49993666666666675
vertex 9.199996666666667 -26.00002666666667 -0.49993666666666675
endloop
endfacet
facet normal -0.8659982079777623 0.5000471015607472 0
outer loop
vertex 8.449953333333335 -27.29897666666667 -2.49996
vertex 9.199996666666667 -26.00002666666667 -0.49993666666666675
vertex 9.199996666666667 -26.00002666666667 -2.49996
endloop
endfacet
facet normal -0.8660780790064012 -0.49990875273851887 0
outer loop
vertex -6.200100000000001 -26.00002666666667 -2.49996
vertex -6.200100000000001 -26.00002666666667 -0.49993666666666675
vertex -6.949866666666668 -24.70107666666667 -0.49993666666666675
endloop
endfacet
facet normal -0.8660780790064012 -0.49990875273851887 0
outer loop
vertex -6.200100000000001 -26.00002666666667 -2.49996
vertex -6.949866666666668 -24.70107666666667 -0.49993666666666675
vertex -6.949866666666668 -24.70107666666667 -2.49996
endloop
endfacet
facet normal 0.8659982079777623 -0.5000471015607472 0
outer loop
vertex -8.449953333333335 -24.70107666666667 -2.49996
vertex -8.449953333333335 -24.70107666666667 -0.49993666666666675
vertex -9.199996666666667 -26.00002666666667 -0.49993666666666675
endloop
endfacet
facet normal 0.8659982079777623 -0.5000471015607472 0
outer loop
vertex -8.449953333333335 -24.70107666666667 -2.49996
vertex -9.199996666666667 -26.00002666666667 -0.49993666666666675
vertex -9.199996666666667 -26.00002666666667 -2.49996
endloop
endfacet
facet normal 0.8659982079777623 0.5000471015607472 0
outer loop
vertex -9.199996666666667 -26.00002666666667 -2.49996
vertex -9.199996666666667 -26.00002666666667 -0.49993666666666675
vertex -8.449953333333335 -27.29897666666667 -0.49993666666666675
endloop
endfacet
facet normal 0.8659982079777623 0.5000471015607472 0
outer loop
vertex -9.199996666666667 -26.00002666666667 -2.49996
vertex -8.449953333333335 -27.29897666666667 -0.49993666666666675
vertex -8.449953333333335 -27.29897666666667 -2.49996
endloop
endfacet
facet normal -0.8660780790064012 0.49990875273851887 0
outer loop
vertex -6.949866666666668 -27.29897666666667 -2.49996
vertex -6.949866666666668 -27.29897666666667 -0.49993666666666675
vertex -6.200100000000001 -26.00002666666667 -0.49993666666666675
endloop
endfacet
facet normal -0.8660780790064012 0.49990875273851887 0
outer loop
vertex -6.949866666666668 -27.29897666666667 -2.49996
vertex -6.200100000000001 -26.00002666666667 -0.49993666666666675
vertex -6.200100000000001 -26.00002666666667 -2.49996
endloop
endfacet
facet normal -1 0 0
outer loop
vertex -7.800063333333334 24.499940000000002 -4.99992
vertex -7.800063333333334 24.499940000000002 -4.000046666666667
vertex -7.800063333333334 26.499963333333337 -4.000046666666667
endloop
endfacet
facet normal -1 0 0
outer loop
vertex -7.800063333333334 24.499940000000002 -4.99992
vertex -7.800063333333334 26.499963333333337 -4.000046666666667
vertex -7.800063333333334 26.499963333333337 -4.99992
endloop
endfacet
facet normal 1 0 0
outer loop
vertex -3.800016666666667 24.499940000000002 -4.99992
vertex -3.800016666666667 26.499963333333337 -4.99992
vertex -3.800016666666667 26.499963333333337 -4.000046666666667
endloop
endfacet
facet normal 1 0 0
outer loop
vertex -3.800016666666667 24.499940000000002 -4.99992
vertex -3.800016666666667 26.499963333333337 -4.000046666666667
vertex -3.800016666666667 24.499940000000002 -4.000046666666667
endloop
endfacet
facet normal 0 -1 0
outer loop
vertex 3.800016666666667 24.499940000000002 -4.000046666666667
vertex 3.800016666666667 24.499940000000002 -4.99992
vertex 7.800063333333334 24.499940000000002 -4.99992
endloop
endfacet
facet normal 0 -1 0
outer loop
vertex 3.800016666666667 24.499940000000002 -4.000046666666667
vertex 7.800063333333334 24.499940000000002 -4.99992
vertex 7.800063333333334 24.499940000000002 -4.000046666666667
endloop
endfacet
facet normal 0 -1 0
outer loop
vertex -7.800063333333334 24.499940000000002 -4.000046666666667
vertex -7.800063333333334 24.499940000000002 -4.99992
vertex -3.800016666666667 24.499940000000002 -4.99992
endloop
endfacet
facet normal 0 -1 0
outer loop
vertex -7.800063333333334 24.499940000000002 -4.000046666666667
vertex -3.800016666666667 24.499940000000002 -4.99992
vertex -3.800016666666667 24.499940000000002 -4.000046666666667
endloop
endfacet
facet normal 0 0 -1
outer loop
vertex -7.160133333333334 27.300083333333337 -4.99992
vertex -4.000046666666667 28.499986666666672 -4.99992
vertex -4.000046666666667 26.499963333333337 -4.99992
endloop
endfacet
facet normal 0 0 -0.9999999999999999
outer loop
vertex -7.160133333333334 27.300083333333337 -4.99992
vertex -4.000046666666667 26.499963333333337 -4.99992
vertex -7.800063333333334 26.499963333333337 -4.99992
endloop
endfacet
facet normal 0 0 -0.9999999999999999
outer loop
vertex -7.160133333333334 27.300083333333337 -4.99992
vertex -7.800063333333334 26.499963333333337 -4.99992
vertex -10.000116666666669 26.499963333333337 -4.99992
endloop
endfacet
facet normal 0 0 -0.9999999999999999
outer loop
vertex -7.160133333333334 27.300083333333337 -4.99992
vertex -10.000116666666669 26.499963333333337 -4.99992
vertex -10.000116666666669 28.499986666666672 -4.99992
endloop
endfacet
facet normal 0 0 -0.9999999999999999
outer loop
vertex -7.160133333333334 27.300083333333337 -4.99992
vertex -10.000116666666669 28.499986666666672 -4.99992
vertex -4.000046666666667 28.499986666666672 -4.99992
endloop
endfacet
facet normal 0 0 -0.9999999999999999
outer loop
vertex 7.160133333333334 27.300083333333337 -4.99992
vertex 10.000116666666669 28.499986666666672 -4.99992
vertex 10.000116666666669 26.499963333333337 -4.99992
endloop
endfacet
facet normal 0 0 -0.9999999999999999
outer loop
vertex 7.160133333333334 27.300083333333337 -4.99992
vertex 10.000116666666669 26.499963333333337 -4.99992
vertex 7.800063333333334 26.499963333333337 -4.99992
endloop
endfacet
facet normal 0 0 -0.9999999999999999
outer loop
vertex 7.160133333333334 27.300083333333337 -4.99992
vertex 7.800063333333334 26.499963333333337 -4.99992
vertex 4.000046666666667 26.499963333333337 -4.99992
endloop
endfacet
facet normal 0 0 -1
outer loop
vertex 7.160133333333334 27.300083333333337 -4.99992
vertex 4.000046666666667 26.499963333333337 -4.99992
vertex 4.000046666666667 28.499986666666672 -4.99992
endloop
endfacet
facet normal 0 0 -0.9999999999999999
outer loop
vertex 7.160133333333334 27.300083333333337 -4.99992
vertex 4.000046666666667 28.499986666666672 -4.99992
vertex 10.000116666666669 28.499986666666672 -4.99992
endloop
endfacet
facet normal 0 0 -1
outer loop
vertex -5.440096666666667 25.699843333333337 -4.99992
vertex -4.000046666666667 26.499963333333337 -4.99992
vertex -3.800016666666667 26.499963333333337 -4.99992
endloop
endfacet
facet normal 0 0 -1
outer loop
vertex -5.440096666666667 25.699843333333337 -4.99992
vertex -3.800016666666667 26.499963333333337 -4.99992
vertex -3.800016666666667 24.499940000000002 -4.99992
endloop
endfacet
facet normal 0 0 -1
outer loop
vertex -5.440096666666667 25.699843333333337 -4.99992
vertex -3.800016666666667 24.499940000000002 -4.99992
vertex -7.800063333333334 24.499940000000002 -4.99992
endloop
endfacet
facet normal 0 0 -1
outer loop
vertex -5.440096666666667 25.699843333333337 -4.99992
vertex -7.800063333333334 24.499940000000002 -4.99992
vertex -7.800063333333334 26.499963333333337 -4.99992
endloop
endfacet
facet normal 0 0 -0.9999999999999999
outer loop
vertex -5.440096666666667 25.699843333333337 -4.99992
vertex -7.800063333333334 26.499963333333337 -4.99992
vertex -4.000046666666667 26.499963333333337 -4.99992
endloop
endfacet
facet normal 0 0 -0.9999999999999999
outer loop
vertex 5.440096666666667 25.699843333333337 -4.99992
vertex 4.000046666666667 26.499963333333337 -4.99992
vertex 7.800063333333334 26.499963333333337 -4.99992
endloop
endfacet
facet normal 0 0 -1
outer loop
vertex 5.440096666666667 25.699843333333337 -4.99992
vertex 7.800063333333334 26.499963333333337 -4.99992
vertex 7.800063333333334 24.499940000000002 -4.99992
endloop
endfacet
facet normal 0 0 -1
outer loop
vertex 5.440096666666667 25.699843333333337 -4.99992
vertex 7.800063333333334 24.499940000000002 -4.99992
vertex 3.800016666666667 24.499940000000002 -4.99992
endloop
endfacet
facet normal 0 0 -1
outer loop
vertex 5.440096666666667 25.699843333333337 -4.99992
vertex 3.800016666666667 24.499940000000002 -4.99992
vertex 3.800016666666667 26.499963333333337 -4.99992
endloop
endfacet
facet normal 0 0 -1
outer loop
vertex 5.440096666666667 25.699843333333337 -4.99992
vertex 3.800016666666667 26.499963333333337 -4.99992
vertex 4.000046666666667 26.499963333333337 -4.99992
endloop
endfacet
facet normal 0 0 1
outer loop
vertex 5.440096666666667 25.699843333333337 -4.000046666666667
vertex 4.000046666666667 26.499963333333337 -4.000046666666667
vertex 3.800016666666667 26.499963333333337 -4.000046666666667
endloop
endfacet
facet normal 0 0 1
outer loop
vertex 5.440096666666667 25.699843333333337 -4.000046666666667
vertex 3.800016666666667 26.499963333333337 -4.000046666666667
vertex 3.800016666666667 24.499940000000002 -4.000046666666667
endloop
endfacet
facet normal 0 0 1
outer loop
vertex 5.440096666666667 25.699843333333337 -4.000046666666667
vertex 3.800016666666667 24.499940000000002 -4.000046666666667
vertex 7.800063333333334 24.499940000000002 -4.000046666666667
endloop
endfacet
facet normal 0 0 1
outer loop
vertex 5.440096666666667 25.699843333333337 -4.000046666666667
vertex 7.800063333333334 24.499940000000002 -4.000046666666667
vertex 7.800063333333334 26.499963333333337 -4.000046666666667
endloop
endfacet
facet normal 0 0 0.9999999999999999
outer loop
vertex 5.440096666666667 25.699843333333337 -4.000046666666667
vertex 7.800063333333334 26.499963333333337 -4.000046666666667
vertex 4.000046666666667 26.499963333333337 -4.000046666666667
endloop
endfacet
facet normal 0 0 0.9999999999999999
outer loop
vertex -5.440096666666667 25.699843333333337 -4.000046666666667
vertex -4.000046666666667 26.499963333333337 -4.000046666666667
vertex -7.800063333333334 26.499963333333337 -4.000046666666667
endloop
endfacet
facet normal 0 0 1
outer loop
vertex -5.440096666666667 25.699843333333337 -4.000046666666667
vertex -7.800063333333334 26.499963333333337 -4.000046666666667
vertex -7.800063333333334 24.499940000000002 -4.000046666666667
endloop
endfacet
facet normal 0 0 1
outer loop
vertex -5.440096666666667 25.699843333333337 -4.000046666666667
vertex -7.800063333333334 24.499940000000002 -4.000046666666667
vertex -3.800016666666667 24.499940000000002 -4.000046666666667
endloop
endfacet
facet normal 0 0 1
outer loop
vertex -5.440096666666667 25.699843333333337 -4.000046666666667
vertex -3.800016666666667 24.499940000000002 -4.000046666666667
vertex -3.800016666666667 26.499963333333337 -4.000046666666667
endloop
endfacet
facet normal 0 0 1
outer loop
vertex -5.440096666666667 25.699843333333337 -4.000046666666667
vertex -3.800016666666667 26.499963333333337 -4.000046666666667
vertex -4.000046666666667 26.499963333333337 -4.000046666666667
endloop
endfacet
facet normal 0 -1 0
outer loop
vertex 0 26.499963333333337 -1.6666400000000003
vertex -10.000116666666669 26.499963333333337 -0.9998733333333335
vertex -10.000116666666669 26.499963333333337 -2.0000233333333335
endloop
endfacet
facet normal 0 -1 0
outer loop
vertex 0 26.499963333333337 -1.6666400000000003
vertex -10.000116666666669 26.499963333333337 -2.0000233333333335
vertex -4.000046666666667 26.499963333333337 -2.0000233333333335
endloop
endfacet
facet normal 0 -1 0
outer loop
vertex 0 26.499963333333337 -1.6666400000000003
vertex -4.000046666666667 26.499963333333337 -2.0000233333333335
vertex 4.000046666666667 26.499963333333337 -2.0000233333333335
endloop
endfacet
facet normal 0 -1 0
outer loop
vertex 0 26.499963333333337 -1.6666400000000003
vertex 4.000046666666667 26.499963333333337 -2.0000233333333335
vertex 10.000116666666669 26.499963333333337 -2.0000233333333335
endloop
endfacet
facet normal 0 -1 0
outer loop
vertex 0 26.499963333333337 -1.6666400000000003
vertex 10.000116666666669 26.499963333333337 -2.0000233333333335
vertex 10.000116666666669 26.499963333333337 -0.9998733333333335
endloop
endfacet
facet normal 0 -1 0
outer loop
vertex 0 26.499963333333337 -1.6666400000000003
vertex 10.000116666666669 26.499963333333337 -0.9998733333333335
vertex -10.000116666666669 26.499963333333337 -0.9998733333333335
endloop
endfacet
facet normal 0 -1 0
outer loop
vertex 7.160133333333334 26.499963333333337 -3.1999266666666673
vertex 4.000046666666667 26.499963333333337 -2.0000233333333335
vertex 4.000046666666667 26.499963333333337 -4.000046666666667
endloop
endfacet
facet normal 0 -0.9999999999999999 0
outer loop
vertex 7.160133333333334 26.499963333333337 -3.1999266666666673
vertex 4.000046666666667 26.499963333333337 -4.000046666666667
vertex 7.800063333333334 26.499963333333337 -4.000046666666667
endloop
endfacet
facet normal 0 -0.9999999999999999 0
outer loop
vertex 7.160133333333334 26.499963333333337 -3.1999266666666673
vertex 7.800063333333334 26.499963333333337 -4.000046666666667
vertex 10.000116666666669 26.499963333333337 -4.000046666666667
endloop
endfacet
facet normal 0 -1 0
outer loop
vertex 7.160133333333334 26.499963333333337 -3.1999266666666673
vertex 10.000116666666669 26.499963333333337 -4.000046666666667
vertex 10.000116666666669 26.499963333333337 -2.0000233333333335
endloop
endfacet
facet normal 0 -1 0
outer loop
vertex 7.160133333333334 26.499963333333337 -3.1999266666666673
vertex 10.000116666666669 26.499963333333337 -2.0000233333333335
vertex 4.000046666666667 26.499963333333337 -2.0000233333333335
endloop
endfacet
facet normal 0 -1 0
outer loop
vertex -7.160133333333334 26.499963333333337 -3.1999266666666673
vertex -10.000116666666669 26.499963333333337 -2.0000233333333335
vertex -10.000116666666669 26.499963333333337 -4.000046666666667
endloop
endfacet
facet normal 0 -0.9999999999999999 0
outer loop
vertex -7.160133333333334 26.499963333333337 -3.1999266666666673
vertex -10.000116666666669 26.499963333333337 -4.000046666666667
vertex -7.800063333333334 26.499963333333337 -4.000046666666667
endloop
endfacet
facet normal 0 -0.9999999999999999 0
outer loop
vertex -7.160133333333334 26.499963333333337 -3.1999266666666673
vertex -7.800063333333334 26.499963333333337 -4.000046666666667
vertex -4.000046666666667 26.499963333333337 -4.000046666666667
endloop
endfacet
facet normal 0 -1 0
outer loop
vertex -7.160133333333334 26.499963333333337 -3.1999266666666673
vertex -4.000046666666667 26.499963333333337 -4.000046666666667
vertex -4.000046666666667 26.499963333333337 -2.0000233333333335
endloop
endfacet
facet normal 0 -1 0
outer loop
vertex -7.160133333333334 26.499963333333337 -3.1999266666666673
vertex -4.000046666666667 26.499963333333337 -2.0000233333333335
vertex -10.000116666666669 26.499963333333337 -2.0000233333333335
endloop
endfacet
facet normal 0 -1 0
outer loop
vertex 7.800063333333334 26.499963333333337 -4.000046666666667
vertex 7.800063333333334 26.499963333333337 -4.99992
vertex 10.000116666666669 26.499963333333337 -4.99992
endloop
endfacet
facet normal 0 -1 0
outer loop
vertex 7.800063333333334 26.499963333333337 -4.000046666666667
vertex 10.000116666666669 26.499963333333337 -4.99992
vertex 10.000116666666669 26.499963333333337 -4.000046666666667
endloop
endfacet
facet normal 0 -1 0
outer loop
vertex -10.000116666666669 26.499963333333337 -4.000046666666667
vertex -10.000116666666669 26.499963333333337 -4.99992
vertex -7.800063333333334 26.499963333333337 -4.99992
endloop
endfacet
facet normal 0 -1 0
outer loop
vertex -10.000116666666669 26.499963333333337 -4.000046666666667
vertex -7.800063333333334 26.499963333333337 -4.99992
vertex -7.800063333333334 26.499963333333337 -4.000046666666667
endloop
endfacet
facet normal -1 0 0
outer loop
vertex 3.800016666666667 24.499940000000002 -4.99992
vertex 3.800016666666667 24.499940000000002 -4.000046666666667
vertex 3.800016666666667 26.499963333333337 -4.000046666666667
endloop
endfacet
facet normal -1 0 0
outer loop
vertex 3.800016666666667 24.499940000000002 -4.99992
vertex 3.800016666666667 26.499963333333337 -4.000046666666667
vertex 3.800016666666667 26.499963333333337 -4.99992
endloop
endfacet
facet normal 1 0 0
outer loop
vertex 7.800063333333334 24.499940000000002 -4.99992
vertex 7.800063333333334 26.499963333333337 -4.99992
vertex 7.800063333333334 26.499963333333337 -4.000046666666667
endloop
endfacet
facet normal 1 0 0
outer loop
vertex 7.800063333333334 24.499940000000002 -4.99992
vertex 7.800063333333334 26.499963333333337 -4.000046666666667
vertex 7.800063333333334 24.499940000000002 -4.000046666666667
endloop
endfacet
facet normal 1 0 0
outer loop
vertex -4.000046666666667 27.300083333333337 -3.599986666666667
vertex -4.000046666666667 28.499986666666672 -4.99992
vertex -4.000046666666667 28.499986666666672 -2.0000233333333335
endloop
endfacet
facet normal 1 0 0
outer loop
vertex -4.000046666666667 27.300083333333337 -3.599986666666667
vertex -4.000046666666667 28.499986666666672 -2.0000233333333335
vertex -4.000046666666667 26.499963333333337 -2.0000233333333335
endloop
endfacet
facet normal 1 0 0
outer loop
vertex -4.000046666666667 27.300083333333337 -3.599986666666667
vertex -4.000046666666667 26.499963333333337 -2.0000233333333335
vertex -4.000046666666667 26.499963333333337 -4.000046666666667
endloop
endfacet
facet normal 0.9999999999999999 0 0
outer loop
vertex -4.000046666666667 27.300083333333337 -3.599986666666667
vertex -4.000046666666667 26.499963333333337 -4.000046666666667
vertex -4.000046666666667 26.499963333333337 -4.99992
endloop
endfacet
facet normal 1 0 0
outer loop
vertex -4.000046666666667 27.300083333333337 -3.599986666666667
vertex -4.000046666666667 26.499963333333337 -4.99992
vertex -4.000046666666667 28.499986666666672 -4.99992
endloop
endfacet
facet normal -1 0 0
outer loop
vertex 4.000046666666667 27.300083333333337 -3.599986666666667
vertex 4.000046666666667 26.499963333333337 -4.000046666666667
vertex 4.000046666666667 26.499963333333337 -2.0000233333333335
endloop
endfacet
facet normal -1 0 0
outer loop
vertex 4.000046666666667 27.300083333333337 -3.599986666666667
vertex 4.000046666666667 26.499963333333337 -2.0000233333333335
vertex 4.000046666666667 28.499986666666672 -2.0000233333333335
endloop
endfacet
facet normal -1 0 0
outer loop
vertex 4.000046666666667 27.300083333333337 -3.599986666666667
vertex 4.000046666666667 28.499986666666672 -2.0000233333333335
vertex 4.000046666666667 28.499986666666672 -4.99992
endloop
endfacet
facet normal -1 0 0
outer loop
vertex 4.000046666666667 27.300083333333337 -3.599986666666667
vertex 4.000046666666667 28.499986666666672 -4.99992
vertex 4.000046666666667 26.499963333333337 -4.99992
endloop
endfacet
facet normal -0.9999999999999999 0 0
outer loop
vertex 4.000046666666667 27.300083333333337 -3.599986666666667
vertex 4.000046666666667 26.499963333333337 -4.99992
vertex 4.000046666666667 26.499963333333337 -4.000046666666667
endloop
endfacet
facet normal 0 0 -1
outer loop
vertex -4.000046666666667 28.499986666666672 -2.0000233333333335
vertex 4.000046666666667 28.499986666666672 -2.0000233333333335
vertex 4.000046666666667 26.499963333333337 -2.0000233333333335
endloop
endfacet
facet normal 0 0 -1
outer loop
vertex -4.000046666666667 28.499986666666672 -2.0000233333333335
vertex 4.000046666666667 26.499963333333337 -2.0000233333333335
vertex -4.000046666666667 26.499963333333337 -2.0000233333333335
endloop
endfacet
facet normal 0 0.9999999999999999 0
outer loop
vertex -3.800016666666667 26.499963333333337 -4.000046666666667
vertex -3.800016666666667 26.499963333333337 -4.99992
vertex -4.000046666666667 26.499963333333337 -4.99992
endloop
endfacet
facet normal 0 0.9999999999999999 0
outer loop
vertex -3.800016666666667 26.499963333333337 -4.000046666666667
vertex -4.000046666666667 26.499963333333337 -4.99992
vertex -4.000046666666667 26.499963333333337 -4.000046666666667
endloop
endfacet
facet normal 0 0.9999999999999999 0
outer loop
vertex 4.000046666666667 26.499963333333337 -4.000046666666667
vertex 4.000046666666667 26.499963333333337 -4.99992
vertex 3.800016666666667 26.499963333333337 -4.99992
endloop
endfacet
facet normal 0 0.9999999999999999 0
outer loop
vertex 4.000046666666667 26.499963333333337 -4.000046666666667
vertex 3.800016666666667 26.499963333333337 -4.99992
vertex 3.800016666666667 26.499963333333337 -4.000046666666667
endloop
endfacet
endsolid JSCAD
