solid JSCAD
facet normal 0 0 1
outer loop
vertex 0 0.5956875 7.00002
vertex -0.6000075 1.03923 7.00002
vertex -1.02681 0.29997 7.00002
endloop
endfacet
facet normal 0 0 1
outer loop
vertex 0 0.5956875 7.00002
vertex -1.02681 0.29997 7.00002
vertex 0 0.29997 7.00002
endloop
endfacet
facet normal 0 0 1
outer loop
vertex 0 0.5956875 7.00002
vertex 0 0.29997 7.00002
vertex 1.02681 0.29997 7.00002
endloop
endfacet
facet normal 0 0 1
outer loop
vertex 0 0.5956875 7.00002
vertex 1.02681 0.29997 7.00002
vertex 0.6000075 1.03923 7.00002
endloop
endfacet
facet normal 0 0 1
outer loop
vertex 0 0.5956875 7.00002
vertex 0.6000075 1.03923 7.00002
vertex -0.6000075 1.03923 7.00002
endloop
endfacet
facet normal 0 0 1
outer loop
vertex 0 0.29997 7.00002
vertex 0.0585225 0.2942325 7.00002
vertex 1.0301175 0.2942325 7.00002
endloop
endfacet
facet normal 0 0 0.9999999999999999
outer loop
vertex 0 0.29997 7.00002
vertex 1.0301175 0.2942325 7.00002
vertex 1.02681 0.29997 7.00002
endloop
endfacet
facet normal 0 0 1
outer loop
vertex -1.02681 0.29997 7.00002
vertex -1.0301175 0.2942325 7.00002
vertex -0.0585225 0.2942325 7.00002
endloop
endfacet
facet normal 0 0 0.9999999999999999
outer loop
vertex -1.02681 0.29997 7.00002
vertex -0.0585225 0.2942325 7.00002
vertex 0 0.29997 7.00002
endloop
endfacet
facet normal 0 0 1
outer loop
vertex 0.0585225 0.2942325 7.00002
vertex 0.1148175 0.277155 7.00002
vertex 1.0399725 0.277155 7.00002
endloop
endfacet
facet normal 0 0 1
outer loop
vertex 0.0585225 0.2942325 7.00002
vertex 1.0399725 0.277155 7.00002
vertex 1.0301175 0.2942325 7.00002
endloop
endfacet
facet normal 0 0 1
outer loop
vertex -1.0301175 0.2942325 7.00002
vertex -1.0399725 0.277155 7.00002
vertex -0.1148175 0.277155 7.00002
endloop
endfacet
facet normal 0 0 1
outer loop
vertex -1.0301175 0.2942325 7.00002
vertex -0.1148175 0.277155 7.00002
vertex -0.0585225 0.2942325 7.00002
endloop
endfacet
facet normal 0 0 1
outer loop
vertex 0.1148175 0.277155 7.00002
vertex 0.16665750000000001 0.2494125 7.00002
vertex 1.05597 0.2494125 7.00002
endloop
endfacet
facet normal 0 0 0.9999999999999999
outer loop
vertex 0.1148175 0.277155 7.00002
vertex 1.05597 0.2494125 7.00002
vertex 1.0399725 0.277155 7.00002
endloop
endfacet
facet normal 0 0 1
outer loop
vertex -1.0399725 0.277155 7.00002
vertex -1.05597 0.2494125 7.00002
vertex -0.16665750000000001 0.2494125 7.00002
endloop
endfacet
facet normal 0 0 0.9999999999999999
outer loop
vertex -1.0399725 0.277155 7.00002
vertex -0.16665750000000001 0.2494125 7.00002
vertex -0.1148175 0.277155 7.00002
endloop
endfacet
facet normal 0 0 1
outer loop
vertex 0.16665750000000001 0.2494125 7.00002
vertex 0.2121525 0.2121525 7.00002
vertex 1.0775025 0.2121525 7.00002
endloop
endfacet
facet normal 0 0 1
outer loop
vertex 0.16665750000000001 0.2494125 7.00002
vertex 1.0775025 0.2121525 7.00002
vertex 1.05597 0.2494125 7.00002
endloop
endfacet
facet normal 0 0 1
outer loop
vertex -1.05597 0.2494125 7.00002
vertex -1.0775025 0.2121525 7.00002
vertex -0.2121525 0.2121525 7.00002
endloop
endfacet
facet normal 0 0 1
outer loop
vertex -1.05597 0.2494125 7.00002
vertex -0.2121525 0.2121525 7.00002
vertex -0.16665750000000001 0.2494125 7.00002
endloop
endfacet
facet normal 0 0 1
outer loop
vertex 0.2121525 0.2121525 7.00002
vertex 0.2494125 0.16665750000000001 7.00002
vertex 1.10376 0.16665750000000001 7.00002
endloop
endfacet
facet normal 0 0 1
outer loop
vertex 0.2121525 0.2121525 7.00002
vertex 1.10376 0.16665750000000001 7.00002
vertex 1.0775025 0.2121525 7.00002
endloop
endfacet
facet normal 0 0 1
outer loop
vertex -1.0775025 0.2121525 7.00002
vertex -1.10376 0.16665750000000001 7.00002
vertex -0.2494125 0.16665750000000001 7.00002
endloop
endfacet
facet normal 0 0 1
outer loop
vertex -1.0775025 0.2121525 7.00002
vertex -0.2494125 0.16665750000000001 7.00002
vertex -0.2121525 0.2121525 7.00002
endloop
endfacet
facet normal 0 0 1
outer loop
vertex 0.2494125 0.16665750000000001 7.00002
vertex 0.277155 0.1148175 7.00002
vertex 1.13373 0.1148175 7.00002
endloop
endfacet
facet normal 0 0 1
outer loop
vertex 0.2494125 0.16665750000000001 7.00002
vertex 1.13373 0.1148175 7.00002
vertex 1.10376 0.16665750000000001 7.00002
endloop
endfacet
facet normal 0 0 1
outer loop
vertex -1.10376 0.16665750000000001 7.00002
vertex -1.13373 0.1148175 7.00002
vertex -0.277155 0.1148175 7.00002
endloop
endfacet
facet normal 0 0 1
outer loop
vertex -1.10376 0.16665750000000001 7.00002
vertex -0.277155 0.1148175 7.00002
vertex -0.2494125 0.16665750000000001 7.00002
endloop
endfacet
facet normal 0 0 0.9999999999999999
outer loop
vertex 0.277155 0.1148175 7.00002
vertex 0.2942325 0.0585225 7.00002
vertex 1.1661975 0.0585225 7.00002
endloop
endfacet
facet normal 0 0 1
outer loop
vertex 0.277155 0.1148175 7.00002
vertex 1.1661975 0.0585225 7.00002
vertex 1.13373 0.1148175 7.00002
endloop
endfacet
facet normal 0 0 0.9999999999999999
outer loop
vertex -1.13373 0.1148175 7.00002
vertex -1.1661975 0.0585225 7.00002
vertex -0.2942325 0.0585225 7.00002
endloop
endfacet
facet normal 0 0 1
outer loop
vertex -1.13373 0.1148175 7.00002
vertex -0.2942325 0.0585225 7.00002
vertex -0.277155 0.1148175 7.00002
endloop
endfacet
facet normal 0 0 1
outer loop
vertex 0.2942325 0.0585225 7.00002
vertex 0.29997 0 7.00002
vertex 1.200015 0 7.00002
endloop
endfacet
facet normal 0 0 1
outer loop
vertex 0.2942325 0.0585225 7.00002
vertex 1.200015 0 7.00002
vertex 1.1661975 0.0585225 7.00002
endloop
endfacet
facet normal 0 0 1
outer loop
vertex -1.1661975 0.0585225 7.00002
vertex -1.200015 0 7.00002
vertex -0.29997 0 7.00002
endloop
endfacet
facet normal 0 0 1
outer loop
vertex -1.1661975 0.0585225 7.00002
vertex -0.29997 0 7.00002
vertex -0.2942325 0.0585225 7.00002
endloop
endfacet
facet normal 0 0 0.9999999999999999
outer loop
vertex 0.29997 0 7.00002
vertex 0.2942325 -0.0585225 7.00002
vertex 1.1661975 -0.0585225 7.00002
endloop
endfacet
facet normal 0 0 1
outer loop
vertex 0.29997 0 7.00002
vertex 1.1661975 -0.0585225 7.00002
vertex 1.200015 0 7.00002
endloop
endfacet
facet normal 0 0 1
outer loop
vertex -1.200015 0 7.00002
vertex -1.1661975 -0.0585225 7.00002
vertex -0.2942325 -0.0585225 7.00002
endloop
endfacet
facet normal 0 0 1
outer loop
vertex -1.200015 0 7.00002
vertex -0.2942325 -0.0585225 7.00002
vertex -0.29997 0 7.00002
endloop
endfacet
facet normal 0 0 1
outer loop
vertex 0.2942325 -0.0585225 7.00002
vertex 0.277155 -0.1148175 7.00002
vertex 1.13373 -0.1148175 7.00002
endloop
endfacet
facet normal 0 0 0.9999999999999999
outer loop
vertex 0.2942325 -0.0585225 7.00002
vertex 1.13373 -0.1148175 7.00002
vertex 1.1661975 -0.0585225 7.00002
endloop
endfacet
facet normal 0 0 1
outer loop
vertex -1.1661975 -0.0585225 7.00002
vertex -1.13373 -0.1148175 7.00002
vertex -0.277155 -0.1148175 7.00002
endloop
endfacet
facet normal 0 0 0.9999999999999999
outer loop
vertex -1.1661975 -0.0585225 7.00002
vertex -0.277155 -0.1148175 7.00002
vertex -0.2942325 -0.0585225 7.00002
endloop
endfacet
facet normal 0 0 1
outer loop
vertex 0.277155 -0.1148175 7.00002
vertex 0.2494125 -0.16665750000000001 7.00002
vertex 1.10376 -0.16665750000000001 7.00002
endloop
endfacet
facet normal 0 0 1
outer loop
vertex 0.277155 -0.1148175 7.00002
vertex 1.10376 -0.16665750000000001 7.00002
vertex 1.13373 -0.1148175 7.00002
endloop
endfacet
facet normal 0 0 1
outer loop
vertex -1.13373 -0.1148175 7.00002
vertex -1.10376 -0.16665750000000001 7.00002
vertex -0.2494125 -0.16665750000000001 7.00002
endloop
endfacet
facet normal 0 0 1
outer loop
vertex -1.13373 -0.1148175 7.00002
vertex -0.2494125 -0.16665750000000001 7.00002
vertex -0.277155 -0.1148175 7.00002
endloop
endfacet
facet normal 0 0 1
outer loop
vertex 0.2494125 -0.16665750000000001 7.00002
vertex 0.2121525 -0.2121525 7.00002
vertex 1.0775025 -0.2121525 7.00002
endloop
endfacet
facet normal 0 0 1
outer loop
vertex 0.2494125 -0.16665750000000001 7.00002
vertex 1.0775025 -0.2121525 7.00002
vertex 1.10376 -0.16665750000000001 7.00002
endloop
endfacet
facet normal 0 0 1
outer loop
vertex -1.10376 -0.16665750000000001 7.00002
vertex -1.0775025 -0.2121525 7.00002
vertex -0.2121525 -0.2121525 7.00002
endloop
endfacet
facet normal 0 0 1
outer loop
vertex -1.10376 -0.16665750000000001 7.00002
vertex -0.2121525 -0.2121525 7.00002
vertex -0.2494125 -0.16665750000000001 7.00002
endloop
endfacet
facet normal 0 0 1
outer loop
vertex 0.2121525 -0.2121525 7.00002
vertex 0.16665750000000001 -0.2494125 7.00002
vertex 1.05597 -0.2494125 7.00002
endloop
endfacet
facet normal 0 0 1
outer loop
vertex 0.2121525 -0.2121525 7.00002
vertex 1.05597 -0.2494125 7.00002
vertex 1.0775025 -0.2121525 7.00002
endloop
endfacet
facet normal 0 0 1
outer loop
vertex -1.0775025 -0.2121525 7.00002
vertex -1.05597 -0.2494125 7.00002
vertex -0.16665750000000001 -0.2494125 7.00002
endloop
endfacet
facet normal 0 0 1
outer loop
vertex -1.0775025 -0.2121525 7.00002
vertex -0.16665750000000001 -0.2494125 7.00002
vertex -0.2121525 -0.2121525 7.00002
endloop
endfacet
facet normal 0 0 1
outer loop
vertex 0.16665750000000001 -0.2494125 7.00002
vertex 0.1148175 -0.277155 7.00002
vertex 1.0399725 -0.277155 7.00002
endloop
endfacet
facet normal 0 0 1
outer loop
vertex 0.16665750000000001 -0.2494125 7.00002
vertex 1.0399725 -0.277155 7.00002
vertex 1.05597 -0.2494125 7.00002
endloop
endfacet
facet normal 0 0 1
outer loop
vertex -1.05597 -0.2494125 7.00002
vertex -1.0399725 -0.277155 7.00002
vertex -0.1148175 -0.277155 7.00002
endloop
endfacet
facet normal 0 0 1
outer loop
vertex -1.05597 -0.2494125 7.00002
vertex -0.1148175 -0.277155 7.00002
vertex -0.16665750000000001 -0.2494125 7.00002
endloop
endfacet
facet normal 0 0 1
outer loop
vertex 0.1148175 -0.277155 7.00002
vertex 0.0585225 -0.2942325 7.00002
vertex 1.0301175 -0.2942325 7.00002
endloop
endfacet
facet normal 0 0 1
outer loop
vertex 0.1148175 -0.277155 7.00002
vertex 1.0301175 -0.2942325 7.00002
vertex 1.0399725 -0.277155 7.00002
endloop
endfacet
facet normal 0 0 1
outer loop
vertex -1.0399725 -0.277155 7.00002
vertex -1.0301175 -0.2942325 7.00002
vertex -0.0585225 -0.2942325 7.00002
endloop
endfacet
facet normal 0 0 1
outer loop
vertex -1.0399725 -0.277155 7.00002
vertex -0.0585225 -0.2942325 7.00002
vertex -0.1148175 -0.277155 7.00002
endloop
endfacet
facet normal 0 0 1
outer loop
vertex 0.0585225 -0.2942325 7.00002
vertex 0 -0.29997 7.00002
vertex 1.02681 -0.29997 7.00002
endloop
endfacet
facet normal 0 0 1
outer loop
vertex 0.0585225 -0.2942325 7.00002
vertex 1.02681 -0.29997 7.00002
vertex 1.0301175 -0.2942325 7.00002
endloop
endfacet
facet normal 0 0 0.9999999999999999
outer loop
vertex -1.0301175 -0.2942325 7.00002
vertex -1.02681 -0.29997 7.00002
vertex 0 -0.29997 7.00002
endloop
endfacet
facet normal 0 0 1
outer loop
vertex -1.0301175 -0.2942325 7.00002
vertex 0 -0.29997 7.00002
vertex -0.0585225 -0.2942325 7.00002
endloop
endfacet
facet normal 0 0 1
outer loop
vertex 0 -0.5956875 7.00002
vertex 0 -0.29997 7.00002
vertex -1.02681 -0.29997 7.00002
endloop
endfacet
facet normal 0 0 1
outer loop
vertex 0 -0.5956875 7.00002
vertex -1.02681 -0.29997 7.00002
vertex -0.6000075 -1.03923 7.00002
endloop
endfacet
facet normal 0 0 1
outer loop
vertex 0 -0.5956875 7.00002
vertex -0.6000075 -1.03923 7.00002
vertex 0.6000075 -1.03923 7.00002
endloop
endfacet
facet normal 0 0 1
outer loop
vertex 0 -0.5956875 7.00002
vertex 0.6000075 -1.03923 7.00002
vertex 1.02681 -0.29997 7.00002
endloop
endfacet
facet normal 0 0 1
outer loop
vertex 0 -0.5956875 7.00002
vertex 1.02681 -0.29997 7.00002
vertex 0 -0.29997 7.00002
endloop
endfacet
facet normal 0.8660225965030834 -0.5000048623224155 0
outer loop
vertex 1.200015 0 -6.75
vertex 1.200015 0 7.00002
vertex 0.6000075 -1.03923 7.00002
endloop
endfacet
facet normal 0.8660225965030834 -0.5000048623224155 0
outer loop
vertex 1.200015 0 -6.75
vertex 0.6000075 -1.03923 7.00002
vertex 0.6000075 -1.03923 -6.75
endloop
endfacet
facet normal -0.9952285251199798 -0.0975714240313707 0
outer loop
vertex 0.29997 0 -6.75
vertex 0.29997 0 7.00002
vertex 0.2942325 0.0585225 7.00002
endloop
endfacet
facet normal -0.9952285251199798 -0.0975714240313707 0
outer loop
vertex 0.29997 0 -6.75
vertex 0.2942325 0.0585225 7.00002
vertex 0.2942325 0.0585225 -6.75
endloop
endfacet
facet normal -0.9569375098445011 -0.29029399279455526 0
outer loop
vertex 0.2942325 0.0585225 -6.75
vertex 0.2942325 0.0585225 7.00002
vertex 0.277155 0.1148175 7.00002
endloop
endfacet
facet normal -0.9569375098445011 -0.29029399279455526 0
outer loop
vertex 0.2942325 0.0585225 -6.75
vertex 0.277155 0.1148175 7.00002
vertex 0.277155 0.1148175 -6.75
endloop
endfacet
facet normal -0.8816846887623488 -0.4718390717204753 0
outer loop
vertex 0.277155 0.1148175 -6.75
vertex 0.277155 0.1148175 7.00002
vertex 0.2494125 0.16665750000000001 7.00002
endloop
endfacet
facet normal -0.8816846887623488 -0.4718390717204753 0
outer loop
vertex 0.277155 0.1148175 -6.75
vertex 0.2494125 0.16665750000000001 7.00002
vertex 0.2494125 0.16665750000000001 -6.75
endloop
endfacet
facet normal -0.7736503575610247 -0.6336127557473086 0
outer loop
vertex 0.2494125 0.16665750000000001 -6.75
vertex 0.2494125 0.16665750000000001 7.00002
vertex 0.2121525 0.2121525 7.00002
endloop
endfacet
facet normal -0.7736503575610247 -0.6336127557473086 0
outer loop
vertex 0.2494125 0.16665750000000001 -6.75
vertex 0.2121525 0.2121525 7.00002
vertex 0.2121525 0.2121525 -6.75
endloop
endfacet
facet normal -0.6336127557473086 -0.7736503575610247 0
outer loop
vertex 0.2121525 0.2121525 -6.75
vertex 0.2121525 0.2121525 7.00002
vertex 0.16665750000000001 0.2494125 7.00002
endloop
endfacet
facet normal -0.6336127557473086 -0.7736503575610247 0
outer loop
vertex 0.2121525 0.2121525 -6.75
vertex 0.16665750000000001 0.2494125 7.00002
vertex 0.16665750000000001 0.2494125 -6.75
endloop
endfacet
facet normal -0.4718390717204753 -0.8816846887623488 0
outer loop
vertex 0.16665750000000001 0.2494125 -6.75
vertex 0.16665750000000001 0.2494125 7.00002
vertex 0.1148175 0.277155 7.00002
endloop
endfacet
facet normal -0.4718390717204753 -0.8816846887623488 0
outer loop
vertex 0.16665750000000001 0.2494125 -6.75
vertex 0.1148175 0.277155 7.00002
vertex 0.1148175 0.277155 -6.75
endloop
endfacet
facet normal -0.29029399279455526 -0.9569375098445011 0
outer loop
vertex 0.1148175 0.277155 -6.75
vertex 0.1148175 0.277155 7.00002
vertex 0.0585225 0.2942325 7.00002
endloop
endfacet
facet normal -0.29029399279455526 -0.9569375098445011 0
outer loop
vertex 0.1148175 0.277155 -6.75
vertex 0.0585225 0.2942325 7.00002
vertex 0.0585225 0.2942325 -6.75
endloop
endfacet
facet normal -0.0975714240313707 -0.9952285251199798 0
outer loop
vertex 0.0585225 0.2942325 -6.75
vertex 0.0585225 0.2942325 7.00002
vertex 0 0.29997 7.00002
endloop
endfacet
facet normal -0.0975714240313707 -0.9952285251199798 0
outer loop
vertex 0.0585225 0.2942325 -6.75
vertex 0 0.29997 7.00002
vertex 0 0.29997 -6.75
endloop
endfacet
facet normal 0.0975714240313707 -0.9952285251199798 0
outer loop
vertex 0 0.29997 -6.75
vertex 0 0.29997 7.00002
vertex -0.0585225 0.2942325 7.00002
endloop
endfacet
facet normal 0.0975714240313707 -0.9952285251199798 0
outer loop
vertex 0 0.29997 -6.75
vertex -0.0585225 0.2942325 7.00002
vertex -0.0585225 0.2942325 -6.75
endloop
endfacet
facet normal 0.29029399279455526 -0.9569375098445011 0
outer loop
vertex -0.0585225 0.2942325 -6.75
vertex -0.0585225 0.2942325 7.00002
vertex -0.1148175 0.277155 7.00002
endloop
endfacet
facet normal 0.29029399279455526 -0.9569375098445011 0
outer loop
vertex -0.0585225 0.2942325 -6.75
vertex -0.1148175 0.277155 7.00002
vertex -0.1148175 0.277155 -6.75
endloop
endfacet
facet normal 0.4718390717204753 -0.8816846887623488 0
outer loop
vertex -0.1148175 0.277155 -6.75
vertex -0.1148175 0.277155 7.00002
vertex -0.16665750000000001 0.2494125 7.00002
endloop
endfacet
facet normal 0.4718390717204753 -0.8816846887623488 0
outer loop
vertex -0.1148175 0.277155 -6.75
vertex -0.16665750000000001 0.2494125 7.00002
vertex -0.16665750000000001 0.2494125 -6.75
endloop
endfacet
facet normal 0.6336127557473086 -0.7736503575610247 0
outer loop
vertex -0.16665750000000001 0.2494125 -6.75
vertex -0.16665750000000001 0.2494125 7.00002
vertex -0.2121525 0.2121525 7.00002
endloop
endfacet
facet normal 0.6336127557473086 -0.7736503575610247 0
outer loop
vertex -0.16665750000000001 0.2494125 -6.75
vertex -0.2121525 0.2121525 7.00002
vertex -0.2121525 0.2121525 -6.75
endloop
endfacet
facet normal 0.7736503575610247 -0.6336127557473086 0
outer loop
vertex -0.2121525 0.2121525 -6.75
vertex -0.2121525 0.2121525 7.00002
vertex -0.2494125 0.16665750000000001 7.00002
endloop
endfacet
facet normal 0.7736503575610247 -0.6336127557473086 0
outer loop
vertex -0.2121525 0.2121525 -6.75
vertex -0.2494125 0.16665750000000001 7.00002
vertex -0.2494125 0.16665750000000001 -6.75
endloop
endfacet
facet normal 0.8816846887623488 -0.4718390717204753 0
outer loop
vertex -0.2494125 0.16665750000000001 -6.75
vertex -0.2494125 0.16665750000000001 7.00002
vertex -0.277155 0.1148175 7.00002
endloop
endfacet
facet normal 0.8816846887623488 -0.4718390717204753 0
outer loop
vertex -0.2494125 0.16665750000000001 -6.75
vertex -0.277155 0.1148175 7.00002
vertex -0.277155 0.1148175 -6.75
endloop
endfacet
facet normal 0.9569375098445011 -0.29029399279455526 0
outer loop
vertex -0.277155 0.1148175 -6.75
vertex -0.277155 0.1148175 7.00002
vertex -0.2942325 0.0585225 7.00002
endloop
endfacet
facet normal 0.9569375098445011 -0.29029399279455526 0
outer loop
vertex -0.277155 0.1148175 -6.75
vertex -0.2942325 0.0585225 7.00002
vertex -0.2942325 0.0585225 -6.75
endloop
endfacet
facet normal 0.9952285251199798 -0.0975714240313707 0
outer loop
vertex -0.2942325 0.0585225 -6.75
vertex -0.2942325 0.0585225 7.00002
vertex -0.29997 0 7.00002
endloop
endfacet
facet normal 0.9952285251199798 -0.0975714240313707 0
outer loop
vertex -0.2942325 0.0585225 -6.75
vertex -0.29997 0 7.00002
vertex -0.29997 0 -6.75
endloop
endfacet
facet normal 0.9952285251199798 0.0975714240313707 0
outer loop
vertex -0.29997 0 -6.75
vertex -0.29997 0 7.00002
vertex -0.2942325 -0.0585225 7.00002
endloop
endfacet
facet normal 0.9952285251199798 0.0975714240313707 0
outer loop
vertex -0.29997 0 -6.75
vertex -0.2942325 -0.0585225 7.00002
vertex -0.2942325 -0.0585225 -6.75
endloop
endfacet
facet normal 0.9569375098445011 0.29029399279455526 0
outer loop
vertex -0.2942325 -0.0585225 -6.75
vertex -0.2942325 -0.0585225 7.00002
vertex -0.277155 -0.1148175 7.00002
endloop
endfacet
facet normal 0.9569375098445011 0.29029399279455526 0
outer loop
vertex -0.2942325 -0.0585225 -6.75
vertex -0.277155 -0.1148175 7.00002
vertex -0.277155 -0.1148175 -6.75
endloop
endfacet
facet normal 0.8816846887623488 0.4718390717204753 0
outer loop
vertex -0.277155 -0.1148175 -6.75
vertex -0.277155 -0.1148175 7.00002
vertex -0.2494125 -0.16665750000000001 7.00002
endloop
endfacet
facet normal 0.8816846887623488 0.4718390717204753 0
outer loop
vertex -0.277155 -0.1148175 -6.75
vertex -0.2494125 -0.16665750000000001 7.00002
vertex -0.2494125 -0.16665750000000001 -6.75
endloop
endfacet
facet normal 0.7736503575610247 0.6336127557473086 0
outer loop
vertex -0.2494125 -0.16665750000000001 -6.75
vertex -0.2494125 -0.16665750000000001 7.00002
vertex -0.2121525 -0.2121525 7.00002
endloop
endfacet
facet normal 0.7736503575610247 0.6336127557473086 0
outer loop
vertex -0.2494125 -0.16665750000000001 -6.75
vertex -0.2121525 -0.2121525 7.00002
vertex -0.2121525 -0.2121525 -6.75
endloop
endfacet
facet normal 0.6336127557473086 0.7736503575610247 0
outer loop
vertex -0.2121525 -0.2121525 -6.75
vertex -0.2121525 -0.2121525 7.00002
vertex -0.16665750000000001 -0.2494125 7.00002
endloop
endfacet
facet normal 0.6336127557473086 0.7736503575610247 0
outer loop
vertex -0.2121525 -0.2121525 -6.75
vertex -0.16665750000000001 -0.2494125 7.00002
vertex -0.16665750000000001 -0.2494125 -6.75
endloop
endfacet
facet normal 0.4718390717204753 0.8816846887623488 0
outer loop
vertex -0.16665750000000001 -0.2494125 -6.75
vertex -0.16665750000000001 -0.2494125 7.00002
vertex -0.1148175 -0.277155 7.00002
endloop
endfacet
facet normal 0.4718390717204753 0.8816846887623488 0
outer loop
vertex -0.16665750000000001 -0.2494125 -6.75
vertex -0.1148175 -0.277155 7.00002
vertex -0.1148175 -0.277155 -6.75
endloop
endfacet
facet normal 0.29029399279455526 0.9569375098445011 0
outer loop
vertex -0.1148175 -0.277155 -6.75
vertex -0.1148175 -0.277155 7.00002
vertex -0.0585225 -0.2942325 7.00002
endloop
endfacet
facet normal 0.29029399279455526 0.9569375098445011 0
outer loop
vertex -0.1148175 -0.277155 -6.75
vertex -0.0585225 -0.2942325 7.00002
vertex -0.0585225 -0.2942325 -6.75
endloop
endfacet
facet normal 0.0975714240313707 0.9952285251199798 0
outer loop
vertex -0.0585225 -0.2942325 -6.75
vertex -0.0585225 -0.2942325 7.00002
vertex 0 -0.29997 7.00002
endloop
endfacet
facet normal 0.0975714240313707 0.9952285251199798 0
outer loop
vertex -0.0585225 -0.2942325 -6.75
vertex 0 -0.29997 7.00002
vertex 0 -0.29997 -6.75
endloop
endfacet
facet normal -0.0975714240313707 0.9952285251199798 0
outer loop
vertex 0 -0.29997 -6.75
vertex 0 -0.29997 7.00002
vertex 0.0585225 -0.2942325 7.00002
endloop
endfacet
facet normal -0.0975714240313707 0.9952285251199798 0
outer loop
vertex 0 -0.29997 -6.75
vertex 0.0585225 -0.2942325 7.00002
vertex 0.0585225 -0.2942325 -6.75
endloop
endfacet
facet normal -0.29029399279455526 0.9569375098445011 0
outer loop
vertex 0.0585225 -0.2942325 -6.75
vertex 0.0585225 -0.2942325 7.00002
vertex 0.1148175 -0.277155 7.00002
endloop
endfacet
facet normal -0.29029399279455526 0.9569375098445011 0
outer loop
vertex 0.0585225 -0.2942325 -6.75
vertex 0.1148175 -0.277155 7.00002
vertex 0.1148175 -0.277155 -6.75
endloop
endfacet
facet normal -0.4718390717204753 0.8816846887623488 0
outer loop
vertex 0.1148175 -0.277155 -6.75
vertex 0.1148175 -0.277155 7.00002
vertex 0.16665750000000001 -0.2494125 7.00002
endloop
endfacet
facet normal -0.4718390717204753 0.8816846887623488 0
outer loop
vertex 0.1148175 -0.277155 -6.75
vertex 0.16665750000000001 -0.2494125 7.00002
vertex 0.16665750000000001 -0.2494125 -6.75
endloop
endfacet
facet normal -0.6336127557473086 0.7736503575610247 0
outer loop
vertex 0.16665750000000001 -0.2494125 -6.75
vertex 0.16665750000000001 -0.2494125 7.00002
vertex 0.2121525 -0.2121525 7.00002
endloop
endfacet
facet normal -0.6336127557473086 0.7736503575610247 0
outer loop
vertex 0.16665750000000001 -0.2494125 -6.75
vertex 0.2121525 -0.2121525 7.00002
vertex 0.2121525 -0.2121525 -6.75
endloop
endfacet
facet normal -0.7736503575610247 0.6336127557473086 0
outer loop
vertex 0.2121525 -0.2121525 -6.75
vertex 0.2121525 -0.2121525 7.00002
vertex 0.2494125 -0.16665750000000001 7.00002
endloop
endfacet
facet normal -0.7736503575610247 0.6336127557473086 0
outer loop
vertex 0.2121525 -0.2121525 -6.75
vertex 0.2494125 -0.16665750000000001 7.00002
vertex 0.2494125 -0.16665750000000001 -6.75
endloop
endfacet
facet normal -0.8816846887623488 0.4718390717204753 0
outer loop
vertex 0.2494125 -0.16665750000000001 -6.75
vertex 0.2494125 -0.16665750000000001 7.00002
vertex 0.277155 -0.1148175 7.00002
endloop
endfacet
facet normal -0.8816846887623488 0.4718390717204753 0
outer loop
vertex 0.2494125 -0.16665750000000001 -6.75
vertex 0.277155 -0.1148175 7.00002
vertex 0.277155 -0.1148175 -6.75
endloop
endfacet
facet normal -0.9569375098445011 0.29029399279455526 0
outer loop
vertex 0.277155 -0.1148175 -6.75
vertex 0.277155 -0.1148175 7.00002
vertex 0.2942325 -0.0585225 7.00002
endloop
endfacet
facet normal -0.9569375098445011 0.29029399279455526 0
outer loop
vertex 0.277155 -0.1148175 -6.75
vertex 0.2942325 -0.0585225 7.00002
vertex 0.2942325 -0.0585225 -6.75
endloop
endfacet
facet normal -0.9952285251199798 0.0975714240313707 0
outer loop
vertex 0.2942325 -0.0585225 -6.75
vertex 0.2942325 -0.0585225 7.00002
vertex 0.29997 0 7.00002
endloop
endfacet
facet normal -0.9952285251199798 0.0975714240313707 0
outer loop
vertex 0.2942325 -0.0585225 -6.75
vertex 0.29997 0 7.00002
vertex 0.29997 0 -6.75
endloop
endfacet
facet normal 0.8660225965030834 0.5000048623224155 0
outer loop
vertex 1.200015 0 7.00002
vertex 1.200015 0 -6.75
vertex 0.6000075 1.03923 -6.75
endloop
endfacet
facet normal 0.8660225965030834 0.5000048623224155 0
outer loop
vertex 1.200015 0 7.00002
vertex 0.6000075 1.03923 -6.75
vertex 0.6000075 1.03923 7.00002
endloop
endfacet
facet normal 0 1 0
outer loop
vertex 0.6000075 1.03923 7.00002
vertex 0.6000075 1.03923 -6.75
vertex -0.6000075 1.03923 -6.75
endloop
endfacet
facet normal 0 1 0
outer loop
vertex 0.6000075 1.03923 7.00002
vertex -0.6000075 1.03923 -6.75
vertex -0.6000075 1.03923 7.00002
endloop
endfacet
facet normal -0.8660225965030834 0.5000048623224155 0
outer loop
vertex -0.6000075 1.03923 7.00002
vertex -0.6000075 1.03923 -6.75
vertex -1.200015 0 -6.75
endloop
endfacet
facet normal -0.8660225965030834 0.5000048623224155 0
outer loop
vertex -0.6000075 1.03923 7.00002
vertex -1.200015 0 -6.75
vertex -1.200015 0 7.00002
endloop
endfacet
facet normal -0.8660225965030834 -0.5000048623224155 0
outer loop
vertex -1.200015 0 7.00002
vertex -1.200015 0 -6.75
vertex -0.6000075 -1.03923 -6.75
endloop
endfacet
facet normal -0.8660225965030834 -0.5000048623224155 0
outer loop
vertex -1.200015 0 7.00002
vertex -0.6000075 -1.03923 -6.75
vertex -0.6000075 -1.03923 7.00002
endloop
endfacet
facet normal 0 -1 0
outer loop
vertex -0.6000075 -1.03923 7.00002
vertex -0.6000075 -1.03923 -6.75
vertex 0.6000075 -1.03923 -6.75
endloop
endfacet
facet normal 0 -1 0
outer loop
vertex -0.6000075 -1.03923 7.00002
vertex 0.6000075 -1.03923 -6.75
vertex 0.6000075 -1.03923 7.00002
endloop
endfacet
facet normal 0 0 -1
outer loop
vertex 0 0 -7.2499725
vertex 0.2926125 1.4711625 -7.2499725
vertex 0.57402 1.3858425 -7.2499725
endloop
endfacet
facet normal 0 0 -1
outer loop
vertex 0 0 -7.2499725
vertex 0.57402 1.3858425 -7.2499725
vertex 0.833355 1.2471975 -7.2499725
endloop
endfacet
facet normal 0 0 -1
outer loop
vertex 0 0 -7.2499725
vertex 0.833355 1.2471975 -7.2499725
vertex 1.0606275 1.0606275 -7.2499725
endloop
endfacet
facet normal 0 0 -1
outer loop
vertex 0 0 -7.2499725
vertex 1.0606275 1.0606275 -7.2499725
vertex 1.2471975 0.833355 -7.2499725
endloop
endfacet
facet normal 0 0 -1
outer loop
vertex 0 0 -7.2499725
vertex 1.2471975 0.833355 -7.2499725
vertex 1.3858425 0.57402 -7.2499725
endloop
endfacet
facet normal 0 0 -1
outer loop
vertex 0 0 -7.2499725
vertex 1.3858425 0.57402 -7.2499725
vertex 1.4711625 0.2926125 -7.2499725
endloop
endfacet
facet normal 0 0 -1
outer loop
vertex 0 0 -7.2499725
vertex 1.4711625 0.2926125 -7.2499725
vertex 1.4999850000000001 0 -7.2499725
endloop
endfacet
facet normal 0 0 -1
outer loop
vertex 0 0 -7.2499725
vertex 1.4999850000000001 0 -7.2499725
vertex 1.4711625 -0.2926125 -7.2499725
endloop
endfacet
facet normal 0 0 -1
outer loop
vertex 0 0 -7.2499725
vertex 1.4711625 -0.2926125 -7.2499725
vertex 1.3858425 -0.57402 -7.2499725
endloop
endfacet
facet normal 0 0 -1
outer loop
vertex 0 0 -7.2499725
vertex 1.3858425 -0.57402 -7.2499725
vertex 1.2471975 -0.833355 -7.2499725
endloop
endfacet
facet normal 0 0 -1
outer loop
vertex 0 0 -7.2499725
vertex 1.2471975 -0.833355 -7.2499725
vertex 1.0606275 -1.0606275 -7.2499725
endloop
endfacet
facet normal 0 0 -1
outer loop
vertex 0 0 -7.2499725
vertex 1.0606275 -1.0606275 -7.2499725
vertex 0.833355 -1.2471975 -7.2499725
endloop
endfacet
facet normal 0 0 -1
outer loop
vertex 0 0 -7.2499725
vertex 0.833355 -1.2471975 -7.2499725
vertex 0.57402 -1.3858425 -7.2499725
endloop
endfacet
facet normal 0 0 -1
outer loop
vertex 0 0 -7.2499725
vertex 0.57402 -1.3858425 -7.2499725
vertex 0.2926125 -1.4711625 -7.2499725
endloop
endfacet
facet normal 0 0 -1
outer loop
vertex 0 0 -7.2499725
vertex 0.2926125 -1.4711625 -7.2499725
vertex 0 -1.4999850000000001 -7.2499725
endloop
endfacet
facet normal 0 0 -1
outer loop
vertex 0 0 -7.2499725
vertex 0 -1.4999850000000001 -7.2499725
vertex -0.2926125 -1.4711625 -7.2499725
endloop
endfacet
facet normal 0 0 -1
outer loop
vertex 0 0 -7.2499725
vertex -0.2926125 -1.4711625 -7.2499725
vertex -0.57402 -1.3858425 -7.2499725
endloop
endfacet
facet normal 0 0 -1
outer loop
vertex 0 0 -7.2499725
vertex -0.57402 -1.3858425 -7.2499725
vertex -0.833355 -1.2471975 -7.2499725
endloop
endfacet
facet normal 0 0 -1
outer loop
vertex 0 0 -7.2499725
vertex -0.833355 -1.2471975 -7.2499725
vertex -1.0606275 -1.0606275 -7.2499725
endloop
endfacet
facet normal 0 0 -1
outer loop
vertex 0 0 -7.2499725
vertex -1.0606275 -1.0606275 -7.2499725
vertex -1.2471975 -0.833355 -7.2499725
endloop
endfacet
facet normal 0 0 -1
outer loop
vertex 0 0 -7.2499725
vertex -1.2471975 -0.833355 -7.2499725
vertex -1.3858425 -0.57402 -7.2499725
endloop
endfacet
facet normal 0 0 -1
outer loop
vertex 0 0 -7.2499725
vertex -1.3858425 -0.57402 -7.2499725
vertex -1.4711625 -0.2926125 -7.2499725
endloop
endfacet
facet normal 0 0 -1
outer loop
vertex 0 0 -7.2499725
vertex -1.4711625 -0.2926125 -7.2499725
vertex -1.4999850000000001 0 -7.2499725
endloop
endfacet
facet normal 0 0 -1
outer loop
vertex 0 0 -7.2499725
vertex -1.4999850000000001 0 -7.2499725
vertex -1.4711625 0.2926125 -7.2499725
endloop
endfacet
facet normal 0 0 -1
outer loop
vertex 0 0 -7.2499725
vertex -1.4711625 0.2926125 -7.2499725
vertex -1.3858425 0.57402 -7.2499725
endloop
endfacet
facet normal 0 0 -1
outer loop
vertex 0 0 -7.2499725
vertex -1.3858425 0.57402 -7.2499725
vertex -1.2471975 0.833355 -7.2499725
endloop
endfacet
facet normal 0 0 -1
outer loop
vertex 0 0 -7.2499725
vertex -1.2471975 0.833355 -7.2499725
vertex -1.0606275 1.0606275 -7.2499725
endloop
endfacet
facet normal 0 0 -1
outer loop
vertex 0 0 -7.2499725
vertex -1.0606275 1.0606275 -7.2499725
vertex -0.833355 1.2471975 -7.2499725
endloop
endfacet
facet normal 0 0 -1
outer loop
vertex 0 0 -7.2499725
vertex -0.833355 1.2471975 -7.2499725
vertex -0.57402 1.3858425 -7.2499725
endloop
endfacet
facet normal 0 0 -1
outer loop
vertex 0 0 -7.2499725
vertex -0.57402 1.3858425 -7.2499725
vertex -0.2926125 1.4711625 -7.2499725
endloop
endfacet
facet normal 0 0 -1
outer loop
vertex 0 0 -7.2499725
vertex -0.2926125 1.4711625 -7.2499725
vertex 0 1.4999850000000001 -7.2499725
endloop
endfacet
facet normal 0 0 -1
outer loop
vertex 0 0 -7.2499725
vertex 0 1.4999850000000001 -7.2499725
vertex 0.2926125 1.4711625 -7.2499725
endloop
endfacet
facet normal 0.9951838361253746 0.09802618178213099 0
outer loop
vertex 1.4711625 0.2926125 -7.2499725
vertex 1.4711625 0.2926125 -6.75
vertex 1.4999850000000001 0 -6.75
endloop
endfacet
facet normal 0.9951838361253746 0.09802618178213099 0
outer loop
vertex 1.4711625 0.2926125 -7.2499725
vertex 1.4999850000000001 0 -6.75
vertex 1.4999850000000001 0 -7.2499725
endloop
endfacet
facet normal 0.9569819211965782 0.2901475529845221 0
outer loop
vertex 1.3858425 0.57402 -7.2499725
vertex 1.3858425 0.57402 -6.75
vertex 1.4711625 0.2926125 -6.75
endloop
endfacet
facet normal 0.9569819211965782 0.2901475529845221 0
outer loop
vertex 1.3858425 0.57402 -7.2499725
vertex 1.4711625 0.2926125 -6.75
vertex 1.4711625 0.2926125 -7.2499725
endloop
endfacet
facet normal 0.8818823066846458 0.47146961424525363 0
outer loop
vertex 1.2471975 0.833355 -7.2499725
vertex 1.2471975 0.833355 -6.75
vertex 1.3858425 0.57402 -6.75
endloop
endfacet
facet normal 0.8818823066846458 0.47146961424525363 0
outer loop
vertex 1.2471975 0.833355 -7.2499725
vertex 1.3858425 0.57402 -6.75
vertex 1.3858425 0.57402 -7.2499725
endloop
endfacet
facet normal 0.7729232564089482 0.6344995190716753 0
outer loop
vertex 1.0606275 1.0606275 -7.2499725
vertex 1.0606275 1.0606275 -6.75
vertex 1.2471975 0.833355 -6.75
endloop
endfacet
facet normal 0.7729232564089482 0.6344995190716753 0
outer loop
vertex 1.0606275 1.0606275 -7.2499725
vertex 1.2471975 0.833355 -6.75
vertex 1.2471975 0.833355 -7.2499725
endloop
endfacet
facet normal 0.6344995190716753 0.7729232564089482 0
outer loop
vertex 0.833355 1.2471975 -7.2499725
vertex 0.833355 1.2471975 -6.75
vertex 1.0606275 1.0606275 -6.75
endloop
endfacet
facet normal 0.6344995190716753 0.7729232564089482 0
outer loop
vertex 0.833355 1.2471975 -7.2499725
vertex 1.0606275 1.0606275 -6.75
vertex 1.0606275 1.0606275 -7.2499725
endloop
endfacet
facet normal 0.47146961424525363 0.8818823066846458 0
outer loop
vertex 0.57402 1.3858425 -7.2499725
vertex 0.57402 1.3858425 -6.75
vertex 0.833355 1.2471975 -6.75
endloop
endfacet
facet normal 0.47146961424525363 0.8818823066846458 0
outer loop
vertex 0.57402 1.3858425 -7.2499725
vertex 0.833355 1.2471975 -6.75
vertex 0.833355 1.2471975 -7.2499725
endloop
endfacet
facet normal 0.2901475529845221 0.9569819211965782 0
outer loop
vertex 0.2926125 1.4711625 -7.2499725
vertex 0.2926125 1.4711625 -6.75
vertex 0.57402 1.3858425 -6.75
endloop
endfacet
facet normal 0.2901475529845221 0.9569819211965782 0
outer loop
vertex 0.2926125 1.4711625 -7.2499725
vertex 0.57402 1.3858425 -6.75
vertex 0.57402 1.3858425 -7.2499725
endloop
endfacet
facet normal 0.09802618178213099 0.9951838361253746 0
outer loop
vertex 0 1.4999850000000001 -7.2499725
vertex 0 1.4999850000000001 -6.75
vertex 0.2926125 1.4711625 -6.75
endloop
endfacet
facet normal 0.09802618178213099 0.9951838361253746 0
outer loop
vertex 0 1.4999850000000001 -7.2499725
vertex 0.2926125 1.4711625 -6.75
vertex 0.2926125 1.4711625 -7.2499725
endloop
endfacet
facet normal -0.09802618178213099 0.9951838361253746 0
outer loop
vertex -0.2926125 1.4711625 -7.2499725
vertex -0.2926125 1.4711625 -6.75
vertex 0 1.4999850000000001 -6.75
endloop
endfacet
facet normal -0.09802618178213099 0.9951838361253746 0
outer loop
vertex -0.2926125 1.4711625 -7.2499725
vertex 0 1.4999850000000001 -6.75
vertex 0 1.4999850000000001 -7.2499725
endloop
endfacet
facet normal -0.2901475529845221 0.9569819211965782 0
outer loop
vertex -0.57402 1.3858425 -7.2499725
vertex -0.57402 1.3858425 -6.75
vertex -0.2926125 1.4711625 -6.75
endloop
endfacet
facet normal -0.2901475529845221 0.9569819211965782 0
outer loop
vertex -0.57402 1.3858425 -7.2499725
vertex -0.2926125 1.4711625 -6.75
vertex -0.2926125 1.4711625 -7.2499725
endloop
endfacet
facet normal -0.47146961424525363 0.8818823066846458 0
outer loop
vertex -0.833355 1.2471975 -7.2499725
vertex -0.833355 1.2471975 -6.75
vertex -0.57402 1.3858425 -6.75
endloop
endfacet
facet normal -0.47146961424525363 0.8818823066846458 0
outer loop
vertex -0.833355 1.2471975 -7.2499725
vertex -0.57402 1.3858425 -6.75
vertex -0.57402 1.3858425 -7.2499725
endloop
endfacet
facet normal -0.6344995190716753 0.7729232564089482 0
outer loop
vertex -1.0606275 1.0606275 -7.2499725
vertex -1.0606275 1.0606275 -6.75
vertex -0.833355 1.2471975 -6.75
endloop
endfacet
facet normal -0.6344995190716753 0.7729232564089482 0
outer loop
vertex -1.0606275 1.0606275 -7.2499725
vertex -0.833355 1.2471975 -6.75
vertex -0.833355 1.2471975 -7.2499725
endloop
endfacet
facet normal -0.7729232564089482 0.6344995190716753 0
outer loop
vertex -1.2471975 0.833355 -7.2499725
vertex -1.2471975 0.833355 -6.75
vertex -1.0606275 1.0606275 -6.75
endloop
endfacet
facet normal -0.7729232564089482 0.6344995190716753 0
outer loop
vertex -1.2471975 0.833355 -7.2499725
vertex -1.0606275 1.0606275 -6.75
vertex -1.0606275 1.0606275 -7.2499725
endloop
endfacet
facet normal -0.8818823066846458 0.47146961424525363 0
outer loop
vertex -1.3858425 0.57402 -7.2499725
vertex -1.3858425 0.57402 -6.75
vertex -1.2471975 0.833355 -6.75
endloop
endfacet
facet normal -0.8818823066846458 0.47146961424525363 0
outer loop
vertex -1.3858425 0.57402 -7.2499725
vertex -1.2471975 0.833355 -6.75
vertex -1.2471975 0.833355 -7.2499725
endloop
endfacet
facet normal -0.9569819211965782 0.2901475529845221 0
outer loop
vertex -1.4711625 0.2926125 -7.2499725
vertex -1.4711625 0.2926125 -6.75
vertex -1.3858425 0.57402 -6.75
endloop
endfacet
facet normal -0.9569819211965782 0.2901475529845221 0
outer loop
vertex -1.4711625 0.2926125 -7.2499725
vertex -1.3858425 0.57402 -6.75
vertex -1.3858425 0.57402 -7.2499725
endloop
endfacet
facet normal -0.9951838361253746 0.09802618178213099 0
outer loop
vertex -1.4999850000000001 0 -7.2499725
vertex -1.4999850000000001 0 -6.75
vertex -1.4711625 0.2926125 -6.75
endloop
endfacet
facet normal -0.9951838361253746 0.09802618178213099 0
outer loop
vertex -1.4999850000000001 0 -7.2499725
vertex -1.4711625 0.2926125 -6.75
vertex -1.4711625 0.2926125 -7.2499725
endloop
endfacet
facet normal -0.9951838361253746 -0.09802618178213099 0
outer loop
vertex -1.4711625 -0.2926125 -7.2499725
vertex -1.4711625 -0.2926125 -6.75
vertex -1.4999850000000001 0 -6.75
endloop
endfacet
facet normal -0.9951838361253746 -0.09802618178213099 0
outer loop
vertex -1.4711625 -0.2926125 -7.2499725
vertex -1.4999850000000001 0 -6.75
vertex -1.4999850000000001 0 -7.2499725
endloop
endfacet
facet normal -0.9569819211965782 -0.2901475529845221 0
outer loop
vertex -1.3858425 -0.57402 -7.2499725
vertex -1.3858425 -0.57402 -6.75
vertex -1.4711625 -0.2926125 -6.75
endloop
endfacet
facet normal -0.9569819211965782 -0.2901475529845221 0
outer loop
vertex -1.3858425 -0.57402 -7.2499725
vertex -1.4711625 -0.2926125 -6.75
vertex -1.4711625 -0.2926125 -7.2499725
endloop
endfacet
facet normal -0.8818823066846458 -0.47146961424525363 0
outer loop
vertex -1.2471975 -0.833355 -7.2499725
vertex -1.2471975 -0.833355 -6.75
vertex -1.3858425 -0.57402 -6.75
endloop
endfacet
facet normal -0.8818823066846458 -0.47146961424525363 0
outer loop
vertex -1.2471975 -0.833355 -7.2499725
vertex -1.3858425 -0.57402 -6.75
vertex -1.3858425 -0.57402 -7.2499725
endloop
endfacet
facet normal -0.7729232564089482 -0.6344995190716753 0
outer loop
vertex -1.0606275 -1.0606275 -7.2499725
vertex -1.0606275 -1.0606275 -6.75
vertex -1.2471975 -0.833355 -6.75
endloop
endfacet
facet normal -0.7729232564089482 -0.6344995190716753 0
outer loop
vertex -1.0606275 -1.0606275 -7.2499725
vertex -1.2471975 -0.833355 -6.75
vertex -1.2471975 -0.833355 -7.2499725
endloop
endfacet
facet normal -0.6344995190716753 -0.7729232564089482 0
outer loop
vertex -0.833355 -1.2471975 -7.2499725
vertex -0.833355 -1.2471975 -6.75
vertex -1.0606275 -1.0606275 -6.75
endloop
endfacet
facet normal -0.6344995190716753 -0.7729232564089482 0
outer loop
vertex -0.833355 -1.2471975 -7.2499725
vertex -1.0606275 -1.0606275 -6.75
vertex -1.0606275 -1.0606275 -7.2499725
endloop
endfacet
facet normal -0.47146961424525363 -0.8818823066846458 0
outer loop
vertex -0.57402 -1.3858425 -7.2499725
vertex -0.57402 -1.3858425 -6.75
vertex -0.833355 -1.2471975 -6.75
endloop
endfacet
facet normal -0.47146961424525363 -0.8818823066846458 0
outer loop
vertex -0.57402 -1.3858425 -7.2499725
vertex -0.833355 -1.2471975 -6.75
vertex -0.833355 -1.2471975 -7.2499725
endloop
endfacet
facet normal -0.2901475529845221 -0.9569819211965782 0
outer loop
vertex -0.2926125 -1.4711625 -7.2499725
vertex -0.2926125 -1.4711625 -6.75
vertex -0.57402 -1.3858425 -6.75
endloop
endfacet
facet normal -0.2901475529845221 -0.9569819211965782 0
outer loop
vertex -0.2926125 -1.4711625 -7.2499725
vertex -0.57402 -1.3858425 -6.75
vertex -0.57402 -1.3858425 -7.2499725
endloop
endfacet
facet normal -0.09802618178213099 -0.9951838361253746 0
outer loop
vertex 0 -1.4999850000000001 -7.2499725
vertex 0 -1.4999850000000001 -6.75
vertex -0.2926125 -1.4711625 -6.75
endloop
endfacet
facet normal -0.09802618178213099 -0.9951838361253746 0
outer loop
vertex 0 -1.4999850000000001 -7.2499725
vertex -0.2926125 -1.4711625 -6.75
vertex -0.2926125 -1.4711625 -7.2499725
endloop
endfacet
facet normal 0.09802618178213099 -0.9951838361253746 0
outer loop
vertex 0.2926125 -1.4711625 -7.2499725
vertex 0.2926125 -1.4711625 -6.75
vertex 0 -1.4999850000000001 -6.75
endloop
endfacet
facet normal 0.09802618178213099 -0.9951838361253746 0
outer loop
vertex 0.2926125 -1.4711625 -7.2499725
vertex 0 -1.4999850000000001 -6.75
vertex 0 -1.4999850000000001 -7.2499725
endloop
endfacet
facet normal 0.2901475529845221 -0.9569819211965782 0
outer loop
vertex 0.57402 -1.3858425 -7.2499725
vertex 0.57402 -1.3858425 -6.75
vertex 0.2926125 -1.4711625 -6.75
endloop
endfacet
facet normal 0.2901475529845221 -0.9569819211965782 0
outer loop
vertex 0.57402 -1.3858425 -7.2499725
vertex 0.2926125 -1.4711625 -6.75
vertex 0.2926125 -1.4711625 -7.2499725
endloop
endfacet
facet normal 0.47146961424525363 -0.8818823066846458 0
outer loop
vertex 0.833355 -1.2471975 -7.2499725
vertex 0.833355 -1.2471975 -6.75
vertex 0.57402 -1.3858425 -6.75
endloop
endfacet
facet normal 0.47146961424525363 -0.8818823066846458 0
outer loop
vertex 0.833355 -1.2471975 -7.2499725
vertex 0.57402 -1.3858425 -6.75
vertex 0.57402 -1.3858425 -7.2499725
endloop
endfacet
facet normal 0.6344995190716753 -0.7729232564089482 0
outer loop
vertex 1.0606275 -1.0606275 -7.2499725
vertex 1.0606275 -1.0606275 -6.75
vertex 0.833355 -1.2471975 -6.75
endloop
endfacet
facet normal 0.6344995190716753 -0.7729232564089482 0
outer loop
vertex 1.0606275 -1.0606275 -7.2499725
vertex 0.833355 -1.2471975 -6.75
vertex 0.833355 -1.2471975 -7.2499725
endloop
endfacet
facet normal 0.7729232564089482 -0.6344995190716753 0
outer loop
vertex 1.2471975 -0.833355 -7.2499725
vertex 1.2471975 -0.833355 -6.75
vertex 1.0606275 -1.0606275 -6.75
endloop
endfacet
facet normal 0.7729232564089482 -0.6344995190716753 0
outer loop
vertex 1.2471975 -0.833355 -7.2499725
vertex 1.0606275 -1.0606275 -6.75
vertex 1.0606275 -1.0606275 -7.2499725
endloop
endfacet
facet normal 0.8818823066846458 -0.47146961424525363 0
outer loop
vertex 1.3858425 -0.57402 -7.2499725
vertex 1.3858425 -0.57402 -6.75
vertex 1.2471975 -0.833355 -6.75
endloop
endfacet
facet normal 0.8818823066846458 -0.47146961424525363 0
outer loop
vertex 1.3858425 -0.57402 -7.2499725
vertex 1.2471975 -0.833355 -6.75
vertex 1.2471975 -0.833355 -7.2499725
endloop
endfacet
facet normal 0.9569819211965782 -0.2901475529845221 0
outer loop
vertex 1.4711625 -0.2926125 -7.2499725
vertex 1.4711625 -0.2926125 -6.75
vertex 1.3858425 -0.57402 -6.75
endloop
endfacet
facet normal 0.9569819211965782 -0.2901475529845221 0
outer loop
vertex 1.4711625 -0.2926125 -7.2499725
vertex 1.3858425 -0.57402 -6.75
vertex 1.3858425 -0.57402 -7.2499725
endloop
endfacet
facet normal 0.9951838361253746 -0.09802618178213099 0
outer loop
vertex 1.4999850000000001 0 -7.2499725
vertex 1.4999850000000001 0 -6.75
vertex 1.4711625 -0.2926125 -6.75
endloop
endfacet
facet normal 0.9951838361253746 -0.09802618178213099 0
outer loop
vertex 1.4999850000000001 0 -7.2499725
vertex 1.4711625 -0.2926125 -6.75
vertex 1.4711625 -0.2926125 -7.2499725
endloop
endfacet
facet normal 0 0 1
outer loop
vertex 0 1.2297150000000001 -6.75
vertex -0.2926125 1.4711625 -6.75
vertex -0.57402 1.3858425 -6.75
endloop
endfacet
facet normal 0 0 1
outer loop
vertex 0 1.2297150000000001 -6.75
vertex -0.57402 1.3858425 -6.75
vertex -0.833355 1.2471975 -6.75
endloop
endfacet
facet normal 0 0 1
outer loop
vertex 0 1.2297150000000001 -6.75
vertex -0.833355 1.2471975 -6.75
vertex -1.0606275 1.0606275 -6.75
endloop
endfacet
facet normal 0 0 0.9999999999999999
outer loop
vertex 0 1.2297150000000001 -6.75
vertex -1.0606275 1.0606275 -6.75
vertex -1.0782450000000001 1.03923 -6.75
endloop
endfacet
facet normal 0 0 1
outer loop
vertex 0 1.2297150000000001 -6.75
vertex -1.0782450000000001 1.03923 -6.75
vertex -0.6000075 1.03923 -6.75
endloop
endfacet
facet normal 0 0 1
outer loop
vertex 0 1.2297150000000001 -6.75
vertex -0.6000075 1.03923 -6.75
vertex 0.6000075 1.03923 -6.75
endloop
endfacet
facet normal 0 0 1
outer loop
vertex 0 1.2297150000000001 -6.75
vertex 0.6000075 1.03923 -6.75
vertex 1.0782450000000001 1.03923 -6.75
endloop
endfacet
facet normal 0 0 0.9999999999999999
outer loop
vertex 0 1.2297150000000001 -6.75
vertex 1.0782450000000001 1.03923 -6.75
vertex 1.0606275 1.0606275 -6.75
endloop
endfacet
facet normal 0 0 1
outer loop
vertex 0 1.2297150000000001 -6.75
vertex 1.0606275 1.0606275 -6.75
vertex 0.833355 1.2471975 -6.75
endloop
endfacet
facet normal 0 0 1
outer loop
vertex 0 1.2297150000000001 -6.75
vertex 0.833355 1.2471975 -6.75
vertex 0.57402 1.3858425 -6.75
endloop
endfacet
facet normal 0 0 1
outer loop
vertex 0 1.2297150000000001 -6.75
vertex 0.57402 1.3858425 -6.75
vertex 0.2926125 1.4711625 -6.75
endloop
endfacet
facet normal 0 0 1
outer loop
vertex 0 1.2297150000000001 -6.75
vertex 0.2926125 1.4711625 -6.75
vertex 0 1.4999850000000001 -6.75
endloop
endfacet
facet normal 0 0 1
outer loop
vertex 0 1.2297150000000001 -6.75
vertex 0 1.4999850000000001 -6.75
vertex -0.2926125 1.4711625 -6.75
endloop
endfacet
facet normal 0 0 1
outer loop
vertex 1.21176 0.5397975 -6.75
vertex 0.6000075 1.03923 -6.75
vertex 1.200015 0 -6.75
endloop
endfacet
facet normal 0 0 0.9999999999999999
outer loop
vertex 1.21176 0.5397975 -6.75
vertex 1.200015 0 -6.75
vertex 1.4999850000000001 0 -6.75
endloop
endfacet
facet normal 0 0 1
outer loop
vertex 1.21176 0.5397975 -6.75
vertex 1.4999850000000001 0 -6.75
vertex 1.4711625 0.2926125 -6.75
endloop
endfacet
facet normal 0 0 0.9999999999999999
outer loop
vertex 1.21176 0.5397975 -6.75
vertex 1.4711625 0.2926125 -6.75
vertex 1.3858425 0.57402 -6.75
endloop
endfacet
facet normal 0 0 1
outer loop
vertex 1.21176 0.5397975 -6.75
vertex 1.3858425 0.57402 -6.75
vertex 1.2471975 0.833355 -6.75
endloop
endfacet
facet normal 0 0 1
outer loop
vertex 1.21176 0.5397975 -6.75
vertex 1.2471975 0.833355 -6.75
vertex 1.0782450000000001 1.03923 -6.75
endloop
endfacet
facet normal 0 0 1
outer loop
vertex 1.21176 0.5397975 -6.75
vertex 1.0782450000000001 1.03923 -6.75
vertex 0.6000075 1.03923 -6.75
endloop
endfacet
facet normal 0 0 1
outer loop
vertex -1.21176 0.5397975 -6.75
vertex -1.0782450000000001 1.03923 -6.75
vertex -1.2471975 0.833355 -6.75
endloop
endfacet
facet normal 0 0 1
outer loop
vertex -1.21176 0.5397975 -6.75
vertex -1.2471975 0.833355 -6.75
vertex -1.3858425 0.57402 -6.75
endloop
endfacet
facet normal 0 0 0.9999999999999999
outer loop
vertex -1.21176 0.5397975 -6.75
vertex -1.3858425 0.57402 -6.75
vertex -1.4711625 0.2926125 -6.75
endloop
endfacet
facet normal 0 0 1
outer loop
vertex -1.21176 0.5397975 -6.75
vertex -1.4711625 0.2926125 -6.75
vertex -1.4999850000000001 0 -6.75
endloop
endfacet
facet normal 0 0 0.9999999999999999
outer loop
vertex -1.21176 0.5397975 -6.75
vertex -1.4999850000000001 0 -6.75
vertex -1.200015 0 -6.75
endloop
endfacet
facet normal 0 0 1
outer loop
vertex -1.21176 0.5397975 -6.75
vertex -1.200015 0 -6.75
vertex -0.6000075 1.03923 -6.75
endloop
endfacet
facet normal 0 0 1
outer loop
vertex -1.21176 0.5397975 -6.75
vertex -0.6000075 1.03923 -6.75
vertex -1.0782450000000001 1.03923 -6.75
endloop
endfacet
facet normal 0 0 1
outer loop
vertex 0 0 -6.75
vertex -0.0585225 0.2942325 -6.75
vertex -0.1148175 0.277155 -6.75
endloop
endfacet
facet normal 0 0 1
outer loop
vertex 0 0 -6.75
vertex -0.1148175 0.277155 -6.75
vertex -0.16665750000000001 0.2494125 -6.75
endloop
endfacet
facet normal 0 0 1
outer loop
vertex 0 0 -6.75
vertex -0.16665750000000001 0.2494125 -6.75
vertex -0.2121525 0.2121525 -6.75
endloop
endfacet
facet normal 0 0 1
outer loop
vertex 0 0 -6.75
vertex -0.2121525 0.2121525 -6.75
vertex -0.2494125 0.16665750000000001 -6.75
endloop
endfacet
facet normal 0 0 1
outer loop
vertex 0 0 -6.75
vertex -0.2494125 0.16665750000000001 -6.75
vertex -0.277155 0.1148175 -6.75
endloop
endfacet
facet normal 0 0 1
outer loop
vertex 0 0 -6.75
vertex -0.277155 0.1148175 -6.75
vertex -0.2942325 0.0585225 -6.75
endloop
endfacet
facet normal 0 0 1
outer loop
vertex 0 0 -6.75
vertex -0.2942325 0.0585225 -6.75
vertex -0.29997 0 -6.75
endloop
endfacet
facet normal 0 0 1
outer loop
vertex 0 0 -6.75
vertex -0.29997 0 -6.75
vertex -0.2942325 -0.0585225 -6.75
endloop
endfacet
facet normal 0 0 1
outer loop
vertex 0 0 -6.75
vertex -0.2942325 -0.0585225 -6.75
vertex -0.277155 -0.1148175 -6.75
endloop
endfacet
facet normal 0 0 1
outer loop
vertex 0 0 -6.75
vertex -0.277155 -0.1148175 -6.75
vertex -0.2494125 -0.16665750000000001 -6.75
endloop
endfacet
facet normal 0 0 1
outer loop
vertex 0 0 -6.75
vertex -0.2494125 -0.16665750000000001 -6.75
vertex -0.2121525 -0.2121525 -6.75
endloop
endfacet
facet normal 0 0 1
outer loop
vertex 0 0 -6.75
vertex -0.2121525 -0.2121525 -6.75
vertex -0.16665750000000001 -0.2494125 -6.75
endloop
endfacet
facet normal 0 0 1
outer loop
vertex 0 0 -6.75
vertex -0.16665750000000001 -0.2494125 -6.75
vertex -0.1148175 -0.277155 -6.75
endloop
endfacet
facet normal 0 0 1
outer loop
vertex 0 0 -6.75
vertex -0.1148175 -0.277155 -6.75
vertex -0.0585225 -0.2942325 -6.75
endloop
endfacet
facet normal 0 0 1
outer loop
vertex 0 0 -6.75
vertex -0.0585225 -0.2942325 -6.75
vertex 0 -0.29997 -6.75
endloop
endfacet
facet normal 0 0 1
outer loop
vertex 0 0 -6.75
vertex 0 -0.29997 -6.75
vertex 0.0585225 -0.2942325 -6.75
endloop
endfacet
facet normal 0 0 1
outer loop
vertex 0 0 -6.75
vertex 0.0585225 -0.2942325 -6.75
vertex 0.1148175 -0.277155 -6.75
endloop
endfacet
facet normal 0 0 1
outer loop
vertex 0 0 -6.75
vertex 0.1148175 -0.277155 -6.75
vertex 0.16665750000000001 -0.2494125 -6.75
endloop
endfacet
facet normal 0 0 1
outer loop
vertex 0 0 -6.75
vertex 0.16665750000000001 -0.2494125 -6.75
vertex 0.2121525 -0.2121525 -6.75
endloop
endfacet
facet normal 0 0 1
outer loop
vertex 0 0 -6.75
vertex 0.2121525 -0.2121525 -6.75
vertex 0.2494125 -0.16665750000000001 -6.75
endloop
endfacet
facet normal 0 0 1
outer loop
vertex 0 0 -6.75
vertex 0.2494125 -0.16665750000000001 -6.75
vertex 0.277155 -0.1148175 -6.75
endloop
endfacet
facet normal 0 0 1
outer loop
vertex 0 0 -6.75
vertex 0.277155 -0.1148175 -6.75
vertex 0.2942325 -0.0585225 -6.75
endloop
endfacet
facet normal 0 0 1
outer loop
vertex 0 0 -6.75
vertex 0.2942325 -0.0585225 -6.75
vertex 0.29997 0 -6.75
endloop
endfacet
facet normal 0 0 1
outer loop
vertex 0 0 -6.75
vertex 0.29997 0 -6.75
vertex 0.2942325 0.0585225 -6.75
endloop
endfacet
facet normal 0 0 1
outer loop
vertex 0 0 -6.75
vertex 0.2942325 0.0585225 -6.75
vertex 0.277155 0.1148175 -6.75
endloop
endfacet
facet normal 0 0 1
outer loop
vertex 0 0 -6.75
vertex 0.277155 0.1148175 -6.75
vertex 0.2494125 0.16665750000000001 -6.75
endloop
endfacet
facet normal 0 0 1
outer loop
vertex 0 0 -6.75
vertex 0.2494125 0.16665750000000001 -6.75
vertex 0.2121525 0.2121525 -6.75
endloop
endfacet
facet normal 0 0 1
outer loop
vertex 0 0 -6.75
vertex 0.2121525 0.2121525 -6.75
vertex 0.16665750000000001 0.2494125 -6.75
endloop
endfacet
facet normal 0 0 1
outer loop
vertex 0 0 -6.75
vertex 0.16665750000000001 0.2494125 -6.75
vertex 0.1148175 0.277155 -6.75
endloop
endfacet
facet normal 0 0 1
outer loop
vertex 0 0 -6.75
vertex 0.1148175 0.277155 -6.75
vertex 0.0585225 0.2942325 -6.75
endloop
endfacet
facet normal 0 0 1
outer loop
vertex 0 0 -6.75
vertex 0.0585225 0.2942325 -6.75
vertex 0 0.29997 -6.75
endloop
endfacet
facet normal 0 0 1
outer loop
vertex 0 0 -6.75
vertex 0 0.29997 -6.75
vertex -0.0585225 0.2942325 -6.75
endloop
endfacet
facet normal 0 0 1
outer loop
vertex 1.21176 -0.5397975 -6.75
vertex 1.200015 0 -6.75
vertex 0.6000075 -1.03923 -6.75
endloop
endfacet
facet normal 0 0 1
outer loop
vertex 1.21176 -0.5397975 -6.75
vertex 0.6000075 -1.03923 -6.75
vertex 1.0782450000000001 -1.03923 -6.75
endloop
endfacet
facet normal 0 0 1
outer loop
vertex 1.21176 -0.5397975 -6.75
vertex 1.0782450000000001 -1.03923 -6.75
vertex 1.2471975 -0.833355 -6.75
endloop
endfacet
facet normal 0 0 1
outer loop
vertex 1.21176 -0.5397975 -6.75
vertex 1.2471975 -0.833355 -6.75
vertex 1.3858425 -0.57402 -6.75
endloop
endfacet
facet normal 0 0 0.9999999999999999
outer loop
vertex 1.21176 -0.5397975 -6.75
vertex 1.3858425 -0.57402 -6.75
vertex 1.4711625 -0.2926125 -6.75
endloop
endfacet
facet normal 0 0 1
outer loop
vertex 1.21176 -0.5397975 -6.75
vertex 1.4711625 -0.2926125 -6.75
vertex 1.4999850000000001 0 -6.75
endloop
endfacet
facet normal 0 0 0.9999999999999999
outer loop
vertex 1.21176 -0.5397975 -6.75
vertex 1.4999850000000001 0 -6.75
vertex 1.200015 0 -6.75
endloop
endfacet
facet normal 0 0 1
outer loop
vertex -1.21176 -0.5397975 -6.75
vertex -1.4999850000000001 0 -6.75
vertex -1.4711625 -0.2926125 -6.75
endloop
endfacet
facet normal 0 0 0.9999999999999999
outer loop
vertex -1.21176 -0.5397975 -6.75
vertex -1.4711625 -0.2926125 -6.75
vertex -1.3858425 -0.57402 -6.75
endloop
endfacet
facet normal 0 0 1
outer loop
vertex -1.21176 -0.5397975 -6.75
vertex -1.3858425 -0.57402 -6.75
vertex -1.2471975 -0.833355 -6.75
endloop
endfacet
facet normal 0 0 1
outer loop
vertex -1.21176 -0.5397975 -6.75
vertex -1.2471975 -0.833355 -6.75
vertex -1.0782450000000001 -1.03923 -6.75
endloop
endfacet
facet normal 0 0 1
outer loop
vertex -1.21176 -0.5397975 -6.75
vertex -1.0782450000000001 -1.03923 -6.75
vertex -0.6000075 -1.03923 -6.75
endloop
endfacet
facet normal 0 0 1
outer loop
vertex -1.21176 -0.5397975 -6.75
vertex -0.6000075 -1.03923 -6.75
vertex -1.200015 0 -6.75
endloop
endfacet
facet normal 0 0 0.9999999999999999
outer loop
vertex -1.21176 -0.5397975 -6.75
vertex -1.200015 0 -6.75
vertex -1.4999850000000001 0 -6.75
endloop
endfacet
facet normal 0 0 1
outer loop
vertex 0 -1.2297150000000001 -6.75
vertex 0.6000075 -1.03923 -6.75
vertex -0.6000075 -1.03923 -6.75
endloop
endfacet
facet normal 0 0 1
outer loop
vertex 0 -1.2297150000000001 -6.75
vertex -0.6000075 -1.03923 -6.75
vertex -1.0782450000000001 -1.03923 -6.75
endloop
endfacet
facet normal 0 0 0.9999999999999999
outer loop
vertex 0 -1.2297150000000001 -6.75
vertex -1.0782450000000001 -1.03923 -6.75
vertex -1.0606275 -1.0606275 -6.75
endloop
endfacet
facet normal 0 0 1
outer loop
vertex 0 -1.2297150000000001 -6.75
vertex -1.0606275 -1.0606275 -6.75
vertex -0.833355 -1.2471975 -6.75
endloop
endfacet
facet normal 0 0 1
outer loop
vertex 0 -1.2297150000000001 -6.75
vertex -0.833355 -1.2471975 -6.75
vertex -0.57402 -1.3858425 -6.75
endloop
endfacet
facet normal 0 0 1
outer loop
vertex 0 -1.2297150000000001 -6.75
vertex -0.57402 -1.3858425 -6.75
vertex -0.2926125 -1.4711625 -6.75
endloop
endfacet
facet normal 0 0 1
outer loop
vertex 0 -1.2297150000000001 -6.75
vertex -0.2926125 -1.4711625 -6.75
vertex 0 -1.4999850000000001 -6.75
endloop
endfacet
facet normal 0 0 1
outer loop
vertex 0 -1.2297150000000001 -6.75
vertex 0 -1.4999850000000001 -6.75
vertex 0.2926125 -1.4711625 -6.75
endloop
endfacet
facet normal 0 0 1
outer loop
vertex 0 -1.2297150000000001 -6.75
vertex 0.2926125 -1.4711625 -6.75
vertex 0.57402 -1.3858425 -6.75
endloop
endfacet
facet normal 0 0 1
outer loop
vertex 0 -1.2297150000000001 -6.75
vertex 0.57402 -1.3858425 -6.75
vertex 0.833355 -1.2471975 -6.75
endloop
endfacet
facet normal 0 0 1
outer loop
vertex 0 -1.2297150000000001 -6.75
vertex 0.833355 -1.2471975 -6.75
vertex 1.0606275 -1.0606275 -6.75
endloop
endfacet
facet normal 0 0 0.9999999999999999
outer loop
vertex 0 -1.2297150000000001 -6.75
vertex 1.0606275 -1.0606275 -6.75
vertex 1.0782450000000001 -1.03923 -6.75
endloop
endfacet
facet normal 0 0 1
outer loop
vertex 0 -1.2297150000000001 -6.75
vertex 1.0782450000000001 -1.03923 -6.75
vertex 0.6000075 -1.03923 -6.75
endloop
endfacet
endsolid JSCAD
