solid JSCAD
facet normal -1 0 0
outer loop
vertex -9.399936000000002 7.400064000000002 -0.49996800000000013
vertex -9.399936000000002 7.400064000000002 -1.5000720000000003
vertex -9.399936000000002 5.400024000000001 -1.5000720000000003
endloop
endfacet
facet normal -1 0 0
outer loop
vertex -9.399936000000002 7.400064000000002 -0.49996800000000013
vertex -9.399936000000002 5.400024000000001 -1.5000720000000003
vertex -9.399936000000002 5.400024000000001 0.49996800000000013
endloop
endfacet
facet normal -1 0 0
outer loop
vertex -9.399936000000002 7.400064000000002 -0.49996800000000013
vertex -9.399936000000002 5.400024000000001 0.49996800000000013
vertex -9.399936000000002 7.400064000000002 0.49996800000000013
endloop
endfacet
facet normal -1 0 0
outer loop
vertex -9.399936000000002 7.400064000000002 -0.49996800000000013
vertex -9.399936000000002 7.400064000000002 0.49996800000000013
vertex -9.399936000000002 9.399936000000002 0.49996800000000013
endloop
endfacet
facet normal -1 0 0
outer loop
vertex -9.399936000000002 7.400064000000002 -0.49996800000000013
vertex -9.399936000000002 9.399936000000002 0.49996800000000013
vertex -9.399936000000002 9.399936000000002 -1.5000720000000003
endloop
endfacet
facet normal -1 0 0
outer loop
vertex -9.399936000000002 7.400064000000002 -0.49996800000000013
vertex -9.399936000000002 9.399936000000002 -1.5000720000000003
vertex -9.399936000000002 7.400064000000002 -1.5000720000000003
endloop
endfacet
facet normal 0 -1 0
outer loop
vertex -8.200080000000002 5.400024000000001 -0.49996800000000013
vertex -9.399936000000002 5.400024000000001 -1.5000720000000003
vertex -7.400064000000002 5.400024000000001 -1.5000720000000003
endloop
endfacet
facet normal 0 -1 0
outer loop
vertex -8.200080000000002 5.400024000000001 -0.49996800000000013
vertex -7.400064000000002 5.400024000000001 -1.5000720000000003
vertex -7.400064000000002 5.400024000000001 -0.49996800000000013
endloop
endfacet
facet normal 0 -0.9999999999999999 0
outer loop
vertex -8.200080000000002 5.400024000000001 -0.49996800000000013
vertex -7.400064000000002 5.400024000000001 -0.49996800000000013
vertex -7.400064000000002 5.400024000000001 0.49996800000000013
endloop
endfacet
facet normal 0 -1 0
outer loop
vertex -8.200080000000002 5.400024000000001 -0.49996800000000013
vertex -7.400064000000002 5.400024000000001 0.49996800000000013
vertex -9.399936000000002 5.400024000000001 0.49996800000000013
endloop
endfacet
facet normal 0 -1 0
outer loop
vertex -8.200080000000002 5.400024000000001 -0.49996800000000013
vertex -9.399936000000002 5.400024000000001 0.49996800000000013
vertex -9.399936000000002 5.400024000000001 -1.5000720000000003
endloop
endfacet
facet normal 0 0.9999999999999999 0
outer loop
vertex -5.400024000000001 9.399936000000002 0.49996800000000013
vertex -5.400024000000001 9.399936000000002 -1.5000720000000003
vertex -9.399936000000002 9.399936000000002 -1.5000720000000003
endloop
endfacet
facet normal 0 0.9999999999999999 0
outer loop
vertex -5.400024000000001 9.399936000000002 0.49996800000000013
vertex -9.399936000000002 9.399936000000002 -1.5000720000000003
vertex -9.399936000000002 9.399936000000002 0.49996800000000013
endloop
endfacet
facet normal 0 0 -0.9999999999999999
outer loop
vertex -7.400064000000002 8.200080000000002 -1.5000720000000003
vertex -5.400024000000001 9.399936000000002 -1.5000720000000003
vertex -5.400024000000001 7.400064000000002 -1.5000720000000003
endloop
endfacet
facet normal 0 0 -1
outer loop
vertex -7.400064000000002 8.200080000000002 -1.5000720000000003
vertex -5.400024000000001 7.400064000000002 -1.5000720000000003
vertex -7.400064000000002 7.400064000000002 -1.5000720000000003
endloop
endfacet
facet normal 0 0 -1
outer loop
vertex -7.400064000000002 8.200080000000002 -1.5000720000000003
vertex -7.400064000000002 7.400064000000002 -1.5000720000000003
vertex -9.399936000000002 7.400064000000002 -1.5000720000000003
endloop
endfacet
facet normal 0 0 -1
outer loop
vertex -7.400064000000002 8.200080000000002 -1.5000720000000003
vertex -9.399936000000002 7.400064000000002 -1.5000720000000003
vertex -9.399936000000002 9.399936000000002 -1.5000720000000003
endloop
endfacet
facet normal 0 0 -1
outer loop
vertex -7.400064000000002 8.200080000000002 -1.5000720000000003
vertex -9.399936000000002 9.399936000000002 -1.5000720000000003
vertex -5.400024000000001 9.399936000000002 -1.5000720000000003
endloop
endfacet
facet normal 0 0 -0.9999999999999999
outer loop
vertex -7.400064000000002 7.400064000000002 -1.5000720000000003
vertex -7.400064000000002 5.400024000000001 -1.5000720000000003
vertex -9.399936000000002 5.400024000000001 -1.5000720000000003
endloop
endfacet
facet normal 0 0 -0.9999999999999999
outer loop
vertex -7.400064000000002 7.400064000000002 -1.5000720000000003
vertex -9.399936000000002 5.400024000000001 -1.5000720000000003
vertex -9.399936000000002 7.400064000000002 -1.5000720000000003
endloop
endfacet
facet normal 0 0 0.9999999999999999
outer loop
vertex -9.399936000000002 9.399936000000002 0.49996800000000013
vertex -9.399936000000002 7.400064000000002 0.49996800000000013
vertex -5.400024000000001 7.400064000000002 0.49996800000000013
endloop
endfacet
facet normal 0 0 0.9999999999999999
outer loop
vertex -9.399936000000002 9.399936000000002 0.49996800000000013
vertex -5.400024000000001 7.400064000000002 0.49996800000000013
vertex -5.400024000000001 9.399936000000002 0.49996800000000013
endloop
endfacet
facet normal 0 0 0.9999999999999999
outer loop
vertex -2.7998880000000006 6.400128000000001 0.49996800000000013
vertex -5.400024000000001 7.400064000000002 0.49996800000000013
vertex -9.399936000000002 7.400064000000002 0.49996800000000013
endloop
endfacet
facet normal 0 0 1
outer loop
vertex -2.7998880000000006 6.400128000000001 0.49996800000000013
vertex -9.399936000000002 7.400064000000002 0.49996800000000013
vertex -9.399936000000002 5.400024000000001 0.49996800000000013
endloop
endfacet
facet normal 0 0 1
outer loop
vertex -2.7998880000000006 6.400128000000001 0.49996800000000013
vertex -9.399936000000002 5.400024000000001 0.49996800000000013
vertex -7.400064000000002 5.400024000000001 0.49996800000000013
endloop
endfacet
facet normal 0 0 1
outer loop
vertex -2.7998880000000006 6.400128000000001 0.49996800000000013
vertex -7.400064000000002 5.400024000000001 0.49996800000000013
vertex 7.400064000000002 5.400024000000001 0.49996800000000013
endloop
endfacet
facet normal 0 0 1
outer loop
vertex -2.7998880000000006 6.400128000000001 0.49996800000000013
vertex 7.400064000000002 5.400024000000001 0.49996800000000013
vertex 7.400064000000002 7.400064000000002 0.49996800000000013
endloop
endfacet
facet normal 0 0 1
outer loop
vertex -2.7998880000000006 6.400128000000001 0.49996800000000013
vertex 7.400064000000002 7.400064000000002 0.49996800000000013
vertex -5.400024000000001 7.400064000000002 0.49996800000000013
endloop
endfacet
facet normal 0 0 1
outer loop
vertex 0 4.200000000000001 0.49996800000000013
vertex -7.400064000000002 5.400024000000001 0.49996800000000013
vertex -7.400064000000002 3.600072000000001 0.49996800000000013
endloop
endfacet
facet normal 0 0 1
outer loop
vertex 0 4.200000000000001 0.49996800000000013
vertex -7.400064000000002 3.600072000000001 0.49996800000000013
vertex -4.350024000000001 3.600072000000001 0.49996800000000013
endloop
endfacet
facet normal 0 0 1
outer loop
vertex 0 4.200000000000001 0.49996800000000013
vertex -4.350024000000001 3.600072000000001 0.49996800000000013
vertex 4.350024000000001 3.600072000000001 0.49996800000000013
endloop
endfacet
facet normal 0 0 1
outer loop
vertex 0 4.200000000000001 0.49996800000000013
vertex 4.350024000000001 3.600072000000001 0.49996800000000013
vertex 7.400064000000002 3.600072000000001 0.49996800000000013
endloop
endfacet
facet normal 0 0 1
outer loop
vertex 0 4.200000000000001 0.49996800000000013
vertex 7.400064000000002 3.600072000000001 0.49996800000000013
vertex 7.400064000000002 5.400024000000001 0.49996800000000013
endloop
endfacet
facet normal 0 0 1
outer loop
vertex 0 4.200000000000001 0.49996800000000013
vertex 7.400064000000002 5.400024000000001 0.49996800000000013
vertex -7.400064000000002 5.400024000000001 0.49996800000000013
endloop
endfacet
facet normal 0 0 0.9999999999999999
outer loop
vertex 4.350024000000001 3.600072000000001 0.49996800000000013
vertex 4.350024000000001 -3.600072000000001 0.49996800000000013
vertex 7.400064000000002 -3.600072000000001 0.49996800000000013
endloop
endfacet
facet normal 0 0 0.9999999999999999
outer loop
vertex 4.350024000000001 3.600072000000001 0.49996800000000013
vertex 7.400064000000002 -3.600072000000001 0.49996800000000013
vertex 7.400064000000002 3.600072000000001 0.49996800000000013
endloop
endfacet
facet normal 0 0 0.9999999999999999
outer loop
vertex -7.400064000000002 3.600072000000001 0.49996800000000013
vertex -7.400064000000002 -3.600072000000001 0.49996800000000013
vertex -4.350024000000001 -3.600072000000001 0.49996800000000013
endloop
endfacet
facet normal 0 0 0.9999999999999999
outer loop
vertex -7.400064000000002 3.600072000000001 0.49996800000000013
vertex -4.350024000000001 -3.600072000000001 0.49996800000000013
vertex -4.350024000000001 3.600072000000001 0.49996800000000013
endloop
endfacet
facet normal 0 0 1
outer loop
vertex 0 -5.400024000000001 0.49996800000000013
vertex 4.350024000000001 -3.600072000000001 0.49996800000000013
vertex -4.350024000000001 -3.600072000000001 0.49996800000000013
endloop
endfacet
facet normal 0 0 1
outer loop
vertex 0 -5.400024000000001 0.49996800000000013
vertex -4.350024000000001 -3.600072000000001 0.49996800000000013
vertex -7.400064000000002 -3.600072000000001 0.49996800000000013
endloop
endfacet
facet normal 0 0 1
outer loop
vertex 0 -5.400024000000001 0.49996800000000013
vertex -7.400064000000002 -3.600072000000001 0.49996800000000013
vertex -7.400064000000002 -7.199976000000002 0.49996800000000013
endloop
endfacet
facet normal 0 0 1
outer loop
vertex 0 -5.400024000000001 0.49996800000000013
vertex -7.400064000000002 -7.199976000000002 0.49996800000000013
vertex -5.999952000000001 -7.199976000000002 0.49996800000000013
endloop
endfacet
facet normal 0 0 1
outer loop
vertex 0 -5.400024000000001 0.49996800000000013
vertex -5.999952000000001 -7.199976000000002 0.49996800000000013
vertex 5.999952000000001 -7.199976000000002 0.49996800000000013
endloop
endfacet
facet normal 0 0 1
outer loop
vertex 0 -5.400024000000001 0.49996800000000013
vertex 5.999952000000001 -7.199976000000002 0.49996800000000013
vertex 7.400064000000002 -7.199976000000002 0.49996800000000013
endloop
endfacet
facet normal 0 0 1
outer loop
vertex 0 -5.400024000000001 0.49996800000000013
vertex 7.400064000000002 -7.199976000000002 0.49996800000000013
vertex 7.400064000000002 -3.600072000000001 0.49996800000000013
endloop
endfacet
facet normal 0 0 1
outer loop
vertex 0 -5.400024000000001 0.49996800000000013
vertex 7.400064000000002 -3.600072000000001 0.49996800000000013
vertex 4.350024000000001 -3.600072000000001 0.49996800000000013
endloop
endfacet
facet normal 0 0 1
outer loop
vertex 5.999952000000001 -7.199976000000002 0.49996800000000013
vertex 5.999952000000001 -7.599984000000002 0.49996800000000013
vertex 7.400064000000002 -7.599984000000002 0.49996800000000013
endloop
endfacet
facet normal 0 0 1
outer loop
vertex 5.999952000000001 -7.199976000000002 0.49996800000000013
vertex 7.400064000000002 -7.599984000000002 0.49996800000000013
vertex 7.400064000000002 -7.199976000000002 0.49996800000000013
endloop
endfacet
facet normal 0 0 1
outer loop
vertex -7.400064000000002 -7.199976000000002 0.49996800000000013
vertex -7.400064000000002 -7.599984000000002 0.49996800000000013
vertex -5.999952000000001 -7.599984000000002 0.49996800000000013
endloop
endfacet
facet normal 0 0 1
outer loop
vertex -7.400064000000002 -7.199976000000002 0.49996800000000013
vertex -5.999952000000001 -7.599984000000002 0.49996800000000013
vertex -5.999952000000001 -7.199976000000002 0.49996800000000013
endloop
endfacet
facet normal 0 0 1
outer loop
vertex 0 -9.400104000000002 0.49996800000000013
vertex 5.999952000000001 -7.599984000000002 0.49996800000000013
vertex -5.999952000000001 -7.599984000000002 0.49996800000000013
endloop
endfacet
facet normal 0 0 1
outer loop
vertex 0 -9.400104000000002 0.49996800000000013
vertex -5.999952000000001 -7.599984000000002 0.49996800000000013
vertex -7.400064000000002 -7.599984000000002 0.49996800000000013
endloop
endfacet
facet normal 0 0 1
outer loop
vertex 0 -9.400104000000002 0.49996800000000013
vertex -7.400064000000002 -7.599984000000002 0.49996800000000013
vertex -7.400064000000002 -11.200056000000004 0.49996800000000013
endloop
endfacet
facet normal 0 0 1
outer loop
vertex 0 -9.400104000000002 0.49996800000000013
vertex -7.400064000000002 -11.200056000000004 0.49996800000000013
vertex -4.350024000000001 -11.200056000000004 0.49996800000000013
endloop
endfacet
facet normal 0 0 1
outer loop
vertex 0 -9.400104000000002 0.49996800000000013
vertex -4.350024000000001 -11.200056000000004 0.49996800000000013
vertex 4.350024000000001 -11.200056000000004 0.49996800000000013
endloop
endfacet
facet normal 0 0 1
outer loop
vertex 0 -9.400104000000002 0.49996800000000013
vertex 4.350024000000001 -11.200056000000004 0.49996800000000013
vertex 7.400064000000002 -11.200056000000004 0.49996800000000013
endloop
endfacet
facet normal 0 0 1
outer loop
vertex 0 -9.400104000000002 0.49996800000000013
vertex 7.400064000000002 -11.200056000000004 0.49996800000000013
vertex 7.400064000000002 -7.599984000000002 0.49996800000000013
endloop
endfacet
facet normal 0 0 1
outer loop
vertex 0 -9.400104000000002 0.49996800000000013
vertex 7.400064000000002 -7.599984000000002 0.49996800000000013
vertex 5.999952000000001 -7.599984000000002 0.49996800000000013
endloop
endfacet
facet normal 0 0 1
outer loop
vertex 4.350024000000001 -11.200056000000004 0.49996800000000013
vertex 4.350024000000001 -18.400032000000007 0.49996800000000013
vertex 7.400064000000002 -18.400032000000007 0.49996800000000013
endloop
endfacet
facet normal 0 0 1
outer loop
vertex 4.350024000000001 -11.200056000000004 0.49996800000000013
vertex 7.400064000000002 -18.400032000000007 0.49996800000000013
vertex 7.400064000000002 -11.200056000000004 0.49996800000000013
endloop
endfacet
facet normal 0 0 1
outer loop
vertex -7.400064000000002 -11.200056000000004 0.49996800000000013
vertex -7.400064000000002 -18.400032000000007 0.49996800000000013
vertex -4.350024000000001 -18.400032000000007 0.49996800000000013
endloop
endfacet
facet normal 0 0 1
outer loop
vertex -7.400064000000002 -11.200056000000004 0.49996800000000013
vertex -4.350024000000001 -18.400032000000007 0.49996800000000013
vertex -4.350024000000001 -11.200056000000004 0.49996800000000013
endloop
endfacet
facet normal 0 0 1
outer loop
vertex 0 -19.666752000000006 0.49996800000000013
vertex 4.350024000000001 -18.400032000000007 0.49996800000000013
vertex -4.350024000000001 -18.400032000000007 0.49996800000000013
endloop
endfacet
facet normal 0 0 1
outer loop
vertex 0 -19.666752000000006 0.49996800000000013
vertex -4.350024000000001 -18.400032000000007 0.49996800000000013
vertex -7.400064000000002 -18.400032000000007 0.49996800000000013
endloop
endfacet
facet normal 0 0 1
outer loop
vertex 0 -19.666752000000006 0.49996800000000013
vertex -7.400064000000002 -18.400032000000007 0.49996800000000013
vertex -7.400064000000002 -22.200024000000006 0.49996800000000013
endloop
endfacet
facet normal 0 0 1
outer loop
vertex 0 -19.666752000000006 0.49996800000000013
vertex -7.400064000000002 -22.200024000000006 0.49996800000000013
vertex 7.400064000000002 -22.200024000000006 0.49996800000000013
endloop
endfacet
facet normal 0 0 1
outer loop
vertex 0 -19.666752000000006 0.49996800000000013
vertex 7.400064000000002 -22.200024000000006 0.49996800000000013
vertex 7.400064000000002 -18.400032000000007 0.49996800000000013
endloop
endfacet
facet normal 0 0 1
outer loop
vertex 0 -19.666752000000006 0.49996800000000013
vertex 7.400064000000002 -18.400032000000007 0.49996800000000013
vertex 4.350024000000001 -18.400032000000007 0.49996800000000013
endloop
endfacet
facet normal 1 0 0
outer loop
vertex -5.400024000000001 8.200080000000002 -0.49996800000000013
vertex -5.400024000000001 7.400064000000002 -0.49996800000000013
vertex -5.400024000000001 7.400064000000002 -1.5000720000000003
endloop
endfacet
facet normal 1 0 0
outer loop
vertex -5.400024000000001 8.200080000000002 -0.49996800000000013
vertex -5.400024000000001 7.400064000000002 -1.5000720000000003
vertex -5.400024000000001 9.399936000000002 -1.5000720000000003
endloop
endfacet
facet normal 1 0 0
outer loop
vertex -5.400024000000001 8.200080000000002 -0.49996800000000013
vertex -5.400024000000001 9.399936000000002 -1.5000720000000003
vertex -5.400024000000001 9.399936000000002 0.49996800000000013
endloop
endfacet
facet normal 1 0 0
outer loop
vertex -5.400024000000001 8.200080000000002 -0.49996800000000013
vertex -5.400024000000001 9.399936000000002 0.49996800000000013
vertex -5.400024000000001 7.400064000000002 0.49996800000000013
endloop
endfacet
facet normal 0.9999999999999999 0 0
outer loop
vertex -5.400024000000001 8.200080000000002 -0.49996800000000013
vertex -5.400024000000001 7.400064000000002 0.49996800000000013
vertex -5.400024000000001 7.400064000000002 -0.49996800000000013
endloop
endfacet
facet normal 1 0 0
outer loop
vertex -7.400064000000002 5.400024000000001 -1.5000720000000003
vertex -7.400064000000002 7.400064000000002 -1.5000720000000003
vertex -7.400064000000002 7.400064000000002 -0.49996800000000013
endloop
endfacet
facet normal 1 0 0
outer loop
vertex -7.400064000000002 5.400024000000001 -1.5000720000000003
vertex -7.400064000000002 7.400064000000002 -0.49996800000000013
vertex -7.400064000000002 5.400024000000001 -0.49996800000000013
endloop
endfacet
facet normal 0 -1 0
outer loop
vertex -7.400064000000002 7.400064000000002 -1.5000720000000003
vertex -5.400024000000001 7.400064000000002 -1.5000720000000003
vertex -5.400024000000001 7.400064000000002 -0.49996800000000013
endloop
endfacet
facet normal 0 -1 0
outer loop
vertex -7.400064000000002 7.400064000000002 -1.5000720000000003
vertex -5.400024000000001 7.400064000000002 -0.49996800000000013
vertex -7.400064000000002 7.400064000000002 -0.49996800000000013
endloop
endfacet
facet normal 0.9999999999999999 0 0
outer loop
vertex 7.400064000000002 -6.647088000000002 0.02940000000000001
vertex 7.400064000000002 5.400024000000001 0.49996800000000013
vertex 7.400064000000002 3.600072000000001 0.49996800000000013
endloop
endfacet
facet normal 1 0 0
outer loop
vertex 7.400064000000002 -6.647088000000002 0.02940000000000001
vertex 7.400064000000002 3.600072000000001 0.49996800000000013
vertex 7.400064000000002 -3.600072000000001 0.49996800000000013
endloop
endfacet
facet normal 0.9999999999999999 0 0
outer loop
vertex 7.400064000000002 -6.647088000000002 0.02940000000000001
vertex 7.400064000000002 -3.600072000000001 0.49996800000000013
vertex 7.400064000000002 -7.199976000000002 0.49996800000000013
endloop
endfacet
facet normal 1 0 0
outer loop
vertex 7.400064000000002 -6.647088000000002 0.02940000000000001
vertex 7.400064000000002 -7.199976000000002 0.49996800000000013
vertex 7.400064000000002 -7.599984000000002 0.49996800000000013
endloop
endfacet
facet normal 1 0 0
outer loop
vertex 7.400064000000002 -6.647088000000002 0.02940000000000001
vertex 7.400064000000002 -7.599984000000002 0.49996800000000013
vertex 7.400064000000002 -11.200056000000004 0.49996800000000013
endloop
endfacet
facet normal 1 0 0
outer loop
vertex 7.400064000000002 -6.647088000000002 0.02940000000000001
vertex 7.400064000000002 -11.200056000000004 0.49996800000000013
vertex 7.400064000000002 -18.400032000000007 0.49996800000000013
endloop
endfacet
facet normal 1 0 0
outer loop
vertex 7.400064000000002 -6.647088000000002 0.02940000000000001
vertex 7.400064000000002 -18.400032000000007 0.49996800000000013
vertex 7.400064000000002 -22.200024000000006 0.49996800000000013
endloop
endfacet
facet normal 1 0 0
outer loop
vertex 7.400064000000002 -6.647088000000002 0.02940000000000001
vertex 7.400064000000002 -22.200024000000006 0.49996800000000013
vertex 7.400064000000002 -22.200024000000006 -0.49996800000000013
endloop
endfacet
facet normal 1 0 0
outer loop
vertex 7.400064000000002 -6.647088000000002 0.02940000000000001
vertex 7.400064000000002 -22.200024000000006 -0.49996800000000013
vertex 7.400064000000002 -18.400032000000007 -0.49996800000000013
endloop
endfacet
facet normal 1 0 0
outer loop
vertex 7.400064000000002 -6.647088000000002 0.02940000000000001
vertex 7.400064000000002 -18.400032000000007 -0.49996800000000013
vertex 7.400064000000002 -11.200056000000004 -0.49996800000000013
endloop
endfacet
facet normal 1 0 0
outer loop
vertex 7.400064000000002 -6.647088000000002 0.02940000000000001
vertex 7.400064000000002 -11.200056000000004 -0.49996800000000013
vertex 7.400064000000002 -7.599984000000002 -0.49996800000000013
endloop
endfacet
facet normal 0.9999999999999999 0 0
outer loop
vertex 7.400064000000002 -6.647088000000002 0.02940000000000001
vertex 7.400064000000002 -7.599984000000002 -0.49996800000000013
vertex 7.400064000000002 -7.199976000000002 -0.49996800000000013
endloop
endfacet
facet normal 1 0 0
outer loop
vertex 7.400064000000002 -6.647088000000002 0.02940000000000001
vertex 7.400064000000002 -7.199976000000002 -0.49996800000000013
vertex 7.400064000000002 -3.600072000000001 -0.49996800000000013
endloop
endfacet
facet normal 1 0 0
outer loop
vertex 7.400064000000002 -6.647088000000002 0.02940000000000001
vertex 7.400064000000002 -3.600072000000001 -0.49996800000000013
vertex 7.400064000000002 3.600072000000001 -0.49996800000000013
endloop
endfacet
facet normal 1 0 0
outer loop
vertex 7.400064000000002 -6.647088000000002 0.02940000000000001
vertex 7.400064000000002 3.600072000000001 -0.49996800000000013
vertex 7.400064000000002 7.400064000000002 -0.49996800000000013
endloop
endfacet
facet normal 1 0 0
outer loop
vertex 7.400064000000002 -6.647088000000002 0.02940000000000001
vertex 7.400064000000002 7.400064000000002 -0.49996800000000013
vertex 7.400064000000002 7.400064000000002 0.49996800000000013
endloop
endfacet
facet normal 0.9999999999999999 0 0
outer loop
vertex 7.400064000000002 -6.647088000000002 0.02940000000000001
vertex 7.400064000000002 7.400064000000002 0.49996800000000013
vertex 7.400064000000002 5.400024000000001 0.49996800000000013
endloop
endfacet
facet normal 1 0 0
outer loop
vertex -4.350024000000001 -3.600072000000001 0.49996800000000013
vertex -4.350024000000001 -3.600072000000001 -0.49996800000000013
vertex -4.350024000000001 3.600072000000001 -0.49996800000000013
endloop
endfacet
facet normal 1 0 0
outer loop
vertex -4.350024000000001 -3.600072000000001 0.49996800000000013
vertex -4.350024000000001 3.600072000000001 -0.49996800000000013
vertex -4.350024000000001 3.600072000000001 0.49996800000000013
endloop
endfacet
facet normal 0.9999999999999999 0 0
outer loop
vertex -4.350024000000001 -18.400032000000007 0.49996800000000013
vertex -4.350024000000001 -18.400032000000007 -0.49996800000000013
vertex -4.350024000000001 -11.200056000000004 -0.49996800000000013
endloop
endfacet
facet normal 0.9999999999999999 0 0
outer loop
vertex -4.350024000000001 -18.400032000000007 0.49996800000000013
vertex -4.350024000000001 -11.200056000000004 -0.49996800000000013
vertex -4.350024000000001 -11.200056000000004 0.49996800000000013
endloop
endfacet
facet normal -0.9999999999999999 0 0
outer loop
vertex 4.350024000000001 -11.200056000000004 0.49996800000000013
vertex 4.350024000000001 -11.200056000000004 -0.49996800000000013
vertex 4.350024000000001 -18.400032000000007 -0.49996800000000013
endloop
endfacet
facet normal -0.9999999999999999 0 0
outer loop
vertex 4.350024000000001 -11.200056000000004 0.49996800000000013
vertex 4.350024000000001 -18.400032000000007 -0.49996800000000013
vertex 4.350024000000001 -18.400032000000007 0.49996800000000013
endloop
endfacet
facet normal -1 0 0
outer loop
vertex 4.350024000000001 3.600072000000001 0.49996800000000013
vertex 4.350024000000001 3.600072000000001 -0.49996800000000013
vertex 4.350024000000001 -3.600072000000001 -0.49996800000000013
endloop
endfacet
facet normal -1 0 0
outer loop
vertex 4.350024000000001 3.600072000000001 0.49996800000000013
vertex 4.350024000000001 -3.600072000000001 -0.49996800000000013
vertex 4.350024000000001 -3.600072000000001 0.49996800000000013
endloop
endfacet
facet normal 0 1 0
outer loop
vertex -4.350024000000001 -3.600072000000001 0.49996800000000013
vertex 4.350024000000001 -3.600072000000001 0.49996800000000013
vertex 4.350024000000001 -3.600072000000001 -0.49996800000000013
endloop
endfacet
facet normal 0 1 0
outer loop
vertex -4.350024000000001 -3.600072000000001 0.49996800000000013
vertex 4.350024000000001 -3.600072000000001 -0.49996800000000013
vertex -4.350024000000001 -3.600072000000001 -0.49996800000000013
endloop
endfacet
facet normal 0 -1 0
outer loop
vertex 4.350024000000001 3.600072000000001 -0.49996800000000013
vertex 4.350024000000001 3.600072000000001 0.49996800000000013
vertex -4.350024000000001 3.600072000000001 0.49996800000000013
endloop
endfacet
facet normal 0 -1 0
outer loop
vertex 4.350024000000001 3.600072000000001 -0.49996800000000013
vertex -4.350024000000001 3.600072000000001 0.49996800000000013
vertex -4.350024000000001 3.600072000000001 -0.49996800000000013
endloop
endfacet
facet normal 0 0 -1
outer loop
vertex -1.6000320000000003 5.250000000000002 -0.49996800000000013
vertex -5.400024000000001 7.400064000000002 -0.49996800000000013
vertex 7.400064000000002 7.400064000000002 -0.49996800000000013
endloop
endfacet
facet normal 0 0 -1
outer loop
vertex -1.6000320000000003 5.250000000000002 -0.49996800000000013
vertex 7.400064000000002 7.400064000000002 -0.49996800000000013
vertex 7.400064000000002 3.600072000000001 -0.49996800000000013
endloop
endfacet
facet normal 0 0 -1
outer loop
vertex -1.6000320000000003 5.250000000000002 -0.49996800000000013
vertex 7.400064000000002 3.600072000000001 -0.49996800000000013
vertex 4.350024000000001 3.600072000000001 -0.49996800000000013
endloop
endfacet
facet normal 0 0 -1
outer loop
vertex -1.6000320000000003 5.250000000000002 -0.49996800000000013
vertex 4.350024000000001 3.600072000000001 -0.49996800000000013
vertex -4.350024000000001 3.600072000000001 -0.49996800000000013
endloop
endfacet
facet normal 0 0 -1
outer loop
vertex -1.6000320000000003 5.250000000000002 -0.49996800000000013
vertex -4.350024000000001 3.600072000000001 -0.49996800000000013
vertex -7.400064000000002 3.600072000000001 -0.49996800000000013
endloop
endfacet
facet normal 0 0 -1
outer loop
vertex -1.6000320000000003 5.250000000000002 -0.49996800000000013
vertex -7.400064000000002 3.600072000000001 -0.49996800000000013
vertex -7.400064000000002 5.400024000000001 -0.49996800000000013
endloop
endfacet
facet normal 0 0 -1
outer loop
vertex -1.6000320000000003 5.250000000000002 -0.49996800000000013
vertex -7.400064000000002 5.400024000000001 -0.49996800000000013
vertex -7.400064000000002 7.400064000000002 -0.49996800000000013
endloop
endfacet
facet normal 0 0 -1
outer loop
vertex -1.6000320000000003 5.250000000000002 -0.49996800000000013
vertex -7.400064000000002 7.400064000000002 -0.49996800000000013
vertex -5.400024000000001 7.400064000000002 -0.49996800000000013
endloop
endfacet
facet normal 0 0 -0.9999999999999999
outer loop
vertex -4.350024000000001 3.600072000000001 -0.49996800000000013
vertex -4.350024000000001 -3.600072000000001 -0.49996800000000013
vertex -7.400064000000002 -3.600072000000001 -0.49996800000000013
endloop
endfacet
facet normal 0 0 -0.9999999999999999
outer loop
vertex -4.350024000000001 3.600072000000001 -0.49996800000000013
vertex -7.400064000000002 -3.600072000000001 -0.49996800000000013
vertex -7.400064000000002 3.600072000000001 -0.49996800000000013
endloop
endfacet
facet normal 0 0 -0.9999999999999999
outer loop
vertex 7.400064000000002 3.600072000000001 -0.49996800000000013
vertex 7.400064000000002 -3.600072000000001 -0.49996800000000013
vertex 4.350024000000001 -3.600072000000001 -0.49996800000000013
endloop
endfacet
facet normal 0 0 -0.9999999999999999
outer loop
vertex 7.400064000000002 3.600072000000001 -0.49996800000000013
vertex 4.350024000000001 -3.600072000000001 -0.49996800000000013
vertex 4.350024000000001 3.600072000000001 -0.49996800000000013
endloop
endfacet
facet normal 0 0 -1
outer loop
vertex 0 -5.400024000000001 -0.49996800000000013
vertex -4.350024000000001 -3.600072000000001 -0.49996800000000013
vertex 4.350024000000001 -3.600072000000001 -0.49996800000000013
endloop
endfacet
facet normal 0 0 -1
outer loop
vertex 0 -5.400024000000001 -0.49996800000000013
vertex 4.350024000000001 -3.600072000000001 -0.49996800000000013
vertex 7.400064000000002 -3.600072000000001 -0.49996800000000013
endloop
endfacet
facet normal 0 0 -1
outer loop
vertex 0 -5.400024000000001 -0.49996800000000013
vertex 7.400064000000002 -3.600072000000001 -0.49996800000000013
vertex 7.400064000000002 -7.199976000000002 -0.49996800000000013
endloop
endfacet
facet normal 0 0 -1
outer loop
vertex 0 -5.400024000000001 -0.49996800000000013
vertex 7.400064000000002 -7.199976000000002 -0.49996800000000013
vertex 5.999952000000001 -7.199976000000002 -0.49996800000000013
endloop
endfacet
facet normal 0 0 -1
outer loop
vertex 0 -5.400024000000001 -0.49996800000000013
vertex 5.999952000000001 -7.199976000000002 -0.49996800000000013
vertex -5.999952000000001 -7.199976000000002 -0.49996800000000013
endloop
endfacet
facet normal 0 0 -1
outer loop
vertex 0 -5.400024000000001 -0.49996800000000013
vertex -5.999952000000001 -7.199976000000002 -0.49996800000000013
vertex -7.400064000000002 -7.199976000000002 -0.49996800000000013
endloop
endfacet
facet normal 0 0 -1
outer loop
vertex 0 -5.400024000000001 -0.49996800000000013
vertex -7.400064000000002 -7.199976000000002 -0.49996800000000013
vertex -7.400064000000002 -3.600072000000001 -0.49996800000000013
endloop
endfacet
facet normal 0 0 -1
outer loop
vertex 0 -5.400024000000001 -0.49996800000000013
vertex -7.400064000000002 -3.600072000000001 -0.49996800000000013
vertex -4.350024000000001 -3.600072000000001 -0.49996800000000013
endloop
endfacet
facet normal 0 0 -1
outer loop
vertex -5.999952000000001 -7.199976000000002 -0.49996800000000013
vertex -5.999952000000001 -7.599984000000002 -0.49996800000000013
vertex -7.400064000000002 -7.599984000000002 -0.49996800000000013
endloop
endfacet
facet normal 0 0 -1
outer loop
vertex -5.999952000000001 -7.199976000000002 -0.49996800000000013
vertex -7.400064000000002 -7.599984000000002 -0.49996800000000013
vertex -7.400064000000002 -7.199976000000002 -0.49996800000000013
endloop
endfacet
facet normal 0 0 -1
outer loop
vertex 7.400064000000002 -7.199976000000002 -0.49996800000000013
vertex 7.400064000000002 -7.599984000000002 -0.49996800000000013
vertex 5.999952000000001 -7.599984000000002 -0.49996800000000013
endloop
endfacet
facet normal 0 0 -1
outer loop
vertex 7.400064000000002 -7.199976000000002 -0.49996800000000013
vertex 5.999952000000001 -7.599984000000002 -0.49996800000000013
vertex 5.999952000000001 -7.199976000000002 -0.49996800000000013
endloop
endfacet
facet normal 0 0 -1
outer loop
vertex 0 -9.400104000000002 -0.49996800000000013
vertex -5.999952000000001 -7.599984000000002 -0.49996800000000013
vertex 5.999952000000001 -7.599984000000002 -0.49996800000000013
endloop
endfacet
facet normal 0 0 -1
outer loop
vertex 0 -9.400104000000002 -0.49996800000000013
vertex 5.999952000000001 -7.599984000000002 -0.49996800000000013
vertex 7.400064000000002 -7.599984000000002 -0.49996800000000013
endloop
endfacet
facet normal 0 0 -1
outer loop
vertex 0 -9.400104000000002 -0.49996800000000013
vertex 7.400064000000002 -7.599984000000002 -0.49996800000000013
vertex 7.400064000000002 -11.200056000000004 -0.49996800000000013
endloop
endfacet
facet normal 0 0 -1
outer loop
vertex 0 -9.400104000000002 -0.49996800000000013
vertex 7.400064000000002 -11.200056000000004 -0.49996800000000013
vertex 4.350024000000001 -11.200056000000004 -0.49996800000000013
endloop
endfacet
facet normal 0 0 -1
outer loop
vertex 0 -9.400104000000002 -0.49996800000000013
vertex 4.350024000000001 -11.200056000000004 -0.49996800000000013
vertex -4.350024000000001 -11.200056000000004 -0.49996800000000013
endloop
endfacet
facet normal 0 0 -1
outer loop
vertex 0 -9.400104000000002 -0.49996800000000013
vertex -4.350024000000001 -11.200056000000004 -0.49996800000000013
vertex -7.400064000000002 -11.200056000000004 -0.49996800000000013
endloop
endfacet
facet normal 0 0 -1
outer loop
vertex 0 -9.400104000000002 -0.49996800000000013
vertex -7.400064000000002 -11.200056000000004 -0.49996800000000013
vertex -7.400064000000002 -7.599984000000002 -0.49996800000000013
endloop
endfacet
facet normal 0 0 -1
outer loop
vertex 0 -9.400104000000002 -0.49996800000000013
vertex -7.400064000000002 -7.599984000000002 -0.49996800000000013
vertex -5.999952000000001 -7.599984000000002 -0.49996800000000013
endloop
endfacet
facet normal 0 0 -1
outer loop
vertex -4.350024000000001 -11.200056000000004 -0.49996800000000013
vertex -4.350024000000001 -18.400032000000007 -0.49996800000000013
vertex -7.400064000000002 -18.400032000000007 -0.49996800000000013
endloop
endfacet
facet normal 0 0 -1
outer loop
vertex -4.350024000000001 -11.200056000000004 -0.49996800000000013
vertex -7.400064000000002 -18.400032000000007 -0.49996800000000013
vertex -7.400064000000002 -11.200056000000004 -0.49996800000000013
endloop
endfacet
facet normal 0 0 -1
outer loop
vertex 7.400064000000002 -11.200056000000004 -0.49996800000000013
vertex 7.400064000000002 -18.400032000000007 -0.49996800000000013
vertex 4.350024000000001 -18.400032000000007 -0.49996800000000013
endloop
endfacet
facet normal 0 0 -1
outer loop
vertex 7.400064000000002 -11.200056000000004 -0.49996800000000013
vertex 4.350024000000001 -18.400032000000007 -0.49996800000000013
vertex 4.350024000000001 -11.200056000000004 -0.49996800000000013
endloop
endfacet
facet normal 0 0 -1
outer loop
vertex 0 -19.666752000000006 -0.49996800000000013
vertex -4.350024000000001 -18.400032000000007 -0.49996800000000013
vertex 4.350024000000001 -18.400032000000007 -0.49996800000000013
endloop
endfacet
facet normal 0 0 -1
outer loop
vertex 0 -19.666752000000006 -0.49996800000000013
vertex 4.350024000000001 -18.400032000000007 -0.49996800000000013
vertex 7.400064000000002 -18.400032000000007 -0.49996800000000013
endloop
endfacet
facet normal 0 0 -1
outer loop
vertex 0 -19.666752000000006 -0.49996800000000013
vertex 7.400064000000002 -18.400032000000007 -0.49996800000000013
vertex 7.400064000000002 -22.200024000000006 -0.49996800000000013
endloop
endfacet
facet normal 0 0 -1
outer loop
vertex 0 -19.666752000000006 -0.49996800000000013
vertex 7.400064000000002 -22.200024000000006 -0.49996800000000013
vertex -7.400064000000002 -22.200024000000006 -0.49996800000000013
endloop
endfacet
facet normal 0 0 -1
outer loop
vertex 0 -19.666752000000006 -0.49996800000000013
vertex -7.400064000000002 -22.200024000000006 -0.49996800000000013
vertex -7.400064000000002 -18.400032000000007 -0.49996800000000013
endloop
endfacet
facet normal 0 0 -1
outer loop
vertex 0 -19.666752000000006 -0.49996800000000013
vertex -7.400064000000002 -18.400032000000007 -0.49996800000000013
vertex -4.350024000000001 -18.400032000000007 -0.49996800000000013
endloop
endfacet
facet normal 0 -1 0
outer loop
vertex -7.400064000000002 -22.200024000000006 -0.49996800000000013
vertex 7.400064000000002 -22.200024000000006 -0.49996800000000013
vertex 7.400064000000002 -22.200024000000006 0.49996800000000013
endloop
endfacet
facet normal 0 -1 0
outer loop
vertex -7.400064000000002 -22.200024000000006 -0.49996800000000013
vertex 7.400064000000002 -22.200024000000006 0.49996800000000013
vertex -7.400064000000002 -22.200024000000006 0.49996800000000013
endloop
endfacet
facet normal 0 1 0
outer loop
vertex -4.350024000000001 -18.400032000000007 0.49996800000000013
vertex 4.350024000000001 -18.400032000000007 0.49996800000000013
vertex 4.350024000000001 -18.400032000000007 -0.49996800000000013
endloop
endfacet
facet normal 0 1 0
outer loop
vertex -4.350024000000001 -18.400032000000007 0.49996800000000013
vertex 4.350024000000001 -18.400032000000007 -0.49996800000000013
vertex -4.350024000000001 -18.400032000000007 -0.49996800000000013
endloop
endfacet
facet normal 0 -1 0
outer loop
vertex 4.350024000000001 -11.200056000000004 -0.49996800000000013
vertex 4.350024000000001 -11.200056000000004 0.49996800000000013
vertex -4.350024000000001 -11.200056000000004 0.49996800000000013
endloop
endfacet
facet normal 0 -1 0
outer loop
vertex 4.350024000000001 -11.200056000000004 -0.49996800000000013
vertex -4.350024000000001 -11.200056000000004 0.49996800000000013
vertex -4.350024000000001 -11.200056000000004 -0.49996800000000013
endloop
endfacet
facet normal 0.9999999999999999 0 0
outer loop
vertex -5.999952000000001 -7.199976000000002 -0.49996800000000013
vertex -5.999952000000001 -7.199976000000002 0.49996800000000013
vertex -5.999952000000001 -7.599984000000002 0.49996800000000013
endloop
endfacet
facet normal 0.9999999999999999 0 0
outer loop
vertex -5.999952000000001 -7.199976000000002 -0.49996800000000013
vertex -5.999952000000001 -7.599984000000002 0.49996800000000013
vertex -5.999952000000001 -7.599984000000002 -0.49996800000000013
endloop
endfacet
facet normal -0.9999999999999999 0 0
outer loop
vertex 5.999952000000001 -7.599984000000002 -0.49996800000000013
vertex 5.999952000000001 -7.599984000000002 0.49996800000000013
vertex 5.999952000000001 -7.199976000000002 0.49996800000000013
endloop
endfacet
facet normal -0.9999999999999999 0 0
outer loop
vertex 5.999952000000001 -7.599984000000002 -0.49996800000000013
vertex 5.999952000000001 -7.199976000000002 0.49996800000000013
vertex 5.999952000000001 -7.199976000000002 -0.49996800000000013
endloop
endfacet
facet normal 0 1 0
outer loop
vertex -5.999952000000001 -7.599984000000002 -0.49996800000000013
vertex -5.999952000000001 -7.599984000000002 0.49996800000000013
vertex 5.999952000000001 -7.599984000000002 0.49996800000000013
endloop
endfacet
facet normal 0 1 0
outer loop
vertex -5.999952000000001 -7.599984000000002 -0.49996800000000013
vertex 5.999952000000001 -7.599984000000002 0.49996800000000013
vertex 5.999952000000001 -7.599984000000002 -0.49996800000000013
endloop
endfacet
facet normal 0 -1 0
outer loop
vertex 5.999952000000001 -7.199976000000002 -0.49996800000000013
vertex 5.999952000000001 -7.199976000000002 0.49996800000000013
vertex -5.999952000000001 -7.199976000000002 0.49996800000000013
endloop
endfacet
facet normal 0 -1 0
outer loop
vertex 5.999952000000001 -7.199976000000002 -0.49996800000000013
vertex -5.999952000000001 -7.199976000000002 0.49996800000000013
vertex -5.999952000000001 -7.199976000000002 -0.49996800000000013
endloop
endfacet
facet normal -1 0 0
outer loop
vertex -7.400064000000002 -7.650048000000002 0
vertex -7.400064000000002 -18.400032000000007 0.49996800000000013
vertex -7.400064000000002 -11.200056000000004 0.49996800000000013
endloop
endfacet
facet normal -1 0 0
outer loop
vertex -7.400064000000002 -7.650048000000002 0
vertex -7.400064000000002 -11.200056000000004 0.49996800000000013
vertex -7.400064000000002 -7.599984000000002 0.49996800000000013
endloop
endfacet
facet normal -0.9999999999999999 0 0
outer loop
vertex -7.400064000000002 -7.650048000000002 0
vertex -7.400064000000002 -7.599984000000002 0.49996800000000013
vertex -7.400064000000002 -7.199976000000002 0.49996800000000013
endloop
endfacet
facet normal -1 0 0
outer loop
vertex -7.400064000000002 -7.650048000000002 0
vertex -7.400064000000002 -7.199976000000002 0.49996800000000013
vertex -7.400064000000002 -3.600072000000001 0.49996800000000013
endloop
endfacet
facet normal -1 0 0
outer loop
vertex -7.400064000000002 -7.650048000000002 0
vertex -7.400064000000002 -3.600072000000001 0.49996800000000013
vertex -7.400064000000002 3.600072000000001 0.49996800000000013
endloop
endfacet
facet normal -1 0 0
outer loop
vertex -7.400064000000002 -7.650048000000002 0
vertex -7.400064000000002 3.600072000000001 0.49996800000000013
vertex -7.400064000000002 5.400024000000001 0.49996800000000013
endloop
endfacet
facet normal -1 0 0
outer loop
vertex -7.400064000000002 -7.650048000000002 0
vertex -7.400064000000002 5.400024000000001 0.49996800000000013
vertex -7.400064000000002 5.400024000000001 -0.49996800000000013
endloop
endfacet
facet normal -1 0 0
outer loop
vertex -7.400064000000002 -7.650048000000002 0
vertex -7.400064000000002 5.400024000000001 -0.49996800000000013
vertex -7.400064000000002 3.600072000000001 -0.49996800000000013
endloop
endfacet
facet normal -1 0 0
outer loop
vertex -7.400064000000002 -7.650048000000002 0
vertex -7.400064000000002 3.600072000000001 -0.49996800000000013
vertex -7.400064000000002 -3.600072000000001 -0.49996800000000013
endloop
endfacet
facet normal -1 0 0
outer loop
vertex -7.400064000000002 -7.650048000000002 0
vertex -7.400064000000002 -3.600072000000001 -0.49996800000000013
vertex -7.400064000000002 -7.199976000000002 -0.49996800000000013
endloop
endfacet
facet normal -0.9999999999999999 0 0
outer loop
vertex -7.400064000000002 -7.650048000000002 0
vertex -7.400064000000002 -7.199976000000002 -0.49996800000000013
vertex -7.400064000000002 -7.599984000000002 -0.49996800000000013
endloop
endfacet
facet normal -1 0 0
outer loop
vertex -7.400064000000002 -7.650048000000002 0
vertex -7.400064000000002 -7.599984000000002 -0.49996800000000013
vertex -7.400064000000002 -11.200056000000004 -0.49996800000000013
endloop
endfacet
facet normal -1 0 0
outer loop
vertex -7.400064000000002 -7.650048000000002 0
vertex -7.400064000000002 -11.200056000000004 -0.49996800000000013
vertex -7.400064000000002 -18.400032000000007 -0.49996800000000013
endloop
endfacet
facet normal -0.9999999999999999 0 0
outer loop
vertex -7.400064000000002 -7.650048000000002 0
vertex -7.400064000000002 -18.400032000000007 -0.49996800000000013
vertex -7.400064000000002 -22.200024000000006 -0.49996800000000013
endloop
endfacet
facet normal -1 0 0
outer loop
vertex -7.400064000000002 -7.650048000000002 0
vertex -7.400064000000002 -22.200024000000006 -0.49996800000000013
vertex -7.400064000000002 -22.200024000000006 0.49996800000000013
endloop
endfacet
facet normal -0.9999999999999999 0 0
outer loop
vertex -7.400064000000002 -7.650048000000002 0
vertex -7.400064000000002 -22.200024000000006 0.49996800000000013
vertex -7.400064000000002 -18.400032000000007 0.49996800000000013
endloop
endfacet
facet normal 0 1 0
outer loop
vertex -5.400024000000001 7.400064000000002 0.49996800000000013
vertex 7.400064000000002 7.400064000000002 0.49996800000000013
vertex 7.400064000000002 7.400064000000002 -0.49996800000000013
endloop
endfacet
facet normal 0 1 0
outer loop
vertex -5.400024000000001 7.400064000000002 0.49996800000000013
vertex 7.400064000000002 7.400064000000002 -0.49996800000000013
vertex -5.400024000000001 7.400064000000002 -0.49996800000000013
endloop
endfacet
endsolid JSCAD
