solid JSCAD
facet normal 0 0 -1
outer loop
vertex 0 0 -3.000046666666667
vertex 1.3656666666666668 6.8655066666666675 -3.000046666666667
vertex 2.678746666666667 6.4671400000000006 -3.000046666666667
endloop
endfacet
facet normal 0 0 -1
outer loop
vertex 0 0 -3.000046666666667
vertex 2.678746666666667 6.4671400000000006 -3.000046666666667
vertex 3.889033333333334 5.820233333333333 -3.000046666666667
endloop
endfacet
facet normal 0 0 -1
outer loop
vertex 0 0 -3.000046666666667
vertex 3.889033333333334 5.820233333333333 -3.000046666666667
vertex 4.94972 4.94972 -3.000046666666667
endloop
endfacet
facet normal 0 0 -1
outer loop
vertex 0 0 -3.000046666666667
vertex 4.94972 4.94972 -3.000046666666667
vertex 5.820233333333333 3.889033333333334 -3.000046666666667
endloop
endfacet
facet normal 0 0 -1
outer loop
vertex 0 0 -3.000046666666667
vertex 5.820233333333333 3.889033333333334 -3.000046666666667
vertex 6.4671400000000006 2.678746666666667 -3.000046666666667
endloop
endfacet
facet normal 0 0 -1
outer loop
vertex 0 0 -3.000046666666667
vertex 6.4671400000000006 2.678746666666667 -3.000046666666667
vertex 6.8655066666666675 1.3656666666666668 -3.000046666666667
endloop
endfacet
facet normal 0 0 -1
outer loop
vertex 0 0 -3.000046666666667
vertex 6.8655066666666675 1.3656666666666668 -3.000046666666667
vertex 7.0000333333333336 0 -3.000046666666667
endloop
endfacet
facet normal 0 0 -1
outer loop
vertex 0 0 -3.000046666666667
vertex 7.0000333333333336 0 -3.000046666666667
vertex 6.8655066666666675 -1.3656666666666668 -3.000046666666667
endloop
endfacet
facet normal 0 0 -1
outer loop
vertex 0 0 -3.000046666666667
vertex 6.8655066666666675 -1.3656666666666668 -3.000046666666667
vertex 6.4671400000000006 -2.678746666666667 -3.000046666666667
endloop
endfacet
facet normal 0 0 -1
outer loop
vertex 0 0 -3.000046666666667
vertex 6.4671400000000006 -2.678746666666667 -3.000046666666667
vertex 5.820233333333333 -3.889033333333334 -3.000046666666667
endloop
endfacet
facet normal 0 0 -1
outer loop
vertex 0 0 -3.000046666666667
vertex 5.820233333333333 -3.889033333333334 -3.000046666666667
vertex 4.94972 -4.94972 -3.000046666666667
endloop
endfacet
facet normal 0 0 -1
outer loop
vertex 0 0 -3.000046666666667
vertex 4.94972 -4.94972 -3.000046666666667
vertex 3.889033333333334 -5.820233333333333 -3.000046666666667
endloop
endfacet
facet normal 0 0 -1
outer loop
vertex 0 0 -3.000046666666667
vertex 3.889033333333334 -5.820233333333333 -3.000046666666667
vertex 2.678746666666667 -6.4671400000000006 -3.000046666666667
endloop
endfacet
facet normal 0 0 -1
outer loop
vertex 0 0 -3.000046666666667
vertex 2.678746666666667 -6.4671400000000006 -3.000046666666667
vertex 1.3656666666666668 -6.8655066666666675 -3.000046666666667
endloop
endfacet
facet normal 0 0 -1
outer loop
vertex 0 0 -3.000046666666667
vertex 1.3656666666666668 -6.8655066666666675 -3.000046666666667
vertex 0 -7.0000333333333336 -3.000046666666667
endloop
endfacet
facet normal 0 0 -1
outer loop
vertex 0 0 -3.000046666666667
vertex 0 -7.0000333333333336 -3.000046666666667
vertex -1.3656666666666668 -6.8655066666666675 -3.000046666666667
endloop
endfacet
facet normal 0 0 -1
outer loop
vertex 0 0 -3.000046666666667
vertex -1.3656666666666668 -6.8655066666666675 -3.000046666666667
vertex -2.678746666666667 -6.4671400000000006 -3.000046666666667
endloop
endfacet
facet normal 0 0 -1
outer loop
vertex 0 0 -3.000046666666667
vertex -2.678746666666667 -6.4671400000000006 -3.000046666666667
vertex -3.889033333333334 -5.820233333333333 -3.000046666666667
endloop
endfacet
facet normal 0 0 -1
outer loop
vertex 0 0 -3.000046666666667
vertex -3.889033333333334 -5.820233333333333 -3.000046666666667
vertex -4.94972 -4.94972 -3.000046666666667
endloop
endfacet
facet normal 0 0 -1
outer loop
vertex 0 0 -3.000046666666667
vertex -4.94972 -4.94972 -3.000046666666667
vertex -5.820233333333333 -3.889033333333334 -3.000046666666667
endloop
endfacet
facet normal 0 0 -1
outer loop
vertex 0 0 -3.000046666666667
vertex -5.820233333333333 -3.889033333333334 -3.000046666666667
vertex -6.4671400000000006 -2.678746666666667 -3.000046666666667
endloop
endfacet
facet normal 0 0 -1
outer loop
vertex 0 0 -3.000046666666667
vertex -6.4671400000000006 -2.678746666666667 -3.000046666666667
vertex -6.8655066666666675 -1.3656666666666668 -3.000046666666667
endloop
endfacet
facet normal 0 0 -1
outer loop
vertex 0 0 -3.000046666666667
vertex -6.8655066666666675 -1.3656666666666668 -3.000046666666667
vertex -7.0000333333333336 0 -3.000046666666667
endloop
endfacet
facet normal 0 0 -1
outer loop
vertex 0 0 -3.000046666666667
vertex -7.0000333333333336 0 -3.000046666666667
vertex -6.8655066666666675 1.3656666666666668 -3.000046666666667
endloop
endfacet
facet normal 0 0 -1
outer loop
vertex 0 0 -3.000046666666667
vertex -6.8655066666666675 1.3656666666666668 -3.000046666666667
vertex -6.4671400000000006 2.678746666666667 -3.000046666666667
endloop
endfacet
facet normal 0 0 -1
outer loop
vertex 0 0 -3.000046666666667
vertex -6.4671400000000006 2.678746666666667 -3.000046666666667
vertex -5.820233333333333 3.889033333333334 -3.000046666666667
endloop
endfacet
facet normal 0 0 -1
outer loop
vertex 0 0 -3.000046666666667
vertex -5.820233333333333 3.889033333333334 -3.000046666666667
vertex -4.94972 4.94972 -3.000046666666667
endloop
endfacet
facet normal 0 0 -1
outer loop
vertex 0 0 -3.000046666666667
vertex -4.94972 4.94972 -3.000046666666667
vertex -3.889033333333334 5.820233333333333 -3.000046666666667
endloop
endfacet
facet normal 0 0 -1
outer loop
vertex 0 0 -3.000046666666667
vertex -3.889033333333334 5.820233333333333 -3.000046666666667
vertex -2.678746666666667 6.4671400000000006 -3.000046666666667
endloop
endfacet
facet normal 0 0 -1
outer loop
vertex 0 0 -3.000046666666667
vertex -2.678746666666667 6.4671400000000006 -3.000046666666667
vertex -1.3656666666666668 6.8655066666666675 -3.000046666666667
endloop
endfacet
facet normal 0 0 -1
outer loop
vertex 0 0 -3.000046666666667
vertex -1.3656666666666668 6.8655066666666675 -3.000046666666667
vertex 0 7.0000333333333336 -3.000046666666667
endloop
endfacet
facet normal 0 0 -1
outer loop
vertex 0 0 -3.000046666666667
vertex 0 7.0000333333333336 -3.000046666666667
vertex 1.3656666666666668 6.8655066666666675 -3.000046666666667
endloop
endfacet
facet normal 0.9951833279700019 0.09803134055266119 0
outer loop
vertex 6.926026666666667 0.7512866666666668 0.5999866666666667
vertex 6.8655066666666675 1.3656666666666668 -3.000046666666667
vertex 6.8655066666666675 1.3656666666666668 3.000046666666667
endloop
endfacet
facet normal 0.9951836498051154 0.09802807332522788 8.444774928711716e-7
outer loop
vertex 6.926026666666667 0.7512866666666668 0.5999866666666667
vertex 6.8655066666666675 1.3656666666666668 3.000046666666667
vertex 6.899053333333334 1.0251000000000001 3.000046666666667
endloop
endfacet
facet normal 0.9951831675820253 0.09803296874688593 2.8055872150449424e-7
outer loop
vertex 6.926026666666667 0.7512866666666668 0.5999866666666667
vertex 6.899053333333334 1.0251000000000001 3.000046666666667
vertex 7.0000333333333336 0 3.000046666666667
endloop
endfacet
facet normal 0.995183255022727 0.098032081087621 0
outer loop
vertex 6.926026666666667 0.7512866666666668 0.5999866666666667
vertex 7.0000333333333336 0 3.000046666666667
vertex 7.0000333333333336 0 -3.000046666666667
endloop
endfacet
facet normal 0.9951832878399846 0.09803174793909177 7.019900108513569e-8
outer loop
vertex 6.926026666666667 0.7512866666666668 0.5999866666666667
vertex 7.0000333333333336 0 -3.000046666666667
vertex 6.8655066666666675 1.3656666666666668 -3.000046666666667
endloop
endfacet
facet normal 0.9569419110905446 0.29027948394327846 0
outer loop
vertex 6.69868 1.9154466666666667 0.5999866666666667
vertex 6.4671400000000006 2.678746666666667 -3.000046666666667
vertex 6.4671400000000006 2.678746666666667 3.000046666666667
endloop
endfacet
facet normal 0.9569316536285665 0.290313296536339 -0.000011743108517931135
outer loop
vertex 6.69868 1.9154466666666667 0.5999866666666667
vertex 6.4671400000000006 2.678746666666667 3.000046666666667
vertex 6.828333333333334 1.48818 3.000046666666667
endloop
endfacet
facet normal 0.9569201117896226 0.29035133826734305 -0.000004347292791568752
outer loop
vertex 6.69868 1.9154466666666667 0.5999866666666667
vertex 6.828333333333334 1.48818 3.000046666666667
vertex 6.8655066666666675 1.3656666666666668 3.000046666666667
endloop
endfacet
facet normal 0.9569148387452487 0.29036871627149247 0
outer loop
vertex 6.69868 1.9154466666666667 0.5999866666666667
vertex 6.8655066666666675 1.3656666666666668 3.000046666666667
vertex 6.8655066666666675 1.3656666666666668 -3.000046666666667
endloop
endfacet
facet normal 0.9569305768259481 0.2903168459816338 0.000008650691984698167
outer loop
vertex 6.69868 1.9154466666666667 0.5999866666666667
vertex 6.8655066666666675 1.3656666666666668 -3.000046666666667
vertex 6.4671400000000006 2.678746666666667 -3.000046666666667
endloop
endfacet
facet normal 0.881922789459894 0.47139388353189243 0
outer loop
vertex 5.820233333333333 3.889033333333334 -3.000046666666667
vertex 5.820233333333333 3.889033333333334 3.000046666666667
vertex 6.4671400000000006 2.678746666666667 3.000046666666667
endloop
endfacet
facet normal 0.881922789459894 0.47139388353189243 0
outer loop
vertex 5.820233333333333 3.889033333333334 -3.000046666666667
vertex 6.4671400000000006 2.678746666666667 3.000046666666667
vertex 6.4671400000000006 2.678746666666667 -3.000046666666667
endloop
endfacet
facet normal 0.772999630820722 0.6344064712398726 0
outer loop
vertex 4.94972 4.94972 -3.000046666666667
vertex 4.94972 4.94972 3.000046666666667
vertex 5.820233333333333 3.889033333333334 3.000046666666667
endloop
endfacet
facet normal 0.772999630820722 0.6344064712398726 0
outer loop
vertex 4.94972 4.94972 -3.000046666666667
vertex 5.820233333333333 3.889033333333334 3.000046666666667
vertex 5.820233333333333 3.889033333333334 -3.000046666666667
endloop
endfacet
facet normal 0.6344064712398726 0.772999630820722 0
outer loop
vertex 3.889033333333334 5.820233333333333 -3.000046666666667
vertex 3.889033333333334 5.820233333333333 3.000046666666667
vertex 4.94972 4.94972 3.000046666666667
endloop
endfacet
facet normal 0.6344064712398726 0.772999630820722 0
outer loop
vertex 3.889033333333334 5.820233333333333 -3.000046666666667
vertex 4.94972 4.94972 3.000046666666667
vertex 4.94972 4.94972 -3.000046666666667
endloop
endfacet
facet normal 0.47139388353189243 0.881922789459894 0
outer loop
vertex 2.678746666666667 6.4671400000000006 -3.000046666666667
vertex 2.678746666666667 6.4671400000000006 3.000046666666667
vertex 3.889033333333334 5.820233333333333 3.000046666666667
endloop
endfacet
facet normal 0.47139388353189243 0.881922789459894 0
outer loop
vertex 2.678746666666667 6.4671400000000006 -3.000046666666667
vertex 3.889033333333334 5.820233333333333 3.000046666666667
vertex 3.889033333333334 5.820233333333333 -3.000046666666667
endloop
endfacet
facet normal 0.2903168459924967 0.9569305768617539 0
outer loop
vertex 1.3656666666666668 6.8655066666666675 -3.000046666666667
vertex 1.3656666666666668 6.8655066666666675 3.000046666666667
vertex 2.678746666666667 6.4671400000000006 3.000046666666667
endloop
endfacet
facet normal 0.2903168459924967 0.9569305768617539 0
outer loop
vertex 1.3656666666666668 6.8655066666666675 -3.000046666666667
vertex 2.678746666666667 6.4671400000000006 3.000046666666667
vertex 2.678746666666667 6.4671400000000006 -3.000046666666667
endloop
endfacet
facet normal 0.09803174793909201 0.995183287839987 0
outer loop
vertex 0 7.0000333333333336 -3.000046666666667
vertex 0 7.0000333333333336 3.000046666666667
vertex 1.3656666666666668 6.8655066666666675 3.000046666666667
endloop
endfacet
facet normal 0.09803174793909201 0.995183287839987 0
outer loop
vertex 0 7.0000333333333336 -3.000046666666667
vertex 1.3656666666666668 6.8655066666666675 3.000046666666667
vertex 1.3656666666666668 6.8655066666666675 -3.000046666666667
endloop
endfacet
facet normal -0.09803174793909201 0.995183287839987 0
outer loop
vertex -1.3656666666666668 6.8655066666666675 -3.000046666666667
vertex -1.3656666666666668 6.8655066666666675 3.000046666666667
vertex 0 7.0000333333333336 3.000046666666667
endloop
endfacet
facet normal -0.09803174793909201 0.995183287839987 0
outer loop
vertex -1.3656666666666668 6.8655066666666675 -3.000046666666667
vertex 0 7.0000333333333336 3.000046666666667
vertex 0 7.0000333333333336 -3.000046666666667
endloop
endfacet
facet normal -0.2903168459924967 0.9569305768617539 0
outer loop
vertex -2.678746666666667 6.4671400000000006 -3.000046666666667
vertex -2.678746666666667 6.4671400000000006 3.000046666666667
vertex -1.3656666666666668 6.8655066666666675 3.000046666666667
endloop
endfacet
facet normal -0.2903168459924967 0.9569305768617539 0
outer loop
vertex -2.678746666666667 6.4671400000000006 -3.000046666666667
vertex -1.3656666666666668 6.8655066666666675 3.000046666666667
vertex -1.3656666666666668 6.8655066666666675 -3.000046666666667
endloop
endfacet
facet normal -0.47139388353189243 0.881922789459894 0
outer loop
vertex -3.889033333333334 5.820233333333333 -3.000046666666667
vertex -3.889033333333334 5.820233333333333 3.000046666666667
vertex -2.678746666666667 6.4671400000000006 3.000046666666667
endloop
endfacet
facet normal -0.47139388353189243 0.881922789459894 0
outer loop
vertex -3.889033333333334 5.820233333333333 -3.000046666666667
vertex -2.678746666666667 6.4671400000000006 3.000046666666667
vertex -2.678746666666667 6.4671400000000006 -3.000046666666667
endloop
endfacet
facet normal -0.6344064712398726 0.772999630820722 0
outer loop
vertex -4.94972 4.94972 -3.000046666666667
vertex -4.94972 4.94972 3.000046666666667
vertex -3.889033333333334 5.820233333333333 3.000046666666667
endloop
endfacet
facet normal -0.6344064712398726 0.772999630820722 0
outer loop
vertex -4.94972 4.94972 -3.000046666666667
vertex -3.889033333333334 5.820233333333333 3.000046666666667
vertex -3.889033333333334 5.820233333333333 -3.000046666666667
endloop
endfacet
facet normal -0.772999630820722 0.6344064712398726 0
outer loop
vertex -5.820233333333333 3.889033333333334 -3.000046666666667
vertex -5.820233333333333 3.889033333333334 3.000046666666667
vertex -4.94972 4.94972 3.000046666666667
endloop
endfacet
facet normal -0.772999630820722 0.6344064712398726 0
outer loop
vertex -5.820233333333333 3.889033333333334 -3.000046666666667
vertex -4.94972 4.94972 3.000046666666667
vertex -4.94972 4.94972 -3.000046666666667
endloop
endfacet
facet normal -0.881922789459894 0.47139388353189243 0
outer loop
vertex -6.4671400000000006 2.678746666666667 -3.000046666666667
vertex -6.4671400000000006 2.678746666666667 3.000046666666667
vertex -5.820233333333333 3.889033333333334 3.000046666666667
endloop
endfacet
facet normal -0.881922789459894 0.47139388353189243 0
outer loop
vertex -6.4671400000000006 2.678746666666667 -3.000046666666667
vertex -5.820233333333333 3.889033333333334 3.000046666666667
vertex -5.820233333333333 3.889033333333334 -3.000046666666667
endloop
endfacet
facet normal -0.9569148387452487 0.29036871627149247 0
outer loop
vertex -6.69868 1.9154466666666667 0.5999866666666667
vertex -6.8655066666666675 1.3656666666666668 -3.000046666666667
vertex -6.8655066666666675 1.3656666666666668 3.000046666666667
endloop
endfacet
facet normal -0.9569201117896226 0.29035133826734305 -0.000004347292791568752
outer loop
vertex -6.69868 1.9154466666666667 0.5999866666666667
vertex -6.8655066666666675 1.3656666666666668 3.000046666666667
vertex -6.828333333333334 1.48818 3.000046666666667
endloop
endfacet
facet normal -0.9569316536285665 0.290313296536339 -0.000011743108517931135
outer loop
vertex -6.69868 1.9154466666666667 0.5999866666666667
vertex -6.828333333333334 1.48818 3.000046666666667
vertex -6.4671400000000006 2.678746666666667 3.000046666666667
endloop
endfacet
facet normal -0.9569419110905446 0.29027948394327846 0
outer loop
vertex -6.69868 1.9154466666666667 0.5999866666666667
vertex -6.4671400000000006 2.678746666666667 3.000046666666667
vertex -6.4671400000000006 2.678746666666667 -3.000046666666667
endloop
endfacet
facet normal -0.9569305768259481 0.2903168459816338 0.000008650691984698167
outer loop
vertex -6.69868 1.9154466666666667 0.5999866666666667
vertex -6.4671400000000006 2.678746666666667 -3.000046666666667
vertex -6.8655066666666675 1.3656666666666668 -3.000046666666667
endloop
endfacet
facet normal -0.995183255022727 0.098032081087621 0
outer loop
vertex -6.926026666666667 0.7512866666666668 0.5999866666666667
vertex -7.0000333333333336 0 -3.000046666666667
vertex -7.0000333333333336 0 3.000046666666667
endloop
endfacet
facet normal -0.9951831675820253 0.09803296874688593 2.8055872150449424e-7
outer loop
vertex -6.926026666666667 0.7512866666666668 0.5999866666666667
vertex -7.0000333333333336 0 3.000046666666667
vertex -6.899053333333334 1.0251000000000001 3.000046666666667
endloop
endfacet
facet normal -0.9951836498051154 0.09802807332522788 8.444774928711716e-7
outer loop
vertex -6.926026666666667 0.7512866666666668 0.5999866666666667
vertex -6.899053333333334 1.0251000000000001 3.000046666666667
vertex -6.8655066666666675 1.3656666666666668 3.000046666666667
endloop
endfacet
facet normal -0.9951833279700019 0.09803134055266119 0
outer loop
vertex -6.926026666666667 0.7512866666666668 0.5999866666666667
vertex -6.8655066666666675 1.3656666666666668 3.000046666666667
vertex -6.8655066666666675 1.3656666666666668 -3.000046666666667
endloop
endfacet
facet normal -0.9951832878399846 0.09803174793909177 7.019900108513569e-8
outer loop
vertex -6.926026666666667 0.7512866666666668 0.5999866666666667
vertex -6.8655066666666675 1.3656666666666668 -3.000046666666667
vertex -7.0000333333333336 0 -3.000046666666667
endloop
endfacet
facet normal -0.9951833279700019 -0.09803134055266119 0
outer loop
vertex -6.926026666666667 -0.7512866666666668 0.5999866666666667
vertex -6.8655066666666675 -1.3656666666666668 -3.000046666666667
vertex -6.8655066666666675 -1.3656666666666668 3.000046666666667
endloop
endfacet
facet normal -0.9951836498051154 -0.09802807332522788 8.444774928711716e-7
outer loop
vertex -6.926026666666667 -0.7512866666666668 0.5999866666666667
vertex -6.8655066666666675 -1.3656666666666668 3.000046666666667
vertex -6.899053333333334 -1.0251000000000001 3.000046666666667
endloop
endfacet
facet normal -0.9951831675820253 -0.09803296874688593 2.8055872150449424e-7
outer loop
vertex -6.926026666666667 -0.7512866666666668 0.5999866666666667
vertex -6.899053333333334 -1.0251000000000001 3.000046666666667
vertex -7.0000333333333336 0 3.000046666666667
endloop
endfacet
facet normal -0.995183255022727 -0.098032081087621 0
outer loop
vertex -6.926026666666667 -0.7512866666666668 0.5999866666666667
vertex -7.0000333333333336 0 3.000046666666667
vertex -7.0000333333333336 0 -3.000046666666667
endloop
endfacet
facet normal -0.9951832878399846 -0.09803174793909177 7.019900108513569e-8
outer loop
vertex -6.926026666666667 -0.7512866666666668 0.5999866666666667
vertex -7.0000333333333336 0 -3.000046666666667
vertex -6.8655066666666675 -1.3656666666666668 -3.000046666666667
endloop
endfacet
facet normal -0.9569419110905446 -0.29027948394327846 0
outer loop
vertex -6.69868 -1.9154466666666667 0.5999866666666667
vertex -6.4671400000000006 -2.678746666666667 -3.000046666666667
vertex -6.4671400000000006 -2.678746666666667 3.000046666666667
endloop
endfacet
facet normal -0.9569316536285665 -0.290313296536339 -0.000011743108517931135
outer loop
vertex -6.69868 -1.9154466666666667 0.5999866666666667
vertex -6.4671400000000006 -2.678746666666667 3.000046666666667
vertex -6.828333333333334 -1.48818 3.000046666666667
endloop
endfacet
facet normal -0.9569201117896226 -0.29035133826734305 -0.000004347292791568752
outer loop
vertex -6.69868 -1.9154466666666667 0.5999866666666667
vertex -6.828333333333334 -1.48818 3.000046666666667
vertex -6.8655066666666675 -1.3656666666666668 3.000046666666667
endloop
endfacet
facet normal -0.9569148387452487 -0.29036871627149247 0
outer loop
vertex -6.69868 -1.9154466666666667 0.5999866666666667
vertex -6.8655066666666675 -1.3656666666666668 3.000046666666667
vertex -6.8655066666666675 -1.3656666666666668 -3.000046666666667
endloop
endfacet
facet normal -0.9569305768259481 -0.2903168459816338 0.000008650691984698167
outer loop
vertex -6.69868 -1.9154466666666667 0.5999866666666667
vertex -6.8655066666666675 -1.3656666666666668 -3.000046666666667
vertex -6.4671400000000006 -2.678746666666667 -3.000046666666667
endloop
endfacet
facet normal -0.881922789459894 -0.47139388353189243 0
outer loop
vertex -5.820233333333333 -3.889033333333334 -3.000046666666667
vertex -5.820233333333333 -3.889033333333334 3.000046666666667
vertex -6.4671400000000006 -2.678746666666667 3.000046666666667
endloop
endfacet
facet normal -0.881922789459894 -0.47139388353189243 0
outer loop
vertex -5.820233333333333 -3.889033333333334 -3.000046666666667
vertex -6.4671400000000006 -2.678746666666667 3.000046666666667
vertex -6.4671400000000006 -2.678746666666667 -3.000046666666667
endloop
endfacet
facet normal -0.772999630820722 -0.6344064712398726 0
outer loop
vertex -4.94972 -4.94972 -3.000046666666667
vertex -4.94972 -4.94972 3.000046666666667
vertex -5.820233333333333 -3.889033333333334 3.000046666666667
endloop
endfacet
facet normal -0.772999630820722 -0.6344064712398726 0
outer loop
vertex -4.94972 -4.94972 -3.000046666666667
vertex -5.820233333333333 -3.889033333333334 3.000046666666667
vertex -5.820233333333333 -3.889033333333334 -3.000046666666667
endloop
endfacet
facet normal -0.6344064712398726 -0.772999630820722 0
outer loop
vertex -3.889033333333334 -5.820233333333333 -3.000046666666667
vertex -3.889033333333334 -5.820233333333333 3.000046666666667
vertex -4.94972 -4.94972 3.000046666666667
endloop
endfacet
facet normal -0.6344064712398726 -0.772999630820722 0
outer loop
vertex -3.889033333333334 -5.820233333333333 -3.000046666666667
vertex -4.94972 -4.94972 3.000046666666667
vertex -4.94972 -4.94972 -3.000046666666667
endloop
endfacet
facet normal -0.47139388353189243 -0.881922789459894 0
outer loop
vertex -2.678746666666667 -6.4671400000000006 -3.000046666666667
vertex -2.678746666666667 -6.4671400000000006 3.000046666666667
vertex -3.889033333333334 -5.820233333333333 3.000046666666667
endloop
endfacet
facet normal -0.47139388353189243 -0.881922789459894 0
outer loop
vertex -2.678746666666667 -6.4671400000000006 -3.000046666666667
vertex -3.889033333333334 -5.820233333333333 3.000046666666667
vertex -3.889033333333334 -5.820233333333333 -3.000046666666667
endloop
endfacet
facet normal -0.2903168459924967 -0.9569305768617539 0
outer loop
vertex -1.3656666666666668 -6.8655066666666675 -3.000046666666667
vertex -1.3656666666666668 -6.8655066666666675 3.000046666666667
vertex -2.678746666666667 -6.4671400000000006 3.000046666666667
endloop
endfacet
facet normal -0.2903168459924967 -0.9569305768617539 0
outer loop
vertex -1.3656666666666668 -6.8655066666666675 -3.000046666666667
vertex -2.678746666666667 -6.4671400000000006 3.000046666666667
vertex -2.678746666666667 -6.4671400000000006 -3.000046666666667
endloop
endfacet
facet normal -0.09803174793909201 -0.995183287839987 0
outer loop
vertex 0 -7.0000333333333336 -3.000046666666667
vertex 0 -7.0000333333333336 3.000046666666667
vertex -1.3656666666666668 -6.8655066666666675 3.000046666666667
endloop
endfacet
facet normal -0.09803174793909201 -0.995183287839987 0
outer loop
vertex 0 -7.0000333333333336 -3.000046666666667
vertex -1.3656666666666668 -6.8655066666666675 3.000046666666667
vertex -1.3656666666666668 -6.8655066666666675 -3.000046666666667
endloop
endfacet
facet normal 0.09803174793909201 -0.995183287839987 0
outer loop
vertex 1.3656666666666668 -6.8655066666666675 -3.000046666666667
vertex 1.3656666666666668 -6.8655066666666675 3.000046666666667
vertex 0 -7.0000333333333336 3.000046666666667
endloop
endfacet
facet normal 0.09803174793909201 -0.995183287839987 0
outer loop
vertex 1.3656666666666668 -6.8655066666666675 -3.000046666666667
vertex 0 -7.0000333333333336 3.000046666666667
vertex 0 -7.0000333333333336 -3.000046666666667
endloop
endfacet
facet normal 0.2903168459924967 -0.9569305768617539 0
outer loop
vertex 2.678746666666667 -6.4671400000000006 -3.000046666666667
vertex 2.678746666666667 -6.4671400000000006 3.000046666666667
vertex 1.3656666666666668 -6.8655066666666675 3.000046666666667
endloop
endfacet
facet normal 0.2903168459924967 -0.9569305768617539 0
outer loop
vertex 2.678746666666667 -6.4671400000000006 -3.000046666666667
vertex 1.3656666666666668 -6.8655066666666675 3.000046666666667
vertex 1.3656666666666668 -6.8655066666666675 -3.000046666666667
endloop
endfacet
facet normal 0.47139388353189243 -0.881922789459894 0
outer loop
vertex 3.889033333333334 -5.820233333333333 -3.000046666666667
vertex 3.889033333333334 -5.820233333333333 3.000046666666667
vertex 2.678746666666667 -6.4671400000000006 3.000046666666667
endloop
endfacet
facet normal 0.47139388353189243 -0.881922789459894 0
outer loop
vertex 3.889033333333334 -5.820233333333333 -3.000046666666667
vertex 2.678746666666667 -6.4671400000000006 3.000046666666667
vertex 2.678746666666667 -6.4671400000000006 -3.000046666666667
endloop
endfacet
facet normal 0.6344064712398726 -0.772999630820722 0
outer loop
vertex 4.94972 -4.94972 -3.000046666666667
vertex 4.94972 -4.94972 3.000046666666667
vertex 3.889033333333334 -5.820233333333333 3.000046666666667
endloop
endfacet
facet normal 0.6344064712398726 -0.772999630820722 0
outer loop
vertex 4.94972 -4.94972 -3.000046666666667
vertex 3.889033333333334 -5.820233333333333 3.000046666666667
vertex 3.889033333333334 -5.820233333333333 -3.000046666666667
endloop
endfacet
facet normal 0.772999630820722 -0.6344064712398726 0
outer loop
vertex 5.820233333333333 -3.889033333333334 -3.000046666666667
vertex 5.820233333333333 -3.889033333333334 3.000046666666667
vertex 4.94972 -4.94972 3.000046666666667
endloop
endfacet
facet normal 0.772999630820722 -0.6344064712398726 0
outer loop
vertex 5.820233333333333 -3.889033333333334 -3.000046666666667
vertex 4.94972 -4.94972 3.000046666666667
vertex 4.94972 -4.94972 -3.000046666666667
endloop
endfacet
facet normal 0.881922789459894 -0.47139388353189243 0
outer loop
vertex 6.4671400000000006 -2.678746666666667 -3.000046666666667
vertex 6.4671400000000006 -2.678746666666667 3.000046666666667
vertex 5.820233333333333 -3.889033333333334 3.000046666666667
endloop
endfacet
facet normal 0.881922789459894 -0.47139388353189243 0
outer loop
vertex 6.4671400000000006 -2.678746666666667 -3.000046666666667
vertex 5.820233333333333 -3.889033333333334 3.000046666666667
vertex 5.820233333333333 -3.889033333333334 -3.000046666666667
endloop
endfacet
facet normal 0.9569148387452487 -0.29036871627149247 0
outer loop
vertex 6.69868 -1.9154466666666667 0.5999866666666667
vertex 6.8655066666666675 -1.3656666666666668 -3.000046666666667
vertex 6.8655066666666675 -1.3656666666666668 3.000046666666667
endloop
endfacet
facet normal 0.9569201117896226 -0.29035133826734305 -0.000004347292791568752
outer loop
vertex 6.69868 -1.9154466666666667 0.5999866666666667
vertex 6.8655066666666675 -1.3656666666666668 3.000046666666667
vertex 6.828333333333334 -1.48818 3.000046666666667
endloop
endfacet
facet normal 0.9569316536285665 -0.290313296536339 -0.000011743108517931135
outer loop
vertex 6.69868 -1.9154466666666667 0.5999866666666667
vertex 6.828333333333334 -1.48818 3.000046666666667
vertex 6.4671400000000006 -2.678746666666667 3.000046666666667
endloop
endfacet
facet normal 0.9569419110905446 -0.29027948394327846 0
outer loop
vertex 6.69868 -1.9154466666666667 0.5999866666666667
vertex 6.4671400000000006 -2.678746666666667 3.000046666666667
vertex 6.4671400000000006 -2.678746666666667 -3.000046666666667
endloop
endfacet
facet normal 0.9569305768259481 -0.2903168459816338 0.000008650691984698167
outer loop
vertex 6.69868 -1.9154466666666667 0.5999866666666667
vertex 6.4671400000000006 -2.678746666666667 -3.000046666666667
vertex 6.8655066666666675 -1.3656666666666668 -3.000046666666667
endloop
endfacet
facet normal 0.995183255022727 -0.098032081087621 0
outer loop
vertex 6.926026666666667 -0.7512866666666668 0.5999866666666667
vertex 7.0000333333333336 0 -3.000046666666667
vertex 7.0000333333333336 0 3.000046666666667
endloop
endfacet
facet normal 0.9951831675820253 -0.09803296874688593 2.8055872150449424e-7
outer loop
vertex 6.926026666666667 -0.7512866666666668 0.5999866666666667
vertex 7.0000333333333336 0 3.000046666666667
vertex 6.899053333333334 -1.0251000000000001 3.000046666666667
endloop
endfacet
facet normal 0.9951836498051154 -0.09802807332522788 8.444774928711716e-7
outer loop
vertex 6.926026666666667 -0.7512866666666668 0.5999866666666667
vertex 6.899053333333334 -1.0251000000000001 3.000046666666667
vertex 6.8655066666666675 -1.3656666666666668 3.000046666666667
endloop
endfacet
facet normal 0.9951833279700019 -0.09803134055266119 0
outer loop
vertex 6.926026666666667 -0.7512866666666668 0.5999866666666667
vertex 6.8655066666666675 -1.3656666666666668 3.000046666666667
vertex 6.8655066666666675 -1.3656666666666668 -3.000046666666667
endloop
endfacet
facet normal 0.9951832878399846 -0.09803174793909177 7.019900108513569e-8
outer loop
vertex 6.926026666666667 -0.7512866666666668 0.5999866666666667
vertex 6.8655066666666675 -1.3656666666666668 -3.000046666666667
vertex 7.0000333333333336 0 -3.000046666666667
endloop
endfacet
facet normal 0 0 1
outer loop
vertex 0 0 -1.4999666666666667
vertex 0 2.2500066666666667 -1.4999666666666667
vertex -0.43894000000000005 2.2067133333333335 -1.4999666666666667
endloop
endfacet
facet normal 0 0 1
outer loop
vertex 0 0 -1.4999666666666667
vertex -0.43894000000000005 2.2067133333333335 -1.4999666666666667
vertex -0.8609933333333334 2.07876 -1.4999666666666667
endloop
endfacet
facet normal 0 0 0.9999999999999999
outer loop
vertex 0 0 -1.4999666666666667
vertex -0.8609933333333334 2.07876 -1.4999666666666667
vertex -1.2500666666666667 1.8707933333333335 -1.4999666666666667
endloop
endfacet
facet normal 0 0 1
outer loop
vertex 0 0 -1.4999666666666667
vertex -1.2500666666666667 1.8707933333333335 -1.4999666666666667
vertex -1.5909733333333334 1.5909733333333334 -1.4999666666666667
endloop
endfacet
facet normal 0 0 1
outer loop
vertex 0 0 -1.4999666666666667
vertex -1.5909733333333334 1.5909733333333334 -1.4999666666666667
vertex -1.8707933333333335 1.2500666666666667 -1.4999666666666667
endloop
endfacet
facet normal 0 0 0.9999999999999999
outer loop
vertex 0 0 -1.4999666666666667
vertex -1.8707933333333335 1.2500666666666667 -1.4999666666666667
vertex -2.07876 0.8609933333333334 -1.4999666666666667
endloop
endfacet
facet normal 0 0 1
outer loop
vertex 0 0 -1.4999666666666667
vertex -2.07876 0.8609933333333334 -1.4999666666666667
vertex -2.2067133333333335 0.43894000000000005 -1.4999666666666667
endloop
endfacet
facet normal 0 0 1
outer loop
vertex 0 0 -1.4999666666666667
vertex -2.2067133333333335 0.43894000000000005 -1.4999666666666667
vertex -2.2500066666666667 0 -1.4999666666666667
endloop
endfacet
facet normal 0 0 1
outer loop
vertex 0 0 -1.4999666666666667
vertex -2.2500066666666667 0 -1.4999666666666667
vertex -2.2067133333333335 -0.43894000000000005 -1.4999666666666667
endloop
endfacet
facet normal 0 0 1
outer loop
vertex 0 0 -1.4999666666666667
vertex -2.2067133333333335 -0.43894000000000005 -1.4999666666666667
vertex -2.07876 -0.8609933333333334 -1.4999666666666667
endloop
endfacet
facet normal 0 0 0.9999999999999999
outer loop
vertex 0 0 -1.4999666666666667
vertex -2.07876 -0.8609933333333334 -1.4999666666666667
vertex -1.8707933333333335 -1.2500666666666667 -1.4999666666666667
endloop
endfacet
facet normal 0 0 1
outer loop
vertex 0 0 -1.4999666666666667
vertex -1.8707933333333335 -1.2500666666666667 -1.4999666666666667
vertex -1.5909733333333334 -1.5909733333333334 -1.4999666666666667
endloop
endfacet
facet normal 0 0 1
outer loop
vertex 0 0 -1.4999666666666667
vertex -1.5909733333333334 -1.5909733333333334 -1.4999666666666667
vertex -1.2500666666666667 -1.8707933333333335 -1.4999666666666667
endloop
endfacet
facet normal 0 0 0.9999999999999999
outer loop
vertex 0 0 -1.4999666666666667
vertex -1.2500666666666667 -1.8707933333333335 -1.4999666666666667
vertex -0.8609933333333334 -2.07876 -1.4999666666666667
endloop
endfacet
facet normal 0 0 1
outer loop
vertex 0 0 -1.4999666666666667
vertex -0.8609933333333334 -2.07876 -1.4999666666666667
vertex -0.43894000000000005 -2.2067133333333335 -1.4999666666666667
endloop
endfacet
facet normal 0 0 1
outer loop
vertex 0 0 -1.4999666666666667
vertex -0.43894000000000005 -2.2067133333333335 -1.4999666666666667
vertex 0 -2.2500066666666667 -1.4999666666666667
endloop
endfacet
facet normal 0 0 1
outer loop
vertex 0 0 -1.4999666666666667
vertex 0 -2.2500066666666667 -1.4999666666666667
vertex 0.43894000000000005 -2.2067133333333335 -1.4999666666666667
endloop
endfacet
facet normal 0 0 1
outer loop
vertex 0 0 -1.4999666666666667
vertex 0.43894000000000005 -2.2067133333333335 -1.4999666666666667
vertex 0.8609933333333334 -2.07876 -1.4999666666666667
endloop
endfacet
facet normal 0 0 0.9999999999999999
outer loop
vertex 0 0 -1.4999666666666667
vertex 0.8609933333333334 -2.07876 -1.4999666666666667
vertex 1.2500666666666667 -1.8707933333333335 -1.4999666666666667
endloop
endfacet
facet normal 0 0 1
outer loop
vertex 0 0 -1.4999666666666667
vertex 1.2500666666666667 -1.8707933333333335 -1.4999666666666667
vertex 1.5909733333333334 -1.5909733333333334 -1.4999666666666667
endloop
endfacet
facet normal 0 0 1
outer loop
vertex 0 0 -1.4999666666666667
vertex 1.5909733333333334 -1.5909733333333334 -1.4999666666666667
vertex 1.8707933333333335 -1.2500666666666667 -1.4999666666666667
endloop
endfacet
facet normal 0 0 0.9999999999999999
outer loop
vertex 0 0 -1.4999666666666667
vertex 1.8707933333333335 -1.2500666666666667 -1.4999666666666667
vertex 2.07876 -0.8609933333333334 -1.4999666666666667
endloop
endfacet
facet normal 0 0 1
outer loop
vertex 0 0 -1.4999666666666667
vertex 2.07876 -0.8609933333333334 -1.4999666666666667
vertex 2.2067133333333335 -0.43894000000000005 -1.4999666666666667
endloop
endfacet
facet normal 0 0 1
outer loop
vertex 0 0 -1.4999666666666667
vertex 2.2067133333333335 -0.43894000000000005 -1.4999666666666667
vertex 2.2500066666666667 0 -1.4999666666666667
endloop
endfacet
facet normal 0 0 1
outer loop
vertex 0 0 -1.4999666666666667
vertex 2.2500066666666667 0 -1.4999666666666667
vertex 2.2067133333333335 0.43894000000000005 -1.4999666666666667
endloop
endfacet
facet normal 0 0 1
outer loop
vertex 0 0 -1.4999666666666667
vertex 2.2067133333333335 0.43894000000000005 -1.4999666666666667
vertex 2.07876 0.8609933333333334 -1.4999666666666667
endloop
endfacet
facet normal 0 0 0.9999999999999999
outer loop
vertex 0 0 -1.4999666666666667
vertex 2.07876 0.8609933333333334 -1.4999666666666667
vertex 1.8707933333333335 1.2500666666666667 -1.4999666666666667
endloop
endfacet
facet normal 0 0 1
outer loop
vertex 0 0 -1.4999666666666667
vertex 1.8707933333333335 1.2500666666666667 -1.4999666666666667
vertex 1.5909733333333334 1.5909733333333334 -1.4999666666666667
endloop
endfacet
facet normal 0 0 1
outer loop
vertex 0 0 -1.4999666666666667
vertex 1.5909733333333334 1.5909733333333334 -1.4999666666666667
vertex 1.2500666666666667 1.8707933333333335 -1.4999666666666667
endloop
endfacet
facet normal 0 0 0.9999999999999999
outer loop
vertex 0 0 -1.4999666666666667
vertex 1.2500666666666667 1.8707933333333335 -1.4999666666666667
vertex 0.8609933333333334 2.07876 -1.4999666666666667
endloop
endfacet
facet normal 0 0 1
outer loop
vertex 0 0 -1.4999666666666667
vertex 0.8609933333333334 2.07876 -1.4999666666666667
vertex 0.43894000000000005 2.2067133333333335 -1.4999666666666667
endloop
endfacet
facet normal 0 0 1
outer loop
vertex 0 0 -1.4999666666666667
vertex 0.43894000000000005 2.2067133333333335 -1.4999666666666667
vertex 0 2.2500066666666667 -1.4999666666666667
endloop
endfacet
facet normal -0.9951711123012443 -0.09815527108160961 0
outer loop
vertex 2.2500066666666667 0 -1.4999666666666667
vertex 2.2500066666666667 0 2.3999466666666667
vertex 2.2067133333333335 0.43894000000000005 2.3999466666666667
endloop
endfacet
facet normal -0.9951711123012443 -0.09815527108160961 0
outer loop
vertex 2.2500066666666667 0 -1.4999666666666667
vertex 2.2067133333333335 0.43894000000000005 2.3999466666666667
vertex 2.2067133333333335 0.43894000000000005 -1.4999666666666667
endloop
endfacet
facet normal -0.9569876546734791 -0.29012864181696024 0
outer loop
vertex 2.2067133333333335 0.43894000000000005 -1.4999666666666667
vertex 2.2067133333333335 0.43894000000000005 2.3999466666666667
vertex 2.07876 0.8609933333333334 2.3999466666666667
endloop
endfacet
facet normal -0.9569876546734791 -0.29012864181696024 0
outer loop
vertex 2.2067133333333335 0.43894000000000005 -1.4999666666666667
vertex 2.07876 0.8609933333333334 2.3999466666666667
vertex 2.07876 0.8609933333333334 -1.4999666666666667
endloop
endfacet
facet normal -0.8819187790705516 -0.47140138642425294 0
outer loop
vertex 2.07876 0.8609933333333334 -1.4999666666666667
vertex 2.07876 0.8609933333333334 2.3999466666666667
vertex 1.8707933333333335 1.2500666666666667 2.3999466666666667
endloop
endfacet
facet normal -0.8819187790705516 -0.47140138642425294 0
outer loop
vertex 2.07876 0.8609933333333334 -1.4999666666666667
vertex 1.8707933333333335 1.2500666666666667 2.3999466666666667
vertex 1.8707933333333335 1.2500666666666667 -1.4999666666666667
endloop
endfacet
facet normal -0.7729602720057548 -0.6344544253930219 0
outer loop
vertex 1.8707933333333335 1.2500666666666667 -1.4999666666666667
vertex 1.8707933333333335 1.2500666666666667 2.3999466666666667
vertex 1.5909733333333334 1.5909733333333334 2.3999466666666667
endloop
endfacet
facet normal -0.7729602720057548 -0.6344544253930219 0
outer loop
vertex 1.8707933333333335 1.2500666666666667 -1.4999666666666667
vertex 1.5909733333333334 1.5909733333333334 2.3999466666666667
vertex 1.5909733333333334 1.5909733333333334 -1.4999666666666667
endloop
endfacet
facet normal -0.6344544253930219 -0.7729602720057548 0
outer loop
vertex 1.5909733333333334 1.5909733333333334 -1.4999666666666667
vertex 1.5909733333333334 1.5909733333333334 2.3999466666666667
vertex 1.2500666666666667 1.8707933333333335 2.3999466666666667
endloop
endfacet
facet normal -0.6344544253930219 -0.7729602720057548 0
outer loop
vertex 1.5909733333333334 1.5909733333333334 -1.4999666666666667
vertex 1.2500666666666667 1.8707933333333335 2.3999466666666667
vertex 1.2500666666666667 1.8707933333333335 -1.4999666666666667
endloop
endfacet
facet normal -0.47140138642425294 -0.8819187790705516 0
outer loop
vertex 1.2500666666666667 1.8707933333333335 -1.4999666666666667
vertex 1.2500666666666667 1.8707933333333335 2.3999466666666667
vertex 0.8609933333333334 2.07876 2.3999466666666667
endloop
endfacet
facet normal -0.47140138642425294 -0.8819187790705516 0
outer loop
vertex 1.2500666666666667 1.8707933333333335 -1.4999666666666667
vertex 0.8609933333333334 2.07876 2.3999466666666667
vertex 0.8609933333333334 2.07876 -1.4999666666666667
endloop
endfacet
facet normal -0.29012864181696024 -0.9569876546734791 0
outer loop
vertex 0.8609933333333334 2.07876 -1.4999666666666667
vertex 0.8609933333333334 2.07876 2.3999466666666667
vertex 0.43894000000000005 2.2067133333333335 2.3999466666666667
endloop
endfacet
facet normal -0.29012864181696024 -0.9569876546734791 0
outer loop
vertex 0.8609933333333334 2.07876 -1.4999666666666667
vertex 0.43894000000000005 2.2067133333333335 2.3999466666666667
vertex 0.43894000000000005 2.2067133333333335 -1.4999666666666667
endloop
endfacet
facet normal -0.09815527108160961 -0.9951711123012443 0
outer loop
vertex 0.43894000000000005 2.2067133333333335 -1.4999666666666667
vertex 0.43894000000000005 2.2067133333333335 2.3999466666666667
vertex 0 2.2500066666666667 2.3999466666666667
endloop
endfacet
facet normal -0.09815527108160961 -0.9951711123012443 0
outer loop
vertex 0.43894000000000005 2.2067133333333335 -1.4999666666666667
vertex 0 2.2500066666666667 2.3999466666666667
vertex 0 2.2500066666666667 -1.4999666666666667
endloop
endfacet
facet normal 0.09815527108160961 -0.9951711123012443 0
outer loop
vertex 0 2.2500066666666667 -1.4999666666666667
vertex 0 2.2500066666666667 2.3999466666666667
vertex -0.43894000000000005 2.2067133333333335 2.3999466666666667
endloop
endfacet
facet normal 0.09815527108160961 -0.9951711123012443 0
outer loop
vertex 0 2.2500066666666667 -1.4999666666666667
vertex -0.43894000000000005 2.2067133333333335 2.3999466666666667
vertex -0.43894000000000005 2.2067133333333335 -1.4999666666666667
endloop
endfacet
facet normal 0.29012864181696024 -0.9569876546734791 0
outer loop
vertex -0.43894000000000005 2.2067133333333335 -1.4999666666666667
vertex -0.43894000000000005 2.2067133333333335 2.3999466666666667
vertex -0.8609933333333334 2.07876 2.3999466666666667
endloop
endfacet
facet normal 0.29012864181696024 -0.9569876546734791 0
outer loop
vertex -0.43894000000000005 2.2067133333333335 -1.4999666666666667
vertex -0.8609933333333334 2.07876 2.3999466666666667
vertex -0.8609933333333334 2.07876 -1.4999666666666667
endloop
endfacet
facet normal 0.47140138642425294 -0.8819187790705516 0
outer loop
vertex -0.8609933333333334 2.07876 -1.4999666666666667
vertex -0.8609933333333334 2.07876 2.3999466666666667
vertex -1.2500666666666667 1.8707933333333335 2.3999466666666667
endloop
endfacet
facet normal 0.47140138642425294 -0.8819187790705516 0
outer loop
vertex -0.8609933333333334 2.07876 -1.4999666666666667
vertex -1.2500666666666667 1.8707933333333335 2.3999466666666667
vertex -1.2500666666666667 1.8707933333333335 -1.4999666666666667
endloop
endfacet
facet normal 0.6344544253930219 -0.7729602720057548 0
outer loop
vertex -1.2500666666666667 1.8707933333333335 -1.4999666666666667
vertex -1.2500666666666667 1.8707933333333335 2.3999466666666667
vertex -1.5909733333333334 1.5909733333333334 2.3999466666666667
endloop
endfacet
facet normal 0.6344544253930219 -0.7729602720057548 0
outer loop
vertex -1.2500666666666667 1.8707933333333335 -1.4999666666666667
vertex -1.5909733333333334 1.5909733333333334 2.3999466666666667
vertex -1.5909733333333334 1.5909733333333334 -1.4999666666666667
endloop
endfacet
facet normal 0.7729602720057548 -0.6344544253930219 0
outer loop
vertex -1.5909733333333334 1.5909733333333334 -1.4999666666666667
vertex -1.5909733333333334 1.5909733333333334 2.3999466666666667
vertex -1.8707933333333335 1.2500666666666667 2.3999466666666667
endloop
endfacet
facet normal 0.7729602720057548 -0.6344544253930219 0
outer loop
vertex -1.5909733333333334 1.5909733333333334 -1.4999666666666667
vertex -1.8707933333333335 1.2500666666666667 2.3999466666666667
vertex -1.8707933333333335 1.2500666666666667 -1.4999666666666667
endloop
endfacet
facet normal 0.8819187790705516 -0.47140138642425294 0
outer loop
vertex -1.8707933333333335 1.2500666666666667 -1.4999666666666667
vertex -1.8707933333333335 1.2500666666666667 2.3999466666666667
vertex -2.07876 0.8609933333333334 2.3999466666666667
endloop
endfacet
facet normal 0.8819187790705516 -0.47140138642425294 0
outer loop
vertex -1.8707933333333335 1.2500666666666667 -1.4999666666666667
vertex -2.07876 0.8609933333333334 2.3999466666666667
vertex -2.07876 0.8609933333333334 -1.4999666666666667
endloop
endfacet
facet normal 0.9569876546734791 -0.29012864181696024 0
outer loop
vertex -2.07876 0.8609933333333334 -1.4999666666666667
vertex -2.07876 0.8609933333333334 2.3999466666666667
vertex -2.2067133333333335 0.43894000000000005 2.3999466666666667
endloop
endfacet
facet normal 0.9569876546734791 -0.29012864181696024 0
outer loop
vertex -2.07876 0.8609933333333334 -1.4999666666666667
vertex -2.2067133333333335 0.43894000000000005 2.3999466666666667
vertex -2.2067133333333335 0.43894000000000005 -1.4999666666666667
endloop
endfacet
facet normal 0.9951711123012443 -0.09815527108160961 0
outer loop
vertex -2.2067133333333335 0.43894000000000005 -1.4999666666666667
vertex -2.2067133333333335 0.43894000000000005 2.3999466666666667
vertex -2.2500066666666667 0 2.3999466666666667
endloop
endfacet
facet normal 0.9951711123012443 -0.09815527108160961 0
outer loop
vertex -2.2067133333333335 0.43894000000000005 -1.4999666666666667
vertex -2.2500066666666667 0 2.3999466666666667
vertex -2.2500066666666667 0 -1.4999666666666667
endloop
endfacet
facet normal 0.9951711123012443 0.09815527108160961 0
outer loop
vertex -2.2500066666666667 0 -1.4999666666666667
vertex -2.2500066666666667 0 2.3999466666666667
vertex -2.2067133333333335 -0.43894000000000005 2.3999466666666667
endloop
endfacet
facet normal 0.9951711123012443 0.09815527108160961 0
outer loop
vertex -2.2500066666666667 0 -1.4999666666666667
vertex -2.2067133333333335 -0.43894000000000005 2.3999466666666667
vertex -2.2067133333333335 -0.43894000000000005 -1.4999666666666667
endloop
endfacet
facet normal 0.9569876546734791 0.29012864181696024 0
outer loop
vertex -2.2067133333333335 -0.43894000000000005 -1.4999666666666667
vertex -2.2067133333333335 -0.43894000000000005 2.3999466666666667
vertex -2.07876 -0.8609933333333334 2.3999466666666667
endloop
endfacet
facet normal 0.9569876546734791 0.29012864181696024 0
outer loop
vertex -2.2067133333333335 -0.43894000000000005 -1.4999666666666667
vertex -2.07876 -0.8609933333333334 2.3999466666666667
vertex -2.07876 -0.8609933333333334 -1.4999666666666667
endloop
endfacet
facet normal 0.8819187790705516 0.47140138642425294 0
outer loop
vertex -2.07876 -0.8609933333333334 -1.4999666666666667
vertex -2.07876 -0.8609933333333334 2.3999466666666667
vertex -1.8707933333333335 -1.2500666666666667 2.3999466666666667
endloop
endfacet
facet normal 0.8819187790705516 0.47140138642425294 0
outer loop
vertex -2.07876 -0.8609933333333334 -1.4999666666666667
vertex -1.8707933333333335 -1.2500666666666667 2.3999466666666667
vertex -1.8707933333333335 -1.2500666666666667 -1.4999666666666667
endloop
endfacet
facet normal 0.7729602720057548 0.6344544253930219 0
outer loop
vertex -1.8707933333333335 -1.2500666666666667 -1.4999666666666667
vertex -1.8707933333333335 -1.2500666666666667 2.3999466666666667
vertex -1.5909733333333334 -1.5909733333333334 2.3999466666666667
endloop
endfacet
facet normal 0.7729602720057548 0.6344544253930219 0
outer loop
vertex -1.8707933333333335 -1.2500666666666667 -1.4999666666666667
vertex -1.5909733333333334 -1.5909733333333334 2.3999466666666667
vertex -1.5909733333333334 -1.5909733333333334 -1.4999666666666667
endloop
endfacet
facet normal 0.6344544253930219 0.7729602720057548 0
outer loop
vertex -1.5909733333333334 -1.5909733333333334 -1.4999666666666667
vertex -1.5909733333333334 -1.5909733333333334 2.3999466666666667
vertex -1.2500666666666667 -1.8707933333333335 2.3999466666666667
endloop
endfacet
facet normal 0.6344544253930219 0.7729602720057548 0
outer loop
vertex -1.5909733333333334 -1.5909733333333334 -1.4999666666666667
vertex -1.2500666666666667 -1.8707933333333335 2.3999466666666667
vertex -1.2500666666666667 -1.8707933333333335 -1.4999666666666667
endloop
endfacet
facet normal 0.47140138642425294 0.8819187790705516 0
outer loop
vertex -1.2500666666666667 -1.8707933333333335 -1.4999666666666667
vertex -1.2500666666666667 -1.8707933333333335 2.3999466666666667
vertex -0.8609933333333334 -2.07876 2.3999466666666667
endloop
endfacet
facet normal 0.47140138642425294 0.8819187790705516 0
outer loop
vertex -1.2500666666666667 -1.8707933333333335 -1.4999666666666667
vertex -0.8609933333333334 -2.07876 2.3999466666666667
vertex -0.8609933333333334 -2.07876 -1.4999666666666667
endloop
endfacet
facet normal 0.29012864181696024 0.9569876546734791 0
outer loop
vertex -0.8609933333333334 -2.07876 -1.4999666666666667
vertex -0.8609933333333334 -2.07876 2.3999466666666667
vertex -0.43894000000000005 -2.2067133333333335 2.3999466666666667
endloop
endfacet
facet normal 0.29012864181696024 0.9569876546734791 0
outer loop
vertex -0.8609933333333334 -2.07876 -1.4999666666666667
vertex -0.43894000000000005 -2.2067133333333335 2.3999466666666667
vertex -0.43894000000000005 -2.2067133333333335 -1.4999666666666667
endloop
endfacet
facet normal 0.09815527108160961 0.9951711123012443 0
outer loop
vertex -0.43894000000000005 -2.2067133333333335 -1.4999666666666667
vertex -0.43894000000000005 -2.2067133333333335 2.3999466666666667
vertex 0 -2.2500066666666667 2.3999466666666667
endloop
endfacet
facet normal 0.09815527108160961 0.9951711123012443 0
outer loop
vertex -0.43894000000000005 -2.2067133333333335 -1.4999666666666667
vertex 0 -2.2500066666666667 2.3999466666666667
vertex 0 -2.2500066666666667 -1.4999666666666667
endloop
endfacet
facet normal -0.09815527108160961 0.9951711123012443 0
outer loop
vertex 0 -2.2500066666666667 -1.4999666666666667
vertex 0 -2.2500066666666667 2.3999466666666667
vertex 0.43894000000000005 -2.2067133333333335 2.3999466666666667
endloop
endfacet
facet normal -0.09815527108160961 0.9951711123012443 0
outer loop
vertex 0 -2.2500066666666667 -1.4999666666666667
vertex 0.43894000000000005 -2.2067133333333335 2.3999466666666667
vertex 0.43894000000000005 -2.2067133333333335 -1.4999666666666667
endloop
endfacet
facet normal -0.29012864181696024 0.9569876546734791 0
outer loop
vertex 0.43894000000000005 -2.2067133333333335 -1.4999666666666667
vertex 0.43894000000000005 -2.2067133333333335 2.3999466666666667
vertex 0.8609933333333334 -2.07876 2.3999466666666667
endloop
endfacet
facet normal -0.29012864181696024 0.9569876546734791 0
outer loop
vertex 0.43894000000000005 -2.2067133333333335 -1.4999666666666667
vertex 0.8609933333333334 -2.07876 2.3999466666666667
vertex 0.8609933333333334 -2.07876 -1.4999666666666667
endloop
endfacet
facet normal -0.47140138642425294 0.8819187790705516 0
outer loop
vertex 0.8609933333333334 -2.07876 -1.4999666666666667
vertex 0.8609933333333334 -2.07876 2.3999466666666667
vertex 1.2500666666666667 -1.8707933333333335 2.3999466666666667
endloop
endfacet
facet normal -0.47140138642425294 0.8819187790705516 0
outer loop
vertex 0.8609933333333334 -2.07876 -1.4999666666666667
vertex 1.2500666666666667 -1.8707933333333335 2.3999466666666667
vertex 1.2500666666666667 -1.8707933333333335 -1.4999666666666667
endloop
endfacet
facet normal -0.6344544253930219 0.7729602720057548 0
outer loop
vertex 1.2500666666666667 -1.8707933333333335 -1.4999666666666667
vertex 1.2500666666666667 -1.8707933333333335 2.3999466666666667
vertex 1.5909733333333334 -1.5909733333333334 2.3999466666666667
endloop
endfacet
facet normal -0.6344544253930219 0.7729602720057548 0
outer loop
vertex 1.2500666666666667 -1.8707933333333335 -1.4999666666666667
vertex 1.5909733333333334 -1.5909733333333334 2.3999466666666667
vertex 1.5909733333333334 -1.5909733333333334 -1.4999666666666667
endloop
endfacet
facet normal -0.7729602720057548 0.6344544253930219 0
outer loop
vertex 1.5909733333333334 -1.5909733333333334 -1.4999666666666667
vertex 1.5909733333333334 -1.5909733333333334 2.3999466666666667
vertex 1.8707933333333335 -1.2500666666666667 2.3999466666666667
endloop
endfacet
facet normal -0.7729602720057548 0.6344544253930219 0
outer loop
vertex 1.5909733333333334 -1.5909733333333334 -1.4999666666666667
vertex 1.8707933333333335 -1.2500666666666667 2.3999466666666667
vertex 1.8707933333333335 -1.2500666666666667 -1.4999666666666667
endloop
endfacet
facet normal -0.8819187790705516 0.47140138642425294 0
outer loop
vertex 1.8707933333333335 -1.2500666666666667 -1.4999666666666667
vertex 1.8707933333333335 -1.2500666666666667 2.3999466666666667
vertex 2.07876 -0.8609933333333334 2.3999466666666667
endloop
endfacet
facet normal -0.8819187790705516 0.47140138642425294 0
outer loop
vertex 1.8707933333333335 -1.2500666666666667 -1.4999666666666667
vertex 2.07876 -0.8609933333333334 2.3999466666666667
vertex 2.07876 -0.8609933333333334 -1.4999666666666667
endloop
endfacet
facet normal -0.9569876546734791 0.29012864181696024 0
outer loop
vertex 2.07876 -0.8609933333333334 -1.4999666666666667
vertex 2.07876 -0.8609933333333334 2.3999466666666667
vertex 2.2067133333333335 -0.43894000000000005 2.3999466666666667
endloop
endfacet
facet normal -0.9569876546734791 0.29012864181696024 0
outer loop
vertex 2.07876 -0.8609933333333334 -1.4999666666666667
vertex 2.2067133333333335 -0.43894000000000005 2.3999466666666667
vertex 2.2067133333333335 -0.43894000000000005 -1.4999666666666667
endloop
endfacet
facet normal -0.9951711123012443 0.09815527108160961 0
outer loop
vertex 2.2067133333333335 -0.43894000000000005 -1.4999666666666667
vertex 2.2067133333333335 -0.43894000000000005 2.3999466666666667
vertex 2.2500066666666667 0 2.3999466666666667
endloop
endfacet
facet normal -0.9951711123012443 0.09815527108160961 0
outer loop
vertex 2.2067133333333335 -0.43894000000000005 -1.4999666666666667
vertex 2.2500066666666667 0 2.3999466666666667
vertex 2.2500066666666667 0 -1.4999666666666667
endloop
endfacet
facet normal -0.8111505747473344 -0.08000503990536546 0.5793392259089747
outer loop
vertex 2.627066666666667 0.52258 3.000046666666667
vertex 2.2067133333333335 0.43894000000000005 2.3999466666666667
vertex 2.2500066666666667 0 2.3999466666666667
endloop
endfacet
facet normal -0.8112164667850731 -0.07987253869451816 0.5792652428544591
outer loop
vertex 2.627066666666667 0.52258 3.000046666666667
vertex 2.2500066666666667 0 2.3999466666666667
vertex 2.6785200000000002 0 3.000046666666667
endloop
endfacet
facet normal -0.780024002839936 -0.23647881289105516 0.5793447385168876
outer loop
vertex 2.07876 0.8609933333333334 2.3999466666666667
vertex 2.2067133333333335 0.43894000000000005 2.3999466666666667
vertex 2.627066666666667 0.52258 3.000046666666667
endloop
endfacet
facet normal -0.7800332834608609 -0.2366136144011856 0.579277199769916
outer loop
vertex 2.07876 0.8609933333333334 2.3999466666666667
vertex 2.627066666666667 0.52258 3.000046666666667
vertex 2.4746333333333337 1.0251000000000001 3.000046666666667
endloop
endfacet
facet normal -0.7188664060011039 0.38423989983025253 0.5793019848934522
outer loop
vertex 1.8707933333333335 -1.2500666666666667 2.3999466666666667
vertex 2.2271133333333335 -1.48818 3.000046666666667
vertex 2.4746333333333337 -1.0251000000000001 3.000046666666667
endloop
endfacet
facet normal -0.7188655566024414 0.38424651802082105 0.579298649160808
outer loop
vertex 1.8707933333333335 -1.2500666666666667 2.3999466666666667
vertex 2.4746333333333337 -1.0251000000000001 3.000046666666667
vertex 2.07876 -0.8609933333333334 2.3999466666666667
endloop
endfacet
facet normal -0.7800332834608609 0.2366136144011856 0.579277199769916
outer loop
vertex 2.07876 -0.8609933333333334 2.3999466666666667
vertex 2.4746333333333337 -1.0251000000000001 3.000046666666667
vertex 2.627066666666667 -0.52258 3.000046666666667
endloop
endfacet
facet normal -0.780024002839936 0.23647881289105516 0.5793447385168876
outer loop
vertex 2.07876 -0.8609933333333334 2.3999466666666667
vertex 2.627066666666667 -0.52258 3.000046666666667
vertex 2.2067133333333335 -0.43894000000000005 2.3999466666666667
endloop
endfacet
facet normal -0.811207452727984 0.08001064986885834 0.5792588061878201
outer loop
vertex 2.6785200000000002 0 3.000046666666667
vertex 2.2500066666666667 0 2.3999466666666667
vertex 2.2067133333333335 -0.43894000000000005 2.3999466666666667
endloop
endfacet
facet normal -0.8111686906438457 0.07986783464591325 0.5793327923638727
outer loop
vertex 2.6785200000000002 0 3.000046666666667
vertex 2.2067133333333335 -0.43894000000000005 2.3999466666666667
vertex 2.627066666666667 -0.52258 3.000046666666667
endloop
endfacet
facet normal -0.7188655566024414 -0.38424651802082105 0.579298649160808
outer loop
vertex 1.8707933333333335 1.2500666666666667 2.3999466666666667
vertex 2.07876 0.8609933333333334 2.3999466666666667
vertex 2.4746333333333337 1.0251000000000001 3.000046666666667
endloop
endfacet
facet normal -0.7188664060011039 -0.38423989983025253 0.5793019848934522
outer loop
vertex 1.8707933333333335 1.2500666666666667 2.3999466666666667
vertex 2.4746333333333337 1.0251000000000001 3.000046666666667
vertex 2.2271133333333335 1.48818 3.000046666666667
endloop
endfacet
facet normal -0.6300493109076841 -0.5171515121778832 0.5793031842454184
outer loop
vertex 1.5909733333333334 1.5909733333333334 2.3999466666666667
vertex 1.8707933333333335 1.2500666666666667 2.3999466666666667
vertex 2.2271133333333335 1.48818 3.000046666666667
endloop
endfacet
facet normal -0.6300643575710027 -0.5171067151357657 0.5793268080109344
outer loop
vertex 1.5909733333333334 1.5909733333333334 2.3999466666666667
vertex 2.2271133333333335 1.48818 3.000046666666667
vertex 1.8940266666666667 1.8940266666666667 3.000046666666667
endloop
endfacet
facet normal -0.5171515121778832 -0.6300493109076841 0.5793031842454183
outer loop
vertex 1.48818 2.2271133333333335 3.000046666666667
vertex 1.2500666666666667 1.8707933333333335 2.3999466666666667
vertex 1.5909733333333334 1.5909733333333334 2.3999466666666667
endloop
endfacet
facet normal -0.5171067151357657 -0.6300643575710025 0.5793268080109345
outer loop
vertex 1.48818 2.2271133333333335 3.000046666666667
vertex 1.5909733333333334 1.5909733333333334 2.3999466666666667
vertex 1.8940266666666667 1.8940266666666667 3.000046666666667
endloop
endfacet
facet normal -0.38424651802082105 -0.7188655566024414 0.579298649160808
outer loop
vertex 1.0251000000000001 2.4746333333333337 3.000046666666667
vertex 0.8609933333333334 2.07876 2.3999466666666667
vertex 1.2500666666666667 1.8707933333333335 2.3999466666666667
endloop
endfacet
facet normal -0.3842398998302526 -0.7188664060011037 0.5793019848934522
outer loop
vertex 1.0251000000000001 2.4746333333333337 3.000046666666667
vertex 1.2500666666666667 1.8707933333333335 2.3999466666666667
vertex 1.48818 2.2271133333333335 3.000046666666667
endloop
endfacet
facet normal -0.23647881289105524 -0.780024002839936 0.5793447385168877
outer loop
vertex 0.52258 2.627066666666667 3.000046666666667
vertex 0.43894000000000005 2.2067133333333335 2.3999466666666667
vertex 0.8609933333333334 2.07876 2.3999466666666667
endloop
endfacet
facet normal -0.23661361440118558 -0.7800332834608609 0.579277199769916
outer loop
vertex 0.52258 2.627066666666667 3.000046666666667
vertex 0.8609933333333334 2.07876 2.3999466666666667
vertex 1.0251000000000001 2.4746333333333337 3.000046666666667
endloop
endfacet
facet normal -0.08001064986885834 -0.811207452727984 0.5792588061878201
outer loop
vertex 0 2.6785200000000002 3.000046666666667
vertex 0 2.2500066666666667 2.3999466666666667
vertex 0.43894000000000005 2.2067133333333335 2.3999466666666667
endloop
endfacet
facet normal -0.07986783464591325 -0.8111686906438457 0.5793327923638727
outer loop
vertex 0 2.6785200000000002 3.000046666666667
vertex 0.43894000000000005 2.2067133333333335 2.3999466666666667
vertex 0.52258 2.627066666666667 3.000046666666667
endloop
endfacet
facet normal 0.07986783464591325 -0.8111686906438457 0.5793327923638727
outer loop
vertex 0 2.6785200000000002 3.000046666666667
vertex -0.52258 2.627066666666667 3.000046666666667
vertex -0.43894000000000005 2.2067133333333335 2.3999466666666667
endloop
endfacet
facet normal 0.08001064986885834 -0.811207452727984 0.5792588061878201
outer loop
vertex 0 2.6785200000000002 3.000046666666667
vertex -0.43894000000000005 2.2067133333333335 2.3999466666666667
vertex 0 2.2500066666666667 2.3999466666666667
endloop
endfacet
facet normal 0.23661361440118558 -0.7800332834608609 0.579277199769916
outer loop
vertex -0.52258 2.627066666666667 3.000046666666667
vertex -1.0251000000000001 2.4746333333333337 3.000046666666667
vertex -0.8609933333333334 2.07876 2.3999466666666667
endloop
endfacet
facet normal 0.23647881289105524 -0.780024002839936 0.5793447385168877
outer loop
vertex -0.52258 2.627066666666667 3.000046666666667
vertex -0.8609933333333334 2.07876 2.3999466666666667
vertex -0.43894000000000005 2.2067133333333335 2.3999466666666667
endloop
endfacet
facet normal 0.3842398998302526 -0.7188664060011037 0.5793019848934522
outer loop
vertex -1.0251000000000001 2.4746333333333337 3.000046666666667
vertex -1.48818 2.2271133333333335 3.000046666666667
vertex -1.2500666666666667 1.8707933333333335 2.3999466666666667
endloop
endfacet
facet normal 0.38424651802082105 -0.7188655566024414 0.579298649160808
outer loop
vertex -1.0251000000000001 2.4746333333333337 3.000046666666667
vertex -1.2500666666666667 1.8707933333333335 2.3999466666666667
vertex -0.8609933333333334 2.07876 2.3999466666666667
endloop
endfacet
facet normal 0.5171067151357657 -0.6300643575710025 0.5793268080109345
outer loop
vertex -1.48818 2.2271133333333335 3.000046666666667
vertex -1.8940266666666667 1.8940266666666667 3.000046666666667
vertex -1.5909733333333334 1.5909733333333334 2.3999466666666667
endloop
endfacet
facet normal 0.5171515121778832 -0.6300493109076841 0.5793031842454183
outer loop
vertex -1.48818 2.2271133333333335 3.000046666666667
vertex -1.5909733333333334 1.5909733333333334 2.3999466666666667
vertex -1.2500666666666667 1.8707933333333335 2.3999466666666667
endloop
endfacet
facet normal 0.6300493109076841 -0.5171515121778832 0.5793031842454183
outer loop
vertex -2.2271133333333335 1.48818 3.000046666666667
vertex -1.8707933333333335 1.2500666666666667 2.3999466666666667
vertex -1.5909733333333334 1.5909733333333334 2.3999466666666667
endloop
endfacet
facet normal 0.6300643575710025 -0.5171067151357657 0.5793268080109345
outer loop
vertex -2.2271133333333335 1.48818 3.000046666666667
vertex -1.5909733333333334 1.5909733333333334 2.3999466666666667
vertex -1.8940266666666667 1.8940266666666667 3.000046666666667
endloop
endfacet
facet normal 0.7188655566024414 -0.38424651802082105 0.579298649160808
outer loop
vertex -2.4746333333333337 1.0251000000000001 3.000046666666667
vertex -2.07876 0.8609933333333334 2.3999466666666667
vertex -1.8707933333333335 1.2500666666666667 2.3999466666666667
endloop
endfacet
facet normal 0.7188664060011037 -0.3842398998302526 0.5793019848934522
outer loop
vertex -2.4746333333333337 1.0251000000000001 3.000046666666667
vertex -1.8707933333333335 1.2500666666666667 2.3999466666666667
vertex -2.2271133333333335 1.48818 3.000046666666667
endloop
endfacet
facet normal 0.780024002839936 -0.23647881289105524 0.5793447385168877
outer loop
vertex -2.627066666666667 0.52258 3.000046666666667
vertex -2.2067133333333335 0.43894000000000005 2.3999466666666667
vertex -2.07876 0.8609933333333334 2.3999466666666667
endloop
endfacet
facet normal 0.7800332834608609 -0.23661361440118558 0.579277199769916
outer loop
vertex -2.627066666666667 0.52258 3.000046666666667
vertex -2.07876 0.8609933333333334 2.3999466666666667
vertex -2.4746333333333337 1.0251000000000001 3.000046666666667
endloop
endfacet
facet normal 0.811207452727984 -0.08001064986885834 0.5792588061878201
outer loop
vertex -2.6785200000000002 0 3.000046666666667
vertex -2.2500066666666667 0 2.3999466666666667
vertex -2.2067133333333335 0.43894000000000005 2.3999466666666667
endloop
endfacet
facet normal 0.8111686906438457 -0.07986783464591325 0.5793327923638727
outer loop
vertex -2.6785200000000002 0 3.000046666666667
vertex -2.2067133333333335 0.43894000000000005 2.3999466666666667
vertex -2.627066666666667 0.52258 3.000046666666667
endloop
endfacet
facet normal 0.8111686906438457 0.07986783464591325 0.5793327923638727
outer loop
vertex -2.6785200000000002 0 3.000046666666667
vertex -2.627066666666667 -0.52258 3.000046666666667
vertex -2.2067133333333335 -0.43894000000000005 2.3999466666666667
endloop
endfacet
facet normal 0.811207452727984 0.08001064986885834 0.5792588061878201
outer loop
vertex -2.6785200000000002 0 3.000046666666667
vertex -2.2067133333333335 -0.43894000000000005 2.3999466666666667
vertex -2.2500066666666667 0 2.3999466666666667
endloop
endfacet
facet normal 0.7800332834608609 0.23661361440118558 0.579277199769916
outer loop
vertex -2.627066666666667 -0.52258 3.000046666666667
vertex -2.4746333333333337 -1.0251000000000001 3.000046666666667
vertex -2.07876 -0.8609933333333334 2.3999466666666667
endloop
endfacet
facet normal 0.780024002839936 0.23647881289105524 0.5793447385168877
outer loop
vertex -2.627066666666667 -0.52258 3.000046666666667
vertex -2.07876 -0.8609933333333334 2.3999466666666667
vertex -2.2067133333333335 -0.43894000000000005 2.3999466666666667
endloop
endfacet
facet normal 0.7188664060011037 0.3842398998302526 0.5793019848934522
outer loop
vertex -2.4746333333333337 -1.0251000000000001 3.000046666666667
vertex -2.2271133333333335 -1.48818 3.000046666666667
vertex -1.8707933333333335 -1.2500666666666667 2.3999466666666667
endloop
endfacet
facet normal 0.7188655566024414 0.38424651802082105 0.579298649160808
outer loop
vertex -2.4746333333333337 -1.0251000000000001 3.000046666666667
vertex -1.8707933333333335 -1.2500666666666667 2.3999466666666667
vertex -2.07876 -0.8609933333333334 2.3999466666666667
endloop
endfacet
facet normal 0.6300643575710025 0.5171067151357657 0.5793268080109345
outer loop
vertex -2.2271133333333335 -1.48818 3.000046666666667
vertex -1.8940266666666667 -1.8940266666666667 3.000046666666667
vertex -1.5909733333333334 -1.5909733333333334 2.3999466666666667
endloop
endfacet
facet normal 0.6300493109076841 0.5171515121778832 0.5793031842454183
outer loop
vertex -2.2271133333333335 -1.48818 3.000046666666667
vertex -1.5909733333333334 -1.5909733333333334 2.3999466666666667
vertex -1.8707933333333335 -1.2500666666666667 2.3999466666666667
endloop
endfacet
facet normal 0.5171067151357657 0.6300643575710027 0.5793268080109344
outer loop
vertex -1.5909733333333334 -1.5909733333333334 2.3999466666666667
vertex -1.8940266666666667 -1.8940266666666667 3.000046666666667
vertex -1.48818 -2.2271133333333335 3.000046666666667
endloop
endfacet
facet normal 0.5171515121778832 0.6300493109076841 0.5793031842454184
outer loop
vertex -1.5909733333333334 -1.5909733333333334 2.3999466666666667
vertex -1.48818 -2.2271133333333335 3.000046666666667
vertex -1.2500666666666667 -1.8707933333333335 2.3999466666666667
endloop
endfacet
facet normal 0.38423989983025253 0.7188664060011039 0.5793019848934522
outer loop
vertex -1.2500666666666667 -1.8707933333333335 2.3999466666666667
vertex -1.48818 -2.2271133333333335 3.000046666666667
vertex -1.0251000000000001 -2.4746333333333337 3.000046666666667
endloop
endfacet
facet normal 0.38424651802082105 0.7188655566024414 0.579298649160808
outer loop
vertex -1.2500666666666667 -1.8707933333333335 2.3999466666666667
vertex -1.0251000000000001 -2.4746333333333337 3.000046666666667
vertex -0.8609933333333334 -2.07876 2.3999466666666667
endloop
endfacet
facet normal 0.2366136144011856 0.7800332834608609 0.579277199769916
outer loop
vertex -0.8609933333333334 -2.07876 2.3999466666666667
vertex -1.0251000000000001 -2.4746333333333337 3.000046666666667
vertex -0.52258 -2.627066666666667 3.000046666666667
endloop
endfacet
facet normal 0.23647881289105516 0.780024002839936 0.5793447385168876
outer loop
vertex -0.8609933333333334 -2.07876 2.3999466666666667
vertex -0.52258 -2.627066666666667 3.000046666666667
vertex -0.43894000000000005 -2.2067133333333335 2.3999466666666667
endloop
endfacet
facet normal 0.08000503990536552 0.8111505747473343 0.5793392259089748
outer loop
vertex 0 -2.2500066666666667 2.3999466666666667
vertex -0.43894000000000005 -2.2067133333333335 2.3999466666666667
vertex -0.52258 -2.627066666666667 3.000046666666667
endloop
endfacet
facet normal 0.07987253869451823 0.8112164667850731 0.5792652428544591
outer loop
vertex 0 -2.2500066666666667 2.3999466666666667
vertex -0.52258 -2.627066666666667 3.000046666666667
vertex 0 -2.6785200000000002 3.000046666666667
endloop
endfacet
facet normal -0.08001064986885845 0.811207452727984 0.5792588061878201
outer loop
vertex 0.43894000000000005 -2.2067133333333335 2.3999466666666667
vertex 0 -2.2500066666666667 2.3999466666666667
vertex 0 -2.6785200000000002 3.000046666666667
endloop
endfacet
facet normal -0.07986783464591327 0.8111686906438457 0.5793327923638728
outer loop
vertex 0.43894000000000005 -2.2067133333333335 2.3999466666666667
vertex 0 -2.6785200000000002 3.000046666666667
vertex 0.52258 -2.627066666666667 3.000046666666667
endloop
endfacet
facet normal -0.23647881289105516 0.780024002839936 0.5793447385168876
outer loop
vertex 0.8609933333333334 -2.07876 2.3999466666666667
vertex 0.43894000000000005 -2.2067133333333335 2.3999466666666667
vertex 0.52258 -2.627066666666667 3.000046666666667
endloop
endfacet
facet normal -0.2366136144011856 0.7800332834608609 0.579277199769916
outer loop
vertex 0.8609933333333334 -2.07876 2.3999466666666667
vertex 0.52258 -2.627066666666667 3.000046666666667
vertex 1.0251000000000001 -2.4746333333333337 3.000046666666667
endloop
endfacet
facet normal -0.38424651802082105 0.7188655566024414 0.579298649160808
outer loop
vertex 1.2500666666666667 -1.8707933333333335 2.3999466666666667
vertex 0.8609933333333334 -2.07876 2.3999466666666667
vertex 1.0251000000000001 -2.4746333333333337 3.000046666666667
endloop
endfacet
facet normal -0.38423989983025253 0.7188664060011039 0.5793019848934522
outer loop
vertex 1.2500666666666667 -1.8707933333333335 2.3999466666666667
vertex 1.0251000000000001 -2.4746333333333337 3.000046666666667
vertex 1.48818 -2.2271133333333335 3.000046666666667
endloop
endfacet
facet normal -0.5171515121778832 0.6300493109076841 0.5793031842454184
outer loop
vertex 1.5909733333333334 -1.5909733333333334 2.3999466666666667
vertex 1.2500666666666667 -1.8707933333333335 2.3999466666666667
vertex 1.48818 -2.2271133333333335 3.000046666666667
endloop
endfacet
facet normal -0.5171067151357657 0.6300643575710027 0.5793268080109344
outer loop
vertex 1.5909733333333334 -1.5909733333333334 2.3999466666666667
vertex 1.48818 -2.2271133333333335 3.000046666666667
vertex 1.8940266666666667 -1.8940266666666667 3.000046666666667
endloop
endfacet
facet normal -0.6300643575710027 0.5171067151357657 0.5793268080109344
outer loop
vertex 1.5909733333333334 -1.5909733333333334 2.3999466666666667
vertex 1.8940266666666667 -1.8940266666666667 3.000046666666667
vertex 2.2271133333333335 -1.48818 3.000046666666667
endloop
endfacet
facet normal -0.6300493109076841 0.5171515121778832 0.5793031842454184
outer loop
vertex 1.5909733333333334 -1.5909733333333334 2.3999466666666667
vertex 2.2271133333333335 -1.48818 3.000046666666667
vertex 1.8707933333333335 -1.2500666666666667 2.3999466666666667
endloop
endfacet
facet normal 0 0 1
outer loop
vertex 0 4.773486666666667 3.000046666666667
vertex -1.3656666666666668 6.8655066666666675 3.000046666666667
vertex -2.678746666666667 6.4671400000000006 3.000046666666667
endloop
endfacet
facet normal 0 0 1
outer loop
vertex 0 4.773486666666667 3.000046666666667
vertex -2.678746666666667 6.4671400000000006 3.000046666666667
vertex -3.889033333333334 5.820233333333333 3.000046666666667
endloop
endfacet
facet normal 0 0 1
outer loop
vertex 0 4.773486666666667 3.000046666666667
vertex -3.889033333333334 5.820233333333333 3.000046666666667
vertex -4.94972 4.94972 3.000046666666667
endloop
endfacet
facet normal 0 0 0.9999999999999999
outer loop
vertex 0 4.773486666666667 3.000046666666667
vertex -4.94972 4.94972 3.000046666666667
vertex -5.820233333333333 3.889033333333334 3.000046666666667
endloop
endfacet
facet normal 0 0 1
outer loop
vertex 0 4.773486666666667 3.000046666666667
vertex -5.820233333333333 3.889033333333334 3.000046666666667
vertex -6.4671400000000006 2.678746666666667 3.000046666666667
endloop
endfacet
facet normal 0 0 1
outer loop
vertex 0 4.773486666666667 3.000046666666667
vertex -6.4671400000000006 2.678746666666667 3.000046666666667
vertex -6.467253333333334 2.6785200000000002 3.000046666666667
endloop
endfacet
facet normal 0 0 1
outer loop
vertex 0 4.773486666666667 3.000046666666667
vertex -6.467253333333334 2.6785200000000002 3.000046666666667
vertex 0 2.6785200000000002 3.000046666666667
endloop
endfacet
facet normal 0 0 1
outer loop
vertex 0 4.773486666666667 3.000046666666667
vertex 0 2.6785200000000002 3.000046666666667
vertex 6.467253333333334 2.6785200000000002 3.000046666666667
endloop
endfacet
facet normal 0 0 1
outer loop
vertex 0 4.773486666666667 3.000046666666667
vertex 6.467253333333334 2.6785200000000002 3.000046666666667
vertex 6.4671400000000006 2.678746666666667 3.000046666666667
endloop
endfacet
facet normal 0 0 1
outer loop
vertex 0 4.773486666666667 3.000046666666667
vertex 6.4671400000000006 2.678746666666667 3.000046666666667
vertex 5.820233333333333 3.889033333333334 3.000046666666667
endloop
endfacet
facet normal 0 0 0.9999999999999999
outer loop
vertex 0 4.773486666666667 3.000046666666667
vertex 5.820233333333333 3.889033333333334 3.000046666666667
vertex 4.94972 4.94972 3.000046666666667
endloop
endfacet
facet normal 0 0 1
outer loop
vertex 0 4.773486666666667 3.000046666666667
vertex 4.94972 4.94972 3.000046666666667
vertex 3.889033333333334 5.820233333333333 3.000046666666667
endloop
endfacet
facet normal 0 0 1
outer loop
vertex 0 4.773486666666667 3.000046666666667
vertex 3.889033333333334 5.820233333333333 3.000046666666667
vertex 2.678746666666667 6.4671400000000006 3.000046666666667
endloop
endfacet
facet normal 0 0 1
outer loop
vertex 0 4.773486666666667 3.000046666666667
vertex 2.678746666666667 6.4671400000000006 3.000046666666667
vertex 1.3656666666666668 6.8655066666666675 3.000046666666667
endloop
endfacet
facet normal 0 0 1
outer loop
vertex 0 4.773486666666667 3.000046666666667
vertex 1.3656666666666668 6.8655066666666675 3.000046666666667
vertex 0 7.0000333333333336 3.000046666666667
endloop
endfacet
facet normal 0 0 1
outer loop
vertex 0 4.773486666666667 3.000046666666667
vertex 0 7.0000333333333336 3.000046666666667
vertex -1.3656666666666668 6.8655066666666675 3.000046666666667
endloop
endfacet
facet normal 0 0 1
outer loop
vertex 0 2.6785200000000002 3.000046666666667
vertex 0.52258 2.627066666666667 3.000046666666667
vertex 6.482780000000001 2.627066666666667 3.000046666666667
endloop
endfacet
facet normal 0 0 1
outer loop
vertex 0 2.6785200000000002 3.000046666666667
vertex 6.482780000000001 2.627066666666667 3.000046666666667
vertex 6.467253333333334 2.6785200000000002 3.000046666666667
endloop
endfacet
facet normal 0 0 1
outer loop
vertex -6.467253333333334 2.6785200000000002 3.000046666666667
vertex -6.482780000000001 2.627066666666667 3.000046666666667
vertex -0.52258 2.627066666666667 3.000046666666667
endloop
endfacet
facet normal 0 0 1
outer loop
vertex -6.467253333333334 2.6785200000000002 3.000046666666667
vertex -0.52258 2.627066666666667 3.000046666666667
vertex 0 2.6785200000000002 3.000046666666667
endloop
endfacet
facet normal 0 0 1
outer loop
vertex 0.52258 2.627066666666667 3.000046666666667
vertex 1.0251000000000001 2.4746333333333337 3.000046666666667
vertex 6.52902 2.4746333333333337 3.000046666666667
endloop
endfacet
facet normal 0 0 0.9999999999999999
outer loop
vertex 0.52258 2.627066666666667 3.000046666666667
vertex 6.52902 2.4746333333333337 3.000046666666667
vertex 6.482780000000001 2.627066666666667 3.000046666666667
endloop
endfacet
facet normal 0 0 0.9999999999999999
outer loop
vertex -6.482780000000001 2.627066666666667 3.000046666666667
vertex -6.52902 2.4746333333333337 3.000046666666667
vertex -1.0251000000000001 2.4746333333333337 3.000046666666667
endloop
endfacet
facet normal 0 0 0.9999999999999999
outer loop
vertex -6.482780000000001 2.627066666666667 3.000046666666667
vertex -1.0251000000000001 2.4746333333333337 3.000046666666667
vertex -0.52258 2.627066666666667 3.000046666666667
endloop
endfacet
facet normal 0 0 1
outer loop
vertex 1.0251000000000001 2.4746333333333337 3.000046666666667
vertex 1.48818 2.2271133333333335 3.000046666666667
vertex 6.60416 2.2271133333333335 3.000046666666667
endloop
endfacet
facet normal 0 0 0.9999999999999999
outer loop
vertex 1.0251000000000001 2.4746333333333337 3.000046666666667
vertex 6.60416 2.2271133333333335 3.000046666666667
vertex 6.52902 2.4746333333333337 3.000046666666667
endloop
endfacet
facet normal 0 0 1
outer loop
vertex -6.52902 2.4746333333333337 3.000046666666667
vertex -6.60416 2.2271133333333335 3.000046666666667
vertex -1.48818 2.2271133333333335 3.000046666666667
endloop
endfacet
facet normal 0 0 0.9999999999999999
outer loop
vertex -6.52902 2.4746333333333337 3.000046666666667
vertex -1.48818 2.2271133333333335 3.000046666666667
vertex -1.0251000000000001 2.4746333333333337 3.000046666666667
endloop
endfacet
facet normal 0 0 1
outer loop
vertex 1.48818 2.2271133333333335 3.000046666666667
vertex 1.8940266666666667 1.8940266666666667 3.000046666666667
vertex 6.705253333333334 1.8940266666666667 3.000046666666667
endloop
endfacet
facet normal 0 0 1
outer loop
vertex 1.48818 2.2271133333333335 3.000046666666667
vertex 6.705253333333334 1.8940266666666667 3.000046666666667
vertex 6.60416 2.2271133333333335 3.000046666666667
endloop
endfacet
facet normal 0 0 1
outer loop
vertex -6.60416 2.2271133333333335 3.000046666666667
vertex -6.705253333333334 1.8940266666666667 3.000046666666667
vertex -1.8940266666666667 1.8940266666666667 3.000046666666667
endloop
endfacet
facet normal 0 0 1
outer loop
vertex -6.60416 2.2271133333333335 3.000046666666667
vertex -1.8940266666666667 1.8940266666666667 3.000046666666667
vertex -1.48818 2.2271133333333335 3.000046666666667
endloop
endfacet
facet normal 0 0 1
outer loop
vertex 1.8940266666666667 1.8940266666666667 3.000046666666667
vertex 2.2271133333333335 1.48818 3.000046666666667
vertex 6.828333333333334 1.48818 3.000046666666667
endloop
endfacet
facet normal 0 0 0.9999999999999999
outer loop
vertex 1.8940266666666667 1.8940266666666667 3.000046666666667
vertex 6.828333333333334 1.48818 3.000046666666667
vertex 6.705253333333334 1.8940266666666667 3.000046666666667
endloop
endfacet
facet normal 0 0 0.9999999999999999
outer loop
vertex -6.705253333333334 1.8940266666666667 3.000046666666667
vertex -6.828333333333334 1.48818 3.000046666666667
vertex -2.2271133333333335 1.48818 3.000046666666667
endloop
endfacet
facet normal 0 0 0.9999999999999999
outer loop
vertex -6.705253333333334 1.8940266666666667 3.000046666666667
vertex -2.2271133333333335 1.48818 3.000046666666667
vertex -1.8940266666666667 1.8940266666666667 3.000046666666667
endloop
endfacet
facet normal 0 0 1
outer loop
vertex 5.058973333333333 1.2784 3.000046666666667
vertex 2.2271133333333335 1.48818 3.000046666666667
vertex 2.4746333333333337 1.0251000000000001 3.000046666666667
endloop
endfacet
facet normal 0 0 1
outer loop
vertex 5.058973333333333 1.2784 3.000046666666667
vertex 2.4746333333333337 1.0251000000000001 3.000046666666667
vertex 6.899053333333334 1.0251000000000001 3.000046666666667
endloop
endfacet
facet normal 0 0 1
outer loop
vertex 5.058973333333333 1.2784 3.000046666666667
vertex 6.899053333333334 1.0251000000000001 3.000046666666667
vertex 6.8655066666666675 1.3656666666666668 3.000046666666667
endloop
endfacet
facet normal 0 0 1
outer loop
vertex 5.058973333333333 1.2784 3.000046666666667
vertex 6.8655066666666675 1.3656666666666668 3.000046666666667
vertex 6.828333333333334 1.48818 3.000046666666667
endloop
endfacet
facet normal 0 0 1
outer loop
vertex 5.058973333333333 1.2784 3.000046666666667
vertex 6.828333333333334 1.48818 3.000046666666667
vertex 2.2271133333333335 1.48818 3.000046666666667
endloop
endfacet
facet normal 0 0 1
outer loop
vertex -5.058973333333333 1.2784 3.000046666666667
vertex -6.828333333333334 1.48818 3.000046666666667
vertex -6.8655066666666675 1.3656666666666668 3.000046666666667
endloop
endfacet
facet normal 0 0 1
outer loop
vertex -5.058973333333333 1.2784 3.000046666666667
vertex -6.8655066666666675 1.3656666666666668 3.000046666666667
vertex -6.899053333333334 1.0251000000000001 3.000046666666667
endloop
endfacet
facet normal 0 0 1
outer loop
vertex -5.058973333333333 1.2784 3.000046666666667
vertex -6.899053333333334 1.0251000000000001 3.000046666666667
vertex -2.4746333333333337 1.0251000000000001 3.000046666666667
endloop
endfacet
facet normal 0 0 1
outer loop
vertex -5.058973333333333 1.2784 3.000046666666667
vertex -2.4746333333333337 1.0251000000000001 3.000046666666667
vertex -2.2271133333333335 1.48818 3.000046666666667
endloop
endfacet
facet normal 0 0 1
outer loop
vertex -5.058973333333333 1.2784 3.000046666666667
vertex -2.2271133333333335 1.48818 3.000046666666667
vertex -6.828333333333334 1.48818 3.000046666666667
endloop
endfacet
facet normal 0 0 1
outer loop
vertex 2.4746333333333337 1.0251000000000001 3.000046666666667
vertex 2.627066666666667 0.52258 3.000046666666667
vertex 6.948580000000001 0.52258 3.000046666666667
endloop
endfacet
facet normal 0 0 1
outer loop
vertex 2.4746333333333337 1.0251000000000001 3.000046666666667
vertex 6.948580000000001 0.52258 3.000046666666667
vertex 6.899053333333334 1.0251000000000001 3.000046666666667
endloop
endfacet
facet normal 0 0 1
outer loop
vertex -6.899053333333334 1.0251000000000001 3.000046666666667
vertex -6.948580000000001 0.52258 3.000046666666667
vertex -2.627066666666667 0.52258 3.000046666666667
endloop
endfacet
facet normal 0 0 1
outer loop
vertex -6.899053333333334 1.0251000000000001 3.000046666666667
vertex -2.627066666666667 0.52258 3.000046666666667
vertex -2.4746333333333337 1.0251000000000001 3.000046666666667
endloop
endfacet
facet normal 0 0 1
outer loop
vertex 2.627066666666667 0.52258 3.000046666666667
vertex 2.6785200000000002 0 3.000046666666667
vertex 7.0000333333333336 0 3.000046666666667
endloop
endfacet
facet normal 0 0 0.9999999999999999
outer loop
vertex 2.627066666666667 0.52258 3.000046666666667
vertex 7.0000333333333336 0 3.000046666666667
vertex 6.948580000000001 0.52258 3.000046666666667
endloop
endfacet
facet normal 0 0 1
outer loop
vertex -6.948580000000001 0.52258 3.000046666666667
vertex -7.0000333333333336 0 3.000046666666667
vertex -2.6785200000000002 0 3.000046666666667
endloop
endfacet
facet normal 0 0 0.9999999999999999
outer loop
vertex -6.948580000000001 0.52258 3.000046666666667
vertex -2.6785200000000002 0 3.000046666666667
vertex -2.627066666666667 0.52258 3.000046666666667
endloop
endfacet
facet normal 0 0 0.9999999999999999
outer loop
vertex 2.6785200000000002 0 3.000046666666667
vertex 2.627066666666667 -0.52258 3.000046666666667
vertex 6.948580000000001 -0.52258 3.000046666666667
endloop
endfacet
facet normal 0 0 0.9999999999999999
outer loop
vertex 2.6785200000000002 0 3.000046666666667
vertex 6.948580000000001 -0.52258 3.000046666666667
vertex 7.0000333333333336 0 3.000046666666667
endloop
endfacet
facet normal 0 0 0.9999999999999999
outer loop
vertex -7.0000333333333336 0 3.000046666666667
vertex -6.948580000000001 -0.52258 3.000046666666667
vertex -2.627066666666667 -0.52258 3.000046666666667
endloop
endfacet
facet normal 0 0 0.9999999999999999
outer loop
vertex -7.0000333333333336 0 3.000046666666667
vertex -2.627066666666667 -0.52258 3.000046666666667
vertex -2.6785200000000002 0 3.000046666666667
endloop
endfacet
facet normal 0 0 1
outer loop
vertex 2.627066666666667 -0.52258 3.000046666666667
vertex 2.4746333333333337 -1.0251000000000001 3.000046666666667
vertex 6.899053333333334 -1.0251000000000001 3.000046666666667
endloop
endfacet
facet normal 0 0 1
outer loop
vertex 2.627066666666667 -0.52258 3.000046666666667
vertex 6.899053333333334 -1.0251000000000001 3.000046666666667
vertex 6.948580000000001 -0.52258 3.000046666666667
endloop
endfacet
facet normal 0 0 1
outer loop
vertex -6.948580000000001 -0.52258 3.000046666666667
vertex -6.899053333333334 -1.0251000000000001 3.000046666666667
vertex -2.4746333333333337 -1.0251000000000001 3.000046666666667
endloop
endfacet
facet normal 0 0 1
outer loop
vertex -6.948580000000001 -0.52258 3.000046666666667
vertex -2.4746333333333337 -1.0251000000000001 3.000046666666667
vertex -2.627066666666667 -0.52258 3.000046666666667
endloop
endfacet
facet normal 0 0 1
outer loop
vertex 5.058973333333333 -1.2784 3.000046666666667
vertex 2.4746333333333337 -1.0251000000000001 3.000046666666667
vertex 2.2271133333333335 -1.48818 3.000046666666667
endloop
endfacet
facet normal 0 0 1
outer loop
vertex 5.058973333333333 -1.2784 3.000046666666667
vertex 2.2271133333333335 -1.48818 3.000046666666667
vertex 6.828333333333334 -1.48818 3.000046666666667
endloop
endfacet
facet normal 0 0 1
outer loop
vertex 5.058973333333333 -1.2784 3.000046666666667
vertex 6.828333333333334 -1.48818 3.000046666666667
vertex 6.8655066666666675 -1.3656666666666668 3.000046666666667
endloop
endfacet
facet normal 0 0 1
outer loop
vertex 5.058973333333333 -1.2784 3.000046666666667
vertex 6.8655066666666675 -1.3656666666666668 3.000046666666667
vertex 6.899053333333334 -1.0251000000000001 3.000046666666667
endloop
endfacet
facet normal 0 0 1
outer loop
vertex 5.058973333333333 -1.2784 3.000046666666667
vertex 6.899053333333334 -1.0251000000000001 3.000046666666667
vertex 2.4746333333333337 -1.0251000000000001 3.000046666666667
endloop
endfacet
facet normal 0 0 1
outer loop
vertex -5.058973333333333 -1.2784 3.000046666666667
vertex -6.899053333333334 -1.0251000000000001 3.000046666666667
vertex -6.8655066666666675 -1.3656666666666668 3.000046666666667
endloop
endfacet
facet normal 0 0 1
outer loop
vertex -5.058973333333333 -1.2784 3.000046666666667
vertex -6.8655066666666675 -1.3656666666666668 3.000046666666667
vertex -6.828333333333334 -1.48818 3.000046666666667
endloop
endfacet
facet normal 0 0 1
outer loop
vertex -5.058973333333333 -1.2784 3.000046666666667
vertex -6.828333333333334 -1.48818 3.000046666666667
vertex -2.2271133333333335 -1.48818 3.000046666666667
endloop
endfacet
facet normal 0 0 1
outer loop
vertex -5.058973333333333 -1.2784 3.000046666666667
vertex -2.2271133333333335 -1.48818 3.000046666666667
vertex -2.4746333333333337 -1.0251000000000001 3.000046666666667
endloop
endfacet
facet normal 0 0 1
outer loop
vertex -5.058973333333333 -1.2784 3.000046666666667
vertex -2.4746333333333337 -1.0251000000000001 3.000046666666667
vertex -6.899053333333334 -1.0251000000000001 3.000046666666667
endloop
endfacet
facet normal 0 0 0.9999999999999999
outer loop
vertex 2.2271133333333335 -1.48818 3.000046666666667
vertex 1.8940266666666667 -1.8940266666666667 3.000046666666667
vertex 6.705253333333334 -1.8940266666666667 3.000046666666667
endloop
endfacet
facet normal 0 0 0.9999999999999999
outer loop
vertex 2.2271133333333335 -1.48818 3.000046666666667
vertex 6.705253333333334 -1.8940266666666667 3.000046666666667
vertex 6.828333333333334 -1.48818 3.000046666666667
endloop
endfacet
facet normal 0 0 1
outer loop
vertex -6.828333333333334 -1.48818 3.000046666666667
vertex -6.705253333333334 -1.8940266666666667 3.000046666666667
vertex -1.8940266666666667 -1.8940266666666667 3.000046666666667
endloop
endfacet
facet normal 0 0 0.9999999999999999
outer loop
vertex -6.828333333333334 -1.48818 3.000046666666667
vertex -1.8940266666666667 -1.8940266666666667 3.000046666666667
vertex -2.2271133333333335 -1.48818 3.000046666666667
endloop
endfacet
facet normal 0 0 0.9999999999999999
outer loop
vertex 1.8940266666666667 -1.8940266666666667 3.000046666666667
vertex 1.48818 -2.2271133333333335 3.000046666666667
vertex 6.60416 -2.2271133333333335 3.000046666666667
endloop
endfacet
facet normal 0 0 1
outer loop
vertex 1.8940266666666667 -1.8940266666666667 3.000046666666667
vertex 6.60416 -2.2271133333333335 3.000046666666667
vertex 6.705253333333334 -1.8940266666666667 3.000046666666667
endloop
endfacet
facet normal 0 0 1
outer loop
vertex -6.705253333333334 -1.8940266666666667 3.000046666666667
vertex -6.60416 -2.2271133333333335 3.000046666666667
vertex -1.48818 -2.2271133333333335 3.000046666666667
endloop
endfacet
facet normal 0 0 1
outer loop
vertex -6.705253333333334 -1.8940266666666667 3.000046666666667
vertex -1.48818 -2.2271133333333335 3.000046666666667
vertex -1.8940266666666667 -1.8940266666666667 3.000046666666667
endloop
endfacet
facet normal 0 0 0.9999999999999999
outer loop
vertex 1.48818 -2.2271133333333335 3.000046666666667
vertex 1.0251000000000001 -2.4746333333333337 3.000046666666667
vertex 6.52902 -2.4746333333333337 3.000046666666667
endloop
endfacet
facet normal 0 0 1
outer loop
vertex 1.48818 -2.2271133333333335 3.000046666666667
vertex 6.52902 -2.4746333333333337 3.000046666666667
vertex 6.60416 -2.2271133333333335 3.000046666666667
endloop
endfacet
facet normal 0 0 1
outer loop
vertex -6.60416 -2.2271133333333335 3.000046666666667
vertex -6.52902 -2.4746333333333337 3.000046666666667
vertex -1.0251000000000001 -2.4746333333333337 3.000046666666667
endloop
endfacet
facet normal 0 0 1
outer loop
vertex -6.60416 -2.2271133333333335 3.000046666666667
vertex -1.0251000000000001 -2.4746333333333337 3.000046666666667
vertex -1.48818 -2.2271133333333335 3.000046666666667
endloop
endfacet
facet normal 0 0 0.9999999999999999
outer loop
vertex 1.0251000000000001 -2.4746333333333337 3.000046666666667
vertex 0.52258 -2.627066666666667 3.000046666666667
vertex 6.482780000000001 -2.627066666666667 3.000046666666667
endloop
endfacet
facet normal 0 0 0.9999999999999999
outer loop
vertex 1.0251000000000001 -2.4746333333333337 3.000046666666667
vertex 6.482780000000001 -2.627066666666667 3.000046666666667
vertex 6.52902 -2.4746333333333337 3.000046666666667
endloop
endfacet
facet normal 0 0 1
outer loop
vertex -6.52902 -2.4746333333333337 3.000046666666667
vertex -6.482780000000001 -2.627066666666667 3.000046666666667
vertex -0.52258 -2.627066666666667 3.000046666666667
endloop
endfacet
facet normal 0 0 0.9999999999999999
outer loop
vertex -6.52902 -2.4746333333333337 3.000046666666667
vertex -0.52258 -2.627066666666667 3.000046666666667
vertex -1.0251000000000001 -2.4746333333333337 3.000046666666667
endloop
endfacet
facet normal 0 0 1
outer loop
vertex 0.52258 -2.627066666666667 3.000046666666667
vertex 0 -2.6785200000000002 3.000046666666667
vertex 6.467253333333334 -2.6785200000000002 3.000046666666667
endloop
endfacet
facet normal 0 0 1
outer loop
vertex 0.52258 -2.627066666666667 3.000046666666667
vertex 6.467253333333334 -2.6785200000000002 3.000046666666667
vertex 6.482780000000001 -2.627066666666667 3.000046666666667
endloop
endfacet
facet normal 0 0 1
outer loop
vertex -6.482780000000001 -2.627066666666667 3.000046666666667
vertex -6.467253333333334 -2.6785200000000002 3.000046666666667
vertex 0 -2.6785200000000002 3.000046666666667
endloop
endfacet
facet normal 0 0 1
outer loop
vertex -6.482780000000001 -2.627066666666667 3.000046666666667
vertex 0 -2.6785200000000002 3.000046666666667
vertex -0.52258 -2.627066666666667 3.000046666666667
endloop
endfacet
facet normal 0 0 1
outer loop
vertex 0 -4.773486666666667 3.000046666666667
vertex 0 -2.6785200000000002 3.000046666666667
vertex -6.467253333333334 -2.6785200000000002 3.000046666666667
endloop
endfacet
facet normal 0 0 1
outer loop
vertex 0 -4.773486666666667 3.000046666666667
vertex -6.467253333333334 -2.6785200000000002 3.000046666666667
vertex -6.4671400000000006 -2.678746666666667 3.000046666666667
endloop
endfacet
facet normal 0 0 1
outer loop
vertex 0 -4.773486666666667 3.000046666666667
vertex -6.4671400000000006 -2.678746666666667 3.000046666666667
vertex -5.820233333333333 -3.889033333333334 3.000046666666667
endloop
endfacet
facet normal 0 0 0.9999999999999999
outer loop
vertex 0 -4.773486666666667 3.000046666666667
vertex -5.820233333333333 -3.889033333333334 3.000046666666667
vertex -4.94972 -4.94972 3.000046666666667
endloop
endfacet
facet normal 0 0 1
outer loop
vertex 0 -4.773486666666667 3.000046666666667
vertex -4.94972 -4.94972 3.000046666666667
vertex -3.889033333333334 -5.820233333333333 3.000046666666667
endloop
endfacet
facet normal 0 0 1
outer loop
vertex 0 -4.773486666666667 3.000046666666667
vertex -3.889033333333334 -5.820233333333333 3.000046666666667
vertex -2.678746666666667 -6.4671400000000006 3.000046666666667
endloop
endfacet
facet normal 0 0 1
outer loop
vertex 0 -4.773486666666667 3.000046666666667
vertex -2.678746666666667 -6.4671400000000006 3.000046666666667
vertex -1.3656666666666668 -6.8655066666666675 3.000046666666667
endloop
endfacet
facet normal 0 0 1
outer loop
vertex 0 -4.773486666666667 3.000046666666667
vertex -1.3656666666666668 -6.8655066666666675 3.000046666666667
vertex 0 -7.0000333333333336 3.000046666666667
endloop
endfacet
facet normal 0 0 1
outer loop
vertex 0 -4.773486666666667 3.000046666666667
vertex 0 -7.0000333333333336 3.000046666666667
vertex 1.3656666666666668 -6.8655066666666675 3.000046666666667
endloop
endfacet
facet normal 0 0 1
outer loop
vertex 0 -4.773486666666667 3.000046666666667
vertex 1.3656666666666668 -6.8655066666666675 3.000046666666667
vertex 2.678746666666667 -6.4671400000000006 3.000046666666667
endloop
endfacet
facet normal 0 0 1
outer loop
vertex 0 -4.773486666666667 3.000046666666667
vertex 2.678746666666667 -6.4671400000000006 3.000046666666667
vertex 3.889033333333334 -5.820233333333333 3.000046666666667
endloop
endfacet
facet normal 0 0 1
outer loop
vertex 0 -4.773486666666667 3.000046666666667
vertex 3.889033333333334 -5.820233333333333 3.000046666666667
vertex 4.94972 -4.94972 3.000046666666667
endloop
endfacet
facet normal 0 0 0.9999999999999999
outer loop
vertex 0 -4.773486666666667 3.000046666666667
vertex 4.94972 -4.94972 3.000046666666667
vertex 5.820233333333333 -3.889033333333334 3.000046666666667
endloop
endfacet
facet normal 0 0 1
outer loop
vertex 0 -4.773486666666667 3.000046666666667
vertex 5.820233333333333 -3.889033333333334 3.000046666666667
vertex 6.4671400000000006 -2.678746666666667 3.000046666666667
endloop
endfacet
facet normal 0 0 1
outer loop
vertex 0 -4.773486666666667 3.000046666666667
vertex 6.4671400000000006 -2.678746666666667 3.000046666666667
vertex 6.467253333333334 -2.6785200000000002 3.000046666666667
endloop
endfacet
facet normal 0 0 1
outer loop
vertex 0 -4.773486666666667 3.000046666666667
vertex 6.467253333333334 -2.6785200000000002 3.000046666666667
vertex 0 -2.6785200000000002 3.000046666666667
endloop
endfacet
endsolid JSCAD
