solid JSCAD
facet normal 0.9951892171213306 0.0979715373230064 0
outer loop
vertex 4.903946666666667 0.9754333333333335 -2.9999666666666673
vertex 4.903946666666667 0.9754333333333335 2.9999666666666673
vertex 4.999973333333334 0 2.9999666666666673
endloop
endfacet
facet normal 0.9951892171213306 0.0979715373230064 0
outer loop
vertex 4.903946666666667 0.9754333333333335 -2.9999666666666673
vertex 4.999973333333334 0 2.9999666666666673
vertex 4.999973333333334 0 -2.9999666666666673
endloop
endfacet
facet normal 0.9569399890311291 0.29028582014234927 0.000004169691282694933
outer loop
vertex 4.7541866666666674 1.4690866666666669 0
vertex 4.8244733333333345 1.237426666666667 -2.9999666666666673
vertex 4.668993333333334 1.7499733333333336 -2.9999666666666673
endloop
endfacet
facet normal 0.9569560987031911 0.29023270862047795 -0.0000012606207213977666
outer loop
vertex 4.7541866666666674 1.4690866666666669 0
vertex 4.668993333333334 1.7499733333333336 -2.9999666666666673
vertex 4.619420000000001 1.913426666666667 -2.9999666666666673
endloop
endfacet
facet normal 0.9569537348067411 0.2902405027549214 0
outer loop
vertex 4.7541866666666674 1.4690866666666669 0
vertex 4.619420000000001 1.913426666666667 -2.9999666666666673
vertex 4.619420000000001 1.913426666666667 2.9999666666666673
endloop
endfacet
facet normal 0.9569560987031911 0.29023270862047795 0.0000012606207213977666
outer loop
vertex 4.7541866666666674 1.4690866666666669 0
vertex 4.619420000000001 1.913426666666667 2.9999666666666673
vertex 4.668993333333334 1.7499733333333336 2.9999666666666673
endloop
endfacet
facet normal 0.9569399890311291 0.29028582014234927 -0.000004169691282694933
outer loop
vertex 4.7541866666666674 1.4690866666666669 0
vertex 4.668993333333334 1.7499733333333336 2.9999666666666673
vertex 4.8244733333333345 1.237426666666667 2.9999666666666673
endloop
endfacet
facet normal 0.9569418327437378 0.29027974218524616 -0.000004682232962940838
outer loop
vertex 4.7541866666666674 1.4690866666666669 0
vertex 4.8244733333333345 1.237426666666667 2.9999666666666673
vertex 4.903946666666667 0.9754333333333335 2.9999666666666673
endloop
endfacet
facet normal 0.9569339284154373 0.2903057985080533 0
outer loop
vertex 4.7541866666666674 1.4690866666666669 0
vertex 4.903946666666667 0.9754333333333335 2.9999666666666673
vertex 4.903946666666667 0.9754333333333335 -2.9999666666666673
endloop
endfacet
facet normal 0.9569418327437378 0.29027974218524616 0.000004682232962940838
outer loop
vertex 4.7541866666666674 1.4690866666666669 0
vertex 4.903946666666667 0.9754333333333335 -2.9999666666666673
vertex 4.8244733333333345 1.237426666666667 -2.9999666666666673
endloop
endfacet
facet normal 0.8818923727620869 0.4714507851982606 0
outer loop
vertex 4.157313333333334 2.7778400000000003 -2.9999666666666673
vertex 4.157313333333334 2.7778400000000003 2.9999666666666673
vertex 4.619420000000001 1.913426666666667 2.9999666666666673
endloop
endfacet
facet normal 0.8818923727620869 0.4714507851982606 0
outer loop
vertex 4.157313333333334 2.7778400000000003 -2.9999666666666673
vertex 4.619420000000001 1.913426666666667 2.9999666666666673
vertex 4.619420000000001 1.913426666666667 -2.9999666666666673
endloop
endfacet
facet normal 0.773062252632352 0.6343301613158511 0
outer loop
vertex 3.5355666666666674 3.5355666666666674 -2.9999666666666673
vertex 3.5355666666666674 3.5355666666666674 2.9999666666666673
vertex 4.157313333333334 2.7778400000000003 2.9999666666666673
endloop
endfacet
facet normal 0.773062252632352 0.6343301613158511 0
outer loop
vertex 3.5355666666666674 3.5355666666666674 -2.9999666666666673
vertex 4.157313333333334 2.7778400000000003 2.9999666666666673
vertex 4.157313333333334 2.7778400000000003 -2.9999666666666673
endloop
endfacet
facet normal 0.6343301613158511 0.773062252632352 0
outer loop
vertex 2.7778400000000003 4.157313333333334 -2.9999666666666673
vertex 2.7778400000000003 4.157313333333334 2.9999666666666673
vertex 3.5355666666666674 3.5355666666666674 2.9999666666666673
endloop
endfacet
facet normal 0.6343301613158511 0.773062252632352 0
outer loop
vertex 2.7778400000000003 4.157313333333334 -2.9999666666666673
vertex 3.5355666666666674 3.5355666666666674 2.9999666666666673
vertex 3.5355666666666674 3.5355666666666674 -2.9999666666666673
endloop
endfacet
facet normal 0.4714507851982606 0.8818923727620869 0
outer loop
vertex 1.913426666666667 4.619420000000001 -2.9999666666666673
vertex 1.913426666666667 4.619420000000001 2.9999666666666673
vertex 2.7778400000000003 4.157313333333334 2.9999666666666673
endloop
endfacet
facet normal 0.4714507851982606 0.8818923727620869 0
outer loop
vertex 1.913426666666667 4.619420000000001 -2.9999666666666673
vertex 2.7778400000000003 4.157313333333334 2.9999666666666673
vertex 2.7778400000000003 4.157313333333334 -2.9999666666666673
endloop
endfacet
facet normal 0.2902748675410032 0.9569433114213468 0
outer loop
vertex 0.9754333333333335 4.903946666666667 -2.9999666666666673
vertex 0.9754333333333335 4.903946666666667 2.9999666666666673
vertex 1.913426666666667 4.619420000000001 2.9999666666666673
endloop
endfacet
facet normal 0.2902748675410032 0.9569433114213468 0
outer loop
vertex 0.9754333333333335 4.903946666666667 -2.9999666666666673
vertex 1.913426666666667 4.619420000000001 2.9999666666666673
vertex 1.913426666666667 4.619420000000001 -2.9999666666666673
endloop
endfacet
facet normal 0.0979715373230064 0.9951892171213306 0
outer loop
vertex 0 4.999973333333334 -2.9999666666666673
vertex 0 4.999973333333334 2.9999666666666673
vertex 0.9754333333333335 4.903946666666667 2.9999666666666673
endloop
endfacet
facet normal 0.0979715373230064 0.9951892171213306 0
outer loop
vertex 0 4.999973333333334 -2.9999666666666673
vertex 0.9754333333333335 4.903946666666667 2.9999666666666673
vertex 0.9754333333333335 4.903946666666667 -2.9999666666666673
endloop
endfacet
facet normal -0.0979715373230064 0.9951892171213306 0
outer loop
vertex -0.9754333333333335 4.903946666666667 -2.9999666666666673
vertex -0.9754333333333335 4.903946666666667 2.9999666666666673
vertex 0 4.999973333333334 2.9999666666666673
endloop
endfacet
facet normal -0.0979715373230064 0.9951892171213306 0
outer loop
vertex -0.9754333333333335 4.903946666666667 -2.9999666666666673
vertex 0 4.999973333333334 2.9999666666666673
vertex 0 4.999973333333334 -2.9999666666666673
endloop
endfacet
facet normal -0.2902748675410032 0.9569433114213468 0
outer loop
vertex -1.913426666666667 4.619420000000001 -2.9999666666666673
vertex -1.913426666666667 4.619420000000001 2.9999666666666673
vertex -0.9754333333333335 4.903946666666667 2.9999666666666673
endloop
endfacet
facet normal -0.2902748675410032 0.9569433114213468 0
outer loop
vertex -1.913426666666667 4.619420000000001 -2.9999666666666673
vertex -0.9754333333333335 4.903946666666667 2.9999666666666673
vertex -0.9754333333333335 4.903946666666667 -2.9999666666666673
endloop
endfacet
facet normal -0.4714507851982606 0.8818923727620869 0
outer loop
vertex -2.7778400000000003 4.157313333333334 -2.9999666666666673
vertex -2.7778400000000003 4.157313333333334 2.9999666666666673
vertex -1.913426666666667 4.619420000000001 2.9999666666666673
endloop
endfacet
facet normal -0.4714507851982606 0.8818923727620869 0
outer loop
vertex -2.7778400000000003 4.157313333333334 -2.9999666666666673
vertex -1.913426666666667 4.619420000000001 2.9999666666666673
vertex -1.913426666666667 4.619420000000001 -2.9999666666666673
endloop
endfacet
facet normal -0.6343301613158511 0.773062252632352 0
outer loop
vertex -3.5355666666666674 3.5355666666666674 -2.9999666666666673
vertex -3.5355666666666674 3.5355666666666674 2.9999666666666673
vertex -2.7778400000000003 4.157313333333334 2.9999666666666673
endloop
endfacet
facet normal -0.6343301613158511 0.773062252632352 0
outer loop
vertex -3.5355666666666674 3.5355666666666674 -2.9999666666666673
vertex -2.7778400000000003 4.157313333333334 2.9999666666666673
vertex -2.7778400000000003 4.157313333333334 -2.9999666666666673
endloop
endfacet
facet normal -0.773062252632352 0.6343301613158511 0
outer loop
vertex -4.157313333333334 2.7778400000000003 -2.9999666666666673
vertex -4.157313333333334 2.7778400000000003 2.9999666666666673
vertex -3.5355666666666674 3.5355666666666674 2.9999666666666673
endloop
endfacet
facet normal -0.773062252632352 0.6343301613158511 0
outer loop
vertex -4.157313333333334 2.7778400000000003 -2.9999666666666673
vertex -3.5355666666666674 3.5355666666666674 2.9999666666666673
vertex -3.5355666666666674 3.5355666666666674 -2.9999666666666673
endloop
endfacet
facet normal -0.8818923727620869 0.4714507851982606 0
outer loop
vertex -4.619420000000001 1.913426666666667 -2.9999666666666673
vertex -4.619420000000001 1.913426666666667 2.9999666666666673
vertex -4.157313333333334 2.7778400000000003 2.9999666666666673
endloop
endfacet
facet normal -0.8818923727620869 0.4714507851982606 0
outer loop
vertex -4.619420000000001 1.913426666666667 -2.9999666666666673
vertex -4.157313333333334 2.7778400000000003 2.9999666666666673
vertex -4.157313333333334 2.7778400000000003 -2.9999666666666673
endloop
endfacet
facet normal -0.9569399890311291 0.29028582014234927 0.000004169691282694933
outer loop
vertex -4.7541866666666674 1.4690866666666669 0
vertex -4.668993333333334 1.7499733333333336 -2.9999666666666673
vertex -4.8244733333333345 1.237426666666667 -2.9999666666666673
endloop
endfacet
facet normal -0.9569418327437378 0.29027974218524616 0.000004682232962940838
outer loop
vertex -4.7541866666666674 1.4690866666666669 0
vertex -4.8244733333333345 1.237426666666667 -2.9999666666666673
vertex -4.903946666666667 0.9754333333333335 -2.9999666666666673
endloop
endfacet
facet normal -0.9569339284154373 0.2903057985080533 0
outer loop
vertex -4.7541866666666674 1.4690866666666669 0
vertex -4.903946666666667 0.9754333333333335 -2.9999666666666673
vertex -4.903946666666667 0.9754333333333335 2.9999666666666673
endloop
endfacet
facet normal -0.9569418327437378 0.29027974218524616 -0.000004682232962940838
outer loop
vertex -4.7541866666666674 1.4690866666666669 0
vertex -4.903946666666667 0.9754333333333335 2.9999666666666673
vertex -4.8244733333333345 1.237426666666667 2.9999666666666673
endloop
endfacet
facet normal -0.9569399890311291 0.29028582014234927 -0.000004169691282694933
outer loop
vertex -4.7541866666666674 1.4690866666666669 0
vertex -4.8244733333333345 1.237426666666667 2.9999666666666673
vertex -4.668993333333334 1.7499733333333336 2.9999666666666673
endloop
endfacet
facet normal -0.9569560987031911 0.29023270862047795 0.0000012606207213977666
outer loop
vertex -4.7541866666666674 1.4690866666666669 0
vertex -4.668993333333334 1.7499733333333336 2.9999666666666673
vertex -4.619420000000001 1.913426666666667 2.9999666666666673
endloop
endfacet
facet normal -0.9569537348067411 0.2902405027549214 0
outer loop
vertex -4.7541866666666674 1.4690866666666669 0
vertex -4.619420000000001 1.913426666666667 2.9999666666666673
vertex -4.619420000000001 1.913426666666667 -2.9999666666666673
endloop
endfacet
facet normal -0.9569560987031911 0.29023270862047795 -0.0000012606207213977666
outer loop
vertex -4.7541866666666674 1.4690866666666669 0
vertex -4.619420000000001 1.913426666666667 -2.9999666666666673
vertex -4.668993333333334 1.7499733333333336 -2.9999666666666673
endloop
endfacet
facet normal -0.9951892171213306 0.0979715373230064 0
outer loop
vertex -4.999973333333334 0 -2.9999666666666673
vertex -4.999973333333334 0 2.9999666666666673
vertex -4.903946666666667 0.9754333333333335 2.9999666666666673
endloop
endfacet
facet normal -0.9951892171213306 0.0979715373230064 0
outer loop
vertex -4.999973333333334 0 -2.9999666666666673
vertex -4.903946666666667 0.9754333333333335 2.9999666666666673
vertex -4.903946666666667 0.9754333333333335 -2.9999666666666673
endloop
endfacet
facet normal -0.9951892171213306 -0.0979715373230064 0
outer loop
vertex -4.903946666666667 -0.9754333333333335 -2.9999666666666673
vertex -4.903946666666667 -0.9754333333333335 2.9999666666666673
vertex -4.999973333333334 0 2.9999666666666673
endloop
endfacet
facet normal -0.9951892171213306 -0.0979715373230064 0
outer loop
vertex -4.903946666666667 -0.9754333333333335 -2.9999666666666673
vertex -4.999973333333334 0 2.9999666666666673
vertex -4.999973333333334 0 -2.9999666666666673
endloop
endfacet
facet normal -0.9569399890311291 -0.29028582014234927 0.000004169691282694933
outer loop
vertex -4.7541866666666674 -1.4690866666666669 0
vertex -4.8244733333333345 -1.237426666666667 -2.9999666666666673
vertex -4.668993333333334 -1.7499733333333336 -2.9999666666666673
endloop
endfacet
facet normal -0.9569560987031911 -0.29023270862047795 -0.0000012606207213977666
outer loop
vertex -4.7541866666666674 -1.4690866666666669 0
vertex -4.668993333333334 -1.7499733333333336 -2.9999666666666673
vertex -4.619420000000001 -1.913426666666667 -2.9999666666666673
endloop
endfacet
facet normal -0.9569537348067411 -0.2902405027549214 0
outer loop
vertex -4.7541866666666674 -1.4690866666666669 0
vertex -4.619420000000001 -1.913426666666667 -2.9999666666666673
vertex -4.619420000000001 -1.913426666666667 2.9999666666666673
endloop
endfacet
facet normal -0.9569560987031911 -0.29023270862047795 0.0000012606207213977666
outer loop
vertex -4.7541866666666674 -1.4690866666666669 0
vertex -4.619420000000001 -1.913426666666667 2.9999666666666673
vertex -4.668993333333334 -1.7499733333333336 2.9999666666666673
endloop
endfacet
facet normal -0.9569399890311291 -0.29028582014234927 -0.000004169691282694933
outer loop
vertex -4.7541866666666674 -1.4690866666666669 0
vertex -4.668993333333334 -1.7499733333333336 2.9999666666666673
vertex -4.8244733333333345 -1.237426666666667 2.9999666666666673
endloop
endfacet
facet normal -0.9569418327437378 -0.29027974218524616 -0.000004682232962940838
outer loop
vertex -4.7541866666666674 -1.4690866666666669 0
vertex -4.8244733333333345 -1.237426666666667 2.9999666666666673
vertex -4.903946666666667 -0.9754333333333335 2.9999666666666673
endloop
endfacet
facet normal -0.9569339284154373 -0.2903057985080533 0
outer loop
vertex -4.7541866666666674 -1.4690866666666669 0
vertex -4.903946666666667 -0.9754333333333335 2.9999666666666673
vertex -4.903946666666667 -0.9754333333333335 -2.9999666666666673
endloop
endfacet
facet normal -0.9569418327437378 -0.29027974218524616 0.000004682232962940838
outer loop
vertex -4.7541866666666674 -1.4690866666666669 0
vertex -4.903946666666667 -0.9754333333333335 -2.9999666666666673
vertex -4.8244733333333345 -1.237426666666667 -2.9999666666666673
endloop
endfacet
facet normal -0.8818923727620869 -0.4714507851982606 0
outer loop
vertex -4.157313333333334 -2.7778400000000003 -2.9999666666666673
vertex -4.157313333333334 -2.7778400000000003 2.9999666666666673
vertex -4.619420000000001 -1.913426666666667 2.9999666666666673
endloop
endfacet
facet normal -0.8818923727620869 -0.4714507851982606 0
outer loop
vertex -4.157313333333334 -2.7778400000000003 -2.9999666666666673
vertex -4.619420000000001 -1.913426666666667 2.9999666666666673
vertex -4.619420000000001 -1.913426666666667 -2.9999666666666673
endloop
endfacet
facet normal -0.773062252632352 -0.6343301613158511 0
outer loop
vertex -3.5355666666666674 -3.5355666666666674 -2.9999666666666673
vertex -3.5355666666666674 -3.5355666666666674 2.9999666666666673
vertex -4.157313333333334 -2.7778400000000003 2.9999666666666673
endloop
endfacet
facet normal -0.773062252632352 -0.6343301613158511 0
outer loop
vertex -3.5355666666666674 -3.5355666666666674 -2.9999666666666673
vertex -4.157313333333334 -2.7778400000000003 2.9999666666666673
vertex -4.157313333333334 -2.7778400000000003 -2.9999666666666673
endloop
endfacet
facet normal -0.6343301613158511 -0.773062252632352 0
outer loop
vertex -2.7778400000000003 -4.157313333333334 -2.9999666666666673
vertex -2.7778400000000003 -4.157313333333334 2.9999666666666673
vertex -3.5355666666666674 -3.5355666666666674 2.9999666666666673
endloop
endfacet
facet normal -0.6343301613158511 -0.773062252632352 0
outer loop
vertex -2.7778400000000003 -4.157313333333334 -2.9999666666666673
vertex -3.5355666666666674 -3.5355666666666674 2.9999666666666673
vertex -3.5355666666666674 -3.5355666666666674 -2.9999666666666673
endloop
endfacet
facet normal -0.4714507851982606 -0.8818923727620869 0
outer loop
vertex -1.913426666666667 -4.619420000000001 -2.9999666666666673
vertex -1.913426666666667 -4.619420000000001 2.9999666666666673
vertex -2.7778400000000003 -4.157313333333334 2.9999666666666673
endloop
endfacet
facet normal -0.4714507851982606 -0.8818923727620869 0
outer loop
vertex -1.913426666666667 -4.619420000000001 -2.9999666666666673
vertex -2.7778400000000003 -4.157313333333334 2.9999666666666673
vertex -2.7778400000000003 -4.157313333333334 -2.9999666666666673
endloop
endfacet
facet normal -0.2902748675410032 -0.9569433114213468 0
outer loop
vertex -0.9754333333333335 -4.903946666666667 -2.9999666666666673
vertex -0.9754333333333335 -4.903946666666667 2.9999666666666673
vertex -1.913426666666667 -4.619420000000001 2.9999666666666673
endloop
endfacet
facet normal -0.2902748675410032 -0.9569433114213468 0
outer loop
vertex -0.9754333333333335 -4.903946666666667 -2.9999666666666673
vertex -1.913426666666667 -4.619420000000001 2.9999666666666673
vertex -1.913426666666667 -4.619420000000001 -2.9999666666666673
endloop
endfacet
facet normal -0.0979715373230064 -0.9951892171213306 0
outer loop
vertex 0 -4.999973333333334 -2.9999666666666673
vertex 0 -4.999973333333334 2.9999666666666673
vertex -0.9754333333333335 -4.903946666666667 2.9999666666666673
endloop
endfacet
facet normal -0.0979715373230064 -0.9951892171213306 0
outer loop
vertex 0 -4.999973333333334 -2.9999666666666673
vertex -0.9754333333333335 -4.903946666666667 2.9999666666666673
vertex -0.9754333333333335 -4.903946666666667 -2.9999666666666673
endloop
endfacet
facet normal 0.0979715373230064 -0.9951892171213306 0
outer loop
vertex 0.9754333333333335 -4.903946666666667 -2.9999666666666673
vertex 0.9754333333333335 -4.903946666666667 2.9999666666666673
vertex 0 -4.999973333333334 2.9999666666666673
endloop
endfacet
facet normal 0.0979715373230064 -0.9951892171213306 0
outer loop
vertex 0.9754333333333335 -4.903946666666667 -2.9999666666666673
vertex 0 -4.999973333333334 2.9999666666666673
vertex 0 -4.999973333333334 -2.9999666666666673
endloop
endfacet
facet normal 0.2902748675410032 -0.9569433114213468 0
outer loop
vertex 1.913426666666667 -4.619420000000001 -2.9999666666666673
vertex 1.913426666666667 -4.619420000000001 2.9999666666666673
vertex 0.9754333333333335 -4.903946666666667 2.9999666666666673
endloop
endfacet
facet normal 0.2902748675410032 -0.9569433114213468 0
outer loop
vertex 1.913426666666667 -4.619420000000001 -2.9999666666666673
vertex 0.9754333333333335 -4.903946666666667 2.9999666666666673
vertex 0.9754333333333335 -4.903946666666667 -2.9999666666666673
endloop
endfacet
facet normal 0.4714507851982606 -0.8818923727620869 0
outer loop
vertex 2.7778400000000003 -4.157313333333334 -2.9999666666666673
vertex 2.7778400000000003 -4.157313333333334 2.9999666666666673
vertex 1.913426666666667 -4.619420000000001 2.9999666666666673
endloop
endfacet
facet normal 0.4714507851982606 -0.8818923727620869 0
outer loop
vertex 2.7778400000000003 -4.157313333333334 -2.9999666666666673
vertex 1.913426666666667 -4.619420000000001 2.9999666666666673
vertex 1.913426666666667 -4.619420000000001 -2.9999666666666673
endloop
endfacet
facet normal 0.6343301613158511 -0.773062252632352 0
outer loop
vertex 3.5355666666666674 -3.5355666666666674 -2.9999666666666673
vertex 3.5355666666666674 -3.5355666666666674 2.9999666666666673
vertex 2.7778400000000003 -4.157313333333334 2.9999666666666673
endloop
endfacet
facet normal 0.6343301613158511 -0.773062252632352 0
outer loop
vertex 3.5355666666666674 -3.5355666666666674 -2.9999666666666673
vertex 2.7778400000000003 -4.157313333333334 2.9999666666666673
vertex 2.7778400000000003 -4.157313333333334 -2.9999666666666673
endloop
endfacet
facet normal 0.773062252632352 -0.6343301613158511 0
outer loop
vertex 4.157313333333334 -2.7778400000000003 -2.9999666666666673
vertex 4.157313333333334 -2.7778400000000003 2.9999666666666673
vertex 3.5355666666666674 -3.5355666666666674 2.9999666666666673
endloop
endfacet
facet normal 0.773062252632352 -0.6343301613158511 0
outer loop
vertex 4.157313333333334 -2.7778400000000003 -2.9999666666666673
vertex 3.5355666666666674 -3.5355666666666674 2.9999666666666673
vertex 3.5355666666666674 -3.5355666666666674 -2.9999666666666673
endloop
endfacet
facet normal 0.8818923727620869 -0.4714507851982606 0
outer loop
vertex 4.619420000000001 -1.913426666666667 -2.9999666666666673
vertex 4.619420000000001 -1.913426666666667 2.9999666666666673
vertex 4.157313333333334 -2.7778400000000003 2.9999666666666673
endloop
endfacet
facet normal 0.8818923727620869 -0.4714507851982606 0
outer loop
vertex 4.619420000000001 -1.913426666666667 -2.9999666666666673
vertex 4.157313333333334 -2.7778400000000003 2.9999666666666673
vertex 4.157313333333334 -2.7778400000000003 -2.9999666666666673
endloop
endfacet
facet normal 0.9569399890311291 -0.29028582014234927 0.000004169691282694933
outer loop
vertex 4.7541866666666674 -1.4690866666666669 0
vertex 4.668993333333334 -1.7499733333333336 -2.9999666666666673
vertex 4.8244733333333345 -1.237426666666667 -2.9999666666666673
endloop
endfacet
facet normal 0.9569418327437378 -0.29027974218524616 0.000004682232962940838
outer loop
vertex 4.7541866666666674 -1.4690866666666669 0
vertex 4.8244733333333345 -1.237426666666667 -2.9999666666666673
vertex 4.903946666666667 -0.9754333333333335 -2.9999666666666673
endloop
endfacet
facet normal 0.9569339284154373 -0.2903057985080533 0
outer loop
vertex 4.7541866666666674 -1.4690866666666669 0
vertex 4.903946666666667 -0.9754333333333335 -2.9999666666666673
vertex 4.903946666666667 -0.9754333333333335 2.9999666666666673
endloop
endfacet
facet normal 0.9569418327437378 -0.29027974218524616 -0.000004682232962940838
outer loop
vertex 4.7541866666666674 -1.4690866666666669 0
vertex 4.903946666666667 -0.9754333333333335 2.9999666666666673
vertex 4.8244733333333345 -1.237426666666667 2.9999666666666673
endloop
endfacet
facet normal 0.9569399890311291 -0.29028582014234927 -0.000004169691282694933
outer loop
vertex 4.7541866666666674 -1.4690866666666669 0
vertex 4.8244733333333345 -1.237426666666667 2.9999666666666673
vertex 4.668993333333334 -1.7499733333333336 2.9999666666666673
endloop
endfacet
facet normal 0.9569560987031911 -0.29023270862047795 0.0000012606207213977666
outer loop
vertex 4.7541866666666674 -1.4690866666666669 0
vertex 4.668993333333334 -1.7499733333333336 2.9999666666666673
vertex 4.619420000000001 -1.913426666666667 2.9999666666666673
endloop
endfacet
facet normal 0.9569537348067411 -0.2902405027549214 0
outer loop
vertex 4.7541866666666674 -1.4690866666666669 0
vertex 4.619420000000001 -1.913426666666667 2.9999666666666673
vertex 4.619420000000001 -1.913426666666667 -2.9999666666666673
endloop
endfacet
facet normal 0.9569560987031911 -0.29023270862047795 -0.0000012606207213977666
outer loop
vertex 4.7541866666666674 -1.4690866666666669 0
vertex 4.619420000000001 -1.913426666666667 -2.9999666666666673
vertex 4.668993333333334 -1.7499733333333336 -2.9999666666666673
endloop
endfacet
facet normal 0.9951892171213306 -0.0979715373230064 0
outer loop
vertex 4.999973333333334 0 -2.9999666666666673
vertex 4.999973333333334 0 2.9999666666666673
vertex 4.903946666666667 -0.9754333333333335 2.9999666666666673
endloop
endfacet
facet normal 0.9951892171213306 -0.0979715373230064 0
outer loop
vertex 4.999973333333334 0 -2.9999666666666673
vertex 4.903946666666667 -0.9754333333333335 2.9999666666666673
vertex 4.903946666666667 -0.9754333333333335 -2.9999666666666673
endloop
endfacet
facet normal -0.9951836826139224 -0.09802774025239962 0
outer loop
vertex 1.7499733333333336 0 -2.9999666666666673
vertex 1.7499733333333336 0 2.9999666666666673
vertex 1.716346666666667 0.3413800000000001 2.9999666666666673
endloop
endfacet
facet normal -0.9951836826139224 -0.09802774025239962 0
outer loop
vertex 1.7499733333333336 0 -2.9999666666666673
vertex 1.716346666666667 0.3413800000000001 2.9999666666666673
vertex 1.716346666666667 0.3413800000000001 -2.9999666666666673
endloop
endfacet
facet normal -0.9569457557559764 -0.2902668092300995 0
outer loop
vertex 1.716346666666667 0.3413800000000001 -2.9999666666666673
vertex 1.716346666666667 0.3413800000000001 2.9999666666666673
vertex 1.616766666666667 0.6696733333333335 2.9999666666666673
endloop
endfacet
facet normal -0.9569457557559764 -0.2902668092300995 0
outer loop
vertex 1.716346666666667 0.3413800000000001 -2.9999666666666673
vertex 1.616766666666667 0.6696733333333335 2.9999666666666673
vertex 1.616766666666667 0.6696733333333335 -2.9999666666666673
endloop
endfacet
facet normal -0.8819189932226548 -0.4714009857787095 0
outer loop
vertex 1.616766666666667 0.6696733333333335 -2.9999666666666673
vertex 1.616766666666667 0.6696733333333335 2.9999666666666673
vertex 1.4550466666666668 0.9722266666666668 2.9999666666666673
endloop
endfacet
facet normal -0.8819189932226548 -0.4714009857787095 0
outer loop
vertex 1.616766666666667 0.6696733333333335 -2.9999666666666673
vertex 1.4550466666666668 0.9722266666666668 2.9999666666666673
vertex 1.4550466666666668 0.9722266666666668 -2.9999666666666673
endloop
endfacet
facet normal -0.7730447814239998 -0.6343514529920463 0
outer loop
vertex 1.4550466666666668 0.9722266666666668 -2.9999666666666673
vertex 1.4550466666666668 0.9722266666666668 2.9999666666666673
vertex 1.237426666666667 1.237426666666667 2.9999666666666673
endloop
endfacet
facet normal -0.7730447814239998 -0.6343514529920463 0
outer loop
vertex 1.4550466666666668 0.9722266666666668 -2.9999666666666673
vertex 1.237426666666667 1.237426666666667 2.9999666666666673
vertex 1.237426666666667 1.237426666666667 -2.9999666666666673
endloop
endfacet
facet normal -0.6343514529920463 -0.7730447814239998 0
outer loop
vertex 1.237426666666667 1.237426666666667 -2.9999666666666673
vertex 1.237426666666667 1.237426666666667 2.9999666666666673
vertex 0.9722266666666668 1.4550466666666668 2.9999666666666673
endloop
endfacet
facet normal -0.6343514529920463 -0.7730447814239998 0
outer loop
vertex 1.237426666666667 1.237426666666667 -2.9999666666666673
vertex 0.9722266666666668 1.4550466666666668 2.9999666666666673
vertex 0.9722266666666668 1.4550466666666668 -2.9999666666666673
endloop
endfacet
facet normal -0.4714009857787095 -0.8819189932226548 0
outer loop
vertex 0.9722266666666668 1.4550466666666668 -2.9999666666666673
vertex 0.9722266666666668 1.4550466666666668 2.9999666666666673
vertex 0.6696733333333335 1.616766666666667 2.9999666666666673
endloop
endfacet
facet normal -0.4714009857787095 -0.8819189932226548 0
outer loop
vertex 0.9722266666666668 1.4550466666666668 -2.9999666666666673
vertex 0.6696733333333335 1.616766666666667 2.9999666666666673
vertex 0.6696733333333335 1.616766666666667 -2.9999666666666673
endloop
endfacet
facet normal -0.2902668092300995 -0.9569457557559764 0
outer loop
vertex 0.6696733333333335 1.616766666666667 -2.9999666666666673
vertex 0.6696733333333335 1.616766666666667 2.9999666666666673
vertex 0.3413800000000001 1.716346666666667 2.9999666666666673
endloop
endfacet
facet normal -0.2902668092300995 -0.9569457557559764 0
outer loop
vertex 0.6696733333333335 1.616766666666667 -2.9999666666666673
vertex 0.3413800000000001 1.716346666666667 2.9999666666666673
vertex 0.3413800000000001 1.716346666666667 -2.9999666666666673
endloop
endfacet
facet normal -0.09802774025239962 -0.9951836826139224 0
outer loop
vertex 0.3413800000000001 1.716346666666667 -2.9999666666666673
vertex 0.3413800000000001 1.716346666666667 2.9999666666666673
vertex 0 1.7499733333333336 2.9999666666666673
endloop
endfacet
facet normal -0.09802774025239962 -0.9951836826139224 0
outer loop
vertex 0.3413800000000001 1.716346666666667 -2.9999666666666673
vertex 0 1.7499733333333336 2.9999666666666673
vertex 0 1.7499733333333336 -2.9999666666666673
endloop
endfacet
facet normal 0.09802774025239962 -0.9951836826139224 0
outer loop
vertex 0 1.7499733333333336 -2.9999666666666673
vertex 0 1.7499733333333336 2.9999666666666673
vertex -0.3413800000000001 1.716346666666667 2.9999666666666673
endloop
endfacet
facet normal 0.09802774025239962 -0.9951836826139224 0
outer loop
vertex 0 1.7499733333333336 -2.9999666666666673
vertex -0.3413800000000001 1.716346666666667 2.9999666666666673
vertex -0.3413800000000001 1.716346666666667 -2.9999666666666673
endloop
endfacet
facet normal 0.2902668092300995 -0.9569457557559764 0
outer loop
vertex -0.3413800000000001 1.716346666666667 -2.9999666666666673
vertex -0.3413800000000001 1.716346666666667 2.9999666666666673
vertex -0.6696733333333335 1.616766666666667 2.9999666666666673
endloop
endfacet
facet normal 0.2902668092300995 -0.9569457557559764 0
outer loop
vertex -0.3413800000000001 1.716346666666667 -2.9999666666666673
vertex -0.6696733333333335 1.616766666666667 2.9999666666666673
vertex -0.6696733333333335 1.616766666666667 -2.9999666666666673
endloop
endfacet
facet normal 0.4714009857787095 -0.8819189932226548 0
outer loop
vertex -0.6696733333333335 1.616766666666667 -2.9999666666666673
vertex -0.6696733333333335 1.616766666666667 2.9999666666666673
vertex -0.9722266666666668 1.4550466666666668 2.9999666666666673
endloop
endfacet
facet normal 0.4714009857787095 -0.8819189932226548 0
outer loop
vertex -0.6696733333333335 1.616766666666667 -2.9999666666666673
vertex -0.9722266666666668 1.4550466666666668 2.9999666666666673
vertex -0.9722266666666668 1.4550466666666668 -2.9999666666666673
endloop
endfacet
facet normal 0.6343514529920463 -0.7730447814239998 0
outer loop
vertex -0.9722266666666668 1.4550466666666668 -2.9999666666666673
vertex -0.9722266666666668 1.4550466666666668 2.9999666666666673
vertex -1.237426666666667 1.237426666666667 2.9999666666666673
endloop
endfacet
facet normal 0.6343514529920463 -0.7730447814239998 0
outer loop
vertex -0.9722266666666668 1.4550466666666668 -2.9999666666666673
vertex -1.237426666666667 1.237426666666667 2.9999666666666673
vertex -1.237426666666667 1.237426666666667 -2.9999666666666673
endloop
endfacet
facet normal 0.7730447814239998 -0.6343514529920463 0
outer loop
vertex -1.237426666666667 1.237426666666667 -2.9999666666666673
vertex -1.237426666666667 1.237426666666667 2.9999666666666673
vertex -1.4550466666666668 0.9722266666666668 2.9999666666666673
endloop
endfacet
facet normal 0.7730447814239998 -0.6343514529920463 0
outer loop
vertex -1.237426666666667 1.237426666666667 -2.9999666666666673
vertex -1.4550466666666668 0.9722266666666668 2.9999666666666673
vertex -1.4550466666666668 0.9722266666666668 -2.9999666666666673
endloop
endfacet
facet normal 0.8819189932226548 -0.4714009857787095 0
outer loop
vertex -1.4550466666666668 0.9722266666666668 -2.9999666666666673
vertex -1.4550466666666668 0.9722266666666668 2.9999666666666673
vertex -1.616766666666667 0.6696733333333335 2.9999666666666673
endloop
endfacet
facet normal 0.8819189932226548 -0.4714009857787095 0
outer loop
vertex -1.4550466666666668 0.9722266666666668 -2.9999666666666673
vertex -1.616766666666667 0.6696733333333335 2.9999666666666673
vertex -1.616766666666667 0.6696733333333335 -2.9999666666666673
endloop
endfacet
facet normal 0.9569457557559764 -0.2902668092300995 0
outer loop
vertex -1.616766666666667 0.6696733333333335 -2.9999666666666673
vertex -1.616766666666667 0.6696733333333335 2.9999666666666673
vertex -1.716346666666667 0.3413800000000001 2.9999666666666673
endloop
endfacet
facet normal 0.9569457557559764 -0.2902668092300995 0
outer loop
vertex -1.616766666666667 0.6696733333333335 -2.9999666666666673
vertex -1.716346666666667 0.3413800000000001 2.9999666666666673
vertex -1.716346666666667 0.3413800000000001 -2.9999666666666673
endloop
endfacet
facet normal 0.9951836826139224 -0.09802774025239962 0
outer loop
vertex -1.716346666666667 0.3413800000000001 -2.9999666666666673
vertex -1.716346666666667 0.3413800000000001 2.9999666666666673
vertex -1.7499733333333336 0 2.9999666666666673
endloop
endfacet
facet normal 0.9951836826139224 -0.09802774025239962 0
outer loop
vertex -1.716346666666667 0.3413800000000001 -2.9999666666666673
vertex -1.7499733333333336 0 2.9999666666666673
vertex -1.7499733333333336 0 -2.9999666666666673
endloop
endfacet
facet normal 0.9951836826139224 0.09802774025239962 0
outer loop
vertex -1.7499733333333336 0 -2.9999666666666673
vertex -1.7499733333333336 0 2.9999666666666673
vertex -1.716346666666667 -0.3413800000000001 2.9999666666666673
endloop
endfacet
facet normal 0.9951836826139224 0.09802774025239962 0
outer loop
vertex -1.7499733333333336 0 -2.9999666666666673
vertex -1.716346666666667 -0.3413800000000001 2.9999666666666673
vertex -1.716346666666667 -0.3413800000000001 -2.9999666666666673
endloop
endfacet
facet normal 0.9569457557559764 0.2902668092300995 0
outer loop
vertex -1.716346666666667 -0.3413800000000001 -2.9999666666666673
vertex -1.716346666666667 -0.3413800000000001 2.9999666666666673
vertex -1.616766666666667 -0.6696733333333335 2.9999666666666673
endloop
endfacet
facet normal 0.9569457557559764 0.2902668092300995 0
outer loop
vertex -1.716346666666667 -0.3413800000000001 -2.9999666666666673
vertex -1.616766666666667 -0.6696733333333335 2.9999666666666673
vertex -1.616766666666667 -0.6696733333333335 -2.9999666666666673
endloop
endfacet
facet normal 0.8819189932226548 0.4714009857787095 0
outer loop
vertex -1.616766666666667 -0.6696733333333335 -2.9999666666666673
vertex -1.616766666666667 -0.6696733333333335 2.9999666666666673
vertex -1.4550466666666668 -0.9722266666666668 2.9999666666666673
endloop
endfacet
facet normal 0.8819189932226548 0.4714009857787095 0
outer loop
vertex -1.616766666666667 -0.6696733333333335 -2.9999666666666673
vertex -1.4550466666666668 -0.9722266666666668 2.9999666666666673
vertex -1.4550466666666668 -0.9722266666666668 -2.9999666666666673
endloop
endfacet
facet normal 0.7730447814239998 0.6343514529920463 0
outer loop
vertex -1.4550466666666668 -0.9722266666666668 -2.9999666666666673
vertex -1.4550466666666668 -0.9722266666666668 2.9999666666666673
vertex -1.237426666666667 -1.237426666666667 2.9999666666666673
endloop
endfacet
facet normal 0.7730447814239998 0.6343514529920463 0
outer loop
vertex -1.4550466666666668 -0.9722266666666668 -2.9999666666666673
vertex -1.237426666666667 -1.237426666666667 2.9999666666666673
vertex -1.237426666666667 -1.237426666666667 -2.9999666666666673
endloop
endfacet
facet normal 0.6343514529920463 0.7730447814239998 0
outer loop
vertex -1.237426666666667 -1.237426666666667 -2.9999666666666673
vertex -1.237426666666667 -1.237426666666667 2.9999666666666673
vertex -0.9722266666666668 -1.4550466666666668 2.9999666666666673
endloop
endfacet
facet normal 0.6343514529920463 0.7730447814239998 0
outer loop
vertex -1.237426666666667 -1.237426666666667 -2.9999666666666673
vertex -0.9722266666666668 -1.4550466666666668 2.9999666666666673
vertex -0.9722266666666668 -1.4550466666666668 -2.9999666666666673
endloop
endfacet
facet normal 0.4714009857787095 0.8819189932226548 0
outer loop
vertex -0.9722266666666668 -1.4550466666666668 -2.9999666666666673
vertex -0.9722266666666668 -1.4550466666666668 2.9999666666666673
vertex -0.6696733333333335 -1.616766666666667 2.9999666666666673
endloop
endfacet
facet normal 0.4714009857787095 0.8819189932226548 0
outer loop
vertex -0.9722266666666668 -1.4550466666666668 -2.9999666666666673
vertex -0.6696733333333335 -1.616766666666667 2.9999666666666673
vertex -0.6696733333333335 -1.616766666666667 -2.9999666666666673
endloop
endfacet
facet normal 0.2902668092300995 0.9569457557559764 0
outer loop
vertex -0.6696733333333335 -1.616766666666667 -2.9999666666666673
vertex -0.6696733333333335 -1.616766666666667 2.9999666666666673
vertex -0.3413800000000001 -1.716346666666667 2.9999666666666673
endloop
endfacet
facet normal 0.2902668092300995 0.9569457557559764 0
outer loop
vertex -0.6696733333333335 -1.616766666666667 -2.9999666666666673
vertex -0.3413800000000001 -1.716346666666667 2.9999666666666673
vertex -0.3413800000000001 -1.716346666666667 -2.9999666666666673
endloop
endfacet
facet normal 0.09802774025239962 0.9951836826139224 0
outer loop
vertex -0.3413800000000001 -1.716346666666667 -2.9999666666666673
vertex -0.3413800000000001 -1.716346666666667 2.9999666666666673
vertex 0 -1.7499733333333336 2.9999666666666673
endloop
endfacet
facet normal 0.09802774025239962 0.9951836826139224 0
outer loop
vertex -0.3413800000000001 -1.716346666666667 -2.9999666666666673
vertex 0 -1.7499733333333336 2.9999666666666673
vertex 0 -1.7499733333333336 -2.9999666666666673
endloop
endfacet
facet normal -0.09802774025239962 0.9951836826139224 0
outer loop
vertex 0 -1.7499733333333336 -2.9999666666666673
vertex 0 -1.7499733333333336 2.9999666666666673
vertex 0.3413800000000001 -1.716346666666667 2.9999666666666673
endloop
endfacet
facet normal -0.09802774025239962 0.9951836826139224 0
outer loop
vertex 0 -1.7499733333333336 -2.9999666666666673
vertex 0.3413800000000001 -1.716346666666667 2.9999666666666673
vertex 0.3413800000000001 -1.716346666666667 -2.9999666666666673
endloop
endfacet
facet normal -0.2902668092300995 0.9569457557559764 0
outer loop
vertex 0.3413800000000001 -1.716346666666667 -2.9999666666666673
vertex 0.3413800000000001 -1.716346666666667 2.9999666666666673
vertex 0.6696733333333335 -1.616766666666667 2.9999666666666673
endloop
endfacet
facet normal -0.2902668092300995 0.9569457557559764 0
outer loop
vertex 0.3413800000000001 -1.716346666666667 -2.9999666666666673
vertex 0.6696733333333335 -1.616766666666667 2.9999666666666673
vertex 0.6696733333333335 -1.616766666666667 -2.9999666666666673
endloop
endfacet
facet normal -0.4714009857787095 0.8819189932226548 0
outer loop
vertex 0.6696733333333335 -1.616766666666667 -2.9999666666666673
vertex 0.6696733333333335 -1.616766666666667 2.9999666666666673
vertex 0.9722266666666668 -1.4550466666666668 2.9999666666666673
endloop
endfacet
facet normal -0.4714009857787095 0.8819189932226548 0
outer loop
vertex 0.6696733333333335 -1.616766666666667 -2.9999666666666673
vertex 0.9722266666666668 -1.4550466666666668 2.9999666666666673
vertex 0.9722266666666668 -1.4550466666666668 -2.9999666666666673
endloop
endfacet
facet normal -0.6343514529920463 0.7730447814239998 0
outer loop
vertex 0.9722266666666668 -1.4550466666666668 -2.9999666666666673
vertex 0.9722266666666668 -1.4550466666666668 2.9999666666666673
vertex 1.237426666666667 -1.237426666666667 2.9999666666666673
endloop
endfacet
facet normal -0.6343514529920463 0.7730447814239998 0
outer loop
vertex 0.9722266666666668 -1.4550466666666668 -2.9999666666666673
vertex 1.237426666666667 -1.237426666666667 2.9999666666666673
vertex 1.237426666666667 -1.237426666666667 -2.9999666666666673
endloop
endfacet
facet normal -0.7730447814239998 0.6343514529920463 0
outer loop
vertex 1.237426666666667 -1.237426666666667 -2.9999666666666673
vertex 1.237426666666667 -1.237426666666667 2.9999666666666673
vertex 1.4550466666666668 -0.9722266666666668 2.9999666666666673
endloop
endfacet
facet normal -0.7730447814239998 0.6343514529920463 0
outer loop
vertex 1.237426666666667 -1.237426666666667 -2.9999666666666673
vertex 1.4550466666666668 -0.9722266666666668 2.9999666666666673
vertex 1.4550466666666668 -0.9722266666666668 -2.9999666666666673
endloop
endfacet
facet normal -0.8819189932226548 0.4714009857787095 0
outer loop
vertex 1.4550466666666668 -0.9722266666666668 -2.9999666666666673
vertex 1.4550466666666668 -0.9722266666666668 2.9999666666666673
vertex 1.616766666666667 -0.6696733333333335 2.9999666666666673
endloop
endfacet
facet normal -0.8819189932226548 0.4714009857787095 0
outer loop
vertex 1.4550466666666668 -0.9722266666666668 -2.9999666666666673
vertex 1.616766666666667 -0.6696733333333335 2.9999666666666673
vertex 1.616766666666667 -0.6696733333333335 -2.9999666666666673
endloop
endfacet
facet normal -0.9569457557559764 0.2902668092300995 0
outer loop
vertex 1.616766666666667 -0.6696733333333335 -2.9999666666666673
vertex 1.616766666666667 -0.6696733333333335 2.9999666666666673
vertex 1.716346666666667 -0.3413800000000001 2.9999666666666673
endloop
endfacet
facet normal -0.9569457557559764 0.2902668092300995 0
outer loop
vertex 1.616766666666667 -0.6696733333333335 -2.9999666666666673
vertex 1.716346666666667 -0.3413800000000001 2.9999666666666673
vertex 1.716346666666667 -0.3413800000000001 -2.9999666666666673
endloop
endfacet
facet normal -0.9951836826139224 0.09802774025239962 0
outer loop
vertex 1.716346666666667 -0.3413800000000001 -2.9999666666666673
vertex 1.716346666666667 -0.3413800000000001 2.9999666666666673
vertex 1.7499733333333336 0 2.9999666666666673
endloop
endfacet
facet normal -0.9951836826139224 0.09802774025239962 0
outer loop
vertex 1.716346666666667 -0.3413800000000001 -2.9999666666666673
vertex 1.7499733333333336 0 2.9999666666666673
vertex 1.7499733333333336 0 -2.9999666666666673
endloop
endfacet
facet normal 0 0 -1
outer loop
vertex 0 3.3790466666666674 -2.9999666666666673
vertex 0.9754333333333335 4.903946666666667 -2.9999666666666673
vertex 1.913426666666667 4.619420000000001 -2.9999666666666673
endloop
endfacet
facet normal 0 0 -1
outer loop
vertex 0 3.3790466666666674 -2.9999666666666673
vertex 1.913426666666667 4.619420000000001 -2.9999666666666673
vertex 2.7778400000000003 4.157313333333334 -2.9999666666666673
endloop
endfacet
facet normal 0 0 -1
outer loop
vertex 0 3.3790466666666674 -2.9999666666666673
vertex 2.7778400000000003 4.157313333333334 -2.9999666666666673
vertex 3.5355666666666674 3.5355666666666674 -2.9999666666666673
endloop
endfacet
facet normal 0 0 -0.9999999999999999
outer loop
vertex 0 3.3790466666666674 -2.9999666666666673
vertex 3.5355666666666674 3.5355666666666674 -2.9999666666666673
vertex 4.157313333333334 2.7778400000000003 -2.9999666666666673
endloop
endfacet
facet normal 0 0 -1
outer loop
vertex 0 3.3790466666666674 -2.9999666666666673
vertex 4.157313333333334 2.7778400000000003 -2.9999666666666673
vertex 4.619420000000001 1.913426666666667 -2.9999666666666673
endloop
endfacet
facet normal 0 0 -1
outer loop
vertex 0 3.3790466666666674 -2.9999666666666673
vertex 4.619420000000001 1.913426666666667 -2.9999666666666673
vertex 4.668993333333334 1.7499733333333336 -2.9999666666666673
endloop
endfacet
facet normal 0 0 -1
outer loop
vertex 0 3.3790466666666674 -2.9999666666666673
vertex 4.668993333333334 1.7499733333333336 -2.9999666666666673
vertex 0 1.7499733333333336 -2.9999666666666673
endloop
endfacet
facet normal 0 0 -1
outer loop
vertex 0 3.3790466666666674 -2.9999666666666673
vertex 0 1.7499733333333336 -2.9999666666666673
vertex -4.668993333333334 1.7499733333333336 -2.9999666666666673
endloop
endfacet
facet normal 0 0 -1
outer loop
vertex 0 3.3790466666666674 -2.9999666666666673
vertex -4.668993333333334 1.7499733333333336 -2.9999666666666673
vertex -4.619420000000001 1.913426666666667 -2.9999666666666673
endloop
endfacet
facet normal 0 0 -1
outer loop
vertex 0 3.3790466666666674 -2.9999666666666673
vertex -4.619420000000001 1.913426666666667 -2.9999666666666673
vertex -4.157313333333334 2.7778400000000003 -2.9999666666666673
endloop
endfacet
facet normal 0 0 -0.9999999999999999
outer loop
vertex 0 3.3790466666666674 -2.9999666666666673
vertex -4.157313333333334 2.7778400000000003 -2.9999666666666673
vertex -3.5355666666666674 3.5355666666666674 -2.9999666666666673
endloop
endfacet
facet normal 0 0 -1
outer loop
vertex 0 3.3790466666666674 -2.9999666666666673
vertex -3.5355666666666674 3.5355666666666674 -2.9999666666666673
vertex -2.7778400000000003 4.157313333333334 -2.9999666666666673
endloop
endfacet
facet normal 0 0 -1
outer loop
vertex 0 3.3790466666666674 -2.9999666666666673
vertex -2.7778400000000003 4.157313333333334 -2.9999666666666673
vertex -1.913426666666667 4.619420000000001 -2.9999666666666673
endloop
endfacet
facet normal 0 0 -1
outer loop
vertex 0 3.3790466666666674 -2.9999666666666673
vertex -1.913426666666667 4.619420000000001 -2.9999666666666673
vertex -0.9754333333333335 4.903946666666667 -2.9999666666666673
endloop
endfacet
facet normal 0 0 -1
outer loop
vertex 0 3.3790466666666674 -2.9999666666666673
vertex -0.9754333333333335 4.903946666666667 -2.9999666666666673
vertex 0 4.999973333333334 -2.9999666666666673
endloop
endfacet
facet normal 0 0 -1
outer loop
vertex 0 3.3790466666666674 -2.9999666666666673
vertex 0 4.999973333333334 -2.9999666666666673
vertex 0.9754333333333335 4.903946666666667 -2.9999666666666673
endloop
endfacet
facet normal 0 0 -1
outer loop
vertex 0 1.7499733333333336 -2.9999666666666673
vertex -0.3413800000000001 1.716346666666667 -2.9999666666666673
vertex -4.6791333333333345 1.716346666666667 -2.9999666666666673
endloop
endfacet
facet normal 0 0 -1
outer loop
vertex 0 1.7499733333333336 -2.9999666666666673
vertex -4.6791333333333345 1.716346666666667 -2.9999666666666673
vertex -4.668993333333334 1.7499733333333336 -2.9999666666666673
endloop
endfacet
facet normal 0 0 -1
outer loop
vertex 4.668993333333334 1.7499733333333336 -2.9999666666666673
vertex 4.6791333333333345 1.716346666666667 -2.9999666666666673
vertex 0.3413800000000001 1.716346666666667 -2.9999666666666673
endloop
endfacet
facet normal 0 0 -1
outer loop
vertex 4.668993333333334 1.7499733333333336 -2.9999666666666673
vertex 0.3413800000000001 1.716346666666667 -2.9999666666666673
vertex 0 1.7499733333333336 -2.9999666666666673
endloop
endfacet
facet normal 0 0 -1
outer loop
vertex -0.3413800000000001 1.716346666666667 -2.9999666666666673
vertex -0.6696733333333335 1.616766666666667 -2.9999666666666673
vertex -4.709380000000001 1.616766666666667 -2.9999666666666673
endloop
endfacet
facet normal 0 0 -1
outer loop
vertex -0.3413800000000001 1.716346666666667 -2.9999666666666673
vertex -4.709380000000001 1.616766666666667 -2.9999666666666673
vertex -4.6791333333333345 1.716346666666667 -2.9999666666666673
endloop
endfacet
facet normal 0 0 -0.9999999999999999
outer loop
vertex 4.6791333333333345 1.716346666666667 -2.9999666666666673
vertex 4.709380000000001 1.616766666666667 -2.9999666666666673
vertex 0.6696733333333335 1.616766666666667 -2.9999666666666673
endloop
endfacet
facet normal 0 0 -1
outer loop
vertex 4.6791333333333345 1.716346666666667 -2.9999666666666673
vertex 0.6696733333333335 1.616766666666667 -2.9999666666666673
vertex 0.3413800000000001 1.716346666666667 -2.9999666666666673
endloop
endfacet
facet normal 0 0 -1
outer loop
vertex -0.6696733333333335 1.616766666666667 -2.9999666666666673
vertex -0.9722266666666668 1.4550466666666668 -2.9999666666666673
vertex -4.758433333333334 1.4550466666666668 -2.9999666666666673
endloop
endfacet
facet normal 0 0 -1
outer loop
vertex -0.6696733333333335 1.616766666666667 -2.9999666666666673
vertex -4.758433333333334 1.4550466666666668 -2.9999666666666673
vertex -4.709380000000001 1.616766666666667 -2.9999666666666673
endloop
endfacet
facet normal 0 0 -1
outer loop
vertex 4.709380000000001 1.616766666666667 -2.9999666666666673
vertex 4.758433333333334 1.4550466666666668 -2.9999666666666673
vertex 0.9722266666666668 1.4550466666666668 -2.9999666666666673
endloop
endfacet
facet normal 0 0 -1
outer loop
vertex 4.709380000000001 1.616766666666667 -2.9999666666666673
vertex 0.9722266666666668 1.4550466666666668 -2.9999666666666673
vertex 0.6696733333333335 1.616766666666667 -2.9999666666666673
endloop
endfacet
facet normal 0 0 -1
outer loop
vertex -0.9722266666666668 1.4550466666666668 -2.9999666666666673
vertex -1.237426666666667 1.237426666666667 -2.9999666666666673
vertex -4.8244733333333345 1.237426666666667 -2.9999666666666673
endloop
endfacet
facet normal 0 0 -1
outer loop
vertex -0.9722266666666668 1.4550466666666668 -2.9999666666666673
vertex -4.8244733333333345 1.237426666666667 -2.9999666666666673
vertex -4.758433333333334 1.4550466666666668 -2.9999666666666673
endloop
endfacet
facet normal 0 0 -1
outer loop
vertex 4.758433333333334 1.4550466666666668 -2.9999666666666673
vertex 4.8244733333333345 1.237426666666667 -2.9999666666666673
vertex 1.237426666666667 1.237426666666667 -2.9999666666666673
endloop
endfacet
facet normal 0 0 -1
outer loop
vertex 4.758433333333334 1.4550466666666668 -2.9999666666666673
vertex 1.237426666666667 1.237426666666667 -2.9999666666666673
vertex 0.9722266666666668 1.4550466666666668 -2.9999666666666673
endloop
endfacet
facet normal 0 0 -1
outer loop
vertex -3.4650200000000004 1.0789133333333336 -2.9999666666666673
vertex -1.237426666666667 1.237426666666667 -2.9999666666666673
vertex -1.4550466666666668 0.9722266666666668 -2.9999666666666673
endloop
endfacet
facet normal 0 0 -1
outer loop
vertex -3.4650200000000004 1.0789133333333336 -2.9999666666666673
vertex -1.4550466666666668 0.9722266666666668 -2.9999666666666673
vertex -4.904206666666668 0.9722266666666668 -2.9999666666666673
endloop
endfacet
facet normal 0 0 -1
outer loop
vertex -3.4650200000000004 1.0789133333333336 -2.9999666666666673
vertex -4.904206666666668 0.9722266666666668 -2.9999666666666673
vertex -4.903946666666667 0.9754333333333335 -2.9999666666666673
endloop
endfacet
facet normal 0 0 -0.9999999999999999
outer loop
vertex -3.4650200000000004 1.0789133333333336 -2.9999666666666673
vertex -4.903946666666667 0.9754333333333335 -2.9999666666666673
vertex -4.8244733333333345 1.237426666666667 -2.9999666666666673
endloop
endfacet
facet normal 0 0 -1
outer loop
vertex -3.4650200000000004 1.0789133333333336 -2.9999666666666673
vertex -4.8244733333333345 1.237426666666667 -2.9999666666666673
vertex -1.237426666666667 1.237426666666667 -2.9999666666666673
endloop
endfacet
facet normal 0 0 -0.9999999999999999
outer loop
vertex 3.4650200000000004 1.0789133333333336 -2.9999666666666673
vertex 4.8244733333333345 1.237426666666667 -2.9999666666666673
vertex 4.903946666666667 0.9754333333333335 -2.9999666666666673
endloop
endfacet
facet normal 0 0 -1
outer loop
vertex 3.4650200000000004 1.0789133333333336 -2.9999666666666673
vertex 4.903946666666667 0.9754333333333335 -2.9999666666666673
vertex 4.904206666666668 0.9722266666666668 -2.9999666666666673
endloop
endfacet
facet normal 0 0 -1
outer loop
vertex 3.4650200000000004 1.0789133333333336 -2.9999666666666673
vertex 4.904206666666668 0.9722266666666668 -2.9999666666666673
vertex 1.4550466666666668 0.9722266666666668 -2.9999666666666673
endloop
endfacet
facet normal 0 0 -1
outer loop
vertex 3.4650200000000004 1.0789133333333336 -2.9999666666666673
vertex 1.4550466666666668 0.9722266666666668 -2.9999666666666673
vertex 1.237426666666667 1.237426666666667 -2.9999666666666673
endloop
endfacet
facet normal 0 0 -1
outer loop
vertex 3.4650200000000004 1.0789133333333336 -2.9999666666666673
vertex 1.237426666666667 1.237426666666667 -2.9999666666666673
vertex 4.8244733333333345 1.237426666666667 -2.9999666666666673
endloop
endfacet
facet normal 0 0 -1
outer loop
vertex -1.4550466666666668 0.9722266666666668 -2.9999666666666673
vertex -1.616766666666667 0.6696733333333335 -2.9999666666666673
vertex -4.934020000000001 0.6696733333333335 -2.9999666666666673
endloop
endfacet
facet normal 0 0 -1
outer loop
vertex -1.4550466666666668 0.9722266666666668 -2.9999666666666673
vertex -4.934020000000001 0.6696733333333335 -2.9999666666666673
vertex -4.904206666666668 0.9722266666666668 -2.9999666666666673
endloop
endfacet
facet normal 0 0 -1
outer loop
vertex 4.904206666666668 0.9722266666666668 -2.9999666666666673
vertex 4.934020000000001 0.6696733333333335 -2.9999666666666673
vertex 1.616766666666667 0.6696733333333335 -2.9999666666666673
endloop
endfacet
facet normal 0 0 -1
outer loop
vertex 4.904206666666668 0.9722266666666668 -2.9999666666666673
vertex 1.616766666666667 0.6696733333333335 -2.9999666666666673
vertex 1.4550466666666668 0.9722266666666668 -2.9999666666666673
endloop
endfacet
facet normal 0 0 -0.9999999999999999
outer loop
vertex -1.616766666666667 0.6696733333333335 -2.9999666666666673
vertex -1.716346666666667 0.3413800000000001 -2.9999666666666673
vertex -4.966346666666667 0.3413800000000001 -2.9999666666666673
endloop
endfacet
facet normal 0 0 -1
outer loop
vertex -1.616766666666667 0.6696733333333335 -2.9999666666666673
vertex -4.966346666666667 0.3413800000000001 -2.9999666666666673
vertex -4.934020000000001 0.6696733333333335 -2.9999666666666673
endloop
endfacet
facet normal 0 0 -0.9999999999999999
outer loop
vertex 4.934020000000001 0.6696733333333335 -2.9999666666666673
vertex 4.966346666666667 0.3413800000000001 -2.9999666666666673
vertex 1.716346666666667 0.3413800000000001 -2.9999666666666673
endloop
endfacet
facet normal 0 0 -1
outer loop
vertex 4.934020000000001 0.6696733333333335 -2.9999666666666673
vertex 1.716346666666667 0.3413800000000001 -2.9999666666666673
vertex 1.616766666666667 0.6696733333333335 -2.9999666666666673
endloop
endfacet
facet normal 0 0 -1
outer loop
vertex -1.716346666666667 0.3413800000000001 -2.9999666666666673
vertex -1.7499733333333336 0 -2.9999666666666673
vertex -4.999973333333334 0 -2.9999666666666673
endloop
endfacet
facet normal 0 0 -1
outer loop
vertex -1.716346666666667 0.3413800000000001 -2.9999666666666673
vertex -4.999973333333334 0 -2.9999666666666673
vertex -4.966346666666667 0.3413800000000001 -2.9999666666666673
endloop
endfacet
facet normal 0 0 -1
outer loop
vertex 4.966346666666667 0.3413800000000001 -2.9999666666666673
vertex 4.999973333333334 0 -2.9999666666666673
vertex 1.7499733333333336 0 -2.9999666666666673
endloop
endfacet
facet normal 0 0 -1
outer loop
vertex 4.966346666666667 0.3413800000000001 -2.9999666666666673
vertex 1.7499733333333336 0 -2.9999666666666673
vertex 1.716346666666667 0.3413800000000001 -2.9999666666666673
endloop
endfacet
facet normal 0 0 -1
outer loop
vertex -1.7499733333333336 0 -2.9999666666666673
vertex -1.716346666666667 -0.3413800000000001 -2.9999666666666673
vertex -4.966346666666667 -0.3413800000000001 -2.9999666666666673
endloop
endfacet
facet normal 0 0 -1
outer loop
vertex -1.7499733333333336 0 -2.9999666666666673
vertex -4.966346666666667 -0.3413800000000001 -2.9999666666666673
vertex -4.999973333333334 0 -2.9999666666666673
endloop
endfacet
facet normal 0 0 -1
outer loop
vertex 4.999973333333334 0 -2.9999666666666673
vertex 4.966346666666667 -0.3413800000000001 -2.9999666666666673
vertex 1.716346666666667 -0.3413800000000001 -2.9999666666666673
endloop
endfacet
facet normal 0 0 -1
outer loop
vertex 4.999973333333334 0 -2.9999666666666673
vertex 1.716346666666667 -0.3413800000000001 -2.9999666666666673
vertex 1.7499733333333336 0 -2.9999666666666673
endloop
endfacet
facet normal 0 0 -1
outer loop
vertex -1.716346666666667 -0.3413800000000001 -2.9999666666666673
vertex -1.616766666666667 -0.6696733333333335 -2.9999666666666673
vertex -4.934020000000001 -0.6696733333333335 -2.9999666666666673
endloop
endfacet
facet normal 0 0 -0.9999999999999999
outer loop
vertex -1.716346666666667 -0.3413800000000001 -2.9999666666666673
vertex -4.934020000000001 -0.6696733333333335 -2.9999666666666673
vertex -4.966346666666667 -0.3413800000000001 -2.9999666666666673
endloop
endfacet
facet normal 0 0 -1
outer loop
vertex 4.966346666666667 -0.3413800000000001 -2.9999666666666673
vertex 4.934020000000001 -0.6696733333333335 -2.9999666666666673
vertex 1.616766666666667 -0.6696733333333335 -2.9999666666666673
endloop
endfacet
facet normal 0 0 -0.9999999999999999
outer loop
vertex 4.966346666666667 -0.3413800000000001 -2.9999666666666673
vertex 1.616766666666667 -0.6696733333333335 -2.9999666666666673
vertex 1.716346666666667 -0.3413800000000001 -2.9999666666666673
endloop
endfacet
facet normal 0 0 -1
outer loop
vertex -1.616766666666667 -0.6696733333333335 -2.9999666666666673
vertex -1.4550466666666668 -0.9722266666666668 -2.9999666666666673
vertex -4.904206666666668 -0.9722266666666668 -2.9999666666666673
endloop
endfacet
facet normal 0 0 -1
outer loop
vertex -1.616766666666667 -0.6696733333333335 -2.9999666666666673
vertex -4.904206666666668 -0.9722266666666668 -2.9999666666666673
vertex -4.934020000000001 -0.6696733333333335 -2.9999666666666673
endloop
endfacet
facet normal 0 0 -1
outer loop
vertex 4.934020000000001 -0.6696733333333335 -2.9999666666666673
vertex 4.904206666666668 -0.9722266666666668 -2.9999666666666673
vertex 1.4550466666666668 -0.9722266666666668 -2.9999666666666673
endloop
endfacet
facet normal 0 0 -1
outer loop
vertex 4.934020000000001 -0.6696733333333335 -2.9999666666666673
vertex 1.4550466666666668 -0.9722266666666668 -2.9999666666666673
vertex 1.616766666666667 -0.6696733333333335 -2.9999666666666673
endloop
endfacet
facet normal 0 0 -1
outer loop
vertex -3.4650200000000004 -1.0789133333333336 -2.9999666666666673
vertex -1.4550466666666668 -0.9722266666666668 -2.9999666666666673
vertex -1.237426666666667 -1.237426666666667 -2.9999666666666673
endloop
endfacet
facet normal 0 0 -1
outer loop
vertex -3.4650200000000004 -1.0789133333333336 -2.9999666666666673
vertex -1.237426666666667 -1.237426666666667 -2.9999666666666673
vertex -4.8244733333333345 -1.237426666666667 -2.9999666666666673
endloop
endfacet
facet normal 0 0 -0.9999999999999999
outer loop
vertex -3.4650200000000004 -1.0789133333333336 -2.9999666666666673
vertex -4.8244733333333345 -1.237426666666667 -2.9999666666666673
vertex -4.903946666666667 -0.9754333333333335 -2.9999666666666673
endloop
endfacet
facet normal 0 0 -1
outer loop
vertex -3.4650200000000004 -1.0789133333333336 -2.9999666666666673
vertex -4.903946666666667 -0.9754333333333335 -2.9999666666666673
vertex -4.904206666666668 -0.9722266666666668 -2.9999666666666673
endloop
endfacet
facet normal 0 0 -1
outer loop
vertex -3.4650200000000004 -1.0789133333333336 -2.9999666666666673
vertex -4.904206666666668 -0.9722266666666668 -2.9999666666666673
vertex -1.4550466666666668 -0.9722266666666668 -2.9999666666666673
endloop
endfacet
facet normal 0 0 -1
outer loop
vertex 3.4650200000000004 -1.0789133333333336 -2.9999666666666673
vertex 4.904206666666668 -0.9722266666666668 -2.9999666666666673
vertex 4.903946666666667 -0.9754333333333335 -2.9999666666666673
endloop
endfacet
facet normal 0 0 -0.9999999999999999
outer loop
vertex 3.4650200000000004 -1.0789133333333336 -2.9999666666666673
vertex 4.903946666666667 -0.9754333333333335 -2.9999666666666673
vertex 4.8244733333333345 -1.237426666666667 -2.9999666666666673
endloop
endfacet
facet normal 0 0 -1
outer loop
vertex 3.4650200000000004 -1.0789133333333336 -2.9999666666666673
vertex 4.8244733333333345 -1.237426666666667 -2.9999666666666673
vertex 1.237426666666667 -1.237426666666667 -2.9999666666666673
endloop
endfacet
facet normal 0 0 -1
outer loop
vertex 3.4650200000000004 -1.0789133333333336 -2.9999666666666673
vertex 1.237426666666667 -1.237426666666667 -2.9999666666666673
vertex 1.4550466666666668 -0.9722266666666668 -2.9999666666666673
endloop
endfacet
facet normal 0 0 -1
outer loop
vertex 3.4650200000000004 -1.0789133333333336 -2.9999666666666673
vertex 1.4550466666666668 -0.9722266666666668 -2.9999666666666673
vertex 4.904206666666668 -0.9722266666666668 -2.9999666666666673
endloop
endfacet
facet normal 0 0 -1
outer loop
vertex -1.237426666666667 -1.237426666666667 -2.9999666666666673
vertex -0.9722266666666668 -1.4550466666666668 -2.9999666666666673
vertex -4.758433333333334 -1.4550466666666668 -2.9999666666666673
endloop
endfacet
facet normal 0 0 -1
outer loop
vertex -1.237426666666667 -1.237426666666667 -2.9999666666666673
vertex -4.758433333333334 -1.4550466666666668 -2.9999666666666673
vertex -4.8244733333333345 -1.237426666666667 -2.9999666666666673
endloop
endfacet
facet normal 0 0 -1
outer loop
vertex 4.8244733333333345 -1.237426666666667 -2.9999666666666673
vertex 4.758433333333334 -1.4550466666666668 -2.9999666666666673
vertex 0.9722266666666668 -1.4550466666666668 -2.9999666666666673
endloop
endfacet
facet normal 0 0 -1
outer loop
vertex 4.8244733333333345 -1.237426666666667 -2.9999666666666673
vertex 0.9722266666666668 -1.4550466666666668 -2.9999666666666673
vertex 1.237426666666667 -1.237426666666667 -2.9999666666666673
endloop
endfacet
facet normal 0 0 -1
outer loop
vertex -0.9722266666666668 -1.4550466666666668 -2.9999666666666673
vertex -0.6696733333333335 -1.616766666666667 -2.9999666666666673
vertex -4.709380000000001 -1.616766666666667 -2.9999666666666673
endloop
endfacet
facet normal 0 0 -1
outer loop
vertex -0.9722266666666668 -1.4550466666666668 -2.9999666666666673
vertex -4.709380000000001 -1.616766666666667 -2.9999666666666673
vertex -4.758433333333334 -1.4550466666666668 -2.9999666666666673
endloop
endfacet
facet normal 0 0 -1
outer loop
vertex 4.758433333333334 -1.4550466666666668 -2.9999666666666673
vertex 4.709380000000001 -1.616766666666667 -2.9999666666666673
vertex 0.6696733333333335 -1.616766666666667 -2.9999666666666673
endloop
endfacet
facet normal 0 0 -1
outer loop
vertex 4.758433333333334 -1.4550466666666668 -2.9999666666666673
vertex 0.6696733333333335 -1.616766666666667 -2.9999666666666673
vertex 0.9722266666666668 -1.4550466666666668 -2.9999666666666673
endloop
endfacet
facet normal 0 0 -1
outer loop
vertex -0.6696733333333335 -1.616766666666667 -2.9999666666666673
vertex -0.3413800000000001 -1.716346666666667 -2.9999666666666673
vertex -4.6791333333333345 -1.716346666666667 -2.9999666666666673
endloop
endfacet
facet normal 0 0 -0.9999999999999999
outer loop
vertex -0.6696733333333335 -1.616766666666667 -2.9999666666666673
vertex -4.6791333333333345 -1.716346666666667 -2.9999666666666673
vertex -4.709380000000001 -1.616766666666667 -2.9999666666666673
endloop
endfacet
facet normal 0 0 -1
outer loop
vertex 4.709380000000001 -1.616766666666667 -2.9999666666666673
vertex 4.6791333333333345 -1.716346666666667 -2.9999666666666673
vertex 0.3413800000000001 -1.716346666666667 -2.9999666666666673
endloop
endfacet
facet normal 0 0 -0.9999999999999999
outer loop
vertex 4.709380000000001 -1.616766666666667 -2.9999666666666673
vertex 0.3413800000000001 -1.716346666666667 -2.9999666666666673
vertex 0.6696733333333335 -1.616766666666667 -2.9999666666666673
endloop
endfacet
facet normal 0 0 -1
outer loop
vertex -0.3413800000000001 -1.716346666666667 -2.9999666666666673
vertex 0 -1.7499733333333336 -2.9999666666666673
vertex -4.668993333333334 -1.7499733333333336 -2.9999666666666673
endloop
endfacet
facet normal 0 0 -1
outer loop
vertex -0.3413800000000001 -1.716346666666667 -2.9999666666666673
vertex -4.668993333333334 -1.7499733333333336 -2.9999666666666673
vertex -4.6791333333333345 -1.716346666666667 -2.9999666666666673
endloop
endfacet
facet normal 0 0 -1
outer loop
vertex 4.6791333333333345 -1.716346666666667 -2.9999666666666673
vertex 4.668993333333334 -1.7499733333333336 -2.9999666666666673
vertex 0 -1.7499733333333336 -2.9999666666666673
endloop
endfacet
facet normal 0 0 -1
outer loop
vertex 4.6791333333333345 -1.716346666666667 -2.9999666666666673
vertex 0 -1.7499733333333336 -2.9999666666666673
vertex 0.3413800000000001 -1.716346666666667 -2.9999666666666673
endloop
endfacet
facet normal 0 0 -1
outer loop
vertex 0 -3.3790466666666674 -2.9999666666666673
vertex 0 -1.7499733333333336 -2.9999666666666673
vertex 4.668993333333334 -1.7499733333333336 -2.9999666666666673
endloop
endfacet
facet normal 0 0 -1
outer loop
vertex 0 -3.3790466666666674 -2.9999666666666673
vertex 4.668993333333334 -1.7499733333333336 -2.9999666666666673
vertex 4.619420000000001 -1.913426666666667 -2.9999666666666673
endloop
endfacet
facet normal 0 0 -1
outer loop
vertex 0 -3.3790466666666674 -2.9999666666666673
vertex 4.619420000000001 -1.913426666666667 -2.9999666666666673
vertex 4.157313333333334 -2.7778400000000003 -2.9999666666666673
endloop
endfacet
facet normal 0 0 -0.9999999999999999
outer loop
vertex 0 -3.3790466666666674 -2.9999666666666673
vertex 4.157313333333334 -2.7778400000000003 -2.9999666666666673
vertex 3.5355666666666674 -3.5355666666666674 -2.9999666666666673
endloop
endfacet
facet normal 0 0 -1
outer loop
vertex 0 -3.3790466666666674 -2.9999666666666673
vertex 3.5355666666666674 -3.5355666666666674 -2.9999666666666673
vertex 2.7778400000000003 -4.157313333333334 -2.9999666666666673
endloop
endfacet
facet normal 0 0 -1
outer loop
vertex 0 -3.3790466666666674 -2.9999666666666673
vertex 2.7778400000000003 -4.157313333333334 -2.9999666666666673
vertex 1.913426666666667 -4.619420000000001 -2.9999666666666673
endloop
endfacet
facet normal 0 0 -1
outer loop
vertex 0 -3.3790466666666674 -2.9999666666666673
vertex 1.913426666666667 -4.619420000000001 -2.9999666666666673
vertex 0.9754333333333335 -4.903946666666667 -2.9999666666666673
endloop
endfacet
facet normal 0 0 -1
outer loop
vertex 0 -3.3790466666666674 -2.9999666666666673
vertex 0.9754333333333335 -4.903946666666667 -2.9999666666666673
vertex 0 -4.999973333333334 -2.9999666666666673
endloop
endfacet
facet normal 0 0 -1
outer loop
vertex 0 -3.3790466666666674 -2.9999666666666673
vertex 0 -4.999973333333334 -2.9999666666666673
vertex -0.9754333333333335 -4.903946666666667 -2.9999666666666673
endloop
endfacet
facet normal 0 0 -1
outer loop
vertex 0 -3.3790466666666674 -2.9999666666666673
vertex -0.9754333333333335 -4.903946666666667 -2.9999666666666673
vertex -1.913426666666667 -4.619420000000001 -2.9999666666666673
endloop
endfacet
facet normal 0 0 -1
outer loop
vertex 0 -3.3790466666666674 -2.9999666666666673
vertex -1.913426666666667 -4.619420000000001 -2.9999666666666673
vertex -2.7778400000000003 -4.157313333333334 -2.9999666666666673
endloop
endfacet
facet normal 0 0 -1
outer loop
vertex 0 -3.3790466666666674 -2.9999666666666673
vertex -2.7778400000000003 -4.157313333333334 -2.9999666666666673
vertex -3.5355666666666674 -3.5355666666666674 -2.9999666666666673
endloop
endfacet
facet normal 0 0 -0.9999999999999999
outer loop
vertex 0 -3.3790466666666674 -2.9999666666666673
vertex -3.5355666666666674 -3.5355666666666674 -2.9999666666666673
vertex -4.157313333333334 -2.7778400000000003 -2.9999666666666673
endloop
endfacet
facet normal 0 0 -1
outer loop
vertex 0 -3.3790466666666674 -2.9999666666666673
vertex -4.157313333333334 -2.7778400000000003 -2.9999666666666673
vertex -4.619420000000001 -1.913426666666667 -2.9999666666666673
endloop
endfacet
facet normal 0 0 -1
outer loop
vertex 0 -3.3790466666666674 -2.9999666666666673
vertex -4.619420000000001 -1.913426666666667 -2.9999666666666673
vertex -4.668993333333334 -1.7499733333333336 -2.9999666666666673
endloop
endfacet
facet normal 0 0 -1
outer loop
vertex 0 -3.3790466666666674 -2.9999666666666673
vertex -4.668993333333334 -1.7499733333333336 -2.9999666666666673
vertex 0 -1.7499733333333336 -2.9999666666666673
endloop
endfacet
facet normal 0 0 1
outer loop
vertex 0 3.3790466666666674 2.9999666666666673
vertex -0.9754333333333335 4.903946666666667 2.9999666666666673
vertex -1.913426666666667 4.619420000000001 2.9999666666666673
endloop
endfacet
facet normal 0 0 1
outer loop
vertex 0 3.3790466666666674 2.9999666666666673
vertex -1.913426666666667 4.619420000000001 2.9999666666666673
vertex -2.7778400000000003 4.157313333333334 2.9999666666666673
endloop
endfacet
facet normal 0 0 1
outer loop
vertex 0 3.3790466666666674 2.9999666666666673
vertex -2.7778400000000003 4.157313333333334 2.9999666666666673
vertex -3.5355666666666674 3.5355666666666674 2.9999666666666673
endloop
endfacet
facet normal 0 0 0.9999999999999999
outer loop
vertex 0 3.3790466666666674 2.9999666666666673
vertex -3.5355666666666674 3.5355666666666674 2.9999666666666673
vertex -4.157313333333334 2.7778400000000003 2.9999666666666673
endloop
endfacet
facet normal 0 0 1
outer loop
vertex 0 3.3790466666666674 2.9999666666666673
vertex -4.157313333333334 2.7778400000000003 2.9999666666666673
vertex -4.619420000000001 1.913426666666667 2.9999666666666673
endloop
endfacet
facet normal 0 0 1
outer loop
vertex 0 3.3790466666666674 2.9999666666666673
vertex -4.619420000000001 1.913426666666667 2.9999666666666673
vertex -4.668993333333334 1.7499733333333336 2.9999666666666673
endloop
endfacet
facet normal 0 0 1
outer loop
vertex 0 3.3790466666666674 2.9999666666666673
vertex -4.668993333333334 1.7499733333333336 2.9999666666666673
vertex 0 1.7499733333333336 2.9999666666666673
endloop
endfacet
facet normal 0 0 1
outer loop
vertex 0 3.3790466666666674 2.9999666666666673
vertex 0 1.7499733333333336 2.9999666666666673
vertex 4.668993333333334 1.7499733333333336 2.9999666666666673
endloop
endfacet
facet normal 0 0 1
outer loop
vertex 0 3.3790466666666674 2.9999666666666673
vertex 4.668993333333334 1.7499733333333336 2.9999666666666673
vertex 4.619420000000001 1.913426666666667 2.9999666666666673
endloop
endfacet
facet normal 0 0 1
outer loop
vertex 0 3.3790466666666674 2.9999666666666673
vertex 4.619420000000001 1.913426666666667 2.9999666666666673
vertex 4.157313333333334 2.7778400000000003 2.9999666666666673
endloop
endfacet
facet normal 0 0 0.9999999999999999
outer loop
vertex 0 3.3790466666666674 2.9999666666666673
vertex 4.157313333333334 2.7778400000000003 2.9999666666666673
vertex 3.5355666666666674 3.5355666666666674 2.9999666666666673
endloop
endfacet
facet normal 0 0 1
outer loop
vertex 0 3.3790466666666674 2.9999666666666673
vertex 3.5355666666666674 3.5355666666666674 2.9999666666666673
vertex 2.7778400000000003 4.157313333333334 2.9999666666666673
endloop
endfacet
facet normal 0 0 1
outer loop
vertex 0 3.3790466666666674 2.9999666666666673
vertex 2.7778400000000003 4.157313333333334 2.9999666666666673
vertex 1.913426666666667 4.619420000000001 2.9999666666666673
endloop
endfacet
facet normal 0 0 1
outer loop
vertex 0 3.3790466666666674 2.9999666666666673
vertex 1.913426666666667 4.619420000000001 2.9999666666666673
vertex 0.9754333333333335 4.903946666666667 2.9999666666666673
endloop
endfacet
facet normal 0 0 1
outer loop
vertex 0 3.3790466666666674 2.9999666666666673
vertex 0.9754333333333335 4.903946666666667 2.9999666666666673
vertex 0 4.999973333333334 2.9999666666666673
endloop
endfacet
facet normal 0 0 1
outer loop
vertex 0 3.3790466666666674 2.9999666666666673
vertex 0 4.999973333333334 2.9999666666666673
vertex -0.9754333333333335 4.903946666666667 2.9999666666666673
endloop
endfacet
facet normal 0 0 1
outer loop
vertex 0 1.7499733333333336 2.9999666666666673
vertex 0.3413800000000001 1.716346666666667 2.9999666666666673
vertex 4.6791333333333345 1.716346666666667 2.9999666666666673
endloop
endfacet
facet normal 0 0 1
outer loop
vertex 0 1.7499733333333336 2.9999666666666673
vertex 4.6791333333333345 1.716346666666667 2.9999666666666673
vertex 4.668993333333334 1.7499733333333336 2.9999666666666673
endloop
endfacet
facet normal 0 0 1
outer loop
vertex -4.668993333333334 1.7499733333333336 2.9999666666666673
vertex -4.6791333333333345 1.716346666666667 2.9999666666666673
vertex -0.3413800000000001 1.716346666666667 2.9999666666666673
endloop
endfacet
facet normal 0 0 1
outer loop
vertex -4.668993333333334 1.7499733333333336 2.9999666666666673
vertex -0.3413800000000001 1.716346666666667 2.9999666666666673
vertex 0 1.7499733333333336 2.9999666666666673
endloop
endfacet
facet normal 0 0 1
outer loop
vertex 0.3413800000000001 1.716346666666667 2.9999666666666673
vertex 0.6696733333333335 1.616766666666667 2.9999666666666673
vertex 4.709380000000001 1.616766666666667 2.9999666666666673
endloop
endfacet
facet normal 0 0 1
outer loop
vertex 0.3413800000000001 1.716346666666667 2.9999666666666673
vertex 4.709380000000001 1.616766666666667 2.9999666666666673
vertex 4.6791333333333345 1.716346666666667 2.9999666666666673
endloop
endfacet
facet normal 0 0 0.9999999999999999
outer loop
vertex -4.6791333333333345 1.716346666666667 2.9999666666666673
vertex -4.709380000000001 1.616766666666667 2.9999666666666673
vertex -0.6696733333333335 1.616766666666667 2.9999666666666673
endloop
endfacet
facet normal 0 0 1
outer loop
vertex -4.6791333333333345 1.716346666666667 2.9999666666666673
vertex -0.6696733333333335 1.616766666666667 2.9999666666666673
vertex -0.3413800000000001 1.716346666666667 2.9999666666666673
endloop
endfacet
facet normal 0 0 1
outer loop
vertex 0.6696733333333335 1.616766666666667 2.9999666666666673
vertex 0.9722266666666668 1.4550466666666668 2.9999666666666673
vertex 4.758433333333334 1.4550466666666668 2.9999666666666673
endloop
endfacet
facet normal 0 0 1
outer loop
vertex 0.6696733333333335 1.616766666666667 2.9999666666666673
vertex 4.758433333333334 1.4550466666666668 2.9999666666666673
vertex 4.709380000000001 1.616766666666667 2.9999666666666673
endloop
endfacet
facet normal 0 0 1
outer loop
vertex -4.709380000000001 1.616766666666667 2.9999666666666673
vertex -4.758433333333334 1.4550466666666668 2.9999666666666673
vertex -0.9722266666666668 1.4550466666666668 2.9999666666666673
endloop
endfacet
facet normal 0 0 1
outer loop
vertex -4.709380000000001 1.616766666666667 2.9999666666666673
vertex -0.9722266666666668 1.4550466666666668 2.9999666666666673
vertex -0.6696733333333335 1.616766666666667 2.9999666666666673
endloop
endfacet
facet normal 0 0 1
outer loop
vertex 0.9722266666666668 1.4550466666666668 2.9999666666666673
vertex 1.237426666666667 1.237426666666667 2.9999666666666673
vertex 4.8244733333333345 1.237426666666667 2.9999666666666673
endloop
endfacet
facet normal 0 0 1
outer loop
vertex 0.9722266666666668 1.4550466666666668 2.9999666666666673
vertex 4.8244733333333345 1.237426666666667 2.9999666666666673
vertex 4.758433333333334 1.4550466666666668 2.9999666666666673
endloop
endfacet
facet normal 0 0 1
outer loop
vertex -4.758433333333334 1.4550466666666668 2.9999666666666673
vertex -4.8244733333333345 1.237426666666667 2.9999666666666673
vertex -1.237426666666667 1.237426666666667 2.9999666666666673
endloop
endfacet
facet normal 0 0 1
outer loop
vertex -4.758433333333334 1.4550466666666668 2.9999666666666673
vertex -1.237426666666667 1.237426666666667 2.9999666666666673
vertex -0.9722266666666668 1.4550466666666668 2.9999666666666673
endloop
endfacet
facet normal 0 0 1
outer loop
vertex 3.4650200000000004 1.0789133333333336 2.9999666666666673
vertex 1.237426666666667 1.237426666666667 2.9999666666666673
vertex 1.4550466666666668 0.9722266666666668 2.9999666666666673
endloop
endfacet
facet normal 0 0 1
outer loop
vertex 3.4650200000000004 1.0789133333333336 2.9999666666666673
vertex 1.4550466666666668 0.9722266666666668 2.9999666666666673
vertex 4.904206666666668 0.9722266666666668 2.9999666666666673
endloop
endfacet
facet normal 0 0 1
outer loop
vertex 3.4650200000000004 1.0789133333333336 2.9999666666666673
vertex 4.904206666666668 0.9722266666666668 2.9999666666666673
vertex 4.903946666666667 0.9754333333333335 2.9999666666666673
endloop
endfacet
facet normal 0 0 0.9999999999999999
outer loop
vertex 3.4650200000000004 1.0789133333333336 2.9999666666666673
vertex 4.903946666666667 0.9754333333333335 2.9999666666666673
vertex 4.8244733333333345 1.237426666666667 2.9999666666666673
endloop
endfacet
facet normal 0 0 1
outer loop
vertex 3.4650200000000004 1.0789133333333336 2.9999666666666673
vertex 4.8244733333333345 1.237426666666667 2.9999666666666673
vertex 1.237426666666667 1.237426666666667 2.9999666666666673
endloop
endfacet
facet normal 0 0 0.9999999999999999
outer loop
vertex -3.4650200000000004 1.0789133333333336 2.9999666666666673
vertex -4.8244733333333345 1.237426666666667 2.9999666666666673
vertex -4.903946666666667 0.9754333333333335 2.9999666666666673
endloop
endfacet
facet normal 0 0 1
outer loop
vertex -3.4650200000000004 1.0789133333333336 2.9999666666666673
vertex -4.903946666666667 0.9754333333333335 2.9999666666666673
vertex -4.904206666666668 0.9722266666666668 2.9999666666666673
endloop
endfacet
facet normal 0 0 1
outer loop
vertex -3.4650200000000004 1.0789133333333336 2.9999666666666673
vertex -4.904206666666668 0.9722266666666668 2.9999666666666673
vertex -1.4550466666666668 0.9722266666666668 2.9999666666666673
endloop
endfacet
facet normal 0 0 1
outer loop
vertex -3.4650200000000004 1.0789133333333336 2.9999666666666673
vertex -1.4550466666666668 0.9722266666666668 2.9999666666666673
vertex -1.237426666666667 1.237426666666667 2.9999666666666673
endloop
endfacet
facet normal 0 0 1
outer loop
vertex -3.4650200000000004 1.0789133333333336 2.9999666666666673
vertex -1.237426666666667 1.237426666666667 2.9999666666666673
vertex -4.8244733333333345 1.237426666666667 2.9999666666666673
endloop
endfacet
facet normal 0 0 1
outer loop
vertex 1.4550466666666668 0.9722266666666668 2.9999666666666673
vertex 1.616766666666667 0.6696733333333335 2.9999666666666673
vertex 4.934020000000001 0.6696733333333335 2.9999666666666673
endloop
endfacet
facet normal 0 0 1
outer loop
vertex 1.4550466666666668 0.9722266666666668 2.9999666666666673
vertex 4.934020000000001 0.6696733333333335 2.9999666666666673
vertex 4.904206666666668 0.9722266666666668 2.9999666666666673
endloop
endfacet
facet normal 0 0 1
outer loop
vertex -4.904206666666668 0.9722266666666668 2.9999666666666673
vertex -4.934020000000001 0.6696733333333335 2.9999666666666673
vertex -1.616766666666667 0.6696733333333335 2.9999666666666673
endloop
endfacet
facet normal 0 0 1
outer loop
vertex -4.904206666666668 0.9722266666666668 2.9999666666666673
vertex -1.616766666666667 0.6696733333333335 2.9999666666666673
vertex -1.4550466666666668 0.9722266666666668 2.9999666666666673
endloop
endfacet
facet normal 0 0 0.9999999999999999
outer loop
vertex 1.616766666666667 0.6696733333333335 2.9999666666666673
vertex 1.716346666666667 0.3413800000000001 2.9999666666666673
vertex 4.966346666666667 0.3413800000000001 2.9999666666666673
endloop
endfacet
facet normal 0 0 1
outer loop
vertex 1.616766666666667 0.6696733333333335 2.9999666666666673
vertex 4.966346666666667 0.3413800000000001 2.9999666666666673
vertex 4.934020000000001 0.6696733333333335 2.9999666666666673
endloop
endfacet
facet normal 0 0 0.9999999999999999
outer loop
vertex -4.934020000000001 0.6696733333333335 2.9999666666666673
vertex -4.966346666666667 0.3413800000000001 2.9999666666666673
vertex -1.716346666666667 0.3413800000000001 2.9999666666666673
endloop
endfacet
facet normal 0 0 1
outer loop
vertex -4.934020000000001 0.6696733333333335 2.9999666666666673
vertex -1.716346666666667 0.3413800000000001 2.9999666666666673
vertex -1.616766666666667 0.6696733333333335 2.9999666666666673
endloop
endfacet
facet normal 0 0 1
outer loop
vertex 1.716346666666667 0.3413800000000001 2.9999666666666673
vertex 1.7499733333333336 0 2.9999666666666673
vertex 4.999973333333334 0 2.9999666666666673
endloop
endfacet
facet normal 0 0 1
outer loop
vertex 1.716346666666667 0.3413800000000001 2.9999666666666673
vertex 4.999973333333334 0 2.9999666666666673
vertex 4.966346666666667 0.3413800000000001 2.9999666666666673
endloop
endfacet
facet normal 0 0 1
outer loop
vertex -4.966346666666667 0.3413800000000001 2.9999666666666673
vertex -4.999973333333334 0 2.9999666666666673
vertex -1.7499733333333336 0 2.9999666666666673
endloop
endfacet
facet normal 0 0 1
outer loop
vertex -4.966346666666667 0.3413800000000001 2.9999666666666673
vertex -1.7499733333333336 0 2.9999666666666673
vertex -1.716346666666667 0.3413800000000001 2.9999666666666673
endloop
endfacet
facet normal 0 0 1
outer loop
vertex 1.7499733333333336 0 2.9999666666666673
vertex 1.716346666666667 -0.3413800000000001 2.9999666666666673
vertex 4.966346666666667 -0.3413800000000001 2.9999666666666673
endloop
endfacet
facet normal 0 0 1
outer loop
vertex 1.7499733333333336 0 2.9999666666666673
vertex 4.966346666666667 -0.3413800000000001 2.9999666666666673
vertex 4.999973333333334 0 2.9999666666666673
endloop
endfacet
facet normal 0 0 1
outer loop
vertex -4.999973333333334 0 2.9999666666666673
vertex -4.966346666666667 -0.3413800000000001 2.9999666666666673
vertex -1.716346666666667 -0.3413800000000001 2.9999666666666673
endloop
endfacet
facet normal 0 0 1
outer loop
vertex -4.999973333333334 0 2.9999666666666673
vertex -1.716346666666667 -0.3413800000000001 2.9999666666666673
vertex -1.7499733333333336 0 2.9999666666666673
endloop
endfacet
facet normal 0 0 1
outer loop
vertex 1.716346666666667 -0.3413800000000001 2.9999666666666673
vertex 1.616766666666667 -0.6696733333333335 2.9999666666666673
vertex 4.934020000000001 -0.6696733333333335 2.9999666666666673
endloop
endfacet
facet normal 0 0 0.9999999999999999
outer loop
vertex 1.716346666666667 -0.3413800000000001 2.9999666666666673
vertex 4.934020000000001 -0.6696733333333335 2.9999666666666673
vertex 4.966346666666667 -0.3413800000000001 2.9999666666666673
endloop
endfacet
facet normal 0 0 1
outer loop
vertex -4.966346666666667 -0.3413800000000001 2.9999666666666673
vertex -4.934020000000001 -0.6696733333333335 2.9999666666666673
vertex -1.616766666666667 -0.6696733333333335 2.9999666666666673
endloop
endfacet
facet normal 0 0 0.9999999999999999
outer loop
vertex -4.966346666666667 -0.3413800000000001 2.9999666666666673
vertex -1.616766666666667 -0.6696733333333335 2.9999666666666673
vertex -1.716346666666667 -0.3413800000000001 2.9999666666666673
endloop
endfacet
facet normal 0 0 1
outer loop
vertex 1.616766666666667 -0.6696733333333335 2.9999666666666673
vertex 1.4550466666666668 -0.9722266666666668 2.9999666666666673
vertex 4.904206666666668 -0.9722266666666668 2.9999666666666673
endloop
endfacet
facet normal 0 0 1
outer loop
vertex 1.616766666666667 -0.6696733333333335 2.9999666666666673
vertex 4.904206666666668 -0.9722266666666668 2.9999666666666673
vertex 4.934020000000001 -0.6696733333333335 2.9999666666666673
endloop
endfacet
facet normal 0 0 1
outer loop
vertex -4.934020000000001 -0.6696733333333335 2.9999666666666673
vertex -4.904206666666668 -0.9722266666666668 2.9999666666666673
vertex -1.4550466666666668 -0.9722266666666668 2.9999666666666673
endloop
endfacet
facet normal 0 0 1
outer loop
vertex -4.934020000000001 -0.6696733333333335 2.9999666666666673
vertex -1.4550466666666668 -0.9722266666666668 2.9999666666666673
vertex -1.616766666666667 -0.6696733333333335 2.9999666666666673
endloop
endfacet
facet normal 0 0 1
outer loop
vertex 3.4650200000000004 -1.0789133333333336 2.9999666666666673
vertex 1.4550466666666668 -0.9722266666666668 2.9999666666666673
vertex 1.237426666666667 -1.237426666666667 2.9999666666666673
endloop
endfacet
facet normal 0 0 1
outer loop
vertex 3.4650200000000004 -1.0789133333333336 2.9999666666666673
vertex 1.237426666666667 -1.237426666666667 2.9999666666666673
vertex 4.8244733333333345 -1.237426666666667 2.9999666666666673
endloop
endfacet
facet normal 0 0 0.9999999999999999
outer loop
vertex 3.4650200000000004 -1.0789133333333336 2.9999666666666673
vertex 4.8244733333333345 -1.237426666666667 2.9999666666666673
vertex 4.903946666666667 -0.9754333333333335 2.9999666666666673
endloop
endfacet
facet normal 0 0 1
outer loop
vertex 3.4650200000000004 -1.0789133333333336 2.9999666666666673
vertex 4.903946666666667 -0.9754333333333335 2.9999666666666673
vertex 4.904206666666668 -0.9722266666666668 2.9999666666666673
endloop
endfacet
facet normal 0 0 1
outer loop
vertex 3.4650200000000004 -1.0789133333333336 2.9999666666666673
vertex 4.904206666666668 -0.9722266666666668 2.9999666666666673
vertex 1.4550466666666668 -0.9722266666666668 2.9999666666666673
endloop
endfacet
facet normal 0 0 1
outer loop
vertex -3.4650200000000004 -1.0789133333333336 2.9999666666666673
vertex -4.904206666666668 -0.9722266666666668 2.9999666666666673
vertex -4.903946666666667 -0.9754333333333335 2.9999666666666673
endloop
endfacet
facet normal 0 0 0.9999999999999999
outer loop
vertex -3.4650200000000004 -1.0789133333333336 2.9999666666666673
vertex -4.903946666666667 -0.9754333333333335 2.9999666666666673
vertex -4.8244733333333345 -1.237426666666667 2.9999666666666673
endloop
endfacet
facet normal 0 0 1
outer loop
vertex -3.4650200000000004 -1.0789133333333336 2.9999666666666673
vertex -4.8244733333333345 -1.237426666666667 2.9999666666666673
vertex -1.237426666666667 -1.237426666666667 2.9999666666666673
endloop
endfacet
facet normal 0 0 1
outer loop
vertex -3.4650200000000004 -1.0789133333333336 2.9999666666666673
vertex -1.237426666666667 -1.237426666666667 2.9999666666666673
vertex -1.4550466666666668 -0.9722266666666668 2.9999666666666673
endloop
endfacet
facet normal 0 0 1
outer loop
vertex -3.4650200000000004 -1.0789133333333336 2.9999666666666673
vertex -1.4550466666666668 -0.9722266666666668 2.9999666666666673
vertex -4.904206666666668 -0.9722266666666668 2.9999666666666673
endloop
endfacet
facet normal 0 0 1
outer loop
vertex 1.237426666666667 -1.237426666666667 2.9999666666666673
vertex 0.9722266666666668 -1.4550466666666668 2.9999666666666673
vertex 4.758433333333334 -1.4550466666666668 2.9999666666666673
endloop
endfacet
facet normal 0 0 1
outer loop
vertex 1.237426666666667 -1.237426666666667 2.9999666666666673
vertex 4.758433333333334 -1.4550466666666668 2.9999666666666673
vertex 4.8244733333333345 -1.237426666666667 2.9999666666666673
endloop
endfacet
facet normal 0 0 1
outer loop
vertex -4.8244733333333345 -1.237426666666667 2.9999666666666673
vertex -4.758433333333334 -1.4550466666666668 2.9999666666666673
vertex -0.9722266666666668 -1.4550466666666668 2.9999666666666673
endloop
endfacet
facet normal 0 0 1
outer loop
vertex -4.8244733333333345 -1.237426666666667 2.9999666666666673
vertex -0.9722266666666668 -1.4550466666666668 2.9999666666666673
vertex -1.237426666666667 -1.237426666666667 2.9999666666666673
endloop
endfacet
facet normal 0 0 1
outer loop
vertex 0.9722266666666668 -1.4550466666666668 2.9999666666666673
vertex 0.6696733333333335 -1.616766666666667 2.9999666666666673
vertex 4.709380000000001 -1.616766666666667 2.9999666666666673
endloop
endfacet
facet normal 0 0 1
outer loop
vertex 0.9722266666666668 -1.4550466666666668 2.9999666666666673
vertex 4.709380000000001 -1.616766666666667 2.9999666666666673
vertex 4.758433333333334 -1.4550466666666668 2.9999666666666673
endloop
endfacet
facet normal 0 0 1
outer loop
vertex -4.758433333333334 -1.4550466666666668 2.9999666666666673
vertex -4.709380000000001 -1.616766666666667 2.9999666666666673
vertex -0.6696733333333335 -1.616766666666667 2.9999666666666673
endloop
endfacet
facet normal 0 0 1
outer loop
vertex -4.758433333333334 -1.4550466666666668 2.9999666666666673
vertex -0.6696733333333335 -1.616766666666667 2.9999666666666673
vertex -0.9722266666666668 -1.4550466666666668 2.9999666666666673
endloop
endfacet
facet normal 0 0 1
outer loop
vertex 0.6696733333333335 -1.616766666666667 2.9999666666666673
vertex 0.3413800000000001 -1.716346666666667 2.9999666666666673
vertex 4.6791333333333345 -1.716346666666667 2.9999666666666673
endloop
endfacet
facet normal 0 0 0.9999999999999999
outer loop
vertex 0.6696733333333335 -1.616766666666667 2.9999666666666673
vertex 4.6791333333333345 -1.716346666666667 2.9999666666666673
vertex 4.709380000000001 -1.616766666666667 2.9999666666666673
endloop
endfacet
facet normal 0 0 1
outer loop
vertex -4.709380000000001 -1.616766666666667 2.9999666666666673
vertex -4.6791333333333345 -1.716346666666667 2.9999666666666673
vertex -0.3413800000000001 -1.716346666666667 2.9999666666666673
endloop
endfacet
facet normal 0 0 0.9999999999999999
outer loop
vertex -4.709380000000001 -1.616766666666667 2.9999666666666673
vertex -0.3413800000000001 -1.716346666666667 2.9999666666666673
vertex -0.6696733333333335 -1.616766666666667 2.9999666666666673
endloop
endfacet
facet normal 0 0 1
outer loop
vertex 0.3413800000000001 -1.716346666666667 2.9999666666666673
vertex 0 -1.7499733333333336 2.9999666666666673
vertex 4.668993333333334 -1.7499733333333336 2.9999666666666673
endloop
endfacet
facet normal 0 0 1
outer loop
vertex 0.3413800000000001 -1.716346666666667 2.9999666666666673
vertex 4.668993333333334 -1.7499733333333336 2.9999666666666673
vertex 4.6791333333333345 -1.716346666666667 2.9999666666666673
endloop
endfacet
facet normal 0 0 1
outer loop
vertex -4.6791333333333345 -1.716346666666667 2.9999666666666673
vertex -4.668993333333334 -1.7499733333333336 2.9999666666666673
vertex 0 -1.7499733333333336 2.9999666666666673
endloop
endfacet
facet normal 0 0 1
outer loop
vertex -4.6791333333333345 -1.716346666666667 2.9999666666666673
vertex 0 -1.7499733333333336 2.9999666666666673
vertex -0.3413800000000001 -1.716346666666667 2.9999666666666673
endloop
endfacet
facet normal 0 0 1
outer loop
vertex 0 -3.3790466666666674 2.9999666666666673
vertex 0 -1.7499733333333336 2.9999666666666673
vertex -4.668993333333334 -1.7499733333333336 2.9999666666666673
endloop
endfacet
facet normal 0 0 1
outer loop
vertex 0 -3.3790466666666674 2.9999666666666673
vertex -4.668993333333334 -1.7499733333333336 2.9999666666666673
vertex -4.619420000000001 -1.913426666666667 2.9999666666666673
endloop
endfacet
facet normal 0 0 1
outer loop
vertex 0 -3.3790466666666674 2.9999666666666673
vertex -4.619420000000001 -1.913426666666667 2.9999666666666673
vertex -4.157313333333334 -2.7778400000000003 2.9999666666666673
endloop
endfacet
facet normal 0 0 0.9999999999999999
outer loop
vertex 0 -3.3790466666666674 2.9999666666666673
vertex -4.157313333333334 -2.7778400000000003 2.9999666666666673
vertex -3.5355666666666674 -3.5355666666666674 2.9999666666666673
endloop
endfacet
facet normal 0 0 1
outer loop
vertex 0 -3.3790466666666674 2.9999666666666673
vertex -3.5355666666666674 -3.5355666666666674 2.9999666666666673
vertex -2.7778400000000003 -4.157313333333334 2.9999666666666673
endloop
endfacet
facet normal 0 0 1
outer loop
vertex 0 -3.3790466666666674 2.9999666666666673
vertex -2.7778400000000003 -4.157313333333334 2.9999666666666673
vertex -1.913426666666667 -4.619420000000001 2.9999666666666673
endloop
endfacet
facet normal 0 0 1
outer loop
vertex 0 -3.3790466666666674 2.9999666666666673
vertex -1.913426666666667 -4.619420000000001 2.9999666666666673
vertex -0.9754333333333335 -4.903946666666667 2.9999666666666673
endloop
endfacet
facet normal 0 0 1
outer loop
vertex 0 -3.3790466666666674 2.9999666666666673
vertex -0.9754333333333335 -4.903946666666667 2.9999666666666673
vertex 0 -4.999973333333334 2.9999666666666673
endloop
endfacet
facet normal 0 0 1
outer loop
vertex 0 -3.3790466666666674 2.9999666666666673
vertex 0 -4.999973333333334 2.9999666666666673
vertex 0.9754333333333335 -4.903946666666667 2.9999666666666673
endloop
endfacet
facet normal 0 0 1
outer loop
vertex 0 -3.3790466666666674 2.9999666666666673
vertex 0.9754333333333335 -4.903946666666667 2.9999666666666673
vertex 1.913426666666667 -4.619420000000001 2.9999666666666673
endloop
endfacet
facet normal 0 0 1
outer loop
vertex 0 -3.3790466666666674 2.9999666666666673
vertex 1.913426666666667 -4.619420000000001 2.9999666666666673
vertex 2.7778400000000003 -4.157313333333334 2.9999666666666673
endloop
endfacet
facet normal 0 0 1
outer loop
vertex 0 -3.3790466666666674 2.9999666666666673
vertex 2.7778400000000003 -4.157313333333334 2.9999666666666673
vertex 3.5355666666666674 -3.5355666666666674 2.9999666666666673
endloop
endfacet
facet normal 0 0 0.9999999999999999
outer loop
vertex 0 -3.3790466666666674 2.9999666666666673
vertex 3.5355666666666674 -3.5355666666666674 2.9999666666666673
vertex 4.157313333333334 -2.7778400000000003 2.9999666666666673
endloop
endfacet
facet normal 0 0 1
outer loop
vertex 0 -3.3790466666666674 2.9999666666666673
vertex 4.157313333333334 -2.7778400000000003 2.9999666666666673
vertex 4.619420000000001 -1.913426666666667 2.9999666666666673
endloop
endfacet
facet normal 0 0 1
outer loop
vertex 0 -3.3790466666666674 2.9999666666666673
vertex 4.619420000000001 -1.913426666666667 2.9999666666666673
vertex 4.668993333333334 -1.7499733333333336 2.9999666666666673
endloop
endfacet
facet normal 0 0 1
outer loop
vertex 0 -3.3790466666666674 2.9999666666666673
vertex 4.668993333333334 -1.7499733333333336 2.9999666666666673
vertex 0 -1.7499733333333336 2.9999666666666673
endloop
endfacet
endsolid JSCAD
