solid JSCAD
facet normal 0.9999999999999999 0 0
outer loop
vertex 51.49958222328989 0 -0.8333767761085953
vertex 51.49958222328989 -50.49987481865083 0.49985370231952975
vertex 51.49958222328989 -50.49987481865083 -1.5004229236867264
endloop
endfacet
facet normal 1 0 0
outer loop
vertex 51.49958222328989 0 -0.8333767761085953
vertex 51.49958222328989 -50.49987481865083 -1.5004229236867264
vertex 51.49958222328989 -50.000021116331304 -1.5004229236867264
endloop
endfacet
facet normal 1 0 0
outer loop
vertex 51.49958222328989 0 -0.8333767761085953
vertex 51.49958222328989 -50.000021116331304 -1.5004229236867264
vertex 51.49958222328989 50.000021116331304 -1.5004229236867264
endloop
endfacet
facet normal 1 0 0
outer loop
vertex 51.49958222328989 0 -0.8333767761085953
vertex 51.49958222328989 50.000021116331304 -1.5004229236867264
vertex 51.49958222328989 50.49987481865083 -1.5004229236867264
endloop
endfacet
facet normal 0.9999999999999999 0 0
outer loop
vertex 51.49958222328989 0 -0.8333767761085953
vertex 51.49958222328989 50.49987481865083 -1.5004229236867264
vertex 51.49958222328989 50.49987481865083 0.49985370231952975
endloop
endfacet
facet normal 1 0 0
outer loop
vertex 51.49958222328989 0 -0.8333767761085953
vertex 51.49958222328989 50.49987481865083 0.49985370231952975
vertex 51.49958222328989 -50.49987481865083 0.49985370231952975
endloop
endfacet
facet normal 0.9953364426332423 0.0964643248367105 0
outer loop
vertex 51.49958222328989 50.49987481865083 0.49985370231952975
vertex 51.49958222328989 50.49987481865083 -1.5004229236867264
vertex 51.48062225527087 50.69550721593796 -1.5004229236867264
endloop
endfacet
facet normal 0.9953364426332423 0.0964643248367105 0
outer loop
vertex 51.49958222328989 50.49987481865083 0.49985370231952975
vertex 51.48062225527087 50.69550721593796 -1.5004229236867264
vertex 51.48062225527087 50.69550721593796 0.49985370231952975
endloop
endfacet
facet normal 0.9567272590994892 0.2909861709703383 0
outer loop
vertex 51.48062225527087 50.69550721593796 0.49985370231952975
vertex 51.48062225527087 50.69550721593796 -1.5004229236867264
vertex 51.423742351213825 50.882521445943716 -1.5004229236867264
endloop
endfacet
facet normal 0.9567272590994892 0.2909861709703383 0
outer loop
vertex 51.48062225527087 50.69550721593796 0.49985370231952975
vertex 51.423742351213825 50.882521445943716 -1.5004229236867264
vertex 51.423742351213825 50.882521445943716 0.49985370231952975
endloop
endfacet
facet normal 0.8827173789330214 0.46990427634744586 0
outer loop
vertex 51.423742351213825 50.882521445943716 0.49985370231952975
vertex 51.423742351213825 50.882521445943716 -1.5004229236867264
vertex 51.33152796130315 51.05574660829927 -1.5004229236867264
endloop
endfacet
facet normal 0.8827173789330214 0.46990427634744586 0
outer loop
vertex 51.423742351213825 50.882521445943716 0.49985370231952975
vertex 51.33152796130315 51.05574660829927 -1.5004229236867264
vertex 51.33152796130315 51.05574660829927 0.49985370231952975
endloop
endfacet
facet normal 0.773957299203321 0.6332377902572627 0
outer loop
vertex 51.33152796130315 51.05574660829927 0.49985370231952975
vertex 51.33152796130315 51.05574660829927 -1.5004229236867264
vertex 51.20742635245141 51.20742635245141 -1.5004229236867264
endloop
endfacet
facet normal 0.773957299203321 0.6332377902572627 0
outer loop
vertex 51.33152796130315 51.05574660829927 0.49985370231952975
vertex 51.20742635245141 51.20742635245141 -1.5004229236867264
vertex 51.20742635245141 51.20742635245141 0.49985370231952975
endloop
endfacet
facet normal 0.6332377902572627 0.773957299203321 0
outer loop
vertex 51.20742635245141 51.20742635245141 0.49985370231952975
vertex 51.20742635245141 51.20742635245141 -1.5004229236867264
vertex 51.05574660829927 51.33152796130315 -1.5004229236867264
endloop
endfacet
facet normal 0.6332377902572627 0.773957299203321 0
outer loop
vertex 51.20742635245141 51.20742635245141 0.49985370231952975
vertex 51.05574660829927 51.33152796130315 -1.5004229236867264
vertex 51.05574660829927 51.33152796130315 0.49985370231952975
endloop
endfacet
facet normal 0.46990427634744586 0.8827173789330214 0
outer loop
vertex 51.05574660829927 51.33152796130315 0.49985370231952975
vertex 51.05574660829927 51.33152796130315 -1.5004229236867264
vertex 50.882521445943716 51.423742351213825 -1.5004229236867264
endloop
endfacet
facet normal 0.46990427634744586 0.8827173789330214 0
outer loop
vertex 51.05574660829927 51.33152796130315 0.49985370231952975
vertex 50.882521445943716 51.423742351213825 -1.5004229236867264
vertex 50.882521445943716 51.423742351213825 0.49985370231952975
endloop
endfacet
facet normal 0.2909861709703383 0.9567272590994892 0
outer loop
vertex 50.882521445943716 51.423742351213825 0.49985370231952975
vertex 50.882521445943716 51.423742351213825 -1.5004229236867264
vertex 50.69550721593796 51.48062225527087 -1.5004229236867264
endloop
endfacet
facet normal 0.2909861709703383 0.9567272590994892 0
outer loop
vertex 50.882521445943716 51.423742351213825 0.49985370231952975
vertex 50.69550721593796 51.48062225527087 -1.5004229236867264
vertex 50.69550721593796 51.48062225527087 0.49985370231952975
endloop
endfacet
facet normal 0.0964643248367105 0.9953364426332423 0
outer loop
vertex 50.69550721593796 51.48062225527087 0.49985370231952975
vertex 50.69550721593796 51.48062225527087 -1.5004229236867264
vertex 50.49987481865083 51.49958222328989 -1.5004229236867264
endloop
endfacet
facet normal 0.0964643248367105 0.9953364426332423 0
outer loop
vertex 50.69550721593796 51.48062225527087 0.49985370231952975
vertex 50.49987481865083 51.49958222328989 -1.5004229236867264
vertex 50.49987481865083 51.49958222328989 0.49985370231952975
endloop
endfacet
facet normal 0 1 0
outer loop
vertex 50.49987481865083 51.49958222328989 0.49985370231952975
vertex 50.49987481865083 51.49958222328989 -1.5004229236867264
vertex -50.49987481865083 51.49958222328989 -1.5004229236867264
endloop
endfacet
facet normal 0 1 0
outer loop
vertex 50.49987481865083 51.49958222328989 0.49985370231952975
vertex -50.49987481865083 51.49958222328989 -1.5004229236867264
vertex -50.49987481865083 51.49958222328989 0.49985370231952975
endloop
endfacet
facet normal -0.0964643248367105 0.9953364426332423 0
outer loop
vertex -50.49987481865083 51.49958222328989 0.49985370231952975
vertex -50.49987481865083 51.49958222328989 -1.5004229236867264
vertex -50.69550721593796 51.48062225527087 -1.5004229236867264
endloop
endfacet
facet normal -0.0964643248367105 0.9953364426332423 0
outer loop
vertex -50.49987481865083 51.49958222328989 0.49985370231952975
vertex -50.69550721593796 51.48062225527087 -1.5004229236867264
vertex -50.69550721593796 51.48062225527087 0.49985370231952975
endloop
endfacet
facet normal -0.2909861709703383 0.9567272590994892 0
outer loop
vertex -50.69550721593796 51.48062225527087 0.49985370231952975
vertex -50.69550721593796 51.48062225527087 -1.5004229236867264
vertex -50.882521445943716 51.423742351213825 -1.5004229236867264
endloop
endfacet
facet normal -0.2909861709703383 0.9567272590994892 0
outer loop
vertex -50.69550721593796 51.48062225527087 0.49985370231952975
vertex -50.882521445943716 51.423742351213825 -1.5004229236867264
vertex -50.882521445943716 51.423742351213825 0.49985370231952975
endloop
endfacet
facet normal -0.46990427634744586 0.8827173789330214 0
outer loop
vertex -50.882521445943716 51.423742351213825 0.49985370231952975
vertex -50.882521445943716 51.423742351213825 -1.5004229236867264
vertex -51.05574660829927 51.33152796130315 -1.5004229236867264
endloop
endfacet
facet normal -0.46990427634744586 0.8827173789330214 0
outer loop
vertex -50.882521445943716 51.423742351213825 0.49985370231952975
vertex -51.05574660829927 51.33152796130315 -1.5004229236867264
vertex -51.05574660829927 51.33152796130315 0.49985370231952975
endloop
endfacet
facet normal -0.6332377902572627 0.773957299203321 0
outer loop
vertex -51.05574660829927 51.33152796130315 0.49985370231952975
vertex -51.05574660829927 51.33152796130315 -1.5004229236867264
vertex -51.20742635245141 51.20742635245141 -1.5004229236867264
endloop
endfacet
facet normal -0.6332377902572627 0.773957299203321 0
outer loop
vertex -51.05574660829927 51.33152796130315 0.49985370231952975
vertex -51.20742635245141 51.20742635245141 -1.5004229236867264
vertex -51.20742635245141 51.20742635245141 0.49985370231952975
endloop
endfacet
facet normal -0.773957299203321 0.6332377902572627 0
outer loop
vertex -51.20742635245141 51.20742635245141 0.49985370231952975
vertex -51.20742635245141 51.20742635245141 -1.5004229236867264
vertex -51.33152796130315 51.05574660829927 -1.5004229236867264
endloop
endfacet
facet normal -0.773957299203321 0.6332377902572627 0
outer loop
vertex -51.20742635245141 51.20742635245141 0.49985370231952975
vertex -51.33152796130315 51.05574660829927 -1.5004229236867264
vertex -51.33152796130315 51.05574660829927 0.49985370231952975
endloop
endfacet
facet normal -0.8827173789330214 0.46990427634744586 0
outer loop
vertex -51.33152796130315 51.05574660829927 0.49985370231952975
vertex -51.33152796130315 51.05574660829927 -1.5004229236867264
vertex -51.423742351213825 50.882521445943716 -1.5004229236867264
endloop
endfacet
facet normal -0.8827173789330214 0.46990427634744586 0
outer loop
vertex -51.33152796130315 51.05574660829927 0.49985370231952975
vertex -51.423742351213825 50.882521445943716 -1.5004229236867264
vertex -51.423742351213825 50.882521445943716 0.49985370231952975
endloop
endfacet
facet normal -0.9567272590994892 0.2909861709703383 0
outer loop
vertex -51.423742351213825 50.882521445943716 0.49985370231952975
vertex -51.423742351213825 50.882521445943716 -1.5004229236867264
vertex -51.48062225527087 50.69550721593796 -1.5004229236867264
endloop
endfacet
facet normal -0.9567272590994892 0.2909861709703383 0
outer loop
vertex -51.423742351213825 50.882521445943716 0.49985370231952975
vertex -51.48062225527087 50.69550721593796 -1.5004229236867264
vertex -51.48062225527087 50.69550721593796 0.49985370231952975
endloop
endfacet
facet normal -0.9953364426332423 0.0964643248367105 0
outer loop
vertex -51.48062225527087 50.69550721593796 0.49985370231952975
vertex -51.48062225527087 50.69550721593796 -1.5004229236867264
vertex -51.49958222328989 50.49987481865083 -1.5004229236867264
endloop
endfacet
facet normal -0.9953364426332423 0.0964643248367105 0
outer loop
vertex -51.48062225527087 50.69550721593796 0.49985370231952975
vertex -51.49958222328989 50.49987481865083 -1.5004229236867264
vertex -51.49958222328989 50.49987481865083 0.49985370231952975
endloop
endfacet
facet normal -0.9999999999999999 0 0
outer loop
vertex -51.49958222328989 0 -0.8333767761085953
vertex -51.49958222328989 50.49987481865083 0.49985370231952975
vertex -51.49958222328989 50.49987481865083 -1.5004229236867264
endloop
endfacet
facet normal -1 0 0
outer loop
vertex -51.49958222328989 0 -0.8333767761085953
vertex -51.49958222328989 50.49987481865083 -1.5004229236867264
vertex -51.49958222328989 50.000021116331304 -1.5004229236867264
endloop
endfacet
facet normal -1 0 0
outer loop
vertex -51.49958222328989 0 -0.8333767761085953
vertex -51.49958222328989 50.000021116331304 -1.5004229236867264
vertex -51.49958222328989 -50.000021116331304 -1.5004229236867264
endloop
endfacet
facet normal -1 0 0
outer loop
vertex -51.49958222328989 0 -0.8333767761085953
vertex -51.49958222328989 -50.000021116331304 -1.5004229236867264
vertex -51.49958222328989 -50.49987481865083 -1.5004229236867264
endloop
endfacet
facet normal -0.9999999999999999 0 0
outer loop
vertex -51.49958222328989 0 -0.8333767761085953
vertex -51.49958222328989 -50.49987481865083 -1.5004229236867264
vertex -51.49958222328989 -50.49987481865083 0.49985370231952975
endloop
endfacet
facet normal -1 0 0
outer loop
vertex -51.49958222328989 0 -0.8333767761085953
vertex -51.49958222328989 -50.49987481865083 0.49985370231952975
vertex -51.49958222328989 50.49987481865083 0.49985370231952975
endloop
endfacet
facet normal -0.9953364426332423 -0.0964643248367105 0
outer loop
vertex -51.49958222328989 -50.49987481865083 0.49985370231952975
vertex -51.49958222328989 -50.49987481865083 -1.5004229236867264
vertex -51.48062225527087 -50.69550721593796 -1.5004229236867264
endloop
endfacet
facet normal -0.9953364426332423 -0.0964643248367105 0
outer loop
vertex -51.49958222328989 -50.49987481865083 0.49985370231952975
vertex -51.48062225527087 -50.69550721593796 -1.5004229236867264
vertex -51.48062225527087 -50.69550721593796 0.49985370231952975
endloop
endfacet
facet normal -0.9567272590994892 -0.2909861709703383 0
outer loop
vertex -51.48062225527087 -50.69550721593796 0.49985370231952975
vertex -51.48062225527087 -50.69550721593796 -1.5004229236867264
vertex -51.423742351213825 -50.882521445943716 -1.5004229236867264
endloop
endfacet
facet normal -0.9567272590994892 -0.2909861709703383 0
outer loop
vertex -51.48062225527087 -50.69550721593796 0.49985370231952975
vertex -51.423742351213825 -50.882521445943716 -1.5004229236867264
vertex -51.423742351213825 -50.882521445943716 0.49985370231952975
endloop
endfacet
facet normal -0.8827173789330214 -0.46990427634744586 0
outer loop
vertex -51.423742351213825 -50.882521445943716 0.49985370231952975
vertex -51.423742351213825 -50.882521445943716 -1.5004229236867264
vertex -51.33152796130315 -51.05574660829927 -1.5004229236867264
endloop
endfacet
facet normal -0.8827173789330214 -0.46990427634744586 0
outer loop
vertex -51.423742351213825 -50.882521445943716 0.49985370231952975
vertex -51.33152796130315 -51.05574660829927 -1.5004229236867264
vertex -51.33152796130315 -51.05574660829927 0.49985370231952975
endloop
endfacet
facet normal -0.773957299203321 -0.6332377902572627 0
outer loop
vertex -51.33152796130315 -51.05574660829927 0.49985370231952975
vertex -51.33152796130315 -51.05574660829927 -1.5004229236867264
vertex -51.20742635245141 -51.20742635245141 -1.5004229236867264
endloop
endfacet
facet normal -0.773957299203321 -0.6332377902572627 0
outer loop
vertex -51.33152796130315 -51.05574660829927 0.49985370231952975
vertex -51.20742635245141 -51.20742635245141 -1.5004229236867264
vertex -51.20742635245141 -51.20742635245141 0.49985370231952975
endloop
endfacet
facet normal -0.6332377902572627 -0.773957299203321 0
outer loop
vertex -51.20742635245141 -51.20742635245141 0.49985370231952975
vertex -51.20742635245141 -51.20742635245141 -1.5004229236867264
vertex -51.05574660829927 -51.33152796130315 -1.5004229236867264
endloop
endfacet
facet normal -0.6332377902572627 -0.773957299203321 0
outer loop
vertex -51.20742635245141 -51.20742635245141 0.49985370231952975
vertex -51.05574660829927 -51.33152796130315 -1.5004229236867264
vertex -51.05574660829927 -51.33152796130315 0.49985370231952975
endloop
endfacet
facet normal -0.46990427634744586 -0.8827173789330214 0
outer loop
vertex -51.05574660829927 -51.33152796130315 0.49985370231952975
vertex -51.05574660829927 -51.33152796130315 -1.5004229236867264
vertex -50.882521445943716 -51.423742351213825 -1.5004229236867264
endloop
endfacet
facet normal -0.46990427634744586 -0.8827173789330214 0
outer loop
vertex -51.05574660829927 -51.33152796130315 0.49985370231952975
vertex -50.882521445943716 -51.423742351213825 -1.5004229236867264
vertex -50.882521445943716 -51.423742351213825 0.49985370231952975
endloop
endfacet
facet normal -0.2909861709703383 -0.9567272590994892 0
outer loop
vertex -50.882521445943716 -51.423742351213825 0.49985370231952975
vertex -50.882521445943716 -51.423742351213825 -1.5004229236867264
vertex -50.69550721593796 -51.48062225527087 -1.5004229236867264
endloop
endfacet
facet normal -0.2909861709703383 -0.9567272590994892 0
outer loop
vertex -50.882521445943716 -51.423742351213825 0.49985370231952975
vertex -50.69550721593796 -51.48062225527087 -1.5004229236867264
vertex -50.69550721593796 -51.48062225527087 0.49985370231952975
endloop
endfacet
facet normal -0.0964643248367105 -0.9953364426332423 0
outer loop
vertex -50.69550721593796 -51.48062225527087 0.49985370231952975
vertex -50.69550721593796 -51.48062225527087 -1.5004229236867264
vertex -50.49987481865083 -51.49958222328989 -1.5004229236867264
endloop
endfacet
facet normal -0.0964643248367105 -0.9953364426332423 0
outer loop
vertex -50.69550721593796 -51.48062225527087 0.49985370231952975
vertex -50.49987481865083 -51.49958222328989 -1.5004229236867264
vertex -50.49987481865083 -51.49958222328989 0.49985370231952975
endloop
endfacet
facet normal 0 -1 0
outer loop
vertex -50.49987481865083 -51.49958222328989 0.49985370231952975
vertex -50.49987481865083 -51.49958222328989 -1.5004229236867264
vertex 50.49987481865083 -51.49958222328989 -1.5004229236867264
endloop
endfacet
facet normal 0 -1 0
outer loop
vertex -50.49987481865083 -51.49958222328989 0.49985370231952975
vertex 50.49987481865083 -51.49958222328989 -1.5004229236867264
vertex 50.49987481865083 -51.49958222328989 0.49985370231952975
endloop
endfacet
facet normal 0.0964643248367105 -0.9953364426332423 0
outer loop
vertex 50.49987481865083 -51.49958222328989 0.49985370231952975
vertex 50.49987481865083 -51.49958222328989 -1.5004229236867264
vertex 50.69550721593796 -51.48062225527087 -1.5004229236867264
endloop
endfacet
facet normal 0.0964643248367105 -0.9953364426332423 0
outer loop
vertex 50.49987481865083 -51.49958222328989 0.49985370231952975
vertex 50.69550721593796 -51.48062225527087 -1.5004229236867264
vertex 50.69550721593796 -51.48062225527087 0.49985370231952975
endloop
endfacet
facet normal 0.2909861709703383 -0.9567272590994892 0
outer loop
vertex 50.69550721593796 -51.48062225527087 0.49985370231952975
vertex 50.69550721593796 -51.48062225527087 -1.5004229236867264
vertex 50.882521445943716 -51.423742351213825 -1.5004229236867264
endloop
endfacet
facet normal 0.2909861709703383 -0.9567272590994892 0
outer loop
vertex 50.69550721593796 -51.48062225527087 0.49985370231952975
vertex 50.882521445943716 -51.423742351213825 -1.5004229236867264
vertex 50.882521445943716 -51.423742351213825 0.49985370231952975
endloop
endfacet
facet normal 0.46990427634744586 -0.8827173789330214 0
outer loop
vertex 50.882521445943716 -51.423742351213825 0.49985370231952975
vertex 50.882521445943716 -51.423742351213825 -1.5004229236867264
vertex 51.05574660829927 -51.33152796130315 -1.5004229236867264
endloop
endfacet
facet normal 0.46990427634744586 -0.8827173789330214 0
outer loop
vertex 50.882521445943716 -51.423742351213825 0.49985370231952975
vertex 51.05574660829927 -51.33152796130315 -1.5004229236867264
vertex 51.05574660829927 -51.33152796130315 0.49985370231952975
endloop
endfacet
facet normal 0.6332377902572627 -0.773957299203321 0
outer loop
vertex 51.05574660829927 -51.33152796130315 0.49985370231952975
vertex 51.05574660829927 -51.33152796130315 -1.5004229236867264
vertex 51.20742635245141 -51.20742635245141 -1.5004229236867264
endloop
endfacet
facet normal 0.6332377902572627 -0.773957299203321 0
outer loop
vertex 51.05574660829927 -51.33152796130315 0.49985370231952975
vertex 51.20742635245141 -51.20742635245141 -1.5004229236867264
vertex 51.20742635245141 -51.20742635245141 0.49985370231952975
endloop
endfacet
facet normal 0.773957299203321 -0.6332377902572627 0
outer loop
vertex 51.20742635245141 -51.20742635245141 0.49985370231952975
vertex 51.20742635245141 -51.20742635245141 -1.5004229236867264
vertex 51.33152796130315 -51.05574660829927 -1.5004229236867264
endloop
endfacet
facet normal 0.773957299203321 -0.6332377902572627 0
outer loop
vertex 51.20742635245141 -51.20742635245141 0.49985370231952975
vertex 51.33152796130315 -51.05574660829927 -1.5004229236867264
vertex 51.33152796130315 -51.05574660829927 0.49985370231952975
endloop
endfacet
facet normal 0.8827173789330214 -0.46990427634744586 0
outer loop
vertex 51.33152796130315 -51.05574660829927 0.49985370231952975
vertex 51.33152796130315 -51.05574660829927 -1.5004229236867264
vertex 51.423742351213825 -50.882521445943716 -1.5004229236867264
endloop
endfacet
facet normal 0.8827173789330214 -0.46990427634744586 0
outer loop
vertex 51.33152796130315 -51.05574660829927 0.49985370231952975
vertex 51.423742351213825 -50.882521445943716 -1.5004229236867264
vertex 51.423742351213825 -50.882521445943716 0.49985370231952975
endloop
endfacet
facet normal 0.9567272590994892 -0.2909861709703383 0
outer loop
vertex 51.423742351213825 -50.882521445943716 0.49985370231952975
vertex 51.423742351213825 -50.882521445943716 -1.5004229236867264
vertex 51.48062225527087 -50.69550721593796 -1.5004229236867264
endloop
endfacet
facet normal 0.9567272590994892 -0.2909861709703383 0
outer loop
vertex 51.423742351213825 -50.882521445943716 0.49985370231952975
vertex 51.48062225527087 -50.69550721593796 -1.5004229236867264
vertex 51.48062225527087 -50.69550721593796 0.49985370231952975
endloop
endfacet
facet normal 0.9953364426332423 -0.0964643248367105 0
outer loop
vertex 51.48062225527087 -50.69550721593796 0.49985370231952975
vertex 51.48062225527087 -50.69550721593796 -1.5004229236867264
vertex 51.49958222328989 -50.49987481865083 -1.5004229236867264
endloop
endfacet
facet normal 0.9953364426332423 -0.0964643248367105 0
outer loop
vertex 51.48062225527087 -50.69550721593796 0.49985370231952975
vertex 51.49958222328989 -50.49987481865083 -1.5004229236867264
vertex 51.49958222328989 -50.49987481865083 0.49985370231952975
endloop
endfacet
facet normal 0.8948891877747076 0 0.4462884063068679
outer loop
vertex 51.166059149500825 0 1.1668998498976608
vertex 50.999728520970365 50.00950110034081 1.5004229236867264
vertex 50.999728520970365 50.000021116331304 1.5004229236867264
endloop
endfacet
facet normal 0.8948891877749592 0 0.4462884063063636
outer loop
vertex 51.166059149500825 0 1.1668998498976608
vertex 50.999728520970365 50.000021116331304 1.5004229236867264
vertex 50.999728520970365 -50.000021116331304 1.5004229236867264
endloop
endfacet
facet normal 0.8948891877747076 0 0.4462884063068679
outer loop
vertex 51.166059149500825 0 1.1668998498976608
vertex 50.999728520970365 -50.000021116331304 1.5004229236867264
vertex 50.999728520970365 -50.00950110034081 1.5004229236867264
endloop
endfacet
facet normal 0.8945822467763965 0.000005122054856123547 0.4469033494238535
outer loop
vertex 51.166059149500825 0 1.1668998498976608
vertex 50.999728520970365 -50.00950110034081 1.5004229236867264
vertex 51.49958222328989 -50.49987481865083 0.49985370231952975
endloop
endfacet
facet normal 0.8944271909999152 0 0.44721359549995937
outer loop
vertex 51.166059149500825 0 1.1668998498976608
vertex 51.49958222328989 -50.49987481865083 0.49985370231952975
vertex 51.49958222328989 50.49987481865083 0.49985370231952975
endloop
endfacet
facet normal 0.8945822467763965 -0.000005122054856123547 0.4469033494238535
outer loop
vertex 51.166059149500825 0 1.1668998498976608
vertex 51.49958222328989 50.49987481865083 0.49985370231952975
vertex 50.999728520970365 50.00950110034081 1.5004229236867264
endloop
endfacet
facet normal 0.8738290279591855 0.08582249381742804 0.47859934125619363
outer loop
vertex 50.980768552951346 50.20254804744353 1.5004229236867264
vertex 50.999728520970365 50.00950110034081 1.5004229236867264
vertex 51.49958222328989 50.49987481865083 0.49985370231952975
endloop
endfacet
facet normal 0.8740545187449168 0.08471012956999942 0.4783857148889649
outer loop
vertex 50.980768552951346 50.20254804744353 1.5004229236867264
vertex 51.49958222328989 50.49987481865083 0.49985370231952975
vertex 51.48062225527087 50.69550721593796 0.49985370231952975
endloop
endfacet
facet normal 0.8137240624975735 0.24487066695529996 0.5271541582661676
outer loop
vertex 50.92475046562243 50.38870046072115 1.5004229236867264
vertex 50.980768552951346 50.20254804744353 1.5004229236867264
vertex 51.48062225527087 50.69550721593796 0.49985370231952975
endloop
endfacet
facet normal 0.8128552508683509 0.24722786431939522 0.5273942777844874
outer loop
vertex 50.92475046562243 50.38870046072115 1.5004229236867264
vertex 51.48062225527087 50.69550721593796 0.49985370231952975
vertex 51.423742351213825 50.882521445943716 0.49985370231952975
endloop
endfacet
facet normal 0.7324950316745759 0.3901732329522851 0.5578672573826357
outer loop
vertex 50.8333978924399 50.56020198962043 1.5004229236867264
vertex 50.92475046562243 50.38870046072115 1.5004229236867264
vertex 51.423742351213825 50.882521445943716 0.49985370231952975
endloop
endfacet
facet normal 0.7325944066584774 0.3899880672261682 0.5578662409161453
outer loop
vertex 50.8333978924399 50.56020198962043 1.5004229236867264
vertex 51.423742351213825 50.882521445943716 0.49985370231952975
vertex 51.33152796130315 51.05574660829927 0.49985370231952975
endloop
endfacet
facet normal 0.6331886198600227 0.5203791531033346 0.5729552414414372
outer loop
vertex 50.71015810031629 50.71015810031629 1.5004229236867264
vertex 50.8333978924399 50.56020198962043 1.5004229236867264
vertex 51.33152796130315 51.05574660829927 0.49985370231952975
endloop
endfacet
facet normal 0.6342425478695553 0.5189257209841817 0.573107744296814
outer loop
vertex 50.71015810031629 50.71015810031629 1.5004229236867264
vertex 51.33152796130315 51.05574660829927 0.49985370231952975
vertex 51.20742635245141 51.20742635245141 0.49985370231952975
endloop
endfacet
facet normal 0.5203791531033348 0.6331886198600227 0.5729552414414371
outer loop
vertex 51.05574660829927 51.33152796130315 0.49985370231952975
vertex 50.56020198962043 50.8333978924399 1.5004229236867264
vertex 50.71015810031629 50.71015810031629 1.5004229236867264
endloop
endfacet
facet normal 0.5189257209841814 0.6342425478695551 0.5731077442968139
outer loop
vertex 51.05574660829927 51.33152796130315 0.49985370231952975
vertex 50.71015810031629 50.71015810031629 1.5004229236867264
vertex 51.20742635245141 51.20742635245141 0.49985370231952975
endloop
endfacet
facet normal 0.39017323295228495 0.732495031674576 0.5578672573826355
outer loop
vertex 50.882521445943716 51.423742351213825 0.49985370231952975
vertex 50.38870046072115 50.92475046562243 1.5004229236867264
vertex 50.56020198962043 50.8333978924399 1.5004229236867264
endloop
endfacet
facet normal 0.38998806722616836 0.7325944066584773 0.5578662409161455
outer loop
vertex 50.882521445943716 51.423742351213825 0.49985370231952975
vertex 50.56020198962043 50.8333978924399 1.5004229236867264
vertex 51.05574660829927 51.33152796130315 0.49985370231952975
endloop
endfacet
facet normal 0.24487066695530021 0.8137240624975733 0.5271541582661675
outer loop
vertex 50.69550721593796 51.48062225527087 0.49985370231952975
vertex 50.20254804744353 50.980768552951346 1.5004229236867264
vertex 50.38870046072115 50.92475046562243 1.5004229236867264
endloop
endfacet
facet normal 0.24722786431939503 0.8128552508683509 0.5273942777844873
outer loop
vertex 50.69550721593796 51.48062225527087 0.49985370231952975
vertex 50.38870046072115 50.92475046562243 1.5004229236867264
vertex 50.882521445943716 51.423742351213825 0.49985370231952975
endloop
endfacet
facet normal 0.08582249381742796 0.8738290279591854 0.47859934125619374
outer loop
vertex 50.49987481865083 51.49958222328989 0.49985370231952975
vertex 50.00950110034081 50.999728520970365 1.5004229236867264
vertex 50.20254804744353 50.980768552951346 1.5004229236867264
endloop
endfacet
facet normal 0.08471012956999949 0.8740545187449168 0.4783857148889649
outer loop
vertex 50.49987481865083 51.49958222328989 0.49985370231952975
vertex 50.20254804744353 50.980768552951346 1.5004229236867264
vertex 50.69550721593796 51.48062225527087 0.49985370231952975
endloop
endfacet
facet normal 0 0.894581243192769 0.4469053583564195
outer loop
vertex -50.49987481865083 51.49958222328989 0.49985370231952975
vertex -50.00950110034081 50.999728520970365 1.5004229236867264
vertex 50.00950110034081 50.999728520970365 1.5004229236867264
endloop
endfacet
facet normal 0 0.8945812431927691 0.4469053583564196
outer loop
vertex -50.49987481865083 51.49958222328989 0.49985370231952975
vertex 50.00950110034081 50.999728520970365 1.5004229236867264
vertex 50.49987481865083 51.49958222328989 0.49985370231952975
endloop
endfacet
facet normal -0.08471012956999949 0.8740545187449168 0.4783857148889649
outer loop
vertex -50.49987481865083 51.49958222328989 0.49985370231952975
vertex -50.69550721593796 51.48062225527087 0.49985370231952975
vertex -50.20254804744353 50.980768552951346 1.5004229236867264
endloop
endfacet
facet normal -0.08582249381742796 0.8738290279591854 0.47859934125619374
outer loop
vertex -50.49987481865083 51.49958222328989 0.49985370231952975
vertex -50.20254804744353 50.980768552951346 1.5004229236867264
vertex -50.00950110034081 50.999728520970365 1.5004229236867264
endloop
endfacet
facet normal -0.24722786431939503 0.8128552508683509 0.5273942777844873
outer loop
vertex -50.69550721593796 51.48062225527087 0.49985370231952975
vertex -50.882521445943716 51.423742351213825 0.49985370231952975
vertex -50.38870046072115 50.92475046562243 1.5004229236867264
endloop
endfacet
facet normal -0.24487066695530021 0.8137240624975733 0.5271541582661675
outer loop
vertex -50.69550721593796 51.48062225527087 0.49985370231952975
vertex -50.38870046072115 50.92475046562243 1.5004229236867264
vertex -50.20254804744353 50.980768552951346 1.5004229236867264
endloop
endfacet
facet normal -0.38998806722616836 0.7325944066584773 0.5578662409161455
outer loop
vertex -50.882521445943716 51.423742351213825 0.49985370231952975
vertex -51.05574660829927 51.33152796130315 0.49985370231952975
vertex -50.56020198962043 50.8333978924399 1.5004229236867264
endloop
endfacet
facet normal -0.39017323295228495 0.732495031674576 0.5578672573826355
outer loop
vertex -50.882521445943716 51.423742351213825 0.49985370231952975
vertex -50.56020198962043 50.8333978924399 1.5004229236867264
vertex -50.38870046072115 50.92475046562243 1.5004229236867264
endloop
endfacet
facet normal -0.5189257209841814 0.6342425478695551 0.5731077442968139
outer loop
vertex -51.05574660829927 51.33152796130315 0.49985370231952975
vertex -51.20742635245141 51.20742635245141 0.49985370231952975
vertex -50.71015810031629 50.71015810031629 1.5004229236867264
endloop
endfacet
facet normal -0.5203791531033348 0.6331886198600227 0.5729552414414371
outer loop
vertex -51.05574660829927 51.33152796130315 0.49985370231952975
vertex -50.71015810031629 50.71015810031629 1.5004229236867264
vertex -50.56020198962043 50.8333978924399 1.5004229236867264
endloop
endfacet
facet normal -0.6331886198600227 0.5203791531033348 0.5729552414414371
outer loop
vertex -51.33152796130315 51.05574660829927 0.49985370231952975
vertex -50.8333978924399 50.56020198962043 1.5004229236867264
vertex -50.71015810031629 50.71015810031629 1.5004229236867264
endloop
endfacet
facet normal -0.6342425478695551 0.5189257209841814 0.5731077442968139
outer loop
vertex -51.33152796130315 51.05574660829927 0.49985370231952975
vertex -50.71015810031629 50.71015810031629 1.5004229236867264
vertex -51.20742635245141 51.20742635245141 0.49985370231952975
endloop
endfacet
facet normal -0.732495031674576 0.39017323295228495 0.5578672573826355
outer loop
vertex -51.423742351213825 50.882521445943716 0.49985370231952975
vertex -50.92475046562243 50.38870046072115 1.5004229236867264
vertex -50.8333978924399 50.56020198962043 1.5004229236867264
endloop
endfacet
facet normal -0.7325944066584773 0.38998806722616836 0.5578662409161455
outer loop
vertex -51.423742351213825 50.882521445943716 0.49985370231952975
vertex -50.8333978924399 50.56020198962043 1.5004229236867264
vertex -51.33152796130315 51.05574660829927 0.49985370231952975
endloop
endfacet
facet normal -0.8137240624975733 0.24487066695530021 0.5271541582661675
outer loop
vertex -51.48062225527087 50.69550721593796 0.49985370231952975
vertex -50.980768552951346 50.20254804744353 1.5004229236867264
vertex -50.92475046562243 50.38870046072115 1.5004229236867264
endloop
endfacet
facet normal -0.8128552508683509 0.24722786431939503 0.5273942777844873
outer loop
vertex -51.48062225527087 50.69550721593796 0.49985370231952975
vertex -50.92475046562243 50.38870046072115 1.5004229236867264
vertex -51.423742351213825 50.882521445943716 0.49985370231952975
endloop
endfacet
facet normal -0.8738290279591854 0.08582249381742796 0.47859934125619374
outer loop
vertex -51.49958222328989 50.49987481865083 0.49985370231952975
vertex -50.999728520970365 50.00950110034081 1.5004229236867264
vertex -50.980768552951346 50.20254804744353 1.5004229236867264
endloop
endfacet
facet normal -0.8740545187449168 0.08471012956999949 0.4783857148889649
outer loop
vertex -51.49958222328989 50.49987481865083 0.49985370231952975
vertex -50.980768552951346 50.20254804744353 1.5004229236867264
vertex -51.48062225527087 50.69550721593796 0.49985370231952975
endloop
endfacet
facet normal -0.8945822467763965 0.000005122054856123547 0.4469033494238535
outer loop
vertex -51.166059149500825 0 1.1668998498976608
vertex -51.49958222328989 -50.49987481865083 0.49985370231952975
vertex -50.999728520970365 -50.00950110034081 1.5004229236867264
endloop
endfacet
facet normal -0.8948891877747076 0 0.4462884063068679
outer loop
vertex -51.166059149500825 0 1.1668998498976608
vertex -50.999728520970365 -50.00950110034081 1.5004229236867264
vertex -50.999728520970365 -50.000021116331304 1.5004229236867264
endloop
endfacet
facet normal -0.8948891877749592 0 0.4462884063063636
outer loop
vertex -51.166059149500825 0 1.1668998498976608
vertex -50.999728520970365 -50.000021116331304 1.5004229236867264
vertex -50.999728520970365 50.000021116331304 1.5004229236867264
endloop
endfacet
facet normal -0.8948891877747076 0 0.4462884063068679
outer loop
vertex -51.166059149500825 0 1.1668998498976608
vertex -50.999728520970365 50.000021116331304 1.5004229236867264
vertex -50.999728520970365 50.00950110034081 1.5004229236867264
endloop
endfacet
facet normal -0.8945822467763965 -0.000005122054856123547 0.4469033494238535
outer loop
vertex -51.166059149500825 0 1.1668998498976608
vertex -50.999728520970365 50.00950110034081 1.5004229236867264
vertex -51.49958222328989 50.49987481865083 0.49985370231952975
endloop
endfacet
facet normal -0.8944271909999152 0 0.44721359549995937
outer loop
vertex -51.166059149500825 0 1.1668998498976608
vertex -51.49958222328989 50.49987481865083 0.49985370231952975
vertex -51.49958222328989 -50.49987481865083 0.49985370231952975
endloop
endfacet
facet normal -0.8740545187449168 -0.08471012956999949 0.4783857148889649
outer loop
vertex -51.49958222328989 -50.49987481865083 0.49985370231952975
vertex -51.48062225527087 -50.69550721593796 0.49985370231952975
vertex -50.980768552951346 -50.20254804744353 1.5004229236867264
endloop
endfacet
facet normal -0.8738290279591854 -0.08582249381742796 0.47859934125619374
outer loop
vertex -51.49958222328989 -50.49987481865083 0.49985370231952975
vertex -50.980768552951346 -50.20254804744353 1.5004229236867264
vertex -50.999728520970365 -50.00950110034081 1.5004229236867264
endloop
endfacet
facet normal -0.8128552508683509 -0.24722786431939503 0.5273942777844873
outer loop
vertex -51.48062225527087 -50.69550721593796 0.49985370231952975
vertex -51.423742351213825 -50.882521445943716 0.49985370231952975
vertex -50.92475046562243 -50.38870046072115 1.5004229236867264
endloop
endfacet
facet normal -0.8137240624975733 -0.24487066695530021 0.5271541582661675
outer loop
vertex -51.48062225527087 -50.69550721593796 0.49985370231952975
vertex -50.92475046562243 -50.38870046072115 1.5004229236867264
vertex -50.980768552951346 -50.20254804744353 1.5004229236867264
endloop
endfacet
facet normal -0.7325944066584773 -0.38998806722616836 0.5578662409161455
outer loop
vertex -51.423742351213825 -50.882521445943716 0.49985370231952975
vertex -51.33152796130315 -51.05574660829927 0.49985370231952975
vertex -50.8333978924399 -50.56020198962043 1.5004229236867264
endloop
endfacet
facet normal -0.732495031674576 -0.39017323295228495 0.5578672573826355
outer loop
vertex -51.423742351213825 -50.882521445943716 0.49985370231952975
vertex -50.8333978924399 -50.56020198962043 1.5004229236867264
vertex -50.92475046562243 -50.38870046072115 1.5004229236867264
endloop
endfacet
facet normal -0.6342425478695551 -0.5189257209841814 0.5731077442968139
outer loop
vertex -51.33152796130315 -51.05574660829927 0.49985370231952975
vertex -51.20742635245141 -51.20742635245141 0.49985370231952975
vertex -50.71015810031629 -50.71015810031629 1.5004229236867264
endloop
endfacet
facet normal -0.6331886198600227 -0.5203791531033348 0.5729552414414371
outer loop
vertex -51.33152796130315 -51.05574660829927 0.49985370231952975
vertex -50.71015810031629 -50.71015810031629 1.5004229236867264
vertex -50.8333978924399 -50.56020198962043 1.5004229236867264
endloop
endfacet
facet normal -0.5189257209841817 -0.6342425478695553 0.573107744296814
outer loop
vertex -50.71015810031629 -50.71015810031629 1.5004229236867264
vertex -51.20742635245141 -51.20742635245141 0.49985370231952975
vertex -51.05574660829927 -51.33152796130315 0.49985370231952975
endloop
endfacet
facet normal -0.5203791531033346 -0.6331886198600227 0.5729552414414372
outer loop
vertex -50.71015810031629 -50.71015810031629 1.5004229236867264
vertex -51.05574660829927 -51.33152796130315 0.49985370231952975
vertex -50.56020198962043 -50.8333978924399 1.5004229236867264
endloop
endfacet
facet normal -0.3899880672261682 -0.7325944066584774 0.5578662409161453
outer loop
vertex -50.56020198962043 -50.8333978924399 1.5004229236867264
vertex -51.05574660829927 -51.33152796130315 0.49985370231952975
vertex -50.882521445943716 -51.423742351213825 0.49985370231952975
endloop
endfacet
facet normal -0.3901732329522851 -0.7324950316745759 0.5578672573826357
outer loop
vertex -50.56020198962043 -50.8333978924399 1.5004229236867264
vertex -50.882521445943716 -51.423742351213825 0.49985370231952975
vertex -50.38870046072115 -50.92475046562243 1.5004229236867264
endloop
endfacet
facet normal -0.24722786431939522 -0.8128552508683509 0.5273942777844874
outer loop
vertex -50.38870046072115 -50.92475046562243 1.5004229236867264
vertex -50.882521445943716 -51.423742351213825 0.49985370231952975
vertex -50.69550721593796 -51.48062225527087 0.49985370231952975
endloop
endfacet
facet normal -0.24487066695529996 -0.8137240624975735 0.5271541582661676
outer loop
vertex -50.38870046072115 -50.92475046562243 1.5004229236867264
vertex -50.69550721593796 -51.48062225527087 0.49985370231952975
vertex -50.20254804744353 -50.980768552951346 1.5004229236867264
endloop
endfacet
facet normal -0.08471012956999942 -0.8740545187449168 0.4783857148889649
outer loop
vertex -50.20254804744353 -50.980768552951346 1.5004229236867264
vertex -50.69550721593796 -51.48062225527087 0.49985370231952975
vertex -50.49987481865083 -51.49958222328989 0.49985370231952975
endloop
endfacet
facet normal -0.08582249381742804 -0.8738290279591855 0.47859934125619363
outer loop
vertex -50.20254804744353 -50.980768552951346 1.5004229236867264
vertex -50.49987481865083 -51.49958222328989 0.49985370231952975
vertex -50.00950110034081 -50.999728520970365 1.5004229236867264
endloop
endfacet
facet normal 0 -0.894581243192769 0.4469053583564195
outer loop
vertex 50.00950110034081 -50.999728520970365 1.5004229236867264
vertex -50.00950110034081 -50.999728520970365 1.5004229236867264
vertex -50.49987481865083 -51.49958222328989 0.49985370231952975
endloop
endfacet
facet normal 0 -0.8945812431927691 0.4469053583564195
outer loop
vertex 50.00950110034081 -50.999728520970365 1.5004229236867264
vertex -50.49987481865083 -51.49958222328989 0.49985370231952975
vertex 50.49987481865083 -51.49958222328989 0.49985370231952975
endloop
endfacet
facet normal 0.08582249381742804 -0.8738290279591855 0.47859934125619363
outer loop
vertex 50.20254804744353 -50.980768552951346 1.5004229236867264
vertex 50.00950110034081 -50.999728520970365 1.5004229236867264
vertex 50.49987481865083 -51.49958222328989 0.49985370231952975
endloop
endfacet
facet normal 0.08471012956999942 -0.8740545187449168 0.4783857148889649
outer loop
vertex 50.20254804744353 -50.980768552951346 1.5004229236867264
vertex 50.49987481865083 -51.49958222328989 0.49985370231952975
vertex 50.69550721593796 -51.48062225527087 0.49985370231952975
endloop
endfacet
facet normal 0.24487066695529996 -0.8137240624975735 0.5271541582661676
outer loop
vertex 50.38870046072115 -50.92475046562243 1.5004229236867264
vertex 50.20254804744353 -50.980768552951346 1.5004229236867264
vertex 50.69550721593796 -51.48062225527087 0.49985370231952975
endloop
endfacet
facet normal 0.24722786431939522 -0.8128552508683509 0.5273942777844874
outer loop
vertex 50.38870046072115 -50.92475046562243 1.5004229236867264
vertex 50.69550721593796 -51.48062225527087 0.49985370231952975
vertex 50.882521445943716 -51.423742351213825 0.49985370231952975
endloop
endfacet
facet normal 0.3901732329522851 -0.7324950316745759 0.5578672573826357
outer loop
vertex 50.56020198962043 -50.8333978924399 1.5004229236867264
vertex 50.38870046072115 -50.92475046562243 1.5004229236867264
vertex 50.882521445943716 -51.423742351213825 0.49985370231952975
endloop
endfacet
facet normal 0.3899880672261682 -0.7325944066584774 0.5578662409161453
outer loop
vertex 50.56020198962043 -50.8333978924399 1.5004229236867264
vertex 50.882521445943716 -51.423742351213825 0.49985370231952975
vertex 51.05574660829927 -51.33152796130315 0.49985370231952975
endloop
endfacet
facet normal 0.5203791531033346 -0.6331886198600227 0.5729552414414372
outer loop
vertex 50.71015810031629 -50.71015810031629 1.5004229236867264
vertex 50.56020198962043 -50.8333978924399 1.5004229236867264
vertex 51.05574660829927 -51.33152796130315 0.49985370231952975
endloop
endfacet
facet normal 0.5189257209841817 -0.6342425478695553 0.573107744296814
outer loop
vertex 50.71015810031629 -50.71015810031629 1.5004229236867264
vertex 51.05574660829927 -51.33152796130315 0.49985370231952975
vertex 51.20742635245141 -51.20742635245141 0.49985370231952975
endloop
endfacet
facet normal 0.6342425478695553 -0.5189257209841817 0.573107744296814
outer loop
vertex 50.71015810031629 -50.71015810031629 1.5004229236867264
vertex 51.20742635245141 -51.20742635245141 0.49985370231952975
vertex 51.33152796130315 -51.05574660829927 0.49985370231952975
endloop
endfacet
facet normal 0.6331886198600227 -0.5203791531033346 0.5729552414414372
outer loop
vertex 50.71015810031629 -50.71015810031629 1.5004229236867264
vertex 51.33152796130315 -51.05574660829927 0.49985370231952975
vertex 50.8333978924399 -50.56020198962043 1.5004229236867264
endloop
endfacet
facet normal 0.7325944066584774 -0.3899880672261682 0.5578662409161453
outer loop
vertex 50.8333978924399 -50.56020198962043 1.5004229236867264
vertex 51.33152796130315 -51.05574660829927 0.49985370231952975
vertex 51.423742351213825 -50.882521445943716 0.49985370231952975
endloop
endfacet
facet normal 0.7324950316745759 -0.3901732329522851 0.5578672573826357
outer loop
vertex 50.8333978924399 -50.56020198962043 1.5004229236867264
vertex 51.423742351213825 -50.882521445943716 0.49985370231952975
vertex 50.92475046562243 -50.38870046072115 1.5004229236867264
endloop
endfacet
facet normal 0.8128552508683509 -0.24722786431939522 0.5273942777844874
outer loop
vertex 50.92475046562243 -50.38870046072115 1.5004229236867264
vertex 51.423742351213825 -50.882521445943716 0.49985370231952975
vertex 51.48062225527087 -50.69550721593796 0.49985370231952975
endloop
endfacet
facet normal 0.8137240624975735 -0.24487066695529996 0.5271541582661676
outer loop
vertex 50.92475046562243 -50.38870046072115 1.5004229236867264
vertex 51.48062225527087 -50.69550721593796 0.49985370231952975
vertex 50.980768552951346 -50.20254804744353 1.5004229236867264
endloop
endfacet
facet normal 0.8740545187449168 -0.08471012956999942 0.4783857148889649
outer loop
vertex 50.980768552951346 -50.20254804744353 1.5004229236867264
vertex 51.48062225527087 -50.69550721593796 0.49985370231952975
vertex 51.49958222328989 -50.49987481865083 0.49985370231952975
endloop
endfacet
facet normal 0.8738290279591855 -0.08582249381742804 0.47859934125619363
outer loop
vertex 50.980768552951346 -50.20254804744353 1.5004229236867264
vertex 51.49958222328989 -50.49987481865083 0.49985370231952975
vertex 50.999728520970365 -50.00950110034081 1.5004229236867264
endloop
endfacet
facet normal 1 0 0
outer loop
vertex -50.000021116331304 0 -13.076345216024524
vertex -50.000021116331304 -50.000021116331304 1.5004229236867264
vertex -50.000021116331304 -50.000021116331304 -1.5004229236867264
endloop
endfacet
facet normal 1 0 0
outer loop
vertex -50.000021116331304 0 -13.076345216024524
vertex -50.000021116331304 -50.000021116331304 -1.5004229236867264
vertex -50.000021116331304 -50.000021116331304 -48.045420776916316
endloop
endfacet
facet normal 1 0 0
outer loop
vertex -50.000021116331304 0 -13.076345216024524
vertex -50.000021116331304 -50.000021116331304 -48.045420776916316
vertex -50.000021116331304 50.000021116331304 -30.412650519230834
endloop
endfacet
facet normal 1 0 0
outer loop
vertex -50.000021116331304 0 -13.076345216024524
vertex -50.000021116331304 50.000021116331304 -30.412650519230834
vertex -50.000021116331304 50.000021116331304 -1.5004229236867264
endloop
endfacet
facet normal 1 0 0
outer loop
vertex -50.000021116331304 0 -13.076345216024524
vertex -50.000021116331304 50.000021116331304 -1.5004229236867264
vertex -50.000021116331304 50.000021116331304 1.5004229236867264
endloop
endfacet
facet normal 1 0 0
outer loop
vertex -50.000021116331304 0 -13.076345216024524
vertex -50.000021116331304 50.000021116331304 1.5004229236867264
vertex -50.000021116331304 -50.000021116331304 1.5004229236867264
endloop
endfacet
facet normal -1 0 0
outer loop
vertex 50.000021116331304 0 -13.076345216024524
vertex 50.000021116331304 50.000021116331304 1.5004229236867264
vertex 50.000021116331304 50.000021116331304 -1.5004229236867264
endloop
endfacet
facet normal -1 0 0
outer loop
vertex 50.000021116331304 0 -13.076345216024524
vertex 50.000021116331304 50.000021116331304 -1.5004229236867264
vertex 50.000021116331304 50.000021116331304 -30.412650519230834
endloop
endfacet
facet normal -1 0 0
outer loop
vertex 50.000021116331304 0 -13.076345216024524
vertex 50.000021116331304 50.000021116331304 -30.412650519230834
vertex 50.000021116331304 -50.000021116331304 -48.045420776916316
endloop
endfacet
facet normal -1 0 0
outer loop
vertex 50.000021116331304 0 -13.076345216024524
vertex 50.000021116331304 -50.000021116331304 -48.045420776916316
vertex 50.000021116331304 -50.000021116331304 -1.5004229236867264
endloop
endfacet
facet normal -1 0 0
outer loop
vertex 50.000021116331304 0 -13.076345216024524
vertex 50.000021116331304 -50.000021116331304 -1.5004229236867264
vertex 50.000021116331304 -50.000021116331304 1.5004229236867264
endloop
endfacet
facet normal -1 0 0
outer loop
vertex 50.000021116331304 0 -13.076345216024524
vertex 50.000021116331304 -50.000021116331304 1.5004229236867264
vertex 50.000021116331304 50.000021116331304 1.5004229236867264
endloop
endfacet
facet normal 0 1 0
outer loop
vertex -50.000021116331304 -50.000021116331304 1.5004229236867264
vertex 50.000021116331304 -50.000021116331304 1.5004229236867264
vertex 50.000021116331304 -50.000021116331304 -1.5004229236867264
endloop
endfacet
facet normal 0 1 0
outer loop
vertex -50.000021116331304 -50.000021116331304 1.5004229236867264
vertex 50.000021116331304 -50.000021116331304 -1.5004229236867264
vertex -50.000021116331304 -50.000021116331304 -1.5004229236867264
endloop
endfacet
facet normal 0 -1 0
outer loop
vertex 50.000021116331304 50.000021116331304 -1.5004229236867264
vertex 50.000021116331304 50.000021116331304 1.5004229236867264
vertex -50.000021116331304 50.000021116331304 1.5004229236867264
endloop
endfacet
facet normal 0 -1 0
outer loop
vertex 50.000021116331304 50.000021116331304 -1.5004229236867264
vertex -50.000021116331304 50.000021116331304 1.5004229236867264
vertex -50.000021116331304 50.000021116331304 -1.5004229236867264
endloop
endfacet
facet normal 0 0 1
outer loop
vertex 0 50.51021661938848 1.5004229236867264
vertex -50.00950110034081 50.999728520970365 1.5004229236867264
vertex -50.20254804744353 50.980768552951346 1.5004229236867264
endloop
endfacet
facet normal 0 0 1
outer loop
vertex 0 50.51021661938848 1.5004229236867264
vertex -50.20254804744353 50.980768552951346 1.5004229236867264
vertex -50.38870046072115 50.92475046562243 1.5004229236867264
endloop
endfacet
facet normal 0 0 1
outer loop
vertex 0 50.51021661938848 1.5004229236867264
vertex -50.38870046072115 50.92475046562243 1.5004229236867264
vertex -50.56020198962043 50.8333978924399 1.5004229236867264
endloop
endfacet
facet normal 0 0 1
outer loop
vertex 0 50.51021661938848 1.5004229236867264
vertex -50.56020198962043 50.8333978924399 1.5004229236867264
vertex -50.71015810031629 50.71015810031629 1.5004229236867264
endloop
endfacet
facet normal 0 0 1
outer loop
vertex 0 50.51021661938848 1.5004229236867264
vertex -50.71015810031629 50.71015810031629 1.5004229236867264
vertex -50.8333978924399 50.56020198962043 1.5004229236867264
endloop
endfacet
facet normal 0 0 1
outer loop
vertex 0 50.51021661938848 1.5004229236867264
vertex -50.8333978924399 50.56020198962043 1.5004229236867264
vertex -50.92475046562243 50.38870046072115 1.5004229236867264
endloop
endfacet
facet normal 0 0 1
outer loop
vertex 0 50.51021661938848 1.5004229236867264
vertex -50.92475046562243 50.38870046072115 1.5004229236867264
vertex -50.980768552951346 50.20254804744353 1.5004229236867264
endloop
endfacet
facet normal 0 0 1
outer loop
vertex 0 50.51021661938848 1.5004229236867264
vertex -50.980768552951346 50.20254804744353 1.5004229236867264
vertex -50.999728520970365 50.00950110034081 1.5004229236867264
endloop
endfacet
facet normal 0 0 0.9999999999999999
outer loop
vertex 0 50.51021661938848 1.5004229236867264
vertex -50.999728520970365 50.00950110034081 1.5004229236867264
vertex -50.999728520970365 50.000021116331304 1.5004229236867264
endloop
endfacet
facet normal 0 0 1
outer loop
vertex 0 50.51021661938848 1.5004229236867264
vertex -50.999728520970365 50.000021116331304 1.5004229236867264
vertex -50.000021116331304 50.000021116331304 1.5004229236867264
endloop
endfacet
facet normal 0 0 0.9999999999999999
outer loop
vertex 0 50.51021661938848 1.5004229236867264
vertex -50.000021116331304 50.000021116331304 1.5004229236867264
vertex 50.000021116331304 50.000021116331304 1.5004229236867264
endloop
endfacet
facet normal 0 0 1
outer loop
vertex 0 50.51021661938848 1.5004229236867264
vertex 50.000021116331304 50.000021116331304 1.5004229236867264
vertex 50.999728520970365 50.000021116331304 1.5004229236867264
endloop
endfacet
facet normal 0 0 0.9999999999999999
outer loop
vertex 0 50.51021661938848 1.5004229236867264
vertex 50.999728520970365 50.000021116331304 1.5004229236867264
vertex 50.999728520970365 50.00950110034081 1.5004229236867264
endloop
endfacet
facet normal 0 0 1
outer loop
vertex 0 50.51021661938848 1.5004229236867264
vertex 50.999728520970365 50.00950110034081 1.5004229236867264
vertex 50.980768552951346 50.20254804744353 1.5004229236867264
endloop
endfacet
facet normal 0 0 1
outer loop
vertex 0 50.51021661938848 1.5004229236867264
vertex 50.980768552951346 50.20254804744353 1.5004229236867264
vertex 50.92475046562243 50.38870046072115 1.5004229236867264
endloop
endfacet
facet normal 0 0 1
outer loop
vertex 0 50.51021661938848 1.5004229236867264
vertex 50.92475046562243 50.38870046072115 1.5004229236867264
vertex 50.8333978924399 50.56020198962043 1.5004229236867264
endloop
endfacet
facet normal 0 0 1
outer loop
vertex 0 50.51021661938848 1.5004229236867264
vertex 50.8333978924399 50.56020198962043 1.5004229236867264
vertex 50.71015810031629 50.71015810031629 1.5004229236867264
endloop
endfacet
facet normal 0 0 1
outer loop
vertex 0 50.51021661938848 1.5004229236867264
vertex 50.71015810031629 50.71015810031629 1.5004229236867264
vertex 50.56020198962043 50.8333978924399 1.5004229236867264
endloop
endfacet
facet normal 0 0 1
outer loop
vertex 0 50.51021661938848 1.5004229236867264
vertex 50.56020198962043 50.8333978924399 1.5004229236867264
vertex 50.38870046072115 50.92475046562243 1.5004229236867264
endloop
endfacet
facet normal 0 0 1
outer loop
vertex 0 50.51021661938848 1.5004229236867264
vertex 50.38870046072115 50.92475046562243 1.5004229236867264
vertex 50.20254804744353 50.980768552951346 1.5004229236867264
endloop
endfacet
facet normal 0 0 1
outer loop
vertex 0 50.51021661938848 1.5004229236867264
vertex 50.20254804744353 50.980768552951346 1.5004229236867264
vertex 50.00950110034081 50.999728520970365 1.5004229236867264
endloop
endfacet
facet normal 0 0 0.9999999999999999
outer loop
vertex 0 50.51021661938848 1.5004229236867264
vertex 50.00950110034081 50.999728520970365 1.5004229236867264
vertex -50.00950110034081 50.999728520970365 1.5004229236867264
endloop
endfacet
facet normal 0 0 0.9999999999999999
outer loop
vertex 50.000021116331304 50.000021116331304 1.5004229236867264
vertex 50.000021116331304 -50.000021116331304 1.5004229236867264
vertex 50.999728520970365 -50.000021116331304 1.5004229236867264
endloop
endfacet
facet normal 0 0 0.9999999999999999
outer loop
vertex 50.000021116331304 50.000021116331304 1.5004229236867264
vertex 50.999728520970365 -50.000021116331304 1.5004229236867264
vertex 50.999728520970365 50.000021116331304 1.5004229236867264
endloop
endfacet
facet normal 0 0 0.9999999999999999
outer loop
vertex -50.999728520970365 50.000021116331304 1.5004229236867264
vertex -50.999728520970365 -50.000021116331304 1.5004229236867264
vertex -50.000021116331304 -50.000021116331304 1.5004229236867264
endloop
endfacet
facet normal 0 0 0.9999999999999999
outer loop
vertex -50.999728520970365 50.000021116331304 1.5004229236867264
vertex -50.000021116331304 -50.000021116331304 1.5004229236867264
vertex -50.000021116331304 50.000021116331304 1.5004229236867264
endloop
endfacet
facet normal 0 0 0.9999999999999999
outer loop
vertex 0 -50.51021661938848 1.5004229236867264
vertex 50.000021116331304 -50.000021116331304 1.5004229236867264
vertex -50.000021116331304 -50.000021116331304 1.5004229236867264
endloop
endfacet
facet normal 0 0 1
outer loop
vertex 0 -50.51021661938848 1.5004229236867264
vertex -50.000021116331304 -50.000021116331304 1.5004229236867264
vertex -50.999728520970365 -50.000021116331304 1.5004229236867264
endloop
endfacet
facet normal 0 0 0.9999999999999999
outer loop
vertex 0 -50.51021661938848 1.5004229236867264
vertex -50.999728520970365 -50.000021116331304 1.5004229236867264
vertex -50.999728520970365 -50.00950110034081 1.5004229236867264
endloop
endfacet
facet normal 0 0 1
outer loop
vertex 0 -50.51021661938848 1.5004229236867264
vertex -50.999728520970365 -50.00950110034081 1.5004229236867264
vertex -50.980768552951346 -50.20254804744353 1.5004229236867264
endloop
endfacet
facet normal 0 0 1
outer loop
vertex 0 -50.51021661938848 1.5004229236867264
vertex -50.980768552951346 -50.20254804744353 1.5004229236867264
vertex -50.92475046562243 -50.38870046072115 1.5004229236867264
endloop
endfacet
facet normal 0 0 1
outer loop
vertex 0 -50.51021661938848 1.5004229236867264
vertex -50.92475046562243 -50.38870046072115 1.5004229236867264
vertex -50.8333978924399 -50.56020198962043 1.5004229236867264
endloop
endfacet
facet normal 0 0 1
outer loop
vertex 0 -50.51021661938848 1.5004229236867264
vertex -50.8333978924399 -50.56020198962043 1.5004229236867264
vertex -50.71015810031629 -50.71015810031629 1.5004229236867264
endloop
endfacet
facet normal 0 0 1
outer loop
vertex 0 -50.51021661938848 1.5004229236867264
vertex -50.71015810031629 -50.71015810031629 1.5004229236867264
vertex -50.56020198962043 -50.8333978924399 1.5004229236867264
endloop
endfacet
facet normal 0 0 1
outer loop
vertex 0 -50.51021661938848 1.5004229236867264
vertex -50.56020198962043 -50.8333978924399 1.5004229236867264
vertex -50.38870046072115 -50.92475046562243 1.5004229236867264
endloop
endfacet
facet normal 0 0 1
outer loop
vertex 0 -50.51021661938848 1.5004229236867264
vertex -50.38870046072115 -50.92475046562243 1.5004229236867264
vertex -50.20254804744353 -50.980768552951346 1.5004229236867264
endloop
endfacet
facet normal 0 0 1
outer loop
vertex 0 -50.51021661938848 1.5004229236867264
vertex -50.20254804744353 -50.980768552951346 1.5004229236867264
vertex -50.00950110034081 -50.999728520970365 1.5004229236867264
endloop
endfacet
facet normal 0 0 0.9999999999999999
outer loop
vertex 0 -50.51021661938848 1.5004229236867264
vertex -50.00950110034081 -50.999728520970365 1.5004229236867264
vertex 50.00950110034081 -50.999728520970365 1.5004229236867264
endloop
endfacet
facet normal 0 0 1
outer loop
vertex 0 -50.51021661938848 1.5004229236867264
vertex 50.00950110034081 -50.999728520970365 1.5004229236867264
vertex 50.20254804744353 -50.980768552951346 1.5004229236867264
endloop
endfacet
facet normal 0 0 1
outer loop
vertex 0 -50.51021661938848 1.5004229236867264
vertex 50.20254804744353 -50.980768552951346 1.5004229236867264
vertex 50.38870046072115 -50.92475046562243 1.5004229236867264
endloop
endfacet
facet normal 0 0 1
outer loop
vertex 0 -50.51021661938848 1.5004229236867264
vertex 50.38870046072115 -50.92475046562243 1.5004229236867264
vertex 50.56020198962043 -50.8333978924399 1.5004229236867264
endloop
endfacet
facet normal 0 0 1
outer loop
vertex 0 -50.51021661938848 1.5004229236867264
vertex 50.56020198962043 -50.8333978924399 1.5004229236867264
vertex 50.71015810031629 -50.71015810031629 1.5004229236867264
endloop
endfacet
facet normal 0 0 1
outer loop
vertex 0 -50.51021661938848 1.5004229236867264
vertex 50.71015810031629 -50.71015810031629 1.5004229236867264
vertex 50.8333978924399 -50.56020198962043 1.5004229236867264
endloop
endfacet
facet normal 0 0 1
outer loop
vertex 0 -50.51021661938848 1.5004229236867264
vertex 50.8333978924399 -50.56020198962043 1.5004229236867264
vertex 50.92475046562243 -50.38870046072115 1.5004229236867264
endloop
endfacet
facet normal 0 0 1
outer loop
vertex 0 -50.51021661938848 1.5004229236867264
vertex 50.92475046562243 -50.38870046072115 1.5004229236867264
vertex 50.980768552951346 -50.20254804744353 1.5004229236867264
endloop
endfacet
facet normal 0 0 1
outer loop
vertex 0 -50.51021661938848 1.5004229236867264
vertex 50.980768552951346 -50.20254804744353 1.5004229236867264
vertex 50.999728520970365 -50.00950110034081 1.5004229236867264
endloop
endfacet
facet normal 0 0 0.9999999999999999
outer loop
vertex 0 -50.51021661938848 1.5004229236867264
vertex 50.999728520970365 -50.00950110034081 1.5004229236867264
vertex 50.999728520970365 -50.000021116331304 1.5004229236867264
endloop
endfacet
facet normal 0 0 1
outer loop
vertex 0 -50.51021661938848 1.5004229236867264
vertex 50.999728520970365 -50.000021116331304 1.5004229236867264
vertex 50.000021116331304 -50.000021116331304 1.5004229236867264
endloop
endfacet
facet normal 0 0 -1
outer loop
vertex 0 50.91613229834106 -1.5004229236867264
vertex 50.49987481865083 51.49958222328989 -1.5004229236867264
vertex 50.69550721593796 51.48062225527087 -1.5004229236867264
endloop
endfacet
facet normal 0 0 -1
outer loop
vertex 0 50.91613229834106 -1.5004229236867264
vertex 50.69550721593796 51.48062225527087 -1.5004229236867264
vertex 50.882521445943716 51.423742351213825 -1.5004229236867264
endloop
endfacet
facet normal 0 0 -1
outer loop
vertex 0 50.91613229834106 -1.5004229236867264
vertex 50.882521445943716 51.423742351213825 -1.5004229236867264
vertex 51.05574660829927 51.33152796130315 -1.5004229236867264
endloop
endfacet
facet normal 0 0 -1
outer loop
vertex 0 50.91613229834106 -1.5004229236867264
vertex 51.05574660829927 51.33152796130315 -1.5004229236867264
vertex 51.20742635245141 51.20742635245141 -1.5004229236867264
endloop
endfacet
facet normal 0 0 -1
outer loop
vertex 0 50.91613229834106 -1.5004229236867264
vertex 51.20742635245141 51.20742635245141 -1.5004229236867264
vertex 51.33152796130315 51.05574660829927 -1.5004229236867264
endloop
endfacet
facet normal 0 0 -1
outer loop
vertex 0 50.91613229834106 -1.5004229236867264
vertex 51.33152796130315 51.05574660829927 -1.5004229236867264
vertex 51.423742351213825 50.882521445943716 -1.5004229236867264
endloop
endfacet
facet normal 0 0 -1
outer loop
vertex 0 50.91613229834106 -1.5004229236867264
vertex 51.423742351213825 50.882521445943716 -1.5004229236867264
vertex 51.48062225527087 50.69550721593796 -1.5004229236867264
endloop
endfacet
facet normal 0 0 -1
outer loop
vertex 0 50.91613229834106 -1.5004229236867264
vertex 51.48062225527087 50.69550721593796 -1.5004229236867264
vertex 51.49958222328989 50.49987481865083 -1.5004229236867264
endloop
endfacet
facet normal 0 0 -1
outer loop
vertex 0 50.91613229834106 -1.5004229236867264
vertex 51.49958222328989 50.49987481865083 -1.5004229236867264
vertex 51.49958222328989 50.000021116331304 -1.5004229236867264
endloop
endfacet
facet normal 0 0 -1
outer loop
vertex 0 50.91613229834106 -1.5004229236867264
vertex 51.49958222328989 50.000021116331304 -1.5004229236867264
vertex 50.000021116331304 50.000021116331304 -1.5004229236867264
endloop
endfacet
facet normal 0 0 -1
outer loop
vertex 0 50.91613229834106 -1.5004229236867264
vertex 50.000021116331304 50.000021116331304 -1.5004229236867264
vertex -50.000021116331304 50.000021116331304 -1.5004229236867264
endloop
endfacet
facet normal 0 0 -1
outer loop
vertex 0 50.91613229834106 -1.5004229236867264
vertex -50.000021116331304 50.000021116331304 -1.5004229236867264
vertex -51.49958222328989 50.000021116331304 -1.5004229236867264
endloop
endfacet
facet normal 0 0 -1
outer loop
vertex 0 50.91613229834106 -1.5004229236867264
vertex -51.49958222328989 50.000021116331304 -1.5004229236867264
vertex -51.49958222328989 50.49987481865083 -1.5004229236867264
endloop
endfacet
facet normal 0 0 -1
outer loop
vertex 0 50.91613229834106 -1.5004229236867264
vertex -51.49958222328989 50.49987481865083 -1.5004229236867264
vertex -51.48062225527087 50.69550721593796 -1.5004229236867264
endloop
endfacet
facet normal 0 0 -1
outer loop
vertex 0 50.91613229834106 -1.5004229236867264
vertex -51.48062225527087 50.69550721593796 -1.5004229236867264
vertex -51.423742351213825 50.882521445943716 -1.5004229236867264
endloop
endfacet
facet normal 0 0 -1
outer loop
vertex 0 50.91613229834106 -1.5004229236867264
vertex -51.423742351213825 50.882521445943716 -1.5004229236867264
vertex -51.33152796130315 51.05574660829927 -1.5004229236867264
endloop
endfacet
facet normal 0 0 -1
outer loop
vertex 0 50.91613229834106 -1.5004229236867264
vertex -51.33152796130315 51.05574660829927 -1.5004229236867264
vertex -51.20742635245141 51.20742635245141 -1.5004229236867264
endloop
endfacet
facet normal 0 0 -1
outer loop
vertex 0 50.91613229834106 -1.5004229236867264
vertex -51.20742635245141 51.20742635245141 -1.5004229236867264
vertex -51.05574660829927 51.33152796130315 -1.5004229236867264
endloop
endfacet
facet normal 0 0 -1
outer loop
vertex 0 50.91613229834106 -1.5004229236867264
vertex -51.05574660829927 51.33152796130315 -1.5004229236867264
vertex -50.882521445943716 51.423742351213825 -1.5004229236867264
endloop
endfacet
facet normal 0 0 -1
outer loop
vertex 0 50.91613229834106 -1.5004229236867264
vertex -50.882521445943716 51.423742351213825 -1.5004229236867264
vertex -50.69550721593796 51.48062225527087 -1.5004229236867264
endloop
endfacet
facet normal 0 0 -1
outer loop
vertex 0 50.91613229834106 -1.5004229236867264
vertex -50.69550721593796 51.48062225527087 -1.5004229236867264
vertex -50.49987481865083 51.49958222328989 -1.5004229236867264
endloop
endfacet
facet normal 0 0 -1
outer loop
vertex 0 50.91613229834106 -1.5004229236867264
vertex -50.49987481865083 51.49958222328989 -1.5004229236867264
vertex 50.49987481865083 51.49958222328989 -1.5004229236867264
endloop
endfacet
facet normal 0 0 -1
outer loop
vertex 0 -50.91613229834106 -1.5004229236867264
vertex -50.000021116331304 -50.000021116331304 -1.5004229236867264
vertex 50.000021116331304 -50.000021116331304 -1.5004229236867264
endloop
endfacet
facet normal 0 0 -1
outer loop
vertex 0 -50.91613229834106 -1.5004229236867264
vertex 50.000021116331304 -50.000021116331304 -1.5004229236867264
vertex 51.49958222328989 -50.000021116331304 -1.5004229236867264
endloop
endfacet
facet normal 0 0 -1
outer loop
vertex 0 -50.91613229834106 -1.5004229236867264
vertex 51.49958222328989 -50.000021116331304 -1.5004229236867264
vertex 51.49958222328989 -50.49987481865083 -1.5004229236867264
endloop
endfacet
facet normal 0 0 -1
outer loop
vertex 0 -50.91613229834106 -1.5004229236867264
vertex 51.49958222328989 -50.49987481865083 -1.5004229236867264
vertex 51.48062225527087 -50.69550721593796 -1.5004229236867264
endloop
endfacet
facet normal 0 0 -1
outer loop
vertex 0 -50.91613229834106 -1.5004229236867264
vertex 51.48062225527087 -50.69550721593796 -1.5004229236867264
vertex 51.423742351213825 -50.882521445943716 -1.5004229236867264
endloop
endfacet
facet normal 0 0 -1
outer loop
vertex 0 -50.91613229834106 -1.5004229236867264
vertex 51.423742351213825 -50.882521445943716 -1.5004229236867264
vertex 51.33152796130315 -51.05574660829927 -1.5004229236867264
endloop
endfacet
facet normal 0 0 -1
outer loop
vertex 0 -50.91613229834106 -1.5004229236867264
vertex 51.33152796130315 -51.05574660829927 -1.5004229236867264
vertex 51.20742635245141 -51.20742635245141 -1.5004229236867264
endloop
endfacet
facet normal 0 0 -1
outer loop
vertex 0 -50.91613229834106 -1.5004229236867264
vertex 51.20742635245141 -51.20742635245141 -1.5004229236867264
vertex 51.05574660829927 -51.33152796130315 -1.5004229236867264
endloop
endfacet
facet normal 0 0 -1
outer loop
vertex 0 -50.91613229834106 -1.5004229236867264
vertex 51.05574660829927 -51.33152796130315 -1.5004229236867264
vertex 50.882521445943716 -51.423742351213825 -1.5004229236867264
endloop
endfacet
facet normal 0 0 -1
outer loop
vertex 0 -50.91613229834106 -1.5004229236867264
vertex 50.882521445943716 -51.423742351213825 -1.5004229236867264
vertex 50.69550721593796 -51.48062225527087 -1.5004229236867264
endloop
endfacet
facet normal 0 0 -1
outer loop
vertex 0 -50.91613229834106 -1.5004229236867264
vertex 50.69550721593796 -51.48062225527087 -1.5004229236867264
vertex 50.49987481865083 -51.49958222328989 -1.5004229236867264
endloop
endfacet
facet normal 0 0 -1
outer loop
vertex 0 -50.91613229834106 -1.5004229236867264
vertex 50.49987481865083 -51.49958222328989 -1.5004229236867264
vertex -50.49987481865083 -51.49958222328989 -1.5004229236867264
endloop
endfacet
facet normal 0 0 -1
outer loop
vertex 0 -50.91613229834106 -1.5004229236867264
vertex -50.49987481865083 -51.49958222328989 -1.5004229236867264
vertex -50.69550721593796 -51.48062225527087 -1.5004229236867264
endloop
endfacet
facet normal 0 0 -1
outer loop
vertex 0 -50.91613229834106 -1.5004229236867264
vertex -50.69550721593796 -51.48062225527087 -1.5004229236867264
vertex -50.882521445943716 -51.423742351213825 -1.5004229236867264
endloop
endfacet
facet normal 0 0 -1
outer loop
vertex 0 -50.91613229834106 -1.5004229236867264
vertex -50.882521445943716 -51.423742351213825 -1.5004229236867264
vertex -51.05574660829927 -51.33152796130315 -1.5004229236867264
endloop
endfacet
facet normal 0 0 -1
outer loop
vertex 0 -50.91613229834106 -1.5004229236867264
vertex -51.05574660829927 -51.33152796130315 -1.5004229236867264
vertex -51.20742635245141 -51.20742635245141 -1.5004229236867264
endloop
endfacet
facet normal 0 0 -1
outer loop
vertex 0 -50.91613229834106 -1.5004229236867264
vertex -51.20742635245141 -51.20742635245141 -1.5004229236867264
vertex -51.33152796130315 -51.05574660829927 -1.5004229236867264
endloop
endfacet
facet normal 0 0 -1
outer loop
vertex 0 -50.91613229834106 -1.5004229236867264
vertex -51.33152796130315 -51.05574660829927 -1.5004229236867264
vertex -51.423742351213825 -50.882521445943716 -1.5004229236867264
endloop
endfacet
facet normal 0 0 -1
outer loop
vertex 0 -50.91613229834106 -1.5004229236867264
vertex -51.423742351213825 -50.882521445943716 -1.5004229236867264
vertex -51.48062225527087 -50.69550721593796 -1.5004229236867264
endloop
endfacet
facet normal 0 0 -1
outer loop
vertex 0 -50.91613229834106 -1.5004229236867264
vertex -51.48062225527087 -50.69550721593796 -1.5004229236867264
vertex -51.49958222328989 -50.49987481865083 -1.5004229236867264
endloop
endfacet
facet normal 0 0 -1
outer loop
vertex 0 -50.91613229834106 -1.5004229236867264
vertex -51.49958222328989 -50.49987481865083 -1.5004229236867264
vertex -51.49958222328989 -50.000021116331304 -1.5004229236867264
endloop
endfacet
facet normal 0 0 -1
outer loop
vertex 0 -50.91613229834106 -1.5004229236867264
vertex -51.49958222328989 -50.000021116331304 -1.5004229236867264
vertex -50.000021116331304 -50.000021116331304 -1.5004229236867264
endloop
endfacet
facet normal 0 0.1736487960069572 -0.984807643981978
outer loop
vertex 53.00000514697662 -50.000021116331304 -48.045420776916316
vertex 50.000021116331304 -50.000021116331304 -48.045420776916316
vertex 50.000021116331304 50.000021116331304 -30.412650519230834
endloop
endfacet
facet normal 0 0.1736487960069572 -0.984807643981978
outer loop
vertex 53.00000514697662 -50.000021116331304 -48.045420776916316
vertex 50.000021116331304 50.000021116331304 -30.412650519230834
vertex 53.00000514697662 50.000021116331304 -30.412650519230834
endloop
endfacet
facet normal 0 0.1736487960069572 -0.984807643981978
outer loop
vertex -50.000021116331304 -50.000021116331304 -48.045420776916316
vertex -53.00000514697662 -50.000021116331304 -48.045420776916316
vertex -53.00000514697662 50.000021116331304 -30.412650519230834
endloop
endfacet
facet normal 0 0.1736487960069572 -0.984807643981978
outer loop
vertex -50.000021116331304 -50.000021116331304 -48.045420776916316
vertex -53.00000514697662 50.000021116331304 -30.412650519230834
vertex -50.000021116331304 50.000021116331304 -30.412650519230834
endloop
endfacet
facet normal 1 0 0
outer loop
vertex 53.00000514697662 -50.000021116331304 -48.045420776916316
vertex 53.00000514697662 50.000021116331304 -30.412650519230834
vertex 53.00000514697662 50.000021116331304 -1.5004229236867264
endloop
endfacet
facet normal 1 0 0
outer loop
vertex 53.00000514697662 -50.000021116331304 -48.045420776916316
vertex 53.00000514697662 50.000021116331304 -1.5004229236867264
vertex 53.00000514697662 -50.000021116331304 -1.5004229236867264
endloop
endfacet
facet normal 0 -1 0
outer loop
vertex 51.49958222328989 -50.000021116331304 -20.118249701632934
vertex 51.49958222328989 -50.000021116331304 -1.5004229236867264
vertex 50.000021116331304 -50.000021116331304 -1.5004229236867264
endloop
endfacet
facet normal 0 -1 0
outer loop
vertex 51.49958222328989 -50.000021116331304 -20.118249701632934
vertex 50.000021116331304 -50.000021116331304 -1.5004229236867264
vertex 50.000021116331304 -50.000021116331304 -48.045420776916316
endloop
endfacet
facet normal 0 -1 0
outer loop
vertex 51.49958222328989 -50.000021116331304 -20.118249701632934
vertex 50.000021116331304 -50.000021116331304 -48.045420776916316
vertex 53.00000514697662 -50.000021116331304 -48.045420776916316
endloop
endfacet
facet normal 0 -1 0
outer loop
vertex 51.49958222328989 -50.000021116331304 -20.118249701632934
vertex 53.00000514697662 -50.000021116331304 -48.045420776916316
vertex 53.00000514697662 -50.000021116331304 -1.5004229236867264
endloop
endfacet
facet normal 0 -1 0
outer loop
vertex 51.49958222328989 -50.000021116331304 -20.118249701632934
vertex 53.00000514697662 -50.000021116331304 -1.5004229236867264
vertex 51.49958222328989 -50.000021116331304 -1.5004229236867264
endloop
endfacet
facet normal 0 -1 0
outer loop
vertex -51.49958222328989 -50.000021116331304 -20.118249701632934
vertex -51.49958222328989 -50.000021116331304 -1.5004229236867264
vertex -53.00000514697662 -50.000021116331304 -1.5004229236867264
endloop
endfacet
facet normal 0 -1 0
outer loop
vertex -51.49958222328989 -50.000021116331304 -20.118249701632934
vertex -53.00000514697662 -50.000021116331304 -1.5004229236867264
vertex -53.00000514697662 -50.000021116331304 -48.045420776916316
endloop
endfacet
facet normal 0 -1 0
outer loop
vertex -51.49958222328989 -50.000021116331304 -20.118249701632934
vertex -53.00000514697662 -50.000021116331304 -48.045420776916316
vertex -50.000021116331304 -50.000021116331304 -48.045420776916316
endloop
endfacet
facet normal 0 -1 0
outer loop
vertex -51.49958222328989 -50.000021116331304 -20.118249701632934
vertex -50.000021116331304 -50.000021116331304 -48.045420776916316
vertex -50.000021116331304 -50.000021116331304 -1.5004229236867264
endloop
endfacet
facet normal 0 -1 0
outer loop
vertex -51.49958222328989 -50.000021116331304 -20.118249701632934
vertex -50.000021116331304 -50.000021116331304 -1.5004229236867264
vertex -51.49958222328989 -50.000021116331304 -1.5004229236867264
endloop
endfacet
facet normal 0 1 0
outer loop
vertex -51.49958222328989 50.000021116331304 -13.065141598558743
vertex -51.49958222328989 50.000021116331304 -1.5004229236867264
vertex -50.000021116331304 50.000021116331304 -1.5004229236867264
endloop
endfacet
facet normal 0 1 0
outer loop
vertex -51.49958222328989 50.000021116331304 -13.065141598558743
vertex -50.000021116331304 50.000021116331304 -1.5004229236867264
vertex -50.000021116331304 50.000021116331304 -30.412650519230834
endloop
endfacet
facet normal 0 1 0
outer loop
vertex -51.49958222328989 50.000021116331304 -13.065141598558743
vertex -50.000021116331304 50.000021116331304 -30.412650519230834
vertex -53.00000514697662 50.000021116331304 -30.412650519230834
endloop
endfacet
facet normal 0 1 0
outer loop
vertex -51.49958222328989 50.000021116331304 -13.065141598558743
vertex -53.00000514697662 50.000021116331304 -30.412650519230834
vertex -53.00000514697662 50.000021116331304 -1.5004229236867264
endloop
endfacet
facet normal 0 1 0
outer loop
vertex -51.49958222328989 50.000021116331304 -13.065141598558743
vertex -53.00000514697662 50.000021116331304 -1.5004229236867264
vertex -51.49958222328989 50.000021116331304 -1.5004229236867264
endloop
endfacet
facet normal 0 1 0
outer loop
vertex 51.49958222328989 50.000021116331304 -13.065141598558743
vertex 51.49958222328989 50.000021116331304 -1.5004229236867264
vertex 53.00000514697662 50.000021116331304 -1.5004229236867264
endloop
endfacet
facet normal 0 1 0
outer loop
vertex 51.49958222328989 50.000021116331304 -13.065141598558743
vertex 53.00000514697662 50.000021116331304 -1.5004229236867264
vertex 53.00000514697662 50.000021116331304 -30.412650519230834
endloop
endfacet
facet normal 0 1 0
outer loop
vertex 51.49958222328989 50.000021116331304 -13.065141598558743
vertex 53.00000514697662 50.000021116331304 -30.412650519230834
vertex 50.000021116331304 50.000021116331304 -30.412650519230834
endloop
endfacet
facet normal 0 1 0
outer loop
vertex 51.49958222328989 50.000021116331304 -13.065141598558743
vertex 50.000021116331304 50.000021116331304 -30.412650519230834
vertex 50.000021116331304 50.000021116331304 -1.5004229236867264
endloop
endfacet
facet normal 0 1 0
outer loop
vertex 51.49958222328989 50.000021116331304 -13.065141598558743
vertex 50.000021116331304 50.000021116331304 -1.5004229236867264
vertex 51.49958222328989 50.000021116331304 -1.5004229236867264
endloop
endfacet
facet normal -1 0 0
outer loop
vertex -53.00000514697662 -50.000021116331304 -48.045420776916316
vertex -53.00000514697662 -50.000021116331304 -1.5004229236867264
vertex -53.00000514697662 50.000021116331304 -1.5004229236867264
endloop
endfacet
facet normal -1 0 0
outer loop
vertex -53.00000514697662 -50.000021116331304 -48.045420776916316
vertex -53.00000514697662 50.000021116331304 -1.5004229236867264
vertex -53.00000514697662 50.000021116331304 -30.412650519230834
endloop
endfacet
facet normal 0 0 1
outer loop
vertex 51.49958222328989 50.000021116331304 -1.5004229236867264
vertex 51.49958222328989 -50.000021116331304 -1.5004229236867264
vertex 53.00000514697662 -50.000021116331304 -1.5004229236867264
endloop
endfacet
facet normal 0 0 1
outer loop
vertex 51.49958222328989 50.000021116331304 -1.5004229236867264
vertex 53.00000514697662 -50.000021116331304 -1.5004229236867264
vertex 53.00000514697662 50.000021116331304 -1.5004229236867264
endloop
endfacet
facet normal 0 0 1
outer loop
vertex -53.00000514697662 50.000021116331304 -1.5004229236867264
vertex -53.00000514697662 -50.000021116331304 -1.5004229236867264
vertex -51.49958222328989 -50.000021116331304 -1.5004229236867264
endloop
endfacet
facet normal 0 0 1
outer loop
vertex -53.00000514697662 50.000021116331304 -1.5004229236867264
vertex -51.49958222328989 -50.000021116331304 -1.5004229236867264
vertex -51.49958222328989 50.000021116331304 -1.5004229236867264
endloop
endfacet
endsolid JSCAD
