solid JSCAD
facet normal 1 0 0
outer loop
vertex 52.50006666666675 -13.788666666666689 -6.191466666666677
vertex 52.50006666666675 -51.499933333333416 23.99973333333337
vertex 52.50006666666675 -51.499933333333416 -24.999866666666705
endloop
endfacet
facet normal 1 0 0
outer loop
vertex 52.50006666666675 -13.788666666666689 -6.191466666666677
vertex 52.50006666666675 -51.499933333333416 -24.999866666666705
vertex 52.50006666666675 -49.99973333333341 -24.999866666666705
endloop
endfacet
facet normal 1 0 0
outer loop
vertex 52.50006666666675 -13.788666666666689 -6.191466666666677
vertex 52.50006666666675 -49.99973333333341 -24.999866666666705
vertex 52.50006666666675 -32.73053333333338 -24.999866666666705
endloop
endfacet
facet normal 1 0 0
outer loop
vertex 52.50006666666675 -13.788666666666689 -6.191466666666677
vertex 52.50006666666675 -32.73053333333338 -24.999866666666705
vertex 52.50006666666675 51.499933333333416 -10.147800000000016
endloop
endfacet
facet normal 1 0 0
outer loop
vertex 52.50006666666675 -13.788666666666689 -6.191466666666677
vertex 52.50006666666675 51.499933333333416 -10.147800000000016
vertex 52.50006666666675 51.499933333333416 23.99973333333337
endloop
endfacet
facet normal 1 0 0
outer loop
vertex 52.50006666666675 -13.788666666666689 -6.191466666666677
vertex 52.50006666666675 51.499933333333416 23.99973333333337
vertex 52.50006666666675 -51.499933333333416 23.99973333333337
endloop
endfacet
facet normal -0.99525375841151 -0.09731370082246149 0
outer loop
vertex -52.50006666666675 -51.499933333333416 23.99973333333337
vertex -52.50006666666675 -51.499933333333416 -24.999866666666705
vertex -52.48100000000008 -51.69493333333342 -24.999866666666705
endloop
endfacet
facet normal -0.99525375841151 -0.09731370082246149 0
outer loop
vertex -52.50006666666675 -51.499933333333416 23.99973333333337
vertex -52.48100000000008 -51.69493333333342 -24.999866666666705
vertex -52.48100000000008 -51.69493333333342 23.99973333333337
endloop
endfacet
facet normal -0.9567272590994921 -0.29098617097032875 0
outer loop
vertex -52.48100000000008 -51.69493333333342 23.99973333333337
vertex -52.48100000000008 -51.69493333333342 -24.999866666666705
vertex -52.423800000000085 -51.88300000000008 -24.999866666666705
endloop
endfacet
facet normal -0.9567272590994921 -0.29098617097032875 0
outer loop
vertex -52.48100000000008 -51.69493333333342 23.99973333333337
vertex -52.423800000000085 -51.88300000000008 -24.999866666666705
vertex -52.423800000000085 -51.88300000000008 23.99973333333337
endloop
endfacet
facet normal -0.8807551741474207 -0.473571877556667 0
outer loop
vertex -52.423800000000085 -51.88300000000008 23.99973333333337
vertex -52.423800000000085 -51.88300000000008 -24.999866666666705
vertex -52.33106666666675 -52.055466666666746 -24.999866666666705
endloop
endfacet
facet normal -0.8807551741474207 -0.473571877556667 0
outer loop
vertex -52.423800000000085 -51.88300000000008 23.99973333333337
vertex -52.33106666666675 -52.055466666666746 -24.999866666666705
vertex -52.33106666666675 -52.055466666666746 23.99973333333337
endloop
endfacet
facet normal -0.7743514441033962 -0.6327557514673298 0
outer loop
vertex -52.33106666666675 -52.055466666666746 23.99973333333337
vertex -52.33106666666675 -52.055466666666746 -24.999866666666705
vertex -52.20713333333342 -52.20713333333342 -24.999866666666705
endloop
endfacet
facet normal -0.7743514441033962 -0.6327557514673298 0
outer loop
vertex -52.33106666666675 -52.055466666666746 23.99973333333337
vertex -52.20713333333342 -52.20713333333342 -24.999866666666705
vertex -52.20713333333342 -52.20713333333342 23.99973333333337
endloop
endfacet
facet normal -0.6327557514673298 -0.7743514441033962 0
outer loop
vertex -52.20713333333342 -52.20713333333342 23.99973333333337
vertex -52.20713333333342 -52.20713333333342 -24.999866666666705
vertex -52.055466666666746 -52.33106666666675 -24.999866666666705
endloop
endfacet
facet normal -0.6327557514673298 -0.7743514441033962 0
outer loop
vertex -52.20713333333342 -52.20713333333342 23.99973333333337
vertex -52.055466666666746 -52.33106666666675 -24.999866666666705
vertex -52.055466666666746 -52.33106666666675 23.99973333333337
endloop
endfacet
facet normal -0.473571877556667 -0.8807551741474207 0
outer loop
vertex -52.055466666666746 -52.33106666666675 23.99973333333337
vertex -52.055466666666746 -52.33106666666675 -24.999866666666705
vertex -51.88300000000008 -52.423800000000085 -24.999866666666705
endloop
endfacet
facet normal -0.473571877556667 -0.8807551741474207 0
outer loop
vertex -52.055466666666746 -52.33106666666675 23.99973333333337
vertex -51.88300000000008 -52.423800000000085 -24.999866666666705
vertex -51.88300000000008 -52.423800000000085 23.99973333333337
endloop
endfacet
facet normal -0.29098617097032875 -0.9567272590994921 0
outer loop
vertex -51.88300000000008 -52.423800000000085 23.99973333333337
vertex -51.88300000000008 -52.423800000000085 -24.999866666666705
vertex -51.69493333333342 -52.48100000000008 -24.999866666666705
endloop
endfacet
facet normal -0.29098617097032875 -0.9567272590994921 0
outer loop
vertex -51.88300000000008 -52.423800000000085 23.99973333333337
vertex -51.69493333333342 -52.48100000000008 -24.999866666666705
vertex -51.69493333333342 -52.48100000000008 23.99973333333337
endloop
endfacet
facet normal -0.09731370082246149 -0.99525375841151 0
outer loop
vertex -51.69493333333342 -52.48100000000008 23.99973333333337
vertex -51.69493333333342 -52.48100000000008 -24.999866666666705
vertex -51.499933333333416 -52.50006666666675 -24.999866666666705
endloop
endfacet
facet normal -0.09731370082246149 -0.99525375841151 0
outer loop
vertex -51.69493333333342 -52.48100000000008 23.99973333333337
vertex -51.499933333333416 -52.50006666666675 -24.999866666666705
vertex -51.499933333333416 -52.50006666666675 23.99973333333337
endloop
endfacet
facet normal 0 -1 0
outer loop
vertex -51.499933333333416 -52.50006666666675 23.99973333333337
vertex -51.499933333333416 -52.50006666666675 -24.999866666666705
vertex 51.499933333333416 -52.50006666666675 -24.999866666666705
endloop
endfacet
facet normal 0 -1 0
outer loop
vertex -51.499933333333416 -52.50006666666675 23.99973333333337
vertex 51.499933333333416 -52.50006666666675 -24.999866666666705
vertex 51.499933333333416 -52.50006666666675 23.99973333333337
endloop
endfacet
facet normal 0.09731370082246149 -0.99525375841151 0
outer loop
vertex 51.499933333333416 -52.50006666666675 23.99973333333337
vertex 51.499933333333416 -52.50006666666675 -24.999866666666705
vertex 51.69493333333342 -52.48100000000008 -24.999866666666705
endloop
endfacet
facet normal 0.09731370082246149 -0.99525375841151 0
outer loop
vertex 51.499933333333416 -52.50006666666675 23.99973333333337
vertex 51.69493333333342 -52.48100000000008 -24.999866666666705
vertex 51.69493333333342 -52.48100000000008 23.99973333333337
endloop
endfacet
facet normal 0.29098617097032875 -0.9567272590994921 0
outer loop
vertex 51.69493333333342 -52.48100000000008 23.99973333333337
vertex 51.69493333333342 -52.48100000000008 -24.999866666666705
vertex 51.88300000000008 -52.423800000000085 -24.999866666666705
endloop
endfacet
facet normal 0.29098617097032875 -0.9567272590994921 0
outer loop
vertex 51.69493333333342 -52.48100000000008 23.99973333333337
vertex 51.88300000000008 -52.423800000000085 -24.999866666666705
vertex 51.88300000000008 -52.423800000000085 23.99973333333337
endloop
endfacet
facet normal 0.473571877556667 -0.8807551741474207 0
outer loop
vertex 51.88300000000008 -52.423800000000085 23.99973333333337
vertex 51.88300000000008 -52.423800000000085 -24.999866666666705
vertex 52.055466666666746 -52.33106666666675 -24.999866666666705
endloop
endfacet
facet normal 0.473571877556667 -0.8807551741474207 0
outer loop
vertex 51.88300000000008 -52.423800000000085 23.99973333333337
vertex 52.055466666666746 -52.33106666666675 -24.999866666666705
vertex 52.055466666666746 -52.33106666666675 23.99973333333337
endloop
endfacet
facet normal 0.6327557514673298 -0.7743514441033962 0
outer loop
vertex 52.055466666666746 -52.33106666666675 23.99973333333337
vertex 52.055466666666746 -52.33106666666675 -24.999866666666705
vertex 52.20713333333342 -52.20713333333342 -24.999866666666705
endloop
endfacet
facet normal 0.6327557514673298 -0.7743514441033962 0
outer loop
vertex 52.055466666666746 -52.33106666666675 23.99973333333337
vertex 52.20713333333342 -52.20713333333342 -24.999866666666705
vertex 52.20713333333342 -52.20713333333342 23.99973333333337
endloop
endfacet
facet normal 0.7743514441033962 -0.6327557514673298 0
outer loop
vertex 52.20713333333342 -52.20713333333342 23.99973333333337
vertex 52.20713333333342 -52.20713333333342 -24.999866666666705
vertex 52.33106666666675 -52.055466666666746 -24.999866666666705
endloop
endfacet
facet normal 0.7743514441033962 -0.6327557514673298 0
outer loop
vertex 52.20713333333342 -52.20713333333342 23.99973333333337
vertex 52.33106666666675 -52.055466666666746 -24.999866666666705
vertex 52.33106666666675 -52.055466666666746 23.99973333333337
endloop
endfacet
facet normal 0.8807551741474207 -0.473571877556667 0
outer loop
vertex 52.33106666666675 -52.055466666666746 23.99973333333337
vertex 52.33106666666675 -52.055466666666746 -24.999866666666705
vertex 52.423800000000085 -51.88300000000008 -24.999866666666705
endloop
endfacet
facet normal 0.8807551741474207 -0.473571877556667 0
outer loop
vertex 52.33106666666675 -52.055466666666746 23.99973333333337
vertex 52.423800000000085 -51.88300000000008 -24.999866666666705
vertex 52.423800000000085 -51.88300000000008 23.99973333333337
endloop
endfacet
facet normal 0.9567272590994921 -0.29098617097032875 0
outer loop
vertex 52.423800000000085 -51.88300000000008 23.99973333333337
vertex 52.423800000000085 -51.88300000000008 -24.999866666666705
vertex 52.48100000000008 -51.69493333333342 -24.999866666666705
endloop
endfacet
facet normal 0.9567272590994921 -0.29098617097032875 0
outer loop
vertex 52.423800000000085 -51.88300000000008 23.99973333333337
vertex 52.48100000000008 -51.69493333333342 -24.999866666666705
vertex 52.48100000000008 -51.69493333333342 23.99973333333337
endloop
endfacet
facet normal 0.99525375841151 -0.09731370082246149 0
outer loop
vertex 52.48100000000008 -51.69493333333342 23.99973333333337
vertex 52.48100000000008 -51.69493333333342 -24.999866666666705
vertex 52.50006666666675 -51.499933333333416 -24.999866666666705
endloop
endfacet
facet normal 0.99525375841151 -0.09731370082246149 0
outer loop
vertex 52.48100000000008 -51.69493333333342 23.99973333333337
vertex 52.50006666666675 -51.499933333333416 -24.999866666666705
vertex 52.50006666666675 -51.499933333333416 23.99973333333337
endloop
endfacet
facet normal 0.8948915865043467 0 0.4462835963865729
outer loop
vertex 52.16640000000008 0 24.66620000000004
vertex 52.000000000000085 51.00940000000008 24.999866666666705
vertex 52.000000000000085 49.99973333333341 24.999866666666705
endloop
endfacet
facet normal 0.8948915865043464 0 0.44628359638657317
outer loop
vertex 52.16640000000008 0 24.66620000000004
vertex 52.000000000000085 49.99973333333341 24.999866666666705
vertex 52.000000000000085 -49.99973333333341 24.999866666666705
endloop
endfacet
facet normal 0.8948915865043467 0 0.4462835963865729
outer loop
vertex 52.16640000000008 0 24.66620000000004
vertex 52.000000000000085 -49.99973333333341 24.999866666666705
vertex 52.000000000000085 -51.00940000000008 24.999866666666705
endloop
endfacet
facet normal 0.8944286768950461 0.000007574020676280644 0.44721062363321773
outer loop
vertex 52.16640000000008 0 24.66620000000004
vertex 52.000000000000085 -51.00940000000008 24.999866666666705
vertex 52.50006666666675 -51.499933333333416 23.99973333333337
endloop
endfacet
facet normal 0.8941945097230802 0 0.44767865571311344
outer loop
vertex 52.16640000000008 0 24.66620000000004
vertex 52.50006666666675 -51.499933333333416 23.99973333333337
vertex 52.50006666666675 51.499933333333416 23.99973333333337
endloop
endfacet
facet normal 0.8944286768950461 -0.000007574020676280644 0.44721062363321773
outer loop
vertex 52.16640000000008 0 24.66620000000004
vertex 52.50006666666675 51.499933333333416 23.99973333333337
vertex 52.000000000000085 51.00940000000008 24.999866666666705
endloop
endfacet
facet normal 0.8735503580142479 0.08617985594759353 0.47904363521711796
outer loop
vertex 51.98093333333342 51.20266666666675 24.999866666666705
vertex 52.000000000000085 51.00940000000008 24.999866666666705
vertex 52.50006666666675 51.499933333333416 23.99973333333337
endloop
endfacet
facet normal 0.8737030693182348 0.08542874455556336 0.4788996515634106
outer loop
vertex 51.98093333333342 51.20266666666675 24.999866666666705
vertex 52.50006666666675 51.499933333333416 23.99973333333337
vertex 52.48100000000008 51.69493333333342 23.99973333333337
endloop
endfacet
facet normal 0.8126838448219568 0.24684322389453023 0.52783841389459
outer loop
vertex 51.92460000000008 51.388133333333414 24.999866666666705
vertex 51.98093333333342 51.20266666666675 24.999866666666705
vertex 52.48100000000008 51.69493333333342 23.99973333333337
endloop
endfacet
facet normal 0.8125733609214323 0.24714212820649847 0.5278686404650407
outer loop
vertex 51.92460000000008 51.388133333333414 24.999866666666705
vertex 52.48100000000008 51.69493333333342 23.99973333333337
vertex 52.423800000000085 51.88300000000008 23.99973333333337
endloop
endfacet
facet normal 0.7312058988627975 0.39145366302756895 0.558660865973756
outer loop
vertex 51.832733333333415 51.55973333333341 24.999866666666705
vertex 51.92460000000008 51.388133333333414 24.999866666666705
vertex 52.423800000000085 51.88300000000008 23.99973333333337
endloop
endfacet
facet normal 0.7304916603555041 0.39277692290472976 0.5586664684626699
outer loop
vertex 51.832733333333415 51.55973333333341 24.999866666666705
vertex 52.423800000000085 51.88300000000008 23.99973333333337
vertex 52.33106666666675 52.055466666666746 23.99973333333337
endloop
endfacet
facet normal 0.6333477534602597 0.5198576935916452 0.5732526507574275
outer loop
vertex 51.70966666666675 51.70966666666675 24.999866666666705
vertex 51.832733333333415 51.55973333333341 24.999866666666705
vertex 52.33106666666675 52.055466666666746 23.99973333333337
endloop
endfacet
facet normal 0.634404532749342 0.5183991324751632 0.5734049426679956
outer loop
vertex 51.70966666666675 51.70966666666675 24.999866666666705
vertex 52.33106666666675 52.055466666666746 23.99973333333337
vertex 52.20713333333342 52.20713333333342 23.99973333333337
endloop
endfacet
facet normal 0.5198576935916454 0.6333477534602595 0.5732526507574275
outer loop
vertex 52.055466666666746 52.33106666666675 23.99973333333337
vertex 51.55973333333341 51.832733333333415 24.999866666666705
vertex 51.70966666666675 51.70966666666675 24.999866666666705
endloop
endfacet
facet normal 0.5183991324751629 0.6344045327493422 0.5734049426679956
outer loop
vertex 52.055466666666746 52.33106666666675 23.99973333333337
vertex 51.70966666666675 51.70966666666675 24.999866666666705
vertex 52.20713333333342 52.20713333333342 23.99973333333337
endloop
endfacet
facet normal 0.39145366302756907 0.7312058988627974 0.558660865973756
outer loop
vertex 51.88300000000008 52.423800000000085 23.99973333333337
vertex 51.388133333333414 51.92460000000008 24.999866666666705
vertex 51.55973333333341 51.832733333333415 24.999866666666705
endloop
endfacet
facet normal 0.3927769229047295 0.730491660355504 0.5586664684626698
outer loop
vertex 51.88300000000008 52.423800000000085 23.99973333333337
vertex 51.55973333333341 51.832733333333415 24.999866666666705
vertex 52.055466666666746 52.33106666666675 23.99973333333337
endloop
endfacet
facet normal 0.24684322389453034 0.8126838448219568 0.52783841389459
outer loop
vertex 51.69493333333342 52.48100000000008 23.99973333333337
vertex 51.20266666666675 51.98093333333342 24.999866666666705
vertex 51.388133333333414 51.92460000000008 24.999866666666705
endloop
endfacet
facet normal 0.24714212820649853 0.8125733609214324 0.5278686404650407
outer loop
vertex 51.69493333333342 52.48100000000008 23.99973333333337
vertex 51.388133333333414 51.92460000000008 24.999866666666705
vertex 51.88300000000008 52.423800000000085 23.99973333333337
endloop
endfacet
facet normal 0.08617985594759377 0.8735503580142479 0.47904363521711807
outer loop
vertex 51.499933333333416 52.50006666666675 23.99973333333337
vertex 51.00940000000008 52.000000000000085 24.999866666666705
vertex 51.20266666666675 51.98093333333342 24.999866666666705
endloop
endfacet
facet normal 0.08542874455556315 0.8737030693182348 0.4788996515634107
outer loop
vertex 51.499933333333416 52.50006666666675 23.99973333333337
vertex 51.20266666666675 51.98093333333342 24.999866666666705
vertex 51.69493333333342 52.48100000000008 23.99973333333337
endloop
endfacet
facet normal 0 0.8944271909999179 0.44721359549995415
outer loop
vertex -51.499933333333416 52.50006666666675 23.99973333333337
vertex -51.00940000000008 52.000000000000085 24.999866666666705
vertex 51.00940000000008 52.000000000000085 24.999866666666705
endloop
endfacet
facet normal 0 0.8944271909999177 0.44721359549995415
outer loop
vertex -51.499933333333416 52.50006666666675 23.99973333333337
vertex 51.00940000000008 52.000000000000085 24.999866666666705
vertex 51.499933333333416 52.50006666666675 23.99973333333337
endloop
endfacet
facet normal -0.08542874455556315 0.8737030693182348 0.4788996515634107
outer loop
vertex -51.499933333333416 52.50006666666675 23.99973333333337
vertex -51.69493333333342 52.48100000000008 23.99973333333337
vertex -51.20266666666675 51.98093333333342 24.999866666666705
endloop
endfacet
facet normal -0.08617985594759377 0.8735503580142479 0.47904363521711807
outer loop
vertex -51.499933333333416 52.50006666666675 23.99973333333337
vertex -51.20266666666675 51.98093333333342 24.999866666666705
vertex -51.00940000000008 52.000000000000085 24.999866666666705
endloop
endfacet
facet normal -0.24714212820649853 0.8125733609214324 0.5278686404650407
outer loop
vertex -51.69493333333342 52.48100000000008 23.99973333333337
vertex -51.88300000000008 52.423800000000085 23.99973333333337
vertex -51.388133333333414 51.92460000000008 24.999866666666705
endloop
endfacet
facet normal -0.24684322389453034 0.8126838448219568 0.52783841389459
outer loop
vertex -51.69493333333342 52.48100000000008 23.99973333333337
vertex -51.388133333333414 51.92460000000008 24.999866666666705
vertex -51.20266666666675 51.98093333333342 24.999866666666705
endloop
endfacet
facet normal -0.3927769229047295 0.730491660355504 0.5586664684626698
outer loop
vertex -51.88300000000008 52.423800000000085 23.99973333333337
vertex -52.055466666666746 52.33106666666675 23.99973333333337
vertex -51.55973333333341 51.832733333333415 24.999866666666705
endloop
endfacet
facet normal -0.39145366302756907 0.7312058988627974 0.558660865973756
outer loop
vertex -51.88300000000008 52.423800000000085 23.99973333333337
vertex -51.55973333333341 51.832733333333415 24.999866666666705
vertex -51.388133333333414 51.92460000000008 24.999866666666705
endloop
endfacet
facet normal -0.5183991324751629 0.6344045327493422 0.5734049426679956
outer loop
vertex -52.055466666666746 52.33106666666675 23.99973333333337
vertex -52.20713333333342 52.20713333333342 23.99973333333337
vertex -51.70966666666675 51.70966666666675 24.999866666666705
endloop
endfacet
facet normal -0.5198576935916454 0.6333477534602595 0.5732526507574275
outer loop
vertex -52.055466666666746 52.33106666666675 23.99973333333337
vertex -51.70966666666675 51.70966666666675 24.999866666666705
vertex -51.55973333333341 51.832733333333415 24.999866666666705
endloop
endfacet
facet normal -0.6333477534602595 0.5198576935916454 0.5732526507574275
outer loop
vertex -52.33106666666675 52.055466666666746 23.99973333333337
vertex -51.832733333333415 51.55973333333341 24.999866666666705
vertex -51.70966666666675 51.70966666666675 24.999866666666705
endloop
endfacet
facet normal -0.6344045327493422 0.5183991324751629 0.5734049426679956
outer loop
vertex -52.33106666666675 52.055466666666746 23.99973333333337
vertex -51.70966666666675 51.70966666666675 24.999866666666705
vertex -52.20713333333342 52.20713333333342 23.99973333333337
endloop
endfacet
facet normal -0.7312058988627974 0.39145366302756907 0.558660865973756
outer loop
vertex -52.423800000000085 51.88300000000008 23.99973333333337
vertex -51.92460000000008 51.388133333333414 24.999866666666705
vertex -51.832733333333415 51.55973333333341 24.999866666666705
endloop
endfacet
facet normal -0.730491660355504 0.3927769229047295 0.5586664684626698
outer loop
vertex -52.423800000000085 51.88300000000008 23.99973333333337
vertex -51.832733333333415 51.55973333333341 24.999866666666705
vertex -52.33106666666675 52.055466666666746 23.99973333333337
endloop
endfacet
facet normal -0.8126838448219568 0.24684322389453034 0.52783841389459
outer loop
vertex -52.48100000000008 51.69493333333342 23.99973333333337
vertex -51.98093333333342 51.20266666666675 24.999866666666705
vertex -51.92460000000008 51.388133333333414 24.999866666666705
endloop
endfacet
facet normal -0.8125733609214324 0.24714212820649853 0.5278686404650407
outer loop
vertex -52.48100000000008 51.69493333333342 23.99973333333337
vertex -51.92460000000008 51.388133333333414 24.999866666666705
vertex -52.423800000000085 51.88300000000008 23.99973333333337
endloop
endfacet
facet normal -0.8735503580142479 0.08617985594759377 0.47904363521711807
outer loop
vertex -52.50006666666675 51.499933333333416 23.99973333333337
vertex -52.000000000000085 51.00940000000008 24.999866666666705
vertex -51.98093333333342 51.20266666666675 24.999866666666705
endloop
endfacet
facet normal -0.8737030693182348 0.08542874455556315 0.4788996515634107
outer loop
vertex -52.50006666666675 51.499933333333416 23.99973333333337
vertex -51.98093333333342 51.20266666666675 24.999866666666705
vertex -52.48100000000008 51.69493333333342 23.99973333333337
endloop
endfacet
facet normal -0.8944286768950461 0.000007574020676280644 0.44721062363321773
outer loop
vertex -52.16640000000008 0 24.66620000000004
vertex -52.50006666666675 -51.499933333333416 23.99973333333337
vertex -52.000000000000085 -51.00940000000008 24.999866666666705
endloop
endfacet
facet normal -0.8948915865043467 0 0.4462835963865729
outer loop
vertex -52.16640000000008 0 24.66620000000004
vertex -52.000000000000085 -51.00940000000008 24.999866666666705
vertex -52.000000000000085 -49.99973333333341 24.999866666666705
endloop
endfacet
facet normal -0.8948915865043464 0 0.44628359638657317
outer loop
vertex -52.16640000000008 0 24.66620000000004
vertex -52.000000000000085 -49.99973333333341 24.999866666666705
vertex -52.000000000000085 49.99973333333341 24.999866666666705
endloop
endfacet
facet normal -0.8948915865043467 0 0.4462835963865729
outer loop
vertex -52.16640000000008 0 24.66620000000004
vertex -52.000000000000085 49.99973333333341 24.999866666666705
vertex -52.000000000000085 51.00940000000008 24.999866666666705
endloop
endfacet
facet normal -0.8944286768950461 -0.000007574020676280644 0.44721062363321773
outer loop
vertex -52.16640000000008 0 24.66620000000004
vertex -52.000000000000085 51.00940000000008 24.999866666666705
vertex -52.50006666666675 51.499933333333416 23.99973333333337
endloop
endfacet
facet normal -0.8941945097230802 0 0.44767865571311344
outer loop
vertex -52.16640000000008 0 24.66620000000004
vertex -52.50006666666675 51.499933333333416 23.99973333333337
vertex -52.50006666666675 -51.499933333333416 23.99973333333337
endloop
endfacet
facet normal -0.8737030693182348 -0.08542874455556315 0.4788996515634107
outer loop
vertex -52.50006666666675 -51.499933333333416 23.99973333333337
vertex -52.48100000000008 -51.69493333333342 23.99973333333337
vertex -51.98093333333342 -51.20266666666675 24.999866666666705
endloop
endfacet
facet normal -0.8735503580142479 -0.08617985594759377 0.47904363521711807
outer loop
vertex -52.50006666666675 -51.499933333333416 23.99973333333337
vertex -51.98093333333342 -51.20266666666675 24.999866666666705
vertex -52.000000000000085 -51.00940000000008 24.999866666666705
endloop
endfacet
facet normal -0.8125733609214324 -0.24714212820649853 0.5278686404650407
outer loop
vertex -52.48100000000008 -51.69493333333342 23.99973333333337
vertex -52.423800000000085 -51.88300000000008 23.99973333333337
vertex -51.92460000000008 -51.388133333333414 24.999866666666705
endloop
endfacet
facet normal -0.8126838448219568 -0.24684322389453034 0.52783841389459
outer loop
vertex -52.48100000000008 -51.69493333333342 23.99973333333337
vertex -51.92460000000008 -51.388133333333414 24.999866666666705
vertex -51.98093333333342 -51.20266666666675 24.999866666666705
endloop
endfacet
facet normal -0.730491660355504 -0.3927769229047295 0.5586664684626698
outer loop
vertex -52.423800000000085 -51.88300000000008 23.99973333333337
vertex -52.33106666666675 -52.055466666666746 23.99973333333337
vertex -51.832733333333415 -51.55973333333341 24.999866666666705
endloop
endfacet
facet normal -0.7312058988627974 -0.39145366302756907 0.558660865973756
outer loop
vertex -52.423800000000085 -51.88300000000008 23.99973333333337
vertex -51.832733333333415 -51.55973333333341 24.999866666666705
vertex -51.92460000000008 -51.388133333333414 24.999866666666705
endloop
endfacet
facet normal -0.6344045327493422 -0.5183991324751629 0.5734049426679956
outer loop
vertex -52.33106666666675 -52.055466666666746 23.99973333333337
vertex -52.20713333333342 -52.20713333333342 23.99973333333337
vertex -51.70966666666675 -51.70966666666675 24.999866666666705
endloop
endfacet
facet normal -0.6333477534602595 -0.5198576935916454 0.5732526507574275
outer loop
vertex -52.33106666666675 -52.055466666666746 23.99973333333337
vertex -51.70966666666675 -51.70966666666675 24.999866666666705
vertex -51.832733333333415 -51.55973333333341 24.999866666666705
endloop
endfacet
facet normal -0.5183991324751632 -0.634404532749342 0.5734049426679956
outer loop
vertex -51.70966666666675 -51.70966666666675 24.999866666666705
vertex -52.20713333333342 -52.20713333333342 23.99973333333337
vertex -52.055466666666746 -52.33106666666675 23.99973333333337
endloop
endfacet
facet normal -0.5198576935916452 -0.6333477534602597 0.5732526507574275
outer loop
vertex -51.70966666666675 -51.70966666666675 24.999866666666705
vertex -52.055466666666746 -52.33106666666675 23.99973333333337
vertex -51.55973333333341 -51.832733333333415 24.999866666666705
endloop
endfacet
facet normal -0.39277692290472976 -0.7304916603555041 0.5586664684626699
outer loop
vertex -51.55973333333341 -51.832733333333415 24.999866666666705
vertex -52.055466666666746 -52.33106666666675 23.99973333333337
vertex -51.88300000000008 -52.423800000000085 23.99973333333337
endloop
endfacet
facet normal -0.39145366302756895 -0.7312058988627975 0.558660865973756
outer loop
vertex -51.55973333333341 -51.832733333333415 24.999866666666705
vertex -51.88300000000008 -52.423800000000085 23.99973333333337
vertex -51.388133333333414 -51.92460000000008 24.999866666666705
endloop
endfacet
facet normal -0.24714212820649847 -0.8125733609214323 0.5278686404650407
outer loop
vertex -51.388133333333414 -51.92460000000008 24.999866666666705
vertex -51.88300000000008 -52.423800000000085 23.99973333333337
vertex -51.69493333333342 -52.48100000000008 23.99973333333337
endloop
endfacet
facet normal -0.24684322389453023 -0.8126838448219568 0.52783841389459
outer loop
vertex -51.388133333333414 -51.92460000000008 24.999866666666705
vertex -51.69493333333342 -52.48100000000008 23.99973333333337
vertex -51.20266666666675 -51.98093333333342 24.999866666666705
endloop
endfacet
facet normal -0.08542874455556336 -0.8737030693182348 0.4788996515634106
outer loop
vertex -51.20266666666675 -51.98093333333342 24.999866666666705
vertex -51.69493333333342 -52.48100000000008 23.99973333333337
vertex -51.499933333333416 -52.50006666666675 23.99973333333337
endloop
endfacet
facet normal -0.08617985594759353 -0.8735503580142479 0.47904363521711796
outer loop
vertex -51.20266666666675 -51.98093333333342 24.999866666666705
vertex -51.499933333333416 -52.50006666666675 23.99973333333337
vertex -51.00940000000008 -52.000000000000085 24.999866666666705
endloop
endfacet
facet normal 0 -0.8944271909999179 0.4472135954999541
outer loop
vertex 51.00940000000008 -52.000000000000085 24.999866666666705
vertex -51.00940000000008 -52.000000000000085 24.999866666666705
vertex -51.499933333333416 -52.50006666666675 23.99973333333337
endloop
endfacet
facet normal 0 -0.8944271909999179 0.44721359549995415
outer loop
vertex 51.00940000000008 -52.000000000000085 24.999866666666705
vertex -51.499933333333416 -52.50006666666675 23.99973333333337
vertex 51.499933333333416 -52.50006666666675 23.99973333333337
endloop
endfacet
facet normal 0.08617985594759353 -0.8735503580142479 0.47904363521711796
outer loop
vertex 51.20266666666675 -51.98093333333342 24.999866666666705
vertex 51.00940000000008 -52.000000000000085 24.999866666666705
vertex 51.499933333333416 -52.50006666666675 23.99973333333337
endloop
endfacet
facet normal 0.08542874455556336 -0.8737030693182348 0.4788996515634106
outer loop
vertex 51.20266666666675 -51.98093333333342 24.999866666666705
vertex 51.499933333333416 -52.50006666666675 23.99973333333337
vertex 51.69493333333342 -52.48100000000008 23.99973333333337
endloop
endfacet
facet normal 0.24684322389453023 -0.8126838448219568 0.52783841389459
outer loop
vertex 51.388133333333414 -51.92460000000008 24.999866666666705
vertex 51.20266666666675 -51.98093333333342 24.999866666666705
vertex 51.69493333333342 -52.48100000000008 23.99973333333337
endloop
endfacet
facet normal 0.24714212820649847 -0.8125733609214323 0.5278686404650407
outer loop
vertex 51.388133333333414 -51.92460000000008 24.999866666666705
vertex 51.69493333333342 -52.48100000000008 23.99973333333337
vertex 51.88300000000008 -52.423800000000085 23.99973333333337
endloop
endfacet
facet normal 0.39145366302756895 -0.7312058988627975 0.558660865973756
outer loop
vertex 51.55973333333341 -51.832733333333415 24.999866666666705
vertex 51.388133333333414 -51.92460000000008 24.999866666666705
vertex 51.88300000000008 -52.423800000000085 23.99973333333337
endloop
endfacet
facet normal 0.39277692290472976 -0.7304916603555041 0.5586664684626699
outer loop
vertex 51.55973333333341 -51.832733333333415 24.999866666666705
vertex 51.88300000000008 -52.423800000000085 23.99973333333337
vertex 52.055466666666746 -52.33106666666675 23.99973333333337
endloop
endfacet
facet normal 0.5198576935916452 -0.6333477534602597 0.5732526507574275
outer loop
vertex 51.70966666666675 -51.70966666666675 24.999866666666705
vertex 51.55973333333341 -51.832733333333415 24.999866666666705
vertex 52.055466666666746 -52.33106666666675 23.99973333333337
endloop
endfacet
facet normal 0.5183991324751632 -0.634404532749342 0.5734049426679956
outer loop
vertex 51.70966666666675 -51.70966666666675 24.999866666666705
vertex 52.055466666666746 -52.33106666666675 23.99973333333337
vertex 52.20713333333342 -52.20713333333342 23.99973333333337
endloop
endfacet
facet normal 0.634404532749342 -0.5183991324751632 0.5734049426679956
outer loop
vertex 51.70966666666675 -51.70966666666675 24.999866666666705
vertex 52.20713333333342 -52.20713333333342 23.99973333333337
vertex 52.33106666666675 -52.055466666666746 23.99973333333337
endloop
endfacet
facet normal 0.6333477534602597 -0.5198576935916452 0.5732526507574275
outer loop
vertex 51.70966666666675 -51.70966666666675 24.999866666666705
vertex 52.33106666666675 -52.055466666666746 23.99973333333337
vertex 51.832733333333415 -51.55973333333341 24.999866666666705
endloop
endfacet
facet normal 0.7304916603555041 -0.39277692290472976 0.5586664684626699
outer loop
vertex 51.832733333333415 -51.55973333333341 24.999866666666705
vertex 52.33106666666675 -52.055466666666746 23.99973333333337
vertex 52.423800000000085 -51.88300000000008 23.99973333333337
endloop
endfacet
facet normal 0.7312058988627975 -0.39145366302756895 0.558660865973756
outer loop
vertex 51.832733333333415 -51.55973333333341 24.999866666666705
vertex 52.423800000000085 -51.88300000000008 23.99973333333337
vertex 51.92460000000008 -51.388133333333414 24.999866666666705
endloop
endfacet
facet normal 0.8125733609214323 -0.24714212820649847 0.5278686404650407
outer loop
vertex 51.92460000000008 -51.388133333333414 24.999866666666705
vertex 52.423800000000085 -51.88300000000008 23.99973333333337
vertex 52.48100000000008 -51.69493333333342 23.99973333333337
endloop
endfacet
facet normal 0.8126838448219568 -0.24684322389453023 0.52783841389459
outer loop
vertex 51.92460000000008 -51.388133333333414 24.999866666666705
vertex 52.48100000000008 -51.69493333333342 23.99973333333337
vertex 51.98093333333342 -51.20266666666675 24.999866666666705
endloop
endfacet
facet normal 0.8737030693182348 -0.08542874455556336 0.4788996515634106
outer loop
vertex 51.98093333333342 -51.20266666666675 24.999866666666705
vertex 52.48100000000008 -51.69493333333342 23.99973333333337
vertex 52.50006666666675 -51.499933333333416 23.99973333333337
endloop
endfacet
facet normal 0.8735503580142479 -0.08617985594759353 0.47904363521711796
outer loop
vertex 51.98093333333342 -51.20266666666675 24.999866666666705
vertex 52.50006666666675 -51.499933333333416 23.99973333333337
vertex 52.000000000000085 -51.00940000000008 24.999866666666705
endloop
endfacet
facet normal 0 1 0
outer loop
vertex -49.99973333333341 -49.99973333333341 24.999866666666705
vertex 49.99973333333341 -49.99973333333341 24.999866666666705
vertex 49.99973333333341 -49.99973333333341 -24.999866666666705
endloop
endfacet
facet normal 0 1 0
outer loop
vertex -49.99973333333341 -49.99973333333341 24.999866666666705
vertex 49.99973333333341 -49.99973333333341 -24.999866666666705
vertex -49.99973333333341 -49.99973333333341 -24.999866666666705
endloop
endfacet
facet normal 0 0 1
outer loop
vertex 0 51.32833333333341 24.999866666666705
vertex -51.00940000000008 52.000000000000085 24.999866666666705
vertex -51.20266666666675 51.98093333333342 24.999866666666705
endloop
endfacet
facet normal 0 0 1
outer loop
vertex 0 51.32833333333341 24.999866666666705
vertex -51.20266666666675 51.98093333333342 24.999866666666705
vertex -51.388133333333414 51.92460000000008 24.999866666666705
endloop
endfacet
facet normal 0 0 1
outer loop
vertex 0 51.32833333333341 24.999866666666705
vertex -51.388133333333414 51.92460000000008 24.999866666666705
vertex -51.55973333333341 51.832733333333415 24.999866666666705
endloop
endfacet
facet normal 0 0 1
outer loop
vertex 0 51.32833333333341 24.999866666666705
vertex -51.55973333333341 51.832733333333415 24.999866666666705
vertex -51.70966666666675 51.70966666666675 24.999866666666705
endloop
endfacet
facet normal 0 0 1
outer loop
vertex 0 51.32833333333341 24.999866666666705
vertex -51.70966666666675 51.70966666666675 24.999866666666705
vertex -51.832733333333415 51.55973333333341 24.999866666666705
endloop
endfacet
facet normal 0 0 1
outer loop
vertex 0 51.32833333333341 24.999866666666705
vertex -51.832733333333415 51.55973333333341 24.999866666666705
vertex -51.92460000000008 51.388133333333414 24.999866666666705
endloop
endfacet
facet normal 0 0 1
outer loop
vertex 0 51.32833333333341 24.999866666666705
vertex -51.92460000000008 51.388133333333414 24.999866666666705
vertex -51.98093333333342 51.20266666666675 24.999866666666705
endloop
endfacet
facet normal 0 0 1
outer loop
vertex 0 51.32833333333341 24.999866666666705
vertex -51.98093333333342 51.20266666666675 24.999866666666705
vertex -52.000000000000085 51.00940000000008 24.999866666666705
endloop
endfacet
facet normal 0 0 1
outer loop
vertex 0 51.32833333333341 24.999866666666705
vertex -52.000000000000085 51.00940000000008 24.999866666666705
vertex -52.000000000000085 49.99973333333341 24.999866666666705
endloop
endfacet
facet normal 0 0 1
outer loop
vertex 0 51.32833333333341 24.999866666666705
vertex -52.000000000000085 49.99973333333341 24.999866666666705
vertex -49.99973333333341 49.99973333333341 24.999866666666705
endloop
endfacet
facet normal 0 0 1
outer loop
vertex 0 51.32833333333341 24.999866666666705
vertex -49.99973333333341 49.99973333333341 24.999866666666705
vertex 49.99973333333341 49.99973333333341 24.999866666666705
endloop
endfacet
facet normal 0 0 1
outer loop
vertex 0 51.32833333333341 24.999866666666705
vertex 49.99973333333341 49.99973333333341 24.999866666666705
vertex 52.000000000000085 49.99973333333341 24.999866666666705
endloop
endfacet
facet normal 0 0 1
outer loop
vertex 0 51.32833333333341 24.999866666666705
vertex 52.000000000000085 49.99973333333341 24.999866666666705
vertex 52.000000000000085 51.00940000000008 24.999866666666705
endloop
endfacet
facet normal 0 0 1
outer loop
vertex 0 51.32833333333341 24.999866666666705
vertex 52.000000000000085 51.00940000000008 24.999866666666705
vertex 51.98093333333342 51.20266666666675 24.999866666666705
endloop
endfacet
facet normal 0 0 1
outer loop
vertex 0 51.32833333333341 24.999866666666705
vertex 51.98093333333342 51.20266666666675 24.999866666666705
vertex 51.92460000000008 51.388133333333414 24.999866666666705
endloop
endfacet
facet normal 0 0 1
outer loop
vertex 0 51.32833333333341 24.999866666666705
vertex 51.92460000000008 51.388133333333414 24.999866666666705
vertex 51.832733333333415 51.55973333333341 24.999866666666705
endloop
endfacet
facet normal 0 0 1
outer loop
vertex 0 51.32833333333341 24.999866666666705
vertex 51.832733333333415 51.55973333333341 24.999866666666705
vertex 51.70966666666675 51.70966666666675 24.999866666666705
endloop
endfacet
facet normal 0 0 1
outer loop
vertex 0 51.32833333333341 24.999866666666705
vertex 51.70966666666675 51.70966666666675 24.999866666666705
vertex 51.55973333333341 51.832733333333415 24.999866666666705
endloop
endfacet
facet normal 0 0 1
outer loop
vertex 0 51.32833333333341 24.999866666666705
vertex 51.55973333333341 51.832733333333415 24.999866666666705
vertex 51.388133333333414 51.92460000000008 24.999866666666705
endloop
endfacet
facet normal 0 0 1
outer loop
vertex 0 51.32833333333341 24.999866666666705
vertex 51.388133333333414 51.92460000000008 24.999866666666705
vertex 51.20266666666675 51.98093333333342 24.999866666666705
endloop
endfacet
facet normal 0 0 1
outer loop
vertex 0 51.32833333333341 24.999866666666705
vertex 51.20266666666675 51.98093333333342 24.999866666666705
vertex 51.00940000000008 52.000000000000085 24.999866666666705
endloop
endfacet
facet normal 0 0 1
outer loop
vertex 0 51.32833333333341 24.999866666666705
vertex 51.00940000000008 52.000000000000085 24.999866666666705
vertex -51.00940000000008 52.000000000000085 24.999866666666705
endloop
endfacet
facet normal 0 0 1
outer loop
vertex 49.99973333333341 49.99973333333341 24.999866666666705
vertex 49.99973333333341 -49.99973333333341 24.999866666666705
vertex 52.000000000000085 -49.99973333333341 24.999866666666705
endloop
endfacet
facet normal 0 0 1
outer loop
vertex 49.99973333333341 49.99973333333341 24.999866666666705
vertex 52.000000000000085 -49.99973333333341 24.999866666666705
vertex 52.000000000000085 49.99973333333341 24.999866666666705
endloop
endfacet
facet normal 0 0 1
outer loop
vertex -52.000000000000085 49.99973333333341 24.999866666666705
vertex -52.000000000000085 -49.99973333333341 24.999866666666705
vertex -49.99973333333341 -49.99973333333341 24.999866666666705
endloop
endfacet
facet normal 0 0 1
outer loop
vertex -52.000000000000085 49.99973333333341 24.999866666666705
vertex -49.99973333333341 -49.99973333333341 24.999866666666705
vertex -49.99973333333341 49.99973333333341 24.999866666666705
endloop
endfacet
facet normal 0 0 1
outer loop
vertex 0 -51.32833333333341 24.999866666666705
vertex 49.99973333333341 -49.99973333333341 24.999866666666705
vertex -49.99973333333341 -49.99973333333341 24.999866666666705
endloop
endfacet
facet normal 0 0 1
outer loop
vertex 0 -51.32833333333341 24.999866666666705
vertex -49.99973333333341 -49.99973333333341 24.999866666666705
vertex -52.000000000000085 -49.99973333333341 24.999866666666705
endloop
endfacet
facet normal 0 0 1
outer loop
vertex 0 -51.32833333333341 24.999866666666705
vertex -52.000000000000085 -49.99973333333341 24.999866666666705
vertex -52.000000000000085 -51.00940000000008 24.999866666666705
endloop
endfacet
facet normal 0 0 1
outer loop
vertex 0 -51.32833333333341 24.999866666666705
vertex -52.000000000000085 -51.00940000000008 24.999866666666705
vertex -51.98093333333342 -51.20266666666675 24.999866666666705
endloop
endfacet
facet normal 0 0 1
outer loop
vertex 0 -51.32833333333341 24.999866666666705
vertex -51.98093333333342 -51.20266666666675 24.999866666666705
vertex -51.92460000000008 -51.388133333333414 24.999866666666705
endloop
endfacet
facet normal 0 0 1
outer loop
vertex 0 -51.32833333333341 24.999866666666705
vertex -51.92460000000008 -51.388133333333414 24.999866666666705
vertex -51.832733333333415 -51.55973333333341 24.999866666666705
endloop
endfacet
facet normal 0 0 1
outer loop
vertex 0 -51.32833333333341 24.999866666666705
vertex -51.832733333333415 -51.55973333333341 24.999866666666705
vertex -51.70966666666675 -51.70966666666675 24.999866666666705
endloop
endfacet
facet normal 0 0 1
outer loop
vertex 0 -51.32833333333341 24.999866666666705
vertex -51.70966666666675 -51.70966666666675 24.999866666666705
vertex -51.55973333333341 -51.832733333333415 24.999866666666705
endloop
endfacet
facet normal 0 0 1
outer loop
vertex 0 -51.32833333333341 24.999866666666705
vertex -51.55973333333341 -51.832733333333415 24.999866666666705
vertex -51.388133333333414 -51.92460000000008 24.999866666666705
endloop
endfacet
facet normal 0 0 1
outer loop
vertex 0 -51.32833333333341 24.999866666666705
vertex -51.388133333333414 -51.92460000000008 24.999866666666705
vertex -51.20266666666675 -51.98093333333342 24.999866666666705
endloop
endfacet
facet normal 0 0 1
outer loop
vertex 0 -51.32833333333341 24.999866666666705
vertex -51.20266666666675 -51.98093333333342 24.999866666666705
vertex -51.00940000000008 -52.000000000000085 24.999866666666705
endloop
endfacet
facet normal 0 0 1
outer loop
vertex 0 -51.32833333333341 24.999866666666705
vertex -51.00940000000008 -52.000000000000085 24.999866666666705
vertex 51.00940000000008 -52.000000000000085 24.999866666666705
endloop
endfacet
facet normal 0 0 1
outer loop
vertex 0 -51.32833333333341 24.999866666666705
vertex 51.00940000000008 -52.000000000000085 24.999866666666705
vertex 51.20266666666675 -51.98093333333342 24.999866666666705
endloop
endfacet
facet normal 0 0 1
outer loop
vertex 0 -51.32833333333341 24.999866666666705
vertex 51.20266666666675 -51.98093333333342 24.999866666666705
vertex 51.388133333333414 -51.92460000000008 24.999866666666705
endloop
endfacet
facet normal 0 0 1
outer loop
vertex 0 -51.32833333333341 24.999866666666705
vertex 51.388133333333414 -51.92460000000008 24.999866666666705
vertex 51.55973333333341 -51.832733333333415 24.999866666666705
endloop
endfacet
facet normal 0 0 1
outer loop
vertex 0 -51.32833333333341 24.999866666666705
vertex 51.55973333333341 -51.832733333333415 24.999866666666705
vertex 51.70966666666675 -51.70966666666675 24.999866666666705
endloop
endfacet
facet normal 0 0 1
outer loop
vertex 0 -51.32833333333341 24.999866666666705
vertex 51.70966666666675 -51.70966666666675 24.999866666666705
vertex 51.832733333333415 -51.55973333333341 24.999866666666705
endloop
endfacet
facet normal 0 0 1
outer loop
vertex 0 -51.32833333333341 24.999866666666705
vertex 51.832733333333415 -51.55973333333341 24.999866666666705
vertex 51.92460000000008 -51.388133333333414 24.999866666666705
endloop
endfacet
facet normal 0 0 1
outer loop
vertex 0 -51.32833333333341 24.999866666666705
vertex 51.92460000000008 -51.388133333333414 24.999866666666705
vertex 51.98093333333342 -51.20266666666675 24.999866666666705
endloop
endfacet
facet normal 0 0 1
outer loop
vertex 0 -51.32833333333341 24.999866666666705
vertex 51.98093333333342 -51.20266666666675 24.999866666666705
vertex 52.000000000000085 -51.00940000000008 24.999866666666705
endloop
endfacet
facet normal 0 0 1
outer loop
vertex 0 -51.32833333333341 24.999866666666705
vertex 52.000000000000085 -51.00940000000008 24.999866666666705
vertex 52.000000000000085 -49.99973333333341 24.999866666666705
endloop
endfacet
facet normal 0 0 1
outer loop
vertex 0 -51.32833333333341 24.999866666666705
vertex 52.000000000000085 -49.99973333333341 24.999866666666705
vertex 49.99973333333341 -49.99973333333341 24.999866666666705
endloop
endfacet
facet normal 0 0 -1
outer loop
vertex -49.99973333333341 -32.73053333333338 -24.999866666666705
vertex -49.99973333333341 -49.99973333333341 -24.999866666666705
vertex -52.50006666666675 -49.99973333333341 -24.999866666666705
endloop
endfacet
facet normal 0 0 -1
outer loop
vertex -49.99973333333341 -32.73053333333338 -24.999866666666705
vertex -52.50006666666675 -49.99973333333341 -24.999866666666705
vertex -52.50006666666675 -32.73053333333338 -24.999866666666705
endloop
endfacet
facet normal 0 0 -1
outer loop
vertex 52.50006666666675 -32.73053333333338 -24.999866666666705
vertex 52.50006666666675 -49.99973333333341 -24.999866666666705
vertex 49.99973333333341 -49.99973333333341 -24.999866666666705
endloop
endfacet
facet normal 0 0 -1
outer loop
vertex 52.50006666666675 -32.73053333333338 -24.999866666666705
vertex 49.99973333333341 -49.99973333333341 -24.999866666666705
vertex 49.99973333333341 -32.73053333333338 -24.999866666666705
endloop
endfacet
facet normal 0 0 -1
outer loop
vertex 0 -51.73393333333342 -24.999866666666705
vertex -49.99973333333341 -49.99973333333341 -24.999866666666705
vertex 49.99973333333341 -49.99973333333341 -24.999866666666705
endloop
endfacet
facet normal 0 0 -1
outer loop
vertex 0 -51.73393333333342 -24.999866666666705
vertex 49.99973333333341 -49.99973333333341 -24.999866666666705
vertex 52.50006666666675 -49.99973333333341 -24.999866666666705
endloop
endfacet
facet normal 0 0 -1
outer loop
vertex 0 -51.73393333333342 -24.999866666666705
vertex 52.50006666666675 -49.99973333333341 -24.999866666666705
vertex 52.50006666666675 -51.499933333333416 -24.999866666666705
endloop
endfacet
facet normal 0 0 -1
outer loop
vertex 0 -51.73393333333342 -24.999866666666705
vertex 52.50006666666675 -51.499933333333416 -24.999866666666705
vertex 52.48100000000008 -51.69493333333342 -24.999866666666705
endloop
endfacet
facet normal 0 0 -1
outer loop
vertex 0 -51.73393333333342 -24.999866666666705
vertex 52.48100000000008 -51.69493333333342 -24.999866666666705
vertex 52.423800000000085 -51.88300000000008 -24.999866666666705
endloop
endfacet
facet normal 0 0 -1
outer loop
vertex 0 -51.73393333333342 -24.999866666666705
vertex 52.423800000000085 -51.88300000000008 -24.999866666666705
vertex 52.33106666666675 -52.055466666666746 -24.999866666666705
endloop
endfacet
facet normal 0 0 -1
outer loop
vertex 0 -51.73393333333342 -24.999866666666705
vertex 52.33106666666675 -52.055466666666746 -24.999866666666705
vertex 52.20713333333342 -52.20713333333342 -24.999866666666705
endloop
endfacet
facet normal 0 0 -0.9999999999999999
outer loop
vertex 0 -51.73393333333342 -24.999866666666705
vertex 52.20713333333342 -52.20713333333342 -24.999866666666705
vertex 52.055466666666746 -52.33106666666675 -24.999866666666705
endloop
endfacet
facet normal 0 0 -1
outer loop
vertex 0 -51.73393333333342 -24.999866666666705
vertex 52.055466666666746 -52.33106666666675 -24.999866666666705
vertex 51.88300000000008 -52.423800000000085 -24.999866666666705
endloop
endfacet
facet normal 0 0 -0.9999999999999999
outer loop
vertex 0 -51.73393333333342 -24.999866666666705
vertex 51.88300000000008 -52.423800000000085 -24.999866666666705
vertex 51.69493333333342 -52.48100000000008 -24.999866666666705
endloop
endfacet
facet normal 0 0 -1
outer loop
vertex 0 -51.73393333333342 -24.999866666666705
vertex 51.69493333333342 -52.48100000000008 -24.999866666666705
vertex 51.499933333333416 -52.50006666666675 -24.999866666666705
endloop
endfacet
facet normal 0 0 -1
outer loop
vertex 0 -51.73393333333342 -24.999866666666705
vertex 51.499933333333416 -52.50006666666675 -24.999866666666705
vertex -51.499933333333416 -52.50006666666675 -24.999866666666705
endloop
endfacet
facet normal 0 0 -1
outer loop
vertex 0 -51.73393333333342 -24.999866666666705
vertex -51.499933333333416 -52.50006666666675 -24.999866666666705
vertex -51.69493333333342 -52.48100000000008 -24.999866666666705
endloop
endfacet
facet normal 0 0 -0.9999999999999999
outer loop
vertex 0 -51.73393333333342 -24.999866666666705
vertex -51.69493333333342 -52.48100000000008 -24.999866666666705
vertex -51.88300000000008 -52.423800000000085 -24.999866666666705
endloop
endfacet
facet normal 0 0 -1
outer loop
vertex 0 -51.73393333333342 -24.999866666666705
vertex -51.88300000000008 -52.423800000000085 -24.999866666666705
vertex -52.055466666666746 -52.33106666666675 -24.999866666666705
endloop
endfacet
facet normal 0 0 -0.9999999999999999
outer loop
vertex 0 -51.73393333333342 -24.999866666666705
vertex -52.055466666666746 -52.33106666666675 -24.999866666666705
vertex -52.20713333333342 -52.20713333333342 -24.999866666666705
endloop
endfacet
facet normal 0 0 -1
outer loop
vertex 0 -51.73393333333342 -24.999866666666705
vertex -52.20713333333342 -52.20713333333342 -24.999866666666705
vertex -52.33106666666675 -52.055466666666746 -24.999866666666705
endloop
endfacet
facet normal 0 0 -1
outer loop
vertex 0 -51.73393333333342 -24.999866666666705
vertex -52.33106666666675 -52.055466666666746 -24.999866666666705
vertex -52.423800000000085 -51.88300000000008 -24.999866666666705
endloop
endfacet
facet normal 0 0 -1
outer loop
vertex 0 -51.73393333333342 -24.999866666666705
vertex -52.423800000000085 -51.88300000000008 -24.999866666666705
vertex -52.48100000000008 -51.69493333333342 -24.999866666666705
endloop
endfacet
facet normal 0 0 -1
outer loop
vertex 0 -51.73393333333342 -24.999866666666705
vertex -52.48100000000008 -51.69493333333342 -24.999866666666705
vertex -52.50006666666675 -51.499933333333416 -24.999866666666705
endloop
endfacet
facet normal 0 0 -1
outer loop
vertex 0 -51.73393333333342 -24.999866666666705
vertex -52.50006666666675 -51.499933333333416 -24.999866666666705
vertex -52.50006666666675 -49.99973333333341 -24.999866666666705
endloop
endfacet
facet normal 0 0 -1
outer loop
vertex 0 -51.73393333333342 -24.999866666666705
vertex -52.50006666666675 -49.99973333333341 -24.999866666666705
vertex -49.99973333333341 -49.99973333333341 -24.999866666666705
endloop
endfacet
facet normal 0 0.17364423254192923 -0.9848084486360402
outer loop
vertex 51.79806666666675 38.00940000000006 -12.52680000000002
vertex 52.50006666666675 -32.73053333333338 -24.999866666666705
vertex 49.99973333333341 -32.73053333333338 -24.999866666666705
endloop
endfacet
facet normal 0.0000465036554445246 0.17364308579567383 -0.9848086497349454
outer loop
vertex 51.79806666666675 38.00940000000006 -12.52680000000002
vertex 49.99973333333341 -32.73053333333338 -24.999866666666705
vertex 49.99973333333341 52.50006666666675 -9.971866666666683
endloop
endfacet
facet normal 0 0.17363748875175775 -0.9848096376965364
outer loop
vertex 51.79806666666675 38.00940000000006 -12.52680000000002
vertex 49.99973333333341 52.50006666666675 -9.971866666666683
vertex 51.499933333333416 52.50006666666675 -9.971866666666683
endloop
endfacet
facet normal 0.0038547656637598804 0.17371311558275113 -0.9847887561585028
outer loop
vertex 51.79806666666675 38.00940000000006 -12.52680000000002
vertex 51.499933333333416 52.50006666666675 -9.971866666666683
vertex 51.69493333333342 52.48100000000008 -9.974466666666682
endloop
endfacet
facet normal -0.0016358828048109427 0.17367622444323572 -0.9848014484913148
outer loop
vertex 51.79806666666675 38.00940000000006 -12.52680000000002
vertex 51.69493333333342 52.48100000000008 -9.974466666666682
vertex 51.88300000000008 52.423800000000085 -9.984866666666683
endloop
endfacet
facet normal -0.0006457088365735633 0.17367076222937788 -0.9848035587906682
outer loop
vertex 51.79806666666675 38.00940000000006 -12.52680000000002
vertex 51.88300000000008 52.423800000000085 -9.984866666666683
vertex 52.055466666666746 52.33106666666675 -10.00133333333335
endloop
endfacet
facet normal 0.0012004926561573297 0.17363849258579123 -0.9848087289976245
outer loop
vertex 51.79806666666675 38.00940000000006 -12.52680000000002
vertex 52.055466666666746 52.33106666666675 -10.00133333333335
vertex 52.20713333333342 52.20713333333342 -10.023000000000016
endloop
endfacet
facet normal -0.0009205485827065234 0.17369781261195402 -0.9847985694974019
outer loop
vertex 51.79806666666675 38.00940000000006 -12.52680000000002
vertex 52.20713333333342 52.20713333333342 -10.023000000000016
vertex 52.33106666666675 52.055466666666746 -10.049866666666682
endloop
endfacet
facet normal 0.0007940927969950352 0.17363472901301907 -0.9848098041232151
outer loop
vertex 51.79806666666675 38.00940000000006 -12.52680000000002
vertex 52.33106666666675 52.055466666666746 -10.049866666666682
vertex 52.423800000000085 51.88300000000008 -10.080200000000016
endloop
endfacet
facet normal 0.0034800009980300657 0.17351624290556236 -0.9848248590693635
outer loop
vertex 51.79806666666675 38.00940000000006 -12.52680000000002
vertex 52.423800000000085 51.88300000000008 -10.080200000000016
vertex 52.48100000000008 51.69493333333342 -10.11313333333335
endloop
endfacet
facet normal -0.00941135266989144 0.17413348240084017 -0.9846770824731725
outer loop
vertex 51.79806666666675 38.00940000000006 -12.52680000000002
vertex 52.48100000000008 51.69493333333342 -10.11313333333335
vertex 52.50006666666675 51.499933333333416 -10.147800000000016
endloop
endfacet
facet normal 0.0003660734039052157 0.17364774416160358 -0.9848077614122714
outer loop
vertex 51.79806666666675 38.00940000000006 -12.52680000000002
vertex 52.50006666666675 51.499933333333416 -10.147800000000016
vertex 52.50006666666675 -32.73053333333338 -24.999866666666705
endloop
endfacet
facet normal 0 0.1734153145967659 -0.9848487846686437
outer loop
vertex 49.99973333333341 49.99973333333341 -10.41213333333335
vertex -49.99973333333341 49.99973333333341 -10.41213333333335
vertex -49.99973333333341 52.50006666666675 -9.971866666666683
endloop
endfacet
facet normal 0 0.1734153145967659 -0.9848487846686437
outer loop
vertex 49.99973333333341 49.99973333333341 -10.41213333333335
vertex -49.99973333333341 52.50006666666675 -9.971866666666683
vertex 49.99973333333341 52.50006666666675 -9.971866666666683
endloop
endfacet
facet normal 0 0.17364423254192923 -0.9848084486360402
outer loop
vertex -51.79806666666675 38.00940000000006 -12.52680000000002
vertex -49.99973333333341 -32.73053333333338 -24.999866666666705
vertex -52.50006666666675 -32.73053333333338 -24.999866666666705
endloop
endfacet
facet normal -0.0003660734039052157 0.17364774416160358 -0.9848077614122714
outer loop
vertex -51.79806666666675 38.00940000000006 -12.52680000000002
vertex -52.50006666666675 -32.73053333333338 -24.999866666666705
vertex -52.50006666666675 51.499933333333416 -10.147800000000016
endloop
endfacet
facet normal 0.00941135266989144 0.17413348240084017 -0.9846770824731725
outer loop
vertex -51.79806666666675 38.00940000000006 -12.52680000000002
vertex -52.50006666666675 51.499933333333416 -10.147800000000016
vertex -52.48100000000008 51.69493333333342 -10.11313333333335
endloop
endfacet
facet normal -0.0034800009980300657 0.17351624290556236 -0.9848248590693635
outer loop
vertex -51.79806666666675 38.00940000000006 -12.52680000000002
vertex -52.48100000000008 51.69493333333342 -10.11313333333335
vertex -52.423800000000085 51.88300000000008 -10.080200000000016
endloop
endfacet
facet normal -0.0007940927969950352 0.17363472901301907 -0.9848098041232151
outer loop
vertex -51.79806666666675 38.00940000000006 -12.52680000000002
vertex -52.423800000000085 51.88300000000008 -10.080200000000016
vertex -52.33106666666675 52.055466666666746 -10.049866666666682
endloop
endfacet
facet normal 0.0009205485827065234 0.17369781261195402 -0.9847985694974019
outer loop
vertex -51.79806666666675 38.00940000000006 -12.52680000000002
vertex -52.33106666666675 52.055466666666746 -10.049866666666682
vertex -52.20713333333342 52.20713333333342 -10.023000000000016
endloop
endfacet
facet normal -0.0012004926561573297 0.17363849258579123 -0.9848087289976245
outer loop
vertex -51.79806666666675 38.00940000000006 -12.52680000000002
vertex -52.20713333333342 52.20713333333342 -10.023000000000016
vertex -52.055466666666746 52.33106666666675 -10.00133333333335
endloop
endfacet
facet normal 0.0006457088365735633 0.17367076222937788 -0.9848035587906682
outer loop
vertex -51.79806666666675 38.00940000000006 -12.52680000000002
vertex -52.055466666666746 52.33106666666675 -10.00133333333335
vertex -51.88300000000008 52.423800000000085 -9.984866666666683
endloop
endfacet
facet normal 0.0016358828048109427 0.17367622444323572 -0.9848014484913148
outer loop
vertex -51.79806666666675 38.00940000000006 -12.52680000000002
vertex -51.88300000000008 52.423800000000085 -9.984866666666683
vertex -51.69493333333342 52.48100000000008 -9.974466666666682
endloop
endfacet
facet normal -0.0038547656637598804 0.17371311558275113 -0.9847887561585028
outer loop
vertex -51.79806666666675 38.00940000000006 -12.52680000000002
vertex -51.69493333333342 52.48100000000008 -9.974466666666682
vertex -51.499933333333416 52.50006666666675 -9.971866666666683
endloop
endfacet
facet normal 0 0.17363748875175775 -0.9848096376965364
outer loop
vertex -51.79806666666675 38.00940000000006 -12.52680000000002
vertex -51.499933333333416 52.50006666666675 -9.971866666666683
vertex -49.99973333333341 52.50006666666675 -9.971866666666683
endloop
endfacet
facet normal -0.0000465036554445246 0.17364308579567383 -0.9848086497349454
outer loop
vertex -51.79806666666675 38.00940000000006 -12.52680000000002
vertex -49.99973333333341 52.50006666666675 -9.971866666666683
vertex -49.99973333333341 -32.73053333333338 -24.999866666666705
endloop
endfacet
facet normal 0.99525375841151 0.09731370082246149 0
outer loop
vertex 52.50006666666675 51.499933333333416 23.99973333333337
vertex 52.50006666666675 51.499933333333416 -10.147800000000016
vertex 52.48100000000008 51.69493333333342 -10.11313333333335
endloop
endfacet
facet normal 0.9952537584115101 0.0973137008224615 0
outer loop
vertex 52.50006666666675 51.499933333333416 23.99973333333337
vertex 52.48100000000008 51.69493333333342 -10.11313333333335
vertex 52.48100000000008 51.69493333333342 23.99973333333337
endloop
endfacet
facet normal 0.9567272590994921 0.29098617097032875 0
outer loop
vertex 52.48100000000008 51.69493333333342 23.99973333333337
vertex 52.48100000000008 51.69493333333342 -10.11313333333335
vertex 52.423800000000085 51.88300000000008 -10.080200000000016
endloop
endfacet
facet normal 0.9567272590994921 0.2909861709703288 0
outer loop
vertex 52.48100000000008 51.69493333333342 23.99973333333337
vertex 52.423800000000085 51.88300000000008 -10.080200000000016
vertex 52.423800000000085 51.88300000000008 23.99973333333337
endloop
endfacet
facet normal 0.8807551741474207 0.47357187755666696 0
outer loop
vertex 52.423800000000085 51.88300000000008 23.99973333333337
vertex 52.423800000000085 51.88300000000008 -10.080200000000016
vertex 52.33106666666675 52.055466666666746 -10.049866666666682
endloop
endfacet
facet normal 0.8807551741474207 0.47357187755666696 0
outer loop
vertex 52.423800000000085 51.88300000000008 23.99973333333337
vertex 52.33106666666675 52.055466666666746 -10.049866666666682
vertex 52.33106666666675 52.055466666666746 23.99973333333337
endloop
endfacet
facet normal 0.7743514441033961 0.6327557514673297 0
outer loop
vertex 52.33106666666675 52.055466666666746 23.99973333333337
vertex 52.33106666666675 52.055466666666746 -10.049866666666682
vertex 52.20713333333342 52.20713333333342 -10.023000000000016
endloop
endfacet
facet normal 0.7743514441033961 0.6327557514673297 0
outer loop
vertex 52.33106666666675 52.055466666666746 23.99973333333337
vertex 52.20713333333342 52.20713333333342 -10.023000000000016
vertex 52.20713333333342 52.20713333333342 23.99973333333337
endloop
endfacet
facet normal 0.6327557514673297 0.7743514441033961 0
outer loop
vertex 52.20713333333342 52.20713333333342 23.99973333333337
vertex 52.20713333333342 52.20713333333342 -10.023000000000016
vertex 52.055466666666746 52.33106666666675 -10.00133333333335
endloop
endfacet
facet normal 0.6327557514673297 0.7743514441033961 0
outer loop
vertex 52.20713333333342 52.20713333333342 23.99973333333337
vertex 52.055466666666746 52.33106666666675 -10.00133333333335
vertex 52.055466666666746 52.33106666666675 23.99973333333337
endloop
endfacet
facet normal 0.47357187755666696 0.8807551741474207 0
outer loop
vertex 52.055466666666746 52.33106666666675 23.99973333333337
vertex 52.055466666666746 52.33106666666675 -10.00133333333335
vertex 51.88300000000008 52.423800000000085 -9.984866666666683
endloop
endfacet
facet normal 0.47357187755666696 0.8807551741474205 0
outer loop
vertex 52.055466666666746 52.33106666666675 23.99973333333337
vertex 51.88300000000008 52.423800000000085 -9.984866666666683
vertex 51.88300000000008 52.423800000000085 23.99973333333337
endloop
endfacet
facet normal 0.2909861709703288 0.9567272590994921 0
outer loop
vertex 51.88300000000008 52.423800000000085 23.99973333333337
vertex 51.88300000000008 52.423800000000085 -9.984866666666683
vertex 51.69493333333342 52.48100000000008 -9.974466666666682
endloop
endfacet
facet normal 0.29098617097032875 0.956727259099492 0
outer loop
vertex 51.88300000000008 52.423800000000085 23.99973333333337
vertex 51.69493333333342 52.48100000000008 -9.974466666666682
vertex 51.69493333333342 52.48100000000008 23.99973333333337
endloop
endfacet
facet normal 0.09731370082246152 0.9952537584115101 0
outer loop
vertex 51.69493333333342 52.48100000000008 23.99973333333337
vertex 51.69493333333342 52.48100000000008 -9.974466666666682
vertex 51.499933333333416 52.50006666666675 -9.971866666666683
endloop
endfacet
facet normal 0.0973137008224615 0.9952537584115101 0
outer loop
vertex 51.69493333333342 52.48100000000008 23.99973333333337
vertex 51.499933333333416 52.50006666666675 -9.971866666666683
vertex 51.499933333333416 52.50006666666675 23.99973333333337
endloop
endfacet
facet normal 0 1 0
outer loop
vertex 0 52.50006666666675 1.352000000000002
vertex 51.499933333333416 52.50006666666675 23.99973333333337
vertex 51.499933333333416 52.50006666666675 -9.971866666666683
endloop
endfacet
facet normal 0 1 0
outer loop
vertex 0 52.50006666666675 1.352000000000002
vertex 51.499933333333416 52.50006666666675 -9.971866666666683
vertex 49.99973333333341 52.50006666666675 -9.971866666666683
endloop
endfacet
facet normal 0 1 0
outer loop
vertex 0 52.50006666666675 1.352000000000002
vertex 49.99973333333341 52.50006666666675 -9.971866666666683
vertex -49.99973333333341 52.50006666666675 -9.971866666666683
endloop
endfacet
facet normal 0 1 0
outer loop
vertex 0 52.50006666666675 1.352000000000002
vertex -49.99973333333341 52.50006666666675 -9.971866666666683
vertex -51.499933333333416 52.50006666666675 -9.971866666666683
endloop
endfacet
facet normal 0 1 0
outer loop
vertex 0 52.50006666666675 1.352000000000002
vertex -51.499933333333416 52.50006666666675 -9.971866666666683
vertex -51.499933333333416 52.50006666666675 23.99973333333337
endloop
endfacet
facet normal 0 1 0
outer loop
vertex 0 52.50006666666675 1.352000000000002
vertex -51.499933333333416 52.50006666666675 23.99973333333337
vertex 51.499933333333416 52.50006666666675 23.99973333333337
endloop
endfacet
facet normal -0.0973137008224615 0.9952537584115101 0
outer loop
vertex -51.499933333333416 52.50006666666675 23.99973333333337
vertex -51.499933333333416 52.50006666666675 -9.971866666666683
vertex -51.69493333333342 52.48100000000008 -9.974466666666682
endloop
endfacet
facet normal -0.09731370082246152 0.9952537584115101 0
outer loop
vertex -51.499933333333416 52.50006666666675 23.99973333333337
vertex -51.69493333333342 52.48100000000008 -9.974466666666682
vertex -51.69493333333342 52.48100000000008 23.99973333333337
endloop
endfacet
facet normal -0.29098617097032875 0.956727259099492 0
outer loop
vertex -51.69493333333342 52.48100000000008 23.99973333333337
vertex -51.69493333333342 52.48100000000008 -9.974466666666682
vertex -51.88300000000008 52.423800000000085 -9.984866666666683
endloop
endfacet
facet normal -0.2909861709703288 0.9567272590994921 0
outer loop
vertex -51.69493333333342 52.48100000000008 23.99973333333337
vertex -51.88300000000008 52.423800000000085 -9.984866666666683
vertex -51.88300000000008 52.423800000000085 23.99973333333337
endloop
endfacet
facet normal -0.47357187755666696 0.8807551741474205 0
outer loop
vertex -51.88300000000008 52.423800000000085 23.99973333333337
vertex -51.88300000000008 52.423800000000085 -9.984866666666683
vertex -52.055466666666746 52.33106666666675 -10.00133333333335
endloop
endfacet
facet normal -0.47357187755666696 0.8807551741474207 0
outer loop
vertex -51.88300000000008 52.423800000000085 23.99973333333337
vertex -52.055466666666746 52.33106666666675 -10.00133333333335
vertex -52.055466666666746 52.33106666666675 23.99973333333337
endloop
endfacet
facet normal -0.6327557514673297 0.7743514441033961 0
outer loop
vertex -52.055466666666746 52.33106666666675 23.99973333333337
vertex -52.055466666666746 52.33106666666675 -10.00133333333335
vertex -52.20713333333342 52.20713333333342 -10.023000000000016
endloop
endfacet
facet normal -0.6327557514673297 0.7743514441033961 0
outer loop
vertex -52.055466666666746 52.33106666666675 23.99973333333337
vertex -52.20713333333342 52.20713333333342 -10.023000000000016
vertex -52.20713333333342 52.20713333333342 23.99973333333337
endloop
endfacet
facet normal -0.7743514441033961 0.6327557514673297 0
outer loop
vertex -52.20713333333342 52.20713333333342 23.99973333333337
vertex -52.20713333333342 52.20713333333342 -10.023000000000016
vertex -52.33106666666675 52.055466666666746 -10.049866666666682
endloop
endfacet
facet normal -0.7743514441033961 0.6327557514673297 0
outer loop
vertex -52.20713333333342 52.20713333333342 23.99973333333337
vertex -52.33106666666675 52.055466666666746 -10.049866666666682
vertex -52.33106666666675 52.055466666666746 23.99973333333337
endloop
endfacet
facet normal -0.8807551741474207 0.47357187755666696 0
outer loop
vertex -52.33106666666675 52.055466666666746 23.99973333333337
vertex -52.33106666666675 52.055466666666746 -10.049866666666682
vertex -52.423800000000085 51.88300000000008 -10.080200000000016
endloop
endfacet
facet normal -0.8807551741474207 0.47357187755666696 0
outer loop
vertex -52.33106666666675 52.055466666666746 23.99973333333337
vertex -52.423800000000085 51.88300000000008 -10.080200000000016
vertex -52.423800000000085 51.88300000000008 23.99973333333337
endloop
endfacet
facet normal -0.9567272590994921 0.2909861709703288 0
outer loop
vertex -52.423800000000085 51.88300000000008 23.99973333333337
vertex -52.423800000000085 51.88300000000008 -10.080200000000016
vertex -52.48100000000008 51.69493333333342 -10.11313333333335
endloop
endfacet
facet normal -0.9567272590994921 0.29098617097032875 0
outer loop
vertex -52.423800000000085 51.88300000000008 23.99973333333337
vertex -52.48100000000008 51.69493333333342 -10.11313333333335
vertex -52.48100000000008 51.69493333333342 23.99973333333337
endloop
endfacet
facet normal -0.9952537584115101 0.0973137008224615 0
outer loop
vertex -52.48100000000008 51.69493333333342 23.99973333333337
vertex -52.48100000000008 51.69493333333342 -10.11313333333335
vertex -52.50006666666675 51.499933333333416 -10.147800000000016
endloop
endfacet
facet normal -0.99525375841151 0.09731370082246149 0
outer loop
vertex -52.48100000000008 51.69493333333342 23.99973333333337
vertex -52.50006666666675 51.499933333333416 -10.147800000000016
vertex -52.50006666666675 51.499933333333416 23.99973333333337
endloop
endfacet
facet normal -1 0 0
outer loop
vertex -52.50006666666675 -13.788666666666689 -6.191466666666677
vertex -52.50006666666675 51.499933333333416 23.99973333333337
vertex -52.50006666666675 51.499933333333416 -10.147800000000016
endloop
endfacet
facet normal -1 0 0
outer loop
vertex -52.50006666666675 -13.788666666666689 -6.191466666666677
vertex -52.50006666666675 51.499933333333416 -10.147800000000016
vertex -52.50006666666675 -32.73053333333338 -24.999866666666705
endloop
endfacet
facet normal -1 0 0
outer loop
vertex -52.50006666666675 -13.788666666666689 -6.191466666666677
vertex -52.50006666666675 -32.73053333333338 -24.999866666666705
vertex -52.50006666666675 -49.99973333333341 -24.999866666666705
endloop
endfacet
facet normal -1 0 0
outer loop
vertex -52.50006666666675 -13.788666666666689 -6.191466666666677
vertex -52.50006666666675 -49.99973333333341 -24.999866666666705
vertex -52.50006666666675 -51.499933333333416 -24.999866666666705
endloop
endfacet
facet normal -1 0 0
outer loop
vertex -52.50006666666675 -13.788666666666689 -6.191466666666677
vertex -52.50006666666675 -51.499933333333416 -24.999866666666705
vertex -52.50006666666675 -51.499933333333416 23.99973333333337
endloop
endfacet
facet normal -1 0 0
outer loop
vertex -52.50006666666675 -13.788666666666689 -6.191466666666677
vertex -52.50006666666675 -51.499933333333416 23.99973333333337
vertex -52.50006666666675 51.499933333333416 23.99973333333337
endloop
endfacet
facet normal 1 0 0
outer loop
vertex -49.99973333333341 -6.545933333333344 -2.0826000000000033
vertex -49.99973333333341 -32.73053333333338 -24.999866666666705
vertex -49.99973333333341 49.99973333333341 -10.41213333333335
endloop
endfacet
facet normal 1 0 0
outer loop
vertex -49.99973333333341 -6.545933333333344 -2.0826000000000033
vertex -49.99973333333341 49.99973333333341 -10.41213333333335
vertex -49.99973333333341 49.99973333333341 24.999866666666705
endloop
endfacet
facet normal 1 0 0
outer loop
vertex -49.99973333333341 -6.545933333333344 -2.0826000000000033
vertex -49.99973333333341 49.99973333333341 24.999866666666705
vertex -49.99973333333341 -49.99973333333341 24.999866666666705
endloop
endfacet
facet normal 1 0 0
outer loop
vertex -49.99973333333341 -6.545933333333344 -2.0826000000000033
vertex -49.99973333333341 -49.99973333333341 24.999866666666705
vertex -49.99973333333341 -49.99973333333341 -24.999866666666705
endloop
endfacet
facet normal 1 0 0
outer loop
vertex -49.99973333333341 -6.545933333333344 -2.0826000000000033
vertex -49.99973333333341 -49.99973333333341 -24.999866666666705
vertex -49.99973333333341 -32.73053333333338 -24.999866666666705
endloop
endfacet
facet normal -1 0 0
outer loop
vertex 49.99973333333341 -6.545933333333344 -2.0826000000000033
vertex 49.99973333333341 -49.99973333333341 24.999866666666705
vertex 49.99973333333341 49.99973333333341 24.999866666666705
endloop
endfacet
facet normal -1 0 0
outer loop
vertex 49.99973333333341 -6.545933333333344 -2.0826000000000033
vertex 49.99973333333341 49.99973333333341 24.999866666666705
vertex 49.99973333333341 49.99973333333341 -10.41213333333335
endloop
endfacet
facet normal -1 0 0
outer loop
vertex 49.99973333333341 -6.545933333333344 -2.0826000000000033
vertex 49.99973333333341 49.99973333333341 -10.41213333333335
vertex 49.99973333333341 -32.73053333333338 -24.999866666666705
endloop
endfacet
facet normal -1 0 0
outer loop
vertex 49.99973333333341 -6.545933333333344 -2.0826000000000033
vertex 49.99973333333341 -32.73053333333338 -24.999866666666705
vertex 49.99973333333341 -49.99973333333341 -24.999866666666705
endloop
endfacet
facet normal -1 0 0
outer loop
vertex 49.99973333333341 -6.545933333333344 -2.0826000000000033
vertex 49.99973333333341 -49.99973333333341 -24.999866666666705
vertex 49.99973333333341 -49.99973333333341 24.999866666666705
endloop
endfacet
facet normal 0 -0.9999999999999999 0
outer loop
vertex 49.99973333333341 49.99973333333341 -10.41213333333335
vertex 49.99973333333341 49.99973333333341 24.999866666666705
vertex -49.99973333333341 49.99973333333341 24.999866666666705
endloop
endfacet
facet normal 0 -0.9999999999999999 0
outer loop
vertex 49.99973333333341 49.99973333333341 -10.41213333333335
vertex -49.99973333333341 49.99973333333341 24.999866666666705
vertex -49.99973333333341 49.99973333333341 -10.41213333333335
endloop
endfacet
endsolid JSCAD
