solid JSCAD
facet normal 0.9972488579586624 0.07412634686900323 0
outer loop
vertex 19.61567666666667 5.169926666666667 -0.2499566666666667
vertex 19.61567666666667 5.169926666666667 0.2499566666666667
vertex 19.999961666666668 0 0.2499566666666667
endloop
endfacet
facet normal 0.9972488579586624 0.07412634686900323 0
outer loop
vertex 19.61567666666667 5.169926666666667 -0.2499566666666667
vertex 19.999961666666668 0 0.2499566666666667
vertex 19.999961666666668 0 -0.2499566666666667
endloop
endfacet
facet normal 0.9747749926134651 0.2231898603777041 0
outer loop
vertex 18.47747 10.141010000000001 -0.2499566666666667
vertex 18.47747 10.141010000000001 0.2499566666666667
vertex 19.61567666666667 5.169926666666667 0.2499566666666667
endloop
endfacet
facet normal 0.9747749926134651 0.2231898603777041 0
outer loop
vertex 18.47747 10.141010000000001 -0.2499566666666667
vertex 19.61567666666667 5.169926666666667 0.2499566666666667
vertex 19.61567666666667 5.169926666666667 -0.2499566666666667
endloop
endfacet
facet normal 0.9273849947654003 0.37410836863665425 0
outer loop
vertex 16.62928666666667 14.722510000000002 -0.2499566666666667
vertex 16.62928666666667 14.722510000000002 0.2499566666666667
vertex 18.47747 10.141010000000001 0.2499566666666667
endloop
endfacet
facet normal 0.9273849947654003 0.37410836863665425 0
outer loop
vertex 16.62928666666667 14.722510000000002 -0.2499566666666667
vertex 18.47747 10.141010000000001 0.2499566666666667
vertex 18.47747 10.141010000000001 -0.2499566666666667
endloop
endfacet
facet normal 0.8501596688710141 0.5265249637245397 0
outer loop
vertex 14.142186666666667 18.738335000000003 -0.2499566666666667
vertex 14.142186666666667 18.738335000000003 0.2499566666666667
vertex 16.62928666666667 14.722510000000002 0.2499566666666667
endloop
endfacet
facet normal 0.8501596688710141 0.5265249637245397 0
outer loop
vertex 14.142186666666667 18.738335000000003 -0.2499566666666667
vertex 16.62928666666667 14.722510000000002 0.2499566666666667
vertex 16.62928666666667 14.722510000000002 -0.2499566666666667
endloop
endfacet
facet normal 0.7360725110174958 0.6769026950193053 0
outer loop
vertex 11.111540000000002 22.033898333333333 -0.2499566666666667
vertex 11.111540000000002 22.033898333333333 0.2499566666666667
vertex 14.142186666666667 18.738335000000003 0.2499566666666667
endloop
endfacet
facet normal 0.7360725110174958 0.6769026950193053 0
outer loop
vertex 11.111540000000002 22.033898333333333 -0.2499566666666667
vertex 14.142186666666667 18.738335000000003 0.2499566666666667
vertex 14.142186666666667 18.738335000000003 -0.2499566666666667
endloop
endfacet
facet normal 0.5779214177018772 0.8160924181497169 0
outer loop
vertex 7.653598333333334 24.482663333333335 -0.2499566666666667
vertex 7.653598333333334 24.482663333333335 0.2499566666666667
vertex 11.111540000000002 22.033898333333333 0.2499566666666667
endloop
endfacet
facet normal 0.5779214177018772 0.8160924181497169 0
outer loop
vertex 7.653598333333334 24.482663333333335 -0.2499566666666667
vertex 11.111540000000002 22.033898333333333 0.2499566666666667
vertex 11.111540000000002 22.033898333333333 -0.2499566666666667
endloop
endfacet
facet normal 0.372971527801086 0.9278427881110699 0
outer loop
vertex 3.901755 25.990818333333337 -0.2499566666666667
vertex 3.901755 25.990818333333337 0.2499566666666667
vertex 7.653598333333334 24.482663333333335 0.2499566666666667
endloop
endfacet
facet normal 0.372971527801086 0.9278427881110699 0
outer loop
vertex 3.901755 25.990818333333337 -0.2499566666666667
vertex 7.653598333333334 24.482663333333335 0.2499566666666667
vertex 7.653598333333334 24.482663333333335 -0.2499566666666667
endloop
endfacet
facet normal 0.12942383765614385 0.9915893657388405 0
outer loop
vertex 0 26.50008166666667 -0.2499566666666667
vertex 0 26.50008166666667 0.2499566666666667
vertex 3.901755 25.990818333333337 0.2499566666666667
endloop
endfacet
facet normal 0.12942383765614385 0.9915893657388405 0
outer loop
vertex 0 26.50008166666667 -0.2499566666666667
vertex 3.901755 25.990818333333337 0.2499566666666667
vertex 3.901755 25.990818333333337 -0.2499566666666667
endloop
endfacet
facet normal -0.12942383765614385 0.9915893657388405 0
outer loop
vertex -3.901755 25.990818333333337 -0.2499566666666667
vertex -3.901755 25.990818333333337 0.2499566666666667
vertex 0 26.50008166666667 0.2499566666666667
endloop
endfacet
facet normal -0.12942383765614385 0.9915893657388405 0
outer loop
vertex -3.901755 25.990818333333337 -0.2499566666666667
vertex 0 26.50008166666667 0.2499566666666667
vertex 0 26.50008166666667 -0.2499566666666667
endloop
endfacet
facet normal -0.372971527801086 0.9278427881110699 0
outer loop
vertex -7.653598333333334 24.482663333333335 -0.2499566666666667
vertex -7.653598333333334 24.482663333333335 0.2499566666666667
vertex -3.901755 25.990818333333337 0.2499566666666667
endloop
endfacet
facet normal -0.372971527801086 0.9278427881110699 0
outer loop
vertex -7.653598333333334 24.482663333333335 -0.2499566666666667
vertex -3.901755 25.990818333333337 0.2499566666666667
vertex -3.901755 25.990818333333337 -0.2499566666666667
endloop
endfacet
facet normal -0.5779214177018772 0.8160924181497169 0
outer loop
vertex -11.111540000000002 22.033898333333333 -0.2499566666666667
vertex -11.111540000000002 22.033898333333333 0.2499566666666667
vertex -7.653598333333334 24.482663333333335 0.2499566666666667
endloop
endfacet
facet normal -0.5779214177018772 0.8160924181497169 0
outer loop
vertex -11.111540000000002 22.033898333333333 -0.2499566666666667
vertex -7.653598333333334 24.482663333333335 0.2499566666666667
vertex -7.653598333333334 24.482663333333335 -0.2499566666666667
endloop
endfacet
facet normal -0.7360725110174958 0.6769026950193053 0
outer loop
vertex -14.142186666666667 18.738335000000003 -0.2499566666666667
vertex -14.142186666666667 18.738335000000003 0.2499566666666667
vertex -11.111540000000002 22.033898333333333 0.2499566666666667
endloop
endfacet
facet normal -0.7360725110174958 0.6769026950193053 0
outer loop
vertex -14.142186666666667 18.738335000000003 -0.2499566666666667
vertex -11.111540000000002 22.033898333333333 0.2499566666666667
vertex -11.111540000000002 22.033898333333333 -0.2499566666666667
endloop
endfacet
facet normal -0.8501596688710141 0.5265249637245397 0
outer loop
vertex -16.62928666666667 14.722510000000002 -0.2499566666666667
vertex -16.62928666666667 14.722510000000002 0.2499566666666667
vertex -14.142186666666667 18.738335000000003 0.2499566666666667
endloop
endfacet
facet normal -0.8501596688710141 0.5265249637245397 0
outer loop
vertex -16.62928666666667 14.722510000000002 -0.2499566666666667
vertex -14.142186666666667 18.738335000000003 0.2499566666666667
vertex -14.142186666666667 18.738335000000003 -0.2499566666666667
endloop
endfacet
facet normal -0.9273849947654003 0.37410836863665425 0
outer loop
vertex -18.47747 10.141010000000001 -0.2499566666666667
vertex -18.47747 10.141010000000001 0.2499566666666667
vertex -16.62928666666667 14.722510000000002 0.2499566666666667
endloop
endfacet
facet normal -0.9273849947654003 0.37410836863665425 0
outer loop
vertex -18.47747 10.141010000000001 -0.2499566666666667
vertex -16.62928666666667 14.722510000000002 0.2499566666666667
vertex -16.62928666666667 14.722510000000002 -0.2499566666666667
endloop
endfacet
facet normal -0.9747749926134651 0.2231898603777041 0
outer loop
vertex -19.61567666666667 5.169926666666667 -0.2499566666666667
vertex -19.61567666666667 5.169926666666667 0.2499566666666667
vertex -18.47747 10.141010000000001 0.2499566666666667
endloop
endfacet
facet normal -0.9747749926134651 0.2231898603777041 0
outer loop
vertex -19.61567666666667 5.169926666666667 -0.2499566666666667
vertex -18.47747 10.141010000000001 0.2499566666666667
vertex -18.47747 10.141010000000001 -0.2499566666666667
endloop
endfacet
facet normal -0.9972488579586624 0.07412634686900323 0
outer loop
vertex -19.999961666666668 0 -0.2499566666666667
vertex -19.999961666666668 0 0.2499566666666667
vertex -19.61567666666667 5.169926666666667 0.2499566666666667
endloop
endfacet
facet normal -0.9972488579586624 0.07412634686900323 0
outer loop
vertex -19.999961666666668 0 -0.2499566666666667
vertex -19.61567666666667 5.169926666666667 0.2499566666666667
vertex -19.61567666666667 5.169926666666667 -0.2499566666666667
endloop
endfacet
facet normal -0.9972488579586624 -0.07412634686900323 0
outer loop
vertex -19.61567666666667 -5.169926666666667 -0.2499566666666667
vertex -19.61567666666667 -5.169926666666667 0.2499566666666667
vertex -19.999961666666668 0 0.2499566666666667
endloop
endfacet
facet normal -0.9972488579586624 -0.07412634686900323 0
outer loop
vertex -19.61567666666667 -5.169926666666667 -0.2499566666666667
vertex -19.999961666666668 0 0.2499566666666667
vertex -19.999961666666668 0 -0.2499566666666667
endloop
endfacet
facet normal -0.9747749926134651 -0.2231898603777041 0
outer loop
vertex -18.47747 -10.141010000000001 -0.2499566666666667
vertex -18.47747 -10.141010000000001 0.2499566666666667
vertex -19.61567666666667 -5.169926666666667 0.2499566666666667
endloop
endfacet
facet normal -0.9747749926134651 -0.2231898603777041 0
outer loop
vertex -18.47747 -10.141010000000001 -0.2499566666666667
vertex -19.61567666666667 -5.169926666666667 0.2499566666666667
vertex -19.61567666666667 -5.169926666666667 -0.2499566666666667
endloop
endfacet
facet normal -0.9273849947654003 -0.37410836863665425 0
outer loop
vertex -16.62928666666667 -14.722510000000002 -0.2499566666666667
vertex -16.62928666666667 -14.722510000000002 0.2499566666666667
vertex -18.47747 -10.141010000000001 0.2499566666666667
endloop
endfacet
facet normal -0.9273849947654003 -0.37410836863665425 0
outer loop
vertex -16.62928666666667 -14.722510000000002 -0.2499566666666667
vertex -18.47747 -10.141010000000001 0.2499566666666667
vertex -18.47747 -10.141010000000001 -0.2499566666666667
endloop
endfacet
facet normal -0.8501596688710141 -0.5265249637245397 0
outer loop
vertex -14.142186666666667 -18.738335000000003 -0.2499566666666667
vertex -14.142186666666667 -18.738335000000003 0.2499566666666667
vertex -16.62928666666667 -14.722510000000002 0.2499566666666667
endloop
endfacet
facet normal -0.8501596688710141 -0.5265249637245397 0
outer loop
vertex -14.142186666666667 -18.738335000000003 -0.2499566666666667
vertex -16.62928666666667 -14.722510000000002 0.2499566666666667
vertex -16.62928666666667 -14.722510000000002 -0.2499566666666667
endloop
endfacet
facet normal -0.7360725110174958 -0.6769026950193053 0
outer loop
vertex -11.111540000000002 -22.033898333333333 -0.2499566666666667
vertex -11.111540000000002 -22.033898333333333 0.2499566666666667
vertex -14.142186666666667 -18.738335000000003 0.2499566666666667
endloop
endfacet
facet normal -0.7360725110174958 -0.6769026950193053 0
outer loop
vertex -11.111540000000002 -22.033898333333333 -0.2499566666666667
vertex -14.142186666666667 -18.738335000000003 0.2499566666666667
vertex -14.142186666666667 -18.738335000000003 -0.2499566666666667
endloop
endfacet
facet normal -0.5779214177018772 -0.8160924181497169 0
outer loop
vertex -7.653598333333334 -24.482663333333335 -0.2499566666666667
vertex -7.653598333333334 -24.482663333333335 0.2499566666666667
vertex -11.111540000000002 -22.033898333333333 0.2499566666666667
endloop
endfacet
facet normal -0.5779214177018772 -0.8160924181497169 0
outer loop
vertex -7.653598333333334 -24.482663333333335 -0.2499566666666667
vertex -11.111540000000002 -22.033898333333333 0.2499566666666667
vertex -11.111540000000002 -22.033898333333333 -0.2499566666666667
endloop
endfacet
facet normal -0.372971527801086 -0.9278427881110699 0
outer loop
vertex -3.901755 -25.990818333333337 -0.2499566666666667
vertex -3.901755 -25.990818333333337 0.2499566666666667
vertex -7.653598333333334 -24.482663333333335 0.2499566666666667
endloop
endfacet
facet normal -0.372971527801086 -0.9278427881110699 0
outer loop
vertex -3.901755 -25.990818333333337 -0.2499566666666667
vertex -7.653598333333334 -24.482663333333335 0.2499566666666667
vertex -7.653598333333334 -24.482663333333335 -0.2499566666666667
endloop
endfacet
facet normal -0.12942383765614385 -0.9915893657388405 0
outer loop
vertex 0 -26.50008166666667 -0.2499566666666667
vertex 0 -26.50008166666667 0.2499566666666667
vertex -3.901755 -25.990818333333337 0.2499566666666667
endloop
endfacet
facet normal -0.12942383765614385 -0.9915893657388405 0
outer loop
vertex 0 -26.50008166666667 -0.2499566666666667
vertex -3.901755 -25.990818333333337 0.2499566666666667
vertex -3.901755 -25.990818333333337 -0.2499566666666667
endloop
endfacet
facet normal 0.12942383765614385 -0.9915893657388405 0
outer loop
vertex 3.901755 -25.990818333333337 -0.2499566666666667
vertex 3.901755 -25.990818333333337 0.2499566666666667
vertex 0 -26.50008166666667 0.2499566666666667
endloop
endfacet
facet normal 0.12942383765614385 -0.9915893657388405 0
outer loop
vertex 3.901755 -25.990818333333337 -0.2499566666666667
vertex 0 -26.50008166666667 0.2499566666666667
vertex 0 -26.50008166666667 -0.2499566666666667
endloop
endfacet
facet normal 0.372971527801086 -0.9278427881110699 0
outer loop
vertex 7.653598333333334 -24.482663333333335 -0.2499566666666667
vertex 7.653598333333334 -24.482663333333335 0.2499566666666667
vertex 3.901755 -25.990818333333337 0.2499566666666667
endloop
endfacet
facet normal 0.372971527801086 -0.9278427881110699 0
outer loop
vertex 7.653598333333334 -24.482663333333335 -0.2499566666666667
vertex 3.901755 -25.990818333333337 0.2499566666666667
vertex 3.901755 -25.990818333333337 -0.2499566666666667
endloop
endfacet
facet normal 0.5779214177018772 -0.8160924181497169 0
outer loop
vertex 11.111540000000002 -22.033898333333333 -0.2499566666666667
vertex 11.111540000000002 -22.033898333333333 0.2499566666666667
vertex 7.653598333333334 -24.482663333333335 0.2499566666666667
endloop
endfacet
facet normal 0.5779214177018772 -0.8160924181497169 0
outer loop
vertex 11.111540000000002 -22.033898333333333 -0.2499566666666667
vertex 7.653598333333334 -24.482663333333335 0.2499566666666667
vertex 7.653598333333334 -24.482663333333335 -0.2499566666666667
endloop
endfacet
facet normal 0.7360725110174958 -0.6769026950193053 0
outer loop
vertex 14.142186666666667 -18.738335000000003 -0.2499566666666667
vertex 14.142186666666667 -18.738335000000003 0.2499566666666667
vertex 11.111540000000002 -22.033898333333333 0.2499566666666667
endloop
endfacet
facet normal 0.7360725110174958 -0.6769026950193053 0
outer loop
vertex 14.142186666666667 -18.738335000000003 -0.2499566666666667
vertex 11.111540000000002 -22.033898333333333 0.2499566666666667
vertex 11.111540000000002 -22.033898333333333 -0.2499566666666667
endloop
endfacet
facet normal 0.8501596688710141 -0.5265249637245397 0
outer loop
vertex 16.62928666666667 -14.722510000000002 -0.2499566666666667
vertex 16.62928666666667 -14.722510000000002 0.2499566666666667
vertex 14.142186666666667 -18.738335000000003 0.2499566666666667
endloop
endfacet
facet normal 0.8501596688710141 -0.5265249637245397 0
outer loop
vertex 16.62928666666667 -14.722510000000002 -0.2499566666666667
vertex 14.142186666666667 -18.738335000000003 0.2499566666666667
vertex 14.142186666666667 -18.738335000000003 -0.2499566666666667
endloop
endfacet
facet normal 0.9273849947654003 -0.37410836863665425 0
outer loop
vertex 18.47747 -10.141010000000001 -0.2499566666666667
vertex 18.47747 -10.141010000000001 0.2499566666666667
vertex 16.62928666666667 -14.722510000000002 0.2499566666666667
endloop
endfacet
facet normal 0.9273849947654003 -0.37410836863665425 0
outer loop
vertex 18.47747 -10.141010000000001 -0.2499566666666667
vertex 16.62928666666667 -14.722510000000002 0.2499566666666667
vertex 16.62928666666667 -14.722510000000002 -0.2499566666666667
endloop
endfacet
facet normal 0.9747749926134651 -0.2231898603777041 0
outer loop
vertex 19.61567666666667 -5.169926666666667 -0.2499566666666667
vertex 19.61567666666667 -5.169926666666667 0.2499566666666667
vertex 18.47747 -10.141010000000001 0.2499566666666667
endloop
endfacet
facet normal 0.9747749926134651 -0.2231898603777041 0
outer loop
vertex 19.61567666666667 -5.169926666666667 -0.2499566666666667
vertex 18.47747 -10.141010000000001 0.2499566666666667
vertex 18.47747 -10.141010000000001 -0.2499566666666667
endloop
endfacet
facet normal 0.9972488579586624 -0.07412634686900323 0
outer loop
vertex 19.999961666666668 0 -0.2499566666666667
vertex 19.999961666666668 0 0.2499566666666667
vertex 19.61567666666667 -5.169926666666667 0.2499566666666667
endloop
endfacet
facet normal 0.9972488579586624 -0.07412634686900323 0
outer loop
vertex 19.999961666666668 0 -0.2499566666666667
vertex 19.61567666666667 -5.169926666666667 0.2499566666666667
vertex 19.61567666666667 -5.169926666666667 -0.2499566666666667
endloop
endfacet
facet normal 1 0 0
outer loop
vertex -3.9999300000000004 5.000068333333334 -0.2499566666666667
vertex -3.9999300000000004 5.000068333333334 0.2499566666666667
vertex -3.9999300000000004 -5.000068333333334 0.2499566666666667
endloop
endfacet
facet normal 1 0 0
outer loop
vertex -3.9999300000000004 5.000068333333334 -0.2499566666666667
vertex -3.9999300000000004 -5.000068333333334 0.2499566666666667
vertex -3.9999300000000004 -5.000068333333334 -0.2499566666666667
endloop
endfacet
facet normal -1 0 0
outer loop
vertex 3.9999300000000004 -5.000068333333334 0.2499566666666667
vertex 3.9999300000000004 5.000068333333334 0.2499566666666667
vertex 3.9999300000000004 5.000068333333334 -0.2499566666666667
endloop
endfacet
facet normal -1 0 0
outer loop
vertex 3.9999300000000004 -5.000068333333334 0.2499566666666667
vertex 3.9999300000000004 5.000068333333334 -0.2499566666666667
vertex 3.9999300000000004 -5.000068333333334 -0.2499566666666667
endloop
endfacet
facet normal 0 1 0
outer loop
vertex -3.9999300000000004 -5.000068333333334 0.2499566666666667
vertex 3.9999300000000004 -5.000068333333334 0.2499566666666667
vertex 3.9999300000000004 -5.000068333333334 -0.2499566666666667
endloop
endfacet
facet normal 0 1 0
outer loop
vertex -3.9999300000000004 -5.000068333333334 0.2499566666666667
vertex 3.9999300000000004 -5.000068333333334 -0.2499566666666667
vertex -3.9999300000000004 -5.000068333333334 -0.2499566666666667
endloop
endfacet
facet normal 0 -1 0
outer loop
vertex 3.9999300000000004 5.000068333333334 -0.2499566666666667
vertex 3.9999300000000004 5.000068333333334 0.2499566666666667
vertex -3.9999300000000004 5.000068333333334 0.2499566666666667
endloop
endfacet
facet normal 0 -1 0
outer loop
vertex 3.9999300000000004 5.000068333333334 -0.2499566666666667
vertex -3.9999300000000004 5.000068333333334 0.2499566666666667
vertex -3.9999300000000004 5.000068333333334 -0.2499566666666667
endloop
endfacet
facet normal 0 0 -1
outer loop
vertex 0 15.213696666666667 -0.2499566666666667
vertex 3.901755 25.990818333333337 -0.2499566666666667
vertex 7.653598333333334 24.482663333333335 -0.2499566666666667
endloop
endfacet
facet normal 0 0 -1
outer loop
vertex 0 15.213696666666667 -0.2499566666666667
vertex 7.653598333333334 24.482663333333335 -0.2499566666666667
vertex 11.111540000000002 22.033898333333333 -0.2499566666666667
endloop
endfacet
facet normal 0 0 -1
outer loop
vertex 0 15.213696666666667 -0.2499566666666667
vertex 11.111540000000002 22.033898333333333 -0.2499566666666667
vertex 14.142186666666667 18.738335000000003 -0.2499566666666667
endloop
endfacet
facet normal 0 0 -1
outer loop
vertex 0 15.213696666666667 -0.2499566666666667
vertex 14.142186666666667 18.738335000000003 -0.2499566666666667
vertex 16.62928666666667 14.722510000000002 -0.2499566666666667
endloop
endfacet
facet normal 0 0 -1
outer loop
vertex 0 15.213696666666667 -0.2499566666666667
vertex 16.62928666666667 14.722510000000002 -0.2499566666666667
vertex 18.47747 10.141010000000001 -0.2499566666666667
endloop
endfacet
facet normal 0 0 -0.9999999999999999
outer loop
vertex 0 15.213696666666667 -0.2499566666666667
vertex 18.47747 10.141010000000001 -0.2499566666666667
vertex 19.61567666666667 5.169926666666667 -0.2499566666666667
endloop
endfacet
facet normal 0 0 -1
outer loop
vertex 0 15.213696666666667 -0.2499566666666667
vertex 19.61567666666667 5.169926666666667 -0.2499566666666667
vertex 19.628455000000002 5.000068333333334 -0.2499566666666667
endloop
endfacet
facet normal 0 0 -1
outer loop
vertex 0 15.213696666666667 -0.2499566666666667
vertex 19.628455000000002 5.000068333333334 -0.2499566666666667
vertex 3.9999300000000004 5.000068333333334 -0.2499566666666667
endloop
endfacet
facet normal 0 0 -1
outer loop
vertex 0 15.213696666666667 -0.2499566666666667
vertex 3.9999300000000004 5.000068333333334 -0.2499566666666667
vertex -3.9999300000000004 5.000068333333334 -0.2499566666666667
endloop
endfacet
facet normal 0 0 -1
outer loop
vertex 0 15.213696666666667 -0.2499566666666667
vertex -3.9999300000000004 5.000068333333334 -0.2499566666666667
vertex -19.628455000000002 5.000068333333334 -0.2499566666666667
endloop
endfacet
facet normal 0 0 -1
outer loop
vertex 0 15.213696666666667 -0.2499566666666667
vertex -19.628455000000002 5.000068333333334 -0.2499566666666667
vertex -19.61567666666667 5.169926666666667 -0.2499566666666667
endloop
endfacet
facet normal 0 0 -0.9999999999999999
outer loop
vertex 0 15.213696666666667 -0.2499566666666667
vertex -19.61567666666667 5.169926666666667 -0.2499566666666667
vertex -18.47747 10.141010000000001 -0.2499566666666667
endloop
endfacet
facet normal 0 0 -1
outer loop
vertex 0 15.213696666666667 -0.2499566666666667
vertex -18.47747 10.141010000000001 -0.2499566666666667
vertex -16.62928666666667 14.722510000000002 -0.2499566666666667
endloop
endfacet
facet normal 0 0 -1
outer loop
vertex 0 15.213696666666667 -0.2499566666666667
vertex -16.62928666666667 14.722510000000002 -0.2499566666666667
vertex -14.142186666666667 18.738335000000003 -0.2499566666666667
endloop
endfacet
facet normal 0 0 -1
outer loop
vertex 0 15.213696666666667 -0.2499566666666667
vertex -14.142186666666667 18.738335000000003 -0.2499566666666667
vertex -11.111540000000002 22.033898333333333 -0.2499566666666667
endloop
endfacet
facet normal 0 0 -1
outer loop
vertex 0 15.213696666666667 -0.2499566666666667
vertex -11.111540000000002 22.033898333333333 -0.2499566666666667
vertex -7.653598333333334 24.482663333333335 -0.2499566666666667
endloop
endfacet
facet normal 0 0 -1
outer loop
vertex 0 15.213696666666667 -0.2499566666666667
vertex -7.653598333333334 24.482663333333335 -0.2499566666666667
vertex -3.901755 25.990818333333337 -0.2499566666666667
endloop
endfacet
facet normal 0 0 -1
outer loop
vertex 0 15.213696666666667 -0.2499566666666667
vertex -3.901755 25.990818333333337 -0.2499566666666667
vertex 0 26.50008166666667 -0.2499566666666667
endloop
endfacet
facet normal 0 0 -1
outer loop
vertex 0 15.213696666666667 -0.2499566666666667
vertex 0 26.50008166666667 -0.2499566666666667
vertex 3.901755 25.990818333333337 -0.2499566666666667
endloop
endfacet
facet normal 0 0 -1
outer loop
vertex -13.451221666666667 0 -0.2499566666666667
vertex -3.9999300000000004 5.000068333333334 -0.2499566666666667
vertex -3.9999300000000004 -5.000068333333334 -0.2499566666666667
endloop
endfacet
facet normal 0 0 -1
outer loop
vertex -13.451221666666667 0 -0.2499566666666667
vertex -3.9999300000000004 -5.000068333333334 -0.2499566666666667
vertex -19.628455000000002 -5.000068333333334 -0.2499566666666667
endloop
endfacet
facet normal 0 0 -1
outer loop
vertex -13.451221666666667 0 -0.2499566666666667
vertex -19.628455000000002 -5.000068333333334 -0.2499566666666667
vertex -19.999961666666668 0 -0.2499566666666667
endloop
endfacet
facet normal 0 0 -1
outer loop
vertex -13.451221666666667 0 -0.2499566666666667
vertex -19.999961666666668 0 -0.2499566666666667
vertex -19.628455000000002 5.000068333333334 -0.2499566666666667
endloop
endfacet
facet normal 0 0 -1
outer loop
vertex -13.451221666666667 0 -0.2499566666666667
vertex -19.628455000000002 5.000068333333334 -0.2499566666666667
vertex -3.9999300000000004 5.000068333333334 -0.2499566666666667
endloop
endfacet
facet normal 0 0 -1
outer loop
vertex 13.451221666666667 0 -0.2499566666666667
vertex 19.628455000000002 5.000068333333334 -0.2499566666666667
vertex 19.999961666666668 0 -0.2499566666666667
endloop
endfacet
facet normal 0 0 -1
outer loop
vertex 13.451221666666667 0 -0.2499566666666667
vertex 19.999961666666668 0 -0.2499566666666667
vertex 19.628455000000002 -5.000068333333334 -0.2499566666666667
endloop
endfacet
facet normal 0 0 -1
outer loop
vertex 13.451221666666667 0 -0.2499566666666667
vertex 19.628455000000002 -5.000068333333334 -0.2499566666666667
vertex 3.9999300000000004 -5.000068333333334 -0.2499566666666667
endloop
endfacet
facet normal 0 0 -1
outer loop
vertex 13.451221666666667 0 -0.2499566666666667
vertex 3.9999300000000004 -5.000068333333334 -0.2499566666666667
vertex 3.9999300000000004 5.000068333333334 -0.2499566666666667
endloop
endfacet
facet normal 0 0 -1
outer loop
vertex 13.451221666666667 0 -0.2499566666666667
vertex 3.9999300000000004 5.000068333333334 -0.2499566666666667
vertex 19.628455000000002 5.000068333333334 -0.2499566666666667
endloop
endfacet
facet normal 0 0 -1
outer loop
vertex 0 -15.213696666666667 -0.2499566666666667
vertex -3.9999300000000004 -5.000068333333334 -0.2499566666666667
vertex 3.9999300000000004 -5.000068333333334 -0.2499566666666667
endloop
endfacet
facet normal 0 0 -1
outer loop
vertex 0 -15.213696666666667 -0.2499566666666667
vertex 3.9999300000000004 -5.000068333333334 -0.2499566666666667
vertex 19.628455000000002 -5.000068333333334 -0.2499566666666667
endloop
endfacet
facet normal 0 0 -1
outer loop
vertex 0 -15.213696666666667 -0.2499566666666667
vertex 19.628455000000002 -5.000068333333334 -0.2499566666666667
vertex 19.61567666666667 -5.169926666666667 -0.2499566666666667
endloop
endfacet
facet normal 0 0 -0.9999999999999999
outer loop
vertex 0 -15.213696666666667 -0.2499566666666667
vertex 19.61567666666667 -5.169926666666667 -0.2499566666666667
vertex 18.47747 -10.141010000000001 -0.2499566666666667
endloop
endfacet
facet normal 0 0 -1
outer loop
vertex 0 -15.213696666666667 -0.2499566666666667
vertex 18.47747 -10.141010000000001 -0.2499566666666667
vertex 16.62928666666667 -14.722510000000002 -0.2499566666666667
endloop
endfacet
facet normal 0 0 -1
outer loop
vertex 0 -15.213696666666667 -0.2499566666666667
vertex 16.62928666666667 -14.722510000000002 -0.2499566666666667
vertex 14.142186666666667 -18.738335000000003 -0.2499566666666667
endloop
endfacet
facet normal 0 0 -1
outer loop
vertex 0 -15.213696666666667 -0.2499566666666667
vertex 14.142186666666667 -18.738335000000003 -0.2499566666666667
vertex 11.111540000000002 -22.033898333333333 -0.2499566666666667
endloop
endfacet
facet normal 0 0 -1
outer loop
vertex 0 -15.213696666666667 -0.2499566666666667
vertex 11.111540000000002 -22.033898333333333 -0.2499566666666667
vertex 7.653598333333334 -24.482663333333335 -0.2499566666666667
endloop
endfacet
facet normal 0 0 -1
outer loop
vertex 0 -15.213696666666667 -0.2499566666666667
vertex 7.653598333333334 -24.482663333333335 -0.2499566666666667
vertex 3.901755 -25.990818333333337 -0.2499566666666667
endloop
endfacet
facet normal 0 0 -1
outer loop
vertex 0 -15.213696666666667 -0.2499566666666667
vertex 3.901755 -25.990818333333337 -0.2499566666666667
vertex 0 -26.50008166666667 -0.2499566666666667
endloop
endfacet
facet normal 0 0 -1
outer loop
vertex 0 -15.213696666666667 -0.2499566666666667
vertex 0 -26.50008166666667 -0.2499566666666667
vertex -3.901755 -25.990818333333337 -0.2499566666666667
endloop
endfacet
facet normal 0 0 -1
outer loop
vertex 0 -15.213696666666667 -0.2499566666666667
vertex -3.901755 -25.990818333333337 -0.2499566666666667
vertex -7.653598333333334 -24.482663333333335 -0.2499566666666667
endloop
endfacet
facet normal 0 0 -1
outer loop
vertex 0 -15.213696666666667 -0.2499566666666667
vertex -7.653598333333334 -24.482663333333335 -0.2499566666666667
vertex -11.111540000000002 -22.033898333333333 -0.2499566666666667
endloop
endfacet
facet normal 0 0 -1
outer loop
vertex 0 -15.213696666666667 -0.2499566666666667
vertex -11.111540000000002 -22.033898333333333 -0.2499566666666667
vertex -14.142186666666667 -18.738335000000003 -0.2499566666666667
endloop
endfacet
facet normal 0 0 -1
outer loop
vertex 0 -15.213696666666667 -0.2499566666666667
vertex -14.142186666666667 -18.738335000000003 -0.2499566666666667
vertex -16.62928666666667 -14.722510000000002 -0.2499566666666667
endloop
endfacet
facet normal 0 0 -1
outer loop
vertex 0 -15.213696666666667 -0.2499566666666667
vertex -16.62928666666667 -14.722510000000002 -0.2499566666666667
vertex -18.47747 -10.141010000000001 -0.2499566666666667
endloop
endfacet
facet normal 0 0 -0.9999999999999999
outer loop
vertex 0 -15.213696666666667 -0.2499566666666667
vertex -18.47747 -10.141010000000001 -0.2499566666666667
vertex -19.61567666666667 -5.169926666666667 -0.2499566666666667
endloop
endfacet
facet normal 0 0 -1
outer loop
vertex 0 -15.213696666666667 -0.2499566666666667
vertex -19.61567666666667 -5.169926666666667 -0.2499566666666667
vertex -19.628455000000002 -5.000068333333334 -0.2499566666666667
endloop
endfacet
facet normal 0 0 -1
outer loop
vertex 0 -15.213696666666667 -0.2499566666666667
vertex -19.628455000000002 -5.000068333333334 -0.2499566666666667
vertex -3.9999300000000004 -5.000068333333334 -0.2499566666666667
endloop
endfacet
facet normal 0 0 1
outer loop
vertex 0 15.213696666666667 0.2499566666666667
vertex -3.901755 25.990818333333337 0.2499566666666667
vertex -7.653598333333334 24.482663333333335 0.2499566666666667
endloop
endfacet
facet normal 0 0 1
outer loop
vertex 0 15.213696666666667 0.2499566666666667
vertex -7.653598333333334 24.482663333333335 0.2499566666666667
vertex -11.111540000000002 22.033898333333333 0.2499566666666667
endloop
endfacet
facet normal 0 0 1
outer loop
vertex 0 15.213696666666667 0.2499566666666667
vertex -11.111540000000002 22.033898333333333 0.2499566666666667
vertex -14.142186666666667 18.738335000000003 0.2499566666666667
endloop
endfacet
facet normal 0 0 1
outer loop
vertex 0 15.213696666666667 0.2499566666666667
vertex -14.142186666666667 18.738335000000003 0.2499566666666667
vertex -16.62928666666667 14.722510000000002 0.2499566666666667
endloop
endfacet
facet normal 0 0 1
outer loop
vertex 0 15.213696666666667 0.2499566666666667
vertex -16.62928666666667 14.722510000000002 0.2499566666666667
vertex -18.47747 10.141010000000001 0.2499566666666667
endloop
endfacet
facet normal 0 0 0.9999999999999999
outer loop
vertex 0 15.213696666666667 0.2499566666666667
vertex -18.47747 10.141010000000001 0.2499566666666667
vertex -19.61567666666667 5.169926666666667 0.2499566666666667
endloop
endfacet
facet normal 0 0 1
outer loop
vertex 0 15.213696666666667 0.2499566666666667
vertex -19.61567666666667 5.169926666666667 0.2499566666666667
vertex -19.628455000000002 5.000068333333334 0.2499566666666667
endloop
endfacet
facet normal 0 0 1
outer loop
vertex 0 15.213696666666667 0.2499566666666667
vertex -19.628455000000002 5.000068333333334 0.2499566666666667
vertex -3.9999300000000004 5.000068333333334 0.2499566666666667
endloop
endfacet
facet normal 0 0 1
outer loop
vertex 0 15.213696666666667 0.2499566666666667
vertex -3.9999300000000004 5.000068333333334 0.2499566666666667
vertex 3.9999300000000004 5.000068333333334 0.2499566666666667
endloop
endfacet
facet normal 0 0 1
outer loop
vertex 0 15.213696666666667 0.2499566666666667
vertex 3.9999300000000004 5.000068333333334 0.2499566666666667
vertex 19.628455000000002 5.000068333333334 0.2499566666666667
endloop
endfacet
facet normal 0 0 1
outer loop
vertex 0 15.213696666666667 0.2499566666666667
vertex 19.628455000000002 5.000068333333334 0.2499566666666667
vertex 19.61567666666667 5.169926666666667 0.2499566666666667
endloop
endfacet
facet normal 0 0 0.9999999999999999
outer loop
vertex 0 15.213696666666667 0.2499566666666667
vertex 19.61567666666667 5.169926666666667 0.2499566666666667
vertex 18.47747 10.141010000000001 0.2499566666666667
endloop
endfacet
facet normal 0 0 1
outer loop
vertex 0 15.213696666666667 0.2499566666666667
vertex 18.47747 10.141010000000001 0.2499566666666667
vertex 16.62928666666667 14.722510000000002 0.2499566666666667
endloop
endfacet
facet normal 0 0 1
outer loop
vertex 0 15.213696666666667 0.2499566666666667
vertex 16.62928666666667 14.722510000000002 0.2499566666666667
vertex 14.142186666666667 18.738335000000003 0.2499566666666667
endloop
endfacet
facet normal 0 0 1
outer loop
vertex 0 15.213696666666667 0.2499566666666667
vertex 14.142186666666667 18.738335000000003 0.2499566666666667
vertex 11.111540000000002 22.033898333333333 0.2499566666666667
endloop
endfacet
facet normal 0 0 1
outer loop
vertex 0 15.213696666666667 0.2499566666666667
vertex 11.111540000000002 22.033898333333333 0.2499566666666667
vertex 7.653598333333334 24.482663333333335 0.2499566666666667
endloop
endfacet
facet normal 0 0 1
outer loop
vertex 0 15.213696666666667 0.2499566666666667
vertex 7.653598333333334 24.482663333333335 0.2499566666666667
vertex 3.901755 25.990818333333337 0.2499566666666667
endloop
endfacet
facet normal 0 0 1
outer loop
vertex 0 15.213696666666667 0.2499566666666667
vertex 3.901755 25.990818333333337 0.2499566666666667
vertex 0 26.50008166666667 0.2499566666666667
endloop
endfacet
facet normal 0 0 1
outer loop
vertex 0 15.213696666666667 0.2499566666666667
vertex 0 26.50008166666667 0.2499566666666667
vertex -3.901755 25.990818333333337 0.2499566666666667
endloop
endfacet
facet normal 0 0 1
outer loop
vertex 13.451221666666667 0 0.2499566666666667
vertex 3.9999300000000004 5.000068333333334 0.2499566666666667
vertex 3.9999300000000004 -5.000068333333334 0.2499566666666667
endloop
endfacet
facet normal 0 0 1
outer loop
vertex 13.451221666666667 0 0.2499566666666667
vertex 3.9999300000000004 -5.000068333333334 0.2499566666666667
vertex 19.628455000000002 -5.000068333333334 0.2499566666666667
endloop
endfacet
facet normal 0 0 1
outer loop
vertex 13.451221666666667 0 0.2499566666666667
vertex 19.628455000000002 -5.000068333333334 0.2499566666666667
vertex 19.999961666666668 0 0.2499566666666667
endloop
endfacet
facet normal 0 0 1
outer loop
vertex 13.451221666666667 0 0.2499566666666667
vertex 19.999961666666668 0 0.2499566666666667
vertex 19.628455000000002 5.000068333333334 0.2499566666666667
endloop
endfacet
facet normal 0 0 1
outer loop
vertex 13.451221666666667 0 0.2499566666666667
vertex 19.628455000000002 5.000068333333334 0.2499566666666667
vertex 3.9999300000000004 5.000068333333334 0.2499566666666667
endloop
endfacet
facet normal 0 0 1
outer loop
vertex -13.451221666666667 0 0.2499566666666667
vertex -19.628455000000002 5.000068333333334 0.2499566666666667
vertex -19.999961666666668 0 0.2499566666666667
endloop
endfacet
facet normal 0 0 1
outer loop
vertex -13.451221666666667 0 0.2499566666666667
vertex -19.999961666666668 0 0.2499566666666667
vertex -19.628455000000002 -5.000068333333334 0.2499566666666667
endloop
endfacet
facet normal 0 0 1
outer loop
vertex -13.451221666666667 0 0.2499566666666667
vertex -19.628455000000002 -5.000068333333334 0.2499566666666667
vertex -3.9999300000000004 -5.000068333333334 0.2499566666666667
endloop
endfacet
facet normal 0 0 1
outer loop
vertex -13.451221666666667 0 0.2499566666666667
vertex -3.9999300000000004 -5.000068333333334 0.2499566666666667
vertex -3.9999300000000004 5.000068333333334 0.2499566666666667
endloop
endfacet
facet normal 0 0 1
outer loop
vertex -13.451221666666667 0 0.2499566666666667
vertex -3.9999300000000004 5.000068333333334 0.2499566666666667
vertex -19.628455000000002 5.000068333333334 0.2499566666666667
endloop
endfacet
facet normal 0 0 1
outer loop
vertex 0 -15.213696666666667 0.2499566666666667
vertex 3.9999300000000004 -5.000068333333334 0.2499566666666667
vertex -3.9999300000000004 -5.000068333333334 0.2499566666666667
endloop
endfacet
facet normal 0 0 1
outer loop
vertex 0 -15.213696666666667 0.2499566666666667
vertex -3.9999300000000004 -5.000068333333334 0.2499566666666667
vertex -19.628455000000002 -5.000068333333334 0.2499566666666667
endloop
endfacet
facet normal 0 0 1
outer loop
vertex 0 -15.213696666666667 0.2499566666666667
vertex -19.628455000000002 -5.000068333333334 0.2499566666666667
vertex -19.61567666666667 -5.169926666666667 0.2499566666666667
endloop
endfacet
facet normal 0 0 0.9999999999999999
outer loop
vertex 0 -15.213696666666667 0.2499566666666667
vertex -19.61567666666667 -5.169926666666667 0.2499566666666667
vertex -18.47747 -10.141010000000001 0.2499566666666667
endloop
endfacet
facet normal 0 0 1
outer loop
vertex 0 -15.213696666666667 0.2499566666666667
vertex -18.47747 -10.141010000000001 0.2499566666666667
vertex -16.62928666666667 -14.722510000000002 0.2499566666666667
endloop
endfacet
facet normal 0 0 1
outer loop
vertex 0 -15.213696666666667 0.2499566666666667
vertex -16.62928666666667 -14.722510000000002 0.2499566666666667
vertex -14.142186666666667 -18.738335000000003 0.2499566666666667
endloop
endfacet
facet normal 0 0 1
outer loop
vertex 0 -15.213696666666667 0.2499566666666667
vertex -14.142186666666667 -18.738335000000003 0.2499566666666667
vertex -11.111540000000002 -22.033898333333333 0.2499566666666667
endloop
endfacet
facet normal 0 0 1
outer loop
vertex 0 -15.213696666666667 0.2499566666666667
vertex -11.111540000000002 -22.033898333333333 0.2499566666666667
vertex -7.653598333333334 -24.482663333333335 0.2499566666666667
endloop
endfacet
facet normal 0 0 1
outer loop
vertex 0 -15.213696666666667 0.2499566666666667
vertex -7.653598333333334 -24.482663333333335 0.2499566666666667
vertex -3.901755 -25.990818333333337 0.2499566666666667
endloop
endfacet
facet normal 0 0 1
outer loop
vertex 0 -15.213696666666667 0.2499566666666667
vertex -3.901755 -25.990818333333337 0.2499566666666667
vertex 0 -26.50008166666667 0.2499566666666667
endloop
endfacet
facet normal 0 0 1
outer loop
vertex 0 -15.213696666666667 0.2499566666666667
vertex 0 -26.50008166666667 0.2499566666666667
vertex 3.901755 -25.990818333333337 0.2499566666666667
endloop
endfacet
facet normal 0 0 1
outer loop
vertex 0 -15.213696666666667 0.2499566666666667
vertex 3.901755 -25.990818333333337 0.2499566666666667
vertex 7.653598333333334 -24.482663333333335 0.2499566666666667
endloop
endfacet
facet normal 0 0 1
outer loop
vertex 0 -15.213696666666667 0.2499566666666667
vertex 7.653598333333334 -24.482663333333335 0.2499566666666667
vertex 11.111540000000002 -22.033898333333333 0.2499566666666667
endloop
endfacet
facet normal 0 0 1
outer loop
vertex 0 -15.213696666666667 0.2499566666666667
vertex 11.111540000000002 -22.033898333333333 0.2499566666666667
vertex 14.142186666666667 -18.738335000000003 0.2499566666666667
endloop
endfacet
facet normal 0 0 1
outer loop
vertex 0 -15.213696666666667 0.2499566666666667
vertex 14.142186666666667 -18.738335000000003 0.2499566666666667
vertex 16.62928666666667 -14.722510000000002 0.2499566666666667
endloop
endfacet
facet normal 0 0 1
outer loop
vertex 0 -15.213696666666667 0.2499566666666667
vertex 16.62928666666667 -14.722510000000002 0.2499566666666667
vertex 18.47747 -10.141010000000001 0.2499566666666667
endloop
endfacet
facet normal 0 0 0.9999999999999999
outer loop
vertex 0 -15.213696666666667 0.2499566666666667
vertex 18.47747 -10.141010000000001 0.2499566666666667
vertex 19.61567666666667 -5.169926666666667 0.2499566666666667
endloop
endfacet
facet normal 0 0 1
outer loop
vertex 0 -15.213696666666667 0.2499566666666667
vertex 19.61567666666667 -5.169926666666667 0.2499566666666667
vertex 19.628455000000002 -5.000068333333334 0.2499566666666667
endloop
endfacet
facet normal 0 0 1
outer loop
vertex 0 -15.213696666666667 0.2499566666666667
vertex 19.628455000000002 -5.000068333333334 0.2499566666666667
vertex 3.9999300000000004 -5.000068333333334 0.2499566666666667
endloop
endfacet
endsolid JSCAD
