solid JSCAD
facet normal -1 0 0
outer loop
vertex -8.999993333333334 0 -0.4999633333333334
vertex -8.999993333333334 7.750003333333335 -2.4999800000000003
vertex -8.999993333333334 6.999976666666668 -2.4999800000000003
endloop
endfacet
facet normal -0.9999999999999999 0 0
outer loop
vertex -8.999993333333334 0 -0.4999633333333334
vertex -8.999993333333334 6.999976666666668 -2.4999800000000003
vertex -8.999993333333334 -6.999976666666668 -2.4999800000000003
endloop
endfacet
facet normal -1 0 0
outer loop
vertex -8.999993333333334 0 -0.4999633333333334
vertex -8.999993333333334 -6.999976666666668 -2.4999800000000003
vertex -8.999993333333334 -7.750003333333335 -2.4999800000000003
endloop
endfacet
facet normal -1 0 0
outer loop
vertex -8.999993333333334 0 -0.4999633333333334
vertex -8.999993333333334 -7.750003333333335 -2.4999800000000003
vertex -8.999993333333334 -8.999993333333334 -2.4999800000000003
endloop
endfacet
facet normal -1 0 0
outer loop
vertex -8.999993333333334 0 -0.4999633333333334
vertex -8.999993333333334 -8.999993333333334 -2.4999800000000003
vertex -8.999993333333334 -8.999993333333334 2.4999800000000003
endloop
endfacet
facet normal -1 0 0
outer loop
vertex -8.999993333333334 0 -0.4999633333333334
vertex -8.999993333333334 -8.999993333333334 2.4999800000000003
vertex -8.999993333333334 -6.999976666666668 2.4999800000000003
endloop
endfacet
facet normal -0.9999999999999999 0 0
outer loop
vertex -8.999993333333334 0 -0.4999633333333334
vertex -8.999993333333334 -6.999976666666668 2.4999800000000003
vertex -8.999993333333334 6.999976666666668 2.4999800000000003
endloop
endfacet
facet normal -1 0 0
outer loop
vertex -8.999993333333334 0 -0.4999633333333334
vertex -8.999993333333334 6.999976666666668 2.4999800000000003
vertex -8.999993333333334 8.999993333333334 2.4999800000000003
endloop
endfacet
facet normal -1 0 0
outer loop
vertex -8.999993333333334 0 -0.4999633333333334
vertex -8.999993333333334 8.999993333333334 2.4999800000000003
vertex -8.999993333333334 8.999993333333334 -2.4999800000000003
endloop
endfacet
facet normal -1 0 0
outer loop
vertex -8.999993333333334 0 -0.4999633333333334
vertex -8.999993333333334 8.999993333333334 -2.4999800000000003
vertex -8.999993333333334 7.750003333333335 -2.4999800000000003
endloop
endfacet
facet normal 1 0 0
outer loop
vertex 8.999993333333334 0 -0.4999633333333334
vertex 8.999993333333334 -8.999993333333334 -2.4999800000000003
vertex 8.999993333333334 -7.750003333333335 -2.4999800000000003
endloop
endfacet
facet normal 1 0 0
outer loop
vertex 8.999993333333334 0 -0.4999633333333334
vertex 8.999993333333334 -7.750003333333335 -2.4999800000000003
vertex 8.999993333333334 -6.999976666666668 -2.4999800000000003
endloop
endfacet
facet normal 0.9999999999999999 0 0
outer loop
vertex 8.999993333333334 0 -0.4999633333333334
vertex 8.999993333333334 -6.999976666666668 -2.4999800000000003
vertex 8.999993333333334 6.999976666666668 -2.4999800000000003
endloop
endfacet
facet normal 1 0 0
outer loop
vertex 8.999993333333334 0 -0.4999633333333334
vertex 8.999993333333334 6.999976666666668 -2.4999800000000003
vertex 8.999993333333334 7.750003333333335 -2.4999800000000003
endloop
endfacet
facet normal 1 0 0
outer loop
vertex 8.999993333333334 0 -0.4999633333333334
vertex 8.999993333333334 7.750003333333335 -2.4999800000000003
vertex 8.999993333333334 8.999993333333334 -2.4999800000000003
endloop
endfacet
facet normal 1 0 0
outer loop
vertex 8.999993333333334 0 -0.4999633333333334
vertex 8.999993333333334 8.999993333333334 -2.4999800000000003
vertex 8.999993333333334 8.999993333333334 2.4999800000000003
endloop
endfacet
facet normal 1 0 0
outer loop
vertex 8.999993333333334 0 -0.4999633333333334
vertex 8.999993333333334 8.999993333333334 2.4999800000000003
vertex 8.999993333333334 6.999976666666668 2.4999800000000003
endloop
endfacet
facet normal 0.9999999999999999 0 0
outer loop
vertex 8.999993333333334 0 -0.4999633333333334
vertex 8.999993333333334 6.999976666666668 2.4999800000000003
vertex 8.999993333333334 -6.999976666666668 2.4999800000000003
endloop
endfacet
facet normal 1 0 0
outer loop
vertex 8.999993333333334 0 -0.4999633333333334
vertex 8.999993333333334 -6.999976666666668 2.4999800000000003
vertex 8.999993333333334 -8.999993333333334 2.4999800000000003
endloop
endfacet
facet normal 1 0 0
outer loop
vertex 8.999993333333334 0 -0.4999633333333334
vertex 8.999993333333334 -8.999993333333334 2.4999800000000003
vertex 8.999993333333334 -8.999993333333334 -2.4999800000000003
endloop
endfacet
facet normal 1 0 0
outer loop
vertex -6.999976666666668 0 0.3333633333333334
vertex -6.999976666666668 6.999976666666668 -2.4999800000000003
vertex -6.999976666666668 6.999976666666668 0.9999266666666669
endloop
endfacet
facet normal 1 0 0
outer loop
vertex -6.999976666666668 0 0.3333633333333334
vertex -6.999976666666668 6.999976666666668 0.9999266666666669
vertex -6.999976666666668 6.999976666666668 2.4999800000000003
endloop
endfacet
facet normal 1 0 0
outer loop
vertex -6.999976666666668 0 0.3333633333333334
vertex -6.999976666666668 6.999976666666668 2.4999800000000003
vertex -6.999976666666668 -6.999976666666668 2.4999800000000003
endloop
endfacet
facet normal 1 0 0
outer loop
vertex -6.999976666666668 0 0.3333633333333334
vertex -6.999976666666668 -6.999976666666668 2.4999800000000003
vertex -6.999976666666668 -6.999976666666668 0.9999266666666669
endloop
endfacet
facet normal 1 0 0
outer loop
vertex -6.999976666666668 0 0.3333633333333334
vertex -6.999976666666668 -6.999976666666668 0.9999266666666669
vertex -6.999976666666668 -6.999976666666668 -2.4999800000000003
endloop
endfacet
facet normal 1 0 0
outer loop
vertex -6.999976666666668 0 0.3333633333333334
vertex -6.999976666666668 -6.999976666666668 -2.4999800000000003
vertex -6.999976666666668 6.999976666666668 -2.4999800000000003
endloop
endfacet
facet normal -1 0 0
outer loop
vertex 6.999976666666668 0 0.3333633333333334
vertex 6.999976666666668 -6.999976666666668 0.9999266666666669
vertex 6.999976666666668 -6.999976666666668 2.4999800000000003
endloop
endfacet
facet normal -1 0 0
outer loop
vertex 6.999976666666668 0 0.3333633333333334
vertex 6.999976666666668 -6.999976666666668 2.4999800000000003
vertex 6.999976666666668 6.999976666666668 2.4999800000000003
endloop
endfacet
facet normal -1 0 0
outer loop
vertex 6.999976666666668 0 0.3333633333333334
vertex 6.999976666666668 6.999976666666668 2.4999800000000003
vertex 6.999976666666668 6.999976666666668 0.9999266666666669
endloop
endfacet
facet normal -1 0 0
outer loop
vertex 6.999976666666668 0 0.3333633333333334
vertex 6.999976666666668 6.999976666666668 0.9999266666666669
vertex 6.999976666666668 6.999976666666668 -2.4999800000000003
endloop
endfacet
facet normal -1 0 0
outer loop
vertex 6.999976666666668 0 0.3333633333333334
vertex 6.999976666666668 6.999976666666668 -2.4999800000000003
vertex 6.999976666666668 -6.999976666666668 -2.4999800000000003
endloop
endfacet
facet normal -1 0 0
outer loop
vertex 6.999976666666668 0 0.3333633333333334
vertex 6.999976666666668 -6.999976666666668 -2.4999800000000003
vertex 6.999976666666668 -6.999976666666668 0.9999266666666669
endloop
endfacet
facet normal 0 1 0
outer loop
vertex 0 -6.999976666666668 1.4998900000000004
vertex 6.999976666666668 -6.999976666666668 2.4999800000000003
vertex 6.999976666666668 -6.999976666666668 0.9999266666666669
endloop
endfacet
facet normal 0 1 0
outer loop
vertex 0 -6.999976666666668 1.4998900000000004
vertex 6.999976666666668 -6.999976666666668 0.9999266666666669
vertex 2.4999800000000003 -6.999976666666668 0.9999266666666669
endloop
endfacet
facet normal 0 1 0
outer loop
vertex 0 -6.999976666666668 1.4998900000000004
vertex 2.4999800000000003 -6.999976666666668 0.9999266666666669
vertex -2.4999800000000003 -6.999976666666668 0.9999266666666669
endloop
endfacet
facet normal 0 1 0
outer loop
vertex 0 -6.999976666666668 1.4998900000000004
vertex -2.4999800000000003 -6.999976666666668 0.9999266666666669
vertex -6.999976666666668 -6.999976666666668 0.9999266666666669
endloop
endfacet
facet normal 0 1 0
outer loop
vertex 0 -6.999976666666668 1.4998900000000004
vertex -6.999976666666668 -6.999976666666668 0.9999266666666669
vertex -6.999976666666668 -6.999976666666668 2.4999800000000003
endloop
endfacet
facet normal 0 1 0
outer loop
vertex 0 -6.999976666666668 1.4998900000000004
vertex -6.999976666666668 -6.999976666666668 2.4999800000000003
vertex 6.999976666666668 -6.999976666666668 2.4999800000000003
endloop
endfacet
facet normal 0 0.9999999999999999 0
outer loop
vertex -2.4999800000000003 -6.999976666666668 0.9999266666666669
vertex -2.4999800000000003 -6.999976666666668 -2.4999800000000003
vertex -6.999976666666668 -6.999976666666668 -2.4999800000000003
endloop
endfacet
facet normal 0 0.9999999999999999 0
outer loop
vertex -2.4999800000000003 -6.999976666666668 0.9999266666666669
vertex -6.999976666666668 -6.999976666666668 -2.4999800000000003
vertex -6.999976666666668 -6.999976666666668 0.9999266666666669
endloop
endfacet
facet normal 0 0.9999999999999999 0
outer loop
vertex 6.999976666666668 -6.999976666666668 0.9999266666666669
vertex 6.999976666666668 -6.999976666666668 -2.4999800000000003
vertex 2.4999800000000003 -6.999976666666668 -2.4999800000000003
endloop
endfacet
facet normal 0 0.9999999999999999 0
outer loop
vertex 6.999976666666668 -6.999976666666668 0.9999266666666669
vertex 2.4999800000000003 -6.999976666666668 -2.4999800000000003
vertex 2.4999800000000003 -6.999976666666668 0.9999266666666669
endloop
endfacet
facet normal 0 -1 0
outer loop
vertex 0 6.999976666666668 1.4998900000000004
vertex -6.999976666666668 6.999976666666668 2.4999800000000003
vertex -6.999976666666668 6.999976666666668 0.9999266666666669
endloop
endfacet
facet normal 0 -1 0
outer loop
vertex 0 6.999976666666668 1.4998900000000004
vertex -6.999976666666668 6.999976666666668 0.9999266666666669
vertex -2.4999800000000003 6.999976666666668 0.9999266666666669
endloop
endfacet
facet normal 0 -1 0
outer loop
vertex 0 6.999976666666668 1.4998900000000004
vertex -2.4999800000000003 6.999976666666668 0.9999266666666669
vertex 2.4999800000000003 6.999976666666668 0.9999266666666669
endloop
endfacet
facet normal 0 -1 0
outer loop
vertex 0 6.999976666666668 1.4998900000000004
vertex 2.4999800000000003 6.999976666666668 0.9999266666666669
vertex 6.999976666666668 6.999976666666668 0.9999266666666669
endloop
endfacet
facet normal 0 -1 0
outer loop
vertex 0 6.999976666666668 1.4998900000000004
vertex 6.999976666666668 6.999976666666668 0.9999266666666669
vertex 6.999976666666668 6.999976666666668 2.4999800000000003
endloop
endfacet
facet normal 0 -1 0
outer loop
vertex 0 6.999976666666668 1.4998900000000004
vertex 6.999976666666668 6.999976666666668 2.4999800000000003
vertex -6.999976666666668 6.999976666666668 2.4999800000000003
endloop
endfacet
facet normal 0 -0.9999999999999999 0
outer loop
vertex 2.4999800000000003 6.999976666666668 0.9999266666666669
vertex 2.4999800000000003 6.999976666666668 -2.4999800000000003
vertex 6.999976666666668 6.999976666666668 -2.4999800000000003
endloop
endfacet
facet normal 0 -0.9999999999999999 0
outer loop
vertex 2.4999800000000003 6.999976666666668 0.9999266666666669
vertex 6.999976666666668 6.999976666666668 -2.4999800000000003
vertex 6.999976666666668 6.999976666666668 0.9999266666666669
endloop
endfacet
facet normal 0 -0.9999999999999999 0
outer loop
vertex -6.999976666666668 6.999976666666668 0.9999266666666669
vertex -6.999976666666668 6.999976666666668 -2.4999800000000003
vertex -2.4999800000000003 6.999976666666668 -2.4999800000000003
endloop
endfacet
facet normal 0 -0.9999999999999999 0
outer loop
vertex -6.999976666666668 6.999976666666668 0.9999266666666669
vertex -2.4999800000000003 6.999976666666668 -2.4999800000000003
vertex -2.4999800000000003 6.999976666666668 0.9999266666666669
endloop
endfacet
facet normal 0 -1 0
outer loop
vertex 2.4999800000000003 7.750003333333335 -2.4999800000000003
vertex 2.4999800000000003 7.750003333333335 0.9999266666666669
vertex -2.4999800000000003 7.750003333333335 0.9999266666666669
endloop
endfacet
facet normal 0 -1 0
outer loop
vertex 2.4999800000000003 7.750003333333335 -2.4999800000000003
vertex -2.4999800000000003 7.750003333333335 0.9999266666666669
vertex -2.4999800000000003 7.750003333333335 -2.4999800000000003
endloop
endfacet
facet normal 0 1 0
outer loop
vertex -2.4999800000000003 -7.750003333333335 0.9999266666666669
vertex 2.4999800000000003 -7.750003333333335 0.9999266666666669
vertex 2.4999800000000003 -7.750003333333335 -2.4999800000000003
endloop
endfacet
facet normal 0 1 0
outer loop
vertex -2.4999800000000003 -7.750003333333335 0.9999266666666669
vertex 2.4999800000000003 -7.750003333333335 -2.4999800000000003
vertex -2.4999800000000003 -7.750003333333335 -2.4999800000000003
endloop
endfacet
facet normal 1 0 0
outer loop
vertex -2.4999800000000003 6.999976666666668 0.9999266666666669
vertex -2.4999800000000003 6.999976666666668 -2.4999800000000003
vertex -2.4999800000000003 7.750003333333335 -2.4999800000000003
endloop
endfacet
facet normal 1 0 0
outer loop
vertex -2.4999800000000003 6.999976666666668 0.9999266666666669
vertex -2.4999800000000003 7.750003333333335 -2.4999800000000003
vertex -2.4999800000000003 7.750003333333335 0.9999266666666669
endloop
endfacet
facet normal 1 0 0
outer loop
vertex -2.4999800000000003 -7.750003333333335 0.9999266666666669
vertex -2.4999800000000003 -7.750003333333335 -2.4999800000000003
vertex -2.4999800000000003 -6.999976666666668 -2.4999800000000003
endloop
endfacet
facet normal 1 0 0
outer loop
vertex -2.4999800000000003 -7.750003333333335 0.9999266666666669
vertex -2.4999800000000003 -6.999976666666668 -2.4999800000000003
vertex -2.4999800000000003 -6.999976666666668 0.9999266666666669
endloop
endfacet
facet normal -1 0 0
outer loop
vertex 2.4999800000000003 -6.999976666666668 0.9999266666666669
vertex 2.4999800000000003 -6.999976666666668 -2.4999800000000003
vertex 2.4999800000000003 -7.750003333333335 -2.4999800000000003
endloop
endfacet
facet normal -1 0 0
outer loop
vertex 2.4999800000000003 -6.999976666666668 0.9999266666666669
vertex 2.4999800000000003 -7.750003333333335 -2.4999800000000003
vertex 2.4999800000000003 -7.750003333333335 0.9999266666666669
endloop
endfacet
facet normal -1 0 0
outer loop
vertex 2.4999800000000003 7.750003333333335 0.9999266666666669
vertex 2.4999800000000003 7.750003333333335 -2.4999800000000003
vertex 2.4999800000000003 6.999976666666668 -2.4999800000000003
endloop
endfacet
facet normal -1 0 0
outer loop
vertex 2.4999800000000003 7.750003333333335 0.9999266666666669
vertex 2.4999800000000003 6.999976666666668 -2.4999800000000003
vertex 2.4999800000000003 6.999976666666668 0.9999266666666669
endloop
endfacet
facet normal 0 0 -0.9999999999999999
outer loop
vertex 2.4999800000000003 7.750003333333335 0.9999266666666669
vertex 2.4999800000000003 6.999976666666668 0.9999266666666669
vertex -2.4999800000000003 6.999976666666668 0.9999266666666669
endloop
endfacet
facet normal 0 0 -0.9999999999999999
outer loop
vertex 2.4999800000000003 7.750003333333335 0.9999266666666669
vertex -2.4999800000000003 6.999976666666668 0.9999266666666669
vertex -2.4999800000000003 7.750003333333335 0.9999266666666669
endloop
endfacet
facet normal 0 0 -0.9999999999999999
outer loop
vertex 2.4999800000000003 -6.999976666666668 0.9999266666666669
vertex 2.4999800000000003 -7.750003333333335 0.9999266666666669
vertex -2.4999800000000003 -7.750003333333335 0.9999266666666669
endloop
endfacet
facet normal 0 0 -0.9999999999999999
outer loop
vertex 2.4999800000000003 -6.999976666666668 0.9999266666666669
vertex -2.4999800000000003 -7.750003333333335 0.9999266666666669
vertex -2.4999800000000003 -6.999976666666668 0.9999266666666669
endloop
endfacet
facet normal 0 0 1
outer loop
vertex -4.999960000000001 11.000010000000001 2.4999800000000003
vertex -4.999960000000001 8.999993333333334 2.4999800000000003
vertex -0.9999266666666669 8.999993333333334 2.4999800000000003
endloop
endfacet
facet normal 0 0 1
outer loop
vertex -4.999960000000001 11.000010000000001 2.4999800000000003
vertex -0.9999266666666669 8.999993333333334 2.4999800000000003
vertex -0.9999266666666669 11.000010000000001 2.4999800000000003
endloop
endfacet
facet normal 0 0 1
outer loop
vertex -0.7500266666666668 8.000066666666669 2.4999800000000003
vertex -0.9999266666666669 8.999993333333334 2.4999800000000003
vertex -4.999960000000001 8.999993333333334 2.4999800000000003
endloop
endfacet
facet normal 0 0 1
outer loop
vertex -0.7500266666666668 8.000066666666669 2.4999800000000003
vertex -4.999960000000001 8.999993333333334 2.4999800000000003
vertex -8.999993333333334 8.999993333333334 2.4999800000000003
endloop
endfacet
facet normal 0 0 1
outer loop
vertex -0.7500266666666668 8.000066666666669 2.4999800000000003
vertex -8.999993333333334 8.999993333333334 2.4999800000000003
vertex -8.999993333333334 6.999976666666668 2.4999800000000003
endloop
endfacet
facet normal 0 0 1
outer loop
vertex -0.7500266666666668 8.000066666666669 2.4999800000000003
vertex -8.999993333333334 6.999976666666668 2.4999800000000003
vertex -6.999976666666668 6.999976666666668 2.4999800000000003
endloop
endfacet
facet normal 0 0 1
outer loop
vertex -0.7500266666666668 8.000066666666669 2.4999800000000003
vertex -6.999976666666668 6.999976666666668 2.4999800000000003
vertex 6.999976666666668 6.999976666666668 2.4999800000000003
endloop
endfacet
facet normal 0 0 1
outer loop
vertex -0.7500266666666668 8.000066666666669 2.4999800000000003
vertex 6.999976666666668 6.999976666666668 2.4999800000000003
vertex 8.999993333333334 6.999976666666668 2.4999800000000003
endloop
endfacet
facet normal 0 0 1
outer loop
vertex -0.7500266666666668 8.000066666666669 2.4999800000000003
vertex 8.999993333333334 6.999976666666668 2.4999800000000003
vertex 8.999993333333334 8.999993333333334 2.4999800000000003
endloop
endfacet
facet normal 0 0 1
outer loop
vertex -0.7500266666666668 8.000066666666669 2.4999800000000003
vertex 8.999993333333334 8.999993333333334 2.4999800000000003
vertex -0.9999266666666669 8.999993333333334 2.4999800000000003
endloop
endfacet
facet normal 0 0 1
outer loop
vertex 6.999976666666668 6.999976666666668 2.4999800000000003
vertex 6.999976666666668 -6.999976666666668 2.4999800000000003
vertex 8.999993333333334 -6.999976666666668 2.4999800000000003
endloop
endfacet
facet normal 0 0 1
outer loop
vertex 6.999976666666668 6.999976666666668 2.4999800000000003
vertex 8.999993333333334 -6.999976666666668 2.4999800000000003
vertex 8.999993333333334 6.999976666666668 2.4999800000000003
endloop
endfacet
facet normal 0 0 1
outer loop
vertex -8.999993333333334 6.999976666666668 2.4999800000000003
vertex -8.999993333333334 -6.999976666666668 2.4999800000000003
vertex -6.999976666666668 -6.999976666666668 2.4999800000000003
endloop
endfacet
facet normal 0 0 1
outer loop
vertex -8.999993333333334 6.999976666666668 2.4999800000000003
vertex -6.999976666666668 -6.999976666666668 2.4999800000000003
vertex -6.999976666666668 6.999976666666668 2.4999800000000003
endloop
endfacet
facet normal 0 0 1
outer loop
vertex 0.7500266666666668 -7.999903333333335 2.4999800000000003
vertex 6.999976666666668 -6.999976666666668 2.4999800000000003
vertex -6.999976666666668 -6.999976666666668 2.4999800000000003
endloop
endfacet
facet normal 0 0 1
outer loop
vertex 0.7500266666666668 -7.999903333333335 2.4999800000000003
vertex -6.999976666666668 -6.999976666666668 2.4999800000000003
vertex -8.999993333333334 -6.999976666666668 2.4999800000000003
endloop
endfacet
facet normal 0 0 1
outer loop
vertex 0.7500266666666668 -7.999903333333335 2.4999800000000003
vertex -8.999993333333334 -6.999976666666668 2.4999800000000003
vertex -8.999993333333334 -8.999993333333334 2.4999800000000003
endloop
endfacet
facet normal 0 0 1
outer loop
vertex 0.7500266666666668 -7.999903333333335 2.4999800000000003
vertex -8.999993333333334 -8.999993333333334 2.4999800000000003
vertex 0.9999266666666669 -8.999993333333334 2.4999800000000003
endloop
endfacet
facet normal 0 0 1
outer loop
vertex 0.7500266666666668 -7.999903333333335 2.4999800000000003
vertex 0.9999266666666669 -8.999993333333334 2.4999800000000003
vertex 4.999960000000001 -8.999993333333334 2.4999800000000003
endloop
endfacet
facet normal 0 0 1
outer loop
vertex 0.7500266666666668 -7.999903333333335 2.4999800000000003
vertex 4.999960000000001 -8.999993333333334 2.4999800000000003
vertex 8.999993333333334 -8.999993333333334 2.4999800000000003
endloop
endfacet
facet normal 0 0 1
outer loop
vertex 0.7500266666666668 -7.999903333333335 2.4999800000000003
vertex 8.999993333333334 -8.999993333333334 2.4999800000000003
vertex 8.999993333333334 -6.999976666666668 2.4999800000000003
endloop
endfacet
facet normal 0 0 1
outer loop
vertex 0.7500266666666668 -7.999903333333335 2.4999800000000003
vertex 8.999993333333334 -6.999976666666668 2.4999800000000003
vertex 6.999976666666668 -6.999976666666668 2.4999800000000003
endloop
endfacet
facet normal 0 0 1
outer loop
vertex 0.9999266666666669 -8.999993333333334 2.4999800000000003
vertex 0.9999266666666669 -11.000010000000001 2.4999800000000003
vertex 4.999960000000001 -11.000010000000001 2.4999800000000003
endloop
endfacet
facet normal 0 0 1
outer loop
vertex 0.9999266666666669 -8.999993333333334 2.4999800000000003
vertex 4.999960000000001 -11.000010000000001 2.4999800000000003
vertex 4.999960000000001 -8.999993333333334 2.4999800000000003
endloop
endfacet
facet normal 0 0 -1
outer loop
vertex -0.9999266666666669 9.300036666666669 -2.4999800000000003
vertex -0.9999266666666669 8.999993333333334 -2.4999800000000003
vertex -4.999960000000001 8.999993333333334 -2.4999800000000003
endloop
endfacet
facet normal 0 0 -1
outer loop
vertex -0.9999266666666669 9.300036666666669 -2.4999800000000003
vertex -4.999960000000001 8.999993333333334 -2.4999800000000003
vertex -4.999960000000001 9.300036666666669 -2.4999800000000003
endloop
endfacet
facet normal 0 0 -1
outer loop
vertex -0.7500266666666668 8.374916666666667 -2.4999800000000003
vertex -4.999960000000001 8.999993333333334 -2.4999800000000003
vertex -0.9999266666666669 8.999993333333334 -2.4999800000000003
endloop
endfacet
facet normal 0 0 -1
outer loop
vertex -0.7500266666666668 8.374916666666667 -2.4999800000000003
vertex -0.9999266666666669 8.999993333333334 -2.4999800000000003
vertex 8.999993333333334 8.999993333333334 -2.4999800000000003
endloop
endfacet
facet normal 0 0 -1
outer loop
vertex -0.7500266666666668 8.374916666666667 -2.4999800000000003
vertex 8.999993333333334 8.999993333333334 -2.4999800000000003
vertex 8.999993333333334 7.750003333333335 -2.4999800000000003
endloop
endfacet
facet normal 0 0 -1
outer loop
vertex -0.7500266666666668 8.374916666666667 -2.4999800000000003
vertex 8.999993333333334 7.750003333333335 -2.4999800000000003
vertex 2.4999800000000003 7.750003333333335 -2.4999800000000003
endloop
endfacet
facet normal 0 0 -1
outer loop
vertex -0.7500266666666668 8.374916666666667 -2.4999800000000003
vertex 2.4999800000000003 7.750003333333335 -2.4999800000000003
vertex -2.4999800000000003 7.750003333333335 -2.4999800000000003
endloop
endfacet
facet normal 0 0 -1
outer loop
vertex -0.7500266666666668 8.374916666666667 -2.4999800000000003
vertex -2.4999800000000003 7.750003333333335 -2.4999800000000003
vertex -8.999993333333334 7.750003333333335 -2.4999800000000003
endloop
endfacet
facet normal 0 0 -0.9999999999999999
outer loop
vertex -0.7500266666666668 8.374916666666667 -2.4999800000000003
vertex -8.999993333333334 7.750003333333335 -2.4999800000000003
vertex -8.999993333333334 8.999993333333334 -2.4999800000000003
endloop
endfacet
facet normal 0 0 -1
outer loop
vertex -0.7500266666666668 8.374916666666667 -2.4999800000000003
vertex -8.999993333333334 8.999993333333334 -2.4999800000000003
vertex -4.999960000000001 8.999993333333334 -2.4999800000000003
endloop
endfacet
facet normal 0 0 -1
outer loop
vertex -6.000050000000001 7.300020000000002 -2.4999800000000003
vertex -2.4999800000000003 7.750003333333335 -2.4999800000000003
vertex -2.4999800000000003 6.999976666666668 -2.4999800000000003
endloop
endfacet
facet normal 0 0 -1
outer loop
vertex -6.000050000000001 7.300020000000002 -2.4999800000000003
vertex -2.4999800000000003 6.999976666666668 -2.4999800000000003
vertex -6.999976666666668 6.999976666666668 -2.4999800000000003
endloop
endfacet
facet normal 0 0 -1
outer loop
vertex -6.000050000000001 7.300020000000002 -2.4999800000000003
vertex -6.999976666666668 6.999976666666668 -2.4999800000000003
vertex -8.999993333333334 6.999976666666668 -2.4999800000000003
endloop
endfacet
facet normal 0 0 -1
outer loop
vertex -6.000050000000001 7.300020000000002 -2.4999800000000003
vertex -8.999993333333334 6.999976666666668 -2.4999800000000003
vertex -8.999993333333334 7.750003333333335 -2.4999800000000003
endloop
endfacet
facet normal 0 0 -1
outer loop
vertex -6.000050000000001 7.300020000000002 -2.4999800000000003
vertex -8.999993333333334 7.750003333333335 -2.4999800000000003
vertex -2.4999800000000003 7.750003333333335 -2.4999800000000003
endloop
endfacet
facet normal 0 0 -1
outer loop
vertex 6.000050000000001 7.300020000000002 -2.4999800000000003
vertex 8.999993333333334 7.750003333333335 -2.4999800000000003
vertex 8.999993333333334 6.999976666666668 -2.4999800000000003
endloop
endfacet
facet normal 0 0 -1
outer loop
vertex 6.000050000000001 7.300020000000002 -2.4999800000000003
vertex 8.999993333333334 6.999976666666668 -2.4999800000000003
vertex 6.999976666666668 6.999976666666668 -2.4999800000000003
endloop
endfacet
facet normal 0 0 -1
outer loop
vertex 6.000050000000001 7.300020000000002 -2.4999800000000003
vertex 6.999976666666668 6.999976666666668 -2.4999800000000003
vertex 2.4999800000000003 6.999976666666668 -2.4999800000000003
endloop
endfacet
facet normal 0 0 -1
outer loop
vertex 6.000050000000001 7.300020000000002 -2.4999800000000003
vertex 2.4999800000000003 6.999976666666668 -2.4999800000000003
vertex 2.4999800000000003 7.750003333333335 -2.4999800000000003
endloop
endfacet
facet normal 0 0 -1
outer loop
vertex 6.000050000000001 7.300020000000002 -2.4999800000000003
vertex 2.4999800000000003 7.750003333333335 -2.4999800000000003
vertex 8.999993333333334 7.750003333333335 -2.4999800000000003
endloop
endfacet
facet normal 0 0 -1
outer loop
vertex -6.999976666666668 6.999976666666668 -2.4999800000000003
vertex -6.999976666666668 -6.999976666666668 -2.4999800000000003
vertex -8.999993333333334 -6.999976666666668 -2.4999800000000003
endloop
endfacet
facet normal 0 0 -1
outer loop
vertex -6.999976666666668 6.999976666666668 -2.4999800000000003
vertex -8.999993333333334 -6.999976666666668 -2.4999800000000003
vertex -8.999993333333334 6.999976666666668 -2.4999800000000003
endloop
endfacet
facet normal 0 0 -1
outer loop
vertex 8.999993333333334 6.999976666666668 -2.4999800000000003
vertex 8.999993333333334 -6.999976666666668 -2.4999800000000003
vertex 6.999976666666668 -6.999976666666668 -2.4999800000000003
endloop
endfacet
facet normal 0 0 -1
outer loop
vertex 8.999993333333334 6.999976666666668 -2.4999800000000003
vertex 6.999976666666668 -6.999976666666668 -2.4999800000000003
vertex 6.999976666666668 6.999976666666668 -2.4999800000000003
endloop
endfacet
facet normal 0 0 -1
outer loop
vertex -6.000050000000001 -7.300020000000002 -2.4999800000000003
vertex -6.999976666666668 -6.999976666666668 -2.4999800000000003
vertex -2.4999800000000003 -6.999976666666668 -2.4999800000000003
endloop
endfacet
facet normal 0 0 -1
outer loop
vertex -6.000050000000001 -7.300020000000002 -2.4999800000000003
vertex -2.4999800000000003 -6.999976666666668 -2.4999800000000003
vertex -2.4999800000000003 -7.750003333333335 -2.4999800000000003
endloop
endfacet
facet normal 0 0 -1
outer loop
vertex -6.000050000000001 -7.300020000000002 -2.4999800000000003
vertex -2.4999800000000003 -7.750003333333335 -2.4999800000000003
vertex -8.999993333333334 -7.750003333333335 -2.4999800000000003
endloop
endfacet
facet normal 0 0 -1
outer loop
vertex -6.000050000000001 -7.300020000000002 -2.4999800000000003
vertex -8.999993333333334 -7.750003333333335 -2.4999800000000003
vertex -8.999993333333334 -6.999976666666668 -2.4999800000000003
endloop
endfacet
facet normal 0 0 -1
outer loop
vertex -6.000050000000001 -7.300020000000002 -2.4999800000000003
vertex -8.999993333333334 -6.999976666666668 -2.4999800000000003
vertex -6.999976666666668 -6.999976666666668 -2.4999800000000003
endloop
endfacet
facet normal 0 0 -1
outer loop
vertex 6.000050000000001 -7.300020000000002 -2.4999800000000003
vertex 6.999976666666668 -6.999976666666668 -2.4999800000000003
vertex 8.999993333333334 -6.999976666666668 -2.4999800000000003
endloop
endfacet
facet normal 0 0 -1
outer loop
vertex 6.000050000000001 -7.300020000000002 -2.4999800000000003
vertex 8.999993333333334 -6.999976666666668 -2.4999800000000003
vertex 8.999993333333334 -7.750003333333335 -2.4999800000000003
endloop
endfacet
facet normal 0 0 -1
outer loop
vertex 6.000050000000001 -7.300020000000002 -2.4999800000000003
vertex 8.999993333333334 -7.750003333333335 -2.4999800000000003
vertex 2.4999800000000003 -7.750003333333335 -2.4999800000000003
endloop
endfacet
facet normal 0 0 -1
outer loop
vertex 6.000050000000001 -7.300020000000002 -2.4999800000000003
vertex 2.4999800000000003 -7.750003333333335 -2.4999800000000003
vertex 2.4999800000000003 -6.999976666666668 -2.4999800000000003
endloop
endfacet
facet normal 0 0 -1
outer loop
vertex 6.000050000000001 -7.300020000000002 -2.4999800000000003
vertex 2.4999800000000003 -6.999976666666668 -2.4999800000000003
vertex 6.999976666666668 -6.999976666666668 -2.4999800000000003
endloop
endfacet
facet normal 0 0 -1
outer loop
vertex 0.7500266666666668 -8.375080000000002 -2.4999800000000003
vertex -2.4999800000000003 -7.750003333333335 -2.4999800000000003
vertex 2.4999800000000003 -7.750003333333335 -2.4999800000000003
endloop
endfacet
facet normal 0 0 -1
outer loop
vertex 0.7500266666666668 -8.375080000000002 -2.4999800000000003
vertex 2.4999800000000003 -7.750003333333335 -2.4999800000000003
vertex 8.999993333333334 -7.750003333333335 -2.4999800000000003
endloop
endfacet
facet normal 0 0 -0.9999999999999999
outer loop
vertex 0.7500266666666668 -8.375080000000002 -2.4999800000000003
vertex 8.999993333333334 -7.750003333333335 -2.4999800000000003
vertex 8.999993333333334 -8.999993333333334 -2.4999800000000003
endloop
endfacet
facet normal 0 0 -1
outer loop
vertex 0.7500266666666668 -8.375080000000002 -2.4999800000000003
vertex 8.999993333333334 -8.999993333333334 -2.4999800000000003
vertex 4.999960000000001 -8.999993333333334 -2.4999800000000003
endloop
endfacet
facet normal 0 0 -1
outer loop
vertex 0.7500266666666668 -8.375080000000002 -2.4999800000000003
vertex 4.999960000000001 -8.999993333333334 -2.4999800000000003
vertex 0.9999266666666669 -8.999993333333334 -2.4999800000000003
endloop
endfacet
facet normal 0 0 -1
outer loop
vertex 0.7500266666666668 -8.375080000000002 -2.4999800000000003
vertex 0.9999266666666669 -8.999993333333334 -2.4999800000000003
vertex -8.999993333333334 -8.999993333333334 -2.4999800000000003
endloop
endfacet
facet normal 0 0 -1
outer loop
vertex 0.7500266666666668 -8.375080000000002 -2.4999800000000003
vertex -8.999993333333334 -8.999993333333334 -2.4999800000000003
vertex -8.999993333333334 -7.750003333333335 -2.4999800000000003
endloop
endfacet
facet normal 0 0 -1
outer loop
vertex 0.7500266666666668 -8.375080000000002 -2.4999800000000003
vertex -8.999993333333334 -7.750003333333335 -2.4999800000000003
vertex -2.4999800000000003 -7.750003333333335 -2.4999800000000003
endloop
endfacet
facet normal 0 0 -1
outer loop
vertex 4.999960000000001 -8.999993333333334 -2.4999800000000003
vertex 4.999960000000001 -9.300036666666669 -2.4999800000000003
vertex 0.9999266666666669 -9.300036666666669 -2.4999800000000003
endloop
endfacet
facet normal 0 0 -1
outer loop
vertex 4.999960000000001 -8.999993333333334 -2.4999800000000003
vertex 0.9999266666666669 -9.300036666666669 -2.4999800000000003
vertex 0.9999266666666669 -8.999993333333334 -2.4999800000000003
endloop
endfacet
facet normal 0 1 0
outer loop
vertex -4.999960000000001 8.999993333333334 2.4999800000000003
vertex -4.999960000000001 8.999993333333334 -2.4999800000000003
vertex -8.999993333333334 8.999993333333334 -2.4999800000000003
endloop
endfacet
facet normal 0 1 0
outer loop
vertex -4.999960000000001 8.999993333333334 2.4999800000000003
vertex -8.999993333333334 8.999993333333334 -2.4999800000000003
vertex -8.999993333333334 8.999993333333334 2.4999800000000003
endloop
endfacet
facet normal 0 1 0
outer loop
vertex 8.999993333333334 8.999993333333334 2.4999800000000003
vertex 8.999993333333334 8.999993333333334 -2.4999800000000003
vertex -0.9999266666666669 8.999993333333334 -2.4999800000000003
endloop
endfacet
facet normal 0 1 0
outer loop
vertex 8.999993333333334 8.999993333333334 2.4999800000000003
vertex -0.9999266666666669 8.999993333333334 -2.4999800000000003
vertex -0.9999266666666669 8.999993333333334 2.4999800000000003
endloop
endfacet
facet normal 0 -1 0
outer loop
vertex 4.999960000000001 -8.999993333333334 2.4999800000000003
vertex 4.999960000000001 -8.999993333333334 -2.4999800000000003
vertex 8.999993333333334 -8.999993333333334 -2.4999800000000003
endloop
endfacet
facet normal 0 -1 0
outer loop
vertex 4.999960000000001 -8.999993333333334 2.4999800000000003
vertex 8.999993333333334 -8.999993333333334 -2.4999800000000003
vertex 8.999993333333334 -8.999993333333334 2.4999800000000003
endloop
endfacet
facet normal 0 -1 0
outer loop
vertex -8.999993333333334 -8.999993333333334 2.4999800000000003
vertex -8.999993333333334 -8.999993333333334 -2.4999800000000003
vertex 0.9999266666666669 -8.999993333333334 -2.4999800000000003
endloop
endfacet
facet normal 0 -1 0
outer loop
vertex -8.999993333333334 -8.999993333333334 2.4999800000000003
vertex 0.9999266666666669 -8.999993333333334 -2.4999800000000003
vertex 0.9999266666666669 -8.999993333333334 2.4999800000000003
endloop
endfacet
facet normal 0 1 0
outer loop
vertex -2.999943333333334 11.000010000000001 -2.750043333333334
vertex -4.999960000000001 11.000010000000001 -6.500013333333334
vertex -4.999960000000001 11.000010000000001 -4.499996666666667
endloop
endfacet
facet normal 0 1 0
outer loop
vertex -2.999943333333334 11.000010000000001 -2.750043333333334
vertex -4.999960000000001 11.000010000000001 -4.499996666666667
vertex -4.999960000000001 11.000010000000001 -2.4999800000000003
endloop
endfacet
facet normal 0 1 0
outer loop
vertex -2.999943333333334 11.000010000000001 -2.750043333333334
vertex -4.999960000000001 11.000010000000001 -2.4999800000000003
vertex -4.999960000000001 11.000010000000001 2.4999800000000003
endloop
endfacet
facet normal 0 1 0
outer loop
vertex -2.999943333333334 11.000010000000001 -2.750043333333334
vertex -4.999960000000001 11.000010000000001 2.4999800000000003
vertex -0.9999266666666669 11.000010000000001 2.4999800000000003
endloop
endfacet
facet normal 0 0.9999999999999999 0
outer loop
vertex -2.999943333333334 11.000010000000001 -2.750043333333334
vertex -0.9999266666666669 11.000010000000001 2.4999800000000003
vertex -0.9999266666666669 11.000010000000001 -2.4999800000000003
endloop
endfacet
facet normal 0 1 0
outer loop
vertex -2.999943333333334 11.000010000000001 -2.750043333333334
vertex -0.9999266666666669 11.000010000000001 -2.4999800000000003
vertex -0.9999266666666669 11.000010000000001 -4.499996666666667
endloop
endfacet
facet normal 0 1 0
outer loop
vertex -2.999943333333334 11.000010000000001 -2.750043333333334
vertex -0.9999266666666669 11.000010000000001 -4.499996666666667
vertex -0.9999266666666669 11.000010000000001 -6.500013333333334
endloop
endfacet
facet normal 0 1 0
outer loop
vertex -2.999943333333334 11.000010000000001 -2.750043333333334
vertex -0.9999266666666669 11.000010000000001 -6.500013333333334
vertex -4.999960000000001 11.000010000000001 -6.500013333333334
endloop
endfacet
facet normal 0 0 -0.9999999999999999
outer loop
vertex -0.9999266666666669 11.000010000000001 -6.500013333333334
vertex -0.9999266666666669 7.499940000000001 -6.500013333333334
vertex -4.999960000000001 7.499940000000001 -6.500013333333334
endloop
endfacet
facet normal 0 0 -0.9999999999999999
outer loop
vertex -0.9999266666666669 11.000010000000001 -6.500013333333334
vertex -4.999960000000001 7.499940000000001 -6.500013333333334
vertex -4.999960000000001 11.000010000000001 -6.500013333333334
endloop
endfacet
facet normal 0 0 -0.9999999999999999
outer loop
vertex 4.999960000000001 -7.499940000000001 -6.500013333333334
vertex 4.999960000000001 -11.000010000000001 -6.500013333333334
vertex 0.9999266666666669 -11.000010000000001 -6.500013333333334
endloop
endfacet
facet normal 0 0 -0.9999999999999999
outer loop
vertex 4.999960000000001 -7.499940000000001 -6.500013333333334
vertex 0.9999266666666669 -11.000010000000001 -6.500013333333334
vertex 0.9999266666666669 -7.499940000000001 -6.500013333333334
endloop
endfacet
facet normal 0 -1 0
outer loop
vertex -0.9999266666666669 9.300036666666669 -4.499996666666667
vertex -0.9999266666666669 9.300036666666669 -2.4999800000000003
vertex -4.999960000000001 9.300036666666669 -2.4999800000000003
endloop
endfacet
facet normal 0 -1 0
outer loop
vertex -0.9999266666666669 9.300036666666669 -4.499996666666667
vertex -4.999960000000001 9.300036666666669 -2.4999800000000003
vertex -4.999960000000001 9.300036666666669 -4.499996666666667
endloop
endfacet
facet normal 0 0 1
outer loop
vertex -4.999960000000001 9.300036666666669 -4.499996666666667
vertex -4.999960000000001 8.982026666666668 -4.499996666666667
vertex -0.9999266666666669 8.982026666666668 -4.499996666666667
endloop
endfacet
facet normal 0 0 1
outer loop
vertex -4.999960000000001 9.300036666666669 -4.499996666666667
vertex -0.9999266666666669 8.982026666666668 -4.499996666666667
vertex -0.9999266666666669 9.300036666666669 -4.499996666666667
endloop
endfacet
facet normal 0 0 1
outer loop
vertex 0.9999266666666669 -8.982026666666668 -4.499996666666667
vertex 0.9999266666666669 -9.300036666666669 -4.499996666666667
vertex 4.999960000000001 -9.300036666666669 -4.499996666666667
endloop
endfacet
facet normal 0 0 1
outer loop
vertex 0.9999266666666669 -8.982026666666668 -4.499996666666667
vertex 4.999960000000001 -9.300036666666669 -4.499996666666667
vertex 4.999960000000001 -8.982026666666668 -4.499996666666667
endloop
endfacet
facet normal -1 0 0
outer loop
vertex -4.999960000000001 9.859943333333336 -0.4999633333333334
vertex -4.999960000000001 11.000010000000001 2.4999800000000003
vertex -4.999960000000001 11.000010000000001 -2.4999800000000003
endloop
endfacet
facet normal -1 0 0
outer loop
vertex -4.999960000000001 9.859943333333336 -0.4999633333333334
vertex -4.999960000000001 11.000010000000001 -2.4999800000000003
vertex -4.999960000000001 9.300036666666669 -2.4999800000000003
endloop
endfacet
facet normal -1 0 0
outer loop
vertex -4.999960000000001 9.859943333333336 -0.4999633333333334
vertex -4.999960000000001 9.300036666666669 -2.4999800000000003
vertex -4.999960000000001 8.999993333333334 -2.4999800000000003
endloop
endfacet
facet normal -1 0 0
outer loop
vertex -4.999960000000001 9.859943333333336 -0.4999633333333334
vertex -4.999960000000001 8.999993333333334 -2.4999800000000003
vertex -4.999960000000001 8.999993333333334 2.4999800000000003
endloop
endfacet
facet normal -1 0 0
outer loop
vertex -4.999960000000001 9.859943333333336 -0.4999633333333334
vertex -4.999960000000001 8.999993333333334 2.4999800000000003
vertex -4.999960000000001 11.000010000000001 2.4999800000000003
endloop
endfacet
facet normal -1 0 0
outer loop
vertex -4.999960000000001 11.000010000000001 -2.4999800000000003
vertex -4.999960000000001 11.000010000000001 -4.499996666666667
vertex -4.999960000000001 9.300036666666669 -4.499996666666667
endloop
endfacet
facet normal -1 0 0
outer loop
vertex -4.999960000000001 11.000010000000001 -2.4999800000000003
vertex -4.999960000000001 9.300036666666669 -4.499996666666667
vertex -4.999960000000001 9.300036666666669 -2.4999800000000003
endloop
endfacet
facet normal -1 0 0
outer loop
vertex -4.999960000000001 9.213633333333336 -5.309313333333335
vertex -4.999960000000001 9.300036666666669 -4.499996666666667
vertex -4.999960000000001 11.000010000000001 -4.499996666666667
endloop
endfacet
facet normal -1 0 0
outer loop
vertex -4.999960000000001 9.213633333333336 -5.309313333333335
vertex -4.999960000000001 11.000010000000001 -4.499996666666667
vertex -4.999960000000001 11.000010000000001 -6.500013333333334
endloop
endfacet
facet normal -1 0 0
outer loop
vertex -4.999960000000001 9.213633333333336 -5.309313333333335
vertex -4.999960000000001 11.000010000000001 -6.500013333333334
vertex -4.999960000000001 7.499940000000001 -6.500013333333334
endloop
endfacet
facet normal -0.9999999999999999 0 0
outer loop
vertex -4.999960000000001 9.213633333333336 -5.309313333333335
vertex -4.999960000000001 7.499940000000001 -6.500013333333334
vertex -4.999960000000001 7.499940000000001 -5.355700000000001
endloop
endfacet
facet normal -1 0 0
outer loop
vertex -4.999960000000001 9.213633333333336 -5.309313333333335
vertex -4.999960000000001 7.499940000000001 -5.355700000000001
vertex -4.999960000000001 8.982026666666668 -4.499996666666667
endloop
endfacet
facet normal -1 0 0
outer loop
vertex -4.999960000000001 9.213633333333336 -5.309313333333335
vertex -4.999960000000001 8.982026666666668 -4.499996666666667
vertex -4.999960000000001 9.300036666666669 -4.499996666666667
endloop
endfacet
facet normal 1 0 0
outer loop
vertex -0.9999266666666669 9.859943333333336 -0.4999633333333334
vertex -0.9999266666666669 8.999993333333334 2.4999800000000003
vertex -0.9999266666666669 8.999993333333334 -2.4999800000000003
endloop
endfacet
facet normal 1 0 0
outer loop
vertex -0.9999266666666669 9.859943333333336 -0.4999633333333334
vertex -0.9999266666666669 8.999993333333334 -2.4999800000000003
vertex -0.9999266666666669 9.300036666666669 -2.4999800000000003
endloop
endfacet
facet normal 1 0 0
outer loop
vertex -0.9999266666666669 9.859943333333336 -0.4999633333333334
vertex -0.9999266666666669 9.300036666666669 -2.4999800000000003
vertex -0.9999266666666669 11.000010000000001 -2.4999800000000003
endloop
endfacet
facet normal 1 0 0
outer loop
vertex -0.9999266666666669 9.859943333333336 -0.4999633333333334
vertex -0.9999266666666669 11.000010000000001 -2.4999800000000003
vertex -0.9999266666666669 11.000010000000001 2.4999800000000003
endloop
endfacet
facet normal 1 0 0
outer loop
vertex -0.9999266666666669 9.859943333333336 -0.4999633333333334
vertex -0.9999266666666669 11.000010000000001 2.4999800000000003
vertex -0.9999266666666669 8.999993333333334 2.4999800000000003
endloop
endfacet
facet normal 1 0 0
outer loop
vertex -0.9999266666666669 9.300036666666669 -2.4999800000000003
vertex -0.9999266666666669 9.300036666666669 -4.499996666666667
vertex -0.9999266666666669 11.000010000000001 -4.499996666666667
endloop
endfacet
facet normal 1 0 0
outer loop
vertex -0.9999266666666669 9.300036666666669 -2.4999800000000003
vertex -0.9999266666666669 11.000010000000001 -4.499996666666667
vertex -0.9999266666666669 11.000010000000001 -2.4999800000000003
endloop
endfacet
facet normal 1 0 0
outer loop
vertex -0.9999266666666669 9.213633333333336 -5.309313333333335
vertex -0.9999266666666669 9.300036666666669 -4.499996666666667
vertex -0.9999266666666669 8.982026666666668 -4.499996666666667
endloop
endfacet
facet normal 1 0 0
outer loop
vertex -0.9999266666666669 9.213633333333336 -5.309313333333335
vertex -0.9999266666666669 8.982026666666668 -4.499996666666667
vertex -0.9999266666666669 7.499940000000001 -5.355700000000001
endloop
endfacet
facet normal 0.9999999999999999 0 0
outer loop
vertex -0.9999266666666669 9.213633333333336 -5.309313333333335
vertex -0.9999266666666669 7.499940000000001 -5.355700000000001
vertex -0.9999266666666669 7.499940000000001 -6.500013333333334
endloop
endfacet
facet normal 1 0 0
outer loop
vertex -0.9999266666666669 9.213633333333336 -5.309313333333335
vertex -0.9999266666666669 7.499940000000001 -6.500013333333334
vertex -0.9999266666666669 11.000010000000001 -6.500013333333334
endloop
endfacet
facet normal 1 0 0
outer loop
vertex -0.9999266666666669 9.213633333333336 -5.309313333333335
vertex -0.9999266666666669 11.000010000000001 -6.500013333333334
vertex -0.9999266666666669 11.000010000000001 -4.499996666666667
endloop
endfacet
facet normal 1 0 0
outer loop
vertex -0.9999266666666669 9.213633333333336 -5.309313333333335
vertex -0.9999266666666669 11.000010000000001 -4.499996666666667
vertex -0.9999266666666669 9.300036666666669 -4.499996666666667
endloop
endfacet
facet normal 0 -0.5000088513455015 0.8660202933974194
outer loop
vertex -0.9999266666666669 7.499940000000001 -5.355700000000001
vertex -0.9999266666666669 8.982026666666668 -4.499996666666667
vertex -4.999960000000001 8.982026666666668 -4.499996666666667
endloop
endfacet
facet normal 0 -0.5000088513455015 0.8660202933974194
outer loop
vertex -0.9999266666666669 7.499940000000001 -5.355700000000001
vertex -4.999960000000001 8.982026666666668 -4.499996666666667
vertex -4.999960000000001 7.499940000000001 -5.355700000000001
endloop
endfacet
facet normal 0 -1 0
outer loop
vertex -4.999960000000001 7.499940000000001 -5.355700000000001
vertex -4.999960000000001 7.499940000000001 -6.500013333333334
vertex -0.9999266666666669 7.499940000000001 -6.500013333333334
endloop
endfacet
facet normal 0 -1 0
outer loop
vertex -4.999960000000001 7.499940000000001 -5.355700000000001
vertex -0.9999266666666669 7.499940000000001 -6.500013333333334
vertex -0.9999266666666669 7.499940000000001 -5.355700000000001
endloop
endfacet
facet normal 0 -1 0
outer loop
vertex 2.999943333333334 -11.000010000000001 -2.750043333333334
vertex 4.999960000000001 -11.000010000000001 -6.500013333333334
vertex 4.999960000000001 -11.000010000000001 -4.499996666666667
endloop
endfacet
facet normal 0 -1 0
outer loop
vertex 2.999943333333334 -11.000010000000001 -2.750043333333334
vertex 4.999960000000001 -11.000010000000001 -4.499996666666667
vertex 4.999960000000001 -11.000010000000001 -2.4999800000000003
endloop
endfacet
facet normal 0 -1 0
outer loop
vertex 2.999943333333334 -11.000010000000001 -2.750043333333334
vertex 4.999960000000001 -11.000010000000001 -2.4999800000000003
vertex 4.999960000000001 -11.000010000000001 2.4999800000000003
endloop
endfacet
facet normal 0 -1 0
outer loop
vertex 2.999943333333334 -11.000010000000001 -2.750043333333334
vertex 4.999960000000001 -11.000010000000001 2.4999800000000003
vertex 0.9999266666666669 -11.000010000000001 2.4999800000000003
endloop
endfacet
facet normal 0 -0.9999999999999999 0
outer loop
vertex 2.999943333333334 -11.000010000000001 -2.750043333333334
vertex 0.9999266666666669 -11.000010000000001 2.4999800000000003
vertex 0.9999266666666669 -11.000010000000001 -2.4999800000000003
endloop
endfacet
facet normal 0 -1 0
outer loop
vertex 2.999943333333334 -11.000010000000001 -2.750043333333334
vertex 0.9999266666666669 -11.000010000000001 -2.4999800000000003
vertex 0.9999266666666669 -11.000010000000001 -4.499996666666667
endloop
endfacet
facet normal 0 -1 0
outer loop
vertex 2.999943333333334 -11.000010000000001 -2.750043333333334
vertex 0.9999266666666669 -11.000010000000001 -4.499996666666667
vertex 0.9999266666666669 -11.000010000000001 -6.500013333333334
endloop
endfacet
facet normal 0 -1 0
outer loop
vertex 2.999943333333334 -11.000010000000001 -2.750043333333334
vertex 0.9999266666666669 -11.000010000000001 -6.500013333333334
vertex 4.999960000000001 -11.000010000000001 -6.500013333333334
endloop
endfacet
facet normal 0 1 0
outer loop
vertex 0.9999266666666669 -9.300036666666669 -4.499996666666667
vertex 0.9999266666666669 -9.300036666666669 -2.4999800000000003
vertex 4.999960000000001 -9.300036666666669 -2.4999800000000003
endloop
endfacet
facet normal 0 1 0
outer loop
vertex 0.9999266666666669 -9.300036666666669 -4.499996666666667
vertex 4.999960000000001 -9.300036666666669 -2.4999800000000003
vertex 4.999960000000001 -9.300036666666669 -4.499996666666667
endloop
endfacet
facet normal 1 0 0
outer loop
vertex 4.999960000000001 -9.859943333333336 -0.4999633333333334
vertex 4.999960000000001 -11.000010000000001 2.4999800000000003
vertex 4.999960000000001 -11.000010000000001 -2.4999800000000003
endloop
endfacet
facet normal 1 0 0
outer loop
vertex 4.999960000000001 -9.859943333333336 -0.4999633333333334
vertex 4.999960000000001 -11.000010000000001 -2.4999800000000003
vertex 4.999960000000001 -9.300036666666669 -2.4999800000000003
endloop
endfacet
facet normal 1 0 0
outer loop
vertex 4.999960000000001 -9.859943333333336 -0.4999633333333334
vertex 4.999960000000001 -9.300036666666669 -2.4999800000000003
vertex 4.999960000000001 -8.999993333333334 -2.4999800000000003
endloop
endfacet
facet normal 1 0 0
outer loop
vertex 4.999960000000001 -9.859943333333336 -0.4999633333333334
vertex 4.999960000000001 -8.999993333333334 -2.4999800000000003
vertex 4.999960000000001 -8.999993333333334 2.4999800000000003
endloop
endfacet
facet normal 1 0 0
outer loop
vertex 4.999960000000001 -9.859943333333336 -0.4999633333333334
vertex 4.999960000000001 -8.999993333333334 2.4999800000000003
vertex 4.999960000000001 -11.000010000000001 2.4999800000000003
endloop
endfacet
facet normal 1 0 0
outer loop
vertex 4.999960000000001 -11.000010000000001 -2.4999800000000003
vertex 4.999960000000001 -11.000010000000001 -4.499996666666667
vertex 4.999960000000001 -9.300036666666669 -4.499996666666667
endloop
endfacet
facet normal 1 0 0
outer loop
vertex 4.999960000000001 -11.000010000000001 -2.4999800000000003
vertex 4.999960000000001 -9.300036666666669 -4.499996666666667
vertex 4.999960000000001 -9.300036666666669 -2.4999800000000003
endloop
endfacet
facet normal 1 0 0
outer loop
vertex 4.999960000000001 -9.213633333333336 -5.309313333333335
vertex 4.999960000000001 -9.300036666666669 -4.499996666666667
vertex 4.999960000000001 -11.000010000000001 -4.499996666666667
endloop
endfacet
facet normal 1 0 0
outer loop
vertex 4.999960000000001 -9.213633333333336 -5.309313333333335
vertex 4.999960000000001 -11.000010000000001 -4.499996666666667
vertex 4.999960000000001 -11.000010000000001 -6.500013333333334
endloop
endfacet
facet normal 1 0 0
outer loop
vertex 4.999960000000001 -9.213633333333336 -5.309313333333335
vertex 4.999960000000001 -11.000010000000001 -6.500013333333334
vertex 4.999960000000001 -7.499940000000001 -6.500013333333334
endloop
endfacet
facet normal 0.9999999999999999 0 0
outer loop
vertex 4.999960000000001 -9.213633333333336 -5.309313333333335
vertex 4.999960000000001 -7.499940000000001 -6.500013333333334
vertex 4.999960000000001 -7.499940000000001 -5.355700000000001
endloop
endfacet
facet normal 1 0 0
outer loop
vertex 4.999960000000001 -9.213633333333336 -5.309313333333335
vertex 4.999960000000001 -7.499940000000001 -5.355700000000001
vertex 4.999960000000001 -8.982026666666668 -4.499996666666667
endloop
endfacet
facet normal 1 0 0
outer loop
vertex 4.999960000000001 -9.213633333333336 -5.309313333333335
vertex 4.999960000000001 -8.982026666666668 -4.499996666666667
vertex 4.999960000000001 -9.300036666666669 -4.499996666666667
endloop
endfacet
facet normal -1 0 0
outer loop
vertex 0.9999266666666669 -9.859943333333336 -0.4999633333333334
vertex 0.9999266666666669 -8.999993333333334 2.4999800000000003
vertex 0.9999266666666669 -8.999993333333334 -2.4999800000000003
endloop
endfacet
facet normal -1 0 0
outer loop
vertex 0.9999266666666669 -9.859943333333336 -0.4999633333333334
vertex 0.9999266666666669 -8.999993333333334 -2.4999800000000003
vertex 0.9999266666666669 -9.300036666666669 -2.4999800000000003
endloop
endfacet
facet normal -1 0 0
outer loop
vertex 0.9999266666666669 -9.859943333333336 -0.4999633333333334
vertex 0.9999266666666669 -9.300036666666669 -2.4999800000000003
vertex 0.9999266666666669 -11.000010000000001 -2.4999800000000003
endloop
endfacet
facet normal -1 0 0
outer loop
vertex 0.9999266666666669 -9.859943333333336 -0.4999633333333334
vertex 0.9999266666666669 -11.000010000000001 -2.4999800000000003
vertex 0.9999266666666669 -11.000010000000001 2.4999800000000003
endloop
endfacet
facet normal -1 0 0
outer loop
vertex 0.9999266666666669 -9.859943333333336 -0.4999633333333334
vertex 0.9999266666666669 -11.000010000000001 2.4999800000000003
vertex 0.9999266666666669 -8.999993333333334 2.4999800000000003
endloop
endfacet
facet normal -1 0 0
outer loop
vertex 0.9999266666666669 -9.300036666666669 -2.4999800000000003
vertex 0.9999266666666669 -9.300036666666669 -4.499996666666667
vertex 0.9999266666666669 -11.000010000000001 -4.499996666666667
endloop
endfacet
facet normal -1 0 0
outer loop
vertex 0.9999266666666669 -9.300036666666669 -2.4999800000000003
vertex 0.9999266666666669 -11.000010000000001 -4.499996666666667
vertex 0.9999266666666669 -11.000010000000001 -2.4999800000000003
endloop
endfacet
facet normal -1 0 0
outer loop
vertex 0.9999266666666669 -9.213633333333336 -5.309313333333335
vertex 0.9999266666666669 -9.300036666666669 -4.499996666666667
vertex 0.9999266666666669 -8.982026666666668 -4.499996666666667
endloop
endfacet
facet normal -1 0 0
outer loop
vertex 0.9999266666666669 -9.213633333333336 -5.309313333333335
vertex 0.9999266666666669 -8.982026666666668 -4.499996666666667
vertex 0.9999266666666669 -7.499940000000001 -5.355700000000001
endloop
endfacet
facet normal -0.9999999999999999 0 0
outer loop
vertex 0.9999266666666669 -9.213633333333336 -5.309313333333335
vertex 0.9999266666666669 -7.499940000000001 -5.355700000000001
vertex 0.9999266666666669 -7.499940000000001 -6.500013333333334
endloop
endfacet
facet normal -1 0 0
outer loop
vertex 0.9999266666666669 -9.213633333333336 -5.309313333333335
vertex 0.9999266666666669 -7.499940000000001 -6.500013333333334
vertex 0.9999266666666669 -11.000010000000001 -6.500013333333334
endloop
endfacet
facet normal -1 0 0
outer loop
vertex 0.9999266666666669 -9.213633333333336 -5.309313333333335
vertex 0.9999266666666669 -11.000010000000001 -6.500013333333334
vertex 0.9999266666666669 -11.000010000000001 -4.499996666666667
endloop
endfacet
facet normal -1 0 0
outer loop
vertex 0.9999266666666669 -9.213633333333336 -5.309313333333335
vertex 0.9999266666666669 -11.000010000000001 -4.499996666666667
vertex 0.9999266666666669 -9.300036666666669 -4.499996666666667
endloop
endfacet
facet normal 0 0.5000088513455015 0.8660202933974194
outer loop
vertex 0.9999266666666669 -7.499940000000001 -5.355700000000001
vertex 0.9999266666666669 -8.982026666666668 -4.499996666666667
vertex 4.999960000000001 -8.982026666666668 -4.499996666666667
endloop
endfacet
facet normal 0 0.5000088513455015 0.8660202933974194
outer loop
vertex 0.9999266666666669 -7.499940000000001 -5.355700000000001
vertex 4.999960000000001 -8.982026666666668 -4.499996666666667
vertex 4.999960000000001 -7.499940000000001 -5.355700000000001
endloop
endfacet
facet normal 0 1 0
outer loop
vertex 4.999960000000001 -7.499940000000001 -5.355700000000001
vertex 4.999960000000001 -7.499940000000001 -6.500013333333334
vertex 0.9999266666666669 -7.499940000000001 -6.500013333333334
endloop
endfacet
facet normal 0 1 0
outer loop
vertex 4.999960000000001 -7.499940000000001 -5.355700000000001
vertex 0.9999266666666669 -7.499940000000001 -6.500013333333334
vertex 0.9999266666666669 -7.499940000000001 -5.355700000000001
endloop
endfacet
endsolid JSCAD
