solid JSCAD
facet normal -1 0 0
outer loop
vertex -9.699916666666667 -26.000083333333336 -2.07145
vertex -9.699916666666667 -24.000033333333334 -0.9998833333333335
vertex -9.699916666666667 -24.000033333333334 -2.5001333333333333
endloop
endfacet
facet normal -1 0 0
outer loop
vertex -9.699916666666667 -26.000083333333336 -2.07145
vertex -9.699916666666667 -24.000033333333334 -2.5001333333333333
vertex -9.699916666666667 -24.701 -2.5001333333333333
endloop
endfacet
facet normal -1 0 0
outer loop
vertex -9.699916666666667 -26.000083333333336 -2.07145
vertex -9.699916666666667 -24.701 -2.5001333333333333
vertex -9.699916666666667 -26.000083333333336 -2.5001333333333333
endloop
endfacet
facet normal -0.9999999999999999 0 0
outer loop
vertex -9.699916666666667 -26.000083333333336 -2.07145
vertex -9.699916666666667 -26.000083333333336 -2.5001333333333333
vertex -9.699916666666667 -27.299166666666668 -2.5001333333333333
endloop
endfacet
facet normal -1 0 0
outer loop
vertex -9.699916666666667 -26.000083333333336 -2.07145
vertex -9.699916666666667 -27.299166666666668 -2.5001333333333333
vertex -9.699916666666667 -28.000133333333334 -2.5001333333333333
endloop
endfacet
facet normal -1 0 0
outer loop
vertex -9.699916666666667 -26.000083333333336 -2.07145
vertex -9.699916666666667 -28.000133333333334 -2.5001333333333333
vertex -9.699916666666667 -28.000133333333334 -0.9998833333333335
endloop
endfacet
facet normal -1 0 0
outer loop
vertex -9.699916666666667 -26.000083333333336 -2.07145
vertex -9.699916666666667 -28.000133333333334 -0.9998833333333335
vertex -9.699916666666667 -24.000033333333334 -0.9998833333333335
endloop
endfacet
facet normal -0.9999999999999999 0 0
outer loop
vertex -9.699916666666667 -9.5999 -2.07145
vertex -9.699916666666667 -7.600133333333334 -0.9998833333333335
vertex -9.699916666666667 -7.600133333333334 -2.5001333333333333
endloop
endfacet
facet normal -1 0 0
outer loop
vertex -9.699916666666667 -9.5999 -2.07145
vertex -9.699916666666667 -7.600133333333334 -2.5001333333333333
vertex -9.699916666666667 -8.3011 -2.5001333333333333
endloop
endfacet
facet normal -1 0 0
outer loop
vertex -9.699916666666667 -9.5999 -2.07145
vertex -9.699916666666667 -8.3011 -2.5001333333333333
vertex -9.699916666666667 -9.5999 -2.5001333333333333
endloop
endfacet
facet normal -1 0 0
outer loop
vertex -9.699916666666667 -9.5999 -2.07145
vertex -9.699916666666667 -9.5999 -2.5001333333333333
vertex -9.699916666666667 -10.898983333333334 -2.5001333333333333
endloop
endfacet
facet normal -1 0 0
outer loop
vertex -9.699916666666667 -9.5999 -2.07145
vertex -9.699916666666667 -10.898983333333334 -2.5001333333333333
vertex -9.699916666666667 -11.599950000000002 -2.5001333333333333
endloop
endfacet
facet normal -1 0 0
outer loop
vertex -9.699916666666667 -9.5999 -2.07145
vertex -9.699916666666667 -11.599950000000002 -2.5001333333333333
vertex -9.699916666666667 -11.599950000000002 -0.9998833333333335
endloop
endfacet
facet normal -1 0 0
outer loop
vertex -9.699916666666667 -9.5999 -2.07145
vertex -9.699916666666667 -11.599950000000002 -0.9998833333333335
vertex -9.699916666666667 -7.600133333333334 -0.9998833333333335
endloop
endfacet
facet normal 1 0 0
outer loop
vertex -5.700100000000001 -9.5999 -2.07145
vertex -5.700100000000001 -11.599950000000002 -0.9998833333333335
vertex -5.700100000000001 -11.599950000000002 -2.5001333333333333
endloop
endfacet
facet normal 1 0 0
outer loop
vertex -5.700100000000001 -9.5999 -2.07145
vertex -5.700100000000001 -11.599950000000002 -2.5001333333333333
vertex -5.700100000000001 -10.898983333333334 -2.5001333333333333
endloop
endfacet
facet normal 1 0 0
outer loop
vertex -5.700100000000001 -9.5999 -2.07145
vertex -5.700100000000001 -10.898983333333334 -2.5001333333333333
vertex -5.700100000000001 -9.5999 -2.5001333333333333
endloop
endfacet
facet normal 1 0 0
outer loop
vertex -5.700100000000001 -9.5999 -2.07145
vertex -5.700100000000001 -9.5999 -2.5001333333333333
vertex -5.700100000000001 -8.3011 -2.5001333333333333
endloop
endfacet
facet normal 1 0 0
outer loop
vertex -5.700100000000001 -9.5999 -2.07145
vertex -5.700100000000001 -8.3011 -2.5001333333333333
vertex -5.700100000000001 -7.600133333333334 -2.5001333333333333
endloop
endfacet
facet normal 0.9999999999999999 0 0
outer loop
vertex -5.700100000000001 -9.5999 -2.07145
vertex -5.700100000000001 -7.600133333333334 -2.5001333333333333
vertex -5.700100000000001 -7.600133333333334 -0.9998833333333335
endloop
endfacet
facet normal 1 0 0
outer loop
vertex -5.700100000000001 -9.5999 -2.07145
vertex -5.700100000000001 -7.600133333333334 -0.9998833333333335
vertex -5.700100000000001 -11.599950000000002 -0.9998833333333335
endloop
endfacet
facet normal 1 0 0
outer loop
vertex -5.700100000000001 -26.000083333333336 -2.07145
vertex -5.700100000000001 -28.000133333333334 -0.9998833333333335
vertex -5.700100000000001 -28.000133333333334 -2.5001333333333333
endloop
endfacet
facet normal 1 0 0
outer loop
vertex -5.700100000000001 -26.000083333333336 -2.07145
vertex -5.700100000000001 -28.000133333333334 -2.5001333333333333
vertex -5.700100000000001 -27.299166666666668 -2.5001333333333333
endloop
endfacet
facet normal 0.9999999999999999 0 0
outer loop
vertex -5.700100000000001 -26.000083333333336 -2.07145
vertex -5.700100000000001 -27.299166666666668 -2.5001333333333333
vertex -5.700100000000001 -26.000083333333336 -2.5001333333333333
endloop
endfacet
facet normal 1 0 0
outer loop
vertex -5.700100000000001 -26.000083333333336 -2.07145
vertex -5.700100000000001 -26.000083333333336 -2.5001333333333333
vertex -5.700100000000001 -24.701 -2.5001333333333333
endloop
endfacet
facet normal 1 0 0
outer loop
vertex -5.700100000000001 -26.000083333333336 -2.07145
vertex -5.700100000000001 -24.701 -2.5001333333333333
vertex -5.700100000000001 -24.000033333333334 -2.5001333333333333
endloop
endfacet
facet normal 1 0 0
outer loop
vertex -5.700100000000001 -26.000083333333336 -2.07145
vertex -5.700100000000001 -24.000033333333334 -2.5001333333333333
vertex -5.700100000000001 -24.000033333333334 -0.9998833333333335
endloop
endfacet
facet normal 1 0 0
outer loop
vertex -5.700100000000001 -26.000083333333336 -2.07145
vertex -5.700100000000001 -24.000033333333334 -0.9998833333333335
vertex -5.700100000000001 -28.000133333333334 -0.9998833333333335
endloop
endfacet
facet normal 0 -0.9999999999999999 0
outer loop
vertex 5.700100000000001 -11.599950000000002 -0.9998833333333335
vertex 5.700100000000001 -11.599950000000002 -2.5001333333333333
vertex 9.699916666666667 -11.599950000000002 -2.5001333333333333
endloop
endfacet
facet normal 0 -0.9999999999999999 0
outer loop
vertex 5.700100000000001 -11.599950000000002 -0.9998833333333335
vertex 9.699916666666667 -11.599950000000002 -2.5001333333333333
vertex 9.699916666666667 -11.599950000000002 -0.9998833333333335
endloop
endfacet
facet normal 0 -0.9999999999999999 0
outer loop
vertex -9.699916666666667 -11.599950000000002 -0.9998833333333335
vertex -9.699916666666667 -11.599950000000002 -2.5001333333333333
vertex -5.700100000000001 -11.599950000000002 -2.5001333333333333
endloop
endfacet
facet normal 0 -0.9999999999999999 0
outer loop
vertex -9.699916666666667 -11.599950000000002 -0.9998833333333335
vertex -5.700100000000001 -11.599950000000002 -2.5001333333333333
vertex -5.700100000000001 -11.599950000000002 -0.9998833333333335
endloop
endfacet
facet normal 0 0.9999999999999999 0
outer loop
vertex -5.700100000000001 -7.600133333333334 -0.9998833333333335
vertex -5.700100000000001 -7.600133333333334 -2.5001333333333333
vertex -9.699916666666667 -7.600133333333334 -2.5001333333333333
endloop
endfacet
facet normal 0 0.9999999999999999 0
outer loop
vertex -5.700100000000001 -7.600133333333334 -0.9998833333333335
vertex -9.699916666666667 -7.600133333333334 -2.5001333333333333
vertex -9.699916666666667 -7.600133333333334 -0.9998833333333335
endloop
endfacet
facet normal 0 0.9999999999999999 0
outer loop
vertex 9.699916666666667 -7.600133333333334 -0.9998833333333335
vertex 9.699916666666667 -7.600133333333334 -2.5001333333333333
vertex 5.700100000000001 -7.600133333333334 -2.5001333333333333
endloop
endfacet
facet normal 0 0.9999999999999999 0
outer loop
vertex 9.699916666666667 -7.600133333333334 -0.9998833333333335
vertex 5.700100000000001 -7.600133333333334 -2.5001333333333333
vertex 5.700100000000001 -7.600133333333334 -0.9998833333333335
endloop
endfacet
facet normal -1 0 0
outer loop
vertex 5.700100000000001 -26.000083333333336 -2.07145
vertex 5.700100000000001 -24.000033333333334 -0.9998833333333335
vertex 5.700100000000001 -24.000033333333334 -2.5001333333333333
endloop
endfacet
facet normal -1 0 0
outer loop
vertex 5.700100000000001 -26.000083333333336 -2.07145
vertex 5.700100000000001 -24.000033333333334 -2.5001333333333333
vertex 5.700100000000001 -24.701 -2.5001333333333333
endloop
endfacet
facet normal -1 0 0
outer loop
vertex 5.700100000000001 -26.000083333333336 -2.07145
vertex 5.700100000000001 -24.701 -2.5001333333333333
vertex 5.700100000000001 -26.000083333333336 -2.5001333333333333
endloop
endfacet
facet normal -0.9999999999999999 0 0
outer loop
vertex 5.700100000000001 -26.000083333333336 -2.07145
vertex 5.700100000000001 -26.000083333333336 -2.5001333333333333
vertex 5.700100000000001 -27.299166666666668 -2.5001333333333333
endloop
endfacet
facet normal -1 0 0
outer loop
vertex 5.700100000000001 -26.000083333333336 -2.07145
vertex 5.700100000000001 -27.299166666666668 -2.5001333333333333
vertex 5.700100000000001 -28.000133333333334 -2.5001333333333333
endloop
endfacet
facet normal -1 0 0
outer loop
vertex 5.700100000000001 -26.000083333333336 -2.07145
vertex 5.700100000000001 -28.000133333333334 -2.5001333333333333
vertex 5.700100000000001 -28.000133333333334 -0.9998833333333335
endloop
endfacet
facet normal -1 0 0
outer loop
vertex 5.700100000000001 -26.000083333333336 -2.07145
vertex 5.700100000000001 -28.000133333333334 -0.9998833333333335
vertex 5.700100000000001 -24.000033333333334 -0.9998833333333335
endloop
endfacet
facet normal -0.9999999999999999 0 0
outer loop
vertex 5.700100000000001 -9.5999 -2.07145
vertex 5.700100000000001 -7.600133333333334 -0.9998833333333335
vertex 5.700100000000001 -7.600133333333334 -2.5001333333333333
endloop
endfacet
facet normal -1 0 0
outer loop
vertex 5.700100000000001 -9.5999 -2.07145
vertex 5.700100000000001 -7.600133333333334 -2.5001333333333333
vertex 5.700100000000001 -8.3011 -2.5001333333333333
endloop
endfacet
facet normal -1 0 0
outer loop
vertex 5.700100000000001 -9.5999 -2.07145
vertex 5.700100000000001 -8.3011 -2.5001333333333333
vertex 5.700100000000001 -9.5999 -2.5001333333333333
endloop
endfacet
facet normal -1 0 0
outer loop
vertex 5.700100000000001 -9.5999 -2.07145
vertex 5.700100000000001 -9.5999 -2.5001333333333333
vertex 5.700100000000001 -10.898983333333334 -2.5001333333333333
endloop
endfacet
facet normal -1 0 0
outer loop
vertex 5.700100000000001 -9.5999 -2.07145
vertex 5.700100000000001 -10.898983333333334 -2.5001333333333333
vertex 5.700100000000001 -11.599950000000002 -2.5001333333333333
endloop
endfacet
facet normal -1 0 0
outer loop
vertex 5.700100000000001 -9.5999 -2.07145
vertex 5.700100000000001 -11.599950000000002 -2.5001333333333333
vertex 5.700100000000001 -11.599950000000002 -0.9998833333333335
endloop
endfacet
facet normal -1 0 0
outer loop
vertex 5.700100000000001 -9.5999 -2.07145
vertex 5.700100000000001 -11.599950000000002 -0.9998833333333335
vertex 5.700100000000001 -7.600133333333334 -0.9998833333333335
endloop
endfacet
facet normal 1 0 0
outer loop
vertex 9.699916666666667 -9.5999 -2.07145
vertex 9.699916666666667 -11.599950000000002 -0.9998833333333335
vertex 9.699916666666667 -11.599950000000002 -2.5001333333333333
endloop
endfacet
facet normal 1 0 0
outer loop
vertex 9.699916666666667 -9.5999 -2.07145
vertex 9.699916666666667 -11.599950000000002 -2.5001333333333333
vertex 9.699916666666667 -10.898983333333334 -2.5001333333333333
endloop
endfacet
facet normal 1 0 0
outer loop
vertex 9.699916666666667 -9.5999 -2.07145
vertex 9.699916666666667 -10.898983333333334 -2.5001333333333333
vertex 9.699916666666667 -9.5999 -2.5001333333333333
endloop
endfacet
facet normal 1 0 0
outer loop
vertex 9.699916666666667 -9.5999 -2.07145
vertex 9.699916666666667 -9.5999 -2.5001333333333333
vertex 9.699916666666667 -8.3011 -2.5001333333333333
endloop
endfacet
facet normal 1 0 0
outer loop
vertex 9.699916666666667 -9.5999 -2.07145
vertex 9.699916666666667 -8.3011 -2.5001333333333333
vertex 9.699916666666667 -7.600133333333334 -2.5001333333333333
endloop
endfacet
facet normal 0.9999999999999999 0 0
outer loop
vertex 9.699916666666667 -9.5999 -2.07145
vertex 9.699916666666667 -7.600133333333334 -2.5001333333333333
vertex 9.699916666666667 -7.600133333333334 -0.9998833333333335
endloop
endfacet
facet normal 1 0 0
outer loop
vertex 9.699916666666667 -9.5999 -2.07145
vertex 9.699916666666667 -7.600133333333334 -0.9998833333333335
vertex 9.699916666666667 -11.599950000000002 -0.9998833333333335
endloop
endfacet
facet normal 1 0 0
outer loop
vertex 9.699916666666667 -26.000083333333336 -2.07145
vertex 9.699916666666667 -28.000133333333334 -0.9998833333333335
vertex 9.699916666666667 -28.000133333333334 -2.5001333333333333
endloop
endfacet
facet normal 1 0 0
outer loop
vertex 9.699916666666667 -26.000083333333336 -2.07145
vertex 9.699916666666667 -28.000133333333334 -2.5001333333333333
vertex 9.699916666666667 -27.299166666666668 -2.5001333333333333
endloop
endfacet
facet normal 0.9999999999999999 0 0
outer loop
vertex 9.699916666666667 -26.000083333333336 -2.07145
vertex 9.699916666666667 -27.299166666666668 -2.5001333333333333
vertex 9.699916666666667 -26.000083333333336 -2.5001333333333333
endloop
endfacet
facet normal 1 0 0
outer loop
vertex 9.699916666666667 -26.000083333333336 -2.07145
vertex 9.699916666666667 -26.000083333333336 -2.5001333333333333
vertex 9.699916666666667 -24.701 -2.5001333333333333
endloop
endfacet
facet normal 1 0 0
outer loop
vertex 9.699916666666667 -26.000083333333336 -2.07145
vertex 9.699916666666667 -24.701 -2.5001333333333333
vertex 9.699916666666667 -24.000033333333334 -2.5001333333333333
endloop
endfacet
facet normal 1 0 0
outer loop
vertex 9.699916666666667 -26.000083333333336 -2.07145
vertex 9.699916666666667 -24.000033333333334 -2.5001333333333333
vertex 9.699916666666667 -24.000033333333334 -0.9998833333333335
endloop
endfacet
facet normal 1 0 0
outer loop
vertex 9.699916666666667 -26.000083333333336 -2.07145
vertex 9.699916666666667 -24.000033333333334 -0.9998833333333335
vertex 9.699916666666667 -28.000133333333334 -0.9998833333333335
endloop
endfacet
facet normal 0 -0.9999999999999999 0
outer loop
vertex 5.700100000000001 -28.000133333333334 -0.9998833333333335
vertex 5.700100000000001 -28.000133333333334 -2.5001333333333333
vertex 9.699916666666667 -28.000133333333334 -2.5001333333333333
endloop
endfacet
facet normal 0 -0.9999999999999999 0
outer loop
vertex 5.700100000000001 -28.000133333333334 -0.9998833333333335
vertex 9.699916666666667 -28.000133333333334 -2.5001333333333333
vertex 9.699916666666667 -28.000133333333334 -0.9998833333333335
endloop
endfacet
facet normal 0 -0.9999999999999999 0
outer loop
vertex -9.699916666666667 -28.000133333333334 -0.9998833333333335
vertex -9.699916666666667 -28.000133333333334 -2.5001333333333333
vertex -5.700100000000001 -28.000133333333334 -2.5001333333333333
endloop
endfacet
facet normal 0 -0.9999999999999999 0
outer loop
vertex -9.699916666666667 -28.000133333333334 -0.9998833333333335
vertex -5.700100000000001 -28.000133333333334 -2.5001333333333333
vertex -5.700100000000001 -28.000133333333334 -0.9998833333333335
endloop
endfacet
facet normal 0 0.9999999999999999 0
outer loop
vertex -5.700100000000001 -24.000033333333334 -0.9998833333333335
vertex -5.700100000000001 -24.000033333333334 -2.5001333333333333
vertex -9.699916666666667 -24.000033333333334 -2.5001333333333333
endloop
endfacet
facet normal 0 0.9999999999999999 0
outer loop
vertex -5.700100000000001 -24.000033333333334 -0.9998833333333335
vertex -9.699916666666667 -24.000033333333334 -2.5001333333333333
vertex -9.699916666666667 -24.000033333333334 -0.9998833333333335
endloop
endfacet
facet normal 0 0.9999999999999999 0
outer loop
vertex 9.699916666666667 -24.000033333333334 -0.9998833333333335
vertex 9.699916666666667 -24.000033333333334 -2.5001333333333333
vertex 5.700100000000001 -24.000033333333334 -2.5001333333333333
endloop
endfacet
facet normal 0 0.9999999999999999 0
outer loop
vertex 9.699916666666667 -24.000033333333334 -0.9998833333333335
vertex 5.700100000000001 -24.000033333333334 -2.5001333333333333
vertex 5.700100000000001 -24.000033333333334 -0.9998833333333335
endloop
endfacet
facet normal -1 0 0
outer loop
vertex -11.000133333333334 -4.966833333333334 -0.5556166666666668
vertex -11.000133333333334 26.499883333333337 -0.9998833333333335
vertex -11.000133333333334 -7.600133333333334 -0.9998833333333335
endloop
endfacet
facet normal -1 0 0
outer loop
vertex -11.000133333333334 -4.966833333333334 -0.5556166666666668
vertex -11.000133333333334 -7.600133333333334 -0.9998833333333335
vertex -11.000133333333334 -11.599950000000002 -0.9998833333333335
endloop
endfacet
facet normal -1 0 0
outer loop
vertex -11.000133333333334 -4.966833333333334 -0.5556166666666668
vertex -11.000133333333334 -11.599950000000002 -0.9998833333333335
vertex -11.000133333333334 -24.000033333333334 -0.9998833333333335
endloop
endfacet
facet normal -0.9999999999999999 0 0
outer loop
vertex -11.000133333333334 -4.966833333333334 -0.5556166666666668
vertex -11.000133333333334 -24.000033333333334 -0.9998833333333335
vertex -11.000133333333334 -28.000133333333334 -0.9998833333333335
endloop
endfacet
facet normal -1 0 0
outer loop
vertex -11.000133333333334 -4.966833333333334 -0.5556166666666668
vertex -11.000133333333334 -28.000133333333334 -0.9998833333333335
vertex -11.000133333333334 -28.499933333333335 -0.9998833333333335
endloop
endfacet
facet normal -1 0 0
outer loop
vertex -11.000133333333334 -4.966833333333334 -0.5556166666666668
vertex -11.000133333333334 -28.499933333333335 -0.9998833333333335
vertex -11.000133333333334 -28.499933333333335 0.9998833333333335
endloop
endfacet
facet normal -1 0 0
outer loop
vertex -11.000133333333334 -4.966833333333334 -0.5556166666666668
vertex -11.000133333333334 -28.499933333333335 0.9998833333333335
vertex -11.000133333333334 28.499933333333335 0.9998833333333335
endloop
endfacet
facet normal -1 0 0
outer loop
vertex -11.000133333333334 -4.966833333333334 -0.5556166666666668
vertex -11.000133333333334 28.499933333333335 0.9998833333333335
vertex -11.000133333333334 28.499933333333335 -0.9998833333333335
endloop
endfacet
facet normal -1 0 0
outer loop
vertex -11.000133333333334 -4.966833333333334 -0.5556166666666668
vertex -11.000133333333334 28.499933333333335 -0.9998833333333335
vertex -11.000133333333334 26.499883333333337 -0.9998833333333335
endloop
endfacet
facet normal 1 0 0
outer loop
vertex 11.000133333333334 -4.966833333333334 -0.5556166666666668
vertex 11.000133333333334 -28.499933333333335 -0.9998833333333335
vertex 11.000133333333334 -28.000133333333334 -0.9998833333333335
endloop
endfacet
facet normal 0.9999999999999999 0 0
outer loop
vertex 11.000133333333334 -4.966833333333334 -0.5556166666666668
vertex 11.000133333333334 -28.000133333333334 -0.9998833333333335
vertex 11.000133333333334 -24.000033333333334 -0.9998833333333335
endloop
endfacet
facet normal 1 0 0
outer loop
vertex 11.000133333333334 -4.966833333333334 -0.5556166666666668
vertex 11.000133333333334 -24.000033333333334 -0.9998833333333335
vertex 11.000133333333334 -11.599950000000002 -0.9998833333333335
endloop
endfacet
facet normal 1 0 0
outer loop
vertex 11.000133333333334 -4.966833333333334 -0.5556166666666668
vertex 11.000133333333334 -11.599950000000002 -0.9998833333333335
vertex 11.000133333333334 -7.600133333333334 -0.9998833333333335
endloop
endfacet
facet normal 1 0 0
outer loop
vertex 11.000133333333334 -4.966833333333334 -0.5556166666666668
vertex 11.000133333333334 -7.600133333333334 -0.9998833333333335
vertex 11.000133333333334 26.499883333333337 -0.9998833333333335
endloop
endfacet
facet normal 1 0 0
outer loop
vertex 11.000133333333334 -4.966833333333334 -0.5556166666666668
vertex 11.000133333333334 26.499883333333337 -0.9998833333333335
vertex 11.000133333333334 28.499933333333335 -0.9998833333333335
endloop
endfacet
facet normal 1 0 0
outer loop
vertex 11.000133333333334 -4.966833333333334 -0.5556166666666668
vertex 11.000133333333334 28.499933333333335 -0.9998833333333335
vertex 11.000133333333334 28.499933333333335 0.9998833333333335
endloop
endfacet
facet normal 1 0 0
outer loop
vertex 11.000133333333334 -4.966833333333334 -0.5556166666666668
vertex 11.000133333333334 28.499933333333335 0.9998833333333335
vertex 11.000133333333334 -28.499933333333335 0.9998833333333335
endloop
endfacet
facet normal 1 0 0
outer loop
vertex 11.000133333333334 -4.966833333333334 -0.5556166666666668
vertex 11.000133333333334 -28.499933333333335 0.9998833333333335
vertex 11.000133333333334 -28.499933333333335 -0.9998833333333335
endloop
endfacet
facet normal 0 -1 0
outer loop
vertex -11.000133333333334 -28.499933333333335 -0.9998833333333335
vertex 11.000133333333334 -28.499933333333335 -0.9998833333333335
vertex 11.000133333333334 -28.499933333333335 0.9998833333333335
endloop
endfacet
facet normal 0 -1 0
outer loop
vertex -11.000133333333334 -28.499933333333335 -0.9998833333333335
vertex 11.000133333333334 -28.499933333333335 0.9998833333333335
vertex -11.000133333333334 -28.499933333333335 0.9998833333333335
endloop
endfacet
facet normal 0 1 0
outer loop
vertex 0 28.499933333333335 -0.33320000000000005
vertex 11.000133333333334 28.499933333333335 0.9998833333333335
vertex 11.000133333333334 28.499933333333335 -0.9998833333333335
endloop
endfacet
facet normal 0 1 0
outer loop
vertex 0 28.499933333333335 -0.33320000000000005
vertex 11.000133333333334 28.499933333333335 -0.9998833333333335
vertex 9.999966666666667 28.499933333333335 -0.9998833333333335
endloop
endfacet
facet normal 0 1 0
outer loop
vertex 0 28.499933333333335 -0.33320000000000005
vertex 9.999966666666667 28.499933333333335 -0.9998833333333335
vertex -9.999966666666667 28.499933333333335 -0.9998833333333335
endloop
endfacet
facet normal 0 1 0
outer loop
vertex 0 28.499933333333335 -0.33320000000000005
vertex -9.999966666666667 28.499933333333335 -0.9998833333333335
vertex -11.000133333333334 28.499933333333335 -0.9998833333333335
endloop
endfacet
facet normal 0 1 0
outer loop
vertex 0 28.499933333333335 -0.33320000000000005
vertex -11.000133333333334 28.499933333333335 -0.9998833333333335
vertex -11.000133333333334 28.499933333333335 0.9998833333333335
endloop
endfacet
facet normal 0 0.9999999999999999 0
outer loop
vertex 0 28.499933333333335 -0.33320000000000005
vertex -11.000133333333334 28.499933333333335 0.9998833333333335
vertex 11.000133333333334 28.499933333333335 0.9998833333333335
endloop
endfacet
facet normal 0 1 0
outer loop
vertex 0 28.499933333333335 -1.6665666666666668
vertex 9.999966666666667 28.499933333333335 -0.9998833333333335
vertex 9.999966666666667 28.499933333333335 -2.0000500000000003
endloop
endfacet
facet normal 0 1 0
outer loop
vertex 0 28.499933333333335 -1.6665666666666668
vertex 9.999966666666667 28.499933333333335 -2.0000500000000003
vertex 4.000100000000001 28.499933333333335 -2.0000500000000003
endloop
endfacet
facet normal 0 1 0
outer loop
vertex 0 28.499933333333335 -1.6665666666666668
vertex 4.000100000000001 28.499933333333335 -2.0000500000000003
vertex -4.000100000000001 28.499933333333335 -2.0000500000000003
endloop
endfacet
facet normal 0 1 0
outer loop
vertex 0 28.499933333333335 -1.6665666666666668
vertex -4.000100000000001 28.499933333333335 -2.0000500000000003
vertex -9.999966666666667 28.499933333333335 -2.0000500000000003
endloop
endfacet
facet normal 0 1 0
outer loop
vertex 0 28.499933333333335 -1.6665666666666668
vertex -9.999966666666667 28.499933333333335 -2.0000500000000003
vertex -9.999966666666667 28.499933333333335 -0.9998833333333335
endloop
endfacet
facet normal 0 1 0
outer loop
vertex 0 28.499933333333335 -1.6665666666666668
vertex -9.999966666666667 28.499933333333335 -0.9998833333333335
vertex 9.999966666666667 28.499933333333335 -0.9998833333333335
endloop
endfacet
facet normal 0 1 0
outer loop
vertex -4.000100000000001 28.499933333333335 -2.0000500000000003
vertex -4.000100000000001 28.499933333333335 -4.999983333333334
vertex -9.999966666666667 28.499933333333335 -4.999983333333334
endloop
endfacet
facet normal 0 1 0
outer loop
vertex -4.000100000000001 28.499933333333335 -2.0000500000000003
vertex -9.999966666666667 28.499933333333335 -4.999983333333334
vertex -9.999966666666667 28.499933333333335 -2.0000500000000003
endloop
endfacet
facet normal 0 1 0
outer loop
vertex 9.999966666666667 28.499933333333335 -2.0000500000000003
vertex 9.999966666666667 28.499933333333335 -4.999983333333334
vertex 4.000100000000001 28.499933333333335 -4.999983333333334
endloop
endfacet
facet normal 0 1 0
outer loop
vertex 9.999966666666667 28.499933333333335 -2.0000500000000003
vertex 4.000100000000001 28.499933333333335 -4.999983333333334
vertex 4.000100000000001 28.499933333333335 -2.0000500000000003
endloop
endfacet
facet normal 0 0 1
outer loop
vertex -11.000133333333334 -28.499933333333335 0.9998833333333335
vertex 11.000133333333334 -28.499933333333335 0.9998833333333335
vertex 11.000133333333334 28.499933333333335 0.9998833333333335
endloop
endfacet
facet normal 0 0 1
outer loop
vertex -11.000133333333334 -28.499933333333335 0.9998833333333335
vertex 11.000133333333334 28.499933333333335 0.9998833333333335
vertex -11.000133333333334 28.499933333333335 0.9998833333333335
endloop
endfacet
facet normal 0 0 -1
outer loop
vertex -9.999966666666667 28.499933333333335 -0.9998833333333335
vertex -9.999966666666667 26.499883333333337 -0.9998833333333335
vertex -11.000133333333334 26.499883333333337 -0.9998833333333335
endloop
endfacet
facet normal 0 0 -1
outer loop
vertex -9.999966666666667 28.499933333333335 -0.9998833333333335
vertex -11.000133333333334 26.499883333333337 -0.9998833333333335
vertex -11.000133333333334 28.499933333333335 -0.9998833333333335
endloop
endfacet
facet normal 0 0 -1
outer loop
vertex 11.000133333333334 28.499933333333335 -0.9998833333333335
vertex 11.000133333333334 26.499883333333337 -0.9998833333333335
vertex 9.999966666666667 26.499883333333337 -0.9998833333333335
endloop
endfacet
facet normal 0 0 -1
outer loop
vertex 11.000133333333334 28.499933333333335 -0.9998833333333335
vertex 9.999966666666667 26.499883333333337 -0.9998833333333335
vertex 9.999966666666667 28.499933333333335 -0.9998833333333335
endloop
endfacet
facet normal 0 0 -1
outer loop
vertex 0 6.039816666666667 -0.9998833333333335
vertex -9.999966666666667 26.499883333333337 -0.9998833333333335
vertex 9.999966666666667 26.499883333333337 -0.9998833333333335
endloop
endfacet
facet normal 0 0 -1
outer loop
vertex 0 6.039816666666667 -0.9998833333333335
vertex 9.999966666666667 26.499883333333337 -0.9998833333333335
vertex 11.000133333333334 26.499883333333337 -0.9998833333333335
endloop
endfacet
facet normal 0 0 -0.9999999999999999
outer loop
vertex 0 6.039816666666667 -0.9998833333333335
vertex 11.000133333333334 26.499883333333337 -0.9998833333333335
vertex 11.000133333333334 -7.600133333333334 -0.9998833333333335
endloop
endfacet
facet normal 0 0 -1
outer loop
vertex 0 6.039816666666667 -0.9998833333333335
vertex 11.000133333333334 -7.600133333333334 -0.9998833333333335
vertex 9.699916666666667 -7.600133333333334 -0.9998833333333335
endloop
endfacet
facet normal 0 0 -1
outer loop
vertex 0 6.039816666666667 -0.9998833333333335
vertex 9.699916666666667 -7.600133333333334 -0.9998833333333335
vertex 5.700100000000001 -7.600133333333334 -0.9998833333333335
endloop
endfacet
facet normal 0 0 -1
outer loop
vertex 0 6.039816666666667 -0.9998833333333335
vertex 5.700100000000001 -7.600133333333334 -0.9998833333333335
vertex -5.700100000000001 -7.600133333333334 -0.9998833333333335
endloop
endfacet
facet normal 0 0 -1
outer loop
vertex 0 6.039816666666667 -0.9998833333333335
vertex -5.700100000000001 -7.600133333333334 -0.9998833333333335
vertex -9.699916666666667 -7.600133333333334 -0.9998833333333335
endloop
endfacet
facet normal 0 0 -1
outer loop
vertex 0 6.039816666666667 -0.9998833333333335
vertex -9.699916666666667 -7.600133333333334 -0.9998833333333335
vertex -11.000133333333334 -7.600133333333334 -0.9998833333333335
endloop
endfacet
facet normal 0 0 -0.9999999999999999
outer loop
vertex 0 6.039816666666667 -0.9998833333333335
vertex -11.000133333333334 -7.600133333333334 -0.9998833333333335
vertex -11.000133333333334 26.499883333333337 -0.9998833333333335
endloop
endfacet
facet normal 0 0 -1
outer loop
vertex 0 6.039816666666667 -0.9998833333333335
vertex -11.000133333333334 26.499883333333337 -0.9998833333333335
vertex -9.999966666666667 26.499883333333337 -0.9998833333333335
endloop
endfacet
facet normal 0 0 -1
outer loop
vertex -9.699916666666667 -7.600133333333334 -0.9998833333333335
vertex -9.699916666666667 -11.599950000000002 -0.9998833333333335
vertex -11.000133333333334 -11.599950000000002 -0.9998833333333335
endloop
endfacet
facet normal 0 0 -1
outer loop
vertex -9.699916666666667 -7.600133333333334 -0.9998833333333335
vertex -11.000133333333334 -11.599950000000002 -0.9998833333333335
vertex -11.000133333333334 -7.600133333333334 -0.9998833333333335
endloop
endfacet
facet normal 0 0 -0.9999999999999999
outer loop
vertex 5.700100000000001 -7.600133333333334 -0.9998833333333335
vertex 5.700100000000001 -11.599950000000002 -0.9998833333333335
vertex -5.700100000000001 -11.599950000000002 -0.9998833333333335
endloop
endfacet
facet normal 0 0 -0.9999999999999999
outer loop
vertex 5.700100000000001 -7.600133333333334 -0.9998833333333335
vertex -5.700100000000001 -11.599950000000002 -0.9998833333333335
vertex -5.700100000000001 -7.600133333333334 -0.9998833333333335
endloop
endfacet
facet normal 0 0 -1
outer loop
vertex 11.000133333333334 -7.600133333333334 -0.9998833333333335
vertex 11.000133333333334 -11.599950000000002 -0.9998833333333335
vertex 9.699916666666667 -11.599950000000002 -0.9998833333333335
endloop
endfacet
facet normal 0 0 -1
outer loop
vertex 11.000133333333334 -7.600133333333334 -0.9998833333333335
vertex 9.699916666666667 -11.599950000000002 -0.9998833333333335
vertex 9.699916666666667 -7.600133333333334 -0.9998833333333335
endloop
endfacet
facet normal 0 0 -1
outer loop
vertex 0 -17.799850000000003 -0.9998833333333335
vertex -9.699916666666667 -11.599950000000002 -0.9998833333333335
vertex -5.700100000000001 -11.599950000000002 -0.9998833333333335
endloop
endfacet
facet normal 0 0 -1
outer loop
vertex 0 -17.799850000000003 -0.9998833333333335
vertex -5.700100000000001 -11.599950000000002 -0.9998833333333335
vertex 5.700100000000001 -11.599950000000002 -0.9998833333333335
endloop
endfacet
facet normal 0 0 -1
outer loop
vertex 0 -17.799850000000003 -0.9998833333333335
vertex 5.700100000000001 -11.599950000000002 -0.9998833333333335
vertex 9.699916666666667 -11.599950000000002 -0.9998833333333335
endloop
endfacet
facet normal 0 0 -1
outer loop
vertex 0 -17.799850000000003 -0.9998833333333335
vertex 9.699916666666667 -11.599950000000002 -0.9998833333333335
vertex 11.000133333333334 -11.599950000000002 -0.9998833333333335
endloop
endfacet
facet normal 0 0 -1
outer loop
vertex 0 -17.799850000000003 -0.9998833333333335
vertex 11.000133333333334 -11.599950000000002 -0.9998833333333335
vertex 11.000133333333334 -24.000033333333334 -0.9998833333333335
endloop
endfacet
facet normal 0 0 -1
outer loop
vertex 0 -17.799850000000003 -0.9998833333333335
vertex 11.000133333333334 -24.000033333333334 -0.9998833333333335
vertex 9.699916666666667 -24.000033333333334 -0.9998833333333335
endloop
endfacet
facet normal 0 0 -0.9999999999999999
outer loop
vertex 0 -17.799850000000003 -0.9998833333333335
vertex 9.699916666666667 -24.000033333333334 -0.9998833333333335
vertex 5.700100000000001 -24.000033333333334 -0.9998833333333335
endloop
endfacet
facet normal 0 0 -1
outer loop
vertex 0 -17.799850000000003 -0.9998833333333335
vertex 5.700100000000001 -24.000033333333334 -0.9998833333333335
vertex -5.700100000000001 -24.000033333333334 -0.9998833333333335
endloop
endfacet
facet normal 0 0 -0.9999999999999999
outer loop
vertex 0 -17.799850000000003 -0.9998833333333335
vertex -5.700100000000001 -24.000033333333334 -0.9998833333333335
vertex -9.699916666666667 -24.000033333333334 -0.9998833333333335
endloop
endfacet
facet normal 0 0 -1
outer loop
vertex 0 -17.799850000000003 -0.9998833333333335
vertex -9.699916666666667 -24.000033333333334 -0.9998833333333335
vertex -11.000133333333334 -24.000033333333334 -0.9998833333333335
endloop
endfacet
facet normal 0 0 -1
outer loop
vertex 0 -17.799850000000003 -0.9998833333333335
vertex -11.000133333333334 -24.000033333333334 -0.9998833333333335
vertex -11.000133333333334 -11.599950000000002 -0.9998833333333335
endloop
endfacet
facet normal 0 0 -1
outer loop
vertex 0 -17.799850000000003 -0.9998833333333335
vertex -11.000133333333334 -11.599950000000002 -0.9998833333333335
vertex -9.699916666666667 -11.599950000000002 -0.9998833333333335
endloop
endfacet
facet normal 0 0 -1
outer loop
vertex -9.699916666666667 -24.000033333333334 -0.9998833333333335
vertex -9.699916666666667 -28.000133333333334 -0.9998833333333335
vertex -11.000133333333334 -28.000133333333334 -0.9998833333333335
endloop
endfacet
facet normal 0 0 -1
outer loop
vertex -9.699916666666667 -24.000033333333334 -0.9998833333333335
vertex -11.000133333333334 -28.000133333333334 -0.9998833333333335
vertex -11.000133333333334 -24.000033333333334 -0.9998833333333335
endloop
endfacet
facet normal 0 0 -1
outer loop
vertex 5.700100000000001 -24.000033333333334 -0.9998833333333335
vertex 5.700100000000001 -28.000133333333334 -0.9998833333333335
vertex -5.700100000000001 -28.000133333333334 -0.9998833333333335
endloop
endfacet
facet normal 0 0 -1
outer loop
vertex 5.700100000000001 -24.000033333333334 -0.9998833333333335
vertex -5.700100000000001 -28.000133333333334 -0.9998833333333335
vertex -5.700100000000001 -24.000033333333334 -0.9998833333333335
endloop
endfacet
facet normal 0 0 -1
outer loop
vertex 11.000133333333334 -24.000033333333334 -0.9998833333333335
vertex 11.000133333333334 -28.000133333333334 -0.9998833333333335
vertex 9.699916666666667 -28.000133333333334 -0.9998833333333335
endloop
endfacet
facet normal 0 0 -1
outer loop
vertex 11.000133333333334 -24.000033333333334 -0.9998833333333335
vertex 9.699916666666667 -28.000133333333334 -0.9998833333333335
vertex 9.699916666666667 -24.000033333333334 -0.9998833333333335
endloop
endfacet
facet normal 0 0 -0.9999999999999999
outer loop
vertex 0 -28.125083333333336 -0.9998833333333335
vertex -9.699916666666667 -28.000133333333334 -0.9998833333333335
vertex -5.700100000000001 -28.000133333333334 -0.9998833333333335
endloop
endfacet
facet normal 0 0 -1
outer loop
vertex 0 -28.125083333333336 -0.9998833333333335
vertex -5.700100000000001 -28.000133333333334 -0.9998833333333335
vertex 5.700100000000001 -28.000133333333334 -0.9998833333333335
endloop
endfacet
facet normal 0 0 -0.9999999999999999
outer loop
vertex 0 -28.125083333333336 -0.9998833333333335
vertex 5.700100000000001 -28.000133333333334 -0.9998833333333335
vertex 9.699916666666667 -28.000133333333334 -0.9998833333333335
endloop
endfacet
facet normal 0 0 -1
outer loop
vertex 0 -28.125083333333336 -0.9998833333333335
vertex 9.699916666666667 -28.000133333333334 -0.9998833333333335
vertex 11.000133333333334 -28.000133333333334 -0.9998833333333335
endloop
endfacet
facet normal 0 0 -1
outer loop
vertex 0 -28.125083333333336 -0.9998833333333335
vertex 11.000133333333334 -28.000133333333334 -0.9998833333333335
vertex 11.000133333333334 -28.499933333333335 -0.9998833333333335
endloop
endfacet
facet normal 0 0 -1
outer loop
vertex 0 -28.125083333333336 -0.9998833333333335
vertex 11.000133333333334 -28.499933333333335 -0.9998833333333335
vertex -11.000133333333334 -28.499933333333335 -0.9998833333333335
endloop
endfacet
facet normal 0 0 -1
outer loop
vertex 0 -28.125083333333336 -0.9998833333333335
vertex -11.000133333333334 -28.499933333333335 -0.9998833333333335
vertex -11.000133333333334 -28.000133333333334 -0.9998833333333335
endloop
endfacet
facet normal 0 0 -1
outer loop
vertex 0 -28.125083333333336 -0.9998833333333335
vertex -11.000133333333334 -28.000133333333334 -0.9998833333333335
vertex -9.699916666666667 -28.000133333333334 -0.9998833333333335
endloop
endfacet
facet normal -0.8659905236618644 -0.5000604092785687 0
outer loop
vertex 9.200116666666668 -9.5999 -2.5001333333333333
vertex 9.200116666666668 -9.5999 -0.5000833333333333
vertex 8.450133333333333 -8.3011 -0.5000833333333333
endloop
endfacet
facet normal -0.8659905236618644 -0.5000604092785687 0
outer loop
vertex 9.200116666666668 -9.5999 -2.5001333333333333
vertex 8.450133333333333 -8.3011 -0.5000833333333333
vertex 8.450133333333333 -8.3011 -2.5001333333333333
endloop
endfacet
facet normal 0 0 -1
outer loop
vertex -7.699866666666667 -9.5999 -0.5000833333333333
vertex -6.949883333333334 -8.3011 -0.5000833333333333
vertex -6.1999 -9.5999 -0.5000833333333333
endloop
endfacet
facet normal 0 0 -1
outer loop
vertex -7.699866666666667 -9.5999 -0.5000833333333333
vertex -6.1999 -9.5999 -0.5000833333333333
vertex -6.949883333333334 -10.898983333333334 -0.5000833333333333
endloop
endfacet
facet normal 0 0 -0.9999999999999999
outer loop
vertex -7.699866666666667 -9.5999 -0.5000833333333333
vertex -6.949883333333334 -10.898983333333334 -0.5000833333333333
vertex -8.450133333333333 -10.898983333333334 -0.5000833333333333
endloop
endfacet
facet normal 0 0 -1
outer loop
vertex -7.699866666666667 -9.5999 -0.5000833333333333
vertex -8.450133333333333 -10.898983333333334 -0.5000833333333333
vertex -9.200116666666668 -9.5999 -0.5000833333333333
endloop
endfacet
facet normal 0 0 -1
outer loop
vertex -7.699866666666667 -9.5999 -0.5000833333333333
vertex -9.200116666666668 -9.5999 -0.5000833333333333
vertex -8.450133333333333 -8.3011 -0.5000833333333333
endloop
endfacet
facet normal 0 0 -1
outer loop
vertex -7.699866666666667 -9.5999 -0.5000833333333333
vertex -8.450133333333333 -8.3011 -0.5000833333333333
vertex -6.949883333333334 -8.3011 -0.5000833333333333
endloop
endfacet
facet normal 0 0 -1
outer loop
vertex 7.699866666666667 -9.5999 -0.5000833333333333
vertex 8.450133333333333 -8.3011 -0.5000833333333333
vertex 9.200116666666668 -9.5999 -0.5000833333333333
endloop
endfacet
facet normal 0 0 -1
outer loop
vertex 7.699866666666667 -9.5999 -0.5000833333333333
vertex 9.200116666666668 -9.5999 -0.5000833333333333
vertex 8.450133333333333 -10.898983333333334 -0.5000833333333333
endloop
endfacet
facet normal 0 0 -0.9999999999999999
outer loop
vertex 7.699866666666667 -9.5999 -0.5000833333333333
vertex 8.450133333333333 -10.898983333333334 -0.5000833333333333
vertex 6.949883333333334 -10.898983333333334 -0.5000833333333333
endloop
endfacet
facet normal 0 0 -1
outer loop
vertex 7.699866666666667 -9.5999 -0.5000833333333333
vertex 6.949883333333334 -10.898983333333334 -0.5000833333333333
vertex 6.1999 -9.5999 -0.5000833333333333
endloop
endfacet
facet normal 0 0 -1
outer loop
vertex 7.699866666666667 -9.5999 -0.5000833333333333
vertex 6.1999 -9.5999 -0.5000833333333333
vertex 6.949883333333334 -8.3011 -0.5000833333333333
endloop
endfacet
facet normal 0 0 -1
outer loop
vertex 7.699866666666667 -9.5999 -0.5000833333333333
vertex 6.949883333333334 -8.3011 -0.5000833333333333
vertex 8.450133333333333 -8.3011 -0.5000833333333333
endloop
endfacet
facet normal 0 0 -1
outer loop
vertex -7.699866666666667 -26.000083333333336 -0.5000833333333333
vertex -6.949883333333334 -24.701 -0.5000833333333333
vertex -6.1999 -26.000083333333336 -0.5000833333333333
endloop
endfacet
facet normal 0 0 -0.9999999999999999
outer loop
vertex -7.699866666666667 -26.000083333333336 -0.5000833333333333
vertex -6.1999 -26.000083333333336 -0.5000833333333333
vertex -6.949883333333334 -27.299166666666668 -0.5000833333333333
endloop
endfacet
facet normal 0 0 -1
outer loop
vertex -7.699866666666667 -26.000083333333336 -0.5000833333333333
vertex -6.949883333333334 -27.299166666666668 -0.5000833333333333
vertex -8.450133333333333 -27.299166666666668 -0.5000833333333333
endloop
endfacet
facet normal 0 0 -1
outer loop
vertex -7.699866666666667 -26.000083333333336 -0.5000833333333333
vertex -8.450133333333333 -27.299166666666668 -0.5000833333333333
vertex -9.200116666666668 -26.000083333333336 -0.5000833333333333
endloop
endfacet
facet normal 0 0 -0.9999999999999999
outer loop
vertex -7.699866666666667 -26.000083333333336 -0.5000833333333333
vertex -9.200116666666668 -26.000083333333336 -0.5000833333333333
vertex -8.450133333333333 -24.701 -0.5000833333333333
endloop
endfacet
facet normal 0 0 -1
outer loop
vertex -7.699866666666667 -26.000083333333336 -0.5000833333333333
vertex -8.450133333333333 -24.701 -0.5000833333333333
vertex -6.949883333333334 -24.701 -0.5000833333333333
endloop
endfacet
facet normal 0 0 -0.9999999999999999
outer loop
vertex 7.699866666666667 -26.000083333333336 -0.5000833333333333
vertex 8.450133333333333 -24.701 -0.5000833333333333
vertex 9.200116666666668 -26.000083333333336 -0.5000833333333333
endloop
endfacet
facet normal 0 0 -1
outer loop
vertex 7.699866666666667 -26.000083333333336 -0.5000833333333333
vertex 9.200116666666668 -26.000083333333336 -0.5000833333333333
vertex 8.450133333333333 -27.299166666666668 -0.5000833333333333
endloop
endfacet
facet normal 0 0 -1
outer loop
vertex 7.699866666666667 -26.000083333333336 -0.5000833333333333
vertex 8.450133333333333 -27.299166666666668 -0.5000833333333333
vertex 6.949883333333334 -27.299166666666668 -0.5000833333333333
endloop
endfacet
facet normal 0 0 -0.9999999999999999
outer loop
vertex 7.699866666666667 -26.000083333333336 -0.5000833333333333
vertex 6.949883333333334 -27.299166666666668 -0.5000833333333333
vertex 6.1999 -26.000083333333336 -0.5000833333333333
endloop
endfacet
facet normal 0 0 -1
outer loop
vertex 7.699866666666667 -26.000083333333336 -0.5000833333333333
vertex 6.1999 -26.000083333333336 -0.5000833333333333
vertex 6.949883333333334 -24.701 -0.5000833333333333
endloop
endfacet
facet normal 0 0 -1
outer loop
vertex 7.699866666666667 -26.000083333333336 -0.5000833333333333
vertex 6.949883333333334 -24.701 -0.5000833333333333
vertex 8.450133333333333 -24.701 -0.5000833333333333
endloop
endfacet
facet normal 0 -1 0
outer loop
vertex 6.949883333333334 -8.3011 -0.5000833333333333
vertex 6.949883333333334 -8.3011 -2.5001333333333333
vertex 8.450133333333333 -8.3011 -2.5001333333333333
endloop
endfacet
facet normal 0 -1 0
outer loop
vertex 6.949883333333334 -8.3011 -0.5000833333333333
vertex 8.450133333333333 -8.3011 -2.5001333333333333
vertex 8.450133333333333 -8.3011 -0.5000833333333333
endloop
endfacet
facet normal 0 -1 0
outer loop
vertex -8.450133333333333 -8.3011 -0.5000833333333333
vertex -8.450133333333333 -8.3011 -2.5001333333333333
vertex -6.949883333333334 -8.3011 -2.5001333333333333
endloop
endfacet
facet normal 0 -1 0
outer loop
vertex -8.450133333333333 -8.3011 -0.5000833333333333
vertex -6.949883333333334 -8.3011 -2.5001333333333333
vertex -6.949883333333334 -8.3011 -0.5000833333333333
endloop
endfacet
facet normal 0.8659905236618647 -0.5000604092785682 0
outer loop
vertex 6.949883333333334 -8.3011 -2.5001333333333333
vertex 6.949883333333334 -8.3011 -0.5000833333333333
vertex 6.1999 -9.5999 -0.5000833333333333
endloop
endfacet
facet normal 0.8659905236618647 -0.5000604092785682 0
outer loop
vertex 6.949883333333334 -8.3011 -2.5001333333333333
vertex 6.1999 -9.5999 -0.5000833333333333
vertex 6.1999 -9.5999 -2.5001333333333333
endloop
endfacet
facet normal 0.8660377524614731 0.4999786108539846 0
outer loop
vertex 6.1999 -9.5999 -2.5001333333333333
vertex 6.1999 -9.5999 -0.5000833333333333
vertex 6.949883333333334 -10.898983333333334 -0.5000833333333333
endloop
endfacet
facet normal 0.8660377524614731 0.4999786108539846 0
outer loop
vertex 6.1999 -9.5999 -2.5001333333333333
vertex 6.949883333333334 -10.898983333333334 -0.5000833333333333
vertex 6.949883333333334 -10.898983333333334 -2.5001333333333333
endloop
endfacet
facet normal 0 1 0
outer loop
vertex -6.949883333333334 -10.898983333333334 -0.5000833333333333
vertex -6.949883333333334 -10.898983333333334 -2.5001333333333333
vertex -8.450133333333333 -10.898983333333334 -2.5001333333333333
endloop
endfacet
facet normal 0 1 0
outer loop
vertex -6.949883333333334 -10.898983333333334 -0.5000833333333333
vertex -8.450133333333333 -10.898983333333334 -2.5001333333333333
vertex -8.450133333333333 -10.898983333333334 -0.5000833333333333
endloop
endfacet
facet normal 0 1 0
outer loop
vertex 8.450133333333333 -10.898983333333334 -0.5000833333333333
vertex 8.450133333333333 -10.898983333333334 -2.5001333333333333
vertex 6.949883333333334 -10.898983333333334 -2.5001333333333333
endloop
endfacet
facet normal 0 1 0
outer loop
vertex 8.450133333333333 -10.898983333333334 -0.5000833333333333
vertex 6.949883333333334 -10.898983333333334 -2.5001333333333333
vertex 6.949883333333334 -10.898983333333334 -0.5000833333333333
endloop
endfacet
facet normal -0.8660377524614729 0.499978610853985 0
outer loop
vertex 8.450133333333333 -10.898983333333334 -2.5001333333333333
vertex 8.450133333333333 -10.898983333333334 -0.5000833333333333
vertex 9.200116666666668 -9.5999 -0.5000833333333333
endloop
endfacet
facet normal -0.8660377524614729 0.499978610853985 0
outer loop
vertex 8.450133333333333 -10.898983333333334 -2.5001333333333333
vertex 9.200116666666668 -9.5999 -0.5000833333333333
vertex 9.200116666666668 -9.5999 -2.5001333333333333
endloop
endfacet
facet normal 0 0 -1
outer loop
vertex -7.699866666666667 -8.067350000000001 -2.5001333333333333
vertex -5.700100000000001 -7.600133333333334 -2.5001333333333333
vertex -5.700100000000001 -8.3011 -2.5001333333333333
endloop
endfacet
facet normal 0 0 -1
outer loop
vertex -7.699866666666667 -8.067350000000001 -2.5001333333333333
vertex -5.700100000000001 -8.3011 -2.5001333333333333
vertex -6.949883333333334 -8.3011 -2.5001333333333333
endloop
endfacet
facet normal 0 0 -1
outer loop
vertex -7.699866666666667 -8.067350000000001 -2.5001333333333333
vertex -6.949883333333334 -8.3011 -2.5001333333333333
vertex -8.450133333333333 -8.3011 -2.5001333333333333
endloop
endfacet
facet normal 0 0 -1
outer loop
vertex -7.699866666666667 -8.067350000000001 -2.5001333333333333
vertex -8.450133333333333 -8.3011 -2.5001333333333333
vertex -9.699916666666667 -8.3011 -2.5001333333333333
endloop
endfacet
facet normal 0 0 -1
outer loop
vertex -7.699866666666667 -8.067350000000001 -2.5001333333333333
vertex -9.699916666666667 -8.3011 -2.5001333333333333
vertex -9.699916666666667 -7.600133333333334 -2.5001333333333333
endloop
endfacet
facet normal 0 0 -1
outer loop
vertex -7.699866666666667 -8.067350000000001 -2.5001333333333333
vertex -9.699916666666667 -7.600133333333334 -2.5001333333333333
vertex -5.700100000000001 -7.600133333333334 -2.5001333333333333
endloop
endfacet
facet normal 0 0 -1
outer loop
vertex 7.699866666666667 -8.067350000000001 -2.5001333333333333
vertex 9.699916666666667 -7.600133333333334 -2.5001333333333333
vertex 9.699916666666667 -8.3011 -2.5001333333333333
endloop
endfacet
facet normal 0 0 -1
outer loop
vertex 7.699866666666667 -8.067350000000001 -2.5001333333333333
vertex 9.699916666666667 -8.3011 -2.5001333333333333
vertex 8.450133333333333 -8.3011 -2.5001333333333333
endloop
endfacet
facet normal 0 0 -1
outer loop
vertex 7.699866666666667 -8.067350000000001 -2.5001333333333333
vertex 8.450133333333333 -8.3011 -2.5001333333333333
vertex 6.949883333333334 -8.3011 -2.5001333333333333
endloop
endfacet
facet normal 0 0 -1
outer loop
vertex 7.699866666666667 -8.067350000000001 -2.5001333333333333
vertex 6.949883333333334 -8.3011 -2.5001333333333333
vertex 5.700100000000001 -8.3011 -2.5001333333333333
endloop
endfacet
facet normal 0 0 -1
outer loop
vertex 7.699866666666667 -8.067350000000001 -2.5001333333333333
vertex 5.700100000000001 -8.3011 -2.5001333333333333
vertex 5.700100000000001 -7.600133333333334 -2.5001333333333333
endloop
endfacet
facet normal 0 0 -1
outer loop
vertex 7.699866666666667 -8.067350000000001 -2.5001333333333333
vertex 5.700100000000001 -7.600133333333334 -2.5001333333333333
vertex 9.699916666666667 -7.600133333333334 -2.5001333333333333
endloop
endfacet
facet normal 0 0 -1
outer loop
vertex -8.450133333333333 -8.3011 -2.5001333333333333
vertex -9.200116666666668 -9.5999 -2.5001333333333333
vertex -9.699916666666667 -9.5999 -2.5001333333333333
endloop
endfacet
facet normal 0 0 -1
outer loop
vertex -8.450133333333333 -8.3011 -2.5001333333333333
vertex -9.699916666666667 -9.5999 -2.5001333333333333
vertex -9.699916666666667 -8.3011 -2.5001333333333333
endloop
endfacet
facet normal 0 0 -1
outer loop
vertex -5.700100000000001 -8.3011 -2.5001333333333333
vertex -5.700100000000001 -9.5999 -2.5001333333333333
vertex -6.1999 -9.5999 -2.5001333333333333
endloop
endfacet
facet normal 0 0 -1
outer loop
vertex -5.700100000000001 -8.3011 -2.5001333333333333
vertex -6.1999 -9.5999 -2.5001333333333333
vertex -6.949883333333334 -8.3011 -2.5001333333333333
endloop
endfacet
facet normal 0 0 -1
outer loop
vertex 6.949883333333334 -8.3011 -2.5001333333333333
vertex 6.1999 -9.5999 -2.5001333333333333
vertex 5.700100000000001 -9.5999 -2.5001333333333333
endloop
endfacet
facet normal 0 0 -1
outer loop
vertex 6.949883333333334 -8.3011 -2.5001333333333333
vertex 5.700100000000001 -9.5999 -2.5001333333333333
vertex 5.700100000000001 -8.3011 -2.5001333333333333
endloop
endfacet
facet normal 0 0 -1
outer loop
vertex 9.699916666666667 -8.3011 -2.5001333333333333
vertex 9.699916666666667 -9.5999 -2.5001333333333333
vertex 9.200116666666668 -9.5999 -2.5001333333333333
endloop
endfacet
facet normal 0 0 -1
outer loop
vertex 9.699916666666667 -8.3011 -2.5001333333333333
vertex 9.200116666666668 -9.5999 -2.5001333333333333
vertex 8.450133333333333 -8.3011 -2.5001333333333333
endloop
endfacet
facet normal 0 0 -1
outer loop
vertex -9.200116666666668 -9.5999 -2.5001333333333333
vertex -8.450133333333333 -10.898983333333334 -2.5001333333333333
vertex -9.699916666666667 -10.898983333333334 -2.5001333333333333
endloop
endfacet
facet normal 0 0 -1
outer loop
vertex -9.200116666666668 -9.5999 -2.5001333333333333
vertex -9.699916666666667 -10.898983333333334 -2.5001333333333333
vertex -9.699916666666667 -9.5999 -2.5001333333333333
endloop
endfacet
facet normal 0 0 -1
outer loop
vertex -5.700100000000001 -9.5999 -2.5001333333333333
vertex -5.700100000000001 -10.898983333333334 -2.5001333333333333
vertex -6.949883333333334 -10.898983333333334 -2.5001333333333333
endloop
endfacet
facet normal 0 0 -1
outer loop
vertex -5.700100000000001 -9.5999 -2.5001333333333333
vertex -6.949883333333334 -10.898983333333334 -2.5001333333333333
vertex -6.1999 -9.5999 -2.5001333333333333
endloop
endfacet
facet normal 0 0 -1
outer loop
vertex 6.1999 -9.5999 -2.5001333333333333
vertex 6.949883333333334 -10.898983333333334 -2.5001333333333333
vertex 5.700100000000001 -10.898983333333334 -2.5001333333333333
endloop
endfacet
facet normal 0 0 -1
outer loop
vertex 6.1999 -9.5999 -2.5001333333333333
vertex 5.700100000000001 -10.898983333333334 -2.5001333333333333
vertex 5.700100000000001 -9.5999 -2.5001333333333333
endloop
endfacet
facet normal 0 0 -1
outer loop
vertex 9.699916666666667 -9.5999 -2.5001333333333333
vertex 9.699916666666667 -10.898983333333334 -2.5001333333333333
vertex 8.450133333333333 -10.898983333333334 -2.5001333333333333
endloop
endfacet
facet normal 0 0 -1
outer loop
vertex 9.699916666666667 -9.5999 -2.5001333333333333
vertex 8.450133333333333 -10.898983333333334 -2.5001333333333333
vertex 9.200116666666668 -9.5999 -2.5001333333333333
endloop
endfacet
facet normal 0 0 -1
outer loop
vertex -7.699866666666667 -11.132733333333334 -2.5001333333333333
vertex -8.450133333333333 -10.898983333333334 -2.5001333333333333
vertex -6.949883333333334 -10.898983333333334 -2.5001333333333333
endloop
endfacet
facet normal 0 0 -1
outer loop
vertex -7.699866666666667 -11.132733333333334 -2.5001333333333333
vertex -6.949883333333334 -10.898983333333334 -2.5001333333333333
vertex -5.700100000000001 -10.898983333333334 -2.5001333333333333
endloop
endfacet
facet normal 0 0 -1
outer loop
vertex -7.699866666666667 -11.132733333333334 -2.5001333333333333
vertex -5.700100000000001 -10.898983333333334 -2.5001333333333333
vertex -5.700100000000001 -11.599950000000002 -2.5001333333333333
endloop
endfacet
facet normal 0 0 -1
outer loop
vertex -7.699866666666667 -11.132733333333334 -2.5001333333333333
vertex -5.700100000000001 -11.599950000000002 -2.5001333333333333
vertex -9.699916666666667 -11.599950000000002 -2.5001333333333333
endloop
endfacet
facet normal 0 0 -1
outer loop
vertex -7.699866666666667 -11.132733333333334 -2.5001333333333333
vertex -9.699916666666667 -11.599950000000002 -2.5001333333333333
vertex -9.699916666666667 -10.898983333333334 -2.5001333333333333
endloop
endfacet
facet normal 0 0 -1
outer loop
vertex -7.699866666666667 -11.132733333333334 -2.5001333333333333
vertex -9.699916666666667 -10.898983333333334 -2.5001333333333333
vertex -8.450133333333333 -10.898983333333334 -2.5001333333333333
endloop
endfacet
facet normal 0 0 -1
outer loop
vertex 7.699866666666667 -11.132733333333334 -2.5001333333333333
vertex 6.949883333333334 -10.898983333333334 -2.5001333333333333
vertex 8.450133333333333 -10.898983333333334 -2.5001333333333333
endloop
endfacet
facet normal 0 0 -1
outer loop
vertex 7.699866666666667 -11.132733333333334 -2.5001333333333333
vertex 8.450133333333333 -10.898983333333334 -2.5001333333333333
vertex 9.699916666666667 -10.898983333333334 -2.5001333333333333
endloop
endfacet
facet normal 0 0 -1
outer loop
vertex 7.699866666666667 -11.132733333333334 -2.5001333333333333
vertex 9.699916666666667 -10.898983333333334 -2.5001333333333333
vertex 9.699916666666667 -11.599950000000002 -2.5001333333333333
endloop
endfacet
facet normal 0 0 -1
outer loop
vertex 7.699866666666667 -11.132733333333334 -2.5001333333333333
vertex 9.699916666666667 -11.599950000000002 -2.5001333333333333
vertex 5.700100000000001 -11.599950000000002 -2.5001333333333333
endloop
endfacet
facet normal 0 0 -1
outer loop
vertex 7.699866666666667 -11.132733333333334 -2.5001333333333333
vertex 5.700100000000001 -11.599950000000002 -2.5001333333333333
vertex 5.700100000000001 -10.898983333333334 -2.5001333333333333
endloop
endfacet
facet normal 0 0 -1
outer loop
vertex 7.699866666666667 -11.132733333333334 -2.5001333333333333
vertex 5.700100000000001 -10.898983333333334 -2.5001333333333333
vertex 6.949883333333334 -10.898983333333334 -2.5001333333333333
endloop
endfacet
facet normal 0 0 -1
outer loop
vertex -7.699866666666667 -24.467250000000003 -2.5001333333333333
vertex -5.700100000000001 -24.000033333333334 -2.5001333333333333
vertex -5.700100000000001 -24.701 -2.5001333333333333
endloop
endfacet
facet normal 0 0 -1
outer loop
vertex -7.699866666666667 -24.467250000000003 -2.5001333333333333
vertex -5.700100000000001 -24.701 -2.5001333333333333
vertex -6.949883333333334 -24.701 -2.5001333333333333
endloop
endfacet
facet normal 0 0 -1
outer loop
vertex -7.699866666666667 -24.467250000000003 -2.5001333333333333
vertex -6.949883333333334 -24.701 -2.5001333333333333
vertex -8.450133333333333 -24.701 -2.5001333333333333
endloop
endfacet
facet normal 0 0 -1
outer loop
vertex -7.699866666666667 -24.467250000000003 -2.5001333333333333
vertex -8.450133333333333 -24.701 -2.5001333333333333
vertex -9.699916666666667 -24.701 -2.5001333333333333
endloop
endfacet
facet normal 0 0 -1
outer loop
vertex -7.699866666666667 -24.467250000000003 -2.5001333333333333
vertex -9.699916666666667 -24.701 -2.5001333333333333
vertex -9.699916666666667 -24.000033333333334 -2.5001333333333333
endloop
endfacet
facet normal 0 0 -1
outer loop
vertex -7.699866666666667 -24.467250000000003 -2.5001333333333333
vertex -9.699916666666667 -24.000033333333334 -2.5001333333333333
vertex -5.700100000000001 -24.000033333333334 -2.5001333333333333
endloop
endfacet
facet normal 0 0 -1
outer loop
vertex 7.699866666666667 -24.467250000000003 -2.5001333333333333
vertex 9.699916666666667 -24.000033333333334 -2.5001333333333333
vertex 9.699916666666667 -24.701 -2.5001333333333333
endloop
endfacet
facet normal 0 0 -1
outer loop
vertex 7.699866666666667 -24.467250000000003 -2.5001333333333333
vertex 9.699916666666667 -24.701 -2.5001333333333333
vertex 8.450133333333333 -24.701 -2.5001333333333333
endloop
endfacet
facet normal 0 0 -1
outer loop
vertex 7.699866666666667 -24.467250000000003 -2.5001333333333333
vertex 8.450133333333333 -24.701 -2.5001333333333333
vertex 6.949883333333334 -24.701 -2.5001333333333333
endloop
endfacet
facet normal 0 0 -1
outer loop
vertex 7.699866666666667 -24.467250000000003 -2.5001333333333333
vertex 6.949883333333334 -24.701 -2.5001333333333333
vertex 5.700100000000001 -24.701 -2.5001333333333333
endloop
endfacet
facet normal 0 0 -1
outer loop
vertex 7.699866666666667 -24.467250000000003 -2.5001333333333333
vertex 5.700100000000001 -24.701 -2.5001333333333333
vertex 5.700100000000001 -24.000033333333334 -2.5001333333333333
endloop
endfacet
facet normal 0 0 -1
outer loop
vertex 7.699866666666667 -24.467250000000003 -2.5001333333333333
vertex 5.700100000000001 -24.000033333333334 -2.5001333333333333
vertex 9.699916666666667 -24.000033333333334 -2.5001333333333333
endloop
endfacet
facet normal 0 0 -1
outer loop
vertex -8.450133333333333 -24.701 -2.5001333333333333
vertex -9.200116666666668 -26.000083333333336 -2.5001333333333333
vertex -9.699916666666667 -26.000083333333336 -2.5001333333333333
endloop
endfacet
facet normal 0 0 -1
outer loop
vertex -8.450133333333333 -24.701 -2.5001333333333333
vertex -9.699916666666667 -26.000083333333336 -2.5001333333333333
vertex -9.699916666666667 -24.701 -2.5001333333333333
endloop
endfacet
facet normal 0 0 -0.9999999999999999
outer loop
vertex -5.700100000000001 -24.701 -2.5001333333333333
vertex -5.700100000000001 -26.000083333333336 -2.5001333333333333
vertex -6.1999 -26.000083333333336 -2.5001333333333333
endloop
endfacet
facet normal 0 0 -1
outer loop
vertex -5.700100000000001 -24.701 -2.5001333333333333
vertex -6.1999 -26.000083333333336 -2.5001333333333333
vertex -6.949883333333334 -24.701 -2.5001333333333333
endloop
endfacet
facet normal 0 0 -0.9999999999999999
outer loop
vertex 6.949883333333334 -24.701 -2.5001333333333333
vertex 6.1999 -26.000083333333336 -2.5001333333333333
vertex 5.700100000000001 -26.000083333333336 -2.5001333333333333
endloop
endfacet
facet normal 0 0 -1
outer loop
vertex 6.949883333333334 -24.701 -2.5001333333333333
vertex 5.700100000000001 -26.000083333333336 -2.5001333333333333
vertex 5.700100000000001 -24.701 -2.5001333333333333
endloop
endfacet
facet normal 0 0 -0.9999999999999999
outer loop
vertex 9.699916666666667 -24.701 -2.5001333333333333
vertex 9.699916666666667 -26.000083333333336 -2.5001333333333333
vertex 9.200116666666668 -26.000083333333336 -2.5001333333333333
endloop
endfacet
facet normal 0 0 -1
outer loop
vertex 9.699916666666667 -24.701 -2.5001333333333333
vertex 9.200116666666668 -26.000083333333336 -2.5001333333333333
vertex 8.450133333333333 -24.701 -2.5001333333333333
endloop
endfacet
facet normal 0 0 -1
outer loop
vertex -9.200116666666668 -26.000083333333336 -2.5001333333333333
vertex -8.450133333333333 -27.299166666666668 -2.5001333333333333
vertex -9.699916666666667 -27.299166666666668 -2.5001333333333333
endloop
endfacet
facet normal 0 0 -0.9999999999999999
outer loop
vertex -9.200116666666668 -26.000083333333336 -2.5001333333333333
vertex -9.699916666666667 -27.299166666666668 -2.5001333333333333
vertex -9.699916666666667 -26.000083333333336 -2.5001333333333333
endloop
endfacet
facet normal 0 0 -0.9999999999999999
outer loop
vertex -5.700100000000001 -26.000083333333336 -2.5001333333333333
vertex -5.700100000000001 -27.299166666666668 -2.5001333333333333
vertex -6.949883333333334 -27.299166666666668 -2.5001333333333333
endloop
endfacet
facet normal 0 0 -1
outer loop
vertex -5.700100000000001 -26.000083333333336 -2.5001333333333333
vertex -6.949883333333334 -27.299166666666668 -2.5001333333333333
vertex -6.1999 -26.000083333333336 -2.5001333333333333
endloop
endfacet
facet normal 0 0 -0.9999999999999999
outer loop
vertex 6.1999 -26.000083333333336 -2.5001333333333333
vertex 6.949883333333334 -27.299166666666668 -2.5001333333333333
vertex 5.700100000000001 -27.299166666666668 -2.5001333333333333
endloop
endfacet
facet normal 0 0 -1
outer loop
vertex 6.1999 -26.000083333333336 -2.5001333333333333
vertex 5.700100000000001 -27.299166666666668 -2.5001333333333333
vertex 5.700100000000001 -26.000083333333336 -2.5001333333333333
endloop
endfacet
facet normal 0 0 -0.9999999999999999
outer loop
vertex 9.699916666666667 -26.000083333333336 -2.5001333333333333
vertex 9.699916666666667 -27.299166666666668 -2.5001333333333333
vertex 8.450133333333333 -27.299166666666668 -2.5001333333333333
endloop
endfacet
facet normal 0 0 -0.9999999999999999
outer loop
vertex 9.699916666666667 -26.000083333333336 -2.5001333333333333
vertex 8.450133333333333 -27.299166666666668 -2.5001333333333333
vertex 9.200116666666668 -26.000083333333336 -2.5001333333333333
endloop
endfacet
facet normal 0 0 -1
outer loop
vertex -7.699866666666667 -27.53291666666667 -2.5001333333333333
vertex -8.450133333333333 -27.299166666666668 -2.5001333333333333
vertex -6.949883333333334 -27.299166666666668 -2.5001333333333333
endloop
endfacet
facet normal 0 0 -1
outer loop
vertex -7.699866666666667 -27.53291666666667 -2.5001333333333333
vertex -6.949883333333334 -27.299166666666668 -2.5001333333333333
vertex -5.700100000000001 -27.299166666666668 -2.5001333333333333
endloop
endfacet
facet normal 0 0 -1
outer loop
vertex -7.699866666666667 -27.53291666666667 -2.5001333333333333
vertex -5.700100000000001 -27.299166666666668 -2.5001333333333333
vertex -5.700100000000001 -28.000133333333334 -2.5001333333333333
endloop
endfacet
facet normal 0 0 -0.9999999999999999
outer loop
vertex -7.699866666666667 -27.53291666666667 -2.5001333333333333
vertex -5.700100000000001 -28.000133333333334 -2.5001333333333333
vertex -9.699916666666667 -28.000133333333334 -2.5001333333333333
endloop
endfacet
facet normal 0 0 -1
outer loop
vertex -7.699866666666667 -27.53291666666667 -2.5001333333333333
vertex -9.699916666666667 -28.000133333333334 -2.5001333333333333
vertex -9.699916666666667 -27.299166666666668 -2.5001333333333333
endloop
endfacet
facet normal 0 0 -1
outer loop
vertex -7.699866666666667 -27.53291666666667 -2.5001333333333333
vertex -9.699916666666667 -27.299166666666668 -2.5001333333333333
vertex -8.450133333333333 -27.299166666666668 -2.5001333333333333
endloop
endfacet
facet normal 0 0 -1
outer loop
vertex 7.699866666666667 -27.53291666666667 -2.5001333333333333
vertex 6.949883333333334 -27.299166666666668 -2.5001333333333333
vertex 8.450133333333333 -27.299166666666668 -2.5001333333333333
endloop
endfacet
facet normal 0 0 -1
outer loop
vertex 7.699866666666667 -27.53291666666667 -2.5001333333333333
vertex 8.450133333333333 -27.299166666666668 -2.5001333333333333
vertex 9.699916666666667 -27.299166666666668 -2.5001333333333333
endloop
endfacet
facet normal 0 0 -1
outer loop
vertex 7.699866666666667 -27.53291666666667 -2.5001333333333333
vertex 9.699916666666667 -27.299166666666668 -2.5001333333333333
vertex 9.699916666666667 -28.000133333333334 -2.5001333333333333
endloop
endfacet
facet normal 0 0 -0.9999999999999999
outer loop
vertex 7.699866666666667 -27.53291666666667 -2.5001333333333333
vertex 9.699916666666667 -28.000133333333334 -2.5001333333333333
vertex 5.700100000000001 -28.000133333333334 -2.5001333333333333
endloop
endfacet
facet normal 0 0 -1
outer loop
vertex 7.699866666666667 -27.53291666666667 -2.5001333333333333
vertex 5.700100000000001 -28.000133333333334 -2.5001333333333333
vertex 5.700100000000001 -27.299166666666668 -2.5001333333333333
endloop
endfacet
facet normal 0 0 -1
outer loop
vertex 7.699866666666667 -27.53291666666667 -2.5001333333333333
vertex 5.700100000000001 -27.299166666666668 -2.5001333333333333
vertex 6.949883333333334 -27.299166666666668 -2.5001333333333333
endloop
endfacet
facet normal -0.8659905236618647 -0.5000604092785682 0
outer loop
vertex -6.1999 -9.5999 -2.5001333333333333
vertex -6.1999 -9.5999 -0.5000833333333333
vertex -6.949883333333334 -8.3011 -0.5000833333333333
endloop
endfacet
facet normal -0.8659905236618647 -0.5000604092785682 0
outer loop
vertex -6.1999 -9.5999 -2.5001333333333333
vertex -6.949883333333334 -8.3011 -0.5000833333333333
vertex -6.949883333333334 -8.3011 -2.5001333333333333
endloop
endfacet
facet normal 0.8659905236618644 -0.5000604092785687 0
outer loop
vertex -8.450133333333333 -8.3011 -2.5001333333333333
vertex -8.450133333333333 -8.3011 -0.5000833333333333
vertex -9.200116666666668 -9.5999 -0.5000833333333333
endloop
endfacet
facet normal 0.8659905236618644 -0.5000604092785687 0
outer loop
vertex -8.450133333333333 -8.3011 -2.5001333333333333
vertex -9.200116666666668 -9.5999 -0.5000833333333333
vertex -9.200116666666668 -9.5999 -2.5001333333333333
endloop
endfacet
facet normal 0.8660377524614729 0.499978610853985 0
outer loop
vertex -9.200116666666668 -9.5999 -2.5001333333333333
vertex -9.200116666666668 -9.5999 -0.5000833333333333
vertex -8.450133333333333 -10.898983333333334 -0.5000833333333333
endloop
endfacet
facet normal 0.8660377524614729 0.499978610853985 0
outer loop
vertex -9.200116666666668 -9.5999 -2.5001333333333333
vertex -8.450133333333333 -10.898983333333334 -0.5000833333333333
vertex -8.450133333333333 -10.898983333333334 -2.5001333333333333
endloop
endfacet
facet normal -0.8660377524614731 0.4999786108539846 0
outer loop
vertex -6.949883333333334 -10.898983333333334 -2.5001333333333333
vertex -6.949883333333334 -10.898983333333334 -0.5000833333333333
vertex -6.1999 -9.5999 -0.5000833333333333
endloop
endfacet
facet normal -0.8660377524614731 0.4999786108539846 0
outer loop
vertex -6.949883333333334 -10.898983333333334 -2.5001333333333333
vertex -6.1999 -9.5999 -0.5000833333333333
vertex -6.1999 -9.5999 -2.5001333333333333
endloop
endfacet
facet normal -0.8660377524614731 -0.4999786108539845 0
outer loop
vertex 9.200116666666668 -26.000083333333336 -2.5001333333333333
vertex 9.200116666666668 -26.000083333333336 -0.5000833333333333
vertex 8.450133333333333 -24.701 -0.5000833333333333
endloop
endfacet
facet normal -0.8660377524614731 -0.4999786108539845 0
outer loop
vertex 9.200116666666668 -26.000083333333336 -2.5001333333333333
vertex 8.450133333333333 -24.701 -0.5000833333333333
vertex 8.450133333333333 -24.701 -2.5001333333333333
endloop
endfacet
facet normal 0 -1 0
outer loop
vertex 6.949883333333334 -24.701 -0.5000833333333333
vertex 6.949883333333334 -24.701 -2.5001333333333333
vertex 8.450133333333333 -24.701 -2.5001333333333333
endloop
endfacet
facet normal 0 -1 0
outer loop
vertex 6.949883333333334 -24.701 -0.5000833333333333
vertex 8.450133333333333 -24.701 -2.5001333333333333
vertex 8.450133333333333 -24.701 -0.5000833333333333
endloop
endfacet
facet normal 0 -1 0
outer loop
vertex -8.450133333333333 -24.701 -0.5000833333333333
vertex -8.450133333333333 -24.701 -2.5001333333333333
vertex -6.949883333333334 -24.701 -2.5001333333333333
endloop
endfacet
facet normal 0 -1 0
outer loop
vertex -8.450133333333333 -24.701 -0.5000833333333333
vertex -6.949883333333334 -24.701 -2.5001333333333333
vertex -6.949883333333334 -24.701 -0.5000833333333333
endloop
endfacet
facet normal 0.8660377524614734 -0.4999786108539841 0
outer loop
vertex 6.949883333333334 -24.701 -2.5001333333333333
vertex 6.949883333333334 -24.701 -0.5000833333333333
vertex 6.1999 -26.000083333333336 -0.5000833333333333
endloop
endfacet
facet normal 0.8660377524614734 -0.4999786108539841 0
outer loop
vertex 6.949883333333334 -24.701 -2.5001333333333333
vertex 6.1999 -26.000083333333336 -0.5000833333333333
vertex 6.1999 -26.000083333333336 -2.5001333333333333
endloop
endfacet
facet normal 0.8660377524614727 0.4999786108539851 0
outer loop
vertex 6.1999 -26.000083333333336 -2.5001333333333333
vertex 6.1999 -26.000083333333336 -0.5000833333333333
vertex 6.949883333333334 -27.299166666666668 -0.5000833333333333
endloop
endfacet
facet normal 0.8660377524614727 0.4999786108539851 0
outer loop
vertex 6.1999 -26.000083333333336 -2.5001333333333333
vertex 6.949883333333334 -27.299166666666668 -0.5000833333333333
vertex 6.949883333333334 -27.299166666666668 -2.5001333333333333
endloop
endfacet
facet normal 0 1 0
outer loop
vertex -6.949883333333334 -27.299166666666668 -0.5000833333333333
vertex -6.949883333333334 -27.299166666666668 -2.5001333333333333
vertex -8.450133333333333 -27.299166666666668 -2.5001333333333333
endloop
endfacet
facet normal 0 1 0
outer loop
vertex -6.949883333333334 -27.299166666666668 -0.5000833333333333
vertex -8.450133333333333 -27.299166666666668 -2.5001333333333333
vertex -8.450133333333333 -27.299166666666668 -0.5000833333333333
endloop
endfacet
facet normal 0 1 0
outer loop
vertex 8.450133333333333 -27.299166666666668 -0.5000833333333333
vertex 8.450133333333333 -27.299166666666668 -2.5001333333333333
vertex 6.949883333333334 -27.299166666666668 -2.5001333333333333
endloop
endfacet
facet normal 0 1 0
outer loop
vertex 8.450133333333333 -27.299166666666668 -0.5000833333333333
vertex 6.949883333333334 -27.299166666666668 -2.5001333333333333
vertex 6.949883333333334 -27.299166666666668 -0.5000833333333333
endloop
endfacet
facet normal -0.8660377524614725 0.4999786108539855 0
outer loop
vertex 8.450133333333333 -27.299166666666668 -2.5001333333333333
vertex 8.450133333333333 -27.299166666666668 -0.5000833333333333
vertex 9.200116666666668 -26.000083333333336 -0.5000833333333333
endloop
endfacet
facet normal -0.8660377524614725 0.4999786108539855 0
outer loop
vertex 8.450133333333333 -27.299166666666668 -2.5001333333333333
vertex 9.200116666666668 -26.000083333333336 -0.5000833333333333
vertex 9.200116666666668 -26.000083333333336 -2.5001333333333333
endloop
endfacet
facet normal -0.8660377524614734 -0.4999786108539841 0
outer loop
vertex -6.1999 -26.000083333333336 -2.5001333333333333
vertex -6.1999 -26.000083333333336 -0.5000833333333333
vertex -6.949883333333334 -24.701 -0.5000833333333333
endloop
endfacet
facet normal -0.8660377524614734 -0.4999786108539841 0
outer loop
vertex -6.1999 -26.000083333333336 -2.5001333333333333
vertex -6.949883333333334 -24.701 -0.5000833333333333
vertex -6.949883333333334 -24.701 -2.5001333333333333
endloop
endfacet
facet normal 0.8660377524614731 -0.4999786108539845 0
outer loop
vertex -8.450133333333333 -24.701 -2.5001333333333333
vertex -8.450133333333333 -24.701 -0.5000833333333333
vertex -9.200116666666668 -26.000083333333336 -0.5000833333333333
endloop
endfacet
facet normal 0.8660377524614731 -0.4999786108539845 0
outer loop
vertex -8.450133333333333 -24.701 -2.5001333333333333
vertex -9.200116666666668 -26.000083333333336 -0.5000833333333333
vertex -9.200116666666668 -26.000083333333336 -2.5001333333333333
endloop
endfacet
facet normal 0.8660377524614725 0.4999786108539855 0
outer loop
vertex -9.200116666666668 -26.000083333333336 -2.5001333333333333
vertex -9.200116666666668 -26.000083333333336 -0.5000833333333333
vertex -8.450133333333333 -27.299166666666668 -0.5000833333333333
endloop
endfacet
facet normal 0.8660377524614725 0.4999786108539855 0
outer loop
vertex -9.200116666666668 -26.000083333333336 -2.5001333333333333
vertex -8.450133333333333 -27.299166666666668 -0.5000833333333333
vertex -8.450133333333333 -27.299166666666668 -2.5001333333333333
endloop
endfacet
facet normal -0.8660377524614727 0.4999786108539851 0
outer loop
vertex -6.949883333333334 -27.299166666666668 -2.5001333333333333
vertex -6.949883333333334 -27.299166666666668 -0.5000833333333333
vertex -6.1999 -26.000083333333336 -0.5000833333333333
endloop
endfacet
facet normal -0.8660377524614727 0.4999786108539851 0
outer loop
vertex -6.949883333333334 -27.299166666666668 -2.5001333333333333
vertex -6.1999 -26.000083333333336 -0.5000833333333333
vertex -6.1999 -26.000083333333336 -2.5001333333333333
endloop
endfacet
facet normal -1 0 0
outer loop
vertex -7.799883333333334 24.500116666666667 -4.999983333333334
vertex -7.799883333333334 24.500116666666667 -4.000100000000001
vertex -7.799883333333334 26.499883333333337 -4.000100000000001
endloop
endfacet
facet normal -1 0 0
outer loop
vertex -7.799883333333334 24.500116666666667 -4.999983333333334
vertex -7.799883333333334 26.499883333333337 -4.000100000000001
vertex -7.799883333333334 26.499883333333337 -4.999983333333334
endloop
endfacet
facet normal 1 0 0
outer loop
vertex -3.800066666666667 24.500116666666667 -4.999983333333334
vertex -3.800066666666667 26.499883333333337 -4.999983333333334
vertex -3.800066666666667 26.499883333333337 -4.000100000000001
endloop
endfacet
facet normal 1 0 0
outer loop
vertex -3.800066666666667 24.500116666666667 -4.999983333333334
vertex -3.800066666666667 26.499883333333337 -4.000100000000001
vertex -3.800066666666667 24.500116666666667 -4.000100000000001
endloop
endfacet
facet normal 0 -0.9999999999999999 0
outer loop
vertex 3.800066666666667 24.500116666666667 -4.000100000000001
vertex 3.800066666666667 24.500116666666667 -4.999983333333334
vertex 7.799883333333334 24.500116666666667 -4.999983333333334
endloop
endfacet
facet normal 0 -0.9999999999999999 0
outer loop
vertex 3.800066666666667 24.500116666666667 -4.000100000000001
vertex 7.799883333333334 24.500116666666667 -4.999983333333334
vertex 7.799883333333334 24.500116666666667 -4.000100000000001
endloop
endfacet
facet normal 0 -0.9999999999999999 0
outer loop
vertex -7.799883333333334 24.500116666666667 -4.000100000000001
vertex -7.799883333333334 24.500116666666667 -4.999983333333334
vertex -3.800066666666667 24.500116666666667 -4.999983333333334
endloop
endfacet
facet normal 0 -0.9999999999999999 0
outer loop
vertex -7.799883333333334 24.500116666666667 -4.000100000000001
vertex -3.800066666666667 24.500116666666667 -4.999983333333334
vertex -3.800066666666667 24.500116666666667 -4.000100000000001
endloop
endfacet
facet normal 0 0 -1
outer loop
vertex -7.160116666666667 27.300016666666668 -4.999983333333334
vertex -4.000100000000001 28.499933333333335 -4.999983333333334
vertex -4.000100000000001 26.499883333333337 -4.999983333333334
endloop
endfacet
facet normal 0 0 -1
outer loop
vertex -7.160116666666667 27.300016666666668 -4.999983333333334
vertex -4.000100000000001 26.499883333333337 -4.999983333333334
vertex -7.799883333333334 26.499883333333337 -4.999983333333334
endloop
endfacet
facet normal 0 0 -0.9999999999999999
outer loop
vertex -7.160116666666667 27.300016666666668 -4.999983333333334
vertex -7.799883333333334 26.499883333333337 -4.999983333333334
vertex -9.999966666666667 26.499883333333337 -4.999983333333334
endloop
endfacet
facet normal 0 0 -1
outer loop
vertex -7.160116666666667 27.300016666666668 -4.999983333333334
vertex -9.999966666666667 26.499883333333337 -4.999983333333334
vertex -9.999966666666667 28.499933333333335 -4.999983333333334
endloop
endfacet
facet normal 0 0 -1
outer loop
vertex -7.160116666666667 27.300016666666668 -4.999983333333334
vertex -9.999966666666667 28.499933333333335 -4.999983333333334
vertex -4.000100000000001 28.499933333333335 -4.999983333333334
endloop
endfacet
facet normal 0 0 -1
outer loop
vertex 7.160116666666667 27.300016666666668 -4.999983333333334
vertex 9.999966666666667 28.499933333333335 -4.999983333333334
vertex 9.999966666666667 26.499883333333337 -4.999983333333334
endloop
endfacet
facet normal 0 0 -0.9999999999999999
outer loop
vertex 7.160116666666667 27.300016666666668 -4.999983333333334
vertex 9.999966666666667 26.499883333333337 -4.999983333333334
vertex 7.799883333333334 26.499883333333337 -4.999983333333334
endloop
endfacet
facet normal 0 0 -1
outer loop
vertex 7.160116666666667 27.300016666666668 -4.999983333333334
vertex 7.799883333333334 26.499883333333337 -4.999983333333334
vertex 4.000100000000001 26.499883333333337 -4.999983333333334
endloop
endfacet
facet normal 0 0 -1
outer loop
vertex 7.160116666666667 27.300016666666668 -4.999983333333334
vertex 4.000100000000001 26.499883333333337 -4.999983333333334
vertex 4.000100000000001 28.499933333333335 -4.999983333333334
endloop
endfacet
facet normal 0 0 -1
outer loop
vertex 7.160116666666667 27.300016666666668 -4.999983333333334
vertex 4.000100000000001 28.499933333333335 -4.999983333333334
vertex 9.999966666666667 28.499933333333335 -4.999983333333334
endloop
endfacet
facet normal 0 0 -1
outer loop
vertex -5.44 25.700033333333334 -4.999983333333334
vertex -4.000100000000001 26.499883333333337 -4.999983333333334
vertex -3.800066666666667 26.499883333333337 -4.999983333333334
endloop
endfacet
facet normal 0 0 -0.9999999999999999
outer loop
vertex -5.44 25.700033333333334 -4.999983333333334
vertex -3.800066666666667 26.499883333333337 -4.999983333333334
vertex -3.800066666666667 24.500116666666667 -4.999983333333334
endloop
endfacet
facet normal 0 0 -1
outer loop
vertex -5.44 25.700033333333334 -4.999983333333334
vertex -3.800066666666667 24.500116666666667 -4.999983333333334
vertex -7.799883333333334 24.500116666666667 -4.999983333333334
endloop
endfacet
facet normal 0 0 -1
outer loop
vertex -5.44 25.700033333333334 -4.999983333333334
vertex -7.799883333333334 24.500116666666667 -4.999983333333334
vertex -7.799883333333334 26.499883333333337 -4.999983333333334
endloop
endfacet
facet normal 0 0 -1
outer loop
vertex -5.44 25.700033333333334 -4.999983333333334
vertex -7.799883333333334 26.499883333333337 -4.999983333333334
vertex -4.000100000000001 26.499883333333337 -4.999983333333334
endloop
endfacet
facet normal 0 0 -1
outer loop
vertex 5.44 25.700033333333334 -4.999983333333334
vertex 4.000100000000001 26.499883333333337 -4.999983333333334
vertex 7.799883333333334 26.499883333333337 -4.999983333333334
endloop
endfacet
facet normal 0 0 -1
outer loop
vertex 5.44 25.700033333333334 -4.999983333333334
vertex 7.799883333333334 26.499883333333337 -4.999983333333334
vertex 7.799883333333334 24.500116666666667 -4.999983333333334
endloop
endfacet
facet normal 0 0 -1
outer loop
vertex 5.44 25.700033333333334 -4.999983333333334
vertex 7.799883333333334 24.500116666666667 -4.999983333333334
vertex 3.800066666666667 24.500116666666667 -4.999983333333334
endloop
endfacet
facet normal 0 0 -0.9999999999999999
outer loop
vertex 5.44 25.700033333333334 -4.999983333333334
vertex 3.800066666666667 24.500116666666667 -4.999983333333334
vertex 3.800066666666667 26.499883333333337 -4.999983333333334
endloop
endfacet
facet normal 0 0 -1
outer loop
vertex 5.44 25.700033333333334 -4.999983333333334
vertex 3.800066666666667 26.499883333333337 -4.999983333333334
vertex 4.000100000000001 26.499883333333337 -4.999983333333334
endloop
endfacet
facet normal 0 0 1
outer loop
vertex 5.44 25.700033333333334 -4.000100000000001
vertex 4.000100000000001 26.499883333333337 -4.000100000000001
vertex 3.800066666666667 26.499883333333337 -4.000100000000001
endloop
endfacet
facet normal 0 0 0.9999999999999999
outer loop
vertex 5.44 25.700033333333334 -4.000100000000001
vertex 3.800066666666667 26.499883333333337 -4.000100000000001
vertex 3.800066666666667 24.500116666666667 -4.000100000000001
endloop
endfacet
facet normal 0 0 1
outer loop
vertex 5.44 25.700033333333334 -4.000100000000001
vertex 3.800066666666667 24.500116666666667 -4.000100000000001
vertex 7.799883333333334 24.500116666666667 -4.000100000000001
endloop
endfacet
facet normal 0 0 1
outer loop
vertex 5.44 25.700033333333334 -4.000100000000001
vertex 7.799883333333334 24.500116666666667 -4.000100000000001
vertex 7.799883333333334 26.499883333333337 -4.000100000000001
endloop
endfacet
facet normal 0 0 1
outer loop
vertex 5.44 25.700033333333334 -4.000100000000001
vertex 7.799883333333334 26.499883333333337 -4.000100000000001
vertex 4.000100000000001 26.499883333333337 -4.000100000000001
endloop
endfacet
facet normal 0 0 1
outer loop
vertex -5.44 25.700033333333334 -4.000100000000001
vertex -4.000100000000001 26.499883333333337 -4.000100000000001
vertex -7.799883333333334 26.499883333333337 -4.000100000000001
endloop
endfacet
facet normal 0 0 1
outer loop
vertex -5.44 25.700033333333334 -4.000100000000001
vertex -7.799883333333334 26.499883333333337 -4.000100000000001
vertex -7.799883333333334 24.500116666666667 -4.000100000000001
endloop
endfacet
facet normal 0 0 1
outer loop
vertex -5.44 25.700033333333334 -4.000100000000001
vertex -7.799883333333334 24.500116666666667 -4.000100000000001
vertex -3.800066666666667 24.500116666666667 -4.000100000000001
endloop
endfacet
facet normal 0 0 0.9999999999999999
outer loop
vertex -5.44 25.700033333333334 -4.000100000000001
vertex -3.800066666666667 24.500116666666667 -4.000100000000001
vertex -3.800066666666667 26.499883333333337 -4.000100000000001
endloop
endfacet
facet normal 0 0 1
outer loop
vertex -5.44 25.700033333333334 -4.000100000000001
vertex -3.800066666666667 26.499883333333337 -4.000100000000001
vertex -4.000100000000001 26.499883333333337 -4.000100000000001
endloop
endfacet
facet normal 0 -1 0
outer loop
vertex 0 26.499883333333337 -1.6665666666666668
vertex -9.999966666666667 26.499883333333337 -0.9998833333333335
vertex -9.999966666666667 26.499883333333337 -2.0000500000000003
endloop
endfacet
facet normal 0 -1 0
outer loop
vertex 0 26.499883333333337 -1.6665666666666668
vertex -9.999966666666667 26.499883333333337 -2.0000500000000003
vertex -4.000100000000001 26.499883333333337 -2.0000500000000003
endloop
endfacet
facet normal 0 -1 0
outer loop
vertex 0 26.499883333333337 -1.6665666666666668
vertex -4.000100000000001 26.499883333333337 -2.0000500000000003
vertex 4.000100000000001 26.499883333333337 -2.0000500000000003
endloop
endfacet
facet normal 0 -1 0
outer loop
vertex 0 26.499883333333337 -1.6665666666666668
vertex 4.000100000000001 26.499883333333337 -2.0000500000000003
vertex 9.999966666666667 26.499883333333337 -2.0000500000000003
endloop
endfacet
facet normal 0 -1 0
outer loop
vertex 0 26.499883333333337 -1.6665666666666668
vertex 9.999966666666667 26.499883333333337 -2.0000500000000003
vertex 9.999966666666667 26.499883333333337 -0.9998833333333335
endloop
endfacet
facet normal 0 -1 0
outer loop
vertex 0 26.499883333333337 -1.6665666666666668
vertex 9.999966666666667 26.499883333333337 -0.9998833333333335
vertex -9.999966666666667 26.499883333333337 -0.9998833333333335
endloop
endfacet
facet normal 0 -1 0
outer loop
vertex 7.160116666666667 26.499883333333337 -3.199966666666667
vertex 4.000100000000001 26.499883333333337 -2.0000500000000003
vertex 4.000100000000001 26.499883333333337 -4.000100000000001
endloop
endfacet
facet normal 0 -1 0
outer loop
vertex 7.160116666666667 26.499883333333337 -3.199966666666667
vertex 4.000100000000001 26.499883333333337 -4.000100000000001
vertex 7.799883333333334 26.499883333333337 -4.000100000000001
endloop
endfacet
facet normal 0 -1 0
outer loop
vertex 7.160116666666667 26.499883333333337 -3.199966666666667
vertex 7.799883333333334 26.499883333333337 -4.000100000000001
vertex 9.999966666666667 26.499883333333337 -4.000100000000001
endloop
endfacet
facet normal 0 -1 0
outer loop
vertex 7.160116666666667 26.499883333333337 -3.199966666666667
vertex 9.999966666666667 26.499883333333337 -4.000100000000001
vertex 9.999966666666667 26.499883333333337 -2.0000500000000003
endloop
endfacet
facet normal 0 -1 0
outer loop
vertex 7.160116666666667 26.499883333333337 -3.199966666666667
vertex 9.999966666666667 26.499883333333337 -2.0000500000000003
vertex 4.000100000000001 26.499883333333337 -2.0000500000000003
endloop
endfacet
facet normal 0 -1 0
outer loop
vertex -7.160116666666667 26.499883333333337 -3.199966666666667
vertex -9.999966666666667 26.499883333333337 -2.0000500000000003
vertex -9.999966666666667 26.499883333333337 -4.000100000000001
endloop
endfacet
facet normal 0 -1 0
outer loop
vertex -7.160116666666667 26.499883333333337 -3.199966666666667
vertex -9.999966666666667 26.499883333333337 -4.000100000000001
vertex -7.799883333333334 26.499883333333337 -4.000100000000001
endloop
endfacet
facet normal 0 -1 0
outer loop
vertex -7.160116666666667 26.499883333333337 -3.199966666666667
vertex -7.799883333333334 26.499883333333337 -4.000100000000001
vertex -4.000100000000001 26.499883333333337 -4.000100000000001
endloop
endfacet
facet normal 0 -1 0
outer loop
vertex -7.160116666666667 26.499883333333337 -3.199966666666667
vertex -4.000100000000001 26.499883333333337 -4.000100000000001
vertex -4.000100000000001 26.499883333333337 -2.0000500000000003
endloop
endfacet
facet normal 0 -1 0
outer loop
vertex -7.160116666666667 26.499883333333337 -3.199966666666667
vertex -4.000100000000001 26.499883333333337 -2.0000500000000003
vertex -9.999966666666667 26.499883333333337 -2.0000500000000003
endloop
endfacet
facet normal 0 -1 0
outer loop
vertex 7.799883333333334 26.499883333333337 -4.000100000000001
vertex 7.799883333333334 26.499883333333337 -4.999983333333334
vertex 9.999966666666667 26.499883333333337 -4.999983333333334
endloop
endfacet
facet normal 0 -1 0
outer loop
vertex 7.799883333333334 26.499883333333337 -4.000100000000001
vertex 9.999966666666667 26.499883333333337 -4.999983333333334
vertex 9.999966666666667 26.499883333333337 -4.000100000000001
endloop
endfacet
facet normal 0 -1 0
outer loop
vertex -9.999966666666667 26.499883333333337 -4.000100000000001
vertex -9.999966666666667 26.499883333333337 -4.999983333333334
vertex -7.799883333333334 26.499883333333337 -4.999983333333334
endloop
endfacet
facet normal 0 -1 0
outer loop
vertex -9.999966666666667 26.499883333333337 -4.000100000000001
vertex -7.799883333333334 26.499883333333337 -4.999983333333334
vertex -7.799883333333334 26.499883333333337 -4.000100000000001
endloop
endfacet
facet normal -1 0 0
outer loop
vertex 3.800066666666667 24.500116666666667 -4.999983333333334
vertex 3.800066666666667 24.500116666666667 -4.000100000000001
vertex 3.800066666666667 26.499883333333337 -4.000100000000001
endloop
endfacet
facet normal -1 0 0
outer loop
vertex 3.800066666666667 24.500116666666667 -4.999983333333334
vertex 3.800066666666667 26.499883333333337 -4.000100000000001
vertex 3.800066666666667 26.499883333333337 -4.999983333333334
endloop
endfacet
facet normal 1 0 0
outer loop
vertex 7.799883333333334 24.500116666666667 -4.999983333333334
vertex 7.799883333333334 26.499883333333337 -4.999983333333334
vertex 7.799883333333334 26.499883333333337 -4.000100000000001
endloop
endfacet
facet normal 1 0 0
outer loop
vertex 7.799883333333334 24.500116666666667 -4.999983333333334
vertex 7.799883333333334 26.499883333333337 -4.000100000000001
vertex 7.799883333333334 24.500116666666667 -4.000100000000001
endloop
endfacet
facet normal 1 0 0
outer loop
vertex -4.000100000000001 27.300016666666668 -3.6000333333333336
vertex -4.000100000000001 28.499933333333335 -4.999983333333334
vertex -4.000100000000001 28.499933333333335 -2.0000500000000003
endloop
endfacet
facet normal 1 0 0
outer loop
vertex -4.000100000000001 27.300016666666668 -3.6000333333333336
vertex -4.000100000000001 28.499933333333335 -2.0000500000000003
vertex -4.000100000000001 26.499883333333337 -2.0000500000000003
endloop
endfacet
facet normal 1 0 0
outer loop
vertex -4.000100000000001 27.300016666666668 -3.6000333333333336
vertex -4.000100000000001 26.499883333333337 -2.0000500000000003
vertex -4.000100000000001 26.499883333333337 -4.000100000000001
endloop
endfacet
facet normal 0.9999999999999999 0 0
outer loop
vertex -4.000100000000001 27.300016666666668 -3.6000333333333336
vertex -4.000100000000001 26.499883333333337 -4.000100000000001
vertex -4.000100000000001 26.499883333333337 -4.999983333333334
endloop
endfacet
facet normal 0.9999999999999999 0 0
outer loop
vertex -4.000100000000001 27.300016666666668 -3.6000333333333336
vertex -4.000100000000001 26.499883333333337 -4.999983333333334
vertex -4.000100000000001 28.499933333333335 -4.999983333333334
endloop
endfacet
facet normal -1 0 0
outer loop
vertex 4.000100000000001 27.300016666666668 -3.6000333333333336
vertex 4.000100000000001 26.499883333333337 -4.000100000000001
vertex 4.000100000000001 26.499883333333337 -2.0000500000000003
endloop
endfacet
facet normal -1 0 0
outer loop
vertex 4.000100000000001 27.300016666666668 -3.6000333333333336
vertex 4.000100000000001 26.499883333333337 -2.0000500000000003
vertex 4.000100000000001 28.499933333333335 -2.0000500000000003
endloop
endfacet
facet normal -1 0 0
outer loop
vertex 4.000100000000001 27.300016666666668 -3.6000333333333336
vertex 4.000100000000001 28.499933333333335 -2.0000500000000003
vertex 4.000100000000001 28.499933333333335 -4.999983333333334
endloop
endfacet
facet normal -0.9999999999999999 0 0
outer loop
vertex 4.000100000000001 27.300016666666668 -3.6000333333333336
vertex 4.000100000000001 28.499933333333335 -4.999983333333334
vertex 4.000100000000001 26.499883333333337 -4.999983333333334
endloop
endfacet
facet normal -0.9999999999999999 0 0
outer loop
vertex 4.000100000000001 27.300016666666668 -3.6000333333333336
vertex 4.000100000000001 26.499883333333337 -4.999983333333334
vertex 4.000100000000001 26.499883333333337 -4.000100000000001
endloop
endfacet
facet normal 0 0 -1
outer loop
vertex -4.000100000000001 28.499933333333335 -2.0000500000000003
vertex 4.000100000000001 28.499933333333335 -2.0000500000000003
vertex 4.000100000000001 26.499883333333337 -2.0000500000000003
endloop
endfacet
facet normal 0 0 -1
outer loop
vertex -4.000100000000001 28.499933333333335 -2.0000500000000003
vertex 4.000100000000001 26.499883333333337 -2.0000500000000003
vertex -4.000100000000001 26.499883333333337 -2.0000500000000003
endloop
endfacet
facet normal 0 1 0
outer loop
vertex -3.800066666666667 26.499883333333337 -4.000100000000001
vertex -3.800066666666667 26.499883333333337 -4.999983333333334
vertex -4.000100000000001 26.499883333333337 -4.999983333333334
endloop
endfacet
facet normal 0 1 0
outer loop
vertex -3.800066666666667 26.499883333333337 -4.000100000000001
vertex -4.000100000000001 26.499883333333337 -4.999983333333334
vertex -4.000100000000001 26.499883333333337 -4.000100000000001
endloop
endfacet
facet normal 0 1 0
outer loop
vertex 4.000100000000001 26.499883333333337 -4.000100000000001
vertex 4.000100000000001 26.499883333333337 -4.999983333333334
vertex 3.800066666666667 26.499883333333337 -4.999983333333334
endloop
endfacet
facet normal 0 1 0
outer loop
vertex 4.000100000000001 26.499883333333337 -4.000100000000001
vertex 3.800066666666667 26.499883333333337 -4.999983333333334
vertex 3.800066666666667 26.499883333333337 -4.000100000000001
endloop
endfacet
facet normal -1 0 0
outer loop
vertex -9.999966666666667 27.35696666666667 -2.8571333333333335
vertex -9.999966666666667 28.499933333333335 -0.9998833333333335
vertex -9.999966666666667 28.499933333333335 -2.0000500000000003
endloop
endfacet
facet normal -1 0 0
outer loop
vertex -9.999966666666667 27.35696666666667 -2.8571333333333335
vertex -9.999966666666667 28.499933333333335 -2.0000500000000003
vertex -9.999966666666667 28.499933333333335 -4.999983333333334
endloop
endfacet
facet normal -1 0 0
outer loop
vertex -9.999966666666667 27.35696666666667 -2.8571333333333335
vertex -9.999966666666667 28.499933333333335 -4.999983333333334
vertex -9.999966666666667 26.499883333333337 -4.999983333333334
endloop
endfacet
facet normal -1 0 0
outer loop
vertex -9.999966666666667 27.35696666666667 -2.8571333333333335
vertex -9.999966666666667 26.499883333333337 -4.999983333333334
vertex -9.999966666666667 26.499883333333337 -4.000100000000001
endloop
endfacet
facet normal -1 0 0
outer loop
vertex -9.999966666666667 27.35696666666667 -2.8571333333333335
vertex -9.999966666666667 26.499883333333337 -4.000100000000001
vertex -9.999966666666667 26.499883333333337 -2.0000500000000003
endloop
endfacet
facet normal -1 0 0
outer loop
vertex -9.999966666666667 27.35696666666667 -2.8571333333333335
vertex -9.999966666666667 26.499883333333337 -2.0000500000000003
vertex -9.999966666666667 26.499883333333337 -0.9998833333333335
endloop
endfacet
facet normal -1 0 0
outer loop
vertex -9.999966666666667 27.35696666666667 -2.8571333333333335
vertex -9.999966666666667 26.499883333333337 -0.9998833333333335
vertex -9.999966666666667 28.499933333333335 -0.9998833333333335
endloop
endfacet
facet normal 1 0 0
outer loop
vertex 9.999966666666667 27.35696666666667 -2.8571333333333335
vertex 9.999966666666667 26.499883333333337 -2.0000500000000003
vertex 9.999966666666667 26.499883333333337 -4.000100000000001
endloop
endfacet
facet normal 1 0 0
outer loop
vertex 9.999966666666667 27.35696666666667 -2.8571333333333335
vertex 9.999966666666667 26.499883333333337 -4.000100000000001
vertex 9.999966666666667 26.499883333333337 -4.999983333333334
endloop
endfacet
facet normal 1 0 0
outer loop
vertex 9.999966666666667 27.35696666666667 -2.8571333333333335
vertex 9.999966666666667 26.499883333333337 -4.999983333333334
vertex 9.999966666666667 28.499933333333335 -4.999983333333334
endloop
endfacet
facet normal 1 0 0
outer loop
vertex 9.999966666666667 27.35696666666667 -2.8571333333333335
vertex 9.999966666666667 28.499933333333335 -4.999983333333334
vertex 9.999966666666667 28.499933333333335 -2.0000500000000003
endloop
endfacet
facet normal 1 0 0
outer loop
vertex 9.999966666666667 27.35696666666667 -2.8571333333333335
vertex 9.999966666666667 28.499933333333335 -2.0000500000000003
vertex 9.999966666666667 28.499933333333335 -0.9998833333333335
endloop
endfacet
facet normal 1 0 0
outer loop
vertex 9.999966666666667 27.35696666666667 -2.8571333333333335
vertex 9.999966666666667 28.499933333333335 -0.9998833333333335
vertex 9.999966666666667 26.499883333333337 -0.9998833333333335
endloop
endfacet
facet normal 1 0 0
outer loop
vertex 9.999966666666667 27.35696666666667 -2.8571333333333335
vertex 9.999966666666667 26.499883333333337 -0.9998833333333335
vertex 9.999966666666667 26.499883333333337 -2.0000500000000003
endloop
endfacet
endsolid JSCAD
